<svg xmlns="http://www.w3.org/2000/svg" width="475.577" height="349.856" viewBox="0 0 475.577 349.856">
  <g id="Grupo_88403" data-name="Grupo 88403" transform="translate(-922.451 -3089.072)">
    <g id="Grupo_88402" data-name="Grupo 88402" transform="translate(820.369 3050.412)">
      <g id="Grupo_88379" data-name="Grupo 88379" transform="translate(168.53 38.66)">
        <g id="Grupo_88360" data-name="Grupo 88360" transform="translate(46.156)">
          <g id="Grupo_88338" data-name="Grupo 88338" transform="translate(31.127)">
            <g id="Grupo_88337" data-name="Grupo 88337">
              <g id="Grupo_88336" data-name="Grupo 88336">
                <g id="Grupo_88335" data-name="Grupo 88335">
                  <g id="Grupo_88334" data-name="Grupo 88334">
                    <path id="Trazado_145144" data-name="Trazado 145144" d="M427.435,112.221l-1.427-1.077c-9.138-6.9-15.835-13.61-20.62-22.445-.833-21.344-34.344-41.221-45.506-32.419-.337.266-11.452-6.24-26.761-1.867a25.1,25.1,0,0,0-1.823-4.4c-4.938-9.246-14.535-13.755-21.436-10.07-3.527,1.884-5.657,5.547-6.248,9.91-7.121.188-13.258,3.451-15.787,9.157-3.882,8.762,2.21,19.958,13.607,25.008.462.2.924.39,1.388.569-4.553,8.277-10.888,14.791-19.416,21.516l-1.4,1.107c-19.092,15.055-18.831,41.785-5.286,54.053l3.905,3.573q.906.829,1.868,1.587a7.52,7.52,0,0,1,3,7.22,36.389,36.389,0,0,0,.74,15.721c5.4,19.932,27.206,33.8,51.516,32.6a61.929,61.929,0,0,0,9.238-1.154,59.226,59.226,0,0,0,27.133,7.314c24.331.694,45.843-13.634,50.817-33.676a36.365,36.365,0,0,0,.409-15.733,7.521,7.521,0,0,1,2.851-7.282q.945-.779,1.835-1.627l3.828-3.654C447.144,153.6,446.84,126.87,427.435,112.221Z" transform="translate(-267.048 -38.66)" fill="#121936"/>
                    <path id="Trazado_145145" data-name="Trazado 145145" d="M427.436,122.39l-.7-.53c9.83,15.4,7.146,35.239-4.285,45.03l-4,3.462q-.928.8-1.912,1.536a7.519,7.519,0,0,0-3.2,7.134,36.36,36.36,0,0,1-1.175,15.693c-4.546,15.119-18.589,26.422-35.793,30.071a58.234,58.234,0,0,1-18.964-6.533,61.9,61.9,0,0,1-9.238,1.155,58.682,58.682,0,0,1-12.75-.761c-.814-.452-1.616-.917-2.4-1.4-.853.13-1.715.237-2.582.332-16.557-4.363-29.755-15.87-33.787-30.765a36.386,36.386,0,0,1-.74-15.721,7.518,7.518,0,0,0-3-7.219q-.961-.761-1.868-1.588l-3.905-3.572c-10.174-9.216-12.851-26.59-5.464-41.048-18.74,15.1-18.409,41.578-4.947,53.772l3.905,3.573q.906.829,1.868,1.587a7.52,7.52,0,0,1,3,7.22,36.388,36.388,0,0,0,.74,15.721,39.72,39.72,0,0,0,10.35,17.562l.01.01q.583.587,1.189,1.153l.124.115q.582.541,1.185,1.064l.168.144q.6.516,1.221,1.015c.05.039.1.078.151.119a49.954,49.954,0,0,0,7.129,4.719c.118.064.234.131.352.194.39.209.786.411,1.182.611.187.095.372.19.56.281q.555.272,1.12.53c.223.1.445.2.67.3q.538.239,1.085.468c.248.1.5.206.75.307.353.142.707.282,1.064.416.27.1.544.2.816.3.348.125.693.25,1.044.368.3.1.6.194.9.289.334.106.665.216,1,.316.387.115.779.22,1.169.328q.67.183,1.348.353c.444.11.889.22,1.337.321.281.062.564.117.845.174.392.082.783.163,1.179.236.3.055.593.1.89.153.387.065.775.13,1.165.187.3.044.6.085.905.125q.588.077,1.181.145c.3.033.6.064.905.093q.608.058,1.219.1c.294.022.589.044.884.061.427.025.856.043,1.285.059.28.01.559.023.84.03.475.01.952.011,1.43.01.237,0,.472,0,.709,0q1.073-.013,2.154-.065a61.925,61.925,0,0,0,9.238-1.154,59.225,59.225,0,0,0,27.133,7.314c.709.02,1.415.025,2.119.02.229,0,.457-.01.684-.014.477-.009.952-.021,1.427-.041.266-.011.531-.027.8-.042q.653-.038,1.3-.088c.274-.022.546-.044.819-.07.432-.04.862-.086,1.292-.136.26-.031.522-.058.781-.092.469-.06.933-.13,1.4-.2.214-.033.43-.062.643-.1q.993-.165,1.974-.361c.178-.036.353-.078.531-.115.481-.1.961-.206,1.437-.32.269-.064.536-.134.8-.2.381-.1.761-.194,1.138-.3.288-.079.576-.163.862-.247q.528-.154,1.051-.318c.294-.092.587-.186.878-.282.337-.112.671-.229,1-.347.293-.1.586-.206.875-.313.335-.125.666-.257,1-.388.287-.113.575-.222.859-.34q.826-.342,1.635-.709c.318-.144.629-.3.943-.445.263-.125.527-.249.787-.378.324-.16.643-.328.962-.494.241-.126.482-.252.721-.382q.486-.264.965-.537.332-.19.66-.383c.328-.193.656-.389.979-.589.189-.118.375-.238.563-.358.344-.22.688-.438,1.025-.666.088-.058.173-.12.26-.179q1.891-1.289,3.63-2.728c.109-.09.218-.177.325-.267q.5-.425.993-.863c.119-.105.238-.211.355-.318q.486-.442.958-.9c.1-.1.207-.2.311-.3.325-.32.648-.641.963-.969.056-.058.109-.118.165-.176a43.069,43.069,0,0,0,3.983-4.85l.143-.2c.266-.382.523-.769.775-1.159l.181-.283q.37-.583.72-1.176c.05-.085.1-.17.146-.254.241-.417.478-.838.7-1.264h0a37.64,37.64,0,0,0,3.293-8.556,36.366,36.366,0,0,0,.409-15.733A7.521,7.521,0,0,1,428.2,181.6q.945-.779,1.835-1.627l3.828-3.654C447.144,163.769,446.841,137.039,427.436,122.39Z" transform="translate(-267.049 -48.829)" fill="#363950" opacity="0.33"/>
                  </g>
                </g>
              </g>
            </g>
          </g>
          <g id="Grupo_88340" data-name="Grupo 88340" transform="translate(0 132.994)">
            <g id="Grupo_88339" data-name="Grupo 88339">
              <path id="Trazado_145146" data-name="Trazado 145146" d="M335.187,191.989l16.581,1.183,23.516-1.2,43.556,2.573s58.968,3.626,57.66,90.986a3.07,3.07,0,0,1-2.342,3.012l-48.672,9.968c1.38,30.2,2.7,66.452,2.885,77.663l-8.575-.046-69.006-.427-74.825.473h0c.311-11.386.984-46.935,2.743-77.663l-44.62-8.137a3.061,3.061,0,0,1-2.49-2.891C225.118,176.953,335.187,191.989,335.187,191.989Z" transform="translate(-231.322 -191.302)" fill="#5d33ff"/>
            </g>
            <path id="Trazado_145147" data-name="Trazado 145147" d="M336.609,204.311l16.581.827,23.516-.839,43.556,1.8s32.263,1.4,48.527,26.833c-16.268-36.39-48.527-38.384-48.527-38.384l-43.556-2.573-23.516,1.2-16.581-1.183s-68.505-9.343-94.24,40.993C268.09,197.788,336.609,204.311,336.609,204.311Z" transform="translate(-232.744 -191.302)" fill="#481eef" opacity="0.6"/>
          </g>
          <g id="Grupo_88359" data-name="Grupo 88359" transform="translate(81.128 34.398)">
            <g id="Grupo_88343" data-name="Grupo 88343">
              <g id="Grupo_88342" data-name="Grupo 88342">
                <g id="Grupo_88341" data-name="Grupo 88341">
                  <path id="Trazado_145148" data-name="Trazado 145148" d="M408.261,138.841l-3.126-30.29c-5.342-8.18-19.232-10.312-24.4-16.249a23.38,23.38,0,0,1-5.566-14.163l-.436,4.429c-1.987,20.2-16.585,35.307-32.65,33.841l.023.22-5.249.182a12.907,12.907,0,0,0-12.414,13.308l.01.293a12.907,12.907,0,0,0,13.307,12.415l3.394-.118L339.717,189.5c.086,12.665,12.586,19.8,25.454,19.71l.533,0a23.283,23.283,0,0,0,23.241-23.186l-.115-16.85A28.915,28.915,0,0,0,408.261,138.841Z" transform="translate(-324.435 -78.14)" fill="#ff9c9c"/>
                </g>
              </g>
            </g>
            <path id="Trazado_145149" data-name="Trazado 145149" d="M337.118,136.718" transform="translate(-326.068 -85.68)" fill="none" stroke="#ff6969" stroke-linecap="round" stroke-linejoin="round" stroke-width="5"/>
            <g id="Grupo_88358" data-name="Grupo 88358" transform="translate(6.087 28.845)">
              <path id="Trazado_145150" data-name="Trazado 145150" d="M337.5,141.121a.871.871,0,0,1-.477-1.6l3.347-2.183-3.809-4.237a.872.872,0,0,1,1.3-1.166l4.489,5a.872.872,0,0,1-.173,1.312l-4.2,2.738A.865.865,0,0,1,337.5,141.121Z" transform="translate(-332.055 -113.872)" fill="#ff6969"/>
              <g id="Grupo_88357" data-name="Grupo 88357" transform="translate(31.276)">
                <path id="Trazado_145151" data-name="Trazado 145151" d="M410.535,130.27a2.728,2.728,0,1,1-3.237-2.1A2.728,2.728,0,0,1,410.535,130.27Z" transform="translate(-372.186 -113.417)" fill="#121936"/>
                <path id="Trazado_145152" data-name="Trazado 145152" d="M382.312,129.7a2.728,2.728,0,1,1-2.6-2.846A2.727,2.727,0,0,1,382.312,129.7Z" transform="translate(-368.546 -113.255)" fill="#121936"/>
                <path id="Trazado_145153" data-name="Trazado 145153" d="M389.075,151.969c-4.453,0-7.808-1.185-9.969-3.523a9.5,9.5,0,0,1-2.44-6.719,1.307,1.307,0,0,1,2.606.2,6.947,6.947,0,0,0,1.778,4.769c1.65,1.763,4.349,2.657,8.025,2.657a.107.107,0,0,0,.047,0,1.307,1.307,0,0,1,0,2.614Z" transform="translate(-368.52 -115.015)" fill="#ff6969"/>
                <g id="Grupo_88345" data-name="Grupo 88345" transform="translate(20.674 48.884)">
                  <g id="Grupo_88344" data-name="Grupo 88344">
                    <path id="Trazado_145154" data-name="Trazado 145154" d="M397.17,168.717a.523.523,0,0,1-.349-.017,4.415,4.415,0,0,0-4.868,1.05.519.519,0,0,1-.777-.689c2.473-2.782,6.012-1.333,6.048-1.318a.519.519,0,0,1-.054.975Z" transform="translate(-391.046 -167.352)" fill="#ff6969"/>
                  </g>
                </g>
                <g id="Grupo_88354" data-name="Grupo 88354">
                  <g id="Grupo_88353" data-name="Grupo 88353">
                    <g id="Grupo_88352" data-name="Grupo 88352">
                      <g id="Grupo_88348" data-name="Grupo 88348">
                        <g id="Grupo_88347" data-name="Grupo 88347">
                          <g id="Grupo_88346" data-name="Grupo 88346">
                            <path id="Trazado_145155" data-name="Trazado 145155" d="M368.442,118.012a7.922,7.922,0,0,0,3.274-.377c1.138-.287,2.287-.546,3.294-.736s2.175-.372,3.339-.522a7.9,7.9,0,0,0,3.178-.847c.8-.531.95-1.646-.32-2.741-1.2-1.073-3.977-1.96-7.318-1.335-3.333.64-5.55,2.475-6.237,3.906C366.914,116.836,367.5,117.812,368.442,118.012Z" transform="translate(-367.318 -111.246)" fill="#121936"/>
                          </g>
                        </g>
                      </g>
                      <g id="Grupo_88351" data-name="Grupo 88351" transform="translate(30.679 1.703)">
                        <g id="Grupo_88350" data-name="Grupo 88350">
                          <g id="Grupo_88349" data-name="Grupo 88349">
                            <path id="Trazado_145156" data-name="Trazado 145156" d="M412.07,118.148a4.82,4.82,0,0,1-2.27-.135c-.792-.169-1.592-.316-2.292-.416s-1.511-.185-2.318-.245a4.811,4.811,0,0,1-2.214-.508c-.561-.377-.69-1.244.164-2.165a5.882,5.882,0,0,1,5.027-1.406,5.771,5.771,0,0,1,4.391,2.757C413.1,117.151,412.72,117.944,412.07,118.148Z" transform="translate(-402.529 -113.201)" fill="#121936"/>
                          </g>
                        </g>
                      </g>
                    </g>
                  </g>
                </g>
                <g id="Grupo_88355" data-name="Grupo 88355" transform="translate(7.446 17.645)">
                  <path id="Trazado_145157" data-name="Trazado 145157" d="M376.863,133.252a3.886,3.886,0,0,1,4.807.187" transform="translate(-375.992 -131.626)" fill="#ff9c9c"/>
                  <path id="Trazado_145158" data-name="Trazado 145158" d="M381.54,134.183a.868.868,0,0,1-.556-.2,2.967,2.967,0,0,0-3.726-.163.871.871,0,0,1-1.055-1.387,4.729,4.729,0,0,1,5.894.209.872.872,0,0,1-.558,1.542Z" transform="translate(-375.864 -131.498)" fill="#ff6969"/>
                </g>
                <g id="Grupo_88356" data-name="Grupo 88356" transform="translate(32.031 18.46)">
                  <path id="Trazado_145159" data-name="Trazado 145159" d="M405.079,134.051a4.389,4.389,0,0,1,5.122.477" transform="translate(-404.209 -132.561)" fill="#ff9c9c"/>
                  <path id="Trazado_145160" data-name="Trazado 145160" d="M410.073,135.271a.869.869,0,0,1-.576-.217,3.508,3.508,0,0,0-4.087-.39.871.871,0,0,1-.923-1.479,5.228,5.228,0,0,1,6.162.561.871.871,0,0,1-.576,1.525Z" transform="translate(-404.081 -132.433)" fill="#ff6969"/>
                </g>
              </g>
              <path id="Trazado_145161" data-name="Trazado 145161" d="M393.45,181.294s-25.529,2.232-30.182-6.7h0s-.6,13.939,30.529,19.935Z" transform="translate(-335.254 -118.89)" fill="#ff6969"/>
              <path id="Trazado_145162" data-name="Trazado 145162" d="M394.02,141.979c-.114,0-.228,0-.344-.008l-2.345-.1a1.307,1.307,0,1,1,.114-2.612l2.345.1a5.188,5.188,0,0,0,5.388-4.937.7.7,0,0,0-.663-.724,5.319,5.319,0,0,1-5.075-5.538l.254-5.791a1.307,1.307,0,0,1,2.612.114l-.254,5.791a2.7,2.7,0,0,0,2.576,2.812,3.315,3.315,0,0,1,3.162,3.449A7.793,7.793,0,0,1,394.02,141.979Z" transform="translate(-338.972 -112.517)" fill="#ff6969"/>
              <path id="Trazado_145163" data-name="Trazado 145163" d="M331.431,149.5a4.892,4.892,0,1,0,5.182-4.579A4.89,4.89,0,0,0,331.431,149.5Z" transform="translate(-331.421 -115.58)" fill="#fff"/>
            </g>
          </g>
        </g>
        <g id="Grupo_88365" data-name="Grupo 88365" transform="translate(0 134.448)">
          <path id="Trazado_145164" data-name="Trazado 145164" d="M289.56,209.253l-34.2-9.006.137-.235-26.339-6.357a43.117,43.117,0,0,0-41.544,15.791l-6.028,7.669a15.168,15.168,0,0,0-2.6,13.736c.19.632.417,1.243.663,1.845-.283-.052-4,61.732,5.431,98.373,12.628,49.073,88.282,32.479,88.282,32.479l2.662-64.822-28.385-6.59-16.033-30.443a15.045,15.045,0,0,0,9.852-3.639c10.84-9.873-10.163-23.7-10.163-23.7,8.759,2.148,12.15,12.4,12.15,12.4s3.251,2.425,7.615-5.676-10.529-19.4-10.529-19.4l4.315,3.282a20.057,20.057,0,0,1,7.428,11.567l.167.744,1.56-1.147a12.355,12.355,0,0,0,4.541-13.771,22.09,22.09,0,0,0-4.964-7.858l18.654,5.242,7.36,1.748c5.878,1.4,11.811-1.2,13.913-6.081h0C294.626,212.8,292.72,209.835,289.56,209.253Z" transform="translate(-178.347 -192.971)" fill="#ff9c9c"/>
          <g id="Grupo_88364" data-name="Grupo 88364" transform="translate(34.022 15.317)">
            <path id="Trazado_145165" data-name="Trazado 145165" d="M257.878,306.787s9.018,25.725,9.013,24.847-2.93-23.417-2.93-23.417Z" transform="translate(-222.606 -222.938)" fill="#ff6969"/>
            <g id="Grupo_88363" data-name="Grupo 88363" transform="translate(13.374)">
              <g id="Grupo_88361" data-name="Grupo 88361" transform="translate(0 12.33)">
                <path id="Trazado_145166" data-name="Trazado 145166" d="M233.463,238.122a17.308,17.308,0,0,1,5.879,1.611,22,22,0,0,1,5.08,3.276,24.514,24.514,0,0,1,2.135,2.142c.325.384.678.748.98,1.15l.888,1.221a11.028,11.028,0,0,1,.823,1.262l.774,1.294c.471.884.884,1.8,1.329,2.7a.871.871,0,0,1-1.561.771l0-.007-.04-.084c-.407-.856-.782-1.73-1.213-2.575l-.708-1.23a10.1,10.1,0,0,0-.754-1.2l-.813-1.161c-.276-.382-.6-.725-.9-1.091a23.078,23.078,0,0,0-1.957-2.034,20.517,20.517,0,0,0-4.671-3.129,16.123,16.123,0,0,0-5.32-1.579l-.065-.006a.666.666,0,0,1,.116-1.327Z" transform="translate(-232.745 -226.43)" fill="#ff6969"/>
                <path id="Trazado_145167" data-name="Trazado 145167" d="M246.836,224.718a17.2,17.2,0,0,1,5.486,2.529,21.934,21.934,0,0,1,4.456,4.045,24.336,24.336,0,0,1,1.752,2.454c.258.431.546.848.778,1.293l.675,1.347a11.058,11.058,0,0,1,.606,1.378l.551,1.4c.321.949.579,1.917.87,2.877a.871.871,0,1,1-1.667.505l-.006-.019-.023-.088c-.25-.914-.466-1.841-.741-2.749l-.48-1.337a10.085,10.085,0,0,0-.531-1.316l-.6-1.289c-.2-.426-.464-.822-.694-1.235a22.988,22.988,0,0,0-1.574-2.355,20.63,20.63,0,0,0-4.066-3.923,16.247,16.247,0,0,0-5.008-2.514l-.05-.014a.513.513,0,0,1,.262-.992Z" transform="translate(-234.476 -224.703)" fill="#ff6969"/>
              </g>
              <g id="Grupo_88362" data-name="Grupo 88362" transform="translate(54.783)">
                <path id="Trazado_145168" data-name="Trazado 145168" d="M296.621,211.551l.162,2.323a3.219,3.219,0,0,0,2.729,2.945c1.916.244,4.4-.028,5.566-2.61" transform="translate(-295.749 -210.68)" fill="#ff9c9c"/>
                <path id="Trazado_145169" data-name="Trazado 145169" d="M300.453,217.632a9.416,9.416,0,0,1-1.18-.078,4.1,4.1,0,0,1-3.489-3.749l-.162-2.323a.872.872,0,0,1,1.739-.121l.162,2.323a2.358,2.358,0,0,0,1.969,2.142c2.325.3,3.9-.412,4.662-2.105a.871.871,0,1,1,1.587.719A5.407,5.407,0,0,1,300.453,217.632Z" transform="translate(-295.621 -210.551)" fill="#ff6969"/>
              </g>
            </g>
            <path id="Trazado_145170" data-name="Trazado 145170" d="M236.52,271.457s-8.263,3.841-19.125-1.367c0,0,8.982,12.666,22.5,7.778Z" transform="translate(-217.395 -218.215)" fill="#ff6969"/>
          </g>
        </g>
        <g id="Grupo_88378" data-name="Grupo 88378" transform="translate(221.813 60.051)">
          <g id="Grupo_88367" data-name="Grupo 88367" transform="translate(0 2.325)">
            <ellipse id="Elipse_4718" data-name="Elipse 4718" cx="18.527" cy="17.277" rx="18.527" ry="17.277" transform="translate(2.7 9.677) rotate(-11.865)" fill="#5574d8"/>
            <ellipse id="Elipse_4719" data-name="Elipse 4719" cx="18.527" cy="17.277" rx="18.527" ry="17.277" transform="translate(0 7.619) rotate(-11.866)" fill="#708cf5"/>
            <path id="Trazado_145171" data-name="Trazado 145171" d="M456.371,145.982a14.615,14.615,0,0,1-11.7-5.594,12.936,12.936,0,0,1-2.5-9.993,14.123,14.123,0,0,1,6.135-9.425c6.658-4.544,15.872-3.252,20.536,2.879h0a12.931,12.931,0,0,1,2.5,9.993,14.127,14.127,0,0,1-6.134,9.425A15.67,15.67,0,0,1,456.371,145.982Zm.769-26.858a14.805,14.805,0,0,0-8.349,2.567,13.257,13.257,0,0,0-5.765,8.844,12.075,12.075,0,0,0,2.337,9.325c4.388,5.767,13.067,6.973,19.351,2.687a13.265,13.265,0,0,0,5.767-8.845,12.075,12.075,0,0,0-2.338-9.325A13.74,13.74,0,0,0,457.14,119.124Z" transform="translate(-434.096 -111.282)" fill="#fff"/>
            <g id="Grupo_88366" data-name="Grupo 88366" transform="translate(15.832 10.471)">
              <path id="Trazado_145172" data-name="Trazado 145172" d="M459.035,138.843a10.278,10.278,0,0,1-2.592.253,8.959,8.959,0,0,1-2.166-.315.946.946,0,0,1-.681-.619.885.885,0,0,1,.077-.716.978.978,0,0,1,.609-.478,1.488,1.488,0,0,1,.716-.024,11.325,11.325,0,0,0,1.993.236,6.669,6.669,0,0,0,2.116-.308,7.17,7.17,0,0,0,.782-.283,4.8,4.8,0,0,0,.682-.363,3.132,3.132,0,0,0,.552-.448,2.431,2.431,0,0,0,.38-.506,1.414,1.414,0,0,0,.171-.58,1.693,1.693,0,0,0-.081-.654,1.371,1.371,0,0,0-.811-.888,3.991,3.991,0,0,0-1.744-.2l-2.39.144q-.712.035-1.181.047t-1.017-.017a5.5,5.5,0,0,1-.912-.11,4.165,4.165,0,0,1-.749-.247,2.144,2.144,0,0,1-.65-.422,3.148,3.148,0,0,1-.495-.633,3.962,3.962,0,0,1-.388-.878,3.249,3.249,0,0,1-.155-.914,2.787,2.787,0,0,1,.108-.849,3.316,3.316,0,0,1,.346-.776,3.776,3.776,0,0,1,.558-.711,5.226,5.226,0,0,1,.755-.626,8.228,8.228,0,0,1,.913-.543,9.9,9.9,0,0,1,1.058-.463l-.81-2.569a.777.777,0,0,1,.059-.677.919.919,0,0,1,.533-.394,1,1,0,0,1,.689.032.775.775,0,0,1,.457.514l.818,2.595a10.782,10.782,0,0,1,2.654-.2q.482.033.946.1a1,1,0,0,1,.923.683.844.844,0,0,1,.038.262.7.7,0,0,1-.05.262,1.279,1.279,0,0,1-.125.237.736.736,0,0,1-.21.2,1.139,1.139,0,0,1-.3.138,1.1,1.1,0,0,1-.159.034c-.052.006-.11.012-.172.017s-.124.007-.183.007c-.009,0-.138,0-.388-.014s-.429-.019-.538-.023-.3,0-.573.008-.506.024-.7.046-.427.058-.7.107a7.262,7.262,0,0,0-.782.188,6.271,6.271,0,0,0-1.344.562,2.41,2.41,0,0,0-.855.8,1.323,1.323,0,0,0,.6,1.858,5.648,5.648,0,0,0,1.869.075l2.342-.156a7.212,7.212,0,0,1,3.487.431,3.167,3.167,0,0,1,1.67,2.022,3.379,3.379,0,0,1-.37,3.063,6.136,6.136,0,0,1-2.887,2.147l.8,2.532a.756.756,0,0,1-.082.677,1.007,1.007,0,0,1-.565.41.986.986,0,0,1-.432.034.833.833,0,0,1-.674-.592Z" transform="translate(-451.1 -122.269)" fill="#fff"/>
            </g>
          </g>
          <g id="Grupo_88377" data-name="Grupo 88377" transform="translate(18.507)">
            <g id="Grupo_88375" data-name="Grupo 88375">
              <g id="Grupo_88373" data-name="Grupo 88373">
                <path id="Trazado_145173" data-name="Trazado 145173" d="M542.313,179.716c-1.087-6.6-2.371-13.169-3.891-19.682-2.42-10.364-4.673-21.466-9.9-30.793a14.721,14.721,0,0,0-7.037-9.277c-4.18-1.63-15.737-11.452-15.737-11.452a3.118,3.118,0,0,0-4.864.492,7.279,7.279,0,0,0-.329,6.078c-5.361-3.021-10.26-6.1-10.26-6.1-2.28-1.513-5.2-.822-6.054,1.43a9.292,9.292,0,0,0,1.149,8.354c-3.469-1.873-6.025-3.359-6.025-3.359a4.717,4.717,0,0,0-6.68,2.007,9.53,9.53,0,0,0,4.282,12.437l5.71,3.088c8.868,3.958,13.434,11.139,13.734,19.126.206,5.485-3.7,11.68-9.473,12.732l-1.689.185a11.086,11.086,0,0,1-8.891-3.009,20.341,20.341,0,0,1-5.514-9.156l-.931-3.314a8.769,8.769,0,0,0-10.385-5.057,4.178,4.178,0,0,0-3.3,4.344l1.723,18.239a17.358,17.358,0,0,0,9.385,13.7l24.048,12.648-.2.057-10.3,86.075-26.721,8.228,2.662,64.822s75.653,16.594,88.281-32.479c4.906-19.064,4.139-40,3.569-59.508-.664-22.694-1.6-45.423-4.489-67.961Q543.366,186.147,542.313,179.716Z" transform="translate(-454.171 -107.582)" fill="#ff9c9c"/>
                <g id="Grupo_88368" data-name="Grupo 88368" transform="translate(21.961 8.737)">
                  <path id="Trazado_145174" data-name="Trazado 145174" d="M487.12,121.733l-1.473,1.327a2.74,2.74,0,0,1-3.413.191c-1.318-.985-2.677-2.617-1.865-4.891" transform="translate(-479.473 -117.706)" fill="#ff9c9c"/>
                  <path id="Trazado_145175" data-name="Trazado 145175" d="M483.706,124.313a3.265,3.265,0,0,1-1.96-.635c-2.088-1.559-2.831-3.56-2.091-5.634a.653.653,0,1,1,1.23.439c-.546,1.531.007,2.926,1.641,4.147a2.1,2.1,0,0,0,2.585-.152l1.472-1.327a.654.654,0,1,1,.875.971l-1.472,1.326A3.411,3.411,0,0,1,483.706,124.313Z" transform="translate(-479.377 -117.61)" fill="#ff6969"/>
                </g>
                <g id="Grupo_88369" data-name="Grupo 88369" transform="translate(33.535 2.141)">
                  <path id="Trazado_145176" data-name="Trazado 145176" d="M500.4,114.162l-1.473,1.327a2.742,2.742,0,0,1-3.414.191c-1.317-.985-2.676-2.617-1.865-4.891" transform="translate(-492.756 -110.136)" fill="#ff9c9c"/>
                  <path id="Trazado_145177" data-name="Trazado 145177" d="M496.989,116.742a3.265,3.265,0,0,1-1.959-.635c-2.088-1.559-2.831-3.56-2.091-5.634a.654.654,0,0,1,1.231.439c-.546,1.531.006,2.926,1.641,4.147a2.1,2.1,0,0,0,2.586-.152l1.472-1.326a.653.653,0,0,1,.875.971l-1.473,1.326A3.412,3.412,0,0,1,496.989,116.742Z" transform="translate(-492.66 -110.039)" fill="#ff6969"/>
                </g>
                <g id="Grupo_88370" data-name="Grupo 88370" transform="translate(48.972 0.757)">
                  <path id="Trazado_145178" data-name="Trazado 145178" d="M515.341,112.438l-1.175.638a1.782,1.782,0,0,1-2.222-.4,2.781,2.781,0,0,1-.346-3.473" transform="translate(-510.474 -108.548)" fill="#ff9c9c"/>
                  <path id="Trazado_145179" data-name="Trazado 145179" d="M513.195,113.853a2.369,2.369,0,0,1-1.858-.867,3.388,3.388,0,0,1-.377-4.246.654.654,0,0,1,1.084.731c-.209.309-.844,1.249.314,2.7a1.134,1.134,0,0,0,1.4.234l1.176-.639a.654.654,0,0,1,.623,1.149l-1.175.638A2.477,2.477,0,0,1,513.195,113.853Z" transform="translate(-510.377 -108.452)" fill="#ff6969"/>
                </g>
                <path id="Trazado_145180" data-name="Trazado 145180" d="M490.076,120.04" transform="translate(-458.793 -109.186)" fill="#ff9c9c"/>
                <g id="Grupo_88371" data-name="Grupo 88371" transform="translate(45.623 6.787)">
                  <path id="Trazado_145181" data-name="Trazado 145181" d="M507.284,116.121c4.5,2.54,9.346,5.05,11.91,5.665h0a19.142,19.142,0,0,1,10.651,10.441" transform="translate(-506.631 -115.468)" fill="#ff9c9c"/>
                  <path id="Trazado_145182" data-name="Trazado 145182" d="M529.748,132.784a.656.656,0,0,1-.607-.41,18.367,18.367,0,0,0-10.244-10.06c-2.23-.549-6.278-2.473-12.031-5.72a.653.653,0,1,1,.641-1.138c5.608,3.165,9.669,5.1,11.741,5.6l.09.028a19.688,19.688,0,0,1,11.016,10.8.654.654,0,0,1-.606.9Z" transform="translate(-506.534 -115.372)" fill="#ff6969"/>
                </g>
                <g id="Grupo_88372" data-name="Grupo 88372" transform="translate(30.62 10.473)">
                  <path id="Trazado_145183" data-name="Trazado 145183" d="M490.065,120.353s10.84,6.529,16.776,7.531h0a16.547,16.547,0,0,1,10.612,10.367l2.823,8.48" transform="translate(-489.411 -119.699)" fill="#ff9c9c"/>
                  <path id="Trazado_145184" data-name="Trazado 145184" d="M520.179,147.289a.654.654,0,0,1-.62-.447l-2.822-8.48a15.8,15.8,0,0,0-10.152-9.938c-6-1.039-16.507-7.34-16.953-7.608a.653.653,0,0,1,.673-1.12c.107.064,10.8,6.477,16.548,7.447l.1.025a17.1,17.1,0,0,1,11.026,10.781l2.822,8.48a.653.653,0,0,1-.413.826A.669.669,0,0,1,520.179,147.289Z" transform="translate(-489.314 -119.602)" fill="#ff6969"/>
                </g>
                <path id="Trazado_145185" data-name="Trazado 145185" d="M531.433,121.794" transform="translate(-464.116 -109.412)" fill="#ff9c9c" stroke="#ff6969" stroke-linecap="round" stroke-miterlimit="10" stroke-width="1.5"/>
              </g>
              <g id="Grupo_88374" data-name="Grupo 88374" transform="translate(3.179 40.848)">
                <path id="Trazado_145186" data-name="Trazado 145186" d="M458.569,164.33l2.452-.6a3.081,3.081,0,0,0,2.419-3.327c-.264-2-1.235-4.478-4.331-5.192" transform="translate(-457.916 -154.561)" fill="#ff9c9c"/>
                <path id="Trazado_145187" data-name="Trazado 145187" d="M458.472,164.886a.654.654,0,0,1-.152-1.289l2.452-.6A2.423,2.423,0,0,0,462.7,160.4c-.34-2.571-1.628-4.132-3.831-4.64a.654.654,0,0,1,.294-1.274c3.474.8,4.545,3.565,4.832,5.743a3.727,3.727,0,0,1-2.912,4.047l-2.452.6A.678.678,0,0,1,458.472,164.886Z" transform="translate(-457.82 -154.465)" fill="#ff6969"/>
              </g>
            </g>
            <g id="Grupo_88376" data-name="Grupo 88376" transform="translate(20.952 85.726)">
              <path id="Trazado_145188" data-name="Trazado 145188" d="M496.51,205.973a18.084,18.084,0,0,0,19.249,2.21s-6.9,12.367-20.417,7.479Z" transform="translate(-480.422 -205.973)" fill="#ff6969"/>
              <path id="Trazado_145189" data-name="Trazado 145189" d="M483.988,304.907s-4.447,26.28-4.443,25.4-1.327-23.682-1.327-23.682Z" transform="translate(-478.218 -218.708)" fill="#ff6969"/>
            </g>
          </g>
        </g>
      </g>
      <g id="Grupo_88401" data-name="Grupo 88401" transform="translate(102.082 199.705)">
        <g id="Grupo_88393" data-name="Grupo 88393" transform="translate(136.462)">
          <path id="Rectángulo_34271" data-name="Rectángulo 34271" d="M10.721,0H150.952a7.966,7.966,0,0,1,7.966,7.966V19.62a0,0,0,0,1,0,0H0a0,0,0,0,1,0,0v-8.9A10.721,10.721,0,0,1,10.721,0Z" transform="translate(22.622 15.369)" fill="#f4f8fe"/>
          <path id="Rectángulo_34272" data-name="Rectángulo 34272" d="M10.721,0H94.285a7.966,7.966,0,0,1,7.966,7.966v4.658a0,0,0,0,1,0,0H0a0,0,0,0,1,0,0v-1.9A10.721,10.721,0,0,1,10.721,0Z" transform="translate(50.955 22.364)" fill="#5574d8"/>
          <path id="Rectángulo_34273" data-name="Rectángulo 34273" d="M30.149,0H42.444A30.149,30.149,0,0,1,72.592,30.149v0A4.349,4.349,0,0,1,68.243,34.5H4.349A4.349,4.349,0,0,1,0,30.149v0A30.149,30.149,0,0,1,30.149,0Z" transform="translate(65.621)" fill="#708cf5"/>
          <path id="Rectángulo_34274" data-name="Rectángulo 34274" d="M27.54,0h2.872a27.54,27.54,0,0,1,27.54,27.54v0a0,0,0,0,1,0,0H0a0,0,0,0,1,0,0v0A27.54,27.54,0,0,1,27.54,0Z" transform="translate(72.941 6.958)" fill="#f4f8fe"/>
          <rect id="Rectángulo_34275" data-name="Rectángulo 34275" width="162.384" height="107.681" transform="translate(20.135 69.931)" fill="#bbc7f9"/>
          <g id="Grupo_88388" data-name="Grupo 88388" transform="translate(19.832 76.42)" opacity="0.82">
            <g id="Grupo_88380" data-name="Grupo 88380" transform="translate(0 23.555)">
              <path id="Trazado_145190" data-name="Trazado 145190" d="M292.308,348.42H282.046a.581.581,0,0,1-.58-.581v-3.927a.581.581,0,0,1,.58-.58h10.262a.581.581,0,0,1,.58.58v3.927A.581.581,0,0,1,292.308,348.42Zm-10.189-.653h10.116v-3.781H282.12Z" transform="translate(-281.466 -338.897)" fill="#5574d8"/>
              <path id="Trazado_145191" data-name="Trazado 145191" d="M287.233,343.33h-5.274a.327.327,0,1,1,0-.654h5.188V338.9h-5.14a.327.327,0,0,1,0-.653h5.225a.569.569,0,0,1,.568.569v3.952A.568.568,0,0,1,287.233,343.33Zm0-4.435h0Z" transform="translate(-281.487 -338.242)" fill="#5574d8"/>
              <path id="Trazado_145192" data-name="Trazado 145192" d="M287.233,353.516h-5.274a.327.327,0,1,1,0-.653h5.188v-3.781h-5.14a.327.327,0,0,1,0-.653h5.225a.568.568,0,0,1,.568.567v3.952A.568.568,0,0,1,287.233,353.516Zm0-4.434h0Z" transform="translate(-281.487 -339.553)" fill="#5574d8"/>
            </g>
            <g id="Grupo_88381" data-name="Grupo 88381" transform="translate(151.397 81.451)">
              <path id="Trazado_145193" data-name="Trazado 145193" d="M466.072,414.875H455.811a.581.581,0,0,1-.581-.58v-3.927a.581.581,0,0,1,.581-.58h10.261a.581.581,0,0,1,.581.58V414.3A.581.581,0,0,1,466.072,414.875Zm-10.189-.653H466v-3.78H455.883Zm10.189-3.78h0Z" transform="translate(-455.23 -405.347)" fill="#5574d8"/>
              <path id="Trazado_145194" data-name="Trazado 145194" d="M466.888,419.965h-5.226a.569.569,0,0,1-.568-.568v-3.953a.569.569,0,0,1,.568-.567h5.275a.327.327,0,1,1,0,.653h-5.189v3.781h5.141a.327.327,0,1,1,0,.653Z" transform="translate(-455.985 -406.002)" fill="#5574d8"/>
              <path id="Trazado_145195" data-name="Trazado 145195" d="M466.888,409.778h-5.226a.569.569,0,0,1-.568-.567v-3.952a.569.569,0,0,1,.568-.568h5.275a.327.327,0,1,1,0,.653h-5.189v3.78h5.141a.327.327,0,1,1,0,.654Z" transform="translate(-455.985 -404.691)" fill="#5574d8"/>
            </g>
            <g id="Grupo_88382" data-name="Grupo 88382" transform="translate(87.003 87.241)">
              <path id="Trazado_145196" data-name="Trazado 145196" d="M392.165,416.424H381.9a.581.581,0,0,1-.581-.58v-3.927a.581.581,0,0,1,.581-.58h10.262a.581.581,0,0,1,.58.58v3.927A.581.581,0,0,1,392.165,416.424Zm-10.19-.653h10.116v-3.78H381.975Zm10.19-3.78h0Z" transform="translate(-381.322 -411.337)" fill="#5574d8"/>
            </g>
            <g id="Grupo_88383" data-name="Grupo 88383" transform="translate(92.209 82.711)">
              <path id="Trazado_145197" data-name="Trazado 145197" d="M398.139,411.224H387.878a.581.581,0,0,1-.581-.58v-3.927a.581.581,0,0,1,.581-.58h10.261a.581.581,0,0,1,.58.58v3.927A.581.581,0,0,1,398.139,411.224Zm-10.189-.654h10.116v-3.78H387.951Zm10.189-3.78h0Z" transform="translate(-387.297 -406.137)" fill="#5574d8"/>
            </g>
            <g id="Grupo_88384" data-name="Grupo 88384" transform="translate(92.112 91.675)">
              <path id="Trazado_145198" data-name="Trazado 145198" d="M398.029,421.514H387.767a.581.581,0,0,1-.581-.58v-3.927a.582.582,0,0,1,.581-.581h10.262a.581.581,0,0,1,.58.581v3.927A.581.581,0,0,1,398.029,421.514Zm-10.19-.653h10.116v-3.781H387.84Zm10.19-3.781h0Z" transform="translate(-387.186 -416.426)" fill="#5574d8"/>
            </g>
            <g id="Grupo_88385" data-name="Grupo 88385" transform="translate(144.843 4.435)">
              <path id="Trazado_145199" data-name="Trazado 145199" d="M458.548,321.384H448.287a.581.581,0,0,1-.58-.58v-3.927a.581.581,0,0,1,.58-.58h10.261a.581.581,0,0,1,.58.58V320.8A.581.581,0,0,1,458.548,321.384Zm-10.188-.653h10.115v-3.78H448.361Z" transform="translate(-447.707 -316.297)" fill="#5574d8"/>
            </g>
            <g id="Grupo_88386" data-name="Grupo 88386" transform="translate(139.637 8.965)">
              <path id="Trazado_145200" data-name="Trazado 145200" d="M452.574,326.584H442.312a.581.581,0,0,1-.58-.58v-3.927a.581.581,0,0,1,.58-.58h10.262a.581.581,0,0,1,.581.58V326A.581.581,0,0,1,452.574,326.584Zm-10.189-.653H452.5v-3.78H442.385Z" transform="translate(-441.732 -321.497)" fill="#5574d8"/>
            </g>
            <g id="Grupo_88387" data-name="Grupo 88387" transform="translate(139.733)">
              <path id="Trazado_145201" data-name="Trazado 145201" d="M452.685,316.3H442.423a.581.581,0,0,1-.58-.58v-3.927a.581.581,0,0,1,.58-.581h10.262a.581.581,0,0,1,.58.581v3.927A.581.581,0,0,1,452.685,316.3Zm-10.189-.653h10.116V311.86H442.5Z" transform="translate(-441.843 -311.207)" fill="#5574d8"/>
            </g>
          </g>
          <rect id="Rectángulo_34276" data-name="Rectángulo 34276" width="172.506" height="11.63" rx="2.898" transform="translate(15.074 177.181)" fill="#7f97e2"/>
          <rect id="Rectángulo_34277" data-name="Rectángulo 34277" width="172.506" height="4.111" rx="0.888" transform="translate(15.074 184.7)" fill="#5574d8"/>
          <g id="Grupo_88389" data-name="Grupo 88389" transform="translate(0 40.849)">
            <rect id="Rectángulo_34278" data-name="Rectángulo 34278" width="28.933" height="30.566" transform="translate(86.985)" fill="#f4f8fe"/>
            <path id="Trazado_145202" data-name="Trazado 145202" d="M354.266,300.946H325.333l3.225-30.566h25.707Z" transform="translate(-267.28 -270.38)" fill="#5574d8"/>
            <path id="Trazado_145203" data-name="Trazado 145203" d="M320.568,300.946H291.635l3.225-30.566h28.933Z" transform="translate(-262.943 -270.38)" fill="#f4f8fe"/>
            <path id="Trazado_145204" data-name="Trazado 145204" d="M287.948,300.946H259.016l9.25-30.566h22.907Z" transform="translate(-258.744 -270.38)" fill="#5574d8"/>
            <path id="Trazado_145205" data-name="Trazado 145205" d="M287.448,305.656c0,4.783-6.434,8.661-14.372,8.661s-14.373-3.877-14.373-8.661" transform="translate(-258.704 -274.921)" fill="#708cf5"/>
            <path id="Trazado_145206" data-name="Trazado 145206" d="M320.511,305.656c0,4.783-6.434,8.661-14.372,8.661s-14.373-3.877-14.373-8.661" transform="translate(-262.96 -274.921)" fill="#fff"/>
            <path id="Trazado_145207" data-name="Trazado 145207" d="M353.718,305.656c0,4.783-6.434,8.661-14.372,8.661s-14.373-3.877-14.373-8.661" transform="translate(-267.234 -274.921)" fill="#708cf5"/>
            <path id="Trazado_145208" data-name="Trazado 145208" d="M391.46,300.946h28.933l-3.225-30.566H391.46Z" transform="translate(-275.792 -270.38)" fill="#5574d8"/>
            <path id="Trazado_145209" data-name="Trazado 145209" d="M424.681,300.946h28.933l-3.225-30.566H421.456Z" transform="translate(-279.653 -270.38)" fill="#f4f8fe"/>
            <path id="Trazado_145210" data-name="Trazado 145210" d="M457.3,300.946h28.933l-9.25-30.566H454.076Z" transform="translate(-283.852 -270.38)" fill="#5574d8"/>
            <path id="Trazado_145211" data-name="Trazado 145211" d="M458.305,305.656c0,4.783,6.434,8.661,14.372,8.661s14.373-3.877,14.373-8.661" transform="translate(-284.396 -274.921)" fill="#708cf5"/>
            <path id="Trazado_145212" data-name="Trazado 145212" d="M425.242,305.656c0,4.783,6.434,8.661,14.372,8.661s14.373-3.877,14.373-8.661" transform="translate(-280.141 -274.921)" fill="#fff"/>
            <path id="Trazado_145213" data-name="Trazado 145213" d="M392.035,305.656c0,4.783,6.434,8.661,14.372,8.661s14.373-3.877,14.373-8.661" transform="translate(-275.866 -274.921)" fill="#708cf5"/>
            <path id="Trazado_145214" data-name="Trazado 145214" d="M386.781,305.656c0,4.783-6.434,8.661-14.372,8.661s-14.373-3.877-14.373-8.661" transform="translate(-271.49 -274.921)" fill="#fff"/>
          </g>
          <rect id="Rectángulo_34279" data-name="Rectángulo 34279" width="187.64" height="9.207" rx="4.603" transform="translate(7.959 33.184)" fill="#9babe8"/>
          <g id="Grupo_88392" data-name="Grupo 88392" transform="translate(29.402 84.856)">
            <g id="Grupo_88390" data-name="Grupo 88390">
              <rect id="Rectángulo_34280" data-name="Rectángulo 34280" width="59.056" height="83.241" rx="1.893" transform="translate(6.738)" fill="#708cf5"/>
              <rect id="Rectángulo_34281" data-name="Rectángulo 34281" width="47.221" height="26.982" transform="translate(12.929 5.188)" fill="#f4f8fe"/>
              <path id="Trazado_145215" data-name="Trazado 145215" d="M322.024,353.434a.435.435,0,0,1-.265-.782l34.327-26.219a.436.436,0,1,1,.529.693l-34.326,26.219A.437.437,0,0,1,322.024,353.434Z" transform="translate(-296.2 -321.591)" fill="#bbc7f9" opacity="0.35"/>
              <path id="Trazado_145216" data-name="Trazado 145216" d="M306.885,353.433a.435.435,0,0,1-.275-.772l32.069-26.225a.436.436,0,1,1,.552.674l-32.069,26.224A.436.436,0,0,1,306.885,353.433Z" transform="translate(-294.251 -321.59)" fill="#bbc7f9" opacity="0.35"/>
              <rect id="Rectángulo_34282" data-name="Rectángulo 34282" width="47.221" height="37.732" transform="translate(12.929 40.175)" fill="#f4f8fe"/>
              <path id="Trazado_145217" data-name="Trazado 145217" d="M322.024,404.036a.436.436,0,0,1-.318-.734l34.326-36.666a.436.436,0,0,1,.637.6L322.342,403.9A.434.434,0,0,1,322.024,404.036Z" transform="translate(-296.2 -326.76)" fill="#bbc7f9" opacity="0.35"/>
              <path id="Trazado_145218" data-name="Trazado 145218" d="M306.885,404.035a.436.436,0,0,1-.328-.722l32.07-36.673a.435.435,0,1,1,.655.573l-32.07,36.673A.433.433,0,0,1,306.885,404.035Z" transform="translate(-294.251 -326.759)" fill="#bbc7f9" opacity="0.35"/>
              <rect id="Rectángulo_34283" data-name="Rectángulo 34283" width="72.559" height="8.955" rx="2" transform="translate(0 83.129)" fill="#5574d8"/>
              <rect id="Rectángulo_34284" data-name="Rectángulo 34284" width="24.789" height="7.765" rx="0.866" transform="translate(23.995 14.997)" fill="#bbc7f9"/>
            </g>
            <g id="Grupo_88391" data-name="Grupo 88391" transform="translate(74.951 8.235)">
              <rect id="Rectángulo_34285" data-name="Rectángulo 34285" width="63.857" height="58.636" rx="2.477" transform="translate(2.395)" fill="#708cf5"/>
              <rect id="Rectángulo_34286" data-name="Rectángulo 34286" width="69.948" height="6.599" rx="1.577" transform="translate(0 55.402)" fill="#5574d8"/>
              <rect id="Rectángulo_34287" data-name="Rectángulo 34287" width="55.11" height="44.347" transform="translate(6.769 6.044)" fill="#f4f8fe"/>
              <path id="Trazado_145219" data-name="Trazado 145219" d="M394.946,381.417a.447.447,0,0,1-.133-.021.436.436,0,0,1-.282-.548L408.5,337.09a.436.436,0,1,1,.83.266L395.36,381.113A.436.436,0,0,1,394.946,381.417Z" transform="translate(-380.537 -331.17)" fill="#bbc7f9" opacity="0.35"/>
              <path id="Trazado_145220" data-name="Trazado 145220" d="M406.685,381.417a.437.437,0,0,1-.416-.569l13.968-43.757a.436.436,0,1,1,.83.266L407.1,381.113A.438.438,0,0,1,406.685,381.417Z" transform="translate(-382.049 -331.17)" fill="#bbc7f9" opacity="0.35"/>
            </g>
          </g>
        </g>
        <g id="Grupo_88400" data-name="Grupo 88400" transform="translate(0 86.974)">
          <g id="Grupo_88396" data-name="Grupo 88396">
            <g id="Grupo_88394" data-name="Grupo 88394" transform="translate(59.214)">
              <path id="Trazado_145221" data-name="Trazado 145221" d="M249.027,353.536a.871.871,0,0,1-.871-.871V338.158c0-7.22-6.557-13.1-14.618-13.1s-14.618,5.875-14.618,13.1V352.3a.871.871,0,0,1-1.743,0V338.158c0-8.181,7.34-14.838,16.361-14.838s16.361,6.657,16.361,14.838v14.507A.871.871,0,0,1,249.027,353.536Z" transform="translate(-176.11 -323.32)" fill="#5574d8"/>
              <path id="Trazado_145222" data-name="Trazado 145222" d="M202.2,350.671l-7.2,77.887,72.352.062-10.793-78.348Z" transform="translate(-173.257 -326.789)" fill="#5574d8"/>
              <path id="Trazado_145223" data-name="Trazado 145223" d="M177.4,350.671l-7.359,77.94,72.516.009-10.793-78.348Z" transform="translate(-170.044 -326.789)" fill="#708cf5"/>
              <path id="Trazado_145224" data-name="Trazado 145224" d="M224.71,353.536a.87.87,0,0,1-.871-.871V338.158c0-7.22-6.557-13.1-14.618-13.1s-14.619,5.875-14.619,13.1V352.3a.871.871,0,0,1-1.743,0V338.158c0-8.181,7.34-14.838,16.362-14.838s16.361,6.657,16.361,14.838v14.507A.87.87,0,0,1,224.71,353.536Z" transform="translate(-172.98 -323.32)" fill="#5574d8"/>
              <path id="Trazado_145225" data-name="Trazado 145225" d="M224.539,381.361H195.5a2.438,2.438,0,0,1-2.436-2.436v-8.374a2.439,2.439,0,0,1,2.436-2.436h29.037a2.439,2.439,0,0,1,2.437,2.436v8.374A2.439,2.439,0,0,1,224.539,381.361Zm-29.037-11.5a.7.7,0,0,0-.694.694v8.374a.7.7,0,0,0,.694.694h29.037a.694.694,0,0,0,.694-.694v-8.374a.7.7,0,0,0-.694-.694Z" transform="translate(-173.007 -329.086)" fill="#5574d8"/>
            </g>
            <g id="Grupo_88395" data-name="Grupo 88395" transform="translate(0 13.967)">
              <path id="Trazado_145226" data-name="Trazado 145226" d="M169.408,365.371a.871.871,0,0,1-.871-.871V352.13c0-6.087-5.534-11.037-12.336-11.037s-12.336,4.951-12.336,11.037v12.062a.871.871,0,1,1-1.743,0V352.13c0-7.047,6.316-12.78,14.079-12.78s14.078,5.733,14.078,12.78V364.5A.87.87,0,0,1,169.408,365.371Z" transform="translate(-107.236 -339.35)" fill="#481eef"/>
              <path id="Trazado_145227" data-name="Trazado 145227" d="M129.5,363.861l-6.135,66.411,61.692.053-9.2-66.8Z" transform="translate(-104.822 -342.461)" fill="#481eef"/>
              <path id="Trazado_145228" data-name="Trazado 145228" d="M108.357,363.861l-6.275,66.456,61.832.007-9.2-66.8Z" transform="translate(-102.082 -342.461)" fill="#5d33ff"/>
              <path id="Trazado_145229" data-name="Trazado 145229" d="M148.676,365.371a.87.87,0,0,1-.871-.871V352.13c0-6.087-5.534-11.037-12.336-11.037s-12.336,4.951-12.336,11.037v12.062a.871.871,0,1,1-1.743,0V352.13c0-7.047,6.316-12.78,14.079-12.78s14.079,5.733,14.079,12.78V364.5A.87.87,0,0,1,148.676,365.371Z" transform="translate(-104.567 -339.35)" fill="#481eef"/>
              <path id="Trazado_145230" data-name="Trazado 145230" d="M148.3,390.139H124a2.439,2.439,0,0,1-2.436-2.436v-6.679A2.439,2.439,0,0,1,124,378.588h24.3a2.439,2.439,0,0,1,2.436,2.436V387.7A2.439,2.439,0,0,1,148.3,390.139ZM124,380.331a.7.7,0,0,0-.694.694V387.7a.7.7,0,0,0,.694.694h24.3a.7.7,0,0,0,.694-.694v-6.679a.7.7,0,0,0-.694-.694Z" transform="translate(-104.59 -344.401)" fill="#481eef"/>
            </g>
          </g>
          <g id="Grupo_88399" data-name="Grupo 88399" transform="translate(322.261)">
            <g id="Grupo_88397" data-name="Grupo 88397">
              <path id="Trazado_145231" data-name="Trazado 145231" d="M550.935,353.536a.87.87,0,0,1-.871-.871V338.158c0-7.22-6.558-13.1-14.619-13.1s-14.618,5.875-14.618,13.1V352.3a.871.871,0,1,1-1.742,0V338.158c0-8.181,7.34-14.838,16.361-14.838s16.362,6.657,16.362,14.838v14.507A.871.871,0,0,1,550.935,353.536Z" transform="translate(-478.019 -323.32)" fill="#5574d8"/>
              <path id="Trazado_145232" data-name="Trazado 145232" d="M504.11,350.671l-7.2,77.887,72.352.062-10.793-78.348Z" transform="translate(-475.165 -326.789)" fill="#5574d8"/>
              <path id="Trazado_145233" data-name="Trazado 145233" d="M479.311,350.671l-7.359,77.94,72.516.009-10.793-78.348Z" transform="translate(-471.952 -326.789)" fill="#708cf5"/>
              <path id="Trazado_145234" data-name="Trazado 145234" d="M526.619,353.536a.871.871,0,0,1-.871-.871V338.158c0-7.22-6.557-13.1-14.618-13.1s-14.618,5.875-14.618,13.1V352.3a.871.871,0,0,1-1.743,0V338.158c0-8.181,7.339-14.838,16.361-14.838s16.361,6.657,16.361,14.838v14.507A.87.87,0,0,1,526.619,353.536Z" transform="translate(-474.889 -323.32)" fill="#5574d8"/>
              <path id="Trazado_145235" data-name="Trazado 145235" d="M526.449,381.361H497.411a2.438,2.438,0,0,1-2.436-2.436v-8.374a2.439,2.439,0,0,1,2.436-2.436h29.038a2.439,2.439,0,0,1,2.436,2.436v8.374A2.438,2.438,0,0,1,526.449,381.361Zm-29.038-11.5a.7.7,0,0,0-.693.694v8.374a.694.694,0,0,0,.693.694h29.038a.7.7,0,0,0,.694-.694v-8.374a.7.7,0,0,0-.694-.694Z" transform="translate(-474.915 -329.086)" fill="#5574d8"/>
            </g>
            <g id="Grupo_88398" data-name="Grupo 88398" transform="translate(73.079 13.967)">
              <path id="Trazado_145236" data-name="Trazado 145236" d="M623.154,365.371a.871.871,0,0,1-.871-.871V352.13c0-6.087-5.534-11.037-12.336-11.037s-12.337,4.951-12.337,11.037v12.062a.871.871,0,1,1-1.743,0V352.13c0-7.047,6.316-12.78,14.079-12.78s14.079,5.733,14.079,12.78V364.5A.871.871,0,0,1,623.154,365.371Z" transform="translate(-560.981 -339.35)" fill="#481eef"/>
              <path id="Trazado_145237" data-name="Trazado 145237" d="M583.247,363.861l-6.135,66.411,61.692.053-9.2-66.8Z" transform="translate(-558.567 -342.461)" fill="#481eef"/>
              <path id="Trazado_145238" data-name="Trazado 145238" d="M562.1,363.861l-6.275,66.456,61.832.007-9.2-66.8Z" transform="translate(-555.827 -342.461)" fill="#5d33ff"/>
              <path id="Trazado_145239" data-name="Trazado 145239" d="M602.42,365.371a.87.87,0,0,1-.871-.871V352.13c0-6.087-5.534-11.037-12.336-11.037s-12.336,4.951-12.336,11.037v12.062a.871.871,0,1,1-1.743,0V352.13c0-7.047,6.316-12.78,14.079-12.78s14.078,5.733,14.078,12.78V364.5A.87.87,0,0,1,602.42,365.371Z" transform="translate(-558.312 -339.35)" fill="#481eef"/>
              <path id="Trazado_145240" data-name="Trazado 145240" d="M602.044,390.139h-24.3a2.439,2.439,0,0,1-2.436-2.436v-6.679a2.439,2.439,0,0,1,2.436-2.436h24.3a2.439,2.439,0,0,1,2.436,2.436V387.7A2.439,2.439,0,0,1,602.044,390.139Zm-24.3-9.809a.694.694,0,0,0-.694.694V387.7a.7.7,0,0,0,.694.694h24.3a.7.7,0,0,0,.693-.694v-6.679a.694.694,0,0,0-.693-.694Z" transform="translate(-558.335 -344.401)" fill="#481eef"/>
            </g>
          </g>
        </g>
      </g>
    </g>
  </g>
</svg>
