<svg xmlns="http://www.w3.org/2000/svg" xmlns:xlink="http://www.w3.org/1999/xlink" width="637.5" height="350.369" viewBox="0 0 637.5 350.369">
  <defs>
    <clipPath id="clip-path">
      <rect id="Rectángulo_34321" data-name="Rectángulo 34321" width="629.5" height="343" rx="36" transform="translate(705 7082.631)" fill="#dad6f7"/>
    </clipPath>
  </defs>
  <g id="Grupo_92599" data-name="Grupo 92599" transform="translate(-704 -7113.627)">
    <rect id="Rectángulo_34325" data-name="Rectángulo 34325" width="629.5" height="343" rx="36" transform="translate(712 7120.997)" fill="#8a7cbf"/>
    <rect id="Rectángulo_34144" data-name="Rectángulo 34144" width="629.5" height="343" rx="36" transform="translate(705 7113.628)" fill="#fff"/>
    <g id="Grupo_88552" data-name="Grupo 88552" transform="translate(5613.42 10116.09)">
      <g id="freepik--Device--inject-2" transform="translate(-4621.857 -2972.208)">
        <path id="Trazado_145629" data-name="Trazado 145629" d="M-4413.579-2715.518l-160.805-.07a9.011,9.011,0,0,1-9-9.011l.125-238.6a9,9,0,0,1,9-9.012h.016l160.8.086a9,9,0,0,1,9,9l-.132,238.6A9,9,0,0,1-4413.579-2715.518Z" transform="translate(4583.38 2972.208)" fill="#263238"/>
        <rect id="Rectángulo_34318" data-name="Rectángulo 34318" width="167.533" height="214.298" transform="translate(5.371 17.774)" fill="#fff"/>
        <path id="Trazado_145630" data-name="Trazado 145630" d="M-4463.77-2661.46a6.86,6.86,0,0,1-6.868,6.852,6.859,6.859,0,0,1-6.852-6.868,6.859,6.859,0,0,1,6.868-6.852,6.853,6.853,0,0,1,6.853,6.852Z" transform="translate(4560.036 2905.217)" fill="#455a64"/>
        <rect id="Rectángulo_34319" data-name="Rectángulo 34319" width="53.851" height="2.838" rx="1.22" transform="translate(62.605 7.43)" fill="#455a64"/>
        <path id="Trazado_145631" data-name="Trazado 145631" d="M-4371.3-2756.7h0a2.011,2.011,0,0,1-2.011-2.011v-.008l.078-152.137a2.011,2.011,0,0,1,2.011-2.011h.008a2.02,2.02,0,0,1,2.011,2.011l-.094,152.137a2.011,2.011,0,0,1-2,2.019Z" transform="translate(4537.07 2959.126)" fill="#e0e0e0"/>
        <path id="Trazado_145632" data-name="Trazado 145632" d="M-4443.653-2926.98c0,.117-15.544.195-34.713.187s-34.713-.109-34.713-.218,15.544-.2,34.713-.187S-4443.653-2927.058-4443.653-2926.98Z" transform="translate(4567.882 2962.286)" fill="#263238"/>
        <path id="Trazado_145633" data-name="Trazado 145633" d="M-4555.61-2924.509h.85l2.284-.062-.071.078v-2.627a.9.9,0,0,1,.78-.717h1.1a.9.9,0,0,1,.78.9v2.424l-.117-.117h2.892l-.125.125v-4.521a.9.9,0,0,0-.405-.67l-1.263-1.248-1.216-1.2c-.195-.2-.4-.4-.593-.585s-.358-.4-.592-.444a.782.782,0,0,0-.647.125c-.171.14-.366.351-.538.522l-1.091.959c-.655.678-1.341,1.3-1.832,1.879a2.09,2.09,0,0,0-.141,1.076v3.71a2.171,2.171,0,0,1,0,.382,1.914,1.914,0,0,1,0-.351v-4.3a1.205,1.205,0,0,1,.164-.608c.538-.663,1.177-1.24,1.832-1.941l1.028-1.052a7.458,7.458,0,0,1,.562-.553,1,1,0,0,1,.85-.172,1.564,1.564,0,0,1,.7.507l.593.577,1.224,1.2,1.263,1.247a1.141,1.141,0,0,1,.483.842v4.654h-3.134v-2.51a.671.671,0,0,0-.569-.686h-1.045a.692.692,0,0,0-.615.553v2.658h-3.01Z" transform="translate(4577.258 2963.681)" fill="#263238"/>
        <path id="Trazado_145634" data-name="Trazado 145634" d="M-4388.9-2932.269a.13.13,0,0,0-.086-.039h-9.409l-.047-.39-.109-.779a.118.118,0,0,0-.109-.1h-1.895c-.148,0-.249,0-.249.125s.1.125.249.125h1.731l.966,7.468a.108.108,0,0,0,.116.1h7.656c.179,0,.265,0,.265-.117s-.085-.125-.265-.132l-7.468-.1-.172-1.317,7.843.1h0a.116.116,0,0,0,.117-.093l.577-3.118.312-1.684A.131.131,0,0,0-4388.9-2932.269Zm-9.457.172,9.105.125-.78,4.366h-7.7Z" transform="translate(4543.13 2963.692)" fill="#263238"/>
        <path id="Trazado_145635" data-name="Trazado 145635" d="M-4394.675-2921.483a.96.96,0,0,0-.32-.522.912.912,0,0,0-.881-.148.935.935,0,0,0-.566,1.2.933.933,0,0,0,.566.566.888.888,0,0,0,.313.054.917.917,0,0,0,.568-.2.857.857,0,0,0,.328-.514.655.655,0,0,0,0-.218A1.089,1.089,0,0,0-4394.675-2921.483Zm-1.107.78a.615.615,0,0,1-.361-.792.616.616,0,0,1,.361-.362.691.691,0,0,1,.21,0,.648.648,0,0,1,.374.125.688.688,0,0,1,.242.343.6.6,0,0,1,0,.133v-.023a.379.379,0,0,1,0,.133.681.681,0,0,1-.242.343.622.622,0,0,1-.616.109Z" transform="translate(4542.181 2961.185)" fill="#263238"/>
        <path id="Trazado_145636" data-name="Trazado 145636" d="M-4388.313-2921.433a.857.857,0,0,0-.312-.514.9.9,0,0,0-.881-.156.936.936,0,0,0-.567,1.2.935.935,0,0,0,.567.566.88.88,0,0,0,.312.054.918.918,0,0,0,.569-.195.86.86,0,0,0,.328-.514.711.711,0,0,0,0-.218A.672.672,0,0,0-4388.313-2921.433Zm-1.1.78a.623.623,0,0,1-.39-.585.609.609,0,0,1,.406-.569.691.691,0,0,1,.21,0,.65.65,0,0,1,.374.125.643.643,0,0,1,.265.476h0a.355.355,0,0,1,0,.132.647.647,0,0,1-.242.343.621.621,0,0,1-.584.086Z" transform="translate(4540.777 2961.174)" fill="#263238"/>
        <path id="Trazado_145637" data-name="Trazado 145637" d="M-4522.793-2704.473c0,1.1-.78,1.77-2.12,1.77h-1.4v1.637h-.553v-5.192h1.941C-4523.588-2706.258-4522.785-2705.587-4522.793-2704.473Zm-.545,0c0-.834-.546-1.31-1.559-1.31h-1.419v2.6h1.38c1.053,0,1.6-.476,1.6-1.286Z" transform="translate(4570.922 2913.579)" fill="#263238"/>
        <path id="Trazado_145638" data-name="Trazado 145638" d="M-4516.656-2704.6v3.9h-.5v-.709a1.559,1.559,0,0,1-1.4.779,1.511,1.511,0,0,1-1.648-1.363,1.486,1.486,0,0,1,0-.312v-2.261h.53v2.206a1.085,1.085,0,0,0,.893,1.246,1.117,1.117,0,0,0,.277.009,1.27,1.27,0,0,0,1.332-1.206,1.356,1.356,0,0,0-.007-.213v-2.042Z" transform="translate(4569.455 2913.213)" fill="#263238"/>
        <path id="Trazado_145639" data-name="Trazado 145639" d="M-4511.8-2704.63v.476h-.125a1.264,1.264,0,0,0-1.329,1.193,1.243,1.243,0,0,0,.012.249v1.98h-.522v-3.9h.506v.78A1.489,1.489,0,0,1-4511.8-2704.63Z" transform="translate(4568.032 2913.222)" fill="#263238"/>
        <path id="Trazado_145640" data-name="Trazado 145640" d="M-4510.581-2702.657a1.916,1.916,0,0,1,1.859-1.973c.051,0,.1,0,.152,0a1.7,1.7,0,0,1,1.559.78l-.4.265a1.329,1.329,0,0,0-1.13-.577,1.521,1.521,0,0,0-1.408,1.625,1.52,1.52,0,0,0,1.408,1.407,1.293,1.293,0,0,0,1.13-.569l.4.273a1.727,1.727,0,0,1-1.559.78,1.925,1.925,0,0,1-2.012-1.835C-4510.584-2702.539-4510.584-2702.6-4510.581-2702.657Z" transform="translate(4567.332 2913.221)" fill="#263238"/>
        <path id="Trazado_145641" data-name="Trazado 145641" d="M-4501.174-2703.405v2.261h-.522v-2.206a1.091,1.091,0,0,0-.921-1.239,1.115,1.115,0,0,0-.249-.009,1.279,1.279,0,0,0-1.367,1.183,1.269,1.269,0,0,0,0,.22v2.05h-.53v-5.5h.467v2.284a1.648,1.648,0,0,1,1.458-.709,1.5,1.5,0,0,1,1.661,1.312A1.5,1.5,0,0,1-4501.174-2703.405Z" transform="translate(4566.048 2913.665)" fill="#263238"/>
        <path id="Trazado_145642" data-name="Trazado 145642" d="M-4495.5-2703.121v2.417h-.5v-.608a1.465,1.465,0,0,1-1.34.647c-.881,0-1.427-.46-1.427-1.138s.39-1.1,1.5-1.1h1.24v-.242c0-.663-.375-1.029-1.107-1.029a2,2,0,0,0-1.294.46l-.234-.39a2.451,2.451,0,0,1,1.56-.53,1.388,1.388,0,0,1,1.588,1.153A1.429,1.429,0,0,1-4495.5-2703.121Zm-.53,1.247v-.639h-1.224c-.78,0-1,.3-1,.7s.358.733.982.733A1.248,1.248,0,0,0-4496.034-2701.873Z" transform="translate(4564.728 2913.225)" fill="#263238"/>
        <path id="Trazado_145643" data-name="Trazado 145643" d="M-4493.44-2701.141l.233-.413a2.332,2.332,0,0,0,1.388.437c.74,0,1.044-.25,1.044-.631,0-1.021-2.526-.219-2.526-1.762,0-.639.546-1.107,1.56-1.107a2.659,2.659,0,0,1,1.372.359l-.226.429a1.973,1.973,0,0,0-1.146-.335c-.71,0-1.021.273-1.021.639,0,1.052,2.525.265,2.525,1.762,0,.67-.592,1.107-1.606,1.107A2.528,2.528,0,0,1-4493.44-2701.141Z" transform="translate(4563.552 2913.218)" fill="#263238"/>
        <path id="Trazado_145644" data-name="Trazado 145644" d="M-4484.812-2702.451h-3.259a1.449,1.449,0,0,0,1.537,1.358h.022a1.56,1.56,0,0,0,1.193-.515l.3.343a2.058,2.058,0,0,1-2.91.071,2.056,2.056,0,0,1-.637-1.419,1.894,1.894,0,0,1,1.89-1.9,1.894,1.894,0,0,1,1.9,1.889v.01A.36.36,0,0,0-4484.812-2702.451Zm-3.259-.4h2.768a1.388,1.388,0,0,0-1.488-1.279A1.388,1.388,0,0,0-4488.071-2702.849Z" transform="translate(4562.479 2913.194)" fill="#263238"/>
        <path id="Trazado_145645" data-name="Trazado 145645" d="M-4474.337-2704.578l-1.474,3.9h-.5l-1.224-3.2-1.232,3.2h-.5l-1.465-3.9h.507l1.216,3.313,1.255-3.313h.452l1.248,3.313,1.239-3.313Z" transform="translate(4560.75 2913.209)" fill="#263238"/>
        <path id="Trazado_145646" data-name="Trazado 145646" d="M-4468.814-2703.1v2.417h-.5v-.608a1.472,1.472,0,0,1-1.341.639c-.889,0-1.427-.46-1.427-1.13s.39-1.107,1.5-1.107h1.239v-.234c0-.671-.374-1.029-1.107-1.029a1.96,1.96,0,0,0-1.294.46l-.233-.4a2.446,2.446,0,0,1,1.559-.522,1.38,1.38,0,0,1,1.588,1.135A1.416,1.416,0,0,1-4468.814-2703.1Zm-.522,1.24v-.632h-1.248c-.78,0-1,.3-1,.694s.358.733.982.733a1.247,1.247,0,0,0,1.263-.795Z" transform="translate(4558.844 2913.22)" fill="#263238"/>
        <path id="Trazado_145647" data-name="Trazado 145647" d="M-4466.75-2701.124l.242-.413a2.329,2.329,0,0,0,1.387.437c.741,0,1.045-.257,1.045-.639,0-1.014-2.526-.219-2.526-1.754,0-.639.546-1.115,1.559-1.115a2.615,2.615,0,0,1,1.372.366l-.226.421a1.976,1.976,0,0,0-1.154-.335c-.7,0-1.014.273-1.014.647,0,1.052,2.526.257,2.526,1.754,0,.678-.593,1.115-1.606,1.115A2.619,2.619,0,0,1-4466.75-2701.124Z" transform="translate(4557.668 2913.215)" fill="#263238"/>
        <path id="Trazado_145648" data-name="Trazado 145648" d="M-4459.6-2701.124l.234-.413a2.375,2.375,0,0,0,1.388.437c.741,0,1.044-.25,1.044-.639,0-1.014-2.526-.211-2.526-1.754,0-.639.546-1.115,1.56-1.115a2.661,2.661,0,0,1,1.372.366l-.226.421a2.035,2.035,0,0,0-1.146-.335c-.71,0-1.021.281-1.021.647,0,1.052,2.533.257,2.525,1.762,0,.67-.592,1.107-1.605,1.107A2.59,2.59,0,0,1-4459.6-2701.124Z" transform="translate(4556.092 2913.215)" fill="#263238"/>
        <path id="Trazado_145649" data-name="Trazado 145649" d="M-4450.758-2704.558v3.9h-.506v-.717a1.559,1.559,0,0,1-1.4.779,1.511,1.511,0,0,1-1.648-1.363,1.486,1.486,0,0,1,0-.312v-2.261h.53v2.214a1.092,1.092,0,0,0,.92,1.24,1.093,1.093,0,0,0,.25.008,1.262,1.262,0,0,0,1.332-1.19,1.343,1.343,0,0,0-.007-.221v-2.042Z" transform="translate(4554.929 2913.204)" fill="#263238"/>
        <path id="Trazado_145650" data-name="Trazado 145650" d="M-4448.36-2702.579a1.918,1.918,0,0,1,1.852-1.981c.05,0,.1,0,.151,0a1.7,1.7,0,0,1,1.56.78l-.39.265a1.351,1.351,0,0,0-1.138-.577,1.56,1.56,0,0,0-1.174,1.867,1.558,1.558,0,0,0,1.174,1.173,1.338,1.338,0,0,0,1.138-.569l.39.265a1.73,1.73,0,0,1-1.56.78,1.916,1.916,0,0,1-2-1.827C-4448.363-2702.462-4448.363-2702.521-4448.36-2702.579Z" transform="translate(4553.615 2913.206)" fill="#263238"/>
        <path id="Trazado_145651" data-name="Trazado 145651" d="M-4443.1-2702.579a1.925,1.925,0,0,1,1.868-1.981c.047,0,.1,0,.144,0a1.718,1.718,0,0,1,1.559.78l-.4.273a1.313,1.313,0,0,0-1.13-.584,1.559,1.559,0,0,0-1.174,1.867,1.556,1.556,0,0,0,1.174,1.173,1.318,1.318,0,0,0,1.13-.569l.4.265a1.723,1.723,0,0,1-1.559.78,1.932,1.932,0,0,1-2.011-1.852Q-4443.1-2702.5-4443.1-2702.579Z" transform="translate(4552.456 2913.206)" fill="#263238"/>
        <path id="Trazado_145652" data-name="Trazado 145652" d="M-4434.036-2702.452h-3.266a1.434,1.434,0,0,0,1.5,1.36l.055,0a1.558,1.558,0,0,0,1.193-.507l.3.343a2.066,2.066,0,0,1-2.921.044,2.064,2.064,0,0,1-.625-1.4,1.878,1.878,0,0,1,1.782-1.97c.043,0,.085,0,.128,0a1.855,1.855,0,0,1,1.868,1.842c0,.054,0,.108,0,.161C-4434.027-2702.585-4434.036-2702.507-4434.036-2702.452Zm-3.258-.39h2.76a1.38,1.38,0,0,0-1.38-1.38A1.38,1.38,0,0,0-4437.294-2702.842Z" transform="translate(4551.287 2913.211)" fill="#263238"/>
        <path id="Trazado_145653" data-name="Trazado 145653" d="M-4432.28-2701.1l.241-.421a2.333,2.333,0,0,0,1.38.444c.78,0,1.045-.257,1.045-.639,0-1.013-2.526-.218-2.526-1.762,0-.631.553-1.107,1.559-1.107a2.618,2.618,0,0,1,1.38.366l-.226.421a1.976,1.976,0,0,0-1.2-.343c-.7,0-1.013.273-1.013.639,0,1.06,2.525.265,2.525,1.762,0,.67-.592,1.115-1.605,1.107A2.619,2.619,0,0,1-4432.28-2701.1Z" transform="translate(4550.07 2913.211)" fill="#263238"/>
        <path id="Trazado_145654" data-name="Trazado 145654" d="M-4427.63-2701.1l.242-.413a2.327,2.327,0,0,0,1.379.437c.741,0,1.045-.257,1.045-.639,0-1.013-2.526-.218-2.526-1.754,0-.639.554-1.115,1.56-1.115a2.616,2.616,0,0,1,1.38.366l-.227.421a2.054,2.054,0,0,0-1.153-.335c-.7,0-1.014.273-1.014.647,0,1.052,2.526.257,2.526,1.754,0,.678-.593,1.115-1.606,1.115A2.619,2.619,0,0,1-4427.63-2701.1Z" transform="translate(4549.044 2913.211)" fill="#263238"/>
        <path id="Trazado_145655" data-name="Trazado 145655" d="M-4421.85-2705.481v.46h1.2v.413h-1.185v3.453h-.522v-3.453h-.693v-.444h.693v-.483a1.076,1.076,0,0,1,.989-1.155,1.151,1.151,0,0,1,.188,0,1.217,1.217,0,0,1,.78.25l-.179.39a.9.9,0,0,0-.577-.195A.692.692,0,0,0-4421.85-2705.481Z" transform="translate(4548.035 2913.675)" fill="#263238"/>
        <path id="Trazado_145656" data-name="Trazado 145656" d="M-4415.549-2704.538v3.9h-.476v-.717a1.559,1.559,0,0,1-1.4.779,1.512,1.512,0,0,1-1.648-1.363,1.454,1.454,0,0,1,0-.312v-2.261h.53v2.214a1.092,1.092,0,0,0,.92,1.24,1.066,1.066,0,0,0,.25.007,1.262,1.262,0,0,0,1.332-1.189,1.292,1.292,0,0,0-.007-.221v-2.042Z" transform="translate(4547.16 2913.2)" fill="#263238"/>
        <path id="Trazado_145657" data-name="Trazado 145657" d="M-4412.66-2706.6h.53v5.5h-.522Z" transform="translate(4545.745 2913.654)" fill="#263238"/>
        <path id="Trazado_145658" data-name="Trazado 145658" d="M-4511.749-2723.073h-2.791v-1.325h7.156v1.325h-2.8v7.11h-1.559Z" transform="translate(4568.204 2917.578)" fill="#ff725e"/>
        <path id="Trazado_145659" data-name="Trazado 145659" d="M-4497.7-2719.787v3.688h-1.5v-3.461c0-1.146-.569-1.7-1.559-1.7a1.707,1.707,0,0,0-1.806,1.6,1.692,1.692,0,0,0,.013.33v3.259h-1.5v-8.949h1.5v3.251a2.871,2.871,0,0,1,2.144-.819A2.494,2.494,0,0,1-4497.7-2719.787Z" transform="translate(4565.894 2917.715)" fill="#ff725e"/>
        <path id="Trazado_145660" data-name="Trazado 145660" d="M-4488.184-2719.186v3.773h-1.426v-.78a2.259,2.259,0,0,1-2.019.873c-1.474,0-2.4-.78-2.4-1.933s.725-1.91,2.673-1.91h1.668v-.1c0-.881-.53-1.4-1.606-1.4a3.158,3.158,0,0,0-1.949.639l-.592-1.1a4.518,4.518,0,0,1,2.721-.78C-4489.259-2721.922-4488.184-2721.042-4488.184-2719.186Zm-1.5,1.762v-.78h-1.559c-1.021,0-1.3.382-1.3.857s.46.889,1.231.889a1.644,1.644,0,0,0,1.629-.967Z" transform="translate(4563.683 2917.028)" fill="#ff725e"/>
        <path id="Trazado_145661" data-name="Trazado 145661" d="M-4477.723-2719.1v3.688h-1.5v-3.461c0-1.146-.569-1.7-1.559-1.7a1.708,1.708,0,0,0-1.813,1.595,1.7,1.7,0,0,0,.013.338v3.259h-1.474v-6.439h1.434v.834a2.791,2.791,0,0,1,2.222-.9A2.472,2.472,0,0,1-4477.723-2719.1Z" transform="translate(4561.485 2917.026)" fill="#ff725e"/>
        <path id="Trazado_145662" data-name="Trazado 145662" d="M-4470.843-2718.859l-1.123,1.06v1.7h-1.5v-8.918h1.5v5.395l3.118-2.892h1.855l-2.689,2.705,2.939,3.734h-1.832Z" transform="translate(4559.15 2917.715)" fill="#ff725e"/>
        <path id="Trazado_145663" data-name="Trazado 145663" d="M-4453.682-2721.838l-3.017,6.953a2.483,2.483,0,0,1-2.479,1.91,2.645,2.645,0,0,1-1.723-.593l.6-1.107a1.649,1.649,0,0,0,1.107.445c.53,0,.85-.257,1.138-.889l.109-.257-2.814-6.462h1.559l2.027,4.763,2.035-4.763Z" transform="translate(4556.379 2917.013)" fill="#ff725e"/>
        <path id="Trazado_145664" data-name="Trazado 145664" d="M-4451.351-2718.713a3.43,3.43,0,0,1,3.3-3.552,3.431,3.431,0,0,1,3.552,3.3,3.43,3.43,0,0,1-3.3,3.552l-.13,0a3.243,3.243,0,0,1-3.418-3.057C-4451.352-2718.548-4451.353-2718.631-4451.351-2718.713Zm5.34,0a1.91,1.91,0,0,0-2.009-1.805,1.91,1.91,0,0,0-1.806,2.008,1.91,1.91,0,0,0,1.9,1.809,1.869,1.869,0,0,0,1.921-1.818A1.825,1.825,0,0,0-4446.011-2718.713Z" transform="translate(4554.275 2917.108)" fill="#ff725e"/>
        <path id="Trazado_145665" data-name="Trazado 145665" d="M-4434.477-2721.838v6.439h-1.434v-.819a2.637,2.637,0,0,1-2.074.9,2.548,2.548,0,0,1-2.775-2.845v-3.679h1.5v3.477c0,1.169.562,1.723,1.512,1.723a1.7,1.7,0,0,0,1.77-1.625,1.666,1.666,0,0,0-.016-.316v-3.258Z" transform="translate(4551.939 2917.013)" fill="#ff725e"/>
        <path id="Trazado_145666" data-name="Trazado 145666" d="M-4430.521-2716.821a.936.936,0,0,1,.943-.928h.032a.936.936,0,0,1,.938.934.935.935,0,0,1-.934.937h0a.934.934,0,0,1-.974-.9C-4430.521-2716.789-4430.521-2716.8-4430.521-2716.821Zm.078-7.577h1.762l-.3,5.636h-1.2Z" transform="translate(4549.682 2917.578)" fill="#ff725e"/>
      </g>
      <g id="freepik--character-2--inject-2" transform="translate(-4633.458 -2923.523)">
        <path id="Trazado_145667" data-name="Trazado 145667" d="M-4452.234-2890.843l-2.276,32.273a10.049,10.049,0,0,1-10.025,9.355h0a10.048,10.048,0,0,1-10.055-10.042c0-.223.007-.446.022-.669.2-3.072.382-5.582.382-5.582s-7.8-1.216-7.9-9.02c-.055-4.506.725-14.733,1.4-22.607a10.227,10.227,0,0,1,10.2-9.354h4.724a14.445,14.445,0,0,1,13.567,15.272C-4452.215-2891.091-4452.224-2890.966-4452.234-2890.843Z" transform="translate(4572.651 2909.035)" fill="#ffbe9d"/>
        <path id="Trazado_145668" data-name="Trazado 145668" d="M-4472-2854.817a18.877,18.877,0,0,0,10.134-3s-2.5,5.675-10.3,4.973Z" transform="translate(4570.461 2898.306)" fill="#eb996e"/>
        <path id="Trazado_145669" data-name="Trazado 145669" d="M-4478.435-2885.261c.141.14.99-.483,2.183-.476s2.081.6,2.214.452-.078-.328-.46-.608a3.127,3.127,0,0,0-1.77-.545,2.961,2.961,0,0,0-1.738.561C-4478.372-2885.588-4478.5-2885.331-4478.435-2885.261Z" transform="translate(4571.848 2904.615)" fill="#263238"/>
        <path id="Trazado_145670" data-name="Trazado 145670" d="M-4464.71-2880.943a1.115,1.115,0,0,0,1.076,1.123,1.075,1.075,0,0,0,1.145-1v0a1.107,1.107,0,0,0-1.076-1.123,1.061,1.061,0,0,0-1.144.97Z" transform="translate(4568.819 2903.626)" fill="#263238"/>
        <path id="Trazado_145671" data-name="Trazado 145671" d="M-4478.45-2880.943a1.114,1.114,0,0,0,1.076,1.123,1.075,1.075,0,0,0,1.152-.993v-.013a1.116,1.116,0,0,0-1.076-1.123,1.069,1.069,0,0,0-1.152.978Z" transform="translate(4571.848 2903.627)" fill="#263238"/>
        <path id="Trazado_145672" data-name="Trazado 145672" d="M-4463.574-2885.059c.14.148.99-.475,2.183-.475s2.081.608,2.214.46-.078-.327-.468-.608a3.035,3.035,0,0,0-1.762-.546,2.958,2.958,0,0,0-1.738.561C-4463.512-2885.386-4463.637-2885.121-4463.574-2885.059Z" transform="translate(4568.572 2904.569)" fill="#263238"/>
        <path id="Trazado_145673" data-name="Trazado 145673" d="M-4469.9-2875.587a7.938,7.938,0,0,0-1.949-.351c-.3,0-.592-.094-.647-.3a1.554,1.554,0,0,1,.2-.9l.912-2.339a38.922,38.922,0,0,0,2.027-6.1,38.935,38.935,0,0,0-2.518,5.924q-.456,1.228-.865,2.339a1.769,1.769,0,0,0-.164,1.2.778.778,0,0,0,.507.452,2.184,2.184,0,0,0,.522.07A7.762,7.762,0,0,0-4469.9-2875.587Z" transform="translate(4570.634 2904.428)" fill="#263238"/>
        <path id="Trazado_145674" data-name="Trazado 145674" d="M-4465.59-2871.688c-.195,0-.195,1.286-1.31,2.214s-2.5.78-2.51.959.3.257.889.273a3.236,3.236,0,0,0,2.1-.733,2.863,2.863,0,0,0,1.021-1.855C-4465.318-2871.376-4465.5-2871.7-4465.59-2871.688Z" transform="translate(4569.855 2901.364)" fill="#263238"/>
        <path id="Trazado_145675" data-name="Trazado 145675" d="M-4463.472-2890.559c.118.32,1.318.172,2.721.335s2.549.553,2.736.265c.078-.141-.117-.452-.577-.78a4.586,4.586,0,0,0-2.027-.709,4.543,4.543,0,0,0-2.128.25C-4463.23-2890.972-4463.526-2890.715-4463.472-2890.559Z" transform="translate(4568.547 2905.727)" fill="#263238"/>
        <path id="Trazado_145676" data-name="Trazado 145676" d="M-4478.669-2889.922c.21.273,1.037,0,2.027,0s1.84.187,2.027-.1c.086-.14-.047-.413-.413-.67a2.941,2.941,0,0,0-3.267.1C-4478.646-2890.336-4478.762-2890.055-4478.669-2889.922Z" transform="translate(4571.903 2905.652)" fill="#263238"/>
        <path id="Trazado_145677" data-name="Trazado 145677" d="M-4447.246-2878.966c.132-.062,5.363-1.559,5.192,3.75s-5.5,4.061-5.5,3.9S-4447.246-2878.966-4447.246-2878.966Z" transform="translate(4565.036 2903.021)" fill="#ffbe9d"/>
        <path id="Trazado_145678" data-name="Trazado 145678" d="M-4445.381-2872.795s.094.062.242.14a.915.915,0,0,0,.694.039,2.276,2.276,0,0,0,1.13-2.027,3.129,3.129,0,0,0-.21-1.341,1.1,1.1,0,0,0-.678-.78.484.484,0,0,0-.561.242c-.07.148-.04.25-.07.257s-.109-.086-.062-.312a.618.618,0,0,1,.218-.327.783.783,0,0,1,.522-.117,1.326,1.326,0,0,1,.943.857,3.227,3.227,0,0,1,.273,1.5,2.407,2.407,0,0,1-1.426,2.261,1,1,0,0,1-.85-.164C-4445.374-2872.67-4445.4-2872.787-4445.381-2872.795Z" transform="translate(4564.559 2902.54)" fill="#eb996e"/>
        <path id="Trazado_145679" data-name="Trazado 145679" d="M-4450.291-2885.476a2.8,2.8,0,0,0-2.564,1.317c-.351.779-.421,1.629-.78,2.385a1.878,1.878,0,0,1-1.941,1.263,1.65,1.65,0,0,1-1.115-1.216,4.546,4.546,0,0,1,0-1.723c.319-2.494.841-4.965.943-7.476a12.814,12.814,0,0,0-1.559-7.25,7.015,7.015,0,0,0-6.236-3.508c-1.661.132-3.181,1-4.826,1.224a6.508,6.508,0,0,1-5.418-1.809c-.179-.172-1.013-.725-1.013-.725a3.114,3.114,0,0,1,.561-1.653c3.274-3.017,9.16-3.9,13.478-2.775a15.55,15.55,0,0,1,10.22,8.178c1.855,4.046,1.31,9.674.281,13.767" transform="translate(4571.043 2909.344)" fill="#263238"/>
        <path id="Trazado_145680" data-name="Trazado 145680" d="M-4481.614-2897.256a5.1,5.1,0,0,0,4.241,2.744,14.015,14.015,0,0,0,5.208-.78,41.8,41.8,0,0,1,8.021-1.185c.266,0,.577,0,.718-.218s-.109-.655-.382-.865c-2.338-1.824-7.951-2.947-10.914-3.064a8.669,8.669,0,0,0-7.647,3.625" transform="translate(4572.712 2907.747)" fill="#263238"/>
        <path id="Trazado_145681" data-name="Trazado 145681" d="M-4480.42-2899.047a10.016,10.016,0,0,1,5.815-2.627c6.751-.577,17.82,1.5,23.628,13.12a26.606,26.606,0,0,0,1.216-6.174c0-1.559-.951-11.038-10.672-14.032C-4460.432-2908.76-4475.088-2914.349-4480.42-2899.047Z" transform="translate(4572.282 2909.756)" fill="#ff725e"/>
        <g id="Grupo_88548" data-name="Grupo 88548" transform="translate(91.862)" opacity="0.4">
          <path id="Trazado_145682" data-name="Trazado 145682" d="M-4480.42-2899.047A9.5,9.5,0,0,1-4473.9-2902c6.034-.273,17.454,2.495,22.926,13.447a26.606,26.606,0,0,0,1.216-6.174c0-1.559-.951-11.038-10.672-14.032C-4460.432-2908.76-4475.088-2914.349-4480.42-2899.047Z" transform="translate(4480.42 2909.756)"/>
        </g>
        <path id="Trazado_145683" data-name="Trazado 145683" d="M-4454.684-2890.092c-2.915-4.927-7.289-8.271-11.966-11.21s-12.473-5.854-17.852-7.273a11.7,11.7,0,0,0-4.926-.522,4.45,4.45,0,0,0-3.656,2.993c-.515,2.027,3.079,5.145,4.763,6.369a54.307,54.307,0,0,0,5.122,3.032s-.047-3.765,5.963-4.529C-4469.074-2902.26-4454.442-2889.881-4454.684-2890.092Z" transform="translate(4575.085 2909.625)" fill="#ff725e"/>
        <path id="Trazado_145684" data-name="Trazado 145684" d="M-4461-2904.335a21.506,21.506,0,0,0-11.3-2.744,5.357,5.357,0,0,1,1.73-.242,15.705,15.705,0,0,1,8.146,1.98A5.425,5.425,0,0,1-4461-2904.335Z" transform="translate(4570.492 2909.22)" fill="#fff"/>
        <path id="Trazado_145685" data-name="Trazado 145685" d="M-4431.321-2740.4c0,.109-19.957.2-44.575.2s-44.575-.094-44.575-.2,19.957-.2,44.575-.2S-4431.321-2740.5-4431.321-2740.4Z" transform="translate(4581.111 2872.465)" fill="#263238"/>
        <path id="Trazado_145686" data-name="Trazado 145686" d="M-4521.983-2824.8l-11.475,5.184-17.8-14.515-5.457,8.575s10.134,11.732,13.9,15.724,6.236,6.112,9.222,5.73,19.871-8.349,19.871-8.349S-4517.719-2824.3-4521.983-2824.8Z" transform="translate(4589.103 2893.083)" fill="#ffbe9d"/>
        <path id="Trazado_145687" data-name="Trazado 145687" d="M-4575.662-2843.518s2.237,1.684,3.7,1.559,7.016-.132,7.414-.1,5.815,2.97,5.815,2.97l3.959,3.8-6.236,8.637s-1.021-1.177-1.723-1.092a80.962,80.962,0,0,1-10.523-1.076c-1.286-.437-2.931-.694-3.36-1.481s-.522-1.356.655-2.339a1.974,1.974,0,0,1-.437-2.736s-1.777-1.3-1.138-2.5c0,0-1.005-.413-1.169-1.052a6.841,6.841,0,0,1,.07-2l2.549-.78A1.222,1.222,0,0,1-4575.662-2843.518Z" transform="translate(4593.958 2895.154)" fill="#ffbe9d"/>
        <path id="Trazado_145688" data-name="Trazado 145688" d="M-4576.35-2841.1s.117-.047.328-.109a4.1,4.1,0,0,1,.951-.195,2.343,2.343,0,0,1,1.388.538,1.616,1.616,0,0,1,.53,1.754,1.233,1.233,0,0,1-.694.74,3.871,3.871,0,0,1-.834.242l-1.372.281a3.962,3.962,0,0,1-1.286.164,4.292,4.292,0,0,1,1.224-.437l1.349-.374c.515-.125,1.076-.242,1.232-.78a1.28,1.28,0,0,0-.4-1.341,2.207,2.207,0,0,0-1.146-.53,5.809,5.809,0,0,0-.912.062C-4576.226-2841.034-4576.35-2841.065-4576.35-2841.1Z" transform="translate(4593.648 2894.688)" fill="#eb996e"/>
        <path id="Trazado_145689" data-name="Trazado 145689" d="M-4572.766-2838.23a2.909,2.909,0,0,1,.593-.171,9.557,9.557,0,0,1,1.684-.187,4.363,4.363,0,0,1,2.463.631,2.148,2.148,0,0,1,.928,1.279,1.466,1.466,0,0,1-.639,1.559,3.9,3.9,0,0,1-1.614.327l-1.466.117-2.471.171a12.878,12.878,0,0,1-2.292.055,12.355,12.355,0,0,1,2.269-.343l2.463-.257,1.465-.14a3.88,3.88,0,0,0,1.442-.281,1.066,1.066,0,0,0,.483-1.115,1.754,1.754,0,0,0-.779-1.044,4.24,4.24,0,0,0-2.261-.655C-4571.885-2838.324-4572.758-2838.145-4572.766-2838.23Z" transform="translate(4593.26 2894.068)" fill="#eb996e"/>
        <path id="Trazado_145690" data-name="Trazado 145690" d="M-4567.285-2834.128s.156,0,.32.241a1.249,1.249,0,0,1,.148,1.107,1.894,1.894,0,0,1-1.2,1.123,6.529,6.529,0,0,1-1.933.257c-2.689.125-4.817.647-4.849.53a13.577,13.577,0,0,1,4.825-.936,7.177,7.177,0,0,0,1.832-.2,1.7,1.7,0,0,0,1.06-.873,1.179,1.179,0,0,0,0-.92C-4567.238-2834.042-4567.348-2834.1-4567.285-2834.128Z" transform="translate(4593.088 2893.083)" fill="#eb996e"/>
        <path id="Trazado_145691" data-name="Trazado 145691" d="M-4556.071-2832.494a2.669,2.669,0,0,1-1.123.437,8.361,8.361,0,0,1-2.915.132,8.266,8.266,0,0,1-2.775-.9c-.655-.358-1-.678-.967-.717a11.459,11.459,0,0,0,7.8,1.044Z" transform="translate(4590.675 2892.953)" fill="#eb996e"/>
        <path id="Trazado_145692" data-name="Trazado 145692" d="M-4565.271-2837.395c.055-.1.608.094,1.294,0s1.186-.382,1.255-.288-.39.608-1.208.694S-4565.334-2837.309-4565.271-2837.395Z" transform="translate(4590.989 2893.871)" fill="#eb996e"/>
        <path id="Trazado_145693" data-name="Trazado 145693" d="M-4566.05-2827.277a3.12,3.12,0,0,1,1.177-2.152,3.216,3.216,0,0,1,2.222-1.029,17.7,17.7,0,0,0-1.941,1.325A16.733,16.733,0,0,0-4566.05-2827.277Z" transform="translate(4591.159 2892.274)" fill="#eb996e"/>
        <path id="Trazado_145694" data-name="Trazado 145694" d="M-4591.642-2797.618h33.856l6.283,49.517h-46.757Z" transform="translate(4598.26 2885.035)" fill="#ef6c00"/>
        <path id="Trazado_145695" data-name="Trazado 145695" d="M-4546.34-2797.618h3.921l11.553,49.517h-9.191Z" transform="translate(4586.814 2885.035)" fill="#ff725e"/>
        <path id="Trazado_145696" data-name="Trazado 145696" d="M-4546.34-2797.618h3.921l11.553,49.517h-9.191Z" transform="translate(4586.814 2885.035)" opacity="0.3" style="isolation: isolate"/>
        <path id="Trazado_145697" data-name="Trazado 145697" d="M-4571.315-2830.655a.37.37,0,0,1,.273,0,1.009,1.009,0,0,1,.592.46,1.258,1.258,0,0,1,.109,1.123,1.889,1.889,0,0,1-.919,1.006,3.844,3.844,0,0,1-1.715.335l.148-.1c-.444.85-.975,1.232-1.014,1.177s.351-.507.7-1.325l.039-.086h.109a4.1,4.1,0,0,0,1.56-.359,1.562,1.562,0,0,0,.779-.78,1.006,1.006,0,0,0,0-.85C-4570.925-2830.554-4571.331-2830.593-4571.315-2830.655Z" transform="translate(4592.878 2892.323)" fill="#eb996e"/>
        <path id="Trazado_145698" data-name="Trazado 145698" d="M-4578.741-2801.947a5.108,5.108,0,0,1,.078-1.006c.07-.639.2-1.559.39-2.713.367-2.284.99-5.457,1.715-8.872s1.4-6.572,1.839-8.84c.2-1.076.382-1.972.515-2.69a4.8,4.8,0,0,1,.234-.982,5.06,5.06,0,0,1-.078,1.006c-.07.647-.2,1.559-.39,2.713-.366,2.284-.99,5.457-1.723,8.879s-1.388,6.572-1.832,8.84c-.2,1.068-.382,1.972-.514,2.682A4.464,4.464,0,0,1-4578.741-2801.947Z" transform="translate(4593.958 2891.523)" fill="#ff725e"/>
        <path id="Trazado_145699" data-name="Trazado 145699" d="M-4557.964-2802.539a7.506,7.506,0,0,1-.374-1.138c-.226-.78-.522-1.871-.874-3.118-.725-2.658-1.691-6.338-2.744-10.407s-1.972-7.8-2.627-10.446c-.3-1.286-.553-2.339-.78-3.173a6.421,6.421,0,0,1-.218-1.177,7.738,7.738,0,0,1,.374,1.138c.226.78.522,1.871.874,3.118.725,2.658,1.691,6.338,2.744,10.415s1.972,7.756,2.619,10.43l.78,3.181A6.617,6.617,0,0,1-4557.964-2802.539Z" transform="translate(4591.056 2892.614)" fill="#ff725e"/>
        <path id="Trazado_145700" data-name="Trazado 145700" d="M-4529.089-2735.557a8.561,8.561,0,0,1-1.629-1.138c-.975-.74-2.339-1.793-3.757-2.97l-.733-.6.3-.047c-.912,1.372-1.73,2.58-2.338,3.43a7.247,7.247,0,0,1-1.029,1.325,8.008,8.008,0,0,1,.779-1.473c.538-.889,1.317-2.12,2.222-3.5l.117-.187.179.14.733.593c1.45,1.185,2.751,2.269,3.679,3.072A10.207,10.207,0,0,1-4529.089-2735.557Z" transform="translate(4585.038 2872.491)" fill="#263238"/>
        <path id="Trazado_145701" data-name="Trazado 145701" d="M-4543.7-2797.618c.109,0,1.863,9.963,3.9,22.295s3.625,22.342,3.508,22.357-1.863-9.963-3.9-22.295S-4543.811-2797.6-4543.7-2797.618Z" transform="translate(4586.234 2885.035)" fill="#263238"/>
        <path id="Trazado_145702" data-name="Trazado 145702" d="M-4554.855-2781.56a9.031,9.031,0,0,1-.779.78,14.1,14.1,0,0,1-2.581,1.762,15.419,15.419,0,0,1-4.677,1.606,13.915,13.915,0,0,1-6.518-.382,7.961,7.961,0,0,1-3.273-2,6.158,6.158,0,0,1-1.786-3.742,4.862,4.862,0,0,1,1.692-4.077,3.812,3.812,0,0,1,2.19-.912,4.511,4.511,0,0,1,2.393.5,5.682,5.682,0,0,1,1.91,1.559,6.423,6.423,0,0,1,1.1,2.339,11.377,11.377,0,0,1,0,5.168,17.5,17.5,0,0,1-5.317,9.355,15.873,15.873,0,0,1-4.677,2.978,11.46,11.46,0,0,1-5.277.9,9,9,0,0,1-4.825-1.871,6.8,6.8,0,0,1-2.573-4.21,6.368,6.368,0,0,1,.9-4.615,4.367,4.367,0,0,1,3.859-2.082,2.8,2.8,0,0,1,1.91,1.029,4.185,4.185,0,0,1,.865,1.809,6.809,6.809,0,0,1-.444,3.812,10.193,10.193,0,0,1-4.343,4.833,15.4,15.4,0,0,1-4.677,1.684,23.958,23.958,0,0,1-3.118.39c-.351,0-.624.039-.78.039h0l.78-.078a27.174,27.174,0,0,0,3.079-.468,15.341,15.341,0,0,0,4.561-1.723,9.955,9.955,0,0,0,4.193-4.748,6.519,6.519,0,0,0,.406-3.64,3.976,3.976,0,0,0-.78-1.738,2.49,2.49,0,0,0-1.691-.9,4,4,0,0,0-3.523,1.949,5.991,5.991,0,0,0-.842,4.35,6.394,6.394,0,0,0,2.448,3.968,8.634,8.634,0,0,0,4.615,1.777c3.438.265,6.938-1.349,9.612-3.789a17.111,17.111,0,0,0,5.2-9.1,10.926,10.926,0,0,0,0-4.989,6.057,6.057,0,0,0-1.014-2.167,5.408,5.408,0,0,0-1.785-1.5,4.171,4.171,0,0,0-2.19-.46,3.516,3.516,0,0,0-2,.78,4.5,4.5,0,0,0-1.559,3.773,5.848,5.848,0,0,0,1.676,3.555,7.617,7.617,0,0,0,3.118,1.941,13.715,13.715,0,0,0,6.393.429,15.765,15.765,0,0,0,4.638-1.52,15.065,15.065,0,0,0,2.6-1.684c.281-.211.476-.4.624-.515A.937.937,0,0,1-4554.855-2781.56Z" transform="translate(4597.31 2883.032)" fill="#fff"/>
        <path id="Trazado_145703" data-name="Trazado 145703" d="M-4489.094-2841.618h-6.1c-1.965.694-17.812,14.172-17.812,14.172l8.957,14.079,11.615-6.79Z" transform="translate(4579.467 2894.735)" fill="#455a64"/>
        <path id="Trazado_145704" data-name="Trazado 145704" d="M-4492.658-2843.593l13.486-5.122s1.972,4.139,7.975,3.251,13.089-5.114,13.089-5.114,10.336,5.9,13.392,8.365-2.463,54.038-2.463,54.038l-1.38,15.458s1.083.78,1.083,3.446.1,4.428.1,4.428H-4500.8s-1.3-6.2-.319-8.661a31.522,31.522,0,0,1,2.611-4.919l.834-23.823.3-21.266Z" transform="translate(4576.927 2896.71)" fill="#455a64"/>
        <path id="Trazado_145705" data-name="Trazado 145705" d="M-4433.594-2839.848s4.311,1.216,5.589,7.608,1.037,30.808,1.037,30.808l-24.072-5.215s3.259-10.243,3.259-10.914,6.626-17.2,6.86-17.555S-4433.594-2839.848-4433.594-2839.848Z" transform="translate(4565.805 2894.344)" fill="#455a64"/>
        <path id="Trazado_145706" data-name="Trazado 145706" d="M-4496.771-2828.738c.109,0,.266,4.264.344,9.534s.046,9.534-.062,9.534-.266-4.264-.343-9.526S-4496.888-2828.738-4496.771-2828.738Z" transform="translate(4575.911 2891.895)" fill="#263238"/>
        <path id="Trazado_145707" data-name="Trazado 145707" d="M-4444.539-2825.8a3.259,3.259,0,0,1-.094.842c-.078.545-.218,1.325-.405,2.284-.382,1.917-.966,4.56-1.73,7.444s-1.559,5.457-2.159,7.336c-.312.928-.569,1.676-.78,2.19a3.138,3.138,0,0,1-.343.779,3.76,3.76,0,0,1,.195-.826c.171-.616.382-1.356.639-2.229.546-1.871,1.286-4.467,2.042-7.351s1.387-5.5,1.839-7.406l.538-2.253A2.9,2.9,0,0,1-4444.539-2825.8Z" transform="translate(4565.587 2891.247)" fill="#263238"/>
        <path id="Trazado_145708" data-name="Trazado 145708" d="M-4446.048-2826.468a30.59,30.59,0,0,1-.055,4.919,31.012,31.012,0,0,1-.459,4.888,28.443,28.443,0,0,1,.054-4.911A30.165,30.165,0,0,1-4446.048-2826.468Z" transform="translate(4564.836 2891.395)" fill="#263238"/>
        <path id="Trazado_145709" data-name="Trazado 145709" d="M-4456.5-2816.183a66.048,66.048,0,0,1-10.336,0,32.4,32.4,0,0,1,5.168-.2A32.413,32.413,0,0,1-4456.5-2816.183Z" transform="translate(4569.289 2889.178)" fill="#fff"/>
        <path id="Trazado_145710" data-name="Trazado 145710" d="M-4489.636-2776.835l26.638-3.2,4.2-16.869,14.9,3.227s-5.894,23.386-11.966,25.678-36.125-1.559-36.125-1.559Z" transform="translate(4574.833 2884.878)" fill="#ffbe9d"/>
        <path id="Trazado_145711" data-name="Trazado 145711" d="M-4497.672-2771.849a32.226,32.226,0,0,0-4.444-1.5c-1.231-.179-2.689.094-3.056.686l-7.156,4.171s-5.309-.507-5.815.686c0,0-3.391-.967-3.937-.281,0,0-1.7.553-1.419,1.333s6.408,2.931,6.408,2.931l8.4.857a20.466,20.466,0,0,1,4.529-1.879,23.06,23.06,0,0,1,3.819.3c-.109,0,4.911.569,4.911.569s1.021-1.1,1.435-4.124,0-3.656,0-3.656Z" transform="translate(4581.786 2879.698)" fill="#ffbe9d"/>
        <path id="Trazado_145712" data-name="Trazado 145712" d="M-4496.132-2768.045a1.022,1.022,0,0,1-.522-.2c-.3-.2-.554-.709-1.021-1.029a2.742,2.742,0,0,0-.919-.281,2.089,2.089,0,0,1-1.146-.507,2.036,2.036,0,0,1-.623-1.263,1.789,1.789,0,0,1,.452-1.45,2.916,2.916,0,0,1,2.673-.732,4.69,4.69,0,0,1,2.011,1.029,9.821,9.821,0,0,1,1.068,1.06c.226.265.335.421.319.444s-.585-.53-1.559-1.278a4.786,4.786,0,0,0-1.91-.889,2.6,2.6,0,0,0-2.339.647,1.621,1.621,0,0,0,.133,2.167c.506.53,1.387.382,1.972.779s.709.928.967,1.154S-4496.116-2768.076-4496.132-2768.045Z" transform="translate(4576.683 2879.737)" fill="#eb996e"/>
        <path id="Trazado_145713" data-name="Trazado 145713" d="M-4502.572-2768.278c0,.062-.405.039-.975.3a14.677,14.677,0,0,1-2.3,1.091,6.623,6.623,0,0,1-2.564-.2,8.839,8.839,0,0,1-1.029-.148,1.7,1.7,0,0,1,1.06-.133,9.048,9.048,0,0,0,2.44.086c.889-.226,1.645-.78,2.338-.959S-4502.557-2768.325-4502.572-2768.278Z" transform="translate(4578.68 2878.583)" fill="#eb996e"/>
        <path id="Trazado_145714" data-name="Trazado 145714" d="M-4504.093-2764.411a1.694,1.694,0,0,1-.491.312,7.105,7.105,0,0,1-1.474.569,14.465,14.465,0,0,1-5.176.3c-1-.125-1.949-.281-2.814-.405a8.671,8.671,0,0,1-2.3-.514,1.451,1.451,0,0,1-.686-.663,1.2,1.2,0,0,1-.1-.709c.086-.413.343-.507.343-.483a.879.879,0,0,0-.187.5,1.138,1.138,0,0,0,.78,1.1,10.157,10.157,0,0,0,2.229.4l2.8.374a16.27,16.27,0,0,0,5.067-.172C-4504.849-2764.091-4504.124-2764.458-4504.093-2764.411Z" transform="translate(4580.379 2878.067)" fill="#eb996e"/>
        <path id="Trazado_145715" data-name="Trazado 145715" d="M-4450.342-2768.274a29.848,29.848,0,0,0-1.73-3.329,30.465,30.465,0,0,0-2.448-2.845,7.121,7.121,0,0,1,2.783,2.619A7.024,7.024,0,0,1-4450.342-2768.274Z" transform="translate(4566.572 2879.927)" fill="#eb996e"/>
      </g>
      <g id="freepik--character-1--inject-2" transform="translate(-4757.92 -2926.377)">
        <path id="Trazado_145716" data-name="Trazado 145716" d="M-4704.239-2650.744l-1.021,52.043,12.6,1.349,8.661-52.986-6.806-8.56Z" transform="translate(4746.311 2857.307)" fill="#ffbe9d"/>
        <path id="Trazado_145717" data-name="Trazado 145717" d="M-4691.109-2583.38v.85s14.344,5.956,14.46,8.684l-28.6-.475v-9.526A17.632,17.632,0,0,0-4691.109-2583.38Z" transform="translate(4746.309 2840.762)" fill="#ff725e"/>
        <path id="Trazado_145718" data-name="Trazado 145718" d="M-4705.26-2572.274l.133-2.284,27.369,1.294s1.263.577,1.1,1.466Z" transform="translate(4746.311 2838.714)" fill="#263238"/>
        <path id="Trazado_145719" data-name="Trazado 145719" d="M-4714.744-2853.968c-.21-2.4-1.645-4.825-3.9-5.55l-2.643,1.512a6.352,6.352,0,0,0-3.181,7.717,7.523,7.523,0,0,0-2.409,10.321c-1.715.78-2.447,2.884-2.416,4.771s.639,3.719.779,5.6c.132,1.45,0,2.923.265,4.358a4.457,4.457,0,0,0,2.4,3.438,3.9,3.9,0,0,0,4.147-1.185,8.088,8.088,0,0,0,1.738-4.178c.709-4.357-.219-8.9.881-13.182a42.9,42.9,0,0,1,2.751-6.657A14.485,14.485,0,0,0-4714.744-2853.968Z" transform="translate(4751.608 2901.534)" fill="#263238"/>
        <path id="Trazado_145720" data-name="Trazado 145720" d="M-4714.619-2856.744a8.4,8.4,0,0,1-8.341-8.465,8.4,8.4,0,0,1,1.325-4.468,2.154,2.154,0,0,1,.959-.928c.881-.351,1.808.366,2.486,1.037l4.935,4.8" transform="translate(4750.212 2903.998)" fill="#263238"/>
        <path id="Trazado_145721" data-name="Trazado 145721" d="M-4714.373-2868.5c-3.7-1.754-6.618-5.909-7.694-9.861s.164-11.958,1.224-15.911c1.3-4.817,3.305,1.38,4.942,1.887a3.182,3.182,0,0,1,1.949,2.2,9.335,9.335,0,0,1,.226,3.048q-.327,9.354-.647,18.639" transform="translate(4750.107 2909.598)" fill="#263238"/>
        <path id="Trazado_145722" data-name="Trazado 145722" d="M-4701.061-2911.586c6.189-3.329,11.164-1.364,13.58.522a14.96,14.96,0,0,1,4.763,7.709c.865,2.939,1.271,5.995,1.988,8.98a37.027,37.027,0,0,1,.959,5.223c.351,2.549.234,7.11-1.068,9.355a15.273,15.273,0,0,1-4.677,5.395,3.1,3.1,0,0,1-2.479.733,2.979,2.979,0,0,1-1.4-1.286,119.442,119.442,0,0,1-15.661-31.307" transform="translate(4746.267 2913.409)" fill="#263238"/>
        <path id="Trazado_145723" data-name="Trazado 145723" d="M-4709.58-2903.122l10.727-4.326,2.813.312c6.314,0,10.7,6.938,10.774,12.06.07,5.683-.062,12.629-.943,16.823-1.778,8.435-8.349,9.191-8.349,9.191s.078,2.3.141,5.129a8.918,8.918,0,0,1-8.7,9.135c-.137,0-.273,0-.41,0h0a8.917,8.917,0,0,1-8.746-8.895l-.141-36.537A2.993,2.993,0,0,1-4709.58-2903.122Z" transform="translate(4747.887 2912.1)" fill="#ffbe9d"/>
        <path id="Trazado_145724" data-name="Trazado 145724" d="M-4681.717-2884.653a1.091,1.091,0,0,1-1.107,1.044,1.044,1.044,0,0,1-1.076-1.013v-.024a1.1,1.1,0,0,1,1.107-1.053,1.052,1.052,0,0,1,1.075,1.029Z" transform="translate(4741.602 2907.306)" fill="#263238"/>
        <path id="Trazado_145725" data-name="Trazado 145725" d="M-4681.695-2888.214c-.14.132-.935-.515-2.1-.569s-2.066.483-2.19.335.093-.32.483-.569a2.978,2.978,0,0,1,1.754-.452,2.921,2.921,0,0,1,1.676.639C-4681.733-2888.534-4681.625-2888.277-4681.695-2888.214Z" transform="translate(4742.07 2908.138)" fill="#263238"/>
        <path id="Trazado_145726" data-name="Trazado 145726" d="M-4689.68-2878.854a8.173,8.173,0,0,1,1.925-.25c.3,0,.584-.055.647-.257a1.6,1.6,0,0,0-.156-.9c-.242-.732-.5-1.512-.78-2.338a39.591,39.591,0,0,1-1.691-6.065,39.48,39.48,0,0,1,2.175,5.917c.258.78.5,1.559.733,2.339a1.72,1.72,0,0,1,.1,1.177.78.78,0,0,1-.514.421,2.024,2.024,0,0,1-.515.039A7.265,7.265,0,0,1-4689.68-2878.854Z" transform="translate(4742.892 2907.96)" fill="#263238"/>
        <path id="Trazado_145727" data-name="Trazado 145727" d="M-4692.687-2859.229a21.691,21.691,0,0,1-11.233-3.609s2.736,6.042,11.288,5.675Z" transform="translate(4746.016 2902.266)" fill="#eb996e"/>
        <path id="Trazado_145728" data-name="Trazado 145728" d="M-4691.622-2873.1a2.13,2.13,0,0,0-1.894-1,1.685,1.685,0,0,0-1.373.655,1.5,1.5,0,0,0-.085,1.6,1.558,1.558,0,0,0,1.6.624,3.9,3.9,0,0,0,1.559-.842,1.294,1.294,0,0,0,.351-.359A.939.939,0,0,0-4691.622-2873.1Z" transform="translate(4744.085 2904.749)" fill="#eb996e"/>
        <path id="Trazado_145729" data-name="Trazado 145729" d="M-4694.224-2875.258c.187,0,.132,1.271,1.177,2.23s2.4.888,2.409,1.068-.32.234-.889.218a3.178,3.178,0,0,1-2.019-.819,2.769,2.769,0,0,1-.9-1.863C-4694.45-2874.962-4694.294-2875.266-4694.224-2875.258Z" transform="translate(4743.928 2905.004)" fill="#263238"/>
        <path id="Trazado_145730" data-name="Trazado 145730" d="M-4681.808-2892.391c-.218.257-1.013-.054-1.988-.117s-1.8.086-1.98-.2c-.078-.14.07-.4.437-.631a2.877,2.877,0,0,1,3.2.257C-4681.808-2892.835-4681.714-2892.554-4681.808-2892.391Z" transform="translate(4742.02 2909.071)" fill="#263238"/>
        <path id="Trazado_145731" data-name="Trazado 145731" d="M-4697.73-2884.723a1.082,1.082,0,0,0,1.037,1.115,1.044,1.044,0,0,0,1.136-.944l0-.023a1.092,1.092,0,0,0-1.037-1.115,1.037,1.037,0,0,0-1.135.928Z" transform="translate(4744.651 2907.305)" fill="#263238"/>
        <path id="Trazado_145732" data-name="Trazado 145732" d="M-4700.555-2888.333c.132.148.966-.452,2.144-.436s2.026.616,2.151.475-.07-.32-.437-.6a2.95,2.95,0,0,0-1.73-.553,2.9,2.9,0,0,0-1.708.522C-4700.5-2888.669-4700.625-2888.411-4700.555-2888.333Z" transform="translate(4745.278 2908.132)" fill="#263238"/>
        <path id="Trazado_145733" data-name="Trazado 145733" d="M-4699.908-2893.146c.2.265,1.021,0,2,0s1.792.2,1.987-.078c.086-.133-.047-.4-.4-.655a2.741,2.741,0,0,0-1.614-.46,2.818,2.818,0,0,0-1.6.514C-4699.876-2893.551-4699.993-2893.31-4699.908-2893.146Z" transform="translate(4745.137 2909.211)" fill="#263238"/>
        <path id="Trazado_145734" data-name="Trazado 145734" d="M-4700.478-2908.783a10.43,10.43,0,0,0-9.207,1.044,12.031,12.031,0,0,0-4.319,7.421c-.538,2.884.18,7.149.936,9.978,4.4-5.667,8.926-12.2,13.167-17.984Z" transform="translate(4748.28 2912.531)" fill="#263238"/>
        <path id="Trazado_145735" data-name="Trazado 145735" d="M-4694.464-2911.947c14.9-2.1,13.525,20.432,13.525,20.432h0c-1.489-8.3-13.042-16.986-13.042-16.986l-2.339-.4Z" transform="translate(4744.34 2913.123)" fill="#263238"/>
        <path id="Trazado_145736" data-name="Trazado 145736" d="M-4712.966-2880.445c0-.632-.624-2.159-1.247-2.292-1.661-.343-4.677-.358-4.911,3.9-.335,5.792,5.55,4.927,5.574,4.763S-4713.067-2878.254-4712.966-2880.445Z" transform="translate(4749.37 2906.683)" fill="#ffbe9d"/>
        <path id="Trazado_145737" data-name="Trazado 145737" d="M-4713.8-2875.873a1.9,1.9,0,0,1-.281.141,1.021,1.021,0,0,1-.779,0,2.5,2.5,0,0,1-1.029-2.339,3.329,3.329,0,0,1,.367-1.426,1.174,1.174,0,0,1,.779-.733.508.508,0,0,1,.577.312c.07.164,0,.28.054.288s.133-.085.1-.327a.713.713,0,0,0-.21-.382.783.783,0,0,0-.546-.179,1.421,1.421,0,0,0-1.107.842,3.373,3.373,0,0,0-.444,1.559,2.66,2.66,0,0,0,1.333,2.58,1.044,1.044,0,0,0,.927-.1C-4713.856-2875.732-4713.786-2875.857-4713.8-2875.873Z" transform="translate(4748.749 2906.164)" fill="#eb996e"/>
        <path id="Trazado_145738" data-name="Trazado 145738" d="M-4720.3-2901.039a20.912,20.912,0,0,1,7.975-9.658,14.156,14.156,0,0,1,6.237-2.635,7.175,7.175,0,0,1,6.236,2.089l.413.421c-2.557,5.683-4.365,10.493-7.663,15.778-1.216,1.941-1.738,8.575-2.027,10.828-1,7.757-5.246,11.077-5.246,11.077C-4723.575-2873.131-4721.782-2897.063-4720.3-2901.039Z" transform="translate(4749.892 2913.416)" fill="#263238"/>
        <path id="Trazado_145739" data-name="Trazado 145739" d="M-4715.659-2864.541a2.527,2.527,0,0,1-1.146-.359,7.821,7.821,0,0,1-2.338-1.746,7.509,7.509,0,0,1-1.56-2.464,2.536,2.536,0,0,1-.257-1.169,15.047,15.047,0,0,0,2.073,3.36A14.79,14.79,0,0,0-4715.659-2864.541Z" transform="translate(4749.772 2903.906)" fill="#455a64"/>
        <path id="Trazado_145740" data-name="Trazado 145740" d="M-4716.712-2854.069a4.45,4.45,0,0,1-3.9-2.939,24.14,24.14,0,0,0,1.761,1.731A20.8,20.8,0,0,0-4716.712-2854.069Z" transform="translate(4749.695 2900.981)" fill="#455a64"/>
        <path id="Trazado_145741" data-name="Trazado 145741" d="M-4721.16-2844.919c-.085.07-.616-.515-1.185-1.3s-.943-1.481-.85-1.559.616.515,1.185,1.3S-4721.066-2844.981-4721.16-2844.919Z" transform="translate(4750.268 2898.948)" fill="#455a64"/>
        <path id="Trazado_145742" data-name="Trazado 145742" d="M-4724.845-2833.345c-.085.07-.491-.257-.912-.741s-.694-.927-.608-1.005.491.257.912.74S-4724.758-2833.423-4724.845-2833.345Z" transform="translate(4750.967 2896.151)" fill="#455a64"/>
        <path id="Trazado_145743" data-name="Trazado 145743" d="M-4722.16-2887.472a8.793,8.793,0,0,1,1.1-.639,13.141,13.141,0,0,0,1.286-.779c.507-.351,1.076-.616,1.668-1.037a40.06,40.06,0,0,0,4.085-3.064,39.489,39.489,0,0,0,8.076-9.487,40.719,40.719,0,0,0,2.377-4.521c.32-.655.538-1.271.78-1.809a14.7,14.7,0,0,0,.522-1.4,7.679,7.679,0,0,1,.46-1.185,8.287,8.287,0,0,1-.312,1.24,14.646,14.646,0,0,1-.46,1.418c-.194.546-.4,1.177-.7,1.848a36.96,36.96,0,0,1-2.339,4.6,41.087,41.087,0,0,1-3.672,5.129,40.7,40.7,0,0,1-4.482,4.451,36.946,36.946,0,0,1-4.17,3.017c-.608.405-1.2.709-1.707,1s-.959.507-1.333.678A7.872,7.872,0,0,1-4722.16-2887.472Z" transform="translate(4750.037 2912.969)" fill="#455a64"/>
        <path id="Trazado_145744" data-name="Trazado 145744" d="M-4707.979-2889.619a4.671,4.671,0,0,1-.421.554c-.288.335-.779.779-1.325,1.356a28.348,28.348,0,0,1-10.7,6.353,18.763,18.763,0,0,1-1.824.507,2.594,2.594,0,0,1-.686.109,24.5,24.5,0,0,1,2.417-.881,35.859,35.859,0,0,0,5.582-2.65,35.488,35.488,0,0,0,5.02-3.609A23.829,23.829,0,0,1-4707.979-2889.619Z" transform="translate(4750.207 2908.17)" fill="#455a64"/>
        <path id="Trazado_145745" data-name="Trazado 145745" d="M-4680.208-2887.282a10.147,10.147,0,0,1,.242-1.271,21.313,21.313,0,0,0,.382-3.477,20.207,20.207,0,0,0-11.054-18.818,21.269,21.269,0,0,0-3.228-1.356,10.387,10.387,0,0,1-1.224-.413,1.8,1.8,0,0,1,.335.047c.219.047.53.094.936.21a18.3,18.3,0,0,1,3.305,1.255,19.918,19.918,0,0,1,11.218,19.083,18.324,18.324,0,0,1-.515,3.5c-.093.406-.21.717-.272.928A1.264,1.264,0,0,1-4680.208-2887.282Z" transform="translate(4744.069 2913.24)" fill="#455a64"/>
        <path id="Trazado_145746" data-name="Trazado 145746" d="M-4587.489-2812.518a1.862,1.862,0,0,0-.257,1.809,2.928,2.928,0,0,0,1.154,1.177,10.145,10.145,0,0,0,1.917-2.744" transform="translate(4720.433 2891.173)" fill="#eb996e"/>
        <path id="Trazado_145747" data-name="Trazado 145747" d="M-4591.922-2813.788a1.878,1.878,0,0,0-.7,1.692,2.886,2.886,0,0,0,.826,1.427,10.3,10.3,0,0,0,2.542-2.175" transform="translate(4721.483 2891.453)" fill="#eb996e"/>
        <path id="Trazado_145748" data-name="Trazado 145748" d="M-4690.34-2846.758s25.639,20.175,30.262,20.837,26.248-1.964,35.127-2.237l1.255,7.445s-24.5,8.318-33.412,8.645-14.032-2.074-14.032-2.074l-16.659-17.064Z" transform="translate(4743.022 2898.721)" fill="#ffbe9d"/>
        <path id="Trazado_145749" data-name="Trazado 145749" d="M-4607.16-2823.083s11.451-1.637,13.252-.741,6.891,5.208,6.891,5.208,1.708,4.794.632,5.02-2.183-1.559-2.183-1.559l-1.489-2.643-6.4-1.559-10.609.943Z" transform="translate(4724.685 2893.724)" fill="#ffbe9d"/>
        <path id="Trazado_145750" data-name="Trazado 145750" d="M-4605.919-2814.646c.164.2,4.256,2.175,6.338,2.12s4.459-1.684,6.236-1.434,5.5.538,5.956-.109a1.413,1.413,0,0,0,0-1.964c-.608-.577-3.609-1.146-5.777-1.731a8.651,8.651,0,0,1-3.211-1.473l-12.605,1.388-.717,3.9Z" transform="translate(4725.245 2892.654)" fill="#ffbe9d"/>
        <path id="Trazado_145751" data-name="Trazado 145751" d="M-4597.86-2819.423a2.492,2.492,0,0,1,.663-.046,9.717,9.717,0,0,1,1.785.218,50.056,50.056,0,0,1,5.629,1.785,17.277,17.277,0,0,0,3.118.732,2.634,2.634,0,0,1,1.4.538,1.56,1.56,0,0,1,.468,1.247,1.4,1.4,0,0,1-.522.959,1.457,1.457,0,0,1-.78.289c-.452,0-.663-.141-.655-.156a3.409,3.409,0,0,0,.639,0,1.223,1.223,0,0,0,1.014-1.115,1.2,1.2,0,0,0-.406-.966,2.393,2.393,0,0,0-1.224-.429,15.608,15.608,0,0,1-3.188-.717c-2.2-.733-4.108-1.559-5.566-1.886S-4597.86-2819.345-4597.86-2819.423Z" transform="translate(4722.634 2892.706)" fill="#eb996e"/>
        <path id="Trazado_145752" data-name="Trazado 145752" d="M-4588.177-2817.063a3.652,3.652,0,0,1-1.855-.936,4.038,4.038,0,0,1-1.341-1.559c.086,0,.726.585,1.56,1.263S-4588.091-2817.173-4588.177-2817.063Z" transform="translate(4721.207 2892.725)" fill="#eb996e"/>
        <path id="Trazado_145753" data-name="Trazado 145753" d="M-4725.252-2651.071l-23.238,10.345,2.8,12.41s29.218-8.715,38.774-10.648,25.047-4.4,29.42-13.673Z" transform="translate(4755.841 2855.927)" fill="#ffbe9d"/>
        <path id="Trazado_145754" data-name="Trazado 145754" d="M-4745.532-2624.995l-.779.218s-1.871,15.232-4.443,16.074l-7.125-27.362,9.074-2.534A17.452,17.452,0,0,0-4745.532-2624.995Z" transform="translate(4757.911 2852.832)" fill="#ff725e"/>
        <path id="Trazado_145755" data-name="Trazado 145755" d="M-4757.92-2635.485l2.214-.483,6.018,26.4s-.21,1.356-1.107,1.442Z" transform="translate(4757.92 2852.252)" fill="#263238"/>
        <path id="Trazado_145756" data-name="Trazado 145756" d="M-4675.417-2652.178a3.146,3.146,0,0,1-.242.655,7.945,7.945,0,0,1-1.115,1.66,25.891,25.891,0,0,1-5.737,4.568,26.515,26.515,0,0,1-4.6,2.159,51.013,51.013,0,0,1-5.605,1.559c-3.96,1-8.31,2.136-12.87,3.344l-23.387,6.166-7.078,1.84-1.933.468a4.039,4.039,0,0,1-.686.133,4.893,4.893,0,0,1,.663-.218l1.917-.53,7.063-1.933c5.971-1.622,14.211-3.9,23.34-6.283,4.56-1.208,8.91-2.339,12.886-3.321a52.005,52.005,0,0,0,5.574-1.559,27.029,27.029,0,0,0,10.329-6.509A8.781,8.781,0,0,0-4675.417-2652.178Z" transform="translate(4753.676 2855.825)" fill="#eb996e"/>
        <path id="Trazado_145757" data-name="Trazado 145757" d="M-4708.057-2780.818l.53,4.576s-8.052,15.209-8.052,23.386-3.711,73.129-3.711,73.129,43.655,2.487,48.262-1.777l4.615-4.256,15.591-4.256-24.361-88.869v-4.763Z" transform="translate(4749.404 2884.808)" fill="#263238"/>
        <path id="Trazado_145758" data-name="Trazado 145758" d="M-4666.577-2751.778a.657.657,0,0,1,.047.187l.085.53c.07.5.164,1.185.289,2.05.257,1.816.615,4.389,1.06,7.546.9,6.369,2.261,15.147,4.015,24.805s3.563,18.358,4.95,24.642c.694,3.118,1.255,5.644,1.66,7.437l.444,2.027c.039.21.078.382.1.522a.6.6,0,0,1,0,.187.778.778,0,0,1-.062-.171l-.14-.522c-.132-.491-.3-1.162-.522-2-.444-1.746-1.061-4.272-1.785-7.414-1.458-6.236-3.313-14.967-5.075-24.634s-3.056-18.46-3.9-24.836c-.421-3.188-.733-5.776-.928-7.569-.094-.865-.164-1.559-.219-2.058a1.837,1.837,0,0,0-.047-.538A.592.592,0,0,1-4666.577-2751.778Z" transform="translate(4737.789 2877.782)" fill="#455a64"/>
        <path id="Trazado_145759" data-name="Trazado 145759" d="M-4706.79-2741.338a2.948,2.948,0,0,1,.188.515q.163.577.444,1.5c.39,1.349.936,3.212,1.606,5.5,1.38,4.638,3.375,11.015,5.808,17.984s4.864,13.206,6.681,17.688c.9,2.206,1.645,4.007,2.175,5.309l.585,1.442a4.521,4.521,0,0,1,.179.515,2.187,2.187,0,0,1-.257-.483l-.654-1.411c-.562-1.232-1.349-3.025-2.292-5.262-1.886-4.459-4.35-10.68-6.8-17.657s-4.389-13.385-5.7-18.046c-.655-2.339-1.162-4.225-1.489-5.542-.156-.624-.272-1.123-.366-1.513A3.19,3.19,0,0,1-4706.79-2741.338Z" transform="translate(4746.648 2875.481)" fill="#455a64"/>
        <path id="Trazado_145760" data-name="Trazado 145760" d="M-4670.241-2774.834a7.349,7.349,0,0,1-1.31.156c-.841.086-2.065.172-3.585.265-3.025.179-7.219.343-11.842.366s-8.825-.117-11.857-.273c-1.512-.078-2.736-.156-3.585-.226a7.323,7.323,0,0,1-1.31-.156,10.313,10.313,0,0,1,1.317,0l3.593.1c3.025.086,7.211.172,11.834.156s8.809-.14,11.841-.25l3.586-.133A8.156,8.156,0,0,1-4670.241-2774.834Z" transform="translate(4745.974 2882.87)" fill="#455a64"/>
        <path id="Trazado_145761" data-name="Trazado 145761" d="M-4697-2851.192c-.21-.491,15.482,12.021,17.455,18.117s2.338,23.683,2.338,23.683l1.1,11.288-31.361,2.214-.842-2.214-2.338-6.291-3.2-9.5s-7.726-12-9.261-17.15c-1.9-6.416,1.255-12.987,1.255-12.987l7.086-7.982Z" transform="translate(4750.381 2899.881)" fill="#8a7cbf"/>
        <path id="Trazado_145762" data-name="Trazado 145762" d="M-4712.518-2852.746s-1.739-3.219-.67-4.63c.857-1.115,15.941.289,19.021.936,1.808.39,0,4.42,0,4.42Z" transform="translate(4748.135 2901.154)" fill="#8a7cbf"/>
        <g id="Grupo_88549" data-name="Grupo 88549" transform="translate(37.003 63.609)" opacity="0.3">
          <path id="Trazado_145763" data-name="Trazado 145763" d="M-4702.8-2831.818c1.317,3.407-.545,13.97-.827,16.48a43.016,43.016,0,0,1-1.73,7.382c-.343,1.13-.67,2.424,0,3.415,1.029,1.559,3.68,1.138,4.966,2.541a12.349,12.349,0,0,1-7.718.889,2.1,2.1,0,0,1-1.224-.584,2.223,2.223,0,0,1-.374-.99,29.34,29.34,0,0,1-.367-11.241c.678-3.7,4.217-12.59,7.2-14.929" transform="translate(4710.453 2831.818)"/>
        </g>
        <path id="Trazado_145764" data-name="Trazado 145764" d="M-4701.062-2825.828a10.3,10.3,0,0,1-1.512,3.617,9.811,9.811,0,0,1-2.487,3.024c-.085-.078,1.045-1.4,2.144-3.235S-4701.179-2825.875-4701.062-2825.828Z" transform="translate(4746.268 2894.107)" fill="#263238"/>
        <path id="Trazado_145765" data-name="Trazado 145765" d="M-4693.95-2851.146a2.325,2.325,0,0,1-.717.2c-.468.1-1.146.218-2,.335a37.034,37.034,0,0,1-13.244-.639c-.834-.195-1.5-.382-1.949-.53a2.4,2.4,0,0,1-.693-.273c0-.062,1.036.2,2.705.522a47.084,47.084,0,0,0,6.563.78,48.1,48.1,0,0,0,6.618-.148C-4695-2851.045-4693.966-2851.209-4693.95-2851.146Z" transform="translate(4747.918 2899.89)" fill="#263238"/>
        <path id="Trazado_145766" data-name="Trazado 145766" d="M-4675.278-2816.229c-.07,0,.2-.865.413-2.26a16.918,16.918,0,0,0-1.887-10.641c-.678-1.24-1.224-1.933-1.169-1.98s.179.148.437.452a10.551,10.551,0,0,1,.982,1.388,15.393,15.393,0,0,1,1.926,10.836,10.884,10.884,0,0,1-.452,1.637A1.892,1.892,0,0,1-4675.278-2816.229Z" transform="translate(4740.285 2895.273)" fill="#263238"/>
        <g id="Grupo_88550" data-name="Grupo 88550" transform="translate(36.452 48.174)" opacity="0.3">
          <path id="Trazado_145767" data-name="Trazado 145767" d="M-4703.365-2850.511a54.333,54.333,0,0,1-7.8-1.107,20.68,20.68,0,0,0,11.99,2.409,6.33,6.33,0,0,0,4.1-1.762C-4697.37-2850.074-4700.9-2850.293-4703.365-2850.511Z" transform="translate(4711.16 2851.618)"/>
        </g>
        <g id="Grupo_88551" data-name="Grupo 88551" transform="translate(61.927 71.428)" opacity="0.3">
          <path id="Trazado_145768" data-name="Trazado 145768" d="M-4678.48-2810.586a13.769,13.769,0,0,0,3.656-11.2,15.611,15.611,0,0,1,.585,4.069,6.88,6.88,0,0,1-1.1,4.506c-.958,1.318-1.512,2.113-3.118,2.627" transform="translate(4678.48 2821.788)"/>
        </g>
        <path id="Trazado_145769" data-name="Trazado 145769" d="M-4711.08-2841.135a7.8,7.8,0,0,0-10.99.873c-.048.057-.1.114-.142.171-.109.141-.218.3-.32.445-1.629,2.44-6.119,40.443-4.327,45s4.389,4.233,4.389,4.233,11.756-.132,20.213-2.089,17.883-5.153,17.883-5.153l-1.559-9.207s-20.7,2.744-26.4,2.1h0l2.175-18.507s4.95-6.026,3.532-11.553A13.008,13.008,0,0,0-4711.08-2841.135Z" transform="translate(4751.164 2897.892)" fill="#ffbe9d"/>
        <path id="Trazado_145770" data-name="Trazado 145770" d="M-4665.87-2805.578l4.677-3.118,3.344-2.822a3.784,3.784,0,0,1-.631,2.97c-1.037,1.559-2.783,3.9-2.783,3.9Z" transform="translate(4737.627 2890.952)" fill="#ffbe9d"/>
        <path id="Trazado_145771" data-name="Trazado 145771" d="M-4659.844-2807.557c-.039,0,.265-.359.592-1.029a4.535,4.535,0,0,0,.3-2.978l.28.078-3.328,2.845h0l-.25.164-2.931,1.957a27.592,27.592,0,0,1-2.448,1.512,17.046,17.046,0,0,1-2.338,1.216,16.828,16.828,0,0,1,2.206-1.465c.709-.413,1.5-.967,2.394-1.559l2.908-1.972.249-.171h0l3.36-2.8.226-.179.055.265a4.518,4.518,0,0,1-.452,3.173,3.985,3.985,0,0,1-.53.725C-4659.742-2807.619-4659.828-2807.541-4659.844-2807.557Z" transform="translate(4738.531 2891.045)" fill="#eb996e"/>
        <path id="Trazado_145772" data-name="Trazado 145772" d="M-4668.03-2798.85c.156-.312,12.379-13.93,15.4-17.291a1.3,1.3,0,0,1,1.559-.288h0a1.3,1.3,0,0,1,.585,1.746,1.282,1.282,0,0,1-.2.289l-15.653,17.407Z" transform="translate(4738.104 2892.067)" fill="#263238"/>
        <path id="Trazado_145773" data-name="Trazado 145773" d="M-4656.99-2802.156c.507-.678-.242-2.011-.936-2.378s-3.461,1.162-3.461,1.162l-1,.094s-5.371-1.091-5.55-1a17.079,17.079,0,0,0-3.9,2.339,7.6,7.6,0,0,0-1.388,1.692,5.808,5.808,0,0,1-3.75,2.222l2.276,9.253s5-1.177,5.371-1.185,4.561-.335,5.114-.429a13.861,13.861,0,0,0,4.677-2.159c1.793-1.333.959-2.463.959-2.463,1.848-1.255.405-2.5.405-2.5l.522-.888a1.593,1.593,0,0,0-.78-2.191A13.421,13.421,0,0,0-4656.99-2802.156Z" transform="translate(4740.074 2889.425)" fill="#ffbe9d"/>
        <path id="Trazado_145774" data-name="Trazado 145774" d="M-4656.1-2798.217a6.311,6.311,0,0,1,1.216-.78,5.95,5.95,0,0,1,1.247-.733c.078.047-.335.616-1.052,1.052S-4656.069-2798.115-4656.1-2798.217Z" transform="translate(4735.474 2888.354)" fill="#eb996e"/>
        <path id="Trazado_145775" data-name="Trazado 145775" d="M-4654.093-2794.818c-.062-.086.125-.351.429-.593s.6-.382.663-.3-.125.343-.429.593S-4654.023-2794.74-4654.093-2794.818Z" transform="translate(4735.034 2887.473)" fill="#eb996e"/>
        <path id="Trazado_145776" data-name="Trazado 145776" d="M-4654.79-2792.087c0-.109.3-.218.663-.359s.67-.257.733-.179-.179.366-.6.53S-4654.79-2791.986-4654.79-2792.087Z" transform="translate(4735.185 2886.793)" fill="#eb996e"/>
        <path id="Trazado_145777" data-name="Trazado 145777" d="M-4658.583-2803.049a10.292,10.292,0,0,1-2.822.4,19.046,19.046,0,0,1-2.845.156,7.151,7.151,0,0,1,2.814-.561A9.864,9.864,0,0,1-4658.583-2803.049Z" transform="translate(4737.27 2889.109)" fill="#eb996e"/>
        <path id="Trazado_145778" data-name="Trazado 145778" d="M-4709.021-2794.178a13.755,13.755,0,0,1-2.074,2.666,13.791,13.791,0,0,1-2.385,2.4,14.934,14.934,0,0,1,2.082-2.666A14.592,14.592,0,0,1-4709.021-2794.178Z" transform="translate(4748.123 2887.13)" fill="#eb996e"/>
        <path id="Trazado_145779" data-name="Trazado 145779" d="M-4705.757-2830.111s.054-.413.125-1.154a10.222,10.222,0,0,0-.148-3.118,11.48,11.48,0,0,0-6.322-7.678,7.441,7.441,0,0,0-5.457-.351,6.123,6.123,0,0,0-3.562,2.721,10.167,10.167,0,0,0-1.115,2.923,9.851,9.851,0,0,1-.272,1.13v-.3a5.241,5.241,0,0,1,.117-.857,9.466,9.466,0,0,1,.936-3.032,5.955,5.955,0,0,1,1.435-1.723,7.137,7.137,0,0,1,2.26-1.216,7.743,7.743,0,0,1,5.769.343,11.493,11.493,0,0,1,6.494,7.951,9.128,9.128,0,0,1,0,3.2,6.738,6.738,0,0,1-.187.857A.9.9,0,0,1-4705.757-2830.111Z" transform="translate(4750.114 2897.93)" fill="#263238"/>
      </g>
      <g id="freepik--speech-bubble--inject-2" transform="translate(-4690.296 -2895.606)">
        <path id="Trazado_145780" data-name="Trazado 145780" d="M-4636.55-2873.678h-31.961a2.385,2.385,0,0,0-2.338,2.339v30.979a2.385,2.385,0,0,0,2.338,2.378h11.771l4.592,6.509,3.991-6.509h11.607a2.339,2.339,0,0,0,2.378-2.3V-2871.3a2.34,2.34,0,0,0-2.3-2.377Z" transform="translate(4671.102 2873.885)" fill="#fafafa"/>
        <path id="Trazado_145781" data-name="Trazado 145781" d="M-4636.621-2873.737a2.005,2.005,0,0,1,.943.156,2.57,2.57,0,0,1,.943.694,2.44,2.44,0,0,1,.554,1.5c0,2.424,0,5.94.055,10.352s0,9.776.047,15.833v4.677a2.581,2.581,0,0,1-1.1,2.23,2.529,2.529,0,0,1-1.248.444h-11.8l.164-.094-3.984,6.517-.156.257-.172-.241-4.607-6.517.171.086h-12.083a2.562,2.562,0,0,1-1.73-.99,2.767,2.767,0,0,1-.538-1.879v-30.8a2.541,2.541,0,0,1,1.879-2.339,6.22,6.22,0,0,1,1.5-.086h9.479l15.84.063h5.426a3.435,3.435,0,0,1,.382,0h-5.808l-15.84.07h-9.44a6.421,6.421,0,0,0-1.411.086,2.19,2.19,0,0,0-1.622,2.027v30.8a2.389,2.389,0,0,0,.452,1.637,2.181,2.181,0,0,0,1.458.826c1.208.039,2.518,0,3.781,0h8.357l.063.086,4.591,6.517h-.327l3.991-6.509.054-.094h.109l10.609.281h1.24a2.26,2.26,0,0,0,1.068-.382,2.221,2.221,0,0,0,.959-1.941v-4.677c0-6.057,0-11.4.047-15.833s0-7.92.055-10.352a2.34,2.34,0,0,0-1.4-2.136A3.137,3.137,0,0,0-4636.621-2873.737Z" transform="translate(4671.172 2873.944)" fill="#263238"/>
        <path id="Trazado_145782" data-name="Trazado 145782" d="M-4644.808-2847.717h-11.046v-.062c-.062-.414-.125-.85-.187-1.294-.522-3.781-.99-7.156-1.294-9.355l.047.047h.031c.319,2.206.779,5.582,1.349,9.354.063.437.125.881.179,1.294l-.07-.07h10.766A1.246,1.246,0,0,1-4644.808-2847.717Z" transform="translate(4668.733 2870.524)" fill="#263238"/>
        <path id="Trazado_145783" data-name="Trazado 145783" d="M-4655.909-2847.506a.131.131,0,0,1-.117-.117l-1.466-10.563h-2.471c-.218,0-.319,0-.327-.148s.109-.156.327-.164h2.674a.142.142,0,0,1,.141.125l1.512,10.508,10.571.047c.257,0,.351,0,.358.148h0c0,.14-.1.148-.358.156h-10.828Z" transform="translate(4668.773 2870.539)" fill="#263238"/>
        <path id="Trazado_145784" data-name="Trazado 145784" d="M-4654.97-2849.464h3.181l8.092-.039-.07.062c.242-1.364.5-2.837.779-4.365.141-.779.273-1.559.406-2.292l.07.086h-9.542l9.542-.039h.086v.086c-.125.779-.265,1.5-.4,2.292-.273,1.559-.53,3-.78,4.366v.054h-11.334Z" transform="translate(4667.601 2870.01)" fill="#263238"/>
        <path id="Trazado_145785" data-name="Trazado 145785" d="M-4655.275-2849.354a.148.148,0,0,1-.148-.148h0c0-.133.14-.14.187-.148h3.118l7.92-.039,1.091-6.237-13.073-.047c-.07,0-.21,0-.21-.148s.14-.14.2-.148h13.424a.137.137,0,0,1,.109.055.15.15,0,0,1,0,.109l-1.193,6.8a.14.14,0,0,1-.14.117l-11.3-.047Z" transform="translate(4667.914 2870.047)" fill="#263238"/>
        <path id="Trazado_145786" data-name="Trazado 145786" d="M-4651.7-2841.194a2.006,2.006,0,0,1-.062-.257,1.159,1.159,0,0,0-.405-.569,1.046,1.046,0,0,0-1.46.229,1.041,1.041,0,0,0-.2.606,1.037,1.037,0,0,0,1.038,1.035,1.037,1.037,0,0,0,.623-.209,1.126,1.126,0,0,0,.405-.569c.047-.164.047-.265.063-.265a.82.82,0,0,1,0,.281,1.108,1.108,0,0,1-.4.639,1.193,1.193,0,0,1-1.68-.154,1.192,1.192,0,0,1,.154-1.68,1.192,1.192,0,0,1,1.679.155,1.2,1.2,0,0,1,.244.486A.733.733,0,0,1-4651.7-2841.194Z" transform="translate(4667.398 2866.987)" fill="#263238"/>
        <path id="Trazado_145787" data-name="Trazado 145787" d="M-4653.007-2839.931a1,1,0,0,1-.25-.062,1.307,1.307,0,0,1-.873-1.224,1.324,1.324,0,0,1,.873-1.232,1.285,1.285,0,0,1,1.224.2,1.31,1.31,0,0,1,.453.725.973.973,0,0,1,0,.3,1.023,1.023,0,0,1,0,.3,1.263,1.263,0,0,1-1.427.99Zm.335-2.175a.9.9,0,0,0-.445.055.881.881,0,0,0-.577.834.888.888,0,0,0,.577.834.927.927,0,0,0,.85-.117.988.988,0,0,0,.351-.5.312.312,0,0,1,.047-.187v-.07l-.047-.187a.927.927,0,0,0-.351-.491.88.88,0,0,0-.4-.195Z" transform="translate(4667.416 2867.017)" fill="#263238"/>
        <path id="Trazado_145788" data-name="Trazado 145788" d="M-4642.616-2841.2a.736.736,0,0,0-.07-.257,1.048,1.048,0,0,0-.4-.569,1.038,1.038,0,0,0-1.453.205,1.035,1.035,0,0,0-.208.621,1.044,1.044,0,0,0,1.054,1.035,1.046,1.046,0,0,0,.606-.2,1.129,1.129,0,0,0,.405-.569c.047-.164.047-.265.062-.265a.8.8,0,0,1,0,.273,1.066,1.066,0,0,1-.4.639,1.139,1.139,0,0,1-1.091.187,1.159,1.159,0,0,1-.732-1.47,1.161,1.161,0,0,1,1.471-.732,1.171,1.171,0,0,1,.353.191,1.137,1.137,0,0,1,.4.639A.651.651,0,0,1-4642.616-2841.2Z" transform="translate(4665.38 2866.981)" fill="#263238"/>
        <path id="Trazado_145789" data-name="Trazado 145789" d="M-4643.946-2839.941a1.587,1.587,0,0,1-.25-.062,1.3,1.3,0,0,1-.795-1.66,1.3,1.3,0,0,1,.795-.8,1.272,1.272,0,0,1,1.224.2,1.224,1.224,0,0,1,.444.717.8.8,0,0,1,0,.3.991.991,0,0,1,0,.3,1.278,1.278,0,0,1-1.427.99Zm.366-2.19a1,1,0,0,0-.444.047.9.9,0,0,0-.524,1.155.9.9,0,0,0,1.155.523.875.875,0,0,0,.219-.119.933.933,0,0,0,.351-.5c.019-.061.034-.123.047-.187v-.062a.339.339,0,0,0-.047-.187.935.935,0,0,0-.351-.5A.979.979,0,0,0-4643.58-2842.132Z" transform="translate(4665.417 2867.02)" fill="#263238"/>
        <path id="Trazado_145790" data-name="Trazado 145790" d="M-4635.911-2855.729a3.68,3.68,0,0,1-3.679,3.679,3.679,3.679,0,0,1-3.68-3.679,3.68,3.68,0,0,1,3.68-3.679A3.688,3.688,0,0,1-4635.911-2855.729Z" transform="translate(4665.021 2870.74)" fill="#05dbf2"/>
        <path id="Trazado_145791" data-name="Trazado 145791" d="M-4641.25-2855.044l.546-.553,1.068.943,2.082-2,.514.546-2.673,2.518Z" transform="translate(4664.576 2870.133)" fill="#fff"/>
      </g>
    </g>
    <rect id="Rectángulo_34320" data-name="Rectángulo 34320" width="40" height="8" transform="translate(704 7304.997) rotate(-90)" fill="#ef6c00"/>
    <rect id="Rectángulo_34322" data-name="Rectángulo 34322" width="115" height="31" transform="translate(757 7338.997)" fill="#0f0140"/>
    <rect id="Rectángulo_34323" data-name="Rectángulo 34323" width="207" height="31" transform="translate(980 7411.997)" fill="#0f0140"/>
    <rect id="Rectángulo_34324" data-name="Rectángulo 34324" width="94" height="31" transform="translate(1185 7339.997)" fill="#0f0140"/>
    <path id="Trazado_149110" data-name="Trazado 149110" d="M1.016,15V3.625h3.5A5.315,5.315,0,0,1,7.2,4.3,4.712,4.712,0,0,1,9.047,6.223a5.928,5.928,0,0,1,.664,2.832v.523a5.945,5.945,0,0,1-.652,2.82,4.672,4.672,0,0,1-1.84,1.914A5.355,5.355,0,0,1,4.539,15ZM3.359,5.523v7.594H4.492a2.545,2.545,0,0,0,2.1-.9,4.06,4.06,0,0,0,.742-2.57v-.6a4.124,4.124,0,0,0-.719-2.629,2.537,2.537,0,0,0-2.1-.895Zm11.8,9.633a4.15,4.15,0,0,1-3.027-1.141,4.054,4.054,0,0,1-1.168-3.039v-.219a5.106,5.106,0,0,1,.492-2.277,3.612,3.612,0,0,1,1.395-1.547,3.914,3.914,0,0,1,2.059-.543,3.508,3.508,0,0,1,2.73,1.094,4.444,4.444,0,0,1,1,3.1v.922H13.25a2.1,2.1,0,0,0,.66,1.328,2,2,0,0,0,1.395.5,2.437,2.437,0,0,0,2.039-.945l1.109,1.242a3.389,3.389,0,0,1-1.375,1.121A4.511,4.511,0,0,1,15.156,15.156ZM14.9,8.211a1.411,1.411,0,0,0-1.09.455,2.357,2.357,0,0,0-.535,1.3h3.141V9.788a1.681,1.681,0,0,0-.406-1.165A1.456,1.456,0,0,0,14.9,8.211Zm7.133-1.664.07.945a2.971,2.971,0,0,1,2.43-1.1A2.255,2.255,0,0,1,26.773,7.68a2.9,2.9,0,0,1,2.539-1.289,2.521,2.521,0,0,1,2.047.8,3.681,3.681,0,0,1,.672,2.41V15H29.766V9.6a1.616,1.616,0,0,0-.281-1.053,1.245,1.245,0,0,0-.992-.333,1.409,1.409,0,0,0-1.406.971L27.094,15H24.836V9.6a1.6,1.6,0,0,0-.289-1.065,1.257,1.257,0,0,0-.984-.329,1.463,1.463,0,0,0-1.391.8V15H19.914V6.547ZM38.664,15a2.507,2.507,0,0,1-.227-.758,2.732,2.732,0,0,1-2.133.914,3,3,0,0,1-2.059-.719,2.312,2.312,0,0,1-.816-1.812,2.389,2.389,0,0,1,1-2.062A4.915,4.915,0,0,1,37.3,9.836h1.039V9.352a1.393,1.393,0,0,0-.3-.937,1.183,1.183,0,0,0-.949-.352,1.345,1.345,0,0,0-.895.273.929.929,0,0,0-.324.75H33.617a2.268,2.268,0,0,1,.453-1.359,3,3,0,0,1,1.281-.98,4.669,4.669,0,0,1,1.859-.355,3.689,3.689,0,0,1,2.48.785,2.747,2.747,0,0,1,.918,2.207v3.664a4.041,4.041,0,0,0,.336,1.82V15ZM36.8,13.43a1.945,1.945,0,0,0,.922-.223,1.462,1.462,0,0,0,.625-.6V11.156H37.5q-1.7,0-1.8,1.172l-.008.133a.9.9,0,0,0,.3.7A1.153,1.153,0,0,0,36.8,13.43Zm7.625-6.883.07.977a2.951,2.951,0,0,1,2.43-1.133,2.453,2.453,0,0,1,2,.789,3.682,3.682,0,0,1,.672,2.359V15H47.336V9.581a1.47,1.47,0,0,0-.312-1.045,1.4,1.4,0,0,0-1.039-.325,1.553,1.553,0,0,0-1.43.814V15H42.3V6.547Zm6.531,4.164a5.094,5.094,0,0,1,.887-3.148,2.877,2.877,0,0,1,2.426-1.172,2.589,2.589,0,0,1,2.039.922V3H58.57V15H56.531l-.109-.9a2.657,2.657,0,0,1-2.172,1.055,2.869,2.869,0,0,1-2.395-1.176A5.258,5.258,0,0,1,50.953,10.711Zm2.258.161a3.355,3.355,0,0,0,.414,1.829,1.348,1.348,0,0,0,1.2.636,1.51,1.51,0,0,0,1.477-.887V9.1a1.489,1.489,0,0,0-1.461-.887Q53.211,8.211,53.211,10.872ZM65.219,15a2.507,2.507,0,0,1-.227-.758,2.732,2.732,0,0,1-2.133.914,3,3,0,0,1-2.059-.719,2.312,2.312,0,0,1-.816-1.812,2.389,2.389,0,0,1,1-2.062,4.915,4.915,0,0,1,2.879-.727H64.9V9.352a1.393,1.393,0,0,0-.3-.937,1.183,1.183,0,0,0-.949-.352,1.345,1.345,0,0,0-.895.273.929.929,0,0,0-.324.75H60.172a2.268,2.268,0,0,1,.453-1.359,3,3,0,0,1,1.281-.98,4.669,4.669,0,0,1,1.859-.355,3.689,3.689,0,0,1,2.48.785,2.747,2.747,0,0,1,.918,2.207v3.664a4.041,4.041,0,0,0,.336,1.82V15Zm-1.867-1.57a1.945,1.945,0,0,0,.922-.223,1.462,1.462,0,0,0,.625-.6V11.156h-.844q-1.7,0-1.8,1.172l-.008.133a.9.9,0,0,0,.3.7A1.153,1.153,0,0,0,63.352,13.43Zm7.625-6.883.07.977a2.951,2.951,0,0,1,2.43-1.133,2.453,2.453,0,0,1,2,.789,3.682,3.682,0,0,1,.672,2.359V15H73.891V9.581a1.47,1.47,0,0,0-.312-1.045,1.4,1.4,0,0,0-1.039-.325,1.553,1.553,0,0,0-1.43.814V15H68.852V6.547Zm9.586-2.078V6.547h1.445V8.2H80.563v4.219a1.007,1.007,0,0,0,.18.672.9.9,0,0,0,.688.2,3.6,3.6,0,0,0,.664-.055v1.711a4.648,4.648,0,0,1-1.367.2,2.156,2.156,0,0,1-2.422-2.4V8.2H77.07V6.547H78.3V4.469Zm6.594,10.688a4.15,4.15,0,0,1-3.027-1.141,4.054,4.054,0,0,1-1.168-3.039v-.219a5.106,5.106,0,0,1,.492-2.277,3.612,3.612,0,0,1,1.395-1.547,3.914,3.914,0,0,1,2.059-.543,3.508,3.508,0,0,1,2.73,1.094,4.444,4.444,0,0,1,1,3.1v.922H85.25a2.1,2.1,0,0,0,.66,1.328,2,2,0,0,0,1.395.5,2.437,2.437,0,0,0,2.039-.945l1.109,1.242a3.389,3.389,0,0,1-1.375,1.121A4.511,4.511,0,0,1,87.156,15.156ZM86.9,8.211a1.411,1.411,0,0,0-1.09.455,2.357,2.357,0,0,0-.535,1.3h3.141V9.788a1.681,1.681,0,0,0-.406-1.165A1.456,1.456,0,0,0,86.9,8.211Z" transform="translate(768.5 7341.997)" fill="#fff"/>
    <path id="Trazado_149111" data-name="Trazado 149111" d="M5.227,10.836H3.359V15H1.016V3.625H5.242a4.778,4.778,0,0,1,3.109.9A3.1,3.1,0,0,1,9.445,7.063,3.5,3.5,0,0,1,8.941,9a3.437,3.437,0,0,1-1.527,1.238l2.461,4.648V15H7.359Zm-1.867-1.9H5.25a1.936,1.936,0,0,0,1.367-.449A1.606,1.606,0,0,0,7.1,7.25a1.719,1.719,0,0,0-.457-1.266,1.9,1.9,0,0,0-1.4-.461H3.359Zm11.609,6.219a4.15,4.15,0,0,1-3.027-1.141,4.054,4.054,0,0,1-1.168-3.039v-.219a5.106,5.106,0,0,1,.492-2.277A3.612,3.612,0,0,1,12.66,6.934a3.914,3.914,0,0,1,2.059-.543,3.508,3.508,0,0,1,2.73,1.094,4.444,4.444,0,0,1,1,3.1v.922H13.063a2.1,2.1,0,0,0,.66,1.328,2,2,0,0,0,1.395.5,2.437,2.437,0,0,0,2.039-.945l1.109,1.242a3.389,3.389,0,0,1-1.375,1.121A4.511,4.511,0,0,1,14.969,15.156Zm-.258-6.945a1.411,1.411,0,0,0-1.09.455,2.357,2.357,0,0,0-.535,1.3h3.141V9.788a1.681,1.681,0,0,0-.406-1.165A1.456,1.456,0,0,0,14.711,8.211ZM22.109,15H19.844V3h2.266Zm6.758,0a2.507,2.507,0,0,1-.227-.758,2.732,2.732,0,0,1-2.133.914,3,3,0,0,1-2.059-.719,2.312,2.312,0,0,1-.816-1.812,2.389,2.389,0,0,1,1-2.062,4.915,4.915,0,0,1,2.879-.727h1.039V9.352a1.393,1.393,0,0,0-.3-.937,1.183,1.183,0,0,0-.949-.352,1.345,1.345,0,0,0-.895.273.929.929,0,0,0-.324.75H23.82a2.268,2.268,0,0,1,.453-1.359,3,3,0,0,1,1.281-.98,4.669,4.669,0,0,1,1.859-.355,3.689,3.689,0,0,1,2.48.785,2.747,2.747,0,0,1,.918,2.207v3.664a4.041,4.041,0,0,0,.336,1.82V15ZM27,13.43a1.945,1.945,0,0,0,.922-.223,1.462,1.462,0,0,0,.625-.6V11.156H27.7q-1.7,0-1.8,1.172l-.008.133a.9.9,0,0,0,.3.7A1.153,1.153,0,0,0,27,13.43Zm9.063-.094a1.481,1.481,0,0,0,1.016-.344,1.2,1.2,0,0,0,.406-.914H39.6a2.9,2.9,0,0,1-.469,1.574,3.093,3.093,0,0,1-1.262,1.109,3.949,3.949,0,0,1-1.77.395A3.67,3.67,0,0,1,33.242,14,4.56,4.56,0,0,1,32.2,10.82v-.148a4.508,4.508,0,0,1,1.039-3.117,3.627,3.627,0,0,1,2.852-1.164,3.555,3.555,0,0,1,2.543.9A3.2,3.2,0,0,1,39.6,9.7H37.484a1.551,1.551,0,0,0-.406-1.072,1.51,1.51,0,0,0-2.223.163,3.333,3.333,0,0,0-.4,1.866v.235a3.375,3.375,0,0,0,.4,1.878A1.377,1.377,0,0,0,36.063,13.336ZM43.273,15H41.008V6.547h2.266Zm-2.4-10.641a1.112,1.112,0,0,1,.34-.836,1.465,1.465,0,0,1,1.848,0,1.105,1.105,0,0,1,.344.836,1.108,1.108,0,0,1-.348.844,1.448,1.448,0,0,1-1.836,0A1.108,1.108,0,0,1,40.875,4.359ZM44.781,10.7a5.013,5.013,0,0,1,.484-2.242A3.546,3.546,0,0,1,46.66,6.93a4.069,4.069,0,0,1,2.113-.539,3.849,3.849,0,0,1,2.793,1.047,4.2,4.2,0,0,1,1.207,2.844l.016.578A4.418,4.418,0,0,1,51.7,13.98a4.209,4.209,0,0,1-5.832,0,4.5,4.5,0,0,1-1.09-3.187Zm2.258.16a3.16,3.16,0,0,0,.453,1.843,1.628,1.628,0,0,0,2.578.008,3.457,3.457,0,0,0,.461-2.015A3.128,3.128,0,0,0,50.07,8.86a1.5,1.5,0,0,0-1.3-.649,1.474,1.474,0,0,0-1.281.646A3.516,3.516,0,0,0,47.039,10.856ZM49.219,3H51.68L49.516,5.422H47.68Zm7.039,3.547.07.977a2.951,2.951,0,0,1,2.43-1.133,2.453,2.453,0,0,1,2,.789,3.682,3.682,0,0,1,.672,2.359V15H59.172V9.581a1.47,1.47,0,0,0-.312-1.045,1.4,1.4,0,0,0-1.039-.325,1.553,1.553,0,0,0-1.43.814V15H54.133V6.547ZM66.773,10.7a5.013,5.013,0,0,1,.484-2.242A3.546,3.546,0,0,1,68.652,6.93a4.069,4.069,0,0,1,2.113-.539,3.849,3.849,0,0,1,2.793,1.047,4.2,4.2,0,0,1,1.207,2.844l.016.578A4.418,4.418,0,0,1,73.7,13.98a4.209,4.209,0,0,1-5.832,0,4.5,4.5,0,0,1-1.09-3.187Zm2.258.16a3.16,3.16,0,0,0,.453,1.843,1.628,1.628,0,0,0,2.578.008,3.457,3.457,0,0,0,.461-2.015,3.128,3.128,0,0,0-.461-1.831,1.5,1.5,0,0,0-1.3-.649,1.474,1.474,0,0,0-1.281.646A3.516,3.516,0,0,0,69.031,10.856ZM76.789,15V8.2H75.531V6.547h1.258V5.828a2.918,2.918,0,0,1,.816-2.207,3.162,3.162,0,0,1,2.285-.785,5.321,5.321,0,0,1,1.148.155l-.023,1.736a2.878,2.878,0,0,0-.687-.07q-1.273,0-1.273,1.205v.685h1.68V8.2h-1.68V15Zm8.82.156a4.15,4.15,0,0,1-3.027-1.141,4.054,4.054,0,0,1-1.168-3.039v-.219a5.106,5.106,0,0,1,.492-2.277A3.612,3.612,0,0,1,83.3,6.934a3.914,3.914,0,0,1,2.059-.543,3.508,3.508,0,0,1,2.73,1.094,4.444,4.444,0,0,1,1,3.1v.922H83.7a2.1,2.1,0,0,0,.66,1.328,2,2,0,0,0,1.395.5,2.437,2.437,0,0,0,2.039-.945l1.109,1.242a3.389,3.389,0,0,1-1.375,1.121A4.511,4.511,0,0,1,85.609,15.156Zm-.258-6.945a1.411,1.411,0,0,0-1.09.455,2.357,2.357,0,0,0-.535,1.3h3.141V9.788a1.681,1.681,0,0,0-.406-1.165A1.456,1.456,0,0,0,85.352,8.211Zm9.766.453A6.134,6.134,0,0,0,94.3,8.6a1.654,1.654,0,0,0-1.68.867V15H90.367V6.547H92.5l.063,1.008a2.092,2.092,0,0,1,1.883-1.164,2.366,2.366,0,0,1,.7.1Zm4.18-4.2V6.547h1.445V8.2H99.3v4.219a1.007,1.007,0,0,0,.18.672.9.9,0,0,0,.688.2,3.6,3.6,0,0,0,.664-.055v1.711a4.648,4.648,0,0,1-1.367.2,2.156,2.156,0,0,1-2.422-2.4V8.2H95.8V6.547h1.234V4.469ZM106.9,15a2.507,2.507,0,0,1-.227-.758,2.732,2.732,0,0,1-2.133.914,3,3,0,0,1-2.059-.719,2.312,2.312,0,0,1-.816-1.812,2.389,2.389,0,0,1,1-2.062,4.915,4.915,0,0,1,2.879-.727h1.039V9.352a1.393,1.393,0,0,0-.3-.937,1.183,1.183,0,0,0-.949-.352,1.345,1.345,0,0,0-.895.273.929.929,0,0,0-.324.75h-2.258a2.268,2.268,0,0,1,.453-1.359,3,3,0,0,1,1.281-.98,4.669,4.669,0,0,1,1.859-.355,3.689,3.689,0,0,1,2.48.785,2.747,2.747,0,0,1,.918,2.207v3.664a4.041,4.041,0,0,0,.336,1.82V15Zm-1.867-1.57a1.945,1.945,0,0,0,.922-.223,1.462,1.462,0,0,0,.625-.6V11.156h-.844q-1.7,0-1.8,1.172l-.008.133a.9.9,0,0,0,.3.7A1.153,1.153,0,0,0,105.031,13.43Zm9.938-2.391h-4.4V9.219h4.4Zm1.461-.328a5.094,5.094,0,0,1,.887-3.148,2.877,2.877,0,0,1,2.426-1.172,2.589,2.589,0,0,1,2.039.922V3h2.266V15h-2.039l-.109-.9a2.657,2.657,0,0,1-2.172,1.055,2.869,2.869,0,0,1-2.395-1.176A5.258,5.258,0,0,1,116.43,10.711Zm2.258.161A3.355,3.355,0,0,0,119.1,12.7a1.348,1.348,0,0,0,1.2.636,1.51,1.51,0,0,0,1.477-.887V9.1a1.489,1.489,0,0,0-1.461-.887Q118.688,8.211,118.688,10.872Zm11,4.285a4.15,4.15,0,0,1-3.027-1.141,4.054,4.054,0,0,1-1.168-3.039v-.219a5.106,5.106,0,0,1,.492-2.277,3.612,3.612,0,0,1,1.395-1.547,3.914,3.914,0,0,1,2.059-.543,3.508,3.508,0,0,1,2.73,1.094,4.444,4.444,0,0,1,1,3.1v.922h-5.383a2.1,2.1,0,0,0,.66,1.328,2,2,0,0,0,1.395.5,2.437,2.437,0,0,0,2.039-.945l1.109,1.242a3.389,3.389,0,0,1-1.375,1.121A4.511,4.511,0,0,1,129.688,15.156Zm-.258-6.945a1.411,1.411,0,0,0-1.09.455,2.357,2.357,0,0,0-.535,1.3h3.141V9.788a1.681,1.681,0,0,0-.406-1.165A1.456,1.456,0,0,0,129.43,8.211Zm7.133-1.664.07.945a2.971,2.971,0,0,1,2.43-1.1A2.255,2.255,0,0,1,141.3,7.68a2.9,2.9,0,0,1,2.539-1.289,2.521,2.521,0,0,1,2.047.8,3.681,3.681,0,0,1,.672,2.41V15H144.3V9.6a1.616,1.616,0,0,0-.281-1.053,1.245,1.245,0,0,0-.992-.333,1.409,1.409,0,0,0-1.406.971L141.625,15h-2.258V9.6a1.6,1.6,0,0,0-.289-1.065,1.257,1.257,0,0,0-.984-.329,1.463,1.463,0,0,0-1.391.8V15h-2.258V6.547ZM153.2,15a2.507,2.507,0,0,1-.227-.758,2.732,2.732,0,0,1-2.133.914,3,3,0,0,1-2.059-.719,2.312,2.312,0,0,1-.816-1.812,2.389,2.389,0,0,1,1-2.062,4.915,4.915,0,0,1,2.879-.727h1.039V9.352a1.393,1.393,0,0,0-.3-.937,1.183,1.183,0,0,0-.949-.352,1.345,1.345,0,0,0-.895.273.929.929,0,0,0-.324.75h-2.258a2.268,2.268,0,0,1,.453-1.359,3,3,0,0,1,1.281-.98,4.669,4.669,0,0,1,1.859-.355,3.689,3.689,0,0,1,2.48.785,2.747,2.747,0,0,1,.918,2.207v3.664a4.041,4.041,0,0,0,.336,1.82V15Zm-1.867-1.57a1.945,1.945,0,0,0,.922-.223,1.462,1.462,0,0,0,.625-.6V11.156h-.844q-1.7,0-1.8,1.172l-.008.133a.9.9,0,0,0,.3.7A1.153,1.153,0,0,0,151.328,13.43Zm7.625-6.883.07.977a2.951,2.951,0,0,1,2.43-1.133,2.453,2.453,0,0,1,2,.789,3.682,3.682,0,0,1,.672,2.359V15h-2.258V9.581a1.47,1.47,0,0,0-.312-1.045,1.4,1.4,0,0,0-1.039-.325,1.553,1.553,0,0,0-1.43.814V15h-2.258V6.547Zm6.531,4.164a5.094,5.094,0,0,1,.887-3.148A2.877,2.877,0,0,1,168.8,6.391a2.589,2.589,0,0,1,2.039.922V3H173.1V15h-2.039l-.109-.9a2.657,2.657,0,0,1-2.172,1.055,2.869,2.869,0,0,1-2.395-1.176A5.258,5.258,0,0,1,165.484,10.711Zm2.258.161a3.355,3.355,0,0,0,.414,1.829,1.348,1.348,0,0,0,1.2.636,1.51,1.51,0,0,0,1.477-.887V9.1a1.489,1.489,0,0,0-1.461-.887Q167.742,8.211,167.742,10.872ZM179.75,15a2.507,2.507,0,0,1-.227-.758,2.732,2.732,0,0,1-2.133.914,3,3,0,0,1-2.059-.719,2.312,2.312,0,0,1-.816-1.812,2.389,2.389,0,0,1,1-2.062,4.915,4.915,0,0,1,2.879-.727h1.039V9.352a1.393,1.393,0,0,0-.3-.937,1.183,1.183,0,0,0-.949-.352,1.345,1.345,0,0,0-.895.273.929.929,0,0,0-.324.75H174.7a2.268,2.268,0,0,1,.453-1.359,3,3,0,0,1,1.281-.98,4.669,4.669,0,0,1,1.859-.355,3.689,3.689,0,0,1,2.48.785,2.747,2.747,0,0,1,.918,2.207v3.664a4.041,4.041,0,0,0,.336,1.82V15Zm-1.867-1.57a1.945,1.945,0,0,0,.922-.223,1.462,1.462,0,0,0,.625-.6V11.156h-.844q-1.7,0-1.8,1.172l-.008.133a.9.9,0,0,0,.3.7A1.153,1.153,0,0,0,177.883,13.43Z" transform="translate(994.5 7415.997)" fill="#fff"/>
    <path id="Trazado_149112" data-name="Trazado 149112" d="M10.359,9.57a6.867,6.867,0,0,1-.594,2.945,4.472,4.472,0,0,1-1.7,1.953,4.7,4.7,0,0,1-2.535.688,4.732,4.732,0,0,1-2.523-.68,4.515,4.515,0,0,1-1.719-1.941,6.67,6.67,0,0,1-.617-2.9V9.07a6.831,6.831,0,0,1,.605-2.957A4.508,4.508,0,0,1,2.988,4.152a4.706,4.706,0,0,1,2.527-.684,4.706,4.706,0,0,1,2.527.684A4.508,4.508,0,0,1,9.754,6.113a6.811,6.811,0,0,1,.605,2.949ZM7.984,9.055a4.787,4.787,0,0,0-.641-2.719,2.088,2.088,0,0,0-1.828-.93,2.088,2.088,0,0,0-1.82.918,4.732,4.732,0,0,0-.648,2.691V9.57a4.847,4.847,0,0,0,.641,2.7,2.082,2.082,0,0,0,1.844.961,2.064,2.064,0,0,0,1.813-.926,4.819,4.819,0,0,0,.641-2.7ZM12.531,15V8.2H11.273V6.547h1.258V5.828a2.918,2.918,0,0,1,.816-2.207,3.162,3.162,0,0,1,2.285-.785,5.321,5.321,0,0,1,1.148.155l-.023,1.736a2.878,2.878,0,0,0-.687-.07q-1.273,0-1.273,1.205v.685h1.68V8.2H14.8V15Zm8.82.156a4.15,4.15,0,0,1-3.027-1.141,4.054,4.054,0,0,1-1.168-3.039v-.219a5.106,5.106,0,0,1,.492-2.277,3.612,3.612,0,0,1,1.395-1.547A3.914,3.914,0,0,1,21.1,6.391a3.508,3.508,0,0,1,2.73,1.094,4.444,4.444,0,0,1,1,3.1v.922H19.445a2.1,2.1,0,0,0,.66,1.328,2,2,0,0,0,1.395.5,2.437,2.437,0,0,0,2.039-.945l1.109,1.242a3.389,3.389,0,0,1-1.375,1.121A4.511,4.511,0,0,1,21.352,15.156Zm-.258-6.945A1.411,1.411,0,0,0,20,8.666a2.357,2.357,0,0,0-.535,1.3h3.141V9.788A1.681,1.681,0,0,0,22.2,8.623,1.456,1.456,0,0,0,21.094,8.211Zm9.766.453a6.134,6.134,0,0,0-.812-.062,1.654,1.654,0,0,0-1.68.867V15H26.109V6.547h2.133L28.3,7.555a2.092,2.092,0,0,1,1.883-1.164,2.366,2.366,0,0,1,.7.1Zm4.828,6.492a4.15,4.15,0,0,1-3.027-1.141,4.054,4.054,0,0,1-1.168-3.039v-.219a5.106,5.106,0,0,1,.492-2.277,3.612,3.612,0,0,1,1.395-1.547,3.914,3.914,0,0,1,2.059-.543,3.508,3.508,0,0,1,2.73,1.094,4.444,4.444,0,0,1,1,3.1v.922H33.781a2.1,2.1,0,0,0,.66,1.328,2,2,0,0,0,1.395.5,2.437,2.437,0,0,0,2.039-.945l1.109,1.242a3.389,3.389,0,0,1-1.375,1.121A4.511,4.511,0,0,1,35.688,15.156ZM35.43,8.211a1.411,1.411,0,0,0-1.09.455,2.357,2.357,0,0,0-.535,1.3h3.141V9.788a1.681,1.681,0,0,0-.406-1.165A1.456,1.456,0,0,0,35.43,8.211Zm7.094-1.664.07.977a2.951,2.951,0,0,1,2.43-1.133,2.453,2.453,0,0,1,2,.789A3.682,3.682,0,0,1,47.7,9.539V15H45.438V9.581a1.47,1.47,0,0,0-.312-1.045,1.4,1.4,0,0,0-1.039-.325,1.553,1.553,0,0,0-1.43.814V15H40.4V6.547Zm9.586-2.078V6.547h1.445V8.2H52.109v4.219a1.007,1.007,0,0,0,.18.672.9.9,0,0,0,.688.2,3.6,3.6,0,0,0,.664-.055v1.711a4.648,4.648,0,0,1-1.367.2,2.156,2.156,0,0,1-2.422-2.4V8.2H48.617V6.547h1.234V4.469ZM58.7,15.156a4.15,4.15,0,0,1-3.027-1.141,4.054,4.054,0,0,1-1.168-3.039v-.219A5.106,5.106,0,0,1,55,8.48a3.612,3.612,0,0,1,1.395-1.547,3.914,3.914,0,0,1,2.059-.543,3.508,3.508,0,0,1,2.73,1.094,4.444,4.444,0,0,1,1,3.1v.922H56.8a2.1,2.1,0,0,0,.66,1.328,2,2,0,0,0,1.395.5,2.437,2.437,0,0,0,2.039-.945L62,13.633a3.389,3.389,0,0,1-1.375,1.121A4.511,4.511,0,0,1,58.7,15.156Zm-.258-6.945a1.411,1.411,0,0,0-1.09.455,2.357,2.357,0,0,0-.535,1.3h3.141V9.788a1.681,1.681,0,0,0-.406-1.165A1.456,1.456,0,0,0,58.445,8.211Z" transform="translate(1197.5 7342.997)" fill="#fff"/>
  </g>
</svg>
