<svg xmlns="http://www.w3.org/2000/svg" width="42.379" height="51.877" viewBox="0 0 42.379 51.877">
  <g id="Grupo_88522" data-name="Grupo 88522" transform="translate(6544.73 1832.269)">
    <path id="Rectángulo_34299" data-name="Rectángulo 34299" d="M6.845,0H32.469a6.845,6.845,0,0,1,6.845,6.845V21.826a7.066,7.066,0,0,1-7.066,7.066H7.066A7.066,7.066,0,0,1,0,21.826V6.845A6.845,6.845,0,0,1,6.845,0Z" transform="translate(-6544.73 -1815.568)" fill="#ef6c00"/>
    <path id="Trazado_145469" data-name="Trazado 145469" d="M-6512.32-1831.794l10.737,11.019c.029.03.057.061.083.092a1.575,1.575,0,0,1-.113,2.134l-23.968,23.355a1.574,1.574,0,0,1-2.136.057c-.032-.027-.062-.056-.091-.086l-10.737-11.018-.037-.039a1.575,1.575,0,0,1,.065-2.188l23.969-23.354a1.573,1.573,0,0,1,2.188-.009C-6512.345-1831.819-6512.332-1831.806-6512.32-1831.794Z" transform="translate(-1.215)" fill="#0f0140"/>
    <path id="Trazado_145470" data-name="Trazado 145470" d="M-6512.358-1831.831a1.573,1.573,0,0,0-2.188.009l-3.681,3.586-16.607,16.182-3.681,3.586a1.575,1.575,0,0,0-.065,2.188l.037.039,2.946,3.023,4.845,4.972h0l2.946,3.023.038.038h0c.017.017.035.032.052.047l0,0,.009.008.05.041.016.013.045.033.021.015.041.028.025.015.039.024.029.016.037.02.031.016.036.017.033.014.035.015.035.013.035.013.036.012.034.01.036.01.035.009.037.009.034.007.038.007.035.006.038.005.034,0,.039,0,.035,0,.038,0h.108l.038,0,.035,0,.038,0,.035,0,.038-.005.035-.005.037-.007.036-.008.036-.008.035-.01.036-.01.035-.011.035-.012.035-.013.034-.013.035-.015.034-.015.035-.016.032-.016.036-.02.03-.017.035-.022.029-.018.036-.024.027-.019.036-.028.026-.019.039-.033.021-.017.057-.053h0l3.68-3.587,16.607-16.181,3.681-3.587c.019-.018.037-.037.055-.056l.017-.019.035-.039.02-.024.029-.036.019-.027.026-.035.019-.028.022-.036.018-.029.021-.035.017-.031.018-.035.015-.031.017-.036.014-.033.014-.036.013-.034.013-.035.01-.035.011-.036.009-.035.009-.036.008-.036.007-.035.005-.036.005-.036,0-.036,0-.036,0-.036,0-.036v-.146l0-.037,0-.036,0-.036-.006-.036-.005-.036-.006-.036-.008-.036-.008-.036-.009-.035-.011-.036-.009-.034-.013-.037-.012-.033-.014-.037-.012-.031-.018-.038-.013-.029-.02-.039-.014-.027c-.008-.014-.016-.028-.024-.04l-.014-.025-.026-.043-.014-.02-.032-.046-.012-.017-.04-.051-.007-.009,0-.006-.047-.053h0l-.036-.039h0l-2.946-3.024-4.845-4.971-2.946-3.024C-6512.332-1831.806-6512.345-1831.819-6512.358-1831.831Zm6.914,9.451a8.277,8.277,0,0,0-.674,1.923,7.846,7.846,0,0,0,.143,4.025l-17.376,16.932a7.844,7.844,0,0,0-4.021-.247,8.2,8.2,0,0,0-2.292.8l-5.2-5.341a8.211,8.211,0,0,0,.857-2.269,7.845,7.845,0,0,0-.146-4.034l17.371-16.926a7.854,7.854,0,0,0,4.028.25,8.3,8.3,0,0,0,1.939-.624Z" transform="translate(-1.215)" fill="#ef6c00"/>
    <path id="Trazado_145471" data-name="Trazado 145471" d="M-6517.36-1803.645h-.092a6.89,6.89,0,0,1-4.879-2.1,6.89,6.89,0,0,1-1.968-4.931,6.894,6.894,0,0,1,2.095-4.879,6.886,6.886,0,0,1,4.931-1.968,6.89,6.89,0,0,1,4.88,2.1,6.894,6.894,0,0,1,1.968,4.931,6.9,6.9,0,0,1-2.095,4.879A6.894,6.894,0,0,1-6517.36-1803.645Zm0-13.655a6.673,6.673,0,0,0-4.686,1.907,6.668,6.668,0,0,0-2.028,4.724,6.675,6.675,0,0,0,1.905,4.776,6.677,6.677,0,0,0,4.725,2.029,6.659,6.659,0,0,0,4.774-1.906,6.667,6.667,0,0,0,2.029-4.724,6.673,6.673,0,0,0-1.905-4.775h0a6.676,6.676,0,0,0-4.725-2.029Z" transform="translate(-4.325 -3.122)" fill="#ef6c00"/>
    <circle id="Elipse_4735" data-name="Elipse 4735" cx="5.971" cy="5.971" r="5.971" transform="translate(-6529.923 -1811.84) rotate(-57.757)" fill="#ef6c00"/>
    <path id="Trazado_145472" data-name="Trazado 145472" d="M-6514.426-1806.752a6.926,6.926,0,0,1-2.158,1.306l-1.349-1.384a8.39,8.39,0,0,0,1.451-.613,5.046,5.046,0,0,0,1.157-.807,1.646,1.646,0,0,0,.436-.591.414.414,0,0,0-.113-.446.406.406,0,0,0-.346-.118,2.586,2.586,0,0,0-.608.17q-.395.149-1.033.438a4.742,4.742,0,0,1-1.283.393,2.162,2.162,0,0,1-1.006-.085,2.382,2.382,0,0,1-.881-.609,1.9,1.9,0,0,1-.606-1.506,3.274,3.274,0,0,1,.858-1.772l-.9-.925.862-.841.894.917a6.843,6.843,0,0,1,2.07-1.221l.662,1.672a5.434,5.434,0,0,0-1.954,1.14,1.362,1.362,0,0,0-.39.538.367.367,0,0,0,.1.372.411.411,0,0,0,.319.132,1.909,1.909,0,0,0,.535-.131q.35-.125.921-.4a4.539,4.539,0,0,1,1.936-.516,1.961,1.961,0,0,1,1.369.646,2.139,2.139,0,0,1,.666,1.571,3.018,3.018,0,0,1-.767,1.8l1.087,1.116-.862.841Z" transform="translate(-5.064 -3.772)" fill="#0f0140"/>
    <path id="Rectángulo_34300" data-name="Rectángulo 34300" d="M0,0H32.248a7.066,7.066,0,0,1,7.066,7.066v14.76a7.066,7.066,0,0,1-7.066,7.066H7.066A7.066,7.066,0,0,1,0,21.826V0A0,0,0,0,1,0,0Z" transform="translate(-6544.73 -1809.284)" fill="#ef6c00"/>
    <rect id="Rectángulo_34301" data-name="Rectángulo 34301" width="15.979" height="10.777" rx="5.388" transform="translate(-6519.163 -1800.222)" fill="#ef6c00"/>
    <circle id="Elipse_4736" data-name="Elipse 4736" cx="3.137" cy="3.137" r="3.137" transform="matrix(0.23, -0.973, 0.973, 0.23, -6517.428, -1792.501)" fill="#0f0140"/>
    <g id="Grupo_88521" data-name="Grupo 88521" transform="translate(-6541.615 -1807.363)">
      <path id="Trazado_145473" data-name="Trazado 145473" d="M-6501.875-1771.1h-.749a.412.412,0,0,1-.412-.412.413.413,0,0,1,.412-.413h.742a.416.416,0,0,1,.416.413A.409.409,0,0,1-6501.875-1771.1Z" transform="translate(6532.79 1794.591)" fill="#0f0140"/>
      <path id="Trazado_145474" data-name="Trazado 145474" d="M-6505.644-1771.1h-.741a.412.412,0,0,1-.413-.412.413.413,0,0,1,.413-.413h.741a.414.414,0,0,1,.413.413A.413.413,0,0,1-6505.644-1771.1Z" transform="translate(6533.586 1794.591)" fill="#0f0140"/>
      <path id="Trazado_145475" data-name="Trazado 145475" d="M-6509.405-1771.1h-.742a.412.412,0,0,1-.412-.412.413.413,0,0,1,.412-.413h.742a.413.413,0,0,1,.413.413A.412.412,0,0,1-6509.405-1771.1Z" transform="translate(6534.382 1794.591)" fill="#0f0140"/>
      <path id="Trazado_145476" data-name="Trazado 145476" d="M-6513.167-1771.1h-.741a.413.413,0,0,1-.413-.412.414.414,0,0,1,.413-.413h.741a.413.413,0,0,1,.413.413A.413.413,0,0,1-6513.167-1771.1Z" transform="translate(6535.179 1794.591)" fill="#0f0140"/>
      <path id="Trazado_145477" data-name="Trazado 145477" d="M-6516.928-1771.1h-.742a.412.412,0,0,1-.412-.412.413.413,0,0,1,.412-.413h.742a.413.413,0,0,1,.413.413A.412.412,0,0,1-6516.928-1771.1Z" transform="translate(6535.975 1794.591)" fill="#0f0140"/>
      <path id="Trazado_145478" data-name="Trazado 145478" d="M-6520.69-1771.1h-.741a.413.413,0,0,1-.414-.412.414.414,0,0,1,.414-.413h.741a.413.413,0,0,1,.413.413A.413.413,0,0,1-6520.69-1771.1Z" transform="translate(6536.771 1794.591)" fill="#0f0140"/>
      <path id="Trazado_145479" data-name="Trazado 145479" d="M-6524.451-1771.1h-.742a.412.412,0,0,1-.412-.412.413.413,0,0,1,.412-.413h.742a.413.413,0,0,1,.412.413A.412.412,0,0,1-6524.451-1771.1Z" transform="translate(6537.567 1794.591)" fill="#0f0140"/>
      <path id="Trazado_145480" data-name="Trazado 145480" d="M-6528.213-1771.1h-.741a.413.413,0,0,1-.414-.412.414.414,0,0,1,.414-.413h.741a.413.413,0,0,1,.413.413A.413.413,0,0,1-6528.213-1771.1Z" transform="translate(6538.363 1794.591)" fill="#0f0140"/>
      <path id="Trazado_145481" data-name="Trazado 145481" d="M-6531.974-1771.1h-.742a.412.412,0,0,1-.412-.412.413.413,0,0,1,.412-.413h.742a.413.413,0,0,1,.412.413A.412.412,0,0,1-6531.974-1771.1Z" transform="translate(6539.159 1794.591)" fill="#0f0140"/>
      <path id="Trazado_145482" data-name="Trazado 145482" d="M-6535.736-1771.1h-.741a.413.413,0,0,1-.413-.412.414.414,0,0,1,.413-.413h.741a.414.414,0,0,1,.413.413A.413.413,0,0,1-6535.736-1771.1Z" transform="translate(6539.956 1794.591)" fill="#0f0140"/>
      <path id="Trazado_145483" data-name="Trazado 145483" d="M-6539.387-1771.545a.414.414,0,0,1-.211-.058,2.159,2.159,0,0,1-.666-.623.413.413,0,0,1,.1-.574.413.413,0,0,1,.575.1,1.315,1.315,0,0,0,.409.382.413.413,0,0,1,.143.566A.412.412,0,0,1-6539.387-1771.545Z" transform="translate(6540.686 1794.79)" fill="#0f0140"/>
      <path id="Trazado_145484" data-name="Trazado 145484" d="M-6540.309-1774.989a.413.413,0,0,1-.412-.413v-.741a.413.413,0,0,1,.412-.413.414.414,0,0,1,.414.413v.741A.414.414,0,0,1-6540.309-1774.989Z" transform="translate(6540.767 1795.57)" fill="#0f0140"/>
      <path id="Trazado_145485" data-name="Trazado 145485" d="M-6540.309-1778.751a.412.412,0,0,1-.412-.412v-.742a.412.412,0,0,1,.412-.412.413.413,0,0,1,.414.412v.742A.413.413,0,0,1-6540.309-1778.751Z" transform="translate(6540.767 1796.366)" fill="#0f0140"/>
      <path id="Trazado_145486" data-name="Trazado 145486" d="M-6540.309-1782.512a.413.413,0,0,1-.412-.413v-.741a.413.413,0,0,1,.412-.413.414.414,0,0,1,.414.413v.741A.414.414,0,0,1-6540.309-1782.512Z" transform="translate(6540.767 1797.162)" fill="#0f0140"/>
      <path id="Trazado_145487" data-name="Trazado 145487" d="M-6540.309-1786.274a.412.412,0,0,1-.412-.412v-.742a.412.412,0,0,1,.412-.412.413.413,0,0,1,.414.412v.742A.413.413,0,0,1-6540.309-1786.274Z" transform="translate(6540.767 1797.958)" fill="#0f0140"/>
      <path id="Trazado_145488" data-name="Trazado 145488" d="M-6540.309-1790.035a.413.413,0,0,1-.412-.413v-.741a.413.413,0,0,1,.412-.413.414.414,0,0,1,.414.413v.741A.414.414,0,0,1-6540.309-1790.035Z" transform="translate(6540.767 1798.755)" fill="#0f0140"/>
      <path id="Trazado_145489" data-name="Trazado 145489" d="M-6540.309-1793.8a.412.412,0,0,1-.412-.412v-.742a.412.412,0,0,1,.412-.412.413.413,0,0,1,.414.412v.742A.413.413,0,0,1-6540.309-1793.8Z" transform="translate(6540.767 1799.551)" fill="#0f0140"/>
      <path id="Trazado_145490" data-name="Trazado 145490" d="M-6540.417-1797.787a.413.413,0,0,1-.359-.46l.037-.3a2.087,2.087,0,0,1,.14-.533.413.413,0,0,1,.538-.225.414.414,0,0,1,.226.538,1.291,1.291,0,0,0-.084.322l-.037.3A.413.413,0,0,1-6540.417-1797.787Z" transform="translate(6540.779 1800.391)" fill="#0f0140"/>
      <path id="Trazado_145491" data-name="Trazado 145491" d="M-6503-1799.85h-.741a.413.413,0,0,1-.413-.413.412.412,0,0,1,.413-.412h.741a.412.412,0,0,1,.412.412A.412.412,0,0,1-6503-1799.85Z" transform="translate(6533.026 1800.675)" fill="#0f0140"/>
      <path id="Trazado_145492" data-name="Trazado 145492" d="M-6506.758-1799.85h-.741a.413.413,0,0,1-.413-.413.413.413,0,0,1,.413-.412h.741a.413.413,0,0,1,.413.412A.413.413,0,0,1-6506.758-1799.85Z" transform="translate(6533.822 1800.675)" fill="#0f0140"/>
      <path id="Trazado_145493" data-name="Trazado 145493" d="M-6510.519-1799.85h-.742a.412.412,0,0,1-.412-.413.412.412,0,0,1,.412-.412h.742a.412.412,0,0,1,.412.412A.412.412,0,0,1-6510.519-1799.85Z" transform="translate(6534.618 1800.675)" fill="#0f0140"/>
      <path id="Trazado_145494" data-name="Trazado 145494" d="M-6514.281-1799.85h-.741a.413.413,0,0,1-.413-.413.413.413,0,0,1,.413-.412h.741a.413.413,0,0,1,.414.412A.413.413,0,0,1-6514.281-1799.85Z" transform="translate(6535.414 1800.675)" fill="#0f0140"/>
      <path id="Trazado_145495" data-name="Trazado 145495" d="M-6518.042-1799.85h-.742a.412.412,0,0,1-.412-.413.412.412,0,0,1,.412-.412h.742a.412.412,0,0,1,.413.412A.412.412,0,0,1-6518.042-1799.85Z" transform="translate(6536.21 1800.675)" fill="#0f0140"/>
      <path id="Trazado_145496" data-name="Trazado 145496" d="M-6521.8-1799.85h-.741a.413.413,0,0,1-.413-.413.413.413,0,0,1,.413-.412h.741a.413.413,0,0,1,.413.412A.413.413,0,0,1-6521.8-1799.85Z" transform="translate(6537.007 1800.675)" fill="#0f0140"/>
      <path id="Trazado_145497" data-name="Trazado 145497" d="M-6525.565-1799.85h-.742a.413.413,0,0,1-.413-.413.413.413,0,0,1,.413-.412h.742a.412.412,0,0,1,.413.412A.412.412,0,0,1-6525.565-1799.85Z" transform="translate(6537.803 1800.675)" fill="#0f0140"/>
      <path id="Trazado_145498" data-name="Trazado 145498" d="M-6529.327-1799.85h-.741a.413.413,0,0,1-.413-.413.413.413,0,0,1,.413-.412h.741a.413.413,0,0,1,.413.412A.413.413,0,0,1-6529.327-1799.85Z" transform="translate(6538.599 1800.675)" fill="#0f0140"/>
      <path id="Trazado_145499" data-name="Trazado 145499" d="M-6533.088-1799.85h-.742a.412.412,0,0,1-.412-.413.412.412,0,0,1,.412-.412h.742a.412.412,0,0,1,.412.412A.412.412,0,0,1-6533.088-1799.85Z" transform="translate(6539.395 1800.675)" fill="#0f0140"/>
      <path id="Trazado_145500" data-name="Trazado 145500" d="M-6536.85-1799.85h-.741a.413.413,0,0,1-.413-.413.413.413,0,0,1,.413-.412h.741a.413.413,0,0,1,.413.412A.413.413,0,0,1-6536.85-1799.85Z" transform="translate(6540.191 1800.675)" fill="#0f0140"/>
    </g>
  </g>
</svg>
