<svg xmlns="http://www.w3.org/2000/svg" xmlns:xlink="http://www.w3.org/1999/xlink" width="637.5" height="350.368" viewBox="0 0 637.5 350.368">
  <defs>
    <clipPath id="clip-path">
      <circle id="Elipse_4759" data-name="Elipse 4759" cx="81.49" cy="81.49" r="81.49" fill="none"/>
    </clipPath>
  </defs>
  <g id="Grupo_92602" data-name="Grupo 92602" transform="translate(-704 -8704.379)">
    <rect id="Rectángulo_34340" data-name="Rectángulo 34340" width="629.5" height="343" rx="36" transform="translate(712 8711.747)" fill="#8a7cbf"/>
    <rect id="Rectángulo_34338" data-name="Rectángulo 34338" width="629.5" height="343" rx="36" transform="translate(705 8704.379)" fill="#fff"/>
    <rect id="Rectángulo_34339" data-name="Rectángulo 34339" width="40" height="8" transform="translate(704 8909.388) rotate(-90)" fill="#ef6c00"/>
    <g id="Grupo_88587" data-name="Grupo 88587" transform="translate(2428.074 9861.314)">
      <g id="Grupo_87483" data-name="Grupo 87483" transform="translate(-1413.693 -1048.995)">
        <g id="Grupo_87476" data-name="Grupo 87476" transform="translate(0 112.777)">
          <path id="Trazado_101384" data-name="Trazado 101384" d="M-1346.6-851.448c-5.093,6.048-9.709,16.075-12.574,17.666s-7.7,2.145-12.261,16.838,18.482,12.681,18.482,12.681,9.854-5.66,13.833-19.333l9.868-8.754Z" transform="translate(1383.928 904.075)" fill="#ffa497"/>
          <path id="Trazado_101385" data-name="Trazado 101385" d="M-1363.58-803.935a36.939,36.939,0,0,0,13.786-9.111c6.35-6.708,7.169-18.642,7.169-18.642l3.042,5.684,6.083-6.5,2.933-.284,2.162,2.381-9.868,8.754c-3.979,13.673-13.834,19.333-13.834,19.333a36.634,36.634,0,0,1-11.728-1.049C-1363.694-803.72-1363.58-803.935-1363.58-803.935Z" transform="translate(1383.075 902.136)" fill="#f45763"/>
          <path id="Trazado_101386" data-name="Trazado 101386" d="M-1309.945-910.178c-7.058,5.16-11.271,8.905-14.781,15.925s-25.506,32.241-26.91,34.49,12.361,26.117,23.38,31.967c0,0,16.635-19.188,26.229-26.442s6.318-32.995,1.872-41.652A67.622,67.622,0,0,0-1309.945-910.178Z" transform="translate(1381.818 910.178)" fill="#0f0140"/>
          <path id="Trazado_101387" data-name="Trazado 101387" d="M-1308.5-860.013v-14.327s1.867-.748,3.324,4.088a13.276,13.276,0,0,1,.277,5.72l10.71-8.055c.443,9.017-1,18.189-6.136,22.07-9.594,7.255-26.229,26.442-26.229,26.442a34.742,34.742,0,0,1-8.767-7.448C-1328.544-838.269-1315.694-851.287-1308.5-860.013Z" transform="translate(1380.112 906.458)" fill="#170c62"/>
          <path id="Trazado_101388" data-name="Trazado 101388" d="M-1382.122-805.106c-1.832.572-3.185,1.447-3.185,3.755s.4,5.969,1.273,7.4,5.4,2.29,5.4,2.29-.3-9.532-1.257-11.283A4.458,4.458,0,0,0-1382.122-805.106Z" transform="translate(1385.307 899.259)" fill="#ffa497"/>
          <path id="Trazado_101389" data-name="Trazado 101389" d="M-1383.958-792.849a6.37,6.37,0,0,1-.623-1.668,3.085,3.085,0,0,0,2.511,1.1l3.432,1.07c.053,1.073.075,1.789.075,1.789S-1383.083-791.417-1383.958-792.849Z" transform="translate(1385.232 898.158)" fill="#f45763"/>
          <path id="Trazado_101390" data-name="Trazado 101390" d="M-1377.428-809c-2.229.238-4.457,1.909-4.457,4.218s-.8,8.754,0,9.788,4.7,3.979,6.048,4.218,3.651-.159,3.337-.875S-1377.428-809-1377.428-809Z" transform="translate(1384.988 899.663)" fill="#ffa497"/>
          <path id="Trazado_101391" data-name="Trazado 101391" d="M-1382.221-795.3c1.69,1.907,6.01,1.736,6.01,1.736a17.234,17.234,0,0,1,2.133,2.679c.142.393.918.911,1.025,1.312a6.094,6.094,0,0,1-2.781.223c-1.326-.234-5.092-3.065-5.99-4.15l-.4-1.8Z" transform="translate(1384.986 898.24)" fill="#f45763"/>
          <path id="Trazado_101392" data-name="Trazado 101392" d="M-1368.533-813.246c-6.837.385-8.11,1.021-8.349,3.807s-.08,10.9.8,12.972,1.353,3.9,2.467,5.013a4.355,4.355,0,0,0,2.781,1.117s3.745-5.495,3.9-10.11S-1368.533-813.246-1368.533-813.246Z" transform="translate(1384.442 900.105)" fill="#ffa497"/>
          <path id="Trazado_101393" data-name="Trazado 101393" d="M-1372.381-794a41.438,41.438,0,0,0,1.213-10.23c.037-2.376,2.24,10.034,1.256,13.44-.49.845-.842,1.362-.842,1.362a4.355,4.355,0,0,1-2.781-1.117c-1.114-1.115-1.592-2.944-2.467-5.013a3.909,3.909,0,0,1-.161-.48C-1375.717-794.881-1374.3-794.119-1372.381-794Z" transform="translate(1384.357 899.199)" fill="#f45763"/>
          <path id="Trazado_101394" data-name="Trazado 101394" d="M-1352.912-799.511c-.43,3.8-5.411,5.173-5.969,7.083s-.159,3.661-1.114,4.138-4.934-1.75-4.775-4.3a4.954,4.954,0,0,1-3.342,2.547c-2.307.4-2.865-1.289-2.467-3.827a32.387,32.387,0,0,0,.239-6.917c-.08-3.023-.8-5.809.557-9.152s3.184-6.287,6.844-5.73,5.889,5.173,7.878,6.765S-1352.434-803.729-1352.912-799.511Z" transform="translate(1383.789 900.363)" fill="#ffa497"/>
          <path id="Trazado_101395" data-name="Trazado 101395" d="M-1364.082-791.735c.223-4.836.476-8.794.476-9.575s-.253-5.913,1.573-6.225c.277-.047,4.29,2.5,4.368,4.212s0,4.8-1.247,5.674S-1364.082-791.735-1364.082-791.735Z" transform="translate(1383.101 899.511)" fill="#f45763"/>
        </g>
        <g id="Grupo_87477" data-name="Grupo 87477" transform="translate(67.847 63.532)">
          <path id="Trazado_101396" data-name="Trazado 101396" d="M-1192.58-902.324c-7.254-9.2-9.749-10.141-17.238-14.508s-35.881-15.445-41.73-16.848-29.445,9.593-37.187,13.1-17.593,6.963-19.271,10.385c-5.619,11.451,5.509,27.68,5.567,61.688.031,17.812,4.09,57.867,4.09,57.867s89.155.166,90.4-1.706,4.368-65.833,5.928-78.937S-1192.58-902.324-1192.58-902.324Z" transform="translate(1309.591 961.878)" fill="#0f0140"/>
          <line id="Línea_151" data-name="Línea 151" x1="1.911" y1="13.221" transform="translate(0 56.395)" fill="none" stroke="#170c62" stroke-miterlimit="10" stroke-width="1"/>
          <path id="Trazado_101397" data-name="Trazado 101397" d="M-1271.827-903.228c-3.445-1.287-11.606.952-13.1,1.47s.877-5.858,1.754-6.647,2.281-2.629,4.972-1.8,4.954,3.913,5.343,4.927A14.413,14.413,0,0,0-1271.827-903.228Z" transform="translate(1307.078 959.447)" fill="#170c62"/>
          <path id="Trazado_101398" data-name="Trazado 101398" d="M-1241.1-897.689c-1.229-.058-8.394-3.354-10.11-4.173s-9.49-1.2-14.71.257c0,0,10.049-6.79,15.9-6.731s8.073,2.165,8.542,4.037A38.838,38.838,0,0,1-1241.1-897.689Z" transform="translate(1305.053 959.231)" fill="#170c62"/>
          <path id="Trazado_101399" data-name="Trazado 101399" d="M-1282.714-799.917c.957-.936,59.181.935,60.352-5.149s1.975-17.148,1.975-17.148c-7.009,3.744-17.185,2.185-17.185,2.185,6.786-2.216,16.614-13.351,17.082-16.627,1.442-10.092-3.95-37.917-3.95-37.917l3.95-7.947,4.622-2.574A64.151,64.151,0,0,1-1199.61-872.7a63.113,63.113,0,0,0-1.157,6.483c-1.471,12.355-4.328,69.906-5.7,78.019-18.034.665-50.725,1.862-72.6,2.613-10.6.025-18.035.012-18.035.012s-.137-5.269-.455-12.824C-1291.452-798.756-1283.307-799.337-1282.714-799.917Z" transform="translate(1308.34 956.816)" fill="#170c62"/>
          <path id="Trazado_101400" data-name="Trazado 101400" d="M-1269.723-904.226c6.282-.758,16.38-6.2,20.359-4.329s4.914,6.669,5.733,7.488,4.329-3.276,4.329-13.338.308-20.366-7.1-21.766-26.6,5.853-30.459,8.779a18.238,18.238,0,0,0-6.552,8.735c-1.053,2.848-3.86,14.314-2.574,14.431s4.914-7.371,7.605-7.6S-1271.423-904.021-1269.723-904.226Z" transform="translate(1307.172 962.143)" fill="#0f0140"/>
          <path id="Trazado_101401" data-name="Trazado 101401" d="M-1272.17-912.323c-1.6-3.8-3.357-7.137-3.3-9.77s.643-4.446,3.568-5.265,4.153.761,4.329,4.738S-1272.17-912.323-1272.17-912.323Z" transform="translate(1306.045 961.23)" fill="#170c62"/>
          <path id="Trazado_101402" data-name="Trazado 101402" d="M-1246.191-920.236c6.117-5.548,6.808-11.749,6.234-13.036s-3.1-2.222-3.1-2.222-.995,4.036-.409,5.031S-1246.191-920.236-1246.191-920.236Z" transform="translate(1303.003 962.054)" fill="#170c62"/>
          <path id="Trazado_101403" data-name="Trazado 101403" d="M-1257.055-904.8c3.739-1.416,9.995-3,12.007-.874a16.508,16.508,0,0,1,3.483,4.813c.975,1.907,1.336,3.686,3.6-1.035s1.705-14.083,1.705-14.083" transform="translate(1304.131 960.025)" fill="none" stroke="#170c62" stroke-miterlimit="10" stroke-width="1"/>
          <path id="Trazado_101404" data-name="Trazado 101404" d="M-1274.51-906.171s-3.043-3.467-4.268-2.734a12.321,12.321,0,0,0-4.622,4.774c-1.92,3.1-4.216,4.616-2.239-3.181" transform="translate(1307.181 959.301)" fill="none" stroke="#170c62" stroke-miterlimit="10" stroke-width="1"/>
          <path id="Trazado_101405" data-name="Trazado 101405" d="M-1272.745-939.082c.014,2.472.112,4.937.369,7.4.631,6.033.013,13.99.489,15.459.532,1.638,3.692,7.488,3.692,7.488s5.616-2.573,7.956-5.382,5.382-2.95,9.477-7.091,6.879-10.718,5.967-16.193c-.117-.7-.836-7.71-.995-14.964s-7.781-12.765-15.034-12.765-11.6,10.765-11.824,18.018C-1272.741-944.139-1272.758-941.344-1272.745-939.082Z" transform="translate(1305.763 965.134)" fill="#ffa497"/>
          <path id="Trazado_101406" data-name="Trazado 101406" d="M-1245.79-952.14c.159,7.254.877,14.262.995,14.964a14.852,14.852,0,0,1-.145,5.289c-1.6.3-22.265.795-27.617-1.7-.122-1.753-.178-3.509-.188-5.269-.013-2.262,0-5.057.1-8.033a27.316,27.316,0,0,1,2.418-10.028l16.994-6.023C-1249.064-960.714-1245.891-956.789-1245.79-952.14Z" transform="translate(1305.763 964.906)" fill="#f45763"/>
        </g>
        <g id="Grupo_87479" data-name="Grupo 87479" transform="translate(65.499 0)">
          <path id="Trazado_101407" data-name="Trazado 101407" d="M-1288.7-984.6c-10.977,0-15.085,8.432-15.085,14.751,0,5.671,1.818,14.751,15.085,14.751,6.634,0,11.124-6.605,11.124-14.751S-1282.063-984.6-1288.7-984.6Z" transform="translate(1311.336 1030.689)" fill="#524786"/>
          <path id="Trazado_101408" data-name="Trazado 101408" d="M-1288.809-980.566c-8.289,0-11.391,6.367-11.391,11.139,0,4.282,1.373,11.139,11.391,11.139,5.009,0,8.4-4.988,8.4-11.139S-1283.8-980.566-1288.809-980.566Z" transform="translate(1310.964 1030.27)" fill="#38295c"/>
          <path id="Trazado_101409" data-name="Trazado 101409" d="M-1302.458-982.972c.649,3.846,2.552,5.316,3.4,10.5s-1.417,12.719,1.965,19.282,8.851,15.19,12.01,15.555,28.466-3.911,37-20.889c2.451-4.874,7.688-23.986,3.206-35.657s-11.773-22.364-28.625-22.688S-1305.894-1003.356-1302.458-982.972Z" transform="translate(1311.248 1034.043)" fill="#ffa497"/>
          <path id="Trazado_101410" data-name="Trazado 101410" d="M-1286.884-955.9a2.971,2.971,0,0,0,2.333-.912,2.39,2.39,0,0,0,.436-1.834,5.427,5.427,0,0,1-4.554.989C-1288.87-956.445-1287.937-955.922-1286.884-955.9Z" transform="translate(1309.768 1027.991)" fill="#f45763"/>
          <path id="Trazado_101411" data-name="Trazado 101411" d="M-1259.517-984.963a11.3,11.3,0,0,0-3.315-6.31s-6.441-2.673-11.423-3.16a65.566,65.566,0,0,1-10.086-1.945s1.58,4,4.254,5.707c0,0-11.91-.6-15.677-4.127,0,0,.729,2.905,1.458,4.855,0,0-5.833-.6-7.656-2.91a39.4,39.4,0,0,0-1.458,7.89s-7.008-9.591-5.225-17.206,4.213-10.532,4.213-10.532a38.7,38.7,0,0,1-7.778,0s6.481-5.671,11.343-9.4,19.444-3.889,19.444-3.889-1.134-3.889.162-10.046c0,0,6.238,9.155,12.841,11.95s5.713,2.557,12.714,4.325,13.656,6.247,16.451,10.015,5.833,7.655,7.656,8.264c0,0-4.375-.608-6.563-2.431,0,0,3.648,8.285-1.174,18.948s-16.9,7.507-19.241,5.154A4.583,4.583,0,0,1-1259.517-984.963Z" transform="translate(1312.212 1036.034)" fill="#d16452"/>
          <path id="Trazado_101412" data-name="Trazado 101412" d="M-1252.981-978.2a4.583,4.583,0,0,1-.938-5.154,11.4,11.4,0,0,0-2.352-5.262,71.069,71.069,0,0,0-2.074-31.968,36.692,36.692,0,0,0,5.533,1.747,59.956,59.956,0,0,1,7.316,15.876c2.119,7.058,3.146,14.682,1.168,21.781a23.808,23.808,0,0,1-2.182,5.258C-1249.508-976.176-1252.037-977.255-1252.981-978.2Z" transform="translate(1306.614 1034.429)" fill="#994234"/>
          <path id="Trazado_101413" data-name="Trazado 101413" d="M-1250.2-987.543s.833-26.653-13.142-35.159a18.225,18.225,0,0,1,17.013,9.6c6.2,10.815,5.779,20.092,5.622,25.291S-1250.2-987.543-1250.2-987.543Z" transform="translate(1307.134 1034.653)" fill="#524786"/>
          <path id="Trazado_101414" data-name="Trazado 101414" d="M-1245.213-984.6c10.977,0,15.084,8.432,15.084,14.751,0,5.671-1.818,14.751-15.084,14.751-6.634,0-11.124-6.605-11.124-14.751S-1251.847-984.6-1245.213-984.6Z" transform="translate(1306.405 1030.689)" fill="#524786"/>
          <path id="Trazado_101415" data-name="Trazado 101415" d="M-1250.527-969.654c0-7.232,4.774-13.1,10.663-13.1s10.339,5.863,10.339,13.1-4.45,13.1-10.339,13.1S-1250.527-962.422-1250.527-969.654Z" transform="translate(1305.802 1030.497)" fill="#38295c"/>
          <ellipse id="Elipse_4754" data-name="Elipse 4754" cx="7.256" cy="8.912" rx="7.256" ry="8.912" transform="translate(60.089 51.931)" fill="#524786"/>
          <g id="Grupo_87478" data-name="Grupo 87478" transform="translate(19.888 75.594)">
            <path id="Trazado_101416" data-name="Trazado 101416" d="M-1276.536-951.673c-2.966,1.633-12.656,2.177-13.315,2.086s.694,7.267,3.067,7.539,7.118-.363,9.1-2.268S-1276.536-951.673-1276.536-951.673Z" transform="translate(1290.017 951.673)" fill="#f45763"/>
            <path id="Trazado_101417" data-name="Trazado 101417" d="M-1277.071-949.476c-.183-.651-.325-1.176-.464-1.685-3.263,1.114-9.687,1.585-11.667,1.633a13.617,13.617,0,0,0,.845,2.958c.063-.041-.015.094.047.054A14.438,14.438,0,0,0-1277.071-949.476Z" transform="translate(1289.932 951.62)" fill="#fff"/>
          </g>
          <path id="Trazado_101418" data-name="Trazado 101418" d="M-1276.431-971.581c0-1.342.661-2.431,1.479-2.431s1.479,1.089,1.479,2.431-.662,2.43-1.479,2.43S-1276.431-970.239-1276.431-971.581Z" transform="translate(1308.494 1029.589)" fill="#471052"/>
          <path id="Trazado_101419" data-name="Trazado 101419" d="M-1295.312-970.316c0-1.342.57-2.43,1.272-2.43s1.271,1.088,1.271,2.43-.569,2.431-1.271,2.431S-1295.312-968.974-1295.312-970.316Z" transform="translate(1310.456 1029.457)" fill="#471052"/>
          <path id="Trazado_101420" data-name="Trazado 101420" d="M-1268.72-982.083a15.432,15.432,0,0,0-3.214-1.261,15.424,15.424,0,0,0-3.464-.52,8.6,8.6,0,0,0-3.549.348,6.522,6.522,0,0,0-2.934,2.051l.087.145c1.22-.132,2.229-.431,3.293-.572,1.041-.157,2.051-.537,3.138-.625a18.826,18.826,0,0,1,6.575.587Z" transform="translate(1309.06 1030.616)" fill="#471052"/>
          <path id="Trazado_101421" data-name="Trazado 101421" d="M-1300.1-978.619a6.642,6.642,0,0,1,1.634-.4,13.636,13.636,0,0,1,1.646-.108,7.231,7.231,0,0,0,1.631.058,4.848,4.848,0,0,0,.829-.23,3.373,3.373,0,0,0,.883-.44l.018-.168a3.185,3.185,0,0,0-1.735-.848,4.125,4.125,0,0,0-1.811.292,8.451,8.451,0,0,0-1.719.642,5.6,5.6,0,0,0-1.479,1.065Z" transform="translate(1310.964 1030.292)" fill="#471052"/>
        </g>
        <g id="Grupo_87482" data-name="Grupo 87482" transform="translate(46.149 120.065)">
          <path id="Trazado_101422" data-name="Trazado 101422" d="M-1286.482-785.368c.007.376-.52.92-1.807.92h-40.581c-4.679,0-5.772-1.851-4.367-4.191s7.332-7.488,22-11.076,22.375,4.8,24.759,8.581A5.936,5.936,0,0,1-1286.482-785.368Z" transform="translate(1333.806 891.501)" fill="#524786"/>
          <path id="Trazado_101423" data-name="Trazado 101423" d="M-1333.581-787.5c.807,2.685,31.771,1.285,31.771,1.285s-3.139-4.241-6.61-4.362-5.159,1.085-9.814,1.885-1.2-1.894-1.2-1.894a15.722,15.722,0,0,1-4.628-1.765s7.671-2.267,10.887-2.793,11.408-.176,12.461,0c.745.124,4.524-2.071,9.092-.969a20.43,20.43,0,0,1,5.145,5.415,5.936,5.936,0,0,1,0,5.766c.007.376-.52.92-1.807.92h-40.581C-1333.067-784.016-1334.371-785.508-1333.581-787.5Z" transform="translate(1333.805 891.069)" fill="#38295c"/>
          <path id="Trazado_101424" data-name="Trazado 101424" d="M-1200.264-814.311s-28.859,4.462-44.5,7.261c-14.818,2.651-27.613,3.8-31.24,3.1s-16.029-5.264-20.007-6.9-11.934-2.574-16.029-1.288-7.449,2.692-9.087,2.692-1.326,2.651.858,3.2a16.378,16.378,0,0,0,4.135.468s-7.411,4.056-8.737,4.446.245,2.807,2.039,2.651c0,0-1.571.936-1.025,1.872s4.446.936,4.446.936-4.758,2.34-.78,3.276,8.736-3.51,10.687-3.9,6.474-.156,8.658,1.482,11.544,9.2,24.337,4.68c0,0,86.826,3.518,95.484,3.518s13.887-7.652,11.111-22.394a111.957,111.957,0,0,0-8.159-25.741l-29.952,2.106Z" transform="translate(1332.929 895.072)" fill="#ffa497"/>
          <g id="Grupo_87480" data-name="Grupo 87480" transform="translate(11.269 86.638)">
            <path id="Trazado_101425" data-name="Trazado 101425" d="M-1307.436-805.051a11.9,11.9,0,0,1,1.755-.308S-1306.422-805.231-1307.436-805.051Z" transform="translate(1319.797 805.359)" fill="#f45763"/>
            <path id="Trazado_101426" data-name="Trazado 101426" d="M-1315.7-802.671a16.378,16.378,0,0,1-4.135-.468,2.6,2.6,0,0,1-1.391-.857c2.429,1.073,5.419.388,7.056,0,1.033-.246,3.571-.709,5.3-1.018A40.645,40.645,0,0,0-1315.7-802.671Z" transform="translate(1321.23 805.323)" fill="#f45763"/>
          </g>
          <g id="Grupo_87481" data-name="Grupo 87481" transform="translate(8.073 92.617)">
            <path id="Trazado_101427" data-name="Trazado 101427" d="M-1314.638-798.5a4.541,4.541,0,0,1,.448-.183Z" transform="translate(1323.741 798.686)" fill="#f45763"/>
            <path id="Trazado_101428" data-name="Trazado 101428" d="M-1324.8-795.808c.029.025.884.78,2.687,0,1.5-.653,5.146-2.15,6.416-2.669-1.6.725-5.928,3.169-7.079,3.588A2.5,2.5,0,0,1-1324.8-795.808Z" transform="translate(1324.797 798.665)" fill="#f45763"/>
          </g>
          <path id="Trazado_101429" data-name="Trazado 101429" d="M-1320.122-792.738c1.326-.39,4.1-2.066,5.791-2.868a11.664,11.664,0,0,1,3.861-.9,8.234,8.234,0,0,0-2.34.9c-1.7.836-6.349,3.727-6.349,3.727a14.353,14.353,0,0,1-3.779-.483A11.086,11.086,0,0,0-1320.122-792.738Z" transform="translate(1332.677 891.076)" fill="#f45763"/>
          <path id="Trazado_101430" data-name="Trazado 101430" d="M-1293.711-790.723c2.457,1.521,9.712,3.51,14.041,2.691a6.6,6.6,0,0,0,5.265-4.446l1.209,3.9s60.217,1.716,72.463,1.165c12.105-.544,30.986-.819,33.452-8.09-.677,8.439-5.248,12.783-11.768,12.783-8.658,0-95.484-3.518-95.484-3.518-12.792,4.524-22.153-3.042-24.337-4.68-1.815-1.361-5.245-1.751-7.471-1.62h0C-1303.018-793.7-1296.168-792.244-1293.711-790.723Z" transform="translate(1330.952 890.972)" fill="#f45763"/>
          <path id="Trazado_101431" data-name="Trazado 101431" d="M-1186.039-812.936s11.282-1.533,13.543-1.767l-1.716-7.021-14.274,2.886Z" transform="translate(1318.704 893.697)" fill="#f45763"/>
          <path id="Trazado_101432" data-name="Trazado 101432" d="M-1158.849-840.934a2.926,2.926,0,0,1-.687,3.158c-5.244,5.119-12.126,12.093-19.206,13.166-7.722,1.169-20.593,1.638-21.294,0s-3.276-22.465-7.956-32.994-7.721-15.912-8.892-22,9.361-20.358,14.04-21.528,15.445-1.872,19.89,2.107,7.722,19.188,12.87,30.654C-1165.931-859.117-1160.71-845.751-1158.849-840.934Z" transform="translate(1321.665 902.045)" fill="#0f0140"/>
          <path id="Trazado_101433" data-name="Trazado 101433" d="M-1187.606-901.326a39,39,0,0,0-15.033.2c-7.243,1.794-12.34,14.275-12.34,14.275" transform="translate(1321.457 902.038)" fill="none" stroke="#170c62" stroke-miterlimit="10" stroke-width="1"/>
          <path id="Trazado_101434" data-name="Trazado 101434" d="M-1160.357-835.661c-.038-3.738-7.934-38.015-14.908-57.12h0c2.965,6.528,5.736,16.957,9.515,25.374,4.154,9.252,9.375,22.619,11.236,27.435a2.924,2.924,0,0,1-.687,3.157c-2.008,1.961-4.259,4.193-6.668,6.262C-1161.688-830.729-1160.321-832.169-1160.357-835.661Z" transform="translate(1317.33 901.082)" fill="#170c62"/>
        </g>
      </g>
      <g id="Grupo_87491" data-name="Grupo 87491" transform="translate(-1587.012 -925.053)">
        <g id="Grupo_87485" data-name="Grupo 87485" transform="translate(0 18.131)">
          <path id="Trazado_101435" data-name="Trazado 101435" d="M-1578.687-872.686a5.524,5.524,0,0,0,.659,3.334,23.946,23.946,0,0,1,2.944,12.218c-.088,2.792-.661,5.648.1,8.336,1.311,4.637,6.205,7.5,7.781,12.059,1.4,4.038.1,9.116,3,12.251a2.713,2.713,0,0,0,2.82.979,3.439,3.439,0,0,0,1.214-1.009c3.328-3.779,6.889-8.371,5.863-13.3-.964-4.63-5.736-7.759-6.64-12.4-.739-3.793,1.2-8.17-.974-11.365-.6-.882-1.458-1.556-2.113-2.4-2.584-3.319-1.627-8.609-4.6-11.579a6.869,6.869,0,0,0-3.511-1.8,5.455,5.455,0,0,0-6.535,4.677Z" transform="translate(1578.727 877.484)" fill="#d25e5a"/>
          <g id="Grupo_87484" data-name="Grupo 87484" transform="translate(5.922 6.193)">
            <path id="Trazado_101436" data-name="Trazado 101436" d="M-1559.008-813.133c.2-2.47.285-4.941.377-7.419-.113-2.469-.245-4.939-.456-7.408s-.488-4.936-.925-7.391a31.429,31.429,0,0,0-2.056-7.221c-1.791-4.531-3.24-9.267-4.7-13.962l-2.123-7.077q-1.308-3.468-2.546-6.962c.361,2.454.923,4.865,1.415,7.291l2.127,7.093c1.472,4.718,2.907,9.427,4.742,14.069a30.24,30.24,0,0,1,1.983,6.974c.427,2.4.7,4.84.911,7.284s.349,4.9.444,7.358Z" transform="translate(1572.047 870.572)" fill="#ffa7a4"/>
            <path id="Trazado_101437" data-name="Trazado 101437" d="M-1572.118-862.591a5.808,5.808,0,0,0,1.5,1.488,8.724,8.724,0,0,0,.944.479,3.61,3.61,0,0,1,.859.594l.112.1.1-.153c.236-.36.522-.695.747-1.059s.447-.733.64-1.114a8.68,8.68,0,0,0,.8-2.465l-.071-.035a8.726,8.726,0,0,0-1.48,2.127c-.186.384-.337.787-.5,1.183s-.247.831-.392,1.237l.212-.052a3.585,3.585,0,0,1-.821-.644,8.689,8.689,0,0,0-.737-.759,5.8,5.8,0,0,0-1.864-.99Z" transform="translate(1572.118 869.968)" fill="#ffa7a4"/>
            <path id="Trazado_101438" data-name="Trazado 101438" d="M-1571.448-853.192c.424.349.862.728,1.32,1.043a10.943,10.943,0,0,0,1.426.888c.508.244,1.048.436,1.536.713a9.474,9.474,0,0,1,1.377.97l.155.125.156-.2a24.728,24.728,0,0,0,1.8-2.791,17.588,17.588,0,0,0,1.3-3.074l-.068-.039a17.587,17.587,0,0,0-1.962,2.7,24.587,24.587,0,0,0-1.46,2.985l.31-.079a10,10,0,0,1-1.479-.809c-.465-.315-.881-.711-1.33-1.054a9.781,9.781,0,0,0-1.452-.858,6.515,6.515,0,0,0-1.616-.6Z" transform="translate(1572.048 869.012)" fill="#ffa7a4"/>
            <path id="Trazado_101439" data-name="Trazado 101439" d="M-1568.1-840.545a7.131,7.131,0,0,0,1.519,1.126,5.786,5.786,0,0,0,1.726.686,4.459,4.459,0,0,1,1.671.8c.5.376.98.791,1.477,1.117l.374.245.279-.418a11.735,11.735,0,0,0,1.073-1.933,10.309,10.309,0,0,0,.692-2.141l-.086-.047a10.287,10.287,0,0,0-1.438,1.731,11.794,11.794,0,0,0-1.057,1.941l.653-.172a11.19,11.19,0,0,0-1.764-.7,5.1,5.1,0,0,1-1.628-.908,5.292,5.292,0,0,0-1.608-.954,6.525,6.525,0,0,0-1.84-.463Z" transform="translate(1571.7 867.51)" fill="#ffa7a4"/>
          </g>
        </g>
        <g id="Grupo_87487" data-name="Grupo 87487" transform="translate(15.563)">
          <path id="Trazado_101440" data-name="Trazado 101440" d="M-1554.031-815.471c1.93-.318,9.167-2.633,8.661-4.523-2.169-8.111-4.339-17.313,3.174-21.281,3.616-1.909,8.153-2.879,10.212-6.411,2.121-3.638.56-8.263-1.343-12.02s-4.194-7.777-3.378-11.909c.854-4.326,4.945-7.518,5.6-11.879.893-5.954-4.889-10.752-10.443-13.076-1.89-.791-3.966-1.467-5.957-.986a7.316,7.316,0,0,0-3.63,2.345c-3.9,4.362-3.742,10.945-2.852,16.73s2.254,11.894.074,17.326c-1.547,3.859-4.86,7.488-3.973,11.55.356,1.626,1.37,3.046,1.756,4.665,1.043,4.367-2.583,8.3-4.246,12.469a15.306,15.306,0,0,0,3.393,16.036,3.393,3.393,0,0,0,2.953.965Z" transform="translate(1561.359 897.718)" fill="#ff7571"/>
          <g id="Grupo_87486" data-name="Grupo 87486" transform="translate(6.629 9.402)">
            <path id="Trazado_101441" data-name="Trazado 101441" d="M-1553.946-814.292c.447-3.211.894-6.411,1.467-9.586.136-.795.3-1.584.43-2.378s.193-1.6.324-2.39c.24-1.59.507-3.174.811-4.749a62.314,62.314,0,0,1,2.421-9.258,19.239,19.239,0,0,1,2.024-4.186,5.736,5.736,0,0,1,1.463-1.549,7.684,7.684,0,0,0,1.953-1.815,8.021,8.021,0,0,0,1.409-5.038,24.748,24.748,0,0,0-.722-4.941c-.745-3.186-1.681-6.263-2.2-9.4a21.556,21.556,0,0,1,.192-9.3c.254-.729.453-1.472.693-2.215a15.51,15.51,0,0,1,.923-2.163,21.614,21.614,0,0,1,2.7-3.966,18.257,18.257,0,0,0-3.45,3.5,16.538,16.538,0,0,0-1.355,2.111,8.637,8.637,0,0,0-.935,2.347,23,23,0,0,0-.224,9.934c.542,3.251,1.495,6.375,2.219,9.482a23.417,23.417,0,0,1,.685,4.636,6.562,6.562,0,0,1-1.12,4.136,6.23,6.23,0,0,1-1.583,1.465,7.138,7.138,0,0,0-1.861,1.94,20.6,20.6,0,0,0-2.2,4.516,63.729,63.729,0,0,0-2.484,9.485q-.463,2.4-.821,4.809c-.111.8-.262,1.6-.358,2.41s-.118,1.622-.169,2.433C-1553.885-820.776-1554.006-817.533-1553.946-814.292Z" transform="translate(1553.961 887.225)" fill="#ffa7a4"/>
            <path id="Trazado_101442" data-name="Trazado 101442" d="M-1540.49-876.489a4.961,4.961,0,0,0-1.454.863,5.234,5.234,0,0,0-1.137,1.2,7.734,7.734,0,0,1-.967,1.346,11.98,11.98,0,0,1-1.263,1.071l.572.036c-.193-.416-.43-.8-.649-1.2a12.1,12.1,0,0,0-.718-1.155c-.251-.375-.537-.729-.809-1.091s-.584-.694-.833-1.077l-.1.016a3.808,3.808,0,0,0,.286,1.418,9.439,9.439,0,0,0,.587,1.271,8.7,8.7,0,0,0,.758,1.158,12.758,12.758,0,0,0,.874,1.077l.358.376.214-.341a9.638,9.638,0,0,1,.941-1.352,6.591,6.591,0,0,1,1.276-1.042,6.346,6.346,0,0,0,1.16-1.14,10.119,10.119,0,0,0,.962-1.349Z" transform="translate(1553.326 886.111)" fill="#ffa7a4"/>
            <path id="Trazado_101443" data-name="Trazado 101443" d="M-1547.467-862.894a7.919,7.919,0,0,0,.864,1.528,11.1,11.1,0,0,0,1.106,1.328c.419.4.9.737,1.344,1.1a8.012,8.012,0,0,1,1.178,1.254l.111.147.159-.126a13.283,13.283,0,0,0,1.509-1.384c.436-.5.9-.97,1.307-1.489s.791-1.05,1.154-1.6.7-1.121,1.077-1.656l-.056-.081a6.927,6.927,0,0,0-1.635,1.22,15.232,15.232,0,0,0-1.358,1.459c-.423.508-.782,1.066-1.175,1.594s-.707,1.16-1.072,1.614l.27.021a7.154,7.154,0,0,1-1.189-1.236c-.335-.47-.636-.969-.99-1.419a14.945,14.945,0,0,0-1.184-1.235,13.015,13.015,0,0,0-1.344-1.1Z" transform="translate(1553.286 884.798)" fill="#ffa7a4"/>
            <path id="Trazado_101444" data-name="Trazado 101444" d="M-1534.621-852.407c-.609.716-1.24,1.375-1.887,2s-1.344,1.183-2.021,1.789a6.572,6.572,0,0,1-2.359,1.371,8.688,8.688,0,0,1-2.711.3l.4.283a18.122,18.122,0,0,0-.643-2.194,12.176,12.176,0,0,0-.933-2.091,10.182,10.182,0,0,0-1.337-1.89,4.993,4.993,0,0,0-1.879-1.355l-.049.084a7.328,7.328,0,0,1,1.356,1.7,21.065,21.065,0,0,1,1.014,1.918l.9,1.993c.3.669.558,1.364.818,2.04l.126.326.277-.043a15.645,15.645,0,0,0,2.755-.787,27.917,27.917,0,0,0,2.643-1.085,6.907,6.907,0,0,0,2.222-1.825,7.1,7.1,0,0,0,1.392-2.5Z" transform="translate(1553.346 883.792)" fill="#ffa7a4"/>
            <path id="Trazado_101445" data-name="Trazado 101445" d="M-1552.585-844.1a5.486,5.486,0,0,0-.377,2.252,7.346,7.346,0,0,0,.421,2.26,8.082,8.082,0,0,0,1.159,1.972l1.35,1.795.1.128.156-.111a19.843,19.843,0,0,1,2.355-1.326c.791-.426,1.611-.788,2.432-1.138s1.638-.711,2.479-1.027c.835-.342,1.7-.616,2.567-.944l-.015-.1a12.927,12.927,0,0,0-5.453,1.108,17.1,17.1,0,0,0-2.447,1.363,16.422,16.422,0,0,0-2.153,1.79l.252.017a6.258,6.258,0,0,1-1.246-1.78,15.327,15.327,0,0,1-.706-2.03,16.039,16.039,0,0,1-.774-4.21Z" transform="translate(1553.858 882.744)" fill="#ffa7a4"/>
          </g>
        </g>
        <g id="Grupo_87490" data-name="Grupo 87490" transform="translate(2.617 68.576)">
          <g id="Grupo_87489" data-name="Grupo 87489">
            <g id="Grupo_87488" data-name="Grupo 87488">
              <path id="Trazado_101446" data-name="Trazado 101446" d="M-1568.654-786.589h20.66a4.151,4.151,0,0,0,3.836-3.9l3.271-25.414c.358-2.78-1.461-5.285-3.836-5.285h-27.2c-2.376,0-4.195,2.5-3.836,5.285l3.27,25.414A4.153,4.153,0,0,0-1568.654-786.589Z" transform="translate(1575.807 821.189)" fill="#524786"/>
            </g>
          </g>
          <path id="Trazado_101447" data-name="Trazado 101447" d="M-1571.925-821.189h13.906c-2.376,0-4.194,2.5-3.837,5.285l3.271,25.414a4.151,4.151,0,0,0,3.836,3.9h-13.905a4.153,4.153,0,0,1-3.837-3.9l-3.27-25.414C-1576.12-818.684-1574.3-821.189-1571.925-821.189Z" transform="translate(1575.807 821.189)" fill="#38295c"/>
        </g>
      </g>
      <g id="Grupo_87498" data-name="Grupo 87498" transform="translate(-1551.554 -975.72)">
        <g id="Grupo_87492" data-name="Grupo 87492" transform="translate(71.393 146.856)">
          <path id="Trazado_101448" data-name="Trazado 101448" d="M-1371.5-790.364h-86.409a1.575,1.575,0,0,0-1.576,1.575v3.828a1.575,1.575,0,0,0,1.576,1.575h86.409Z" transform="translate(1459.483 790.372)" fill="#261b41"/>
          <path id="Trazado_101449" data-name="Trazado 101449" d="M-1339.215-785.551v1.557a.608.608,0,0,1-.608.608h-21.767a1.226,1.226,0,0,1-1.227-1.226v-4.535a1.226,1.226,0,0,1,1.365-1.218l21.7,4.209A.61.61,0,0,1-1339.215-785.551Z" transform="translate(1449.437 790.373)" fill="#524786"/>
        </g>
        <g id="Grupo_87497" data-name="Grupo 87497">
          <g id="Grupo_87495" data-name="Grupo 87495">
            <path id="Trazado_101450" data-name="Trazado 101450" d="M-1530.781-954.261h161.5a7.748,7.748,0,0,1,7.29,5.124l35.319,98.083c1.477,5.059-2.223,8.849-8.171,9.49-.911.1-5.25-1.851-12.062-5.056h-144.379a7.749,7.749,0,0,1-7.291-5.124l-31.9-88.6c-5.4-2.816-8.47-4.425-8.47-4.425S-1540.95-954.261-1530.781-954.261Z" transform="translate(1539.151 954.261)" fill="#524786"/>
            <path id="Trazado_101451" data-name="Trazado 101451" d="M-1374.345-948.619h-161.5a3.311,3.311,0,0,0-3.116,4.434l35.319,98.084a7.749,7.749,0,0,0,7.29,5.123h161.5a3.311,3.311,0,0,0,3.116-4.434l-35.319-98.083A7.749,7.749,0,0,0-1374.345-948.619Z" transform="translate(1539.156 953.675)" fill="#38295c"/>
            <path id="Trazado_101452" data-name="Trazado 101452" d="M-1399.9-831.578l-7.169-26.589-27.17,26.589Z" transform="translate(1528.253 944.275)" fill="#261b41"/>
            <path id="Trazado_101453" data-name="Trazado 101453" d="M-1439.807-910.891c.71,4.385,3.547,6.152,6.945,6.152a5.237,5.237,0,0,0,5.359-6.152,7.4,7.4,0,0,0-6.945-6.153A5.259,5.259,0,0,0-1439.807-910.891Z" transform="translate(1528.839 950.393)" fill="#524786"/>
            <g id="Grupo_87493" data-name="Grupo 87493" transform="translate(146.362 90.608)">
              <path id="Trazado_101454" data-name="Trazado 101454" d="M-1355.34-847.378l-2.077-5.767h2.61l2.077,5.767Z" transform="translate(1373.907 853.145)" fill="#261b41"/>
              <path id="Trazado_101455" data-name="Trazado 101455" d="M-1361.474-847.378l-2.077-5.767h2.61l2.077,5.767Z" transform="translate(1374.545 853.145)" fill="#261b41"/>
              <path id="Trazado_101456" data-name="Trazado 101456" d="M-1367.609-847.378l-2.077-5.767h2.61l2.077,5.767Z" transform="translate(1375.182 853.145)" fill="#261b41"/>
              <path id="Trazado_101457" data-name="Trazado 101457" d="M-1373.743-847.378l-2.077-5.767h2.61l2.077,5.767Z" transform="translate(1375.82 853.145)" fill="#261b41"/>
            </g>
            <g id="Grupo_87494" data-name="Grupo 87494" transform="translate(51.791 90.608)">
              <path id="Trazado_101458" data-name="Trazado 101458" d="M-1460.879-847.378l-2.077-5.767h2.61l2.077,5.767Z" transform="translate(1479.446 853.145)" fill="#261b41"/>
              <path id="Trazado_101459" data-name="Trazado 101459" d="M-1467.013-847.378l-2.077-5.767h2.61l2.077,5.767Z" transform="translate(1480.083 853.145)" fill="#261b41"/>
              <path id="Trazado_101460" data-name="Trazado 101460" d="M-1473.147-847.378l-2.077-5.767h2.61l2.077,5.767Z" transform="translate(1480.721 853.145)" fill="#261b41"/>
              <path id="Trazado_101461" data-name="Trazado 101461" d="M-1479.282-847.378l-2.077-5.767h2.61l2.077,5.767Z" transform="translate(1481.359 853.145)" fill="#261b41"/>
            </g>
          </g>
          <g id="Grupo_87496" data-name="Grupo 87496" transform="translate(68.481 76.98)">
            <path id="Trazado_101462" data-name="Trazado 101462" d="M-1456.894-800.918c1.594-4.583,20.919-66.941,20.919-66.941h24.807l1.639,8.685s-16.633,53.674-18.226,58.257q-.183.524-.346,1.051h0c-1.458,4.48,2.388,4.461,6.719,4.461h43.75v3.967h-72.888C-1459.284-791.439-1458.488-796.335-1456.894-800.918Z" transform="translate(1462.23 868.302)" fill="#38295c"/>
            <path id="Trazado_101463" data-name="Trazado 101463" d="M-1411.67-867.859s-19.325,62.359-20.919,66.941-2.391,9.479,6.375,9.479h-29.139c-8.766,0-7.97-4.9-6.376-9.479s20.919-66.941,20.919-66.941Z" transform="translate(1462.733 868.302)" fill="#524786"/>
            <path id="Trazado_101464" data-name="Trazado 101464" d="M-1416.29-867.91c-1.922-.088-3.844-.133-5.766-.2s-3.844-.08-5.765-.123-3.844-.086-5.766-.087l-5.765-.036-.322,0-.1.312c-.8,2.512-1.6,5.027-2.35,7.553l-2.3,7.569c-1.479,5.063-2.961,10.124-4.313,15.226,1.776-4.97,3.422-9.981,5.071-14.99l2.393-7.54c.809-2.509,1.581-5.031,2.341-7.556l-.42.31,5.765-.035c1.922,0,3.844-.057,5.766-.088s3.843-.056,5.765-.123S-1418.212-867.822-1416.29-867.91Z" transform="translate(1461.278 868.353)" fill="#8375d4"/>
          </g>
        </g>
      </g>
      <g id="Grupo_87499" data-name="Grupo 87499" transform="translate(-1614.741 -821.877)">
        <path id="Trazado_101465" data-name="Trazado 101465" d="M-1602.017-767.267h427.737a7.654,7.654,0,0,0,7.654-7.654h0a7.655,7.655,0,0,0-7.654-7.655h-427.737a7.655,7.655,0,0,0-7.654,7.655h0A7.654,7.654,0,0,0-1602.017-767.267Z" transform="translate(1609.671 782.576)" fill="#a04f58"/>
        <path id="Trazado_101466" data-name="Trazado 101466" d="M-1602.017-766.379h427.737a7.654,7.654,0,0,0,7.654-7.654h-443.046A7.654,7.654,0,0,0-1602.017-766.379Z" transform="translate(1609.671 781.688)" fill="#713349"/>
      </g>
      <g id="Grupo_88588" data-name="Grupo 88588" transform="translate(-2181.025 -1446.461)">
        <g id="Grupo_88590" data-name="Grupo 88590" transform="translate(533.271 315.642)" clip-path="url(#clip-path)">
          <path id="Trazado_145989" data-name="Trazado 145989" d="M81.49,0A81.49,81.49,0,1,1,0,81.49,81.49,81.49,0,0,1,81.49,0Z" fill="#fcecdf"/>
          <g id="freepik--Character--inject-7" transform="translate(1.719 34.017)">
            <path id="Trazado_145948" data-name="Trazado 145948" d="M605.26,356.58a42.8,42.8,0,0,0-.457,26.012c1.564,5.191,4.153,10.383,3.364,15.74-.651,4.374-3.489,8.2-4.056,12.584-1.135,8.915,7.337,17.36,5.067,26.053a13.842,13.842,0,0,1-8.126,8.791,25.267,25.267,0,0,1-12.182,1.537c-6.077-.526-12.653-2.769-15.463-8.306-2.243-4.319-1.537-9.51-.761-14.3,3.433-21.208,7.392-42.569,15.989-62.3" transform="translate(-520.146 -333.925)" fill="#263238"/>
            <path id="Trazado_145949" data-name="Trazado 145949" d="M600.744,420.5a4.5,4.5,0,0,1-.706.235,7.45,7.45,0,0,1-2.146.18,8.177,8.177,0,0,1-3.267-.941,7.348,7.348,0,0,1-3.129-3.2,8.111,8.111,0,0,1-.623-5.4,7.641,7.641,0,0,1,1.3-2.769,11.692,11.692,0,0,1,2.312-2.284,62.692,62.692,0,0,0,5.537-4.153,10.975,10.975,0,0,0,3.073-6.409,18.458,18.458,0,0,0-.526-7.212,41.539,41.539,0,0,0-2.409-6.4,53.175,53.175,0,0,1-4.153-10.867,16.445,16.445,0,0,1,0-7.835,8.52,8.52,0,0,1,1.135-2.644,17.183,17.183,0,0,0-.983,2.686,16.912,16.912,0,0,0,.111,7.725,54.052,54.052,0,0,0,4.25,10.77,42.165,42.165,0,0,1,2.464,6.451,19.033,19.033,0,0,1,.54,7.392,11.293,11.293,0,0,1-3.212,6.645,59.459,59.459,0,0,1-5.537,4.153,8.558,8.558,0,0,0-3.488,4.831,7.752,7.752,0,0,0,.54,5.177,7.257,7.257,0,0,0,2.976,3.129,8.3,8.3,0,0,0,3.156.983A9.18,9.18,0,0,0,600.744,420.5Z" transform="translate(-512.931 -332.299)" fill="#263238"/>
            <path id="Trazado_145950" data-name="Trazado 145950" d="M633.836,358.94c-.346.678-9.4,47.192-9.4,47.192l21.333,1,8.306-39.994Z" transform="translate(-499.952 -333.018)" fill="#455a64"/>
            <path id="Trazado_145951" data-name="Trazado 145951" d="M625.113,406.1l-2.436-1.038,9.234-45.849,2.893-.194Z" transform="translate(-500.628 -332.987)" fill="#263238"/>
            <path id="Trazado_145952" data-name="Trazado 145952" d="M637.419,366.548a1.108,1.108,0,1,0,1.243-.954h-.011a1.093,1.093,0,0,0-1.229.939Z" transform="translate(-494.965 -330.465)" fill="#263238"/>
            <path id="Trazado_145953" data-name="Trazado 145953" d="M643.037,396.166l.318-6.091-9.109-3.765,3.558-8.431a7.351,7.351,0,0,1,9.689-3.767c.184.08.365.169.541.264l3.71,2.007a10.463,10.463,0,0,1,5.191,6.742,136.447,136.447,0,0,1,2.118,14.882" transform="translate(-496.181 -327.427)" fill="#b78876"/>
            <path id="Trazado_145954" data-name="Trazado 145954" d="M625.43,450.469l.055-2.549,2.711,2.549h61.113l2.569-59-19.035-1.647-6.922,56.758-38.083-36.56a32.17,32.17,0,0,0-13.456-7.711l-11.822-3.35-29.071-2.769L553.8,405.712s-.4,24.2,1.761,44.757Z" transform="translate(-527.11 -321.15)" fill="#7e57c2"/>
            <path id="Trazado_145955" data-name="Trazado 145955" d="M565.9,446.249l.655-2.7L561.907,400.8s-14.714,5.468-18.273,16.986c-1.269,4.116-3.732,15.876-6.224,28.463Z" transform="translate(-533.399 -316.93)" fill="#7e57c2"/>
            <path id="Trazado_145956" data-name="Trazado 145956" d="M558.443,436.614c.467-2.234.871-4.246,1.172-5.913.263-1.481.471-2.686.6-3.516a5.121,5.121,0,0,0,.125-1.315,6.194,6.194,0,0,0-.374,1.274c-.206.955-.471,2.1-.789,3.475-.382,1.739-.831,3.77-1.322,6Z" transform="translate(-525.543 -307.294)" fill="#263238"/>
            <path id="Trazado_145957" data-name="Trazado 145957" d="M651.177,396.53a6.915,6.915,0,0,0,.568-2.866,7.43,7.43,0,0,0,0-2.935,6.951,6.951,0,0,0-.568,2.879A7.359,7.359,0,0,0,651.177,396.53Z" transform="translate(-489.73 -320.8)" fill="#263238"/>
            <path id="Trazado_145958" data-name="Trazado 145958" d="M647.181,396.743a7.515,7.515,0,0,0,.471-3.046,8.082,8.082,0,0,0-.152-3.087,7.581,7.581,0,0,0-.471,3.059A8.008,8.008,0,0,0,647.181,396.743Z" transform="translate(-491.3 -320.846)" fill="#263238"/>
            <path id="Trazado_145959" data-name="Trazado 145959" d="M643.189,396.689a10.146,10.146,0,0,0,.5-3.406,9.243,9.243,0,0,0-.125-3.433,9.613,9.613,0,0,0-.5,3.405A9.3,9.3,0,0,0,643.189,396.689Z" transform="translate(-492.832 -321.138)" fill="#263238"/>
            <path id="Trazado_145960" data-name="Trazado 145960" d="M634.885,435.073h.634c-.011-.073-.011-.149-.024-.223a19.981,19.981,0,0,0-.831-4.97,20.569,20.569,0,0,0,.208,5.025C634.875,434.962,634.882,435.017,634.885,435.073Z" transform="translate(-496.046 -305.753)" fill="#263238"/>
            <path id="Trazado_145961" data-name="Trazado 145961" d="M546.576,405.964c0,.125,1.523,0,3.89.526a18.464,18.464,0,0,1,8.306,4.153,18.694,18.694,0,0,1,5.219,7.725c.817,2.284.927,3.807,1.038,3.793a2.951,2.951,0,0,0,0-1.08,15.319,15.319,0,0,0-.609-2.852,17.666,17.666,0,0,0-5.219-8.057,17.9,17.9,0,0,0-8.68-4.153,15.25,15.25,0,0,0-2.907-.208A3.715,3.715,0,0,0,546.576,405.964Z" transform="translate(-529.877 -315.005)" fill="#263238"/>
            <path id="Trazado_145962" data-name="Trazado 145962" d="M606.155,439.021h.7a37.137,37.137,0,0,0-2.528-15.035,27.788,27.788,0,0,0-1.509-3.267c-.415-.734-.609-1.163-.72-1.107s.761,1.717,1.758,4.554A41.235,41.235,0,0,1,606.155,439.021Z" transform="translate(-508.541 -309.701)" fill="#263238"/>
            <g id="Grupo_88588-2" data-name="Grupo 88588" transform="translate(32.694 121.248)" opacity="0.2">
              <path id="Trazado_145963" data-name="Trazado 145963" d="M563.043,435.872a51.006,51.006,0,0,0-3.285-8.072c-.444,2.651-1.023,5.356-1.628,8.072Z" transform="translate(-558.13 -427.8)"/>
            </g>
            <path id="Trazado_145964" data-name="Trazado 145964" d="M553.415,434.237c.08-.068.152-.147.235-.209a6.262,6.262,0,0,1,5.108-1.467,5.548,5.548,0,0,1,1.855.831c.014-.028-.111-.152-.36-.484a3.883,3.883,0,0,0-1.384-.706,6.442,6.442,0,0,0-5.537,1.384,6.242,6.242,0,0,0-.743.652Z" transform="translate(-527.565 -304.917)" fill="#fafafa"/>
            <path id="Trazado_145965" data-name="Trazado 145965" d="M638.356,414.706a9.3,9.3,0,0,1-1.813,2.769,13.758,13.758,0,0,1-7.988,4.278,13.053,13.053,0,0,1-6.326-.5,20.783,20.783,0,0,1-6.174-3.848,34.717,34.717,0,0,0-6.354-4.61,10.277,10.277,0,0,0-3.9-1.08,12.262,12.262,0,0,0-4.153.526,28.083,28.083,0,0,0-7.462,3.862,45.509,45.509,0,0,1-6.922,4.153,17.622,17.622,0,0,1-7.115,1.523,20.337,20.337,0,0,1-6.257-1.038,18.864,18.864,0,0,1-7.669-4.914,15.26,15.26,0,0,1-1.523-1.952,3.511,3.511,0,0,1-.429-.748c.069,0,.678.983,2.16,2.506a19.171,19.171,0,0,0,7.614,4.624,18.1,18.1,0,0,0,12.957-.6,49.093,49.093,0,0,0,6.742-4.153,27.785,27.785,0,0,1,7.641-3.973,12.282,12.282,0,0,1,4.4-.54,10.871,10.871,0,0,1,4.153,1.149,35.351,35.351,0,0,1,6.479,4.734,20.274,20.274,0,0,0,5.953,3.793,12.635,12.635,0,0,0,6.05.568,13.832,13.832,0,0,0,7.849-3.973A21.566,21.566,0,0,0,638.356,414.706Z" transform="translate(-523.078 -313.019)" fill="#fafafa"/>
            <path id="Trazado_145966" data-name="Trazado 145966" d="M609.626,431.908a8.431,8.431,0,0,1,6.686-1.011,15.4,15.4,0,0,1,6.493,4.044h.835c-2.283-2.194-4.707-3.919-7.217-4.473a8.6,8.6,0,0,0-6.922,1.274,5.766,5.766,0,0,0-1.384,1.384,3.575,3.575,0,0,0-.291.609A8.17,8.17,0,0,1,609.626,431.908Z" transform="translate(-506.336 -305.621)" fill="#fafafa"/>
            <path id="Trazado_145967" data-name="Trazado 145967" d="M540.407,420.268a5.244,5.244,0,0,0,.9.332,4.157,4.157,0,0,0,2.52-.221,6.924,6.924,0,0,0,2.907-2.423,35.263,35.263,0,0,1,3.087-3.835,16.4,16.4,0,0,1,7.849-4.305,15.428,15.428,0,0,1,2.7-.346c.651,0,1,0,1,.1s-1.384.138-3.572.747a17.433,17.433,0,0,0-7.462,4.319,37.433,37.433,0,0,0-3.073,3.752,7.329,7.329,0,0,1-3.267,2.478,4.149,4.149,0,0,1-2.769,0C540.6,420.586,540.379,420.282,540.407,420.268Z" transform="translate(-532.248 -313.597)" fill="#fafafa"/>
            <path id="Trazado_145968" data-name="Trazado 145968" d="M597.987,397.58a5.382,5.382,0,0,1-1.564,1.813,13.079,13.079,0,0,1-5.15,2.672,12.871,12.871,0,0,1-5.8.194,5.111,5.111,0,0,1-2.256-.817,17.071,17.071,0,0,1,2.312.291,15.7,15.7,0,0,0,5.537-.388,15.493,15.493,0,0,0,5.011-2.367A17.026,17.026,0,0,1,597.987,397.58Z" transform="translate(-515.794 -318.167)" fill="#fafafa"/>
            <g id="Grupo_88589" data-name="Grupo 88589" transform="translate(135.829 124.362)" opacity="0.3">
              <path id="Trazado_145969" data-name="Trazado 145969" d="M636.073,435.007a22.166,22.166,0,0,0-.735-4.957l-.318.291a12.425,12.425,0,0,0-2.388,4.667Z" transform="translate(-632.631 -430.05)"/>
            </g>
            <path id="Trazado_145970" data-name="Trazado 145970" d="M659.7,407.15a20.176,20.176,0,0,0-3.489,4.153,32.992,32.992,0,0,0-2.519,5.385c-.789,2.09-1.564,4.471-2.672,6.922a17.6,17.6,0,0,1-4.305,6.063,11.071,11.071,0,0,1-5.537,2.519,7.551,7.551,0,0,1-4.07-.526,5.5,5.5,0,0,1-.955-.568c-.208-.152-.3-.249-.291-.263s.471.249,1.384.568a7.783,7.783,0,0,0,3.89.277,10.7,10.7,0,0,0,5.191-2.506,17.47,17.47,0,0,0,4.153-5.87c1.08-2.34,1.869-4.693,2.769-6.811a30.315,30.315,0,0,1,2.769-5.413,14.546,14.546,0,0,1,2.672-3.087A4.349,4.349,0,0,1,659.7,407.15Z" transform="translate(-495.559 -314.489)" fill="#fafafa"/>
            <path id="Trazado_145971" data-name="Trazado 145971" d="M659.574,396.042a8.7,8.7,0,0,1-2.437,2.132,20.065,20.065,0,0,1-14.992,2.962,8.836,8.836,0,0,1-3.059-1.038c0-.125,1.2.249,3.142.526a22.449,22.449,0,0,0,14.646-2.893C658.605,396.79,659.574,395.945,659.574,396.042Z" transform="translate(-494.321 -318.761)" fill="#fafafa"/>
            <path id="Trazado_145972" data-name="Trazado 145972" d="M564.807,362.85a8.75,8.75,0,0,0-12.372.156c-.125.129-.246.262-.364.4a14.913,14.913,0,0,0-2.935,7.725,37.158,37.158,0,0,1-1.62,8.2,8.4,8.4,0,0,1-5.814,5.537c-2.077.388-4.541-.249-6.133,1.135a3.989,3.989,0,0,0-.36,4.956,9.246,9.246,0,0,0,4.264,3.2c.651.291,1.384.706,1.384,1.384,0,.927-1.19,1.26-2.049,1.62-2.575,1.094-3.323,4.762-1.883,7.171a8.3,8.3,0,0,0,7.185,3.585,24.248,24.248,0,0,0,8.14-1.869,3.159,3.159,0,0,0-.083,4.015,4.349,4.349,0,0,0,3.932,1.467,7.086,7.086,0,0,0,3.821-1.98A13.734,13.734,0,0,0,563.671,402a44.974,44.974,0,0,0,.5-8.541A229.2,229.2,0,0,1,566.343,363" transform="translate(-534.513 -332.47)" fill="#263238"/>
            <path id="Trazado_145973" data-name="Trazado 145973" d="M583.742,347.966a21.055,21.055,0,0,1,20.073,21.014c0,8.707-.125,18.176-.678,23.8-1.287,13.068-11.075,15.3-11.075,15.3s.3,8.126.748,15.823c.415,7.337-5.537,13.843-13.456,14.425h0c-7.766.623-14.425-4.693-14.951-11.961l-2.63-56.384a21.056,21.056,0,0,1,20.056-22.01q.97-.046,1.941,0Z" transform="translate(-524.045 -337.244)" fill="#b78876"/>
            <path id="Trazado_145974" data-name="Trazado 145974" d="M590.91,367.635a1.659,1.659,0,0,1-1.481,1.823l-.042,0a1.578,1.578,0,0,1-1.791-1.329l-.008-.055a1.663,1.663,0,0,1,1.509-1.772,1.58,1.58,0,0,1,1.811,1.305Z" transform="translate(-514.116 -330.195)" fill="#263238"/>
            <path id="Trazado_145975" data-name="Trazado 145975" d="M591.789,365.832c-.194.235-1.509-.623-3.295-.512s-3.032,1.08-3.239.872.083-.484.623-.941a4.7,4.7,0,0,1,2.589-.969,4.568,4.568,0,0,1,2.644.678C591.692,365.361,591.886,365.735,591.789,365.832Z" transform="translate(-515.037 -330.967)" fill="#263238"/>
            <path id="Trazado_145976" data-name="Trazado 145976" d="M577.462,368.359a1.675,1.675,0,0,1-1.5,1.772,1.59,1.59,0,0,1-1.8-1.357l0-.028a1.663,1.663,0,0,1,1.495-1.772,1.594,1.594,0,0,1,1.8,1.358Z" transform="translate(-519.274 -329.936)" fill="#263238"/>
            <path id="Trazado_145977" data-name="Trazado 145977" d="M578.349,367.1c-.194.235-1.5-.623-3.281-.512s-3.046,1.08-3.253.872.083-.5.637-.941a4.5,4.5,0,0,1,2.575-.969,4.428,4.428,0,0,1,2.644.678C578.238,366.618,578.446,366.978,578.349,367.1Z" transform="translate(-520.202 -330.48)" fill="#263238"/>
            <path id="Trazado_145978" data-name="Trazado 145978" d="M582.249,380.1a11.428,11.428,0,0,1,2.866-.706c.457-.069.872-.18.941-.5a2.417,2.417,0,0,0-.388-1.384l-1.55-3.392a59.449,59.449,0,0,1-3.572-8.9,61.315,61.315,0,0,1,4.278,8.6c.526,1.191,1.024,2.326,1.5,3.419a2.607,2.607,0,0,1,.346,1.772,1.185,1.185,0,0,1-.72.72,3.468,3.468,0,0,1-.761.152A12.566,12.566,0,0,1,582.249,380.1Z" transform="translate(-516.82 -330.604)" fill="#263238"/>
            <path id="Trazado_145979" data-name="Trazado 145979" d="M588.564,392.47a35.453,35.453,0,0,1-17.678-3.89s4.831,9.3,17.844,7.614Z" transform="translate(-520.533 -321.626)" fill="#995037"/>
            <path id="Trazado_145980" data-name="Trazado 145980" d="M572.274,363.647c.208.318,1.509-.221,3.129-.581s3.032-.443,3.087-.817-1.467-.914-3.378-.485S572.052,363.37,572.274,363.647Z" transform="translate(-520.01 -331.993)" fill="#263238"/>
            <path id="Trazado_145981" data-name="Trazado 145981" d="M585.047,361.037c.083.36,1.55.318,3.308.346s3.225.1,3.322-.263-1.384-1.066-3.309-1.08S584.95,360.691,585.047,361.037Z" transform="translate(-515.092 -332.595)" fill="#263238"/>
            <path id="Trazado_145982" data-name="Trazado 145982" d="M571.837,422.563c-.125-2.686,2.879-14.342,4.084-21.5s-3.489-8.306-4.236-12.542a14.574,14.574,0,0,1,1.384-8.237c6.839,2.45,9.538-2.423,13.276-5.3,3.959-3.073,4.831-6.839,6.451-11.587s3.516-7.7,8.514-8.168a14.84,14.84,0,0,1,6.645,7.628c1.523,4.444,2.769,21.776,2.769,21.776.692-8.306,7.434-11.795,5.607-24.032-.789-5.274-5.164-12.459-11.919-13.539-1.966-.318-5.676-.554-5.676-.554-4.028-3.627-5.994-3.516-9.856-5.233-8.306-3.7-18.356,2.907-23.88,10.147-4.264,5.537-6.326,13.11-7.489,20.2a58.8,58.8,0,0,0-.318,14.868c.277,2.949-.083,6.686-2.99,8.957-4.153,3.226-5.233,9.372-2.367,17.567s-7.7,22.149-7.7,22.149a65.062,65.062,0,0,1,9.413-6.382C557.8,426.549,571.837,422.563,571.837,422.563Z" transform="translate(-530.814 -340.215)" fill="#263238"/>
            <path id="Trazado_145983" data-name="Trazado 145983" d="M581.426,379.289a2.687,2.687,0,0,0-2.464-.817,2.509,2.509,0,0,0-1.62,1.038,1.564,1.564,0,0,0,0,1.772,1.812,1.812,0,0,0,1.979.346,5.873,5.873,0,0,0,1.814-1.274,1.554,1.554,0,0,0,.388-.471.5.5,0,0,0,0-.554" transform="translate(-518.157 -325.528)" fill="#995037"/>
            <path id="Trazado_145984" data-name="Trazado 145984" d="M577.434,377.41c.235,0,.36,1.578,1.827,2.616s3.156.734,3.184.955-.36.346-1.08.415a3.993,3.993,0,0,1-2.658-.706,3.531,3.531,0,0,1-1.384-2.2C577.172,377.825,577.324,377.41,577.434,377.41Z" transform="translate(-518.084 -325.919)" fill="#263238"/>
            <path id="Trazado_145985" data-name="Trazado 145985" d="M536.63,380.315a13.256,13.256,0,0,0,.138,1.8,6.479,6.479,0,0,0,.678,1.98,4.557,4.557,0,0,0,1.938,1.883,3.791,3.791,0,0,0,3.184.152,4.039,4.039,0,0,0,2.132-2.935,15.941,15.941,0,0,0,.221-4.278c0-1.5-.138-3.059-.138-4.665a18.661,18.661,0,0,1,1.744-8.874,8.835,8.835,0,0,1,5.537-4.762,7.045,7.045,0,0,1,4.928.388,4.387,4.387,0,0,1,1.384,1.107,11.554,11.554,0,0,0-1.523-.955,7.064,7.064,0,0,0-4.79-.235,8.586,8.586,0,0,0-5.247,4.651,18.567,18.567,0,0,0-1.661,8.666c0,1.606.083,3.156.138,4.665a16.316,16.316,0,0,1-.263,4.388,4.427,4.427,0,0,1-2.381,3.17,4.153,4.153,0,0,1-3.461-.208,4.756,4.756,0,0,1-2.007-2.049,6.21,6.21,0,0,1-.637-2.063A5.551,5.551,0,0,1,536.63,380.315Z" transform="translate(-533.746 -332.479)" fill="#263238"/>
            <path id="Trazado_145986" data-name="Trazado 145986" d="M550.874,413.487a3.359,3.359,0,0,1-.692-.651,5.46,5.46,0,0,1-1.01-2.561,7.518,7.518,0,0,1,.747-4.292,16.481,16.481,0,0,1,3.6-4.527,30.467,30.467,0,0,0,4.707-5.094,11.946,11.946,0,0,0,1.647-7.614,80.113,80.113,0,0,1-.664-8.846,11.664,11.664,0,0,1,1.08-4.624,8.309,8.309,0,0,1,3.378-3.516c2.907-1.647,6.16-2.1,8.818-3.572a14.367,14.367,0,0,0,5.7-6.437c1.274-2.506,2.187-5.053,3.364-7.282a15.738,15.738,0,0,1,4.361-5.537,8.518,8.518,0,0,1,5.44-1.855,6.77,6.77,0,0,1,4.028,1.62,5.051,5.051,0,0,1,1.55,2.27,2.492,2.492,0,0,1,.166.692v.249a2.394,2.394,0,0,0-.277-.914,5.051,5.051,0,0,0-1.578-2.173,6.7,6.7,0,0,0-3.931-1.509,8.316,8.316,0,0,0-5.233,1.869,15.316,15.316,0,0,0-4.236,5.4c-1.149,2.215-2.049,4.748-3.336,7.3a14.718,14.718,0,0,1-5.856,6.631c-2.769,1.523-5.994,1.966-8.791,3.572a7.782,7.782,0,0,0-3.212,3.336,11.558,11.558,0,0,0-1.052,4.444,81.819,81.819,0,0,0,.651,8.8,12.337,12.337,0,0,1-1.689,7.808,30.723,30.723,0,0,1-4.8,5.122,16.482,16.482,0,0,0-3.586,4.416,7.5,7.5,0,0,0-.8,4.153A5.362,5.362,0,0,0,550.874,413.487Z" transform="translate(-528.9 -337.577)" fill="#455a64"/>
            <path id="Trazado_145987" data-name="Trazado 145987" d="M553.064,368.853a6.645,6.645,0,0,1,1.647-7.863,30.439,30.439,0,0,0-1.384,3.807A27.8,27.8,0,0,0,553.064,368.853Z" transform="translate(-527.629 -332.23)" fill="#fafafa"/>
            <path id="Trazado_145988" data-name="Trazado 145988" d="M556.217,400.4a30.894,30.894,0,0,0,4.042,20.018,15.728,15.728,0,0,0,4.942,5.454,8.164,8.164,0,0,0,7.1,1.011,5.537,5.537,0,0,0,3.669-5.8c-.554-3.461-4.818-5.634-4.845-9.15,1.55.941,3.655,1.841,5.011.637a3.071,3.071,0,0,0,.512-3.405,13.171,13.171,0,0,0-2.1-3,18.831,18.831,0,0,1-3.765-14.328c.208-1.384.581-5.731.609-7.143s-.388,0-1.384-.928a4.39,4.39,0,0,0-3.959-.734,8.42,8.42,0,0,0-3.5,2.2,16.215,16.215,0,0,0-4.817,12.293" transform="translate(-526.283 -323.834)" fill="#263238"/>
          </g>
        </g>
      </g>
    </g>
  </g>
</svg>
