<svg xmlns="http://www.w3.org/2000/svg" xmlns:xlink="http://www.w3.org/1999/xlink" width="216.414" height="136.638" viewBox="0 0 216.414 136.638">
  <defs>
    <linearGradient id="linear-gradient" x1="0.522" y1="0.167" x2="0.49" y2="1.39" gradientUnits="objectBoundingBox">
      <stop offset="0" stop-color="#ffbc53"/>
      <stop offset="0.08" stop-color="#f8c15d"/>
      <stop offset="0.226" stop-color="#f2c769"/>
      <stop offset="0.431" stop-color="#eecb70"/>
      <stop offset="1" stop-color="#edcc72"/>
    </linearGradient>
    <linearGradient id="linear-gradient-2" x1="354.503" y1="-10.775" x2="354.561" y2="-9.649" xlink:href="#linear-gradient"/>
  </defs>
  <g id="Grupo_91732" data-name="Grupo 91732" transform="translate(-2815.445 -679.468)">
    <path id="Trazado_147341" data-name="Trazado 147341" d="M3071.038,917.444h-.9a3.972,3.972,0,0,1-3.972-3.972v-.735a3.973,3.973,0,0,0-3.973-3.973h-14.657a3.973,3.973,0,0,0-3.973,3.973v2.209a3.973,3.973,0,0,0,3.973,3.973h.9a3.973,3.973,0,0,1,3.972,3.973v.08a3.972,3.972,0,0,1-3.972,3.972h-.9a3.973,3.973,0,0,0-3.973,3.973v2.209a3.973,3.973,0,0,0,3.973,3.973h14.657a3.973,3.973,0,0,0,3.973-3.973v-1.554a3.972,3.972,0,0,1,3.972-3.972h.9a3.973,3.973,0,0,0,3.972-3.973v-2.209A3.973,3.973,0,0,0,3071.038,917.444Z" transform="translate(-182.752 -183.695)" fill="#b9beed"/>
    <g id="Grupo_91691" data-name="Grupo 91691" transform="translate(2947.911 729.491)">
      <path id="Trazado_147342" data-name="Trazado 147342" d="M3487.13,941.341h-5.605L3486.2,931h5.605Z" transform="translate(-3481.525 -931)" fill="#b9beed"/>
      <path id="Trazado_147343" data-name="Trazado 147343" d="M3523.368,941.341h-5.605L3522.434,931h5.605Z" transform="translate(-3510.556 -931)" fill="#b9beed"/>
      <path id="Trazado_147344" data-name="Trazado 147344" d="M3559.607,941.341H3554L3558.673,931h5.605Z" transform="translate(-3539.588 -931)" fill="#b9beed"/>
      <path id="Trazado_147345" data-name="Trazado 147345" d="M3595.845,941.341h-5.605L3594.91,931h5.605Z" transform="translate(-3568.619 -931)" fill="#b9beed"/>
    </g>
    <g id="Grupo_91695" data-name="Grupo 91695" transform="translate(2845.228 751.566)">
      <rect id="Rectángulo_34390" data-name="Rectángulo 34390" width="48.923" height="61.054" rx="14.601" transform="translate(0 0)" fill="#85dfff"/>
      <path id="Trazado_147346" data-name="Trazado 147346" d="M3047.159,1074.673v.024a13.659,13.659,0,1,1-13.718-13.7h.038A13.709,13.709,0,0,1,3047.159,1074.673Z" transform="translate(-3008.975 -1057.221)" fill="#1e47b1"/>
      <path id="Trazado_147347" data-name="Trazado 147347" d="M3101.894,1074.722H3088.2V1061h.043A13.714,13.714,0,0,1,3101.894,1074.722Z" transform="translate(-3063.741 -1057.221)" fill="#f7fbfd"/>
      <circle id="Elipse_4790" data-name="Elipse 4790" cx="2.884" cy="2.884" r="2.884" transform="translate(4.534 33.61)" fill="#5169d1"/>
      <circle id="Elipse_4791" data-name="Elipse 4791" cx="2.884" cy="2.884" r="2.884" transform="translate(4.534 42.36)" fill="#5169d1"/>
      <g id="Grupo_91692" data-name="Grupo 91692" transform="translate(17.501 34.803)">
        <rect id="Rectángulo_34391" data-name="Rectángulo 34391" width="25.655" height="0.795" fill="#5169d1"/>
        <rect id="Rectángulo_34392" data-name="Rectángulo 34392" width="20.086" height="0.597" transform="translate(2.784 2.983)" fill="#5169d1"/>
      </g>
      <circle id="Elipse_4792" data-name="Elipse 4792" cx="2.884" cy="2.884" r="2.884" transform="translate(4.534 51.111)" fill="#5169d1"/>
      <g id="Grupo_91693" data-name="Grupo 91693" transform="translate(17.501 43.553)">
        <rect id="Rectángulo_34393" data-name="Rectángulo 34393" width="25.655" height="0.795" fill="#5169d1"/>
        <rect id="Rectángulo_34394" data-name="Rectángulo 34394" width="20.086" height="0.597" transform="translate(2.784 2.983)" fill="#5169d1"/>
      </g>
      <g id="Grupo_91694" data-name="Grupo 91694" transform="translate(17.501 52.304)">
        <rect id="Rectángulo_34395" data-name="Rectángulo 34395" width="25.655" height="0.795" fill="#5169d1"/>
        <rect id="Rectángulo_34396" data-name="Rectángulo 34396" width="20.086" height="0.597" transform="translate(2.784 2.983)" fill="#5169d1"/>
      </g>
    </g>
    <g id="Grupo_91717" data-name="Grupo 91717" transform="translate(2889.775 718.055)">
      <path id="Rectángulo_34397" data-name="Rectángulo 34397" d="M31.72,0h0a31.72,31.72,0,0,1,31.72,31.72V62.745a31.72,31.72,0,0,1-31.72,31.72h0A31.72,31.72,0,0,1,0,62.745V31.72A31.72,31.72,0,0,1,31.72,0Z" transform="translate(0 0)" fill="#f7fbfd"/>
      <rect id="Rectángulo_34398" data-name="Rectángulo 34398" width="50.713" height="75.373" transform="translate(6.364 9.846)" fill="#b9beed"/>
      <rect id="Rectángulo_34399" data-name="Rectángulo 34399" width="10.143" height="10.143" rx="3.023" transform="translate(11.137 15.613)" fill="#f7fbfd"/>
      <rect id="Rectángulo_34400" data-name="Rectángulo 34400" width="10.143" height="10.143" rx="3.023" transform="translate(26.649 15.613)" fill="#f7fbfd"/>
      <rect id="Rectángulo_34401" data-name="Rectángulo 34401" width="10.143" height="10.143" rx="3.023" transform="translate(42.161 15.613)" fill="#f7fbfd"/>
      <rect id="Rectángulo_34402" data-name="Rectángulo 34402" width="10.143" height="10.143" rx="3.023" transform="translate(11.137 33.512)" fill="#f7fbfd"/>
      <rect id="Rectángulo_34403" data-name="Rectángulo 34403" width="10.143" height="10.143" rx="3.023" transform="translate(26.649 33.512)" fill="#f7fbfd"/>
      <rect id="Rectángulo_34404" data-name="Rectángulo 34404" width="10.143" height="10.143" rx="3.023" transform="translate(42.161 33.512)" fill="#f7fbfd"/>
      <rect id="Rectángulo_34405" data-name="Rectángulo 34405" width="10.143" height="10.143" rx="3.023" transform="translate(11.137 51.41)" fill="#f7fbfd"/>
      <rect id="Rectángulo_34406" data-name="Rectángulo 34406" width="10.143" height="10.143" rx="3.023" transform="translate(26.649 51.41)" fill="#f7fbfd"/>
      <rect id="Rectángulo_34407" data-name="Rectángulo 34407" width="10.143" height="10.143" rx="3.023" transform="translate(42.161 51.41)" fill="#f7fbfd"/>
      <rect id="Rectángulo_34408" data-name="Rectángulo 34408" width="10.143" height="10.143" rx="3.023" transform="translate(11.137 69.309)" fill="#f7fbfd"/>
      <rect id="Rectángulo_34409" data-name="Rectángulo 34409" width="10.143" height="10.143" rx="3.023" transform="translate(26.649 69.284)" fill="#f7fbfd"/>
      <rect id="Rectángulo_34410" data-name="Rectángulo 34410" width="10.143" height="10.143" rx="3.023" transform="translate(42.161 69.309)" fill="#f7fbfd"/>
      <g id="Grupo_91699" data-name="Grupo 91699" transform="translate(11.314 17.519)">
        <g id="Grupo_91696" data-name="Grupo 91696" transform="translate(2.983 4.908)">
          <path id="Trazado_147348" data-name="Trazado 147348" d="M3264.518,987.686a.4.4,0,0,1-.281-.116,1.742,1.742,0,0,0-2.464,0,.4.4,0,0,1-.563-.562,2.538,2.538,0,0,1,3.59,0,.4.4,0,0,1-.281.679Z" transform="translate(-3261.093 -986.263)" fill="#edcc72"/>
        </g>
        <g id="Grupo_91697" data-name="Grupo 91697" transform="translate(1.497 2.411)">
          <path id="Trazado_147349" data-name="Trazado 147349" d="M3254.022,975.833a.4.4,0,0,1-.295-.664,4.438,4.438,0,0,1,6.587,0,.4.4,0,1,1-.59.533,3.642,3.642,0,0,0-5.407,0A.4.4,0,0,1,3254.022,975.833Z" transform="translate(-3253.625 -973.705)" fill="#edcc72"/>
        </g>
        <g id="Grupo_91698" data-name="Grupo 91698">
          <path id="Trazado_147350" data-name="Trazado 147350" d="M3246.492,964.975a.4.4,0,0,1-.344-.6,5.591,5.591,0,0,1,9.681,0,.4.4,0,0,1-.689.4,4.8,4.8,0,0,0-8.3,0A.4.4,0,0,1,3246.492,964.975Z" transform="translate(-3246.095 -961.584)" fill="#edcc72"/>
        </g>
      </g>
      <path id="Trazado_147351" data-name="Trazado 147351" d="M3336.633,963.683a.4.4,0,0,1,.006-.1v-5.909a.275.275,0,0,0-.311-.231l-5.88.82a.21.21,0,0,0-.173.231v5.462a2.557,2.557,0,0,0-.56.063c-.707.164-1.237.6-1.151.965s.715.535,1.422.372,1.211-.6,1.125-.965a.615.615,0,0,0-.041-.1v-4.529l4.773-.639v4.125a2.941,2.941,0,0,0-.6.063c-.707.164-1.256.6-1.171.965s.728.536,1.436.372S3336.718,964.052,3336.633,963.683Z" transform="translate(-3300.841 -940.746)" fill="#f48067"/>
      <rect id="Rectángulo_34411" data-name="Rectángulo 34411" width="7.756" height="5.37" transform="translate(12.33 35.898)" fill="#5169d1"/>
      <path id="Trazado_147352" data-name="Trazado 147352" d="M3258.959,1054H3251.2l3.878,3.679Z" transform="translate(-3238.873 -1018.102)" fill="#1e47b1"/>
      <g id="Grupo_91700" data-name="Grupo 91700" transform="translate(28.455 35.117)">
        <circle id="Elipse_4793" data-name="Elipse 4793" cx="2.196" cy="2.196" r="2.196" transform="translate(2.405)" fill="#f591b5"/>
        <path id="Trazado_147353" data-name="Trazado 147353" d="M3332.384,1069.059l0,0a.326.326,0,0,1,0-.461l3.186-3.186.466.466-3.186,3.186A.326.326,0,0,1,3332.384,1069.059Z" transform="translate(-3332.284 -1062.358)" fill="#f591b5"/>
        <path id="Trazado_147354" data-name="Trazado 147354" d="M3350.133,1055.826a1.592,1.592,0,1,1,0-2.252A1.593,1.593,0,0,1,3350.133,1055.826Z" transform="translate(-3344.406 -1052.504)" fill="#f7fbfd"/>
      </g>
      <g id="Grupo_91702" data-name="Grupo 91702" transform="translate(44.65 34.809)">
        <g id="Grupo_91701" data-name="Grupo 91701">
          <path id="Trazado_147355" data-name="Trazado 147355" d="M3418.882,1049.654l-3.416,6.417h-1.085l3.635-6.661h-4.3v-.887h5.165Z" transform="translate(-3413.717 -1048.524)" fill="#85dfff"/>
        </g>
      </g>
      <g id="Grupo_91710" data-name="Grupo 91710" transform="translate(43.138 52.387)">
        <g id="Grupo_91703" data-name="Grupo 91703">
          <circle id="Elipse_4794" data-name="Elipse 4794" cx="3.996" cy="3.996" r="3.996" transform="translate(0.099 0.099)" fill="#85dfff"/>
          <path id="Trazado_147356" data-name="Trazado 147356" d="M3410.207,1145.1A4.1,4.1,0,1,1,3414.3,1141,4.1,4.1,0,0,1,3410.207,1145.1Zm0-7.991a3.9,3.9,0,1,0,3.9,3.9A3.9,3.9,0,0,0,3410.207,1137.108Z" transform="translate(-3406.112 -1136.909)" fill="#1e47b1"/>
        </g>
        <g id="Grupo_91704" data-name="Grupo 91704" transform="translate(3.996 0.018)">
          <path id="Trazado_147357" data-name="Trazado 147357" d="M3426.7,1145.379l.008-7.96Z" transform="translate(-3426.604 -1137.336)" fill="#f7fbfd"/>
          <path id="Trazado_147358" data-name="Trazado 147358" d="M3426.4,1144.955h-.2l.008-7.955h.2Z" transform="translate(-3426.203 -1137)" fill="#1e47b1"/>
        </g>
        <g id="Grupo_91707" data-name="Grupo 91707" transform="translate(0.416 2.29)">
          <g id="Grupo_91705" data-name="Grupo 91705" transform="translate(0 3.376)">
            <path id="Trazado_147359" data-name="Trazado 147359" d="M3408.438,1165.9l7.239.008Z" transform="translate(-3408.391 -1165.798)" fill="#f7fbfd"/>
            <path id="Trazado_147360" data-name="Trazado 147360" d="M3415.562,1165.6l-7.358-.008v-.2l7.358.008Z" transform="translate(-3408.203 -1165.397)" fill="#1e47b1"/>
          </g>
          <g id="Grupo_91706" data-name="Grupo 91706">
            <path id="Trazado_147361" data-name="Trazado 147361" d="M3408.438,1148.923l7.239.008Z" transform="translate(-3408.391 -1148.824)" fill="#f7fbfd"/>
            <path id="Trazado_147362" data-name="Trazado 147362" d="M3415.562,1148.63l-7.358-.008v-.2l7.358.008Z" transform="translate(-3408.203 -1148.423)" fill="#1e47b1"/>
          </g>
        </g>
        <g id="Grupo_91708" data-name="Grupo 91708" transform="translate(3.996 0.018)">
          <path id="Trazado_147363" data-name="Trazado 147363" d="M3426.2,1145.142v-.2a1.832,1.832,0,0,0,1.7-1.1,6.338,6.338,0,0,0,.054-5.56,1.9,1.9,0,0,0-1.646-1.081h.09v-.2h-.09a2.1,2.1,0,0,1,1.843,1.181,6.574,6.574,0,0,1-.079,5.762A2.1,2.1,0,0,1,3426.2,1145.142Z" transform="translate(-3426.203 -1137)" fill="#1e47b1"/>
        </g>
        <g id="Grupo_91709" data-name="Grupo 91709" transform="translate(1.627 0.002)">
          <path id="Trazado_147364" data-name="Trazado 147364" d="M3416.764,1145.089a2.11,2.11,0,0,1-1.843-1.194,6.591,6.591,0,0,1,.072-5.77,2.1,2.1,0,0,1,1.866-1.206v.2a1.822,1.822,0,0,0-1.694,1.1,6.368,6.368,0,0,0-.05,5.573,1.914,1.914,0,0,0,1.649,1.095h.095v.2Z" transform="translate(-3414.292 -1136.919)" fill="#1e47b1"/>
        </g>
      </g>
      <circle id="Elipse_4795" data-name="Elipse 4795" cx="3.966" cy="3.966" r="3.966" transform="translate(27.754 52.515)" fill="#5169d1"/>
      <circle id="Elipse_4796" data-name="Elipse 4796" cx="3.966" cy="3.966" r="3.966" transform="translate(12.242 52.515)" fill="#f591b5"/>
      <path id="Trazado_147365" data-name="Trazado 147365" d="M3347.8,1144.682h-.6V1141.8a.3.3,0,0,1,.3-.3h.006a.3.3,0,0,1,.3.3Z" transform="translate(-3315.781 -1088.2)" fill="#f7fbfd"/>
      <path id="Trazado_147366" data-name="Trazado 147366" d="M3347.2,1156.6v-.6h2.109c.119,0,.215.132.215.3v.006c0,.163-.1.3-.215.3Z" transform="translate(-3315.781 -1099.817)" fill="#f7fbfd"/>
      <g id="Grupo_91711" data-name="Grupo 91711" transform="translate(14.12 55.189)">
        <rect id="Rectángulo_34412" data-name="Rectángulo 34412" width="4.176" height="0.994" fill="#f7fbfd"/>
        <rect id="Rectángulo_34413" data-name="Rectángulo 34413" width="4.176" height="0.994" transform="translate(0 1.591)" fill="#f7fbfd"/>
      </g>
      <path id="Trazado_147367" data-name="Trazado 147367" d="M3424.374,1232.392H3419.2V1231h4.653a.517.517,0,0,1,.518.517Z" transform="translate(-3373.462 -1159.901)" fill="#b9beed"/>
      <path id="Trazado_147368" data-name="Trazado 147368" d="M3413.706,1239.972h-6.852a.651.651,0,0,1-.651-.651V1235h8.154v4.321A.651.651,0,0,1,3413.706,1239.972Z" transform="translate(-3363.047 -1163.105)" fill="#e5bd5a"/>
      <path id="Trazado_147369" data-name="Trazado 147369" d="M3409.584,1229H3406.2v1.591h4.335Z" transform="translate(-3363.047 -1158.299)" fill="#e5bd5a"/>
      <g id="Grupo_91712" data-name="Grupo 91712" transform="translate(12.33 70.701)">
        <rect id="Rectángulo_34414" data-name="Rectángulo 34414" width="7.756" height="1.591" fill="#5169d1"/>
        <rect id="Rectángulo_34415" data-name="Rectángulo 34415" width="7.756" height="5.767" transform="translate(0 1.591)" fill="#85dfff"/>
        <rect id="Rectángulo_34416" data-name="Rectángulo 34416" width="6.165" height="0.597" rx="0.298" transform="translate(0.795 2.188)" fill="#f7fbfd"/>
        <rect id="Rectángulo_34417" data-name="Rectángulo 34417" width="6.165" height="0.597" rx="0.298" transform="translate(0.795 3.381)" fill="#f7fbfd"/>
        <rect id="Rectángulo_34418" data-name="Rectángulo 34418" width="6.165" height="0.597" rx="0.298" transform="translate(0.795 4.574)" fill="#f7fbfd"/>
      </g>
      <g id="Grupo_91713" data-name="Grupo 91713" transform="translate(28.299 71.486)">
        <circle id="Elipse_4797" data-name="Elipse 4797" cx="1.816" cy="1.816" r="1.816" transform="translate(1.919 3.586) rotate(-80.783)" fill="#e5bd5a"/>
        <path id="Trazado_147370" data-name="Trazado 147370" d="M3337.348,1242.905h-.013a1.474,1.474,0,0,0-1.4-.981,1.492,1.492,0,0,0-.816.234,1.921,1.921,0,1,0-1.693,2.828l3.93-.005a1.045,1.045,0,0,0,1.049-1.04v-.021A1.028,1.028,0,0,0,3337.348,1242.905Z" transform="translate(-3331.5 -1239.514)" fill="#b9beed"/>
      </g>
      <g id="Grupo_91715" data-name="Grupo 91715" transform="translate(44.352 16.559)">
        <path id="Rectángulo_34419" data-name="Rectángulo 34419" d="M1.69,0h0a1.69,1.69,0,0,1,1.69,1.69V3.878a1.69,1.69,0,0,1-1.69,1.69h0A1.69,1.69,0,0,1,0,3.878V1.69A1.69,1.69,0,0,1,1.69,0Z" transform="translate(1.19)" fill="#1e47b1"/>
        <rect id="Rectángulo_34420" data-name="Rectángulo 34420" width="0.597" height="2.386" transform="translate(2.583 4.622)" fill="#1e47b1"/>
        <g id="Grupo_91714" data-name="Grupo 91714" transform="translate(0 5.071)">
          <path id="Trazado_147371" data-name="Trazado 147371" d="M3415.1,985.436a2.884,2.884,0,0,1-2.881-2.881.3.3,0,0,1,.6,0,2.284,2.284,0,0,0,4.569,0,.3.3,0,0,1,.6,0A2.884,2.884,0,0,1,3415.1,985.436Z" transform="translate(-3412.217 -982.257)" fill="#1e47b1"/>
        </g>
      </g>
      <g id="Grupo_91716" data-name="Grupo 91716" transform="translate(25.712 2.686)">
        <circle id="Elipse_4798" data-name="Elipse 4798" cx="2.386" cy="2.386" r="2.386" fill="#5169d1"/>
        <circle id="Elipse_4799" data-name="Elipse 4799" cx="1.392" cy="1.392" r="1.392" transform="translate(9.233 0.994)" fill="#5169d1"/>
      </g>
    </g>
    <g id="Grupo_91718" data-name="Grupo 91718" transform="translate(2944.079 768.77)">
      <circle id="Elipse_4800" data-name="Elipse 4800" cx="21.875" cy="21.875" r="21.875" transform="translate(0)" fill="#85dfff"/>
      <circle id="Elipse_4801" data-name="Elipse 4801" cx="19.993" cy="19.993" r="19.993" transform="translate(1.882 1.882)" fill="#edcc72"/>
      <circle id="Elipse_4802" data-name="Elipse 4802" cx="7.626" cy="7.626" r="7.626" transform="translate(14.249 14.249)" fill="#f7fbfd"/>
      <path id="Trazado_147372" data-name="Trazado 147372" d="M3528.939,1181h-.021c-.557,0-.994.328-.994.747v9.829l-9.453,9.445a1.009,1.009,0,0,0,0,1.427l.012.014a1.01,1.01,0,0,0,1.426.05l10.027-9.979h-.02v-10.787C3529.914,1181.328,3529.5,1181,3528.939,1181Z" transform="translate(-3507.055 -1170.561)" fill="#2b2b72"/>
      <circle id="Elipse_4803" data-name="Elipse 4803" cx="2.039" cy="2.039" r="2.039" transform="translate(19.836 19.836)" fill="#2b2b72"/>
    </g>
    <g id="Grupo_91720" data-name="Grupo 91720" transform="translate(2966.541 745.004)">
      <path id="Trazado_147373" data-name="Trazado 147373" d="M3594.575,1009h6.307a3.128,3.128,0,0,1,3.157,3.1v2.87h5.171v-1.17a2.849,2.849,0,0,1,2.971-2.808h2.779a2.875,2.875,0,0,1,3,2.808v8.567a2.987,2.987,0,0,1-3,2.944h-2.779a2.961,2.961,0,0,1-2.971-2.944v-1.232h-5.171v5.615a2.164,2.164,0,0,1-2.137,2.141h-.647v6.165h-3.381v-6.165h-.787a2.038,2.038,0,0,1-2-2.093v-9.748c-4.375-.87-14.916-.163-19.887,3.754v-.09C3576.794,1014.055,3586.579,1009,3594.575,1009Z" transform="translate(-3575.203 -1009)" fill="#fff"/>
      <g id="Grupo_91719" data-name="Grupo 91719" transform="translate(18.495 25.058)">
        <path id="Trazado_147374" data-name="Trazado 147374" d="M3668.2,1141.794v32.331a2.684,2.684,0,0,0,2.459,2.838h6.856a2.653,2.653,0,0,0,2.418-2.838v-32.331c0-3.753-2.591-6.794-5.788-6.794h-.117C3670.835,1135,3668.2,1138.041,3668.2,1141.794Z" transform="translate(-3668.203 -1135)" fill="#5169d1"/>
        <circle id="Elipse_4804" data-name="Elipse 4804" cx="3.116" cy="3.116" r="3.116" transform="translate(2.751 32.881)" fill="#f7fbfd"/>
        <rect id="Rectángulo_34421" data-name="Rectángulo 34421" width="11.734" height="1.79" transform="translate(0 8.154)" fill="#f7fbfd"/>
        <rect id="Rectángulo_34422" data-name="Rectángulo 34422" width="11.734" height="1.79" transform="translate(0 12.529)" fill="#f7fbfd"/>
      </g>
    </g>
    <rect id="Rectángulo_34423" data-name="Rectángulo 34423" width="204.836" height="3.381" rx="1.69" transform="translate(2827.022 812.559)" fill="#b9beed"/>
    <g id="Grupo_91721" data-name="Grupo 91721" transform="translate(2998.457 780.664)">
      <rect id="Rectángulo_34424" data-name="Rectángulo 34424" width="9.739" height="2.345" rx="1.172" transform="translate(8.456 19.838)" fill="#1e47b1"/>
      <path id="Trazado_147375" data-name="Trazado 147375" d="M3771.726,1195.906a6.93,6.93,0,0,0-1.623,3.72c-.07,1.579-.312,3.37-.53,4.931-.228,1.631-.421,3.233-.676,4.853-.12.765-.654,1.527.01,2.2.623.627,2.018.689,2.843.826a23.774,23.774,0,0,0,3.969.36,8.439,8.439,0,0,0,2.944-.554,4.121,4.121,0,0,0,1.9-1.341c.649-.749.313-.858-.047-1.756a21.57,21.57,0,0,1-.721-2.255,18.394,18.394,0,0,1-.489-2.161,31.8,31.8,0,0,1-.638-4.624,5.208,5.208,0,0,0-.8-2.938Z" transform="translate(-3762.039 -1194.395)" fill="#2e1a14"/>
      <path id="Trazado_147376" data-name="Trazado 147376" d="M3792.368,1242.983h-3.779a6.337,6.337,0,0,0,.535-2.983h2.866A7.176,7.176,0,0,0,3792.368,1242.983Z" transform="translate(-3778.069 -1229.72)" fill="url(#linear-gradient)"/>
      <path id="Trazado_147377" data-name="Trazado 147377" d="M3786.269,1207.295l-.99.775a1.236,1.236,0,0,1-1.576,0l-.99-.775a4.617,4.617,0,0,1-1.6-3.63v-4.642h6.751v4.642A4.616,4.616,0,0,1,3786.269,1207.295Z" transform="translate(-3772.08 -1196.892)" fill="#edcc72"/>
      <path id="Trazado_147378" data-name="Trazado 147378" d="M3768.247,1267.309h-17.888l-1.042-7.1a11.294,11.294,0,0,1,4.151-7.852,26.807,26.807,0,0,1,4.008-2,1.459,1.459,0,0,1,.529-.1h2.72a1.445,1.445,0,0,1,.508.09,20.847,20.847,0,0,1,3.918,2.006,10.147,10.147,0,0,1,3.564,7.568Z" transform="translate(-3746.605 -1237.94)" fill="#85dfff"/>
      <path id="Trazado_147379" data-name="Trazado 147379" d="M3742.033,1346.08c-.385,0-.77,0-1.155,0a5.72,5.72,0,0,0-1.266.281,10.112,10.112,0,0,0-2.475.8c-.735.41-1.583,1.127-1.435,2.07.152.966,1.459.908,2.169.659.866-.3,1.744-.468,2.588-.841.377-.167.917-.3,1.292-.473.749-.342.495-.4.911-.366Z" transform="translate(-3735.686 -1314.703)" fill="#0c110b"/>
      <path id="Trazado_147380" data-name="Trazado 147380" d="M3811.061,1239c.646.8.02,1.437-.144,2.2s.19,2.043,1.037,2.241a1.806,1.806,0,0,1,.152-2.207,2.272,2.272,0,0,0,.458-1.192c.025-.508-.2-.649-.451-1.046Z" transform="translate(-3795.925 -1228.919)" fill="#2e1a14"/>
      <path id="Trazado_147381" data-name="Trazado 147381" d="M3835.679,1348.8c.385,0,.77,0,1.155,0a5.71,5.71,0,0,1,1.266.281,10.118,10.118,0,0,1,2.474.8c.735.409,1.121.665.973,1.608-.152.967-2.277.931-2.987.682-.866-.3-.463-.028-1.307-.4-.377-.167-.917-.3-1.292-.473-.749-.342-.495-.4-.911-.366Z" transform="translate(-3815.289 -1316.882)" fill="#0c110b"/>
      <path id="Trazado_147382" data-name="Trazado 147382" d="M3768.547,1271.081v11.831h-20.2v-11.831a1.154,1.154,0,0,1,1.154-1.154h17.891A1.154,1.154,0,0,1,3768.547,1271.081Z" transform="translate(-3745.83 -1253.695)" fill="#5169d1"/>
      <path id="Trazado_147383" data-name="Trazado 147383" d="M3765.705,1323.655l-.655-2.336,16-5.814c5.366-1.5,6.712,3.3,1.346,4.8Z" transform="translate(-3759.21 -1289.979)" fill="#f48067"/>
      <path id="Trazado_147384" data-name="Trazado 147384" d="M3755.794,1326.376l.655-2.337-16-5.814c-5.366-1.5-6.712,3.3-1.346,4.8Z" transform="translate(-3735.686 -1292.158)" fill="#f48067"/>
      <rect id="Rectángulo_34425" data-name="Rectángulo 34425" width="3.607" height="3.607" transform="translate(10.634 20.921)" fill="#f7fbfd"/>
      <path id="Trazado_147385" data-name="Trazado 147385" d="M3772.4,1192.1l-.5,2.512c.873.509,2.914.351,4.766-1.5a15.211,15.211,0,0,0,1.546-1.489c.224.36,1.853,3.567,3.676,3.277l-.547-3.543a3.52,3.52,0,0,0-1.559-2.458,6.132,6.132,0,0,0-5.4.086A4.892,4.892,0,0,0,3772.4,1192.1Z" transform="translate(-3764.698 -1188.31)" fill="#2e1a14"/>
      <path id="Trazado_147386" data-name="Trazado 147386" d="M3782.458,1247c-.646.8-.02,1.453.143,2.22s-.19,2.051-1.037,2.25a1.8,1.8,0,0,0-.151-2.2,2.322,2.322,0,0,1-.458-1.207c-.025-.507.2-.663.451-1.06Z" transform="translate(-3771.951 -1235.328)" fill="#2e1a14"/>
    </g>
    <g id="Grupo_91723" data-name="Grupo 91723" transform="translate(2896.261 692.586)">
      <path id="Trazado_147387" data-name="Trazado 147387" d="M3308.5,748.693c.487-.189.95.826.961,1.4.019,1.043-.495.412-.664.721-.447.816-1.407.834-2.082,1.458-.368.341-.866.478-1.188.855a1.912,1.912,0,0,0-.277,1.563c.21,1.484,1.6,2.007,2.53,3a6.572,6.572,0,0,1,.849,1.531,2.039,2.039,0,0,0,.949.95c.688.416,1.917,1.084,2.724.643,1.015-.554.338-2.052.136-2.867-.237-.958.209-1.724.189-2.736a25.042,25.042,0,0,0-.152-4.894c-.265-1.27-.259-3.145-1.062-4.249s-2.975-.485-4.23-.3a.774.774,0,0,1-.213,0c-.408-.051-.8-.391-1.519.189a1.318,1.318,0,0,0,.62,2.332c.714.176.954-.52,1.531-.017A1.383,1.383,0,0,0,3308.5,748.693Z" transform="translate(-3288.415 -745.428)" fill="#2e1a14"/>
      <g id="Grupo_91722" data-name="Grupo 91722" transform="translate(18.605 6.98)">
        <path id="Trazado_147388" data-name="Trazado 147388" d="M3317.75,783.657c-.028-.891-.282-2.217-.214-3.13l-1.82.445a2.834,2.834,0,0,1-.352,2.063Z" transform="translate(-3315.365 -780.527)" fill="url(#linear-gradient-2)"/>
      </g>
      <path id="Trazado_147389" data-name="Trazado 147389" d="M3301.363,804.909l-1.558-.177-3.716-.424c.222.026.4-1.156.416-1.281.115-.778.151-1.568.19-2.353a25.03,25.03,0,0,1,.455-5.292c.334-1.647.422-2.814,1.916-3.168a6.681,6.681,0,0,1,1.954.057,10,10,0,0,1,2.656.835c1.062.816.569,1.574.341,2.352a35.422,35.422,0,0,0-1.192,4.749c-.126.758-.246,1.516-.314,2.281a5.034,5.034,0,0,1-.466,2.455C3301.958,805.05,3301.682,804.945,3301.363,804.909Z" transform="translate(-3281.318 -782.863)" fill="#5169d1"/>
      <path id="Trazado_147390" data-name="Trazado 147390" d="M3224.821,863.607c-.019.738-.807.777-1.379.766-.467-.008-1.444.046-1.609.659s.8.607,1.272.614c.65.011,1.279-.031,1.913-.077.5-.036,1.091.088,1.454-.309.345-.378-.112-1.253.021-1.461Z" transform="translate(-3221.813 -840.104)" fill="#0c110b"/>
      <path id="Trazado_147391" data-name="Trazado 147391" d="M3306.344,753.774c-.192.978-.344,1.935-.523,2.918-.05.272-.508.873-.511,1.16s.431.253.5.562c.193.834.234,2.03,1.026,1.813a7.847,7.847,0,0,0,2.97-1.318l.532-1.732-.568-.887-.9-1.8Z" transform="translate(-3288.705 -752.114)" fill="#edcc72"/>
      <path id="Trazado_147392" data-name="Trazado 147392" d="M3269,933.982c.844.161,1-.551,1.138-1a15.717,15.717,0,0,0,.4-1.874c.083-.492.4-1.02-.023-1.518a1.315,1.315,0,0,0-1.646-.308S3267.757,933.746,3269,933.982Z" transform="translate(-3259.143 -892.576)" fill="#0c110b"/>
      <path id="Trazado_147393" data-name="Trazado 147393" d="M3239.806,818.685c1-.574,2.052.006,2.949.477a48.113,48.113,0,0,1,8.289,5.977c.731.613,2.387.709,3.3.865a5.378,5.378,0,0,1-.038,2.846c-.272.932-1.536.581-2.523.892-1.624.511-3.642.645-5.862,1.783-.493,2.921-.323,5.312-.778,9.713l-1.916-.038c-.114-3.3-.569-10.149.114-11.192a10.183,10.183,0,0,1,4.439-2.713c-.413.417-4.1-3-5.716-4.686a15.066,15.066,0,0,0-1.472-1.349c-.809,2.191-1.677,4.375-2.373,6.6l-1.67-.19a22.27,22.27,0,0,1,1.612-6.553,6.447,6.447,0,0,1,1.27-2.153A1.86,1.86,0,0,1,3239.806,818.685Z" transform="translate(-3233.623 -803.925)" fill="#1e47b1"/>
      <path id="Trazado_147394" data-name="Trazado 147394" d="M3353.223,868.519a12.2,12.2,0,0,1,1.2-.344,8.231,8.231,0,0,1,1.159,0c.329,0,.912-.108,1.168.147.508.506-.194.711-.581.726-.814.031-1.306.076-2.116.076-.264,0-1.156.069-1.293-.2-.2-.388.8-.409,1.029-.523Z" transform="translate(-3326.7 -843.745)" fill="#edcc72"/>
      <path id="Trazado_147395" data-name="Trazado 147395" d="M3328.35,797.248c.519.209.87,1.067,1.142,1.528.395.669,1,5.631,1.319,6.339,1.376,3.042,1.328,4.61,2.447,6.355a10.5,10.5,0,0,1-1.2.569c-.728-1.105-3.249-5.775-3.415-6.127-1.442-3.073-1.1-3.367-1.765-5.982Z" transform="translate(-3305.987 -786.943)" fill="#5169d1"/>
      <path id="Trazado_147396" data-name="Trazado 147396" d="M3254.936,815.318c-.537-.2-4.2-1.214-3.351.379.135.252.525-.1.91-.019.337.068.417.038.7.114s.951.3,1.2.4C3254.518,816.232,3254.936,815.318,3254.936,815.318Z" transform="translate(-3245.562 -801.016)" fill="#edcc72"/>
      <path id="Trazado_147397" data-name="Trazado 147397" d="M3274.591,792.9c-.946.177-2.095,2.271-2.437,2.972-.427.876-.9,2.117-1.338,2.989a7.861,7.861,0,0,1-2.163-.417c-.63-.273-1.687-.967-2.353-.683a.677.677,0,0,0-.076,1.176c1.112.4,2.278,1.132,3.342,1.646,1.144.553,1.64.947,2.555-.139a5.359,5.359,0,0,0,1.349-1.773Z" transform="translate(-3257.147 -783.46)" fill="#5169d1"/>
      <path id="Trazado_147398" data-name="Trazado 147398" d="M3308.06,752.169c.3.433.293.8.883.835.4.024.8-.029,1.2-.038a1.376,1.376,0,0,1,1.146.564c.131.128.082.442.2.688.082.176.089.461.228.4.759-.342.54,1.018.284,1.214-.365.281-.693-.18-.634.37a3.192,3.192,0,0,0,.463,1.338c.268.388.6.554.751,1.005l.652-7.209-4.78.038Z" transform="translate(-3290.908 -750.16)" fill="#2e1a14"/>
    </g>
    <g id="Grupo_91728" data-name="Grupo 91728" transform="translate(2815.445 733.112)">
      <g id="Grupo_91724" data-name="Grupo 91724" transform="translate(0 0)">
        <path id="Trazado_147399" data-name="Trazado 147399" d="M2816.165,961.694l10.2-5.47a.5.5,0,0,0,0-.859l-9.977-6.086c-.549-.335-1.01.525-.463.859,3.325,2.029,6.634,4.057,10.015,6.086v-.859c-3.381,1.823-6.836,3.647-10.235,5.47a.488.488,0,0,0,.464.859Z" transform="translate(-2815.445 -949.204)" fill="#b9beed"/>
      </g>
      <g id="Grupo_91725" data-name="Grupo 91725" transform="translate(5.054 0.154)">
        <path id="Trazado_147400" data-name="Trazado 147400" d="M2841.627,962.468l10.2-5.47a.5.5,0,0,0,0-.859l-9.976-6.086a.505.505,0,0,0-.531.859c3.326,2.029,6.767,4.057,9.949,6.086v-.859q-5.071,2.735-10.169,5.47c-.565.3-.035,1.162.53.859Z" transform="translate(-2840.855 -949.977)" fill="#b9beed"/>
      </g>
      <g id="Grupo_91726" data-name="Grupo 91726" transform="translate(10.184 0.308)">
        <path id="Trazado_147401" data-name="Trazado 147401" d="M2867.4,963.241l10.2-5.47a.5.5,0,0,0,0-.859l-9.976-6.086c-.55-.335-1.044.525-.5.859,3.325,2.029,6.6,4.057,9.981,6.086v-.859c-3.381,1.823-6.8,3.647-10.2,5.47-.565.3-.068,1.162.5.859Z" transform="translate(-2866.652 -950.751)" fill="#b9beed"/>
      </g>
      <g id="Grupo_91727" data-name="Grupo 91727" transform="translate(15.314 0.462)">
        <path id="Trazado_147402" data-name="Trazado 147402" d="M2893.168,964.015l10.2-5.47a.5.5,0,0,0,0-.859l-9.977-6.086c-.549-.335-1.011.525-.464.859,3.326,2.029,6.634,4.057,10.015,6.086v-.859c-3.381,1.823-6.836,3.647-10.235,5.47a.488.488,0,0,0,.464.859Z" transform="translate(-2892.447 -951.525)" fill="#b9beed"/>
      </g>
    </g>
    <g id="Grupo_91729" data-name="Grupo 91729" transform="translate(2873.239 679.468)">
      <circle id="Elipse_4805" data-name="Elipse 4805" cx="7.24" cy="7.24" r="7.24" transform="translate(0 0)" fill="#b9beed"/>
      <circle id="Elipse_4806" data-name="Elipse 4806" cx="3.873" cy="3.873" r="3.873" transform="translate(3.366 3.366)" fill="#e3e9ff"/>
    </g>
    <g id="Grupo_91730" data-name="Grupo 91730" transform="translate(2930.258 697.885)">
      <path id="Trazado_147403" data-name="Trazado 147403" d="M3465.577,821.535a.688.688,0,0,1-.146-.015.7.7,0,0,1-.536-.826q.041-.191.08-.383a.7.7,0,0,1,1.364.277q-.04.2-.082.4A.7.7,0,0,1,3465.577,821.535Zm.693-4.519a.661.661,0,0,1-.066,0,.7.7,0,0,1-.627-.759q.019-.194.035-.389a.7.7,0,0,1,1.387.117c-.012.135-.024.269-.036.4A.7.7,0,0,1,3466.27,817.017Zm.171-4.585a.689.689,0,0,1-.7-.674c0-.13-.005-.257-.009-.387a.7.7,0,0,1,1.392-.037c0,.135.007.262.01.4a.685.685,0,0,1-.683.7Zm-.346-4.54a.7.7,0,0,1-.689-.6q-.026-.194-.054-.387a.7.7,0,0,1,1.378-.2q.029.2.056.4a.7.7,0,0,1-.6.782A.708.708,0,0,1,3466.095,807.892Zm-.865-4.487a.7.7,0,0,1-.674-.525q-.048-.19-.1-.378a.7.7,0,0,1,1.346-.355q.052.2.1.392a.7.7,0,0,1-.675.867Zm-1.377-4.359a.7.7,0,0,1-.65-.448c-.047-.122-.094-.244-.142-.365a.7.7,0,1,1,1.3-.51q.075.189.147.38a.7.7,0,0,1-.65.944Zm-1.873-4.172a.7.7,0,0,1-.618-.375q-.09-.174-.183-.347a.7.7,0,0,1,1.229-.654q.1.179.189.359a.7.7,0,0,1-.617,1.018Zm-68.522-3.6a.7.7,0,0,1-.58-1.08q.112-.169.225-.336a.7.7,0,0,1,1.153.78q-.109.162-.217.324A.7.7,0,0,1,3393.458,791.274Zm66.182-.328a.7.7,0,0,1-.577-.306q-.109-.162-.221-.323a.7.7,0,1,1,1.146-.791q.115.166.229.334a.7.7,0,0,1-.576,1.086Zm-63.445-3.332a.7.7,0,0,1-.532-1.144q.13-.155.262-.308a.7.7,0,1,1,1.056.907q-.127.148-.253.3A.7.7,0,0,1,3396.2,787.614Zm60.67-.3a.694.694,0,0,1-.528-.243q-.127-.149-.256-.3a.7.7,0,0,1,1.048-.917l.265.306a.7.7,0,0,1-.528,1.149Zm-57.532-3.022a.7.7,0,0,1-.478-1.2q.147-.139.3-.277a.7.7,0,1,1,.946,1.021c-.1.089-.19.177-.285.267A.7.7,0,0,1,3399.333,784.29Zm54.362-.271a.693.693,0,0,1-.473-.185l-.288-.264a.7.7,0,0,1,.937-1.03l.3.273a.7.7,0,0,1-.473,1.207Zm-50.865-2.674a.7.7,0,0,1-.418-1.253c.108-.081.217-.161.326-.242a.7.7,0,0,1,.823,1.123l-.314.232A.692.692,0,0,1,3402.83,781.345Zm47.34-.235a.692.692,0,0,1-.411-.135l-.316-.229a.7.7,0,1,1,.812-1.131l.327.237a.7.7,0,0,1-.412,1.257Zm-43.53-2.291a.7.7,0,0,1-.351-1.3l.351-.2a.7.7,0,0,1,.689,1.209l-.339.2A.692.692,0,0,1,3406.64,778.818Zm39.7-.2a.692.692,0,0,1-.344-.091l-.34-.191a.7.7,0,0,1,.677-1.216l.352.2a.7.7,0,0,1-.345,1.3Zm-35.621-1.877a.7.7,0,0,1-.28-1.334l.373-.161a.7.7,0,0,1,.545,1.281l-.359.155A.7.7,0,0,1,3410.716,776.746Zm31.529-.154a.691.691,0,0,1-.273-.056l-.359-.151a.7.7,0,0,1,.532-1.286l.372.156a.7.7,0,0,1-.273,1.337ZM3415,775.157a.7.7,0,0,1-.2-1.362l.389-.117a.7.7,0,0,1,.393,1.335l-.376.113A.7.7,0,0,1,3415,775.157Zm22.942-.11a.7.7,0,0,1-.2-.029l-.376-.109a.7.7,0,0,1,.381-1.339l.388.113a.7.7,0,0,1-.2,1.364Zm-18.5-.972a.7.7,0,0,1-.125-1.381l.4-.071a.7.7,0,1,1,.236,1.372l-.386.068A.7.7,0,0,1,3419.449,774.075Zm14.047-.066a.725.725,0,0,1-.12-.01l-.385-.065a.7.7,0,0,1,.223-1.374l.4.067a.7.7,0,0,1-.118,1.382Zm-9.51-.5a.7.7,0,0,1-.045-1.391l.4-.025a.7.7,0,1,1,.079,1.39l-.39.024Zm4.969-.023h-.04l-.391-.02a.7.7,0,1,1,.065-1.39l.4.021a.7.7,0,0,1-.039,1.391Z" transform="translate(-3392.762 -772.075)" fill="#1d243a"/>
    </g>
    <g id="Grupo_91731" data-name="Grupo 91731" transform="translate(2825.861 759.53)">
      <path id="Trazado_147404" data-name="Trazado 147404" d="M2892.3,1088.253l-3.872,1.609a.971.971,0,0,1-1.1-.265c-.141-.159-.3-.3-.449-.453a.972.972,0,0,1-.205-1.051l1.594-3.861a.689.689,0,0,0-.374-.9l-3-1.239a.688.688,0,0,0-.9.374l-1.615,3.911a.992.992,0,0,1-1.042.59,1.8,1.8,0,0,0-.2-.006,1.436,1.436,0,0,1-1.341-.88l-1.5-3.609a.689.689,0,0,0-.9-.371l-3,1.246a.689.689,0,0,0-.372.9l1.623,3.905a.972.972,0,0,1-.223,1.073c-.153.148-.293.283-.437.441a.973.973,0,0,1-1.09.245l-3.882-1.6a.688.688,0,0,0-.9.374l-1.239,3a.688.688,0,0,0,.374.9l3.559,1.482a1.409,1.409,0,0,1,.851,1.335v.019a1.407,1.407,0,0,1-.848,1.331l-3.583,1.5a.684.684,0,0,0-.363.9l1.25,3a.69.69,0,0,0,.9.371l3.845-1.6a.974.974,0,0,1,1.066.212c.151.153.3.312.459.457a.974.974,0,0,1,.253,1.1l-1.591,3.854a.689.689,0,0,0,.374.9l3,1.239a.688.688,0,0,0,.9-.374l1.577-3.819a.974.974,0,0,1,.938-.6c.218.008.433.01.649,0a.974.974,0,0,1,.943.6l1.585,3.814a.689.689,0,0,0,.9.372l3-1.246a.689.689,0,0,0,.372-.9l-1.581-3.8a.977.977,0,0,1,.247-1.095c.155-.142.3-.292.448-.447a.974.974,0,0,1,1.083-.238l3.836,1.583a.688.688,0,0,0,.9-.374l1.239-3a.688.688,0,0,0-.374-.9l-3.837-1.584a.972.972,0,0,1-.6-.927c.006-.225.007-.454-.005-.678a.968.968,0,0,1,.6-.945l3.826-1.59a.688.688,0,0,0,.371-.9l-1.246-3A.688.688,0,0,0,2892.3,1088.253Zm-7.47,11.754a5.9,5.9,0,1,1,.956-8.287A5.9,5.9,0,0,1,2884.833,1100.007Z" transform="translate(-2867.824 -1082.042)" fill="#1e47b1"/>
      <path id="Trazado_147405" data-name="Trazado 147405" d="M2920.127,1127.938a4.559,4.559,0,1,1-6.4-.739A4.558,4.558,0,0,1,2920.127,1127.938Z" transform="translate(-2903.212 -1117.428)" fill="#1e47b1"/>
      <circle id="Elipse_4807" data-name="Elipse 4807" cx="2.985" cy="2.985" r="2.985" transform="translate(10.036 15.966) rotate(-83.421)" fill="#85dfff"/>
    </g>
  </g>
</svg>
