<svg xmlns="http://www.w3.org/2000/svg" width="76" height="76" viewBox="0 0 76 76">
  <g id="Grupo_92605" data-name="Grupo 92605" transform="translate(-915 -6900)">
    <circle id="Elipse_4838" data-name="Elipse 4838" cx="38" cy="38" r="38" transform="translate(915 6900)" fill="#3e2ea6"/>
    <g id="Grupo_91883" data-name="Grupo 91883" transform="translate(925.122 6911.82)">
      <g id="Grupo_91860" data-name="Grupo 91860" transform="translate(8.098 24.753)">
        <path id="Trazado_147613" data-name="Trazado 147613" d="M57.865,41.652c-.868,0-4.116-.6-21.5-3.956a1.285,1.285,0,0,1-1.04-1.259V22.744a1.277,1.277,0,0,1,.517-1.027,10.912,10.912,0,0,1,6.448-2.028c4.493,0,8.125,2.571,8.953,6.143H61.616a3.533,3.533,0,0,1,3.791,3.758v.093l11.478-5.242a4.373,4.373,0,0,1,5.766,2.373h0a4.374,4.374,0,0,1-2.392,5.719L58.23,41.579A.754.754,0,0,1,57.865,41.652ZM37.891,35.376c7.469,1.438,17.794,3.4,19.676,3.7l21.717-8.92a1.825,1.825,0,0,0,.994-2.373h0a1.821,1.821,0,0,0-2.373-.994L63.949,33.169a3.366,3.366,0,0,1-1.339.278,1.283,1.283,0,0,1-.113-2.558c.318-.033.345-.437.345-.437V29.63c-.026-.934-.311-1.226-1.226-1.226H50.138a1.292,1.292,0,0,1-1.286-1.219c-.139-2.81-2.962-4.924-6.561-4.924a8.494,8.494,0,0,0-4.4,1.173Z" transform="translate(-35.326 -19.689)" fill="#fff"/>
      </g>
      <g id="Grupo_91861" data-name="Grupo 91861" transform="translate(22.559 35.946)">
        <path id="Trazado_147614" data-name="Trazado 147614" d="M38.787,23.956a1.282,1.282,0,0,1,0-2.565l11.571-.013h0a1.282,1.282,0,1,1,0,2.565l-11.564.013Z" transform="translate(-37.508 -21.378)" fill="#fff"/>
      </g>
      <g id="Grupo_91862" data-name="Grupo 91862" transform="translate(0 23.454)">
        <path id="Trazado_147615" data-name="Trazado 147615" d="M43.481,40.415H35.39A1.287,1.287,0,0,1,34.1,39.129V20.779a1.287,1.287,0,0,1,1.286-1.286h8.092a1.287,1.287,0,0,1,1.286,1.286V39.129A1.287,1.287,0,0,1,43.481,40.415ZM36.675,37.85H42.2V22.064H36.675Z" transform="translate(-34.104 -19.493)" fill="#fff"/>
      </g>
      <g id="Grupo_91863" data-name="Grupo 91863" transform="translate(26.882 0)">
        <path id="Trazado_147616" data-name="Trazado 147616" d="M56.111,38.049a1.26,1.26,0,0,1-.6-.146l-5.772-3.035L43.977,37.9a1.284,1.284,0,0,1-1.862-1.352l1.1-6.422-4.666-4.553a1.283,1.283,0,0,1,.709-2.187l6.448-.941L48.6,16.61a1.336,1.336,0,0,1,2.3,0l2.883,5.839,6.448.941a1.276,1.276,0,0,1,1.04.875,1.3,1.3,0,0,1-.325,1.312L56.27,30.13l1.107,6.422a1.3,1.3,0,0,1-.51,1.253A1.27,1.27,0,0,1,56.111,38.049ZM42.2,25.557l3.287,3.2a1.284,1.284,0,0,1,.371,1.14l-.775,4.52,4.062-2.134a1.267,1.267,0,0,1,1.193,0L54.4,34.417l-.775-4.52A1.321,1.321,0,0,1,54,28.758l3.287-3.2-4.54-.663a1.284,1.284,0,0,1-.968-.7l-2.035-4.115-2.028,4.115a1.3,1.3,0,0,1-.968.7Z" transform="translate(-38.16 -15.954)" fill="#fff"/>
      </g>
    </g>
  </g>
</svg>
