<svg xmlns="http://www.w3.org/2000/svg" width="76" height="76" viewBox="0 0 76 76">
  <g id="Grupo_92604" data-name="Grupo 92604" transform="translate(-609 -6900)">
    <circle id="Elipse_4837" data-name="Elipse 4837" cx="38" cy="38" r="38" transform="translate(609 6900)" fill="#3e2ea6"/>
    <g id="Grupo_91884" data-name="Grupo 91884" transform="translate(630.797 6909.684)">
      <g id="Grupo_91865" data-name="Grupo 91865" transform="translate(13.603 25.766)">
        <path id="Trazado_147617" data-name="Trazado 147617" d="M63.922,37.739a1.446,1.446,0,0,1-1.45-1.45V20.758a1.454,1.454,0,1,1,2.908,0V36.289A1.453,1.453,0,0,1,63.922,37.739Z" transform="translate(-62.472 -19.3)" fill="#fff"/>
      </g>
      <g id="Grupo_91866" data-name="Grupo 91866" transform="translate(10.342 22.512)">
        <path id="Trazado_147618" data-name="Trazado 147618" d="M66.749,25.036a4.72,4.72,0,0,1-4.711-4.719,1.454,1.454,0,0,1,2.908,0,1.807,1.807,0,0,0,3.614,0,1.454,1.454,0,0,1,2.908,0A4.727,4.727,0,0,1,66.749,25.036Z" transform="translate(-62.038 -18.867)" fill="#fff"/>
      </g>
      <g id="Grupo_91867" data-name="Grupo 91867" transform="translate(0 10.234)">
        <path id="Trazado_147619" data-name="Trazado 147619" d="M69.936,51.211h-1.2a1.463,1.463,0,0,1-1.458-1.5,8.489,8.489,0,0,0-1.255-4.584,16.9,16.9,0,0,0-1.4-1.856,20.512,20.512,0,0,1-1.593-2.119A15.975,15.975,0,0,1,65.037,21.8a14.727,14.727,0,0,1,21.325,0,15.467,15.467,0,0,1,2.885,4.185A16.089,16.089,0,0,1,90.36,36.266a14.859,14.859,0,0,1-1.946,4.771,23.6,23.6,0,0,1-1.57,2.126c-.481.594-.932,1.165-1.322,1.758a8.594,8.594,0,0,0-1.405,4.794,1.454,1.454,0,1,1-2.908.075,11.491,11.491,0,0,1,1.871-6.447,24.853,24.853,0,0,1,1.5-2.006,22.807,22.807,0,0,0,1.383-1.856,12.053,12.053,0,0,0,1.563-3.84,13.18,13.18,0,0,0-.9-8.416,12.527,12.527,0,0,0-2.352-3.4,11.814,11.814,0,0,0-17.14,0A13.05,13.05,0,0,0,65.5,39.617a18,18,0,0,0,1.375,1.811A18.488,18.488,0,0,1,68.5,43.607a11.623,11.623,0,0,1,1.615,4.7,1.456,1.456,0,0,1-.18,2.9Z" transform="translate(-60.662 -17.233)" fill="#fff"/>
      </g>
      <g id="Grupo_91870" data-name="Grupo 91870" transform="translate(1.707 1.715)">
        <g id="Grupo_91868" data-name="Grupo 91868">
          <path id="Trazado_147620" data-name="Trazado 147620" d="M68.156,23a1.425,1.425,0,0,1-.819-.255l-5.816-3.99a1.457,1.457,0,0,1,1.646-2.4l5.816,3.99A1.458,1.458,0,0,1,68.156,23Z" transform="translate(-60.889 -16.099)" fill="#fff"/>
        </g>
        <g id="Grupo_91869" data-name="Grupo 91869" transform="translate(17.954)">
          <path id="Trazado_147621" data-name="Trazado 147621" d="M64.734,23a1.458,1.458,0,0,1-.827-2.66l5.816-3.99a1.457,1.457,0,1,1,1.646,2.4l-5.808,3.99A1.466,1.466,0,0,1,64.734,23Z" transform="translate(-63.278 -16.099)" fill="#fff"/>
        </g>
      </g>
      <g id="Grupo_91871" data-name="Grupo 91871" transform="translate(13.588 0)">
        <path id="Trazado_147622" data-name="Trazado 147622" d="M63.928,23.858a1.453,1.453,0,0,1-1.458-1.45V17.329a1.458,1.458,0,1,1,2.915,0v5.079A1.453,1.453,0,0,1,63.928,23.858Z" transform="translate(-62.47 -15.871)" fill="#fff"/>
      </g>
      <g id="Grupo_91872" data-name="Grupo 91872" transform="translate(4.939 41.297)">
        <path id="Trazado_147623" data-name="Trazado 147623" d="M77.933,30.835H64.918a3.6,3.6,0,0,1-3.6-3.6V24.966a3.6,3.6,0,0,1,3.6-3.6H77.933a3.6,3.6,0,0,1,3.6,3.6v2.269A3.6,3.6,0,0,1,77.933,30.835Zm-13.014-6.56a.7.7,0,0,0-.691.691v2.269a.693.693,0,0,0,.691.684H77.933a.688.688,0,0,0,.691-.684V24.966a.694.694,0,0,0-.691-.691Z" transform="translate(-61.319 -21.367)" fill="#fff"/>
      </g>
      <g id="Grupo_91873" data-name="Grupo 91873" transform="translate(7.967 47.849)">
        <path id="Trazado_147624" data-name="Trazado 147624" d="M69.048,31.023A7.331,7.331,0,0,1,61.722,23.7a1.459,1.459,0,0,1,1.458-1.458H74.924a1.453,1.453,0,0,1,1.45,1.458A7.331,7.331,0,0,1,69.048,31.023Zm-4.17-5.868a4.417,4.417,0,0,0,8.341,0Z" transform="translate(-61.722 -22.239)" fill="#fff"/>
      </g>
    </g>
  </g>
</svg>
