<svg xmlns="http://www.w3.org/2000/svg" width="102.547" height="94.123" viewBox="0 0 102.547 94.123">
  <g id="Grupo_92088" data-name="Grupo 92088" transform="translate(-1108.978 -712.187)">
    <path id="Trazado_147687" data-name="Trazado 147687" d="M1154.543,742.8a15.305,15.305,0,1,0-15.305-15.305A15.305,15.305,0,0,0,1154.543,742.8Zm-9.977-8.75,7.4-6.136,2.573,1.938,2.573-1.938,7.4,6.136Zm20.853-12.392V733.3l-7.361-6.1Zm-.953-.718-7.316,5.512-.942.71-1.665,1.254-1.665-1.254-.942-.71-7.317-5.512Zm-20.8.718,7.361,5.546-7.361,6.1Z" transform="translate(-18.235)" fill="#ef6c00"/>
    <path id="Trazado_147688" data-name="Trazado 147688" d="M1154.733,874.334h-5.747l.2,2.727h5.722Z" transform="translate(-24.109 -97.711)" fill="#ef6c00"/>
    <path id="Trazado_147689" data-name="Trazado 147689" d="M1155.432,884.167h-5.711l.336,4.5h5.671Z" transform="translate(-24.552 -103.636)" fill="#ef6c00"/>
    <path id="Trazado_147690" data-name="Trazado 147690" d="M1150.789,898.456l.313,4.186h5.622l-.275-4.186Z" transform="translate(-25.196 -112.247)" fill="#ef6c00"/>
    <path id="Trazado_147691" data-name="Trazado 147691" d="M1168.236,902.622l-.3.02h6.105l.32-4.186h-6.394Z" transform="translate(-35.526 -112.247)" fill="#ef6c00"/>
    <path id="Trazado_147692" data-name="Trazado 147692" d="M1136.171,861.629a.26.26,0,0,0-.258-.232H1130.8a.26.26,0,0,0-.259.26v1.393a.26.26,0,0,0,.259.26h3.4a.26.26,0,0,1,.258.232l.331,3.08,1.131,13.047a.709.709,0,0,0,.706.66l.049,0,.223-.015.048,0h.771l-1.064-14.237Z" transform="translate(-12.991 -89.915)" fill="#ef6c00"/>
    <path id="Trazado_147693" data-name="Trazado 147693" d="M1148.45,917.764a1.285,1.285,0,1,0,1.285,1.285A1.286,1.286,0,0,0,1148.45,917.764Z" transform="translate(-23.012 -123.882)" fill="#ef6c00"/>
    <path id="Trazado_147694" data-name="Trazado 147694" d="M1181.976,917.764a1.285,1.285,0,1,0,1.285,1.285A1.286,1.286,0,0,0,1181.976,917.764Z" transform="translate(-43.215 -123.882)" fill="#ef6c00"/>
    <path id="Trazado_147695" data-name="Trazado 147695" d="M1167.367,888.664h6.562l.344-4.5h-7.2Z" transform="translate(-35.007 -103.636)" fill="#ef6c00"/>
    <path id="Trazado_147696" data-name="Trazado 147696" d="M1155.264,855.705a23.143,23.143,0,1,0-23.143,23.143A23.143,23.143,0,0,0,1155.264,855.705Zm-16.5,14.828a2.831,2.831,0,0,1-2.743-2.142h-7.837a2.827,2.827,0,1,1,0-1.369h7.837a2.827,2.827,0,1,1,2.743,3.512Zm9.05-20.163-3.39,12.355a1.89,1.89,0,0,1-1.822,1.39h-18.632l-.207.014c-.043,0-.087,0-.13,0a1.89,1.89,0,0,1-1.883-1.747l-1.129-13.027-.242-2.245H1117.8a1.442,1.442,0,0,1-1.441-1.441v-1.393a1.442,1.442,0,0,1,1.441-1.441h5.117a1.438,1.438,0,0,1,1.432,1.286l.415,3.854h21.221a1.889,1.889,0,0,1,1.822,2.389Z" transform="translate(0 -72.539)" fill="#ef6c00"/>
    <path id="Trazado_147697" data-name="Trazado 147697" d="M1193.85,874.334h-5.241l-.208,2.727h5.63l.5-1.831A.709.709,0,0,0,1193.85,874.334Z" transform="translate(-47.86 -97.711)" fill="#ef6c00"/>
    <path id="Trazado_147698" data-name="Trazado 147698" d="M1166.6,877.06h7.369l.209-2.727h-7.757Z" transform="translate(-34.618 -97.711)" fill="#ef6c00"/>
    <path id="Trazado_147699" data-name="Trazado 147699" d="M1187.307,888.664h4.507l1.234-4.5h-5.4Z" transform="translate(-47.202 -103.636)" fill="#ef6c00"/>
    <path id="Trazado_147700" data-name="Trazado 147700" d="M1186.274,902.642h2.9a.708.708,0,0,0,.683-.521l1.005-3.665h-4.273Z" transform="translate(-46.579 -112.247)" fill="#ef6c00"/>
    <path id="Trazado_147701" data-name="Trazado 147701" d="M1220.881,779.932A22.392,22.392,0,0,1,1238,758.2v-2.991a4.52,4.52,0,0,0-4.507-4.507h-27.818a17.783,17.783,0,0,1-11.054,16.44v15.941a25.586,25.586,0,0,1,3.666,44.53,4.478,4.478,0,0,0,.841.082h34.365a4.52,4.52,0,0,0,4.507-4.507V801.665A22.391,22.391,0,0,1,1220.881,779.932Zm-6.515-24.822h9.335a.8.8,0,1,1,0,1.6h-9.335a.8.8,0,1,1,0-1.6Zm-4.98,2.07a1.267,1.267,0,1,1,1.268-1.267A1.267,1.267,0,0,1,1209.387,757.18Zm11.15,66.947h-8.451a1.5,1.5,0,1,1,0-3h8.451a1.5,1.5,0,0,1,0,3Z" transform="translate(-51.61 -23.209)" fill="#ef6c00"/>
    <path id="Trazado_147702" data-name="Trazado 147702" d="M1286.774,774.182a19.9,19.9,0,1,0,19.9,19.9A19.9,19.9,0,0,0,1286.774,774.182Zm7.818,15.673h-5.134a4.047,4.047,0,0,0-.652-2.52,2.1,2.1,0,0,0-1.737-.83,1.928,1.928,0,0,0-1.629.683,2.759,2.759,0,0,0-.528,1.737,2.589,2.589,0,0,0,.566,1.737,6.005,6.005,0,0,0,2.117,1.35,19.435,19.435,0,0,1,5.289,3.063,5.583,5.583,0,0,1,1.691,4.367,5.769,5.769,0,0,1-1.7,4.343,7.438,7.438,0,0,1-4.568,1.939v3.118h-2.466v-3.133a8.414,8.414,0,0,1-4.994-2.1,6.628,6.628,0,0,1-1.923-5.3l.047-.093h5.1a3.831,3.831,0,0,0,.838,2.769,2.923,2.923,0,0,0,2.172.846,2.134,2.134,0,0,0,1.69-.652,2.487,2.487,0,0,0,.574-1.706,2.8,2.8,0,0,0-.59-1.9,5.96,5.96,0,0,0-2.094-1.326,18.291,18.291,0,0,1-5.328-2.955,5.606,5.606,0,0,1-1.667-4.4,5.73,5.73,0,0,1,1.768-4.32,7.607,7.607,0,0,1,4.715-1.978v-3.273h2.466v3.335a6.656,6.656,0,0,1,6,7.12Z" transform="translate(-95.149 -37.359)" fill="#ef6c00"/>
  </g>
</svg>
