<svg xmlns="http://www.w3.org/2000/svg" width="149.837" height="97.301" viewBox="0 0 149.837 97.301">
  <g id="Grupo_92087" data-name="Grupo 92087" transform="translate(-2932.074 -153.142)">
    <path id="Trazado_147682" data-name="Trazado 147682" d="M2988.926,283.307v-2.545h-1.882v2.5a5.808,5.808,0,0,0-3.6,1.509,4.375,4.375,0,0,0-1.35,3.3,4.277,4.277,0,0,0,1.273,3.356,13.948,13.948,0,0,0,4.066,2.255,4.549,4.549,0,0,1,1.6,1.012,2.134,2.134,0,0,1,.45,1.45,1.9,1.9,0,0,1-.438,1.3,1.63,1.63,0,0,1-1.291.5,2.23,2.23,0,0,1-1.657-.645,2.926,2.926,0,0,1-.639-2.113h-3.894l-.036.071A5.06,5.06,0,0,0,2983,299.3a6.421,6.421,0,0,0,3.812,1.6v2.391h1.882v-2.38a5.675,5.675,0,0,0,3.487-1.48,4.4,4.4,0,0,0,1.3-3.315,4.261,4.261,0,0,0-1.29-3.333,14.849,14.849,0,0,0-4.037-2.338,4.589,4.589,0,0,1-1.616-1.03,1.977,1.977,0,0,1-.432-1.326,2.1,2.1,0,0,1,.4-1.326,1.47,1.47,0,0,1,1.243-.521,1.6,1.6,0,0,1,1.326.633,3.089,3.089,0,0,1,.5,1.924h3.919l.024-.059a5.08,5.08,0,0,0-4.582-5.434Z" transform="translate(-27.142 -70.047)" fill="#ef6c00"/>
    <path id="Trazado_147683" data-name="Trazado 147683" d="M2987.072,261.167a1.544,1.544,0,0,0-1.863-1.126l-4.492,1.107a22.728,22.728,0,0,0-2.4-3.864l2.987-3.539a1.544,1.544,0,0,0-.184-2.169l-4.98-4.2a1.543,1.543,0,0,0-2.169.184l-2.983,3.535a22.457,22.457,0,0,0-4.218-1.717l.335-4.614a1.544,1.544,0,0,0-1.423-1.647l-6.5-.473a1.544,1.544,0,0,0-1.647,1.424l-.335,4.614a22.432,22.432,0,0,0-4.422,1.088l-2.439-3.929a1.544,1.544,0,0,0-2.12-.5l-5.536,3.438a1.544,1.544,0,0,0-.5,2.12l2.443,3.934a22.645,22.645,0,0,0-2.938,3.476l-4.285-1.745a1.544,1.544,0,0,0-2.006.845l-2.458,6.035a1.544,1.544,0,0,0,.845,2.006l4.286,1.746q-.193,1.112-.278,2.262t-.052,2.278l-4.494,1.107a1.544,1.544,0,0,0-1.126,1.863l1.558,6.327a1.544,1.544,0,0,0,1.863,1.127l4.493-1.107a22.721,22.721,0,0,0,2.4,3.865l-2.987,3.539a1.545,1.545,0,0,0,.184,2.169l4.98,4.2a1.544,1.544,0,0,0,2.17-.184l2.983-3.535a22.5,22.5,0,0,0,4.217,1.717l-.336,4.614a1.544,1.544,0,0,0,1.424,1.647l6.5.473a1.543,1.543,0,0,0,1.647-1.423l.336-4.614a22.5,22.5,0,0,0,4.422-1.088l2.439,3.929a1.544,1.544,0,0,0,2.12.5l5.537-3.438a1.544,1.544,0,0,0,.5-2.12l-2.442-3.934a22.712,22.712,0,0,0,2.938-3.476l4.285,1.745a1.544,1.544,0,0,0,2.006-.845l2.458-6.036a1.544,1.544,0,0,0-.845-2.006L2982.68,275q.193-1.112.278-2.262t.052-2.278l4.494-1.107a1.544,1.544,0,0,0,1.126-1.863Zm-26.7,25.121a15.188,15.188,0,1,1,15.188-15.188A15.188,15.188,0,0,1,2960.375,286.288Z" transform="translate(0 -49.121)" fill="#ef6c00"/>
    <path id="Trazado_147684" data-name="Trazado 147684" d="M3184.835,168.585a1.435,1.435,0,0,0-1.13-1.115l-8.576-1.675,1.747-1.213a1.437,1.437,0,0,0-1.639-2.361l-1.747,1.213,1.428-8.621a1.437,1.437,0,0,0-2.237-1.415l-13.9,9.647a1.441,1.441,0,0,0-.6.946l-1.884,11.375-36.036,25.018a1.437,1.437,0,0,0,1.639,2.361l36.036-25.018,11.316,2.211a1.435,1.435,0,0,0,1.094-.23l13.9-9.647A1.436,1.436,0,0,0,3184.835,168.585Zm-16.964-8.348,3.656-2.539-1.328,8.021-3.657,2.539Zm-6.948,4.823,3.657-2.538-1.33,8.021-3.656,2.538Zm8.29,11.94-7.979-1.559,3.656-2.539,7.98,1.559Zm6.948-4.823-7.979-1.559,3.656-2.539,7.98,1.559Z" transform="translate(-102.955)" fill="#ef6c00"/>
    <path id="Trazado_147685" data-name="Trazado 147685" d="M3115.348,210.458a1.877,1.877,0,0,0-2.038-1.688l-5.6.527a27.623,27.623,0,0,0-1.825-4.381l-4.389,3.047a22.272,22.272,0,1,1-3.8-5.528l10.075-6.995-3.111-3.531a1.877,1.877,0,0,0-2.641-.167l-4.22,3.717a27.363,27.363,0,0,0-4.765-2.819l1.229-5.489a1.877,1.877,0,0,0-1.417-2.236l-7.733-1.731a1.877,1.877,0,0,0-2.235,1.417l-1.229,5.489a27.321,27.321,0,0,0-5.512.517l-2.231-5.162a1.877,1.877,0,0,0-2.461-.975l-7.273,3.144a1.878,1.878,0,0,0-.976,2.461l2.235,5.168a27.623,27.623,0,0,0-4.155,3.655l-4.842-2.866a1.877,1.877,0,0,0-2.564.657l-4.036,6.818a1.877,1.877,0,0,0,.657,2.564l4.843,2.866q-.431,1.3-.739,2.67t-.47,2.731l-5.6.527a1.876,1.876,0,0,0-1.687,2.039l.742,7.889a1.877,1.877,0,0,0,2.039,1.688l5.6-.527a27.55,27.55,0,0,0,2.2,5.078l-4.225,3.722a1.877,1.877,0,0,0-.168,2.642l5.238,5.946a1.877,1.877,0,0,0,2.642.167l4.22-3.717a27.331,27.331,0,0,0,4.765,2.819l-1.229,5.489a1.877,1.877,0,0,0,1.418,2.235l7.732,1.732a1.878,1.878,0,0,0,2.236-1.417l1.229-5.489a27.317,27.317,0,0,0,5.512-.517l2.232,5.162a1.877,1.877,0,0,0,2.46.975l7.274-3.144a1.878,1.878,0,0,0,.975-2.461l-2.234-5.168a27.637,27.637,0,0,0,4.156-3.655l4.841,2.866a1.877,1.877,0,0,0,2.564-.657l4.036-6.819a1.877,1.877,0,0,0-.657-2.564l-4.843-2.866q.431-1.3.739-2.67a27.683,27.683,0,0,0,.47-2.731l5.6-.527a1.877,1.877,0,0,0,1.688-2.039Z" transform="translate(-62.985 -16.465)" fill="#ef6c00"/>
    <path id="Trazado_147686" data-name="Trazado 147686" d="M3105.113,234.9a6.172,6.172,0,0,1,2.513.533l7.848-5.448a15.184,15.184,0,1,0,3.777,5.54l-7.943,5.514c0,.019,0,.039,0,.059a6.2,6.2,0,1,1-6.2-6.2Z" transform="translate(-86.634 -39.934)" fill="#ef6c00"/>
  </g>
</svg>
