<svg xmlns="http://www.w3.org/2000/svg" xmlns:xlink="http://www.w3.org/1999/xlink" width="579" height="550" viewBox="0 0 579 550">
  <defs>
    <linearGradient id="linear-gradient" x1="-23.975" y1="-3.15" x2="-24.1" y2="-0.46" gradientUnits="objectBoundingBox">
      <stop offset="0" stop-color="#c6e6ff"/>
      <stop offset="1" stop-color="#8d9fff"/>
    </linearGradient>
    <linearGradient id="linear-gradient-2" x1="3.587" y1="1.526" x2="3.997" y2="-0.056" gradientUnits="objectBoundingBox">
      <stop offset="0" stop-color="#1ae5ff"/>
      <stop offset="1" stop-color="#eaeeee"/>
    </linearGradient>
    <linearGradient id="linear-gradient-3" x1="-11.475" y1="2.414" x2="-11.266" y2="-0.334" gradientUnits="objectBoundingBox">
      <stop offset="0" stop-color="#1ae5ff"/>
      <stop offset="0.259" stop-color="#63e8f8"/>
      <stop offset="0.704" stop-color="#eaeeee"/>
    </linearGradient>
    <linearGradient id="linear-gradient-4" x1="-153.983" y1="0.5" x2="-152.983" y2="0.5" gradientUnits="objectBoundingBox">
      <stop offset="0" stop-color="#5155d4"/>
      <stop offset="1" stop-color="#45f7ff"/>
    </linearGradient>
  </defs>
  <g id="Grupo_92259" data-name="Grupo 92259" transform="translate(-841 -810)">
    <g id="Grupo_92258" data-name="Grupo 92258" transform="translate(555.551 1440.24)">
      <g id="Grupo_92112" data-name="Grupo 92112" transform="translate(340.927 -531.656)">
        <g id="Grupo_92111" data-name="Grupo 92111">
          <g id="Grupo_92099" data-name="Grupo 92099" transform="translate(17.442 212.931)">
            <g id="Grupo_92093" data-name="Grupo 92093" transform="translate(0 16.206)">
              <g id="Grupo_92092" data-name="Grupo 92092" style="isolation: isolate">
                <path id="Trazado_147714" data-name="Trazado 147714" d="M433.973-365.5c-.817,9.074-9.358,15.239-17.064,18.559a65.507,65.507,0,0,1-26.725,4.959,63.616,63.616,0,0,1-27.162-6.021c-7.311-3.6-15.073-10.123-15.048-19-.017,6.464.435,11.806,5.093,16.852,6,6.5,15.025,10,23.518,11.75,16.569,3.42,39.131,1.767,51.718-10.989,5.065-5.132,5.756-10.541,5.775-17.368Q434.053-366.128,433.973-365.5Z" transform="translate(-347.975 391.832)" fill="#adcdfc"/>
                <g id="Grupo_92091" data-name="Grupo 92091" transform="translate(0.001)">
                  <path id="Trazado_147715" data-name="Trazado 147715" d="M421.36-378.234c16.867,9.737,16.975,25.529.218,35.267s-44.039,9.738-60.906,0-16.935-25.53-.178-35.267S404.494-387.973,421.36-378.234Z" transform="translate(-347.975 385.538)" fill="#e2edff"/>
                </g>
              </g>
            </g>
            <g id="Grupo_92098" data-name="Grupo 92098" transform="translate(37.406)">
              <g id="Grupo_92097" data-name="Grupo 92097" style="isolation: isolate">
                <g id="Grupo_92094" data-name="Grupo 92094" transform="translate(6.627 3.826)">
                  <path id="Trazado_147716" data-name="Trazado 147716" d="M387.535-394.78l-.107,37.634-6.584,3.826.107-37.633Z" transform="translate(-380.845 394.78)" fill="#c7d8f2"/>
                </g>
                <g id="Grupo_92095" data-name="Grupo 92095" transform="translate(0 3.826)">
                  <path id="Trazado_147717" data-name="Trazado 147717" d="M382.631-390.954l-.107,37.633-6.627-3.826L376-394.78Z" transform="translate(-375.898 394.78)" fill="#7baeff"/>
                </g>
                <g id="Grupo_92096" data-name="Grupo 92096" transform="translate(0.107)">
                  <path id="Trazado_147718" data-name="Trazado 147718" d="M389.188-393.81l-6.584,3.826-6.627-3.826,6.584-3.826Z" transform="translate(-375.977 397.636)" fill="#4da5dc"/>
                </g>
              </g>
            </g>
          </g>
          <path id="Trazado_147719" data-name="Trazado 147719" d="M353.715-482.532s-13.494,3.6-17.092,11.695-2.7,69.269,16.193,94.457,53.976,28.788,62.073,25.19,54.875-26.989,58.473-38.683-14.394-20.69-24.289-25.188-16.192-10.8-21.59-26.989-8.1-44.079-14.393-48.578S391.5-502.323,353.715-482.532Z" transform="translate(-334.954 577.269)" fill="#3aaeef"/>
          <g id="Grupo_92110" data-name="Grupo 92110" transform="translate(17.497)">
            <path id="Trazado_147720" data-name="Trazado 147720" d="M419.551-493.251S397.414-511.577,392.914-512c-5.4-.422-12.138,1.413-13.9,9.069a14.121,14.121,0,0,0,6.38,15.709c4.06,2.228,39.684,19.133,45.981,19.1s10.316-5.452,6.233-12.178S419.551-493.251,419.551-493.251Z" transform="translate(-337.631 571.71)" fill="#e1e8f2"/>
            <g id="Grupo_92109" data-name="Grupo 92109" transform="translate(0 3.605)">
              <g id="Grupo_92106" data-name="Grupo 92106">
                <g id="Grupo_92105" data-name="Grupo 92105" transform="translate(5.68)">
                  <g id="Grupo_92104" data-name="Grupo 92104">
                    <g id="Grupo_92103" data-name="Grupo 92103">
                      <g id="Grupo_92102" data-name="Grupo 92102">
                        <path id="Trazado_147721" data-name="Trazado 147721" d="M386.012-512.7a2.242,2.242,0,0,0,.044.727c.331,1.642,1.362,5.837,1.6,7.6.23,1.688-1.549,4.719-6.129,4.853s-12.442-1.4-15.3-6.726a126.952,126.952,0,0,0-1.557-16.067Z" transform="translate(-348.038 564.621)" fill="#e16b40"/>
                        <g id="Grupo_92101" data-name="Grupo 92101">
                          <g id="Grupo_92100" data-name="Grupo 92100">
                            <path id="Trazado_147722" data-name="Trazado 147722" d="M400.074-535.3c-3.31-13.869-14.792-21.269-27.192-17.716,0,0-13.53,2.032-18.982,14.273s3.916,21.846,9.909,27.9c2.525,2.482,4.434,4.4,5.64,5.622.437.461.867.931,1.321,1.348l.129.133.013-.013a28.466,28.466,0,0,0,11.969,6.484c5.551,1.358,11.975.108,15.281-3.788S403.384-521.425,400.074-535.3Z" transform="translate(-352.256 553.897)" fill="#ff8654"/>
                          </g>
                        </g>
                      </g>
                    </g>
                  </g>
                </g>
                <path id="Trazado_147723" data-name="Trazado 147723" d="M372.916-514.174s-21.794,17.254-23.763,22.731-1.712,20.445,3.435,30.176,5.253,46.464,7.282,53.55,21.475,8.4,33.322,5.492,30.671-12.824,26.888-26.275c-5.586-19.863-4.26-39.874-3.81-46.2s-1.153-22.062-4.592-32.5c-.726-2.2-8.489-5.277-8.489-5.277S395.137-516.215,372.916-514.174Z" transform="translate(-348.016 567.18)" fill="#0046a6"/>
              </g>
              <path id="Trazado_147724" data-name="Trazado 147724" d="M376.867-436.491c-9-11.4,4.2-50.378-11.395-61.174-4.756-3.291-8.837-4.122-12.22-3.7-2.092,2.194-3.64,4.118-4.1,5.4-1.969,5.479-1.712,20.445,3.435,30.176s5.253,46.464,7.282,53.55c1.847,6.45,18.111,8.1,29.955,6.158L406.853-423.9S385.863-425.1,376.867-436.491Z" transform="translate(-348.016 571.703)" fill="#003783"/>
              <path id="Trazado_147725" data-name="Trazado 147725" d="M368.162-512.019c18.946-1.74,27.667,1.519,29.833,2.52a56.113,56.113,0,0,1-.276,13.458c-1.483,8.954-5.05,33.553-5.05,33.553s-11.691-20.21-19.385-28.528c-5.417-5.854-10.75-11.369-13.44-14.13C364.384-509.023,368.162-512.019,368.162-512.019Z" transform="translate(-344 567.948)" fill="#e1e8f2"/>
              <path id="Trazado_147726" data-name="Trazado 147726" d="M386.012-512.7a2.242,2.242,0,0,0,.044.727c.331,1.642,1.362,5.837,1.6,7.6.23,1.688-1.549,4.719-6.129,4.853s-12.442-1.4-15.3-6.726a126.952,126.952,0,0,0-1.557-16.067Z" transform="translate(-342.358 564.621)" fill="#ff8654"/>
              <g id="Grupo_92108" data-name="Grupo 92108" transform="translate(5.68)">
                <g id="Grupo_92107" data-name="Grupo 92107">
                  <path id="Trazado_147727" data-name="Trazado 147727" d="M400.074-535.3c-3.31-13.869-14.792-21.269-27.192-17.716,0,0-13.53,2.032-18.982,14.273s3.916,21.846,9.909,27.9c2.525,2.482,4.434,4.4,5.64,5.622.437.461.867.931,1.321,1.348l.129.133.013-.013a28.466,28.466,0,0,0,11.969,6.484c5.551,1.358,11.975.108,15.281-3.788S403.384-521.425,400.074-535.3Z" transform="translate(-352.256 553.897)" fill="#ff9f75"/>
                </g>
              </g>
              <path id="Trazado_147728" data-name="Trazado 147728" d="M391.9-494.588l-8.445-7.48L376.7-490.245l-6.81-4.3c7.7,8.33,19.368,28.508,19.368,28.508s2.975-20.52,4.622-30.9Z" transform="translate(-340.588 571.498)" fill="#cfdae4"/>
              <path id="Trazado_147729" data-name="Trazado 147729" d="M388.713-480.1l-3.763-13.282.568-4.549-4.67-4.137-3.278,5.736,3.76,3.433,1.022,19.719c2.564,4.15,4.3,7.141,4.3,7.141S387.593-472.554,388.713-480.1Z" transform="translate(-337.98 571.498)" fill="#00a5ff"/>
            </g>
            <path id="Trazado_147730" data-name="Trazado 147730" d="M352.835-539.217a20.629,20.629,0,0,0,1.349,20.24c6.747,10.346,13.979,14.95,15.762,14.672s2.681-.729,2.23-2.078-2.7-5.847-2.7-5.847-7.646-.9-7.646-5.847,2.7-5.847,5.847-4.5,3.6,3.6,5.4,5.4,2.249,6.3,3.6,5.849,2.249-1.8,2.249-4.048,0-4.948-2.7-7.648.45-7.2-2.249-10.794a26.465,26.465,0,0,0-4.5-4.948s1.8,2.7,10.794.9,13.045-1.349,16.643-3.6,2.7-7.2.45-9-7.648-2.7-13.944-4.947-9.9-.9-17.542.9S351.036-544.616,352.835-539.217Z" transform="translate(-347.074 556.589)" fill="#e16b40"/>
          </g>
        </g>
        <path id="Trazado_147731" data-name="Trazado 147731" d="M451.216-341.485s-.3,4.5,4.5,7.8,5.7,5.4,9.6,6.9,7.5,6.6,5.7,10.2-10.194,4.2-15.593,2.7-6.3-6.3-11.395-8.1a18.845,18.845,0,0,1-8.4-5.4c-1.5-1.5-.9-7.5-.9-7.5l18.291-6" transform="translate(-301.114 629.636)" fill="#382747"/>
        <path id="Trazado_147732" data-name="Trazado 147732" d="M468.677-354.469s-.3,4.5,4.5,7.8,5.7,5.4,9.6,6.9,7.5,6.6,5.7,10.2-10.2,4.2-15.593,2.7-6.3-6.3-11.4-8.1a18.851,18.851,0,0,1-8.4-5.4c-1.5-1.5-.9-7.5-.9-7.5l18.292-6" transform="translate(-295.185 625.227)" fill="#382747"/>
        <path id="Trazado_147733" data-name="Trazado 147733" d="M357.913-432.869a32.8,32.8,0,0,1,.9,6.748c0,3.148-2.249,12.145,2.249,22.939s34.634,13.045,44.529,17.543a98.45,98.45,0,0,1,17.543,9.9c1.8,1.349,4.347,20.39,12.143,31.786s20.991,34.185,23.989,43.78a22.683,22.683,0,0,0,16.193-3c4.011-2.623,3.6-4.2,3.6-4.2s-15.593-34.184-19.191-48.578-7.8-31.187-14.394-35.385-27.587-19.191-32.385-22.189-17.727-12.48-20.259-18.235S365.709-446.812,357.913-432.869Z" transform="translate(-327.158 596.124)" fill="#94a3c0"/>
        <path id="Trazado_147734" data-name="Trazado 147734" d="M376.381-443.949a32.843,32.843,0,0,1,.9,6.746c0,3.149-2.248,12.145,2.249,22.941s34.635,13.044,44.531,17.542a98.54,98.54,0,0,1,17.542,9.9c1.8,1.349,4.348,20.391,12.145,31.786s20.99,34.185,23.989,43.781a22.687,22.687,0,0,0,16.193-3c4.011-2.624,3.6-4.2,3.6-4.2s-15.593-34.185-19.191-48.579-7.8-31.186-14.394-35.384-27.588-19.191-32.386-22.19-17.727-12.48-20.259-18.235S384.177-457.892,376.381-443.949Z" transform="translate(-320.886 592.361)" fill="#94a3c0"/>
      </g>
      <g id="Grupo_92122" data-name="Grupo 92122" transform="translate(317.367 -466.694)">
        <g id="Grupo_92118" data-name="Grupo 92118" transform="translate(168.122 187.884)">
          <g id="Grupo_92117" data-name="Grupo 92117" style="isolation: isolate">
            <g id="Grupo_92113" data-name="Grupo 92113" transform="translate(16.108 9.3)">
              <path id="Trazado_147735" data-name="Trazado 147735" d="M471.158-360.9l-.259,91.479-16,9.3.259-91.479Z" transform="translate(-454.895 360.897)" fill="#c7d8f2"/>
            </g>
            <g id="Grupo_92115" data-name="Grupo 92115" transform="translate(0 9.3)">
              <g id="Grupo_92114" data-name="Grupo 92114">
                <path id="Trazado_147736" data-name="Trazado 147736" d="M459.237-351.6l-.259,91.479-16.108-9.3.259-91.479Z" transform="translate(-442.87 360.897)" fill="#7baeff"/>
              </g>
            </g>
            <g id="Grupo_92116" data-name="Grupo 92116" transform="translate(0.259)">
              <path id="Trazado_147737" data-name="Trazado 147737" d="M475.175-358.539l-16,9.3-16.108-9.3,16-9.3Z" transform="translate(-443.063 367.839)" fill="#4da5dc"/>
            </g>
          </g>
        </g>
        <g id="Grupo_92121" data-name="Grupo 92121">
          <path id="Trazado_147738" data-name="Trazado 147738" d="M722.961-407.486c-.023.267-.042.533-.091.8-.04.217-.106.434-.163.651-.066.253-.127.506-.217.757-.074.208-.171.413-.261.62-.115.264-.229.529-.37.789-.1.19-.225.376-.34.564-.185.3-.379.595-.6.887s-.427.561-.67.837c-.058.064-.108.13-.167.194-.327.358-.687.706-1.069,1.05-.244.22-.516.431-.781.644-.233.188-.458.378-.709.56-.288.209-.606.409-.915.611s-.622.421-.963.619L509.876-278.324a28.684,28.684,0,0,1-5.563,2.448,36.769,36.769,0,0,1-4.808,1.2c-1.064.192-2.146.343-3.238.451-.932.092-1.873.155-2.816.188q-1.3.044-2.6.012-1.254-.032-2.5-.134l-.042,14.666c.829.07,1.665.114,2.5.134q1.3.032,2.6-.012c.943-.032,1.884-.094,2.816-.188,1.092-.108,2.174-.259,3.239-.45a36.8,36.8,0,0,0,4.806-1.2,28.762,28.762,0,0,0,5.563-2.446l205.771-119.58c.1-.062.208-.122.31-.184.232-.139.429-.291.648-.433.312-.2.631-.4.92-.615.25-.181.474-.371.707-.557.267-.214.539-.426.782-.647.05-.044.109-.084.157-.129.327-.3.627-.609.912-.92.059-.066.111-.131.169-.2.169-.192.34-.382.494-.576.067-.086.11-.174.174-.26.218-.292.413-.588.6-.885.078-.125.18-.247.25-.372.036-.063.056-.129.091-.192.141-.261.255-.527.37-.79.067-.154.158-.305.216-.461.02-.054.027-.106.046-.159.09-.252.151-.505.218-.758.044-.171.113-.34.147-.512.008-.046.007-.092.015-.137.05-.267.068-.533.091-.8.016-.173.055-.346.06-.52,0-.074,0-.149,0-.222l.041-14.667C723.024-407.982,722.984-407.734,722.961-407.486Z" transform="translate(-259.317 542.007)" fill="#adcdfc"/>
          <path id="Trazado_147739" data-name="Trazado 147739" d="M543.932-274.4c-.848-.121-1.689-.267-2.517-.438q-1.348-.279-2.648-.648-1.589-.454-3.084-1.041a27.66,27.66,0,0,1-3.662-1.758L324.9-397.865c-5.006-2.891-7.506-6.685-7.5-10.472l-.043,14.666c-.011,3.788,2.49,7.582,7.5,10.472L531.979-263.621a27.5,27.5,0,0,0,3.662,1.756q1.491.589,3.084,1.041,1.3.37,2.648.65,1.242.257,2.517.437,1.224.175,2.469.276l.042-14.666Q545.157-274.23,543.932-274.4Z" transform="translate(-317.367 541.971)" fill="#adcdfc"/>
          <g id="Grupo_92120" data-name="Grupo 92120" transform="translate(0.043)">
            <g id="Grupo_92119" data-name="Grupo 92119">
              <path id="Trazado_147740" data-name="Trazado 147740" d="M773.569-384.208c9.948,5.743,10,15.054.118,20.8L567.916-243.83c-9.884,5.744-25.959,5.744-35.906,0L324.894-363.409c-9.948-5.743-10-15.054-.118-20.8l205.771-119.58c9.882-5.743,25.959-5.743,35.906,0Z" transform="translate(-317.399 508.094)" fill="#e2edff"/>
            </g>
          </g>
        </g>
      </g>
      <g id="Grupo_92172" data-name="Grupo 92172" transform="translate(369.653 -408.885)">
        <g id="Grupo_92132" data-name="Grupo 92132" transform="translate(181.324 86.362)">
          <g id="Grupo_92123" data-name="Grupo 92123">
            <path id="Trazado_147741" data-name="Trazado 147741" d="M491.756-377.445l56.7,32.95,39.884-23.027-56.7-32.95Z" transform="translate(-491.756 400.472)" fill="#fff"/>
          </g>
          <g id="Grupo_92126" data-name="Grupo 92126" transform="translate(24.095 12.678)">
            <g id="Grupo_92124" data-name="Grupo 92124" transform="translate(3.877)">
              <path id="Trazado_147742" data-name="Trazado 147742" d="M532.854-388.859l-8.92,5.184L512.637-387c3.153-3.608,10.768-5.042,17.006-3.2A14.049,14.049,0,0,1,532.854-388.859Z" transform="translate(-512.637 391.007)" fill="#ff5668"/>
            </g>
            <g id="Grupo_92125" data-name="Grupo 92125" transform="translate(0 2.822)">
              <path id="Trazado_147743" data-name="Trazado 147743" d="M535.882-388.9c6,3.463,6.026,9.074.07,12.536s-15.645,3.461-21.641,0c-4.8-2.769-5.922-6.8-2.872-10.292l13.657,4.025Z" transform="translate(-509.742 388.901)" fill="#b391ff"/>
            </g>
          </g>
          <g id="Grupo_92131" data-name="Grupo 92131" transform="translate(41.658 25.309)">
            <g id="Grupo_92128" data-name="Grupo 92128">
              <g id="Grupo_92127" data-name="Grupo 92127">
                <path id="Trazado_147744" data-name="Trazado 147744" d="M523.228-366.75c-.5.287-.5.745-.005,1.031a1.947,1.947,0,0,0,1.779,0l25.312-14.614a.544.544,0,0,0,.005-1.031,1.95,1.95,0,0,0-1.78,0Z" transform="translate(-522.853 381.578)" fill="#adcdfc"/>
              </g>
            </g>
            <g id="Grupo_92129" data-name="Grupo 92129" transform="translate(17.493 1.698)">
              <path id="Trazado_147745" data-name="Trazado 147745" d="M536.28-373.9a.547.547,0,0,0-.007,1.032,1.986,1.986,0,0,0,1.79.005l10.741-6.2a.547.547,0,0,0,0-1.037,1.964,1.964,0,0,0-1.779,0Z" transform="translate(-535.912 380.311)" fill="#d4d9df"/>
            </g>
            <g id="Grupo_92130" data-name="Grupo 92130" transform="translate(14.151 3.285)">
              <path id="Trazado_147746" data-name="Trazado 147746" d="M533.8-369.209c-.5.288-.509.75-.015,1.037a1.967,1.967,0,0,0,1.788-.005l16.806-9.7c.5-.288.5-.745.005-1.031a1.948,1.948,0,0,0-1.779,0Z" transform="translate(-533.417 379.126)" fill="#d4d9df"/>
            </g>
          </g>
        </g>
        <g id="Grupo_92136" data-name="Grupo 92136" transform="translate(173.358 139.413)">
          <g id="Grupo_92133" data-name="Grupo 92133" transform="translate(0.01)">
            <path id="Trazado_147747" data-name="Trazado 147747" d="M560.53-343.963c1.38.8,1.384,2.084.016,2.879l-40.472,23.5a5.475,5.475,0,0,1-4.971,0l-28.248-16.31c-1.377-.794-1.388-2.083-.017-2.879l40.472-23.5a5.478,5.478,0,0,1,4.973,0Z" transform="translate(-485.816 360.87)" fill="#f2f8fd"/>
          </g>
          <g id="Grupo_92135" data-name="Grupo 92135" transform="translate(0 2.535)">
            <path id="Trazado_147748" data-name="Trazado 147748" d="M561.563-347.064c0,.036-.007.074-.013.11s-.015.06-.021.09-.019.071-.031.106-.024.056-.036.084-.032.074-.051.111-.031.051-.048.076c-.025.042-.052.083-.082.123-.017.024-.038.048-.058.071a1.5,1.5,0,0,1-.149.159c-.019.02-.037.04-.058.059s-.071.059-.108.088-.064.052-.1.078-.084.056-.127.084-.086.059-.134.086l-40.472,23.5a3.864,3.864,0,0,1-.492.233l-.137.052c-.106.039-.218.07-.33.1s-.233.063-.352.088c-.141.028-.281.055-.426.072-.035.005-.07.012-.1.015-.2.021-.393.031-.591.034h-.094q-.293,0-.583-.032l-.087-.009a5.615,5.615,0,0,1-.565-.1l-.1-.024a4.926,4.926,0,0,1-.488-.149c-.028-.011-.059-.019-.086-.029a3.817,3.817,0,0,1-.537-.253l-28.248-16.31a2.042,2.042,0,0,1-.975-1.058,1.234,1.234,0,0,1-.064-.391l-.009,1.621a1.188,1.188,0,0,0,.016.2,1.882,1.882,0,0,0,1.022,1.254l28.249,16.31a3.79,3.79,0,0,0,.509.244l.027.009c.028.011.058.019.086.029.1.037.206.075.315.106.056.016.115.028.174.043.034.008.066.017.1.024s.06.016.092.023c.114.024.23.044.347.06.042.007.084.009.126.015l.086.009.13.015c.115.009.23.015.346.017.036,0,.072,0,.108,0h.094c.052,0,.1,0,.157,0,.13,0,.26-.013.388-.025l.046-.007.1-.013c.1-.013.2-.024.3-.042.044-.008.084-.024.129-.032.119-.025.236-.055.351-.088.062-.017.127-.027.186-.046s.1-.038.145-.055.092-.034.137-.052a3.686,3.686,0,0,0,.492-.233l40.472-23.5.043-.025c.032-.019.06-.04.091-.06s.087-.055.126-.084.066-.051.1-.078.074-.059.107-.088l.023-.019c.013-.012.023-.027.036-.039a2.068,2.068,0,0,0,.149-.161c.009-.012.023-.023.032-.035s.016-.024.024-.036c.031-.04.058-.082.083-.122.011-.017.025-.035.035-.052l.012-.027a1,1,0,0,0,.051-.109.7.7,0,0,0,.031-.064l.007-.021c.012-.035.02-.07.029-.106a.642.642,0,0,0,.02-.071l0-.019a1.017,1.017,0,0,0,.012-.11.647.647,0,0,0,.008-.072v-.031l.009-1.621C561.571-347.132,561.566-347.1,561.563-347.064Z" transform="translate(-485.809 362.988)" fill="url(#linear-gradient)"/>
            <g id="Grupo_92134" data-name="Grupo 92134" transform="translate(4.762)">
              <path id="Trazado_147749" data-name="Trazado 147749" d="M555.154-344.093a.49.49,0,0,1,0,.926l-38.414,22.323a1.758,1.758,0,0,1-1.6,0L489.7-335.534a.49.49,0,0,1-.005-.927l38.413-22.323a1.76,1.76,0,0,1,1.6,0Z" transform="translate(-489.363 358.977)" fill="url(#linear-gradient-2)"/>
            </g>
          </g>
        </g>
        <g id="Grupo_92146" data-name="Grupo 92146" transform="translate(55.38)">
          <g id="Grupo_92137" data-name="Grupo 92137">
            <path id="Trazado_147750" data-name="Trazado 147750" d="M397.739-441.914l56.7,32.95,39.884-23.027-56.7-32.95Z" transform="translate(-397.739 464.941)" fill="#fff"/>
          </g>
          <g id="Grupo_92140" data-name="Grupo 92140" transform="translate(24.095 12.678)">
            <g id="Grupo_92138" data-name="Grupo 92138" transform="translate(3.878)">
              <path id="Trazado_147751" data-name="Trazado 147751" d="M438.838-453.327l-8.92,5.183-11.3-3.328c3.153-3.608,10.766-5.042,17.006-3.2A14.041,14.041,0,0,1,438.838-453.327Z" transform="translate(-418.621 455.476)" fill="#b391ff"/>
            </g>
            <g id="Grupo_92139" data-name="Grupo 92139" transform="translate(0 2.823)">
              <path id="Trazado_147752" data-name="Trazado 147752" d="M441.866-453.369c6,3.461,6.027,9.074.07,12.536s-15.645,3.461-21.641,0c-4.8-2.77-5.922-6.8-2.872-10.292l13.657,4.024Z" transform="translate(-415.726 453.369)" fill="#05ccff"/>
            </g>
          </g>
          <g id="Grupo_92145" data-name="Grupo 92145" transform="translate(41.658 25.31)">
            <g id="Grupo_92142" data-name="Grupo 92142">
              <g id="Grupo_92141" data-name="Grupo 92141">
                <path id="Trazado_147753" data-name="Trazado 147753" d="M429.211-431.218c-.5.287-.5.743-.005,1.03a1.947,1.947,0,0,0,1.779,0L456.3-444.8c.5-.288.5-.745.005-1.031a1.95,1.95,0,0,0-1.78,0Z" transform="translate(-428.836 446.046)" fill="#adcdfc"/>
              </g>
            </g>
            <g id="Grupo_92143" data-name="Grupo 92143" transform="translate(17.494 1.697)">
              <path id="Trazado_147754" data-name="Trazado 147754" d="M442.263-438.365a.546.546,0,0,0-.005,1.03,1.984,1.984,0,0,0,1.788.005l10.741-6.2c.5-.287.49-.749,0-1.037a1.966,1.966,0,0,0-1.78,0Z" transform="translate(-441.896 444.78)" fill="#d4d9df"/>
            </g>
            <g id="Grupo_92144" data-name="Grupo 92144" transform="translate(14.151 3.283)">
              <path id="Trazado_147755" data-name="Trazado 147755" d="M439.779-433.677c-.5.287-.509.749-.015,1.036a1.959,1.959,0,0,0,1.788-.005l16.807-9.7c.5-.287.5-.743.005-1.031a1.947,1.947,0,0,0-1.779,0Z" transform="translate(-439.4 443.595)" fill="#05ccff"/>
            </g>
          </g>
        </g>
        <g id="Grupo_92171" data-name="Grupo 92171" transform="translate(0 55.624)">
          <g id="Grupo_92159" data-name="Grupo 92159" transform="translate(41.183 30.4)">
            <g id="Grupo_92150" data-name="Grupo 92150" transform="translate(30.719)" style="isolation: isolate">
              <g id="Grupo_92147" data-name="Grupo 92147" transform="translate(66.797 38.565)">
                <path id="Trazado_147756" data-name="Trazado 147756" d="M467.8-371.935l-.01,3.406-7.856,4.565.01-3.406Z" transform="translate(-459.937 371.935)" fill="#540cc7"/>
              </g>
              <g id="Grupo_92148" data-name="Grupo 92148" transform="translate(0 4.566)">
                <path id="Trazado_147757" data-name="Trazado 147757" d="M476.88-358.75l-.01,3.406-66.8-38.565.01-3.406Z" transform="translate(-410.073 397.316)" fill="#3f0995"/>
              </g>
              <g id="Grupo_92149" data-name="Grupo 92149" transform="translate(0.01)">
                <path id="Trazado_147758" data-name="Trazado 147758" d="M484.734-362.159l-7.856,4.566-66.8-38.565,7.856-4.566Z" transform="translate(-410.08 400.724)" fill="#7974f5"/>
              </g>
            </g>
            <g id="Grupo_92154" data-name="Grupo 92154" transform="translate(15.362 8.928)" style="isolation: isolate">
              <g id="Grupo_92151" data-name="Grupo 92151" transform="translate(52.471 30.294)">
                <path id="Trazado_147759" data-name="Trazado 147759" d="M445.639-371.445l-.01,3.406-7.851,4.562.01-3.406Z" transform="translate(-437.778 371.445)" fill="#2689fd"/>
              </g>
              <g id="Grupo_92152" data-name="Grupo 92152" transform="translate(0 4.562)">
                <path id="Trazado_147760" data-name="Trazado 147760" d="M451.09-360.36l-.01,3.406-52.471-30.294.01-3.406Z" transform="translate(-398.609 390.654)" fill="#3548db"/>
              </g>
              <g id="Grupo_92153" data-name="Grupo 92153" transform="translate(0.01)">
                <path id="Trazado_147761" data-name="Trazado 147761" d="M458.938-363.765l-7.851,4.562L398.616-389.5l7.851-4.562Z" transform="translate(-398.616 394.06)" fill="#58affb"/>
              </g>
            </g>
            <g id="Grupo_92158" data-name="Grupo 92158" transform="translate(0 17.855)" style="isolation: isolate">
              <g id="Grupo_92155" data-name="Grupo 92155" transform="translate(24.011 13.862)">
                <path id="Trazado_147762" data-name="Trazado 147762" d="M412.925-377.047l-.01,3.406-7.851,4.562.01-3.406Z" transform="translate(-405.065 377.047)" fill="#ee2c6a"/>
              </g>
              <g id="Grupo_92156" data-name="Grupo 92156" transform="translate(0 4.562)">
                <path id="Trazado_147763" data-name="Trazado 147763" d="M411.161-370.127l-.01,3.406-24.011-13.863.01-3.406Z" transform="translate(-387.141 383.989)" fill="#ee428c"/>
              </g>
              <g id="Grupo_92157" data-name="Grupo 92157" transform="translate(0.01)">
                <path id="Trazado_147764" data-name="Trazado 147764" d="M419.01-373.533l-7.851,4.562-24.011-13.862L395-387.4Z" transform="translate(-387.148 387.395)" fill="#ff3d9d"/>
              </g>
            </g>
          </g>
          <g id="Grupo_92164" data-name="Grupo 92164" transform="translate(19.471 19.931)">
            <g id="Grupo_92163" data-name="Grupo 92163">
              <g id="Grupo_92160" data-name="Grupo 92160">
                <path id="Trazado_147765" data-name="Trazado 147765" d="M371.522-385.167c-.782.453-.786,1.173-.008,1.625a3.066,3.066,0,0,0,2.805,0l39.9-23.033c.784-.453.786-1.173.008-1.625a3.066,3.066,0,0,0-2.805,0Z" transform="translate(-370.933 408.539)" fill="#adcdfc"/>
              </g>
              <g id="Grupo_92161" data-name="Grupo 92161" transform="translate(27.573 2.675)">
                <path id="Trazado_147766" data-name="Trazado 147766" d="M392.1-396.432a.862.862,0,0,0-.009,1.625,3.121,3.121,0,0,0,2.82.008l16.931-9.774a.863.863,0,0,0-.005-1.634,3.1,3.1,0,0,0-2.805,0Z" transform="translate(-391.516 406.542)" fill="#adcdfc"/>
              </g>
              <g id="Grupo_92162" data-name="Grupo 92162" transform="translate(22.305 5.176)">
                <path id="Trazado_147767" data-name="Trazado 147767" d="M388.18-389.042c-.782.453-.8,1.182-.023,1.633a3.1,3.1,0,0,0,2.82-.008l26.49-15.294c.784-.453.788-1.172.009-1.625a3.066,3.066,0,0,0-2.805,0Z" transform="translate(-387.584 404.675)" fill="#adcdfc"/>
              </g>
            </g>
          </g>
          <g id="Grupo_92170" data-name="Grupo 92170">
            <g id="Grupo_92168" data-name="Grupo 92168" transform="translate(6.525)" style="isolation: isolate">
              <g id="Grupo_92165" data-name="Grupo 92165">
                <path id="Trazado_147768" data-name="Trazado 147768" d="M394.724-419.578l-6.34,3.684c-5.755-3.141-14.8-3.086-20.4.166-.115.068-.224.137-.335.206l-6.383-3.685c.112-.068.225-.137.34-.2C370.708-424.7,385.446-424.752,394.724-419.578Z" transform="translate(-361.269 423.418)" fill="#7cccff"/>
              </g>
              <g id="Grupo_92166" data-name="Grupo 92166" transform="translate(28.085 4.416)">
                <path id="Trazado_147769" data-name="Trazado 147769" d="M388.581-420.121c7.533,4.715,8.312,11.743,2.316,16.914l-6.579-3.8c2.639-3.022,1.942-6.774-2.084-9.425Z" transform="translate(-382.234 420.121)" fill="#7cccff"/>
              </g>
              <g id="Grupo_92167" data-name="Grupo 92167" transform="translate(1.156 18.257)">
                <path id="Trazado_147770" data-name="Trazado 147770" d="M396.9-406.052a20.132,20.132,0,0,1-2.063,1.369c-8.967,5.211-23.409,5.341-32.707.391l6.347-3.689c5.766,2.919,14.517,2.793,19.984-.384a11.469,11.469,0,0,0,1.967-1.424Z" transform="translate(-362.132 409.789)" fill="#3eabff"/>
              </g>
            </g>
            <g id="Grupo_92169" data-name="Grupo 92169" transform="translate(0 4.81)">
              <path id="Trazado_147771" data-name="Trazado 147771" d="M368.4-416.124c-4.331,3.262-3.988,7.937,1.017,10.994l-6.34,3.684c-8.524-5.094-8.9-13.064-1.09-18.381Z" transform="translate(-356.398 419.827)" fill="#3eabff"/>
            </g>
          </g>
        </g>
      </g>
      <g id="Grupo_92184" data-name="Grupo 92184" transform="translate(494.541 -540.811)">
        <g id="Grupo_92177" data-name="Grupo 92177">
          <g id="Grupo_92173" data-name="Grupo 92173">
            <path id="Trazado_147772" data-name="Trazado 147772" d="M490.314-542.3a11.622,11.622,0,0,1,5.265,9.12l-.058,50.989c-.009,3.346-2.387,4.7-5.3,3.019L476-487.379l-.69.964-2.774,3.9-2.753-7.1-.683-1.759-14.22-8.209a11.6,11.6,0,0,1-5.255-9.115l.056-50.989c.009-3.346,2.379-4.706,5.291-3.025Z" transform="translate(-449.627 563.422)" fill="#58affb"/>
          </g>
          <g id="Grupo_92176" data-name="Grupo 92176" transform="translate(7.045 16.642)">
            <g id="Grupo_92174" data-name="Grupo 92174" transform="translate(0.021)">
              <path id="Trazado_147773" data-name="Trazado 147773" d="M463.871-545.969l0,1.435a1.1,1.1,0,0,1-1.65.947l-6.768-3.926a1.1,1.1,0,0,1-.547-.954l0-1.435a1.1,1.1,0,0,1,1.65-.947l6.768,3.926A1.1,1.1,0,0,1,463.871-545.969Z" transform="translate(-454.902 550.999)" fill="#fff"/>
            </g>
            <g id="Grupo_92175" data-name="Grupo 92175" transform="translate(0 7.139)">
              <path id="Trazado_147774" data-name="Trazado 147774" d="M485.285-528.286l0,1.437a1.1,1.1,0,0,1-1.648.948l-28.2-16.28a1.1,1.1,0,0,1-.551-.954l0-1.439a1.1,1.1,0,0,1,1.649-.948l28.2,16.28A1.1,1.1,0,0,1,485.285-528.286Z" transform="translate(-454.886 545.67)" fill="#adcdfc"/>
            </g>
          </g>
        </g>
        <g id="Grupo_92183" data-name="Grupo 92183" transform="translate(7.684 36.77)">
          <g id="Grupo_92178" data-name="Grupo 92178">
            <path id="Trazado_147775" data-name="Trazado 147775" d="M462.005-532.142l0,1.645-3.818,13.038-1.636-.944,3.8-13.011-4.986-2.879,0-1.681Z" transform="translate(-455.363 535.974)" fill="#fff"/>
          </g>
          <g id="Grupo_92179" data-name="Grupo 92179" transform="translate(8.116 4.976)">
            <path id="Trazado_147776" data-name="Trazado 147776" d="M467.7-528.926l-.005,1.68-4.31-2.488-.25,5.05c.474-.648,1.2-.7,2.19-.129,1.888,1.089,2.717,3.161,2.71,5.565l-.009,3.289c-.008,2.585-1.082,3.648-3.315,2.359a6.767,6.767,0,0,1-3.29-6.173l0-1.12,1.542.889,0,1.247a3.677,3.677,0,0,0,1.708,3.429c1.163.672,1.716.068,1.721-1.449l.008-3.271a3.7,3.7,0,0,0-1.707-3.429c-.9-.519-1.511-.293-1.657.853v.38l-1.541-.891.435-9.125Z" transform="translate(-461.422 532.259)" fill="#fff"/>
          </g>
          <g id="Grupo_92180" data-name="Grupo 92180" transform="translate(23.414 20.623)">
            <path id="Trazado_147777" data-name="Trazado 147777" d="M474.973-520.229a4.271,4.271,0,0,1,2.083,3.9l-.015,5.3c0,1.645-.652,2.356-2.1,1.522a4.344,4.344,0,0,1-2.1-3.946l.016-5.3C472.862-520.361,473.541-521.055,474.973-520.229Zm1.014,8.7.016-5.476a2.28,2.28,0,0,0-1.034-2.118c-.738-.426-1.056-.012-1.058.911l-.015,5.475a2.329,2.329,0,0,0,1.049,2.145c.723.418,1.041-.033,1.042-.936" transform="translate(-472.842 520.579)" fill="#fff"/>
          </g>
          <g id="Grupo_92181" data-name="Grupo 92181" transform="translate(16.229 10.157)">
            <path id="Trazado_147778" data-name="Trazado 147778" d="M471.678-518.791c0,1.626-.683,2.32-2.115,1.494a4.328,4.328,0,0,1-2.084-3.918l.016-5.332c0-1.609.683-2.32,2.1-1.5a4.349,4.349,0,0,1,2.1,3.928Zm-1.054-.518.016-5.494a2.333,2.333,0,0,0-1.049-2.145c-.755-.437-1.041.032-1.042.936l-.016,5.494a2.235,2.235,0,0,0,1.034,2.118c.738.427,1.054.012,1.057-.91" transform="translate(-467.478 528.391)" fill="#fff"/>
          </g>
          <g id="Grupo_92182" data-name="Grupo 92182" transform="translate(18.469 14.029)">
            <path id="Trazado_147779" data-name="Trazado 147779" d="M474.986-525.5l.975.563-5.82,13.529-.991-.572Z" transform="translate(-469.15 525.501)" fill="#fff"/>
          </g>
        </g>
      </g>
      <g id="Grupo_92196" data-name="Grupo 92196" transform="translate(526.295 -431.32)">
        <g id="Grupo_92186" data-name="Grupo 92186" transform="translate(0 10.054)">
          <g id="Grupo_92185" data-name="Grupo 92185">
            <path id="Trazado_147780" data-name="Trazado 147780" d="M546.716-466.88c16.867,9.739,16.975,25.53.218,35.267s-44.039,9.739-60.906,0-16.935-25.529-.179-35.266S529.85-476.617,546.716-466.88Z" transform="translate(-473.331 474.183)" fill="#adcdfc"/>
          </g>
        </g>
        <g id="Grupo_92195" data-name="Grupo 92195" transform="translate(4.177)">
          <g id="Grupo_92187" data-name="Grupo 92187" transform="translate(58.868 6.925)">
            <path id="Trazado_147781" data-name="Trazado 147781" d="M531.131-476.518l-.018,6.2-10.72,6.23.018-6.2Z" transform="translate(-520.393 476.518)" fill="#cc096a"/>
          </g>
          <path id="Trazado_147782" data-name="Trazado 147782" d="M499.082-466.136c.075-.029.146-.062.22-.09.6-.228,1.215-.434,1.839-.63.431-.137.873-.256,1.315-.376.336-.091.668-.189,1.01-.272.464-.112.938-.2,1.411-.3.346-.07.687-.149,1.037-.21.143-.026.288-.046.431-.068q.882-.145,1.776-.252c.173-.02.344-.043.517-.062q1.035-.111,2.079-.174l.387-.019c.466-.024.935-.031,1.4-.039s.936-.013,1.4-.007c.393.005.782.016,1.173.032q.651.026,1.3.07.593.04,1.183.1c.429.04.855.088,1.279.142q.575.074,1.145.162c.455.071.907.15,1.357.236.472.09.943.18,1.408.285l.334.075q.979.233,1.929.518c.181.054.36.111.54.167.526.166,1.046.343,1.555.532.149.055.3.106.447.163.463.178.91.378,1.357.576.22.1.447.186.663.289.647.307,1.275.631,1.879.981l.017-7.231c-.6-.35-1.232-.675-1.879-.982-.214-.1-.439-.189-.659-.287-.383-.17-.759-.347-1.156-.5-.067-.025-.138-.048-.206-.075-.146-.056-.3-.107-.445-.162q-.766-.283-1.557-.532c-.18-.056-.358-.114-.54-.167-.122-.036-.24-.078-.362-.113-.516-.147-1.039-.28-1.567-.406-.11-.027-.222-.049-.334-.075-.256-.059-.512-.121-.77-.174-.209-.043-.426-.071-.638-.111-.45-.086-.9-.165-1.357-.236-.182-.028-.36-.068-.544-.1-.2-.028-.4-.041-.6-.067q-.637-.08-1.279-.143c-.2-.019-.4-.051-.61-.067s-.382-.019-.573-.031c-.431-.031-.864-.052-1.3-.07-.217-.009-.434-.03-.651-.035-.174,0-.348,0-.521,0-.469-.007-.936,0-1.405.005-.232.005-.465,0-.7,0s-.472.024-.707.036c-.13.005-.258.011-.387.019-.584.035-1.167.076-1.745.134-.112.011-.222.028-.334.04-.173.019-.344.04-.517.062q-.894.106-1.774.25c-.145.024-.291.044-.434.07l-.209.033c-.279.05-.548.121-.824.176-.474.1-.95.19-1.416.3-.34.083-.671.18-1.006.271-.443.121-.887.241-1.319.378-.092.028-.19.05-.283.08-.528.17-1.045.355-1.555.549-.074.028-.145.06-.22.09-.559.218-1.1.453-1.638.7-.158.072-.315.146-.47.222-.592.285-1.172.584-1.728.907-.1.06-.209.122-.312.185s-.186.118-.28.177c-.158.1-.313.2-.466.295s-.273.184-.407.276-.292.2-.434.305-.255.189-.379.284-.271.209-.4.315-.237.2-.352.293-.25.214-.37.323c-.05.044-.1.087-.153.133s-.083.084-.127.127q-.3.285-.58.576c-.062.066-.127.131-.188.2-.234.255-.457.513-.664.774l-.028.033c-.047.06-.087.122-.133.182-.125.163-.248.328-.362.494-.063.091-.121.185-.18.277-.1.15-.192.3-.28.451-.024.042-.054.083-.076.125-.035.062-.063.125-.1.186-.07.127-.135.256-.2.384-.052.107-.1.214-.151.323-.058.129-.111.258-.163.388-.023.059-.051.115-.074.174s-.032.1-.051.157c-.044.123-.084.246-.123.371s-.068.225-.1.338-.063.249-.091.374c-.015.067-.035.135-.048.2-.009.046-.013.091-.021.137-.024.127-.043.256-.06.383s-.032.225-.043.336c-.013.13-.02.258-.028.387,0,.075-.013.151-.016.226s0,1.181,0,1.256l-.019,6.2c0-.15.012-.3.02-.451.007-.129.015-.257.028-.386.011-.113.027-.225.042-.338s.038-.255.06-.382.046-.226.071-.34.058-.249.091-.374.064-.225.1-.338.079-.248.122-.37.082-.222.126-.332c.051-.13.106-.259.163-.388.048-.107.1-.216.151-.323.062-.129.129-.256.2-.384.055-.1.113-.208.173-.311.088-.151.184-.3.28-.453.059-.092.117-.184.18-.275.114-.166.236-.331.36-.5.055-.071.106-.145.162-.216.208-.261.43-.52.664-.774.06-.066.126-.13.188-.2q.277-.292.58-.577c.092-.087.185-.174.28-.26.119-.109.242-.214.368-.321s.233-.2.354-.295.265-.21.4-.313.25-.192.38-.285.287-.2.433-.3.271-.186.41-.277.308-.2.465-.295c.2-.121.388-.244.592-.362.556-.323,1.137-.622,1.728-.908.155-.075.312-.147.469-.221C497.977-465.683,498.523-465.918,499.082-466.136Z" transform="translate(-472.593 483.663)" fill="#cc096a"/>
          <g id="Grupo_92188" data-name="Grupo 92188" transform="translate(12.051 34.132)">
            <path id="Trazado_147783" data-name="Trazado 147783" d="M496.182-456.208l-.018,6.2-10.72,6.23.018-6.2Z" transform="translate(-485.445 456.208)" fill="#cc096a"/>
          </g>
          <path id="Trazado_147784" data-name="Trazado 147784" d="M476.449-457.924l.017-6.2c-.016,6.088,4,12.188,12.051,16.833l-.017,6.2C480.452-445.737,476.432-451.836,476.449-457.924Z" transform="translate(-476.449 487.652)" fill="none"/>
          <g id="Grupo_92189" data-name="Grupo 92189" transform="translate(0 23.528)">
            <path id="Trazado_147785" data-name="Trazado 147785" d="M488.517-447.291l-.017,6.2c-8.048-4.647-12.068-10.746-12.051-16.835l.017-6.2c-.016,6.088,4,12.188,12.051,16.833" transform="translate(-476.449 464.124)" fill="#cc096a"/>
          </g>
          <g id="Grupo_92190" data-name="Grupo 92190" transform="translate(0.018)">
            <path id="Trazado_147786" data-name="Trazado 147786" d="M546.05-474.762l-10.719,6.229c-10.034-5.792-26.248-5.792-36.216,0s-9.914,15.186.118,20.978l-10.719,6.229c-16-9.235-16.075-24.2-.189-33.436S530.054-484,546.05-474.762Z" transform="translate(-476.462 481.688)" fill="#ff5668"/>
          </g>
          <path id="Trazado_147787" data-name="Trazado 147787" d="M520.411-470.451l-.017,4.3c5.045,2.912,7.565,6.738,7.554,10.557l.019-6.2C527.976-465.611,525.456-467.537,520.411-470.451Z" transform="translate(-461.526 485.504)" fill="#3278cc"/>
          <g id="Grupo_92191" data-name="Grupo 92191" transform="translate(58.663 36.207)">
            <path id="Trazado_147788" data-name="Trazado 147788" d="M531.048-448.43l-.018,4.3-10.79-6.23.018-4.3Z" transform="translate(-520.24 454.659)" fill="#3278cc"/>
          </g>
          <path id="Trazado_147789" data-name="Trazado 147789" d="M540.462-463.236c-.011.206-.023.411-.044.617-.017.178-.043.356-.067.534-.028.205-.059.409-.1.612-.034.181-.072.36-.113.54-.044.2-.091.4-.145.6-.048.18-.1.359-.158.539-.062.2-.126.4-.2.591-.063.177-.13.352-.2.528q-.122.309-.26.619c-.078.171-.158.344-.241.516q-.151.307-.316.612c-.09.165-.179.33-.276.494-.141.242-.292.484-.447.725-.094.146-.185.292-.284.437-.182.265-.378.528-.577.79-.087.114-.167.229-.257.343-.33.417-.685.828-1.058,1.235-.1.1-.2.208-.3.312q-.442.464-.924.919c-.146.139-.293.277-.445.414q-.289.259-.591.516c-.184.157-.37.312-.561.468-.208.167-.423.335-.64.5-.2.151-.4.3-.606.454-.225.163-.458.326-.691.486-.214.147-.429.295-.651.439-.241.158-.49.315-.741.47-.312.193-.62.388-.946.577-.106.062-.212.118-.319.18l-.017,6.2c.107-.062.213-.118.319-.179.167-.1.333-.2.5-.293s.295-.189.445-.283c.252-.157.5-.312.745-.472.221-.145.434-.292.648-.438.234-.162.466-.324.693-.488.206-.15.406-.3.606-.454.217-.166.431-.332.64-.5.192-.154.378-.311.561-.468.2-.171.4-.341.589-.514.079-.071.165-.141.242-.212s.133-.137.2-.2q.482-.456.924-.92c.1-.1.2-.206.3-.312.374-.407.729-.819,1.058-1.235.015-.017.032-.035.046-.052.075-.1.138-.194.212-.291.2-.263.4-.525.576-.79.1-.145.192-.291.285-.437.155-.241.307-.481.447-.723.039-.067.084-.131.122-.2.056-.1.1-.2.154-.3.11-.2.216-.407.315-.611.084-.173.165-.346.242-.518.091-.2.178-.41.26-.618.036-.092.082-.184.117-.277s.054-.166.083-.249c.07-.2.134-.394.2-.591.055-.18.109-.359.158-.54q.078-.3.145-.595c.024-.109.056-.216.078-.323.015-.072.021-.145.035-.217.037-.2.067-.407.1-.612.024-.178.05-.358.067-.536.02-.2.034-.41.044-.615.007-.121.023-.241.025-.362s.005-.24.007-.359l.017-6.2C540.493-463.714,540.476-463.476,540.462-463.236Z" transform="translate(-458.843 487.71)" fill="#3278cc"/>
          <g id="Grupo_92192" data-name="Grupo 92192" transform="translate(58.681 8.824)">
            <path id="Trazado_147790" data-name="Trazado 147790" d="M531.178-475.1c15.992,9.233,16.071,24.2.184,33.434-.106.062-.212.118-.319.18l-10.789-6.229c.106-.063.212-.118.318-.18,9.968-5.792,9.914-15.186-.113-20.975Z" transform="translate(-520.254 475.101)" fill="#58affb"/>
          </g>
          <path id="Trazado_147791" data-name="Trazado 147791" d="M526.217-443.62c.446-.17.885-.348,1.322-.532.263-.109.524-.217.781-.331.464-.2.918-.417,1.369-.632.214-.1.433-.2.646-.309.655-.328,1.3-.667,1.925-1.023l.017-1.382c-.626.356-1.27.7-1.925,1.023-.213.106-.433.206-.648.309-.45.216-.9.429-1.365.632-.258.114-.52.222-.781.331q-.655.273-1.325.532-.408.159-.824.309-.685.249-1.384.48c-.293.1-.584.2-.88.289-.224.071-.449.138-.674.2-.41.122-.823.241-1.239.355-.23.064-.462.127-.7.188-.439.115-.882.224-1.326.33-.206.048-.41.1-.616.146-.648.146-1.318.284-1.976.411v1.383c.659-.126,1.311-.265,1.96-.411.2-.047.409-.1.612-.146q.667-.159,1.329-.328.35-.092.7-.188c.417-.115.828-.233,1.239-.356.225-.067.45-.134.674-.2.115-.035.233-.068.348-.1.18-.058.352-.125.532-.185q.7-.231,1.384-.48C525.669-443.411,525.943-443.514,526.217-443.62Z" transform="translate(-462.808 493.186)" fill="#e2a029"/>
          <g id="Grupo_92193" data-name="Grupo 92193" transform="translate(48.84 39.126)">
            <path id="Trazado_147792" data-name="Trazado 147792" d="M533.538-446.251A51.377,51.377,0,0,1,517.9-440.71l-4.989-8.335a32.458,32.458,0,0,0,9.841-3.435Z" transform="translate(-512.908 452.48)" fill="#ffbe3d"/>
          </g>
          <path id="Trazado_147793" data-name="Trazado 147793" d="M525.463-442.841c-.409.067-.816.137-1.228.2-.478.068-.962.126-1.444.185-.41.049-.82.1-1.232.146q-1.145.119-2.3.2c-.068,0-.137.012-.206.016-.849.058-1.7.1-2.557.122-.217.007-.435.008-.652.012-.63.013-1.261.02-1.89.016q-.392,0-.784-.008c-.7-.012-1.393-.032-2.088-.064-.133-.007-.265-.009-.4-.016q-1.23-.064-2.455-.173c-.214-.019-.429-.042-.644-.063-.631-.06-1.262-.13-1.889-.209-.228-.028-.456-.055-.682-.086-.813-.111-1.622-.23-2.426-.37l-.016,0c-.8-.138-1.586-.3-2.371-.464-.279-.06-.556-.125-.835-.189q-.806-.183-1.6-.387-.434-.111-.867-.229c-.459-.125-.912-.26-1.365-.4-.415-.126-.829-.252-1.238-.386s-.829-.28-1.24-.425-.805-.287-1.2-.438c-.6-.23-1.2-.466-1.786-.717l-.176-.072c-.685-.3-1.354-.612-2.013-.936-.159-.079-.318-.158-.476-.239-.659-.335-1.31-.679-1.94-1.043l-.017,2.583c.63.363,1.281.707,1.94,1.042.158.08.316.161.476.239.659.325,1.329.64,2.013.936.058.025.117.048.174.072.433.186.868.368,1.31.543.157.062.319.114.476.174.4.151.8.3,1.206.439s.82.288,1.235.423.827.261,1.243.387c.253.075.5.161.756.234.2.056.4.1.6.159q.434.119.872.23c.529.137,1.062.264,1.6.386.279.064.556.13.837.189.122.027.241.058.363.083q1,.205,2.005.38l.025,0q.995.173,2,.315c.138.02.279.035.418.054.226.031.454.058.682.086q.94.119,1.889.21c.216.02.429.043.644.062.111.009.221.023.332.032.7.059,1.413.1,2.122.141.135.008.269.011.4.016.5.023.993.047,1.49.059.2,0,.4,0,.593.005.261.005.522.007.784.008q.946.006,1.89-.015c.217-.005.435-.007.652-.013.087,0,.174,0,.261,0q1.151-.04,2.3-.117c.07,0,.138-.012.208-.017.675-.047,1.35-.1,2.023-.167.091-.009.181-.023.272-.032.414-.043.824-.1,1.235-.147.482-.059.965-.115,1.443-.185.413-.059.82-.13,1.228-.2.352-.058.709-.106,1.06-.17.234-.042.468-.086.7-.13l.017-2.581C526.641-443.028,526.051-442.937,525.463-442.841Z" transform="translate(-473.394 492.837)" fill="#7974f5"/>
          <g id="Grupo_92194" data-name="Grupo 92194" transform="translate(12.068 37.743)">
            <path id="Trazado_147794" data-name="Trazado 147794" d="M522.23-449.9l4.989,8.335c-14.172,2.723-30.435.823-41.76-5.716l10.719-6.23C503.244-449.433,513.376-448.234,522.23-449.9Z" transform="translate(-485.458 453.513)" fill="#b391ff"/>
          </g>
        </g>
      </g>
      <g id="Grupo_92226" data-name="Grupo 92226" transform="translate(585.011 -630.007)">
        <g id="Grupo_92215" data-name="Grupo 92215">
          <g id="Grupo_92199" data-name="Grupo 92199">
            <path id="Trazado_147795" data-name="Trazado 147795" d="M533.684-628.606c-.108-.063-.217-.123-.324-.182q-.211-.115-.419-.217c-.138-.068-.276-.134-.414-.194s-.273-.119-.409-.174-.275-.107-.411-.155c-.027-.009-.054-.016-.079-.025l-.031-.009c-.1-.035-.2-.068-.3-.1-.141-.043-.281-.082-.421-.117s-.281-.067-.419-.094-.3-.054-.446-.074c-.1-.013-.2-.021-.3-.029l-.044-.005-.11-.011c-.162-.012-.321-.017-.48-.016-.18,0-.355.009-.529.026a5.893,5.893,0,0,0-.587.084l-.015,0-.019.005a5.2,5.2,0,0,0-.68.188,4.859,4.859,0,0,0-.825.382l-6.765,3.932a5,5,0,0,1,1.5-.569l.02-.005a6.093,6.093,0,0,1,1.719-.087l.047.005a8.222,8.222,0,0,1,1.885.411l.029.009a11.715,11.715,0,0,1,2.058.948L715.9-515.567l6.765-3.932Z" transform="translate(-516.315 630.007)" fill="url(#linear-gradient-3)"/>
            <path id="Trazado_147796" data-name="Trazado 147796" d="M683.081-530.357c-.005-.163-.012-.328-.023-.494s-.024-.331-.04-.5-.035-.332-.055-.5-.046-.342-.074-.513l0-.015v-.011c-.025-.163-.055-.327-.084-.49s-.07-.355-.109-.533-.08-.356-.125-.534-.092-.362-.142-.541c-.04-.141-.08-.28-.123-.419l-.009-.033c-.008-.03-.016-.058-.025-.087-.054-.176-.11-.352-.169-.528s-.119-.347-.181-.52-.123-.332-.188-.5-.131-.331-.2-.5c-.052-.127-.107-.252-.162-.379l-.011-.023-.036-.086q-.111-.249-.225-.494c-.084-.179-.171-.358-.26-.536-.1-.2-.208-.409-.315-.611s-.241-.433-.363-.647c-.023-.038-.041-.075-.064-.114s-.05-.09-.076-.135c-.24-.409-.493-.812-.755-1.2q-.313-.47-.646-.92c-.149-.2-.3-.4-.454-.595q-.193-.247-.392-.486c-.13-.157-.261-.309-.4-.462s-.263-.295-.4-.439l-.08-.084-.029-.031c-.1-.109-.2-.216-.307-.322q-.213-.217-.43-.425c-.149-.142-.3-.281-.449-.418s-.3-.267-.454-.4c-.076-.064-.153-.125-.23-.188l-.052-.043c-.058-.046-.114-.094-.171-.139-.149-.118-.3-.232-.449-.343s-.295-.213-.443-.315-.289-.194-.434-.288-.288-.18-.433-.264l-.1-.059-6.765,3.932a15.791,15.791,0,0,1,2.031,1.408l.051.043a19.541,19.541,0,0,1,1.871,1.748l.03.031a23.907,23.907,0,0,1,3.2,4.327c.021.037.042.076.063.114a24.729,24.729,0,0,1,1.2,2.371l.012.029a22.657,22.657,0,0,1,.924,2.5l.009.033a19.692,19.692,0,0,1,.583,2.52v.009a15.606,15.606,0,0,1,.2,2.48l-.366,129.122a11.567,11.567,0,0,1-.208,2.2l-.013.063a8.12,8.12,0,0,1-.576,1.8l-.013.035a6,6,0,0,1-.766,1.184c-.094.119-.182.244-.284.351a4.977,4.977,0,0,1-1.115.92l6.765-3.932a4.989,4.989,0,0,0,1.116-.92c.1-.107.189-.232.283-.35.122-.154.258-.285.368-.455a6.31,6.31,0,0,0,.385-.7l.013-.033.013-.031c.078-.166.151-.338.218-.516s.123-.354.178-.537.1-.343.135-.522c.016-.072.029-.149.046-.224l.012-.063c.015-.071.031-.139.043-.213.028-.159.052-.322.072-.488s.038-.324.051-.492.023-.319.031-.482.011-.327.011-.494v-.029l.366-129.122C683.087-530.049,683.086-530.2,683.081-530.357Z" transform="translate(-466.566 658.021)" fill="url(#linear-gradient-4)"/>
            <g id="Grupo_92198" data-name="Grupo 92198" transform="translate(0 3.932)">
              <g id="Grupo_92197" data-name="Grupo 92197">
                <path id="Trazado_147797" data-name="Trazado 147797" d="M716.746-516.564c5.638,3.255,10.189,11.139,10.17,17.617l-.366,129.122c-.019,6.48-4.6,9.09-10.237,5.834L527.333-473.1c-5.638-3.255-10.189-11.137-10.172-17.617l.367-129.122c.017-6.48,4.6-9.089,10.237-5.834Z" transform="translate(-517.162 627.072)" fill="#343996"/>
              </g>
            </g>
          </g>
          <g id="Grupo_92200" data-name="Grupo 92200" transform="translate(82.089 26.76)">
            <path id="Trazado_147798" data-name="Trazado 147798" d="M641.174-575.3a7.043,7.043,0,0,1,3.2,5.538l-.115,40.587c-.005,2.036-1.445,2.856-3.218,1.833l-59.4-34.295a7.041,7.041,0,0,1-3.2-5.537l.115-40.587c.005-2.036,1.445-2.857,3.218-1.834Z" transform="translate(-578.441 610.031)" fill="#2689fd"/>
          </g>
          <g id="Grupo_92203" data-name="Grupo 92203" transform="translate(20.828 37.027)">
            <g id="Grupo_92201" data-name="Grupo 92201" transform="translate(0.025)">
              <path id="Trazado_147799" data-name="Trazado 147799" d="M544.248-595.907l-.005,1.842a1.412,1.412,0,0,1-2.119,1.218l-8.691-5.042a1.414,1.414,0,0,1-.7-1.224l.005-1.843a1.412,1.412,0,0,1,2.121-1.216l8.69,5.042A1.41,1.41,0,0,1,544.248-595.907Z" transform="translate(-532.729 602.367)" fill="#fff"/>
            </g>
            <g id="Grupo_92202" data-name="Grupo 92202" transform="translate(0 9.167)">
              <path id="Trazado_147800" data-name="Trazado 147800" d="M571.746-573.2l-.005,1.847a1.412,1.412,0,0,1-2.118,1.218l-36.207-20.9a1.412,1.412,0,0,1-.706-1.226l.005-1.847a1.411,1.411,0,0,1,2.117-1.218l36.208,20.9A1.412,1.412,0,0,1,571.746-573.2Z" transform="translate(-532.71 595.524)" fill="#1ae5ff"/>
            </g>
          </g>
          <path id="Trazado_147801" data-name="Trazado 147801" d="M528.891-531.957l14.415-7.352,9.428,15.231,10.516,10.7,10.516-6.346,22.483-7.253L606.4-512.475l10.154,8.341,9.247,13.6,12.511-26.291,15.231,7.253,7.978-6.527,16.5,4.352,24.478-2.176" transform="translate(-513.179 660.807)" fill="none" stroke="#16c5dc" stroke-miterlimit="10" stroke-width="1"/>
          <g id="Grupo_92206" data-name="Grupo 92206" transform="translate(87.184 43.992)">
            <g id="Grupo_92204" data-name="Grupo 92204">
              <path id="Trazado_147802" data-name="Trazado 147802" d="M596.008-595.293c-5.472-3.159-10.652-2.354-12.792,2.626-2.678,6.225.367,16.71,6.813,23.963l1.5-3.482c-4.367-5.1-6.4-12.3-4.548-16.6,1.51-3.51,5.16-4.076,9.017-1.85a15.7,15.7,0,0,1,2.831,2.125l1.495-3.482A22.588,22.588,0,0,0,596.008-595.293Z" transform="translate(-582.245 597.167)" fill="#f1f1f1"/>
            </g>
            <g id="Grupo_92205" data-name="Grupo 92205" transform="translate(7.785 5.173)">
              <path id="Trazado_147803" data-name="Trazado 147803" d="M598.347-593.306l-1.495,3.479c.236.22.472.45.7.691,4.963,5.115,7.388,12.971,5.419,17.555-.072.164-.149.321-.23.477-.028.055-.06.109-.092.164-1.436,2.526-4.186,3.144-7.235,1.921a10.985,10.985,0,0,1-1.449-.709c-.131-.075-.261-.153-.393-.234-.238-.149-.419-.272-.6-.392l-.082-.059c-.391-.276-.78-.576-1.172-.911l-.147-.129c-.143-.126-.288-.256-.431-.39-.054-.048-.107-.1-.161-.15-.188-.177-.375-.362-.56-.551-.3-.311-.589-.63-.871-.954l-1.5,3.482c.285.32.573.638.871.943.267.273.533.534.8.788.075.072.15.145.229.216.2.189.41.374.616.555.07.062.138.122.208.181.555.472,1.112.906,1.668,1.294.043.034.087.062.131.091.253.178.508.343.758.5l.088.055q.259.161.517.31.617.356,1.226.646c.308.146.6.269.885.385,4.652,1.846,8.819.682,10.681-3.653,2.794-6.5-.647-17.652-7.685-24.906C598.817-592.851,598.581-593.082,598.347-593.306Z" transform="translate(-588.056 593.306)" fill="#fdb913"/>
            </g>
          </g>
          <g id="Grupo_92211" data-name="Grupo 92211" transform="translate(119.952 64.621)">
            <g id="Grupo_92207" data-name="Grupo 92207" transform="translate(0.044)">
              <path id="Trazado_147804" data-name="Trazado 147804" d="M613.4-578.035l0,1.065a.817.817,0,0,1-1.226.7l-5.023-2.915a.816.816,0,0,1-.406-.707l0-1.065a.816.816,0,0,1,1.226-.7l5.022,2.914A.818.818,0,0,1,613.4-578.035Z" transform="translate(-606.739 581.768)" fill="#fff"/>
            </g>
            <g id="Grupo_92208" data-name="Grupo 92208" transform="translate(0.03 5.299)">
              <path id="Trazado_147805" data-name="Trazado 147805" d="M629.289-564.911l0,1.068a.815.815,0,0,1-1.223.7l-20.928-12.082a.814.814,0,0,1-.407-.709l0-1.068a.816.816,0,0,1,1.224-.7l20.927,12.082A.814.814,0,0,1,629.289-564.911Z" transform="translate(-606.728 577.813)" fill="#fff"/>
            </g>
            <g id="Grupo_92209" data-name="Grupo 92209" transform="translate(0 15.902)" opacity="0.53">
              <path id="Trazado_147806" data-name="Trazado 147806" d="M620.639-561.977l0,1.066a.816.816,0,0,1-1.224.7l-12.3-7.1a.814.814,0,0,1-.407-.709l0-1.068a.815.815,0,0,1,1.223-.7l12.3,7.1A.815.815,0,0,1,620.639-561.977Z" transform="translate(-606.706 569.897)" fill="#fff"/>
            </g>
            <g id="Grupo_92210" data-name="Grupo 92210" transform="translate(0.015 10.6)">
              <path id="Trazado_147807" data-name="Trazado 147807" d="M626.033-562.827l0,1.068a.815.815,0,0,1-1.223.7l-17.683-10.208a.816.816,0,0,1-.407-.709l0-1.068a.815.815,0,0,1,1.223-.7l17.683,10.209A.814.814,0,0,1,626.033-562.827Z" transform="translate(-606.717 573.855)" fill="#58affb"/>
            </g>
          </g>
          <g id="Grupo_92214" data-name="Grupo 92214" transform="translate(178.282 131.98)">
            <g id="Grupo_92212" data-name="Grupo 92212">
              <path id="Trazado_147808" data-name="Trazado 147808" d="M661.339-529.971c-6.1-3.52-11.07-.686-11.09,6.319s4.922,15.535,11.018,19.054,11.044.7,11.064-6.3S667.436-526.452,661.339-529.971Z" transform="translate(-650.249 531.484)" fill="#ff4272"/>
            </g>
            <g id="Grupo_92213" data-name="Grupo 92213" transform="translate(6.05 7.781)">
              <path id="Trazado_147809" data-name="Trazado 147809" d="M659.779-524.993c-2.757-1.59-5.006-.309-5.014,2.857a10.969,10.969,0,0,0,4.981,8.615c2.757,1.59,4.993.316,5-2.851A10.968,10.968,0,0,0,659.779-524.993Z" transform="translate(-654.765 525.676)" fill="#212973"/>
            </g>
          </g>
        </g>
        <g id="Grupo_92220" data-name="Grupo 92220" transform="translate(21.242 60.715)">
          <g id="Grupo_92216" data-name="Grupo 92216">
            <path id="Trazado_147810" data-name="Trazado 147810" d="M544.911-578.053v1.9a1.456,1.456,0,0,1-2.182,1.262l-8.979-5.174a1.454,1.454,0,0,1-.729-1.261v-1.9a1.456,1.456,0,0,1,2.182-1.262l8.981,5.173A1.457,1.457,0,0,1,544.911-578.053Z" transform="translate(-533.019 584.683)" fill="#1ce5ff"/>
          </g>
          <g id="Grupo_92217" data-name="Grupo 92217" transform="translate(0.003 9.455)">
            <path id="Trazado_147811" data-name="Trazado 147811" d="M573.345-554.719v1.9a1.455,1.455,0,0,1-2.18,1.262L533.752-573a1.457,1.457,0,0,1-.731-1.262v-1.9a1.456,1.456,0,0,1,2.18-1.265l37.414,21.448A1.455,1.455,0,0,1,573.345-554.719Z" transform="translate(-533.021 577.625)" fill="#1ce5ff"/>
          </g>
          <g id="Grupo_92218" data-name="Grupo 92218" transform="translate(0.007 28.379)" opacity="0.53">
            <path id="Trazado_147812" data-name="Trazado 147812" d="M557.924-549.436v1.9a1.456,1.456,0,0,1-2.18,1.263l-21.988-12.606a1.459,1.459,0,0,1-.733-1.263v-1.9a1.456,1.456,0,0,1,2.18-1.263l21.989,12.6A1.459,1.459,0,0,1,557.924-549.436Z" transform="translate(-533.024 563.499)" fill="#1ce5ff"/>
          </g>
          <g id="Grupo_92219" data-name="Grupo 92219" transform="translate(0.004 18.917)">
            <path id="Trazado_147813" data-name="Trazado 147813" d="M567.546-550.982v1.9a1.456,1.456,0,0,1-2.18,1.263l-31.612-18.122a1.455,1.455,0,0,1-.731-1.263v-1.9a1.455,1.455,0,0,1,2.18-1.262l31.613,18.122A1.455,1.455,0,0,1,567.546-550.982Z" transform="translate(-533.022 570.562)" fill="#1ce5ff"/>
          </g>
        </g>
        <g id="Grupo_92225" data-name="Grupo 92225" transform="translate(133.859 194.14)">
          <g id="Grupo_92224" data-name="Grupo 92224">
            <g id="Grupo_92223" data-name="Grupo 92223" style="isolation: isolate">
              <g id="Grupo_92221" data-name="Grupo 92221" transform="translate(28.266 31.228)">
                <path id="Trazado_147814" data-name="Trazado 147814" d="M638.286-458.806l5.1-2.964-.1,34.632-5.1,2.964Z" transform="translate(-638.188 461.771)" fill="#00a935"/>
              </g>
              <path id="Trazado_147815" data-name="Trazado 147815" d="M651.742-451.814v-.083l0-.043,0-.042-.007-.044-.007-.044-.009-.044,0-.011v0l-.008-.032-.012-.047-.013-.046-.015-.047-.015-.044-.017-.044-.019-.044-.019-.046-.02-.046-.023-.047h0l-15.88-31.614-.02-.039c-.013-.025-.028-.051-.043-.076-.025-.043-.051-.084-.078-.123s-.034-.048-.051-.072l-.038-.049-.035-.043-.033-.039-.019-.021h0l-.015-.016-.036-.039-.039-.037-.04-.038-.04-.035-.04-.034-.04-.031-.039-.027-.039-.025-.037-.024-.008,0-.03-.016-.036-.019-.036-.017-.038-.016-.036-.013-.036-.012-.037-.011-.037-.008-.039-.005h-.016l-.024,0c-.013,0-.028,0-.042,0h-.046l-.051.007c-.022.005-.043.011-.063.017a.518.518,0,0,0-.074.034l-5.1,2.966a.477.477,0,0,1,.3-.058h0a.871.871,0,0,1,.339.121,1.571,1.571,0,0,1,.375.309h0a2.151,2.151,0,0,1,.316.464l15.88,31.613a2.04,2.04,0,0,1,.162.443v0a1.31,1.31,0,0,1,.032.386h0a.756.756,0,0,1-.08.3l0,.005a.471.471,0,0,1-.178.193l5.1-2.965a.459.459,0,0,0,.154-.15.411.411,0,0,0,.024-.043l0-.005.008-.015c.009-.019.016-.036.024-.056l.015-.047.013-.048.008-.043.007-.044,0-.042v-.007h0v-.075Z" transform="translate(-612.963 485.082)" fill="#61e041"/>
              <g id="Grupo_92222" data-name="Grupo 92222" transform="translate(0 2.964)">
                <path id="Trazado_147816" data-name="Trazado 147816" d="M634-482.746a1.868,1.868,0,0,1,.693.774l15.88,31.613c.469.942.051,1.7-.7,1.267l-4.418-2.551-.1,34.633-23.2-13.393.1-34.632-4.271-2.465c-.758-.438-1.171-1.677-.688-2.068l16.007-13.2A.6.6,0,0,1,634-482.746Z" transform="translate(-617.087 482.87)" fill="#00cc41"/>
              </g>
            </g>
          </g>
        </g>
      </g>
      <g id="Grupo_92254" data-name="Grupo 92254" transform="translate(571.128 -389.958)">
        <g id="Grupo_92234" data-name="Grupo 92234" transform="translate(0 19.426)">
          <g id="Grupo_92227" data-name="Grupo 92227">
            <path id="Trazado_147817" data-name="Trazado 147817" d="M506.8-424.721l45.893,46.845,44.572-11.589-45.893-46.845Z" transform="translate(-506.799 436.309)" fill="#fff"/>
          </g>
          <g id="Grupo_92233" data-name="Grupo 92233" transform="translate(22.909 9.952)">
            <g id="Grupo_92231" data-name="Grupo 92231" transform="translate(3.86)" style="isolation: isolate">
              <g id="Grupo_92228" data-name="Grupo 92228" transform="translate(1.326)">
                <path id="Trazado_147818" data-name="Trazado 147818" d="M548.952-424.374l-4.394,1.661a14.664,14.664,0,0,0-12.907-2.04c-.081.031-.157.063-.235.1l-3.645-3c.078-.032.155-.063.236-.094C534.313-430.135,543.633-428.62,548.952-424.374Z" transform="translate(-527.772 428.88)" fill="#e2edff"/>
              </g>
              <g id="Grupo_92229" data-name="Grupo 92229" transform="translate(18.663 4.973)">
                <path id="Trazado_147819" data-name="Trazado 147819" d="M545.113-425.168c4.264,3.772,4.017,8.295-.315,10.932l-3.758-3.092c1.985-1.633,1.94-4.078-.327-6.177Z" transform="translate(-540.714 425.168)" fill="#e2edff"/>
              </g>
              <g id="Grupo_92230" data-name="Grupo 92230" transform="translate(0 12.031)">
                <path id="Trazado_147820" data-name="Trazado 147820" d="M548.94-415.691a12.9,12.9,0,0,1-1.447.648c-6.216,2.35-15.356.914-20.711-3.192l4.4-1.664a14.712,14.712,0,0,0,12.669,1.858,7.336,7.336,0,0,0,1.393-.693Z" transform="translate(-526.782 419.899)" fill="#3eabff"/>
              </g>
            </g>
            <g id="Grupo_92232" data-name="Grupo 92232" transform="translate(0 1.502)">
              <path id="Trazado_147821" data-name="Trazado 147821" d="M532.1-424.744c-3.081,1.606-3.354,4.6-.514,7.054l-4.394,1.661c-4.851-4.117-4.249-9.191,1.244-11.731Z" transform="translate(-523.901 427.759)" fill="#3eabff"/>
            </g>
          </g>
        </g>
        <g id="Grupo_92238" data-name="Grupo 92238" transform="translate(43.052 159.893)">
          <g id="Grupo_92235" data-name="Grupo 92235" transform="translate(0 99.146)">
            <path id="Trazado_147822" data-name="Trazado 147822" d="M540.606-254.688s-3.6,2.474-.225,8.322,6.3,2.249,13.944,8.1,10.346,6.973,14.394,6.522,6.521-2.474,7.2-4.723-1.349-6.072-1.349-6.072Z" transform="translate(-538.937 258.374)" fill="#94a3c0"/>
            <path id="Trazado_147823" data-name="Trazado 147823" d="M572.737-253.529s1.575,7.646,2.474,13.494c.225,2.7-3.373,6.372-8.545,6.147s-8.1-1.8-9.9-4.048-13.044-6.6-15.068-8.4-2.474-7.2-1.574-8.547A6.789,6.789,0,0,1,548-256.9c3.6,1.574,6.522,4.5,13.719,4.947S572.737-253.529,572.737-253.529Z" transform="translate(-538.683 257.44)" fill="#382747"/>
          </g>
          <g id="Grupo_92237" data-name="Grupo 92237" transform="translate(35.685 0.997)">
            <g id="Grupo_92236" data-name="Grupo 92236" transform="translate(0 78.657)">
              <path id="Trazado_147824" data-name="Trazado 147824" d="M567.244-269.238s-3.6,2.474-.225,8.322,6.3,2.249,13.944,8.1,10.346,6.971,14.394,6.522,6.521-2.474,7.2-4.723-1.349-6.072-1.349-6.072Z" transform="translate(-565.576 272.925)" fill="#94a3c0"/>
              <path id="Trazado_147825" data-name="Trazado 147825" d="M599.376-268.078s1.574,7.646,2.473,13.494c.225,2.7-3.373,6.372-8.545,6.147s-8.1-1.8-9.9-4.048-13.045-6.6-15.069-8.4-2.474-7.2-1.574-8.545a6.786,6.786,0,0,1,7.871-2.024c3.6,1.574,6.522,4.5,13.719,4.947S599.376-268.078,599.376-268.078Z" transform="translate(-565.322 271.99)" fill="#382747"/>
            </g>
            <path id="Trazado_147826" data-name="Trazado 147826" d="M570.35-310.361c1.8,14.394,9,52.177,10.194,65.371,0,0,3,4.8,11.995,3.6l4.271-1.78a4.138,4.138,0,0,0,2.522-4.332c-.906-7.275-2.94-25.6-1.995-36.469,1.2-13.794-2.4-22.19-2.4-22.19.3-4.5.9-20.091-8.1-24.289,0,0-22.04-4.048-16.492,20.091" transform="translate(-564.259 330.708)" fill="#14347c"/>
          </g>
          <path id="Trazado_147827" data-name="Trazado 147827" d="M597.539-323.6l-2.4,4.8s-36.884,1.8-46.78,12.595c0,0-6.6,1.2-4.8,15.593s9,52.177,10.194,65.372c0,0,3,4.8,11.995,3.6l4.271-1.779a4.14,4.14,0,0,0,2.522-4.334c-.906-7.275-2.94-25.6-1.995-36.469,1.2-13.794-2.4-22.19-2.4-22.19a188.514,188.514,0,0,1,33.585,10.2c17.393,7.2,32.386-1.2,38.983-4.8s9-6,9-6a27.426,27.426,0,0,0,16.193-6.6c7.8-6.6,9-23.989.6-34.185S597.539-323.6,597.539-323.6Z" transform="translate(-537.472 331.452)" fill="#18388f"/>
        </g>
        <g id="Grupo_92240" data-name="Grupo 92240" transform="translate(101.542 52.295)">
          <path id="Trazado_147828" data-name="Trazado 147828" d="M593.627-387.485s5.96-2.209,5.567-10.17c-1.809-7.841-3.995-8.368-3.995-8.368s8.338-7.7,18.394-5.277c0,0,6.212,12.6,13.238,18C626.831-393.3,621.214-378.489,593.627-387.485Z" transform="translate(-578.855 411.773)" fill="#ce7c56"/>
          <g id="Grupo_92239" data-name="Grupo 92239" transform="translate(0 9.594)">
            <path id="Trazado_147829" data-name="Trazado 147829" d="M608.337-385.478s22.04-18.442,26.539-18.892c5.4-.45,12.145,1.349,13.944,9a14.123,14.123,0,0,1-6.3,15.744c-4.048,2.248-39.582,19.341-45.88,19.341s-10.346-5.4-6.3-12.145S608.337-385.478,608.337-385.478Z" transform="translate(-580.522 404.671)" fill="#e2a029"/>
            <path id="Trazado_147830" data-name="Trazado 147830" d="M617.163-398.63s-23.389,7.8-29.987,18.591-5.4,22.79-.6,39.582-4.8,31.786-2.4,40.782,19.192,17.392,43.781,13.194,26.389-13.794,28.188-19.191-4.8-31.186,1.2-52.177-6-35.384-10.8-38.982S632.155-405.227,617.163-398.63Z" transform="translate(-582.6 405.527)" fill="#ffbe3d"/>
            <path id="Trazado_147831" data-name="Trazado 147831" d="M646.27-396.831c-4.8-3.6-14.394-8.4-29.387-1.8,0,0-23.389,7.8-29.987,18.591a30.261,30.261,0,0,0-3.474,8.113c9.471-12.311,22.911-17.716,31.661,3.283,8.165,19.6-12.608,77.2-30.761,59.088-.763,3.778-1.163,7.115-.426,9.881,2.4,9,19.192,17.392,43.781,13.194s26.389-13.794,28.188-19.191-4.8-31.186,1.2-52.177S651.068-393.233,646.27-396.831Z" transform="translate(-582.321 405.527)" fill="#e2a029"/>
            <path id="Trazado_147832" data-name="Trazado 147832" d="M591.724-387.518s6.3,4.047,22.04,1.8,16.643-13.5,15.293-14.394-4.048-4.5-4.048-4.5-16.642,7.646-22.489,9.9-9,3.6-9,3.6Z" transform="translate(-579.502 404.611)" fill="#fff"/>
          </g>
        </g>
        <g id="Grupo_92241" data-name="Grupo 92241" transform="translate(100.985)">
          <path id="Trazado_147833" data-name="Trazado 147833" d="M584.021-422.365s-1.349,16.193,7.2,26.989,17.092,4.5,22.489,1.8,7.646-7.2,9.447-20.241,1.8-25.638-7.648-29.687-19.791-4.948-25.638,4.947S584.021-422.365,584.021-422.365Z" transform="translate(-581.587 452.318)" fill="#ffaa83"/>
          <path id="Trazado_147834" data-name="Trazado 147834" d="M590.915-440.2s-7.646,5.847-7.2,14.394-2.249,9.9-1.35,14.393,8.1,5.847,8.547,12.145,9.9,8.547,14.844,10.346,13.044-4.048,15.293-7.2,1.8-11.246,4.5-18.442,1.349-16.193-.9-22.49S617.9-444.7,617.9-444.7a10.971,10.971,0,0,0-7.648-5.847C604.859-451.445,588.216-450.544,590.915-440.2Z" transform="translate(-582.184 450.811)" fill="#4d2c63"/>
        </g>
        <g id="Grupo_92252" data-name="Grupo 92252" transform="translate(68.54 101.916)">
          <g id="Grupo_92251" data-name="Grupo 92251" transform="translate(0)">
            <g id="Grupo_92250" data-name="Grupo 92250" transform="translate(27.263 132.144)">
              <g id="Grupo_92244" data-name="Grupo 92244" transform="translate(0 16.207)">
                <g id="Grupo_92243" data-name="Grupo 92243" style="isolation: isolate">
                  <path id="Trazado_147835" data-name="Trazado 147835" d="M664.314-243.952c-.817,9.076-9.358,15.239-17.064,18.56a65.529,65.529,0,0,1-26.725,4.958,63.586,63.586,0,0,1-27.16-6.02c-7.313-3.6-15.074-10.125-15.049-19-.017,6.464.435,11.806,5.093,16.852,6,6.5,15.025,10,23.518,11.75,16.571,3.421,39.131,1.768,51.718-10.987,5.065-5.132,5.756-10.543,5.775-17.368Q664.394-244.579,664.314-243.952Z" transform="translate(-578.316 270.281)" fill="#adcdfc"/>
                  <g id="Grupo_92242" data-name="Grupo 92242" transform="translate(0.001)">
                    <path id="Trazado_147836" data-name="Trazado 147836" d="M651.7-256.685c16.867,9.738,16.975,25.53.218,35.267s-44.039,9.737-60.9,0-16.936-25.529-.18-35.267S634.836-266.422,651.7-256.685Z" transform="translate(-578.316 263.988)" fill="#e2edff"/>
                  </g>
                </g>
              </g>
              <g id="Grupo_92249" data-name="Grupo 92249" transform="translate(37.406)">
                <g id="Grupo_92248" data-name="Grupo 92248" style="isolation: isolate">
                  <g id="Grupo_92245" data-name="Grupo 92245" transform="translate(6.627 3.826)">
                    <path id="Trazado_147837" data-name="Trazado 147837" d="M617.876-273.23,617.77-235.6l-6.584,3.826.107-37.633Z" transform="translate(-611.186 273.23)" fill="#c7d8f2"/>
                  </g>
                  <g id="Grupo_92246" data-name="Grupo 92246" transform="translate(0 3.826)">
                    <path id="Trazado_147838" data-name="Trazado 147838" d="M612.972-269.4l-.107,37.633-6.627-3.826.107-37.633Z" transform="translate(-606.239 273.23)" fill="#7baeff"/>
                  </g>
                  <g id="Grupo_92247" data-name="Grupo 92247" transform="translate(0.107)">
                    <path id="Trazado_147839" data-name="Trazado 147839" d="M619.529-272.26l-6.584,3.826-6.627-3.826,6.584-3.826Z" transform="translate(-606.319 276.086)" fill="#4da5dc"/>
                  </g>
                </g>
              </g>
            </g>
            <path id="Trazado_147840" data-name="Trazado 147840" d="M712.7-367.255a7.741,7.741,0,0,0-10.295-7.034c-21.513,7.546-70.822,25.417-73.99,31.752-3.019,6.039-12.773,39.766-17.575,56.661a7.739,7.739,0,0,1-11.386,4.54l-29.8-17.575a7.75,7.75,0,0,0-11.581,7.949l4.785,28.71a7.753,7.753,0,0,0,3.784,5.445l31.888,18.318a61.318,61.318,0,0,0,57.968,1.676l24.581-12.292a61.316,61.316,0,0,0,33.856-57.087Z" transform="translate(-557.964 374.731)" fill="#3278cc"/>
          </g>
          <path id="Trazado_147841" data-name="Trazado 147841" d="M628.42-350.344c-3.019,6.039-12.773,39.766-17.575,56.661a7.739,7.739,0,0,1-11.386,4.54l-29.8-17.575a7.75,7.75,0,0,0-11.581,7.949l4.785,28.71a7.716,7.716,0,0,0,.607,1.906q.569.9,1.152,1.79a7.709,7.709,0,0,0,2.025,1.749L598.532-246.3a61.271,61.271,0,0,0,21.569,7.482c25.865-20.071,22.6-103.848,13.224-110.883a12.95,12.95,0,0,0-3.693-2.04A5.069,5.069,0,0,0,628.42-350.344Z" transform="translate(-557.964 382.539)" fill="#3aaeef"/>
        </g>
        <g id="Grupo_92253" data-name="Grupo 92253" transform="translate(22.613 55.493)">
          <path id="Trazado_147842" data-name="Trazado 147842" d="M572.521-364.884s22.04-18.442,26.539-18.892c5.4-.45,12.145,1.349,13.944,9a14.122,14.122,0,0,1-6.3,15.743c-4.048,2.249-39.582,19.341-45.88,19.341s-10.346-5.4-6.3-12.145S572.521-364.884,572.521-364.884Z" transform="translate(-513.755 418.061)" fill="#ffbe3d"/>
          <path id="Trazado_147843" data-name="Trazado 147843" d="M551.41-385.447a16.2,16.2,0,0,1-1.349-3.823c-.225-1.574.674-3.6-.225-7.2s-2.474-6.747-3.149-9.222c-1.8-2.248-3.373,1.8-2.024,5.173s.9,5.4-.449,5.622-6.973-3.148-8.547-4.947-10.571-10.571-11.47-9.447-.9,2.249,2.248,5.622,4.273,4.948,4.5,5.847a14.849,14.849,0,0,0,1.125,4.5c1.124,2.7.224,4.5,2.249,6.973s5.847,2.923,7.646,4.5l1.8,1.575Z" transform="translate(-523.679 409.386)" fill="#ffaa83"/>
          <path id="Trazado_147844" data-name="Trazado 147844" d="M566.306-336.593s-9.445,1.8-14.544-8.7-13.794-38.682-14.993-41.381c0,0,3-6.6,10.5-6.3,0,0,8.4,16.493,13.194,23.989S582.349-339.592,566.306-336.593Z" transform="translate(-519.234 414.958)" fill="#ffbe3d"/>
        </g>
      </g>
      <g id="Grupo_92257" data-name="Grupo 92257" transform="translate(352.126 -454.009)">
        <g id="Grupo_92255" data-name="Grupo 92255" transform="translate(91.773 3.368)">
          <path id="Trazado_147845" data-name="Trazado 147845" d="M455.126-480.36s2.932-1.865,4.664-1.333a75.713,75.713,0,0,0,9.594,1.6c1.866.134,5.6-3.2,6.264-3.731s1.066-1.732,1.866-2.532,1.2-.667,1.2-2.133,1.466-2.8,2.133-3.464,3.33-2.265,3.065-3.466-1.6-.533-2.4-.267-3.865,3.065-5.2,3.865a16.589,16.589,0,0,1-6.13,2,13.2,13.2,0,0,1-3.065-.4s-.4,0,1.2-.533,2.532-.134,3.863-.4,2-1.066,1.866-1.733-1.866-.666-2.532-.666a52.415,52.415,0,0,1-6.263-.134c-1.6-.265-4.265,2.4-4.8,2.932s-3.332,1.333-4.8,1.466S455.126-480.36,455.126-480.36Z" transform="translate(-397.217 496.111)" fill="#ff9f75"/>
          <path id="Trazado_147846" data-name="Trazado 147846" d="M412.381-482.577s2.789,9.2,14.452,8.849,40.667-5.728,43.614-5.918c0,0,4.453-5.717.709-12.218,0,0-18.505.214-27.372-.559S407.6-498.179,412.381-482.577Z" transform="translate(-411.823 496.9)" fill="#e1e8f2"/>
        </g>
        <g id="Grupo_92256" data-name="Grupo 92256">
          <path id="Trazado_147847" data-name="Trazado 147847" d="M373.917-462.509s-4.875-28.322-8.013-31.574c-3.825-3.835-10.133-6.828-16.453-2.162a14.122,14.122,0,0,0-5.384,16.078c1.632,4.335,17.669,40.358,22.47,44.432s11.381,2.577,12.659-5.185S373.917-462.509,373.917-462.509Z" transform="translate(-343.315 498.625)" fill="#e1e8f2"/>
          <path id="Trazado_147848" data-name="Trazado 147848" d="M403.022-460.234s3.823.224,5.172.224,11.7-.9,13.5-.9,1.8,2.024,1.8,2.024,1.8,2.924,1.8,4.048a11.132,11.132,0,0,0,.45,3.823c.449,1.124-.225,2.024-.675,2.923s-1.574,1.35-2.7,2.025a3.636,3.636,0,0,1-3.373.224c-.9-.449-.9-.674.225-1.349a11.976,11.976,0,0,0,2.024-1.574,6.178,6.178,0,0,1-3.373,1.574c-2.024.225-5.174.225-6.973-.675l-4.947-2.473-3.6-.45Z" transform="translate(-323.268 511.434)" fill="#ff9f75"/>
          <path id="Trazado_147849" data-name="Trazado 147849" d="M360.224-451.686s2.789,9.2,14.452,8.849,40.667-5.728,43.614-5.917c0,0,4.453-5.717.709-12.22,0,0-18.505.214-27.372-.557S355.438-467.288,360.224-451.686Z" transform="translate(-337.762 510.759)" fill="#e1e8f2"/>
        </g>
      </g>
    </g>
    <rect id="Rectngulo_34523" data-name="Rectngulo 34523" width="579" height="550" transform="translate(841 810)" fill="none"/>
  </g>
</svg>
