<svg xmlns="http://www.w3.org/2000/svg" width="118.924" height="96.286" viewBox="0 0 118.924 96.286">
  <g id="Grupo_92089" data-name="Grupo 92089" transform="translate(-3562.545 -703.342)">
    <path id="Trazado_147703" data-name="Trazado 147703" d="M3733.063,732.362a14.51,14.51,0,1,0-14.51-14.51A14.51,14.51,0,0,0,3733.063,732.362Zm-9.458-8.3,7.019-5.817,2.439,1.838,2.439-1.838,7.019,5.817Zm19.77-11.748V723.36l-6.979-5.783Zm-.9-.681-6.936,5.226-.893.672-1.579,1.189-1.579-1.189-.892-.672-6.936-5.226Zm-19.718.681,6.979,5.258-6.979,5.783Z" transform="translate(-97.233)" fill="#ef6c00"/>
    <path id="Trazado_147704" data-name="Trazado 147704" d="M3765.041,801.935v10.6a3.374,3.374,0,0,0,3.365,3.364h16.3l9.782,5.5a1,1,0,0,0,1.619-.955l-.371-4.544h.536a3.374,3.374,0,0,0,3.365-3.364v-10.6a3.374,3.374,0,0,0-3.365-3.365h-27.866A3.375,3.375,0,0,0,3765.041,801.935Zm5.42.949h23.756a.927.927,0,0,1,0,1.853h-23.756a.927.927,0,0,1,0-1.853Zm0,5.705h23.756a.927.927,0,0,1,0,1.853h-23.756a.927.927,0,0,1,0-1.853Z" transform="translate(-126.206 -59.351)" fill="#ef6c00"/>
    <path id="Trazado_147705" data-name="Trazado 147705" d="M3691.021,788.281a10.068,10.068,0,1,0,10.069,10.068A10.068,10.068,0,0,0,3691.021,788.281Zm3.955,7.93h-2.6a2.046,2.046,0,0,0-.33-1.275,1.061,1.061,0,0,0-.879-.42.976.976,0,0,0-.824.345,1.4,1.4,0,0,0-.267.879,1.31,1.31,0,0,0,.287.879,3.037,3.037,0,0,0,1.071.683,9.84,9.84,0,0,1,2.676,1.55,2.824,2.824,0,0,1,.855,2.209,2.917,2.917,0,0,1-.859,2.2,3.761,3.761,0,0,1-2.311.981v1.577h-1.248v-1.585a4.256,4.256,0,0,1-2.527-1.064,3.354,3.354,0,0,1-.973-2.68l.024-.047h2.582a1.938,1.938,0,0,0,.424,1.4,1.479,1.479,0,0,0,1.1.428,1.079,1.079,0,0,0,.856-.33,1.259,1.259,0,0,0,.29-.863,1.413,1.413,0,0,0-.3-.961,3.021,3.021,0,0,0-1.059-.671,9.259,9.259,0,0,1-2.7-1.495,2.838,2.838,0,0,1-.844-2.225,2.9,2.9,0,0,1,.895-2.185,3.849,3.849,0,0,1,2.386-1v-1.656h1.248v1.687a3.368,3.368,0,0,1,3.038,3.6Z" transform="translate(-73.798 -52.938)" fill="#ef6c00"/>
    <path id="Trazado_147706" data-name="Trazado 147706" d="M3600.435,830.353a1.3,1.3,0,0,0-1.567-.947l-.073.018-.062-.249c.021.083.034.168.047.253l-.059.014a1.3,1.3,0,0,0-.948,1.567l.277,1.125c-3.822,6.416-20.8,14.9-20.8,14.9l-9.8,2.416a1.889,1.889,0,0,0-1.4,2.148l-1.966.485a2.019,2.019,0,0,0-1.473,2.436l1.854,7.521a2.019,2.019,0,0,0,2.437,1.473l1.972-.486a1.892,1.892,0,0,0,1.856,1.233l6.768,12.515c.2.962,1.623,1.5,3.171,1.188l5.311-1.056c1.553-.309,2.667-1.353,2.475-2.321l-.115-.578c-.193-.968-1.621-1.506-3.174-1.2l-1.006-.105-.066-.122a1.187,1.187,0,0,0-.964-.606,2.431,2.431,0,0,1-2.215-2.784,1.121,1.121,0,0,0-.708-1.215,2.429,2.429,0,0,1-1.177-3.538,1.123,1.123,0,0,0,.051-1.129l-.512-.947,2.328-.573s18.978-.375,25.344,3.531l.277,1.125a1.3,1.3,0,0,0,1.567.948l.059-.014c.029.081.056.162.077.246-.02-.079-.041-.163-.062-.249l.073-.018a1.3,1.3,0,0,0,.948-1.567Z" transform="translate(0 -78.425)" fill="#ef6c00"/>
    <path id="Trazado_147707" data-name="Trazado 147707" d="M3681.385,862.024a2.942,2.942,0,0,0-3.549-2.146l-.869.214,3.186,12.925.868-.214a2.941,2.941,0,0,0,2.146-3.549Z" transform="translate(-71.313 -97.509)" fill="#ef6c00"/>
    <path id="Trazado_147708" data-name="Trazado 147708" d="M3829.076,901.019a1.466,1.466,0,0,0,.32-.966v-.891a1.5,1.5,0,0,0-.326-.977,1.134,1.134,0,0,0-.931-.4,1.12,1.12,0,0,0-.92.4,1.5,1.5,0,0,0-.326.977v.891a1.45,1.45,0,0,0,.326.966,1.164,1.164,0,0,0,.943.387A1.118,1.118,0,0,0,3829.076,901.019Z" transform="translate(-164.756 -121.188)" fill="#ef6c00"/>
    <path id="Trazado_147709" data-name="Trazado 147709" d="M3849.534,923.125a1.134,1.134,0,0,0-.931.4,1.476,1.476,0,0,0-.326.966v.891a1.371,1.371,0,0,0,.373.96,1.188,1.188,0,0,0,.908.4,1.131,1.131,0,0,0,.978-.359,1.708,1.708,0,0,0,.256-1.006v-.891a1.461,1.461,0,0,0-.332-.966A1.138,1.138,0,0,0,3849.534,923.125Z" transform="translate(-178.083 -136.98)" fill="#ef6c00"/>
    <path id="Trazado_147710" data-name="Trazado 147710" d="M3817.686,877.977a14.046,14.046,0,1,0,14.046,14.046A14.046,14.046,0,0,0,3817.686,877.977Zm-7.8,9.733v-.9a3.433,3.433,0,0,1,.978-2.509,4.419,4.419,0,0,1,5.588,0,3.433,3.433,0,0,1,.978,2.509v.9a3.394,3.394,0,0,1-.978,2.5,4.441,4.441,0,0,1-5.582-.006A3.388,3.388,0,0,1,3809.885,887.71Zm4.4,11.525-1.827-.92,8.277-13.248,1.828.92Zm11.2-1.991a3.419,3.419,0,0,1-.972,2.509,3.73,3.73,0,0,1-2.777.984,3.814,3.814,0,0,1-2.811-.99,3.38,3.38,0,0,1-1-2.5v-.9a3.4,3.4,0,0,1,.989-2.5,4.438,4.438,0,0,1,5.594-.006,3.425,3.425,0,0,1,.972,2.5Z" transform="translate(-150.263 -108.842)" fill="#ef6c00"/>
    <path id="Trazado_147711" data-name="Trazado 147711" d="M3745.133,871.662c.992-2.141.522-1.724,0-3.029s-5.788-.977-5.788-.977a6.515,6.515,0,0,1,.774-2.157,7.588,7.588,0,0,0,.888-4.021,5.225,5.225,0,0,0-.835-2.037c-1.984-2.089-3.342,0-3.342,0v2.4a22.644,22.644,0,0,1-3.714,4.638,10.133,10.133,0,0,0-1.561,2.022c-.946,1.608-1.642,2-2.021,2.077a.489.489,0,0,0-.385.422,60.466,60.466,0,0,0-.116,10.278.6.6,0,0,0,.545.555l3.076.269c5.222,1.619,8.408.655,8.408.655,2.924-.024,3.081-3.318,3.081-3.318,1.984-1.044,1.2-3.865,1.2-3.865C3747.17,873.072,3745.133,871.662,3745.133,871.662Z" transform="translate(-103.659 -96.711)" fill="#ef6c00"/>
    <path id="Trazado_147712" data-name="Trazado 147712" d="M3718.17,891.072h-2.676a1.224,1.224,0,0,0-1.224,1.224v8.669a1.224,1.224,0,0,0,1.224,1.224h2.676a.518.518,0,0,0,.518-.518V891.59A.518.518,0,0,0,3718.17,891.072Z" transform="translate(-94.563 -117.003)" fill="#ef6c00"/>
  </g>
</svg>
