<svg xmlns="http://www.w3.org/2000/svg" width="453.59" height="337.329" viewBox="0 0 453.59 337.329">
  <g id="Segment-amico" transform="translate(-36.388 -112.06)">
    <g id="freepik--Floor--inject-16">
      <path id="freepik--floor--inject-16-2" data-name="freepik--floor--inject-16" d="M102.82,420c88.56,39.18,232.16,39.19,320.73,0s88.57-102.7,0-141.88-232.17-39.19-320.74,0S14.25,380.84,102.82,420Z" fill="#dad6f7"/>
    </g>
    <g id="freepik--Shadow--inject-16">
      <ellipse id="freepik--shadow--inject-16-2" data-name="freepik--shadow--inject-16" cx="37.92" cy="18.07" rx="37.92" ry="18.07" transform="translate(56.88 309.3)" fill="#8a7cbf"/>
      <ellipse id="freepik--shadow--inject-16-3" data-name="freepik--shadow--inject-16" cx="39.56" cy="18.85" rx="39.56" ry="18.85" transform="translate(377.94 337.75)" fill="#8a7cbf"/>
    </g>
    <g id="freepik--Plants--inject-16">
      <g id="freepik--plants--inject-16-2" data-name="freepik--plants--inject-16">
        <path id="Trazado_148023" data-name="Trazado 148023" d="M178.06,264.78c-.61-6.94-6.88-20.87-14.87-29.25s-19.88-14-27.68-10.53c-7.27,3.22-5.6,13,4.06,18.69s24,12.7,29,23.61l9.59,13.08Z" fill="#ba68c8"/>
        <path id="Trazado_148024" data-name="Trazado 148024" d="M178.06,264.78c-.61-6.94-6.88-20.87-14.87-29.25s-19.88-14-27.68-10.53c-7.27,3.22-5.6,13,4.06,18.69s24,12.7,29,23.61l9.59,13.08Z" opacity="0.1"/>
        <path id="Trazado_148025" data-name="Trazado 148025" d="M179.4,274.23a.5.5,0,0,1-.49-.37c-6.72-23.28-27.56-40.85-39.4-44.11a.518.518,0,1,1,.27-1c12.07,3.32,33.29,21.18,40.11,44.81a.51.51,0,0,1-.35.63Z" fill="#fff"/>
        <path id="Trazado_148026" data-name="Trazado 148026" d="M177.19,289.7c-1.45-3.8-6.78-9.82-14.95-14.47-9-5.13-20.06-6.9-22.94-11.26-3.47-5.23.71-10.83,9.56-10.51s25.29,10.92,29.32,28.69Z" fill="#ba68c8"/>
        <path id="Trazado_148027" data-name="Trazado 148027" d="M178.53,285.46a.52.52,0,0,1-.47-.3c-9-19.65-25.13-25.42-32.39-25.73a.5.5,0,0,1-.48-.53.49.49,0,0,1,.53-.48c8,.33,24.05,6.25,33.27,26.32a.51.51,0,0,1-.25.67.54.54,0,0,1-.21.05Z" fill="#fff"/>
      </g>
    </g>
    <g id="freepik--Chart--inject-16">
      <g id="freepik--Graphic--inject-16">
        <path id="Trazado_148028" data-name="Trazado 148028" d="M354.81,312.3V280.72H161v31.64h0c0,14.32,9.46,28.64,28.38,39.56,37.84,21.85,99.19,21.85,137,0C345.38,341,354.83,326.64,354.81,312.3Z" fill="#e0e0e0"/>
        <path id="Trazado_148029" data-name="Trazado 148029" d="M326.43,320.28c-37.84,21.84-99.19,21.84-137,0s-37.84-57.27,0-79.12c14.3-8.26,32-13.39,50.44-15.41a2.88,2.88,0,0,1,3.08,2.1l15,52.87,92.92-9.63a2.88,2.88,0,0,1,3.11,2.2C357.81,290,348.63,307.46,326.43,320.28Z" fill="#f0f0f0"/>
        <path id="Trazado_148030" data-name="Trazado 148030" d="M360.15,224.59c-3.93-9.87-12.57-19.25-25.89-27-22.18-12.79-52.43-18.1-81.29-15.9a3.2,3.2,0,0,0-2.88,3.14V210.7a24.761,24.761,0,0,0,.79,5.67L265,266.07a3.57,3.57,0,0,0,3.67,2.48l89.63-9.28a3.28,3.28,0,0,0,2.87-3.19V230.21a18.169,18.169,0,0,0-1.02-5.62Z" fill="#ba68c8"/>
        <path id="Trazado_148031" data-name="Trazado 148031" d="M360.85,227.35l-95.11,9.86L250.49,183.4a3.13,3.13,0,0,1,2.48-1.66c28.86-2.2,59.11,3.11,81.29,15.9,13.32,7.7,21.95,17.07,25.89,27A14.9,14.9,0,0,1,360.85,227.35Z" fill="#fff" opacity="0.3"/>
        <path id="Trazado_148032" data-name="Trazado 148032" d="M250.09,184.88v25.87a24.761,24.761,0,0,0,.79,5.67L265,266.07a3.379,3.379,0,0,0,.79,1.34v-30.2l-15.3-53.81a3,3,0,0,0-.4,1.48Z" opacity="0.1"/>
        <g id="freepik--People--inject-16">
          <path id="Trazado_148033" data-name="Trazado 148033" d="M287.5,189.09l-.29-2a2.25,2.25,0,0,0,.2-1.47l-.79-2.67-.5-3.5-.5.16.08-4.32-1.58-.9a.63.63,0,0,0-.65,0l-1.71,1h0l-3.08,1.77h0l-1.89,1.09a.91.91,0,0,0-.42.57L273,193.89c-.14.64,0,1.15.31,1.33h0l1.78,1,2.09-8.63.05,3.57-1.09,17a1.13,1.13,0,0,0,.42,1.11h0l1.75,1,1.51-14.13-.58-.37.38-6,1.11-.64,1.11,16a.94.94,0,0,0,.45.84h0l1.77,1-.06-2.31a2.71,2.71,0,0,0,.23-1.23l-.45-6.51-.12-4.52-.2-.12-.32-4.61.11-7.27,2.13,7.16a.72.72,0,0,0,.3.42h0Z" fill="#263238"/>
          <path id="Trazado_148034" data-name="Trazado 148034" d="M289.18,186.6l-3.32-11.15a.31.31,0,0,0-.45-.18l-1.88,1.09h0l-3.08,1.78h0l-1.89,1.09a.91.91,0,0,0-.42.57l-3.35,15.11c-.18.84.11,1.47.66,1.4s1.15-.81,1.33-1.65l1.87-8.41a.14.14,0,0,1,.28,0l.09,5.92-1.09,17c-.06.92.43,1.41,1.09,1.11l.11-.06a2.84,2.84,0,0,0,1.19-2.15l1.11-17.29,1.11-.64,1.11,16c.06.8.58,1.13,1.2.77l.1-.06a2.93,2.93,0,0,0,1.09-2.37L285,188.77l.09-6.33a.15.15,0,0,1,.29,0l1.86,6.25c.18.63.78.68,1.33.11A2.47,2.47,0,0,0,289.18,186.6Z" fill="#455a64"/>
          <path id="Trazado_148035" data-name="Trazado 148035" d="M283.55,169.29l-1.8-1h0a1.48,1.48,0,0,0-1.53.11,5.6,5.6,0,0,0-2.34,4.45,2.06,2.06,0,0,0,.78,1.85h0l1.82,1.06Z" fill="#263238"/>
          <path id="Trazado_148036" data-name="Trazado 148036" d="M277.88,172.83a2.06,2.06,0,0,0,.78,1.85h0l1.82,1.06,1-2.1-3.44-2A5.29,5.29,0,0,0,277.88,172.83Z" fill="#263238"/>
          <path id="Trazado_148037" data-name="Trazado 148037" d="M282,175.6a5.6,5.6,0,0,0,2.34-4.46c0-1.71-1.05-2.49-2.34-1.74a5.55,5.55,0,0,0-2.34,4.45C279.65,175.56,280.69,176.34,282,175.6Z" fill="#455a64"/>
          <path id="Trazado_148038" data-name="Trazado 148038" d="M307.3,206.68l-.29-2a2.27,2.27,0,0,0,.2-1.48l-.8-2.66-.5-3.5-.49.15.07-4.31-1.58-.91a.66.66,0,0,0-.64,0l-1.72,1h0l-3.08,1.78h0l-1.88,1.09a.87.87,0,0,0-.42.57l-3.35,15.11a1.237,1.237,0,0,0,.3,1.33h0l1.78,1,2.1-8.63.05,3.57-1.09,17a1.14,1.14,0,0,0,.41,1.12h0l1.75,1,1.5-14.12-.58-.37.39-6,1.11-.64,1.11,16a1,1,0,0,0,.44.85h0l1.78,1-.06-2.31a2.861,2.861,0,0,0,.23-1.23l-.45-6.52-.13-4.51-.19-.12-.32-4.61.1-7.27,2.14,7.15a.63.63,0,0,0,.3.42h0Z" fill="#263238"/>
          <path id="Trazado_148039" data-name="Trazado 148039" d="M309,204.2,305.65,193a.3.3,0,0,0-.44-.17L303.32,194h0l-3.08,1.78h0l-1.88,1.08a.88.88,0,0,0-.42.58l-3.35,15.11c-.19.84.11,1.46.66,1.39s1.14-.8,1.33-1.64l1.86-8.42a.15.15,0,0,1,.29,0l.09,5.92-1.09,17c-.06.91.43,1.41,1.09,1.11l.1-.06a2.85,2.85,0,0,0,1.2-2.15l1.11-17.3,1.11-.64,1.1,16c.06.8.59,1.13,1.2.77l.11-.07a2.92,2.92,0,0,0,1.09-2.36l-1.09-15.76.09-6.34a.14.14,0,1,1,.28,0l1.86,6.25c.19.63.79.67,1.34.11a2.5,2.5,0,0,0,.68-2.16Z" fill="#455a64"/>
          <path id="Trazado_148040" data-name="Trazado 148040" d="M303.34,186.88l-1.8-1h0A1.51,1.51,0,0,0,300,186a5.58,5.58,0,0,0-2.34,4.45,2.06,2.06,0,0,0,.78,1.84h0l1.82,1.06Z" fill="#263238"/>
          <path id="Trazado_148041" data-name="Trazado 148041" d="M297.67,190.43a2.06,2.06,0,0,0,.78,1.84h0l1.82,1.06,1-2.09-3.44-2A4.77,4.77,0,0,0,297.67,190.43Z" fill="#263238"/>
          <path id="Trazado_148042" data-name="Trazado 148042" d="M301.78,193.19a5.58,5.58,0,0,0,2.34-4.45c0-1.71-1.05-2.49-2.34-1.75a5.6,5.6,0,0,0-2.34,4.45C299.44,193.16,300.49,193.94,301.78,193.19Z" fill="#455a64"/>
          <path id="Trazado_148043" data-name="Trazado 148043" d="M332.8,198.45l-.29-2a2.27,2.27,0,0,0,.2-1.48l-.8-2.66-.5-3.5-.49.15.07-4.31-1.58-.91a.66.66,0,0,0-.64,0l-1.71,1h0L324,186.49h0l-1.88,1.09a.87.87,0,0,0-.42.57l-3.35,15.11a1.243,1.243,0,0,0,.3,1.33h0l1.78,1,2.1-8.64.05,3.57-1.09,17a1.15,1.15,0,0,0,.41,1.12h0l1.75,1,1.5-14.12-.58-.38.39-6,1.11-.63,1.11,16a1,1,0,0,0,.44.85h0l1.78,1-.06-2.3a2.74,2.74,0,0,0,.23-1.23l-.45-6.52-.13-4.51-.19-.13-.32-4.6.1-7.28,2.14,7.16a.69.69,0,0,0,.3.42h0Z" fill="#263238"/>
          <path id="Trazado_148044" data-name="Trazado 148044" d="M334.48,196l-3.33-11.16a.3.3,0,0,0-.44-.17l-1.89,1.09h0l-3.08,1.78h0l-1.88,1.09a.9.9,0,0,0-.42.57l-3.35,15.11c-.19.84.11,1.47.66,1.4s1.15-.81,1.33-1.65l1.87-8.41a.14.14,0,0,1,.28,0l.09,5.92-1.09,17c-.06.91.43,1.41,1.09,1.11l.1-.06a2.89,2.89,0,0,0,1.2-2.15l1.11-17.3,1.11-.64,1.11,16c.05.8.58,1.12,1.19.77l.11-.07a2.93,2.93,0,0,0,1.09-2.37l-1.09-15.75.09-6.34a.14.14,0,0,1,.28,0l1.87,6.26c.18.62.78.67,1.33.11a2.51,2.51,0,0,0,.66-2.14Z" fill="#455a64"/>
          <path id="Trazado_148045" data-name="Trazado 148045" d="M328.85,178.65l-1.81-1h0a1.51,1.51,0,0,0-1.53.12,5.57,5.57,0,0,0-2.34,4.45A2.06,2.06,0,0,0,324,184h0l1.82,1.06Z" fill="#263238"/>
          <path id="Trazado_148046" data-name="Trazado 148046" d="M323.17,182.2A2.06,2.06,0,0,0,324,184h0l1.82,1.06,1-2.09-3.44-2a4.709,4.709,0,0,0-.21,1.23Z" fill="#263238"/>
          <path id="Trazado_148047" data-name="Trazado 148047" d="M327.28,185a5.57,5.57,0,0,0,2.34-4.45c0-1.71-1-2.5-2.34-1.75a5.6,5.6,0,0,0-2.34,4.45C324.94,184.92,326,185.71,327.28,185Z" fill="#455a64"/>
        </g>
      </g>
    </g>
    <g id="freepik--character-2--inject-16">
      <rect id="Rect치ngulo_34606" data-name="Rect치ngulo 34606" width="7.62" height="11.09" transform="translate(433.4 343.8)" fill="#ffa8a7"/>
      <rect id="Rect치ngulo_34607" data-name="Rect치ngulo 34607" width="7.62" height="11.09" transform="translate(406.612 330.329) rotate(-1.97)" fill="#ffa8a7"/>
      <path id="Trazado_148048" data-name="Trazado 148048" d="M440.51,235.54c0,7.27.94,54.31.94,54.31.18,2.1,2.14,6,1.72,14-.58,10.92-1.52,41.25-1.52,41.25s-3.57,3.54-8.62,0c0,0-6.89-41.21-8.26-52-1.19-9.44-3.21-35.09-3.21-35.09l-7.05,30.19s1.24,7.1,1.51,12.11-1.29,33.94-1.29,33.94a8.32,8.32,0,0,1-8.29.32s-6.12-42.28-6.9-46.8,5.35-52.19,5.35-52.19Z" fill="#37474f"/>
      <path id="Trazado_148049" data-name="Trazado 148049" d="M433.4,351.13V350c-.73.32-2.43,6.78-5.45,9.54-2.4,2.19-5.68,4.72-6.51,7.16s4.56,3.94,6.81,3.54c2.61-.46,7.13-2.29,8.26-4s1.67-4.21,2.59-5.46,3-2.64,3.54-4.08c.28-.79-.05-2.53-.43-4s-.74-2.82-1.2-2.7v.83a6,6,0,0,1-3.81,1.29C436.09,352.2,433.39,352,433.4,351.13Z" fill="#263238"/>
      <path id="Trazado_148050" data-name="Trazado 148050" d="M406.92,339.07c-.4,0-.72.57-1.59,1.52a16.739,16.739,0,0,1-4.48,3.22c-2.85,1.43-8.4,3.62-10.91,4.75-1.56.71-1.49,2.6.13,3.68s5.53,1.86,10.23.8c2.56-.57,5.89-2.93,8-2.8s6.05.09,7.61-1,.93-3.36.49-5.33c-.48-2.15-1.17-5.44-1.88-5.29v.68c-.92,1.38-5.58,1.95-7.59.93Z" fill="#263238"/>
      <path id="Trazado_148051" data-name="Trazado 148051" d="M460.66,228.42c-.17-1-4.92-12-6.87-16.31l-9.86,4.62,3.78,8.65,10.22,7.9A4,4,0,0,0,460.66,228.42Z" fill="#ffa8a7"/>
      <path id="Trazado_148052" data-name="Trazado 148052" d="M416.1,184.94c-4.71.38-9.41,1.67-13.62,7.92s-11.58,17-11.58,17l13.88,4.4Z" fill="#ba68c8"/>
      <path id="Trazado_148053" data-name="Trazado 148053" d="M416.1,184.94c-4.71.38-9.41,1.67-13.62,7.92s-11.58,17-11.58,17l13.88,4.4Z" opacity="0.1"/>
      <path id="Trazado_148054" data-name="Trazado 148054" d="M429.05,185.18c6.83,1.64,15.49,4.4,18.52,10.69s7.72,16.49,7.72,16.49L444,219.05l-3.47-6v22.53c-5.34,5.81-24,8.52-35.62,0V198.42c0-5.93,3.3-13.06,12.4-13.59Z" fill="#ba68c8"/>
      <path id="Trazado_148055" data-name="Trazado 148055" d="M440.51,213s-3.42-5.94-4.16-7.37l4.16,10.15Z" opacity="0.1"/>
      <path id="Trazado_148056" data-name="Trazado 148056" d="M431.61,154.82A4.07,4.07,0,0,1,435,156c1.44,1.48,1.14,4.21,0,10.48l-4.46.51Z" fill="#263238"/>
      <path id="Trazado_148057" data-name="Trazado 148057" d="M405.62,153a6.91,6.91,0,0,1-2.78-.57c-1.37-.79-1.73.77-1,2.12A6.36,6.36,0,0,0,407,158c0-.19,1.28-3.48,1.28-3.48Z" fill="#263238"/>
      <path id="Trazado_148058" data-name="Trazado 148058" d="M429.52,167c.66.4,1.61-.87,2.42-1.73s3.48-2,4.81.78-1.72,6.65-3.52,7.9a3.18,3.18,0,0,1-3.71.33l-.47,10.91a11.65,11.65,0,0,1-8.78,6.66c-6.4.87-5.09-4.42-3-7v-4s-3.31.66-4.87.25c-.84-.23-2.83-2.64-4.12-5.33-1.44-3-3.85-8.41-1.71-17.5,2.3-9.77,12.79-10.07,19-6.13S429.52,167,429.52,167Z" fill="#ffa8a7"/>
      <path id="Trazado_148059" data-name="Trazado 148059" d="M429.52,168.11c.33,0,1.6-2.1,2.42-2.85,1.14-1-.33-10.44-.33-10.44s1.16-3.57-1.1-5.93-6.63-2-9.82-2.08a28.61,28.61,0,0,1-11.43-2.3c-4.54-2-4.88-2.2-5.44-.21s-.78,6.56,1.93,9.62l2.26.83s1.21,1.08,5.45,1.59a62.53,62.53,0,0,0,11.73-.22c1.23-.17,1.49,1,2.15,4.27C427.92,163.25,428.4,168.08,429.52,168.11Z" fill="#263238"/>
      <path id="Trazado_148060" data-name="Trazado 148060" d="M431.61,155.55l4-2.15a2.22,2.22,0,0,0-3-1,2.38,2.38,0,0,0-1,3.15Z" fill="#263238"/>
      <path id="Trazado_148061" data-name="Trazado 148061" d="M417.3,180.87s5.93-1.2,8-2.3a6.78,6.78,0,0,0,2.86-2.84,9.27,9.27,0,0,1-1.62,3.35c-1.52,1.94-9.25,3.36-9.25,3.36Z" fill="#f28f8f"/>
      <path id="Trazado_148062" data-name="Trazado 148062" d="M418.73,165.51a1.19,1.19,0,1,0,1.18-1.24,1.21,1.21,0,0,0-1.18,1.24Z" fill="#263238"/>
      <path id="Trazado_148063" data-name="Trazado 148063" d="M420,161l2.54,1.4a1.52,1.52,0,0,0-.59-2,1.41,1.41,0,0,0-1.95.6Z" fill="#263238"/>
      <path id="Trazado_148064" data-name="Trazado 148064" d="M418.81,173.57l-2.71,1a1.42,1.42,0,0,0,1.84.9A1.52,1.52,0,0,0,418.81,173.57Z" fill="#f28f8f"/>
      <path id="Trazado_148065" data-name="Trazado 148065" d="M408.12,162l2.32-1.79a1.4,1.4,0,0,0-2-.31,1.55,1.55,0,0,0-.32,2.1Z" fill="#263238"/>
      <path id="Trazado_148066" data-name="Trazado 148066" d="M408.84,165.17a1.19,1.19,0,1,0,1.19-1.24,1.21,1.21,0,0,0-1.19,1.24Z" fill="#263238"/>
      <path id="Trazado_148067" data-name="Trazado 148067" d="M414.89,164.04l-.39,7.15-3.73-1.27Z" fill="#f28f8f"/>
      <path id="Trazado_148068" data-name="Trazado 148068" d="M383.82,207.12l30.42,8.01,8.98,37.75-28.92-8.4Z" fill="#ebebeb"/>
      <path id="Trazado_148069" data-name="Trazado 148069" d="M397.08,232.1c-.28.77-1.94,2.91-5.48,2.74l-.44-1.56Z" fill="#e0e0e0"/>
      <path id="Trazado_148070" data-name="Trazado 148070" d="M403.88,233.28c.14,1,2.2,2.87,5.7,4,4,1.32,10.09.62,10.09.62l-.55-1.88Z" fill="#e0e0e0"/>
      <path id="Trazado_148071" data-name="Trazado 148071" d="M392.73,212.59l-.25-1.16c-.14-.64,1.64-.67,4-.06l4.49,1.16c2.34.61,4.35,1.62,4.48,2.26l.26,1.16Z" fill="#e0e0e0"/>
      <path id="Trazado_148072" data-name="Trazado 148072" d="M401.9,213v-.19c-.1-.54.13-.87,1.15-.61l3.44.9-.22-.72a3.36,3.36,0,0,0-2.12-1.26l-1.89-.54s-.86-2.85-4.8-3.72-3.41,1.63-3.41,1.63l-1.78-.49c-1-.27-1.7-.17-1.61.23l.17.75,3.06.8A1.51,1.51,0,0,1,395,211a1.892,1.892,0,0,1,.05.23c-1.71-.31-2.9-.21-2.78.32l.25,1.16,13,3.36-.25-1.16C405.13,214.37,403.72,213.58,401.9,213Z" fill="#37474f"/>
      <path id="Trazado_148073" data-name="Trazado 148073" d="M457.93,233.28l-10.22-7.9s-20.61,3.35-23,3.54a6.33,6.33,0,0,1-6-3.89c-.92-2.38-2.55-2.08-2.55-2.08l.95,4c.22,1-5.58,1.75-8.79.66s-7.88.5-5,4.88,8.49,4.88,12.39,4.88a39.706,39.706,0,0,0,4.87-.32c1.26-.16,2.52-.29,3.78-.38C432.29,236.07,454.3,234.42,457.93,233.28Z" fill="#ffa8a7"/>
      <path id="Trazado_148074" data-name="Trazado 148074" d="M386.92,218.16l1.35,4.81c.26.93,3.79,2.61,6,3.23s4.68,1.34,3.62,4.47c-1,2.88-4.65,3.54-6.52,3.46s-4.44-1.88-5.45-4.76c-1.29-3.68-.6-7.62-1.11-9.77S385.8,216.88,386.92,218.16Z" fill="#ffa8a7"/>
    </g>
    <g id="freepik--character-1--inject-16">
      <path id="Trazado_148075" data-name="Trazado 148075" d="M93.85,112.06h5.38a15,15,0,0,1,15,15v38.11H78.89V127a15,15,0,0,1,14.96-14.94Z" fill="#263238"/>
      <path id="Trazado_148076" data-name="Trazado 148076" d="M114.71,320.26a47.058,47.058,0,0,0,6.74,5.86,2.84,2.84,0,0,1,.93,1c.32.66.81,2.3-2.2,3.35a11.17,11.17,0,0,1-9.29-.89c-2.47-1.55-2.59-4.77-4.92-6.61-1.73-1.36-3.89-1.71-5.28-3.48-1-1.24-.72-2.89-.22-4.93.56-2.23.81-3.91,1.55-3.74l-.12,1c.92,1.47,5.68,1.9,7.8.89a87.415,87.415,0,0,0,5.01,7.55Z" fill="#263238"/>
      <path id="Trazado_148077" data-name="Trazado 148077" d="M116.8,322.34h0c-.71-.65-1.42-1.33-2.09-2.06a60.349,60.349,0,0,1-3.89-5.74,6.5,6.5,0,0,1-1.09-4.1l.6-5.49-7.55-.53-.88,7.4h0c-.18,1.68,1.2,3.17,3.66,5.29s5.58,7.05,7.8,8.29,3.82,1.2,4.76.57S119.2,324.79,116.8,322.34Z" fill="#ffa8a7"/>
      <path id="Trazado_148078" data-name="Trazado 148078" d="M86,320.93V319.8c.45,1.33,2.52,7.06,5.67,9.93,2.5,2.29,5.92,4.92,6.79,7.47s-4.76,3.53-7.09,3.12c-2.72-.48-6.24-2-8.15-4.37-1.35-1.66-2.2-3.62-3.16-4.92s-3.18-2.75-3.7-4.25c-.28-.83.06-2.64.46-4.17s.76-2.94,1.24-2.81v.86A6.23,6.23,0,0,0,82,322C83.19,322.05,86,321.82,86,320.93Z" fill="#263238"/>
      <path id="Trazado_148079" data-name="Trazado 148079" d="M93.94,331.74c-.78-.69-1.56-1.37-2.27-2-2.2-2-3.88-5.41-4.84-7.73a10.85,10.85,0,0,1-.83-4.17v-4.53H78.06v7.37h0v.19h0c.38,1.65,4,6,6.1,8.9,1.38,1.92,4,4.36,7.17,4.78C94.35,334.94,95.88,334,93.94,331.74Z" fill="#ffa8a7"/>
      <path id="Trazado_148080" data-name="Trazado 148080" d="M79.64,197.61c-6.15,13.44.22,60.77.22,60.77-.18,2.18-2.67,6.47-3.6,16.07C75.16,285.78,78,314.26,78,314.26a8.58,8.58,0,0,0,8,.31s7.56-42.88,9-54.15c1.24-9.84,3.63-33,3.63-33l6.77,32.92s-2.6,5.66-3,9.86c-.64,6.63,0,35.34,0,35.34s2.71,2.07,7.91,1.3c0,0,8.8-40,9.49-48,.42-4.77-5-63.22-5-63.22Z" fill="#37474f"/>
      <path id="Trazado_148081" data-name="Trazado 148081" d="M98.61,227.45l2-11s8.45-1.75,12.29-5.36a21.86,21.86,0,0,1-10,6.64l-2.24,9.61,3.92,29.09Z" fill="#263238"/>
      <path id="Trazado_148082" data-name="Trazado 148082" d="M69.61,191.77c.07-.88,1.72-10.29,2.85-15.56l11.07,3.39-2,9.69-9.32,7.48C69.32,196.19,69.55,192.65,69.61,191.77Z" fill="#ffa8a7"/>
      <path id="Trazado_148083" data-name="Trazado 148083" d="M123.11,171.93l5.23,9.59-8.14,6.97-7.45-11.81Z" fill="#f28f8f"/>
      <path id="Trazado_148084" data-name="Trazado 148084" d="M103.49,150.57c5.19.05,10.9,1.94,12.86,6s8.11,16.73,8.11,16.73-4.59,6.71-11.86,6.24Z" fill="#ebebeb"/>
      <path id="Trazado_148085" data-name="Trazado 148085" d="M90.49,150.93h0a15.56,15.56,0,0,0-10.41,8.52,13.48,13.48,0,0,0-.37,10.16l5.49,15.9s-2.57,6.22-5.56,12.1c13.79,7.7,31,3.65,35.16-2,.18-1.19-.06-6.56.28-12.67.35-6.52,1.25-13.88.22-17.9-1.9-7.48-5.46-14.5-12.55-14.5Z" fill="#f5f5f5"/>
      <path id="Trazado_148086" data-name="Trazado 148086" d="M88.44,150.93c-4.7.66-11.62,1.61-14,12.8C72,175.07,71.33,179,71.33,179s3.86,4.5,11.67,4.46l2.43-8.6Z" fill="#f5f5f5"/>
      <path id="Trazado_148087" data-name="Trazado 148087" d="M83.67,181.09s1.6-5.06,2.56-9.16A62.8,62.8,0,0,1,85,184.79Z" fill="#ebebeb"/>
      <path id="Trazado_148088" data-name="Trazado 148088" d="M91.11,160.36h0a6.18,6.18,0,0,1-6.18-6.17v-18h6.18Z" fill="#263238"/>
      <path id="Trazado_148089" data-name="Trazado 148089" d="M108.4,119.2c1.86,1.1,4.17,5.79,3.94,15.62-.19,8.33-2.89,10.39-4.25,11s-4,.23-6.51-.2v5s3.51,4.09,3.29,6.38-5.07,2.83-8.36.59a21.3,21.3,0,0,1-5.4-5.65V139.85a3.19,3.19,0,0,1-4.52.43c-2.81-1.87-2.92-6.48-1.29-8.14s5.15-1.13,5.81,1.16c0,0,4.06.14,9.46-2.82a15.21,15.21,0,0,0,7.83-11.28Z" fill="#ffa8a7"/>
      <path id="Trazado_148090" data-name="Trazado 148090" d="M103,132.73a1.07,1.07,0,0,1-1,1.14,1.09,1.09,0,0,1-1.11-1,1.051,1.051,0,1,1,2.1-.1Z" fill="#263238"/>
      <path id="Trazado_148091" data-name="Trazado 148091" d="M103.32,139.79l2.43.78a1.24,1.24,0,0,1-1.58.87A1.33,1.33,0,0,1,103.32,139.79Z" fill="#f28f8f"/>
      <path id="Trazado_148092" data-name="Trazado 148092" d="M111.63,129.51,109.51,128a1.24,1.24,0,0,1,1.76-.36A1.37,1.37,0,0,1,111.63,129.51Z" fill="#263238"/>
      <path id="Trazado_148093" data-name="Trazado 148093" d="M111.14,132a1,1,0,1,1-1.1-1,1.07,1.07,0,0,1,1.1,1Z" fill="#263238"/>
      <path id="Trazado_148094" data-name="Trazado 148094" d="M106.2,131.37l.16,6.31,3.32-1.03Z" fill="#f28f8f"/>
      <path id="Trazado_148095" data-name="Trazado 148095" d="M101.58,145.61c-2.68-.35-8.2-1.93-9-4.11a5.59,5.59,0,0,0,1.93,2.78c1.64,1.41,7.12,3,7.12,3Z" fill="#f28f8f"/>
      <path id="Trazado_148096" data-name="Trazado 148096" d="M145.43,171.34l-30.42,8.01-8.98,37.75,28.92-8.4Z" fill="#ba68c8"/>
      <path id="Trazado_148097" data-name="Trazado 148097" d="M132.17,196.32c.28.77,1.94,2.91,5.48,2.74l.44-1.56Z" opacity="0.15"/>
      <path id="Trazado_148098" data-name="Trazado 148098" d="M125.37,197.5c-.13,1-2.2,2.87-5.7,4-4,1.32-10.08.62-10.08.62l.54-1.88Z" opacity="0.15"/>
      <path id="Trazado_148099" data-name="Trazado 148099" d="M136.52,176.81s.12-.52.25-1.16-1.64-.67-4-.06l-4.48,1.16c-2.35.61-4.35,1.62-4.49,2.26l-.25,1.16Z" opacity="0.15"/>
      <path id="Trazado_148100" data-name="Trazado 148100" d="M138.63,172.43c.09-.4-.63-.5-1.61-.23l-1.78.49s.53-2.51-3.41-1.63-4.8,3.72-4.8,3.72l-1.89.54c-1,.3-2,.86-2.12,1.26l-.22.72,15.66-4.12Z" fill="#37474f"/>
      <path id="Trazado_148101" data-name="Trazado 148101" d="M136.47,173.69c-1.43.34-2,.53-2.24,1.52a17.969,17.969,0,0,0-.35,2L127,179s.33-1.43.44-2-.13-.89-1.23-.6l-.1-.44,10.87-2.77Z" fill="#37474f"/>
      <path id="Trazado_148102" data-name="Trazado 148102" d="M136.71,176.92l.25-1.16c.14-.64-1.64-.67-4-.06l-4.49,1.16c-2.34.61-4.35,1.62-4.48,2.26l-.26,1.16Z" fill="#37474f"/>
      <path id="Trazado_148103" data-name="Trazado 148103" d="M72.24,196.77l9.32-7.48s20.59,3.66,23,3.85a6.32,6.32,0,0,0,6-3.89c.93-2.38,2.55-2.08,2.55-2.08s-.72,3-.94,4,5.57,1.75,8.78.66,7.88.5,5,4.88-8.49,4.88-12.39,4.89a42.206,42.206,0,0,1-4.87-.33c-1.26-.16-2.52-.29-3.78-.38C97,200.29,75.87,197.9,72.24,196.77Z" fill="#ffa8a7"/>
      <path id="Trazado_148104" data-name="Trazado 148104" d="M142.33,182.38,141,187.19c-.26.93-3.79,2.61-6,3.23s-4.68,1.34-3.62,4.47c1,2.88,4.65,3.54,6.53,3.46s4.43-1.88,5.44-4.76c1.29-3.68.6-7.61,1.11-9.77S143.45,181.1,142.33,182.38Z" fill="#ffa8a7"/>
    </g>
  </g>
</svg>
