<svg xmlns="http://www.w3.org/2000/svg" width="502.234" height="322.46" viewBox="0 0 502.234 322.46">
  <g id="Grupo_92284" data-name="Grupo 92284" transform="translate(6521.644 2156)">
    <g id="Grupo_92274" data-name="Grupo 92274">
      <rect id="Rectángulo_34573" data-name="Rectángulo 34573" width="436.222" height="7.345" transform="translate(-6485.888 -1867.15)" fill="#8b77e8"/>
      <g id="Grupo_92270" data-name="Grupo 92270">
        <path id="Trazado_147927" data-name="Trazado 147927" d="M-6243.571-1859.805h0Z" fill="#f8f7ff"/>
        <rect id="Rectángulo_34574" data-name="Rectángulo 34574" width="162.957" height="1.469" transform="translate(-6406.527 -1860.539)" fill="#40327a"/>
      </g>
      <g id="Grupo_92271" data-name="Grupo 92271">
        <path id="Trazado_147928" data-name="Trazado 147928" d="M-6428.8-1859.805h0Z" fill="#f8f7ff"/>
        <rect id="Rectángulo_34575" data-name="Rectángulo 34575" width="42.245" height="1.469" transform="translate(-6471.048 -1860.539)" fill="#40327a"/>
      </g>
      <g id="Grupo_92272" data-name="Grupo 92272">
        <path id="Trazado_147929" data-name="Trazado 147929" d="M-6414.591-1859.805h0Z" fill="#f8f7ff"/>
        <rect id="Rectángulo_34576" data-name="Rectángulo 34576" width="6.78" height="1.469" transform="translate(-6421.371 -1860.539)" fill="#40327a"/>
      </g>
      <g id="Grupo_92273" data-name="Grupo 92273">
        <path id="Trazado_147930" data-name="Trazado 147930" d="M-6097.554-1859.805h0Z" fill="#f8f7ff"/>
        <rect id="Rectángulo_34577" data-name="Rectángulo 34577" width="98.381" height="1.469" transform="translate(-6195.935 -1860.539)" fill="#40327a"/>
      </g>
      <rect id="Rectángulo_34578" data-name="Rectángulo 34578" width="119.066" height="7.345" transform="translate(-6147.799 -1851.903)" fill="#f2f0ff"/>
      <rect id="Rectángulo_34579" data-name="Rectángulo 34579" width="22.576" height="7.345" transform="translate(-6178.307 -1851.903)" fill="#e9e6ff"/>
      <rect id="Rectángulo_34580" data-name="Rectángulo 34580" width="32.696" height="3.673" transform="translate(-6459.128 -1837.213)" fill="#f2f0ff"/>
      <rect id="Rectángulo_34581" data-name="Rectángulo 34581" width="4.732" height="3.673" transform="translate(-6419.328 -1837.213)" fill="#f2f0ff"/>
      <rect id="Rectángulo_34582" data-name="Rectángulo 34582" width="108.853" height="3.673" transform="translate(-6405.293 -1837.213)" fill="#f2f0ff"/>
      <rect id="Rectángulo_34583" data-name="Rectángulo 34583" width="46.696" height="3.673" transform="translate(-6284.305 -1837.213)" fill="#f2f0ff"/>
      <rect id="Rectángulo_34584" data-name="Rectángulo 34584" width="97.683" height="3.673" transform="translate(-6231.534 -1837.213)" fill="#f2f0ff"/>
      <rect id="Rectángulo_34585" data-name="Rectángulo 34585" width="5.3" height="3.673" transform="translate(-6122.498 -1837.213)" fill="#f2f0ff"/>
      <rect id="Rectángulo_34586" data-name="Rectángulo 34586" width="148.246" height="7.345" transform="translate(-6329.833 -1851.903)" fill="#f2f0ff"/>
      <rect id="Rectángulo_34587" data-name="Rectángulo 34587" width="28.107" height="7.345" transform="translate(-6365.777 -1851.903)" fill="#e9e6ff"/>
      <rect id="Rectángulo_34588" data-name="Rectángulo 34588" width="5.755" height="7.345" transform="translate(-6374.273 -1851.903)" fill="#ddd6ff"/>
      <rect id="Rectángulo_34589" data-name="Rectángulo 34589" width="64.855" height="7.345" transform="translate(-6442.061 -1851.903)" fill="#f2f0ff"/>
      <rect id="Rectángulo_34590" data-name="Rectángulo 34590" width="54.983" height="7.345" transform="translate(-6506.104 -1851.903)" fill="#f2f0ff"/>
    </g>
    <g id="Grupo_92276" data-name="Grupo 92276">
      <g id="Grupo_92275" data-name="Grupo 92275">
        <path id="Trazado_147931" data-name="Trazado 147931" d="M-6422.647-1967.511l-.723-1.278c.876-.5,1.749-1.024,2.6-1.571l.8,1.233C-6420.847-1968.564-6421.746-1968.02-6422.647-1967.511Z" fill="#b3a4f5"/>
        <path id="Trazado_147932" data-name="Trazado 147932" d="M-6415.2-1972.608l-.93-1.137a51.015,51.015,0,0,0,18.783-39.618,51.226,51.226,0,0,0-51.169-51.17,51.355,51.355,0,0,0-51.165,50.51l-1.469-.018a52.309,52.309,0,0,1,15.636-36.765,52.323,52.323,0,0,1,37-15.2,52.7,52.7,0,0,1,52.638,52.639A52.478,52.478,0,0,1-6415.2-1972.608Z" fill="#b3a4f5"/>
        <path id="Trazado_147933" data-name="Trazado 147933" d="M-6448.516-1960.726a52.876,52.876,0,0,1-47.683-30.312l1.33-.624a51.4,51.4,0,0,0,46.353,29.467,51.57,51.57,0,0,0,10.295-1.035l.294,1.439A53.033,53.033,0,0,1-6448.516-1960.726Z" fill="#b3a4f5"/>
      </g>
      <path id="Trazado_147934" data-name="Trazado 147934" d="M-6414.432-2062.526c-1.555-1.08-3.18-2.1-4.833-3.027l6.521-11.6c2.02,1.134,4.007,2.38,5.908,3.7Z" fill="#e9e6ff"/>
      <path id="Trazado_147935" data-name="Trazado 147935" d="M-6423.029-2067.5a59.27,59.27,0,0,0-25-5.682l.107-13.313a72.514,72.514,0,0,1,30.569,6.955Z" fill="#e9e6ff"/>
      <path id="Trazado_147936" data-name="Trazado 147936" d="M-6456.022-2072.714l-1.646-13.209q1.135-.142,2.284-.249l1.228,13.255C-6454.781-2072.86-6455.4-2072.791-6456.022-2072.714Z" fill="#e9e6ff"/>
      <path id="Trazado_147937" data-name="Trazado 147937" d="M-6513.269-1979.352a73.3,73.3,0,0,1-8.375-34.011,72.884,72.884,0,0,1,11.58-39.507,73.287,73.287,0,0,1,30.026-26.5l5.744,12.009a60.16,60.16,0,0,0-34.038,53.994,59.943,59.943,0,0,0,6.844,27.812Z" fill="#e9e6ff"/>
      <path id="Trazado_147938" data-name="Trazado 147938" d="M-6497.309-1958.892a73.764,73.764,0,0,1-8.794-9.4l10.476-8.212a60.559,60.559,0,0,0,7.2,7.7Z" fill="#e9e6ff"/>
      <path id="Trazado_147939" data-name="Trazado 147939" d="M-6489.051-1952.49c-1.082-.721-2.167-1.487-3.225-2.278l7.97-10.663c.867.649,1.755,1.276,2.639,1.865Z" fill="#e9e6ff"/>
      <circle id="Elipse_4871" data-name="Elipse 4871" cx="40.498" cy="40.498" r="40.498" transform="translate(-6489.015 -2053.862)" fill="#ffb0bf"/>
      <path id="Trazado_147940" data-name="Trazado 147940" d="M-6432.938-2032.734c-.621-.5-1.275-.977-1.947-1.418a24.709,24.709,0,0,0-13.628-4.082v-1.469a26.174,26.174,0,0,1,14.436,4.323c.71.467,1.4.972,2.061,1.5Z" fill="#fff"/>
      <path id="Trazado_147941" data-name="Trazado 147941" d="M-6427.637-1997.319l-1.165-.9a24.752,24.752,0,0,0,5.053-12.909c.069-.712.1-1.463.1-2.238a24.776,24.776,0,0,0-6.655-16.917l1.076-1a26.238,26.238,0,0,1,7.048,17.917c0,.822-.037,1.621-.11,2.374A26.208,26.208,0,0,1-6427.637-1997.319Z" fill="#fff"/>
      <path id="Trazado_147942" data-name="Trazado 147942" d="M-6430.277-2014.038a18.183,18.183,0,0,0-18.236-17.578v-1.469a19.647,19.647,0,0,1,19.7,18.994Z" fill="#fff"/>
      <path id="Trazado_147943" data-name="Trazado 147943" d="M-6432.887-2001.349l-1.163-.9a18.15,18.15,0,0,0,3.563-8.257l1.451.229A19.626,19.626,0,0,1-6432.887-2001.349Z" fill="#fff"/>
      <path id="Trazado_147944" data-name="Trazado 147944" d="M-6450.106-1988.223h0a12.324,12.324,0,0,0,4.11,2.855h0a12.335,12.335,0,0,0,10.775-.539l3.688-2.027-7.726-14.054-4.123,1.471a7.026,7.026,0,0,1-5.168-.174h0a7.03,7.03,0,0,1-3.355-3.06l-6.376-11.6a7.026,7.026,0,0,1-.785-4.471h0a7.029,7.029,0,0,1,2.622-4.459l3.451-2.691-7.725-14.052-3.688,2.027a12.332,12.332,0,0,0-6.229,8.807h0a12.335,12.335,0,0,0,.208,5h0A83.015,83.015,0,0,0-6450.106-1988.223Z" fill="#fff"/>
    </g>
    <g id="Grupo_92277" data-name="Grupo 92277">
      <path id="Trazado_147945" data-name="Trazado 147945" d="M-6323.392-2026.876a19.171,19.171,0,0,0-13.111,7.358,19.542,19.542,0,0,0-1.789,2.762,20.423,20.423,0,0,1,7.9-2.542,6.83,6.83,0,0,1,5.95-5.33,6.816,6.816,0,0,1,5.6,2.026,6.807,6.807,0,0,1,4.482-2.37l.849-.089h0l.627-.066A19.363,19.363,0,0,0-6323.392-2026.876Z" fill="none"/>
      <path id="Trazado_147946" data-name="Trazado 147946" d="M-6210.679-1875.716l-1.23,8.6a4.387,4.387,0,0,0,4.387-4.387A4.386,4.386,0,0,0-6210.679-1875.716Z" fill="#ff95a9"/>
      <path id="Trazado_147947" data-name="Trazado 147947" d="M-6210.678-1875.72l-50.58-14.755-23.934-50.983h0a18.593,18.593,0,0,0-8.13-8.539,18.631,18.631,0,0,0-7.05-2.112c-.077-.008-.155-.01-.232-.018q-.488-.038-.975-.051c-.077,0-.151-.011-.229-.011h-12.169l-.624,2.665h0a11.673,11.673,0,0,1-14.027,8.705,11.667,11.667,0,0,1-9-11.37h-15.286c-.116,0-.228.015-.343.018-.261.008-.522.021-.782.04-.124.011-.248.018-.371.032a18.584,18.584,0,0,0-8.865,3.237,18.654,18.654,0,0,0-4.275,4.105l0,0-9.8,12.98-1.617,2.142-3.807,5.044.586.443-26.662,35.323-.586-.442-1.322,1.751.011.01a12.659,12.659,0,0,0-2.336,5.209,12.739,12.739,0,0,0,10.051,14.95,12.755,12.755,0,0,0,2.452.234h.007v.008h62.118v-13.545l4.5.881v12.656h0v-12.653l6.6,1.294,11.243-3.288a7.47,7.47,0,0,1,9.267,5.073,7.47,7.47,0,0,1-5.073,9.268,7.474,7.474,0,0,1-2.1.3v.005l-8.142,0h29.907l.288-5.876-.734-.036,1.262-25.738,1.467.072-.622,12.687,9.958,13.664.013-.007a12.664,12.664,0,0,0,4.3,3.742c.384.205.774.386,1.168.548a12.656,12.656,0,0,0,4.805.942v.005l58.445-.007,1.23-8.6Zm-132.844-76.468a17.542,17.542,0,0,0,14.389,17.267,17.962,17.962,0,0,0,3.181.288,17.527,17.527,0,0,0,17.244-14.388,17.428,17.428,0,0,0,.289-3.167h1.469a18.966,18.966,0,0,1-.313,3.432,19,19,0,0,1-18.689,15.592,19.424,19.424,0,0,1-3.443-.312,19.01,19.01,0,0,1-15.6-18.712Zm-2.925,70.719-29-5.683,12.77-12.111,1.011,1.066-2.238,2.122.48,9.782,17.258,3.382Zm55.243-22.116.117-2.37,1.468.071-.117,2.371Zm67.775,33.689h-27.613v-1.469h27.613Z" fill="#ffc359"/>
      <path id="Trazado_147948" data-name="Trazado 147948" d="M-6363.422-1886.293l-.48-9.782-8.465,8.029Z" fill="#ff809f"/>
      <path id="Trazado_147949" data-name="Trazado 147949" d="M-6413.088-1882.3a12.659,12.659,0,0,1,2.336-5.209l-.011-.01,1.322-1.751-.587-.443,26.662-35.323.587.442,3.807-5.044a76.832,76.832,0,0,0-17.44,9.266l-.421-.591c-1.152.819-2.276,1.675-3.381,2.555l.448.562a76.82,76.82,0,0,0-27.454,44.818q-.2.975-.368,1.959l-.712-.124c-.235,1.348-.448,2.7-.612,4.077h28.327a12.755,12.755,0,0,1-2.452-.234A12.739,12.739,0,0,1-6413.088-1882.3Z" fill="#ff809f"/>
      <path id="Trazado_147950" data-name="Trazado 147950" d="M-6280.623-1872.35l-.013.007-9.958-13.664-.64,13.051-.733-.036-.288,5.876h17.222c-.038-.316-.083-.629-.125-.944-.394-.162-.784-.343-1.168-.548A12.664,12.664,0,0,1-6280.623-1872.35Z" fill="#ff809f"/>
      <path id="Trazado_147951" data-name="Trazado 147951" d="M-6378.972-1929.638l1.617-2.142a78.386,78.386,0,0,0-19.908,10.21l.43.607.421.591A76.832,76.832,0,0,1-6378.972-1929.638Z" fill="#7760db"/>
      <path id="Trazado_147952" data-name="Trazado 147952" d="M-6427.22-1873.028a76.82,76.82,0,0,1,27.454-44.818l-.448-.562-.467-.587a78.292,78.292,0,0,0-27.979,45.677q-.2.993-.376,2l.736.129.712.124Q-6427.417-1872.053-6427.22-1873.028Z" fill="#7760db"/>
      <path id="Trazado_147953" data-name="Trazado 147953" d="M-6329.4-1933.476a19.424,19.424,0,0,0,3.443.312,19,19,0,0,0,18.689-15.592,18.966,18.966,0,0,0,.313-3.432h-1.469a17.428,17.428,0,0,1-.289,3.167,17.527,17.527,0,0,1-17.244,14.388,17.962,17.962,0,0,1-3.181-.288,17.542,17.542,0,0,1-14.389-17.267h-1.469A19.01,19.01,0,0,0-6329.4-1933.476Z" fill="#fff"/>
      <path id="Trazado_147954" data-name="Trazado 147954" d="M-6328.629-1940.819a11.673,11.673,0,0,0,14.027-8.705h0l.624-2.665,1.587-6.781a13.627,13.627,0,0,1-10.728-4.014,13.6,13.6,0,0,1-3.882-8.174l-.212-2.017c-.254-.2-.507-.394-.747-.609l-1.88-1.688a12.09,12.09,0,0,1-2.541,2.1v.006l.274,2.6-.065.007.383,4.8-2.99.2-2.555,10.914h0a11.692,11.692,0,0,0-.3,2.656A11.667,11.667,0,0,0-6328.629-1940.819Z" fill="#ff95a9"/>
      <path id="Trazado_147955" data-name="Trazado 147955" d="M-6290.594-1886.007l.622-12.687-1.467-.072-1.262,25.738.734.036.733.036Z" fill="#fff"/>
      <path id="Trazado_147956" data-name="Trazado 147956" d="M-6410.028-1889.713l.586.443.586.443,26.662-35.323-.586-.443-.587-.443Z" fill="#fff"/>
      <path id="Trazado_147957" data-name="Trazado 147957" d="M-6328.215-1982.69l0-.022c-.021.252-.047.5-.085.751C-6328.265-1982.2-6328.235-1982.445-6328.215-1982.69Z" fill="#ff95a9"/>
      <path id="Trazado_147958" data-name="Trazado 147958" d="M-6331.742-1975.668c-.194.172-.4.335-.6.493C-6332.137-1975.332-6331.936-1975.5-6331.742-1975.668Z" fill="#ff95a9"/>
      <path id="Trazado_147959" data-name="Trazado 147959" d="M-6331.64-1975.758c.247-.223.483-.453.706-.7l0,0C-6331.16-1976.214-6331.4-1975.981-6331.64-1975.758Z" fill="#ff95a9"/>
      <path id="Trazado_147960" data-name="Trazado 147960" d="M-6329.631-1978.245l.009.007a10.484,10.484,0,0,0,1.3-3.6A10.519,10.519,0,0,1-6329.631-1978.245Z" fill="#ff95a9"/>
      <path id="Trazado_147961" data-name="Trazado 147961" d="M-6327.783-1978.586a12.019,12.019,0,0,1-.724,1.349l.957.859Z" fill="#ff95a9"/>
      <path id="Trazado_147962" data-name="Trazado 147962" d="M-6299.02-2005.976l-15.69,1.652a14.323,14.323,0,0,1-11-3.533l2.144,20.352a5.691,5.691,0,0,0,6.245,4.972l22.315-2.35-1.807-11.693-.672-4.354A18.814,18.814,0,0,0-6299.02-2005.976Z" fill="#ff95a9"/>
      <path id="Trazado_147963" data-name="Trazado 147963" d="M-6301.724-1974.281a5.169,5.169,0,0,0,4.553-5.718l-10.271,1.165A5.168,5.168,0,0,0-6301.724-1974.281Z" fill="#fff"/>
      <rect id="Rectángulo_34591" data-name="Rectángulo 34591" width="2.374" height="1.469" transform="translate(-6291.203 -1903.585) rotate(-87.202)" fill="#fff"/>
      <path id="Trazado_147964" data-name="Trazado 147964" d="M-6314.02-1867.125a7.474,7.474,0,0,0,2.1-.3,7.47,7.47,0,0,0,5.073-9.268,7.47,7.47,0,0,0-9.267-5.073l-11.243,3.288-6.6-1.294v12.663h6.873v-.007l4.92,0,8.142,0Z" fill="#ff95a9"/>
      <path id="Trazado_147965" data-name="Trazado 147965" d="M-6363.422-1886.293l-8.945-1.753,8.465-8.029,2.238-2.122-1.011-1.066-12.77,12.111,29,5.683.283-1.442Z" fill="#fff"/>
      <path id="Trazado_147966" data-name="Trazado 147966" d="M-6338.46-1880.653v13.544h4.5v-12.663Z" fill="#ff95a9"/>
      <rect id="Rectángulo_34592" data-name="Rectángulo 34592" width="27.613" height="1.469" transform="translate(-6251.042 -1871.365)" fill="#fff"/>
      <path id="Trazado_147967" data-name="Trazado 147967" d="M-6330.938-1976.458l0,0a10.466,10.466,0,0,0,1.312-1.784l-.009-.007A10.516,10.516,0,0,1-6330.938-1976.458Z" fill="#fff"/>
      <path id="Trazado_147968" data-name="Trazado 147968" d="M-6318.191-1970.409l7.374-.488-.146-2.2-7.374.488a11.144,11.144,0,0,1-8.151-2.816l-1.062-.954-.957-.859a11.989,11.989,0,0,1-1.333,1.765l1.88,1.688c.24.215.493.413.747.609a13.4,13.4,0,0,0,8.158,2.794C-6318.768-1970.381-6318.479-1970.39-6318.191-1970.409Z" fill="#fff"/>
      <path id="Trazado_147969" data-name="Trazado 147969" d="M-6342.839-2001.423l-.443-3.158a22.229,22.229,0,0,1,.493-8.717,20.674,20.674,0,0,0-5.857,16.187A10.532,10.532,0,0,1-6342.839-2001.423Z" fill="#40327a"/>
      <path id="Trazado_147970" data-name="Trazado 147970" d="M-6332.172-1970.757l.065-.007-.274-2.6v-.006a12.09,12.09,0,0,0,2.541-2.1,11.989,11.989,0,0,0,1.333-1.765,12.019,12.019,0,0,0,.724-1.349l.233,2.208,1.062.954a11.144,11.144,0,0,0,8.151,2.816l7.374-.488.146,2.2-7.374.488c-.288.019-.577.028-.864.028a13.4,13.4,0,0,1-8.158-2.794l.212,2.017a13.6,13.6,0,0,0,3.882,8.174,13.627,13.627,0,0,0,10.728,4.014c.136-.01.272-.017.409-.031l13.5-1.422a6.84,6.84,0,0,0,6.042-7.846l-2.572-16.614h0l-22.315,2.35a5.691,5.691,0,0,1-6.245-4.972l-2.144-20.352a14.323,14.323,0,0,0,11,3.533l15.69-1.652a18.814,18.814,0,0,1,1.533,5.046l.672,4.354a11.523,11.523,0,0,0,8.256-12.271,11.5,11.5,0,0,0-5.546-8.671,10.24,10.24,0,0,0-8.3-8.305,6.778,6.778,0,0,0-2.327-.162l-.518.054h-.013l-2.76.291-4.858.512-.627.066h0l-.849.089a6.807,6.807,0,0,0-4.482,2.37,6.816,6.816,0,0,0-5.6-2.026,6.83,6.83,0,0,0-5.95,5.33,20.423,20.423,0,0,0-7.9,2.542,19.15,19.15,0,0,0-2.081,11.768l.438,3.124a10.563,10.563,0,0,1,10.573,9.091l1.084,7.725a10.608,10.608,0,0,1,.061,2.336l0,.022c-.02.245-.05.488-.087.729-.007.042-.011.085-.018.127a10.484,10.484,0,0,1-1.3,3.6,10.466,10.466,0,0,1-1.312,1.784c-.223.243-.459.473-.706.7-.033.031-.068.06-.1.09-.194.171-.4.336-.6.493a10.51,10.51,0,0,1-4.932,2.061,10.587,10.587,0,0,1-1.858.086l3.281,7.34,1.075-.071,2.99-.2Zm35-9.242a5.169,5.169,0,0,1-4.553,5.718,5.168,5.168,0,0,1-5.718-4.553Z" fill="#40327a"/>
      <path id="Trazado_147971" data-name="Trazado 147971" d="M-6337.277-1973.114a10.51,10.51,0,0,0,4.932-2.061c.207-.158.409-.321.6-.493.034-.03.069-.059.1-.09.245-.223.48-.456.7-.7a10.516,10.516,0,0,0,1.307-1.787,10.519,10.519,0,0,0,1.311-3.589c.007-.042.011-.085.018-.127.038-.248.064-.5.085-.751a10.608,10.608,0,0,0-.061-2.336l-1.084-7.725a10.563,10.563,0,0,0-10.573-9.091l-.438-3.124a19.15,19.15,0,0,1,2.081-11.768,19.542,19.542,0,0,1,1.789-2.762,19.171,19.171,0,0,1,13.111-7.358,19.363,19.363,0,0,1,10.514,1.749l4.858-.512a22.174,22.174,0,0,0-15.7-4.156,22.088,22.088,0,0,0-15.1,8.476,22.235,22.235,0,0,0-3.964,8.021,22.229,22.229,0,0,0-.493,8.717l.443,3.158a10.532,10.532,0,0,0-5.807,4.312,10.512,10.512,0,0,0-1.647,7.273l1.083,7.725a10.564,10.564,0,0,0,10.075,9.085A10.587,10.587,0,0,0-6337.277-1973.114Zm-9.646-11.41-.72-5.134a7.024,7.024,0,0,1,5.98-7.93,7.022,7.022,0,0,1,7.93,5.98l.72,5.133a7.023,7.023,0,0,1-5.979,7.931A7.023,7.023,0,0,1-6346.923-1984.524Z" fill="#b3a4f5"/>
      <path id="Trazado_147972" data-name="Trazado 147972" d="M-6333.013-1986.475l-.72-5.133a7.022,7.022,0,0,0-7.93-5.98,7.024,7.024,0,0,0-5.98,7.93l.72,5.134a7.023,7.023,0,0,0,7.931,5.98A7.023,7.023,0,0,0-6333.013-1986.475Z" fill="#fff"/>
    </g>
    <g id="Grupo_92278" data-name="Grupo 92278">
      <path id="Trazado_147973" data-name="Trazado 147973" d="M-6176.286-2046.292c-.035-.258-.082-.5-.127-.747l-1.1,3.583a1.42,1.42,0,0,1-1.775.939l-9.174-2.825-6.592,27.558,13.443-8.195C-6181.556-2034.521-6174.9-2036.267-6176.286-2046.292Z" fill="#ffe4e0"/>
      <path id="Trazado_147974" data-name="Trazado 147974" d="M-6178.615-1965.413h0c0-.021,0-.042,0-.063v-.721h.012l-.045-11.711h-.657v-2.355h.648l-.01-2.355h-.734v-9.648a10.73,10.73,0,0,1-8.459-10.413l-15.44,6.86-.03-.056a7.234,7.234,0,0,1-5.43.111,7.264,7.264,0,0,1-4.2-9.373h0l16.283-42.752h0l2.547-6.689,3.284-8.623a5.383,5.383,0,0,1,6.439-3.278l.248-.8a28.582,28.582,0,0,1,23.512-29.461,28.578,28.578,0,0,1,33.162,23.095,28.432,28.432,0,0,1,.153,9.18c-.04.291-.086.593-.142.887a28.064,28.064,0,0,1-1.347,4.92,13.763,13.763,0,0,0,.332,3.817c2.394,10.855,10.428,8.973,12.823,19.828,1.693,7.674-.208,10.573-.777,15.475l17.192,16.716,31.451-24.061h0l5.684-4.35.013.015a3.8,3.8,0,0,1,1.019-.547l0-.017,3.024-1.084a90.806,90.806,0,0,0-90.592-84.692,90.8,90.8,0,0,0-90.794,90.8,90.825,90.825,0,0,0,56.227,83.985v-2.96A44.4,44.4,0,0,1-6178.615-1965.413Z" fill="#ffe4e0"/>
      <path id="Trazado_147975" data-name="Trazado 147975" d="M-6062.152-2020.406l0,0-32.454,32.244h0a7.25,7.25,0,0,1-8.571,1.22,24.9,24.9,0,0,1-20.506,23.788l-12.958,2.319a27.545,27.545,0,0,1,6.731,17.941v4.985c.4-.083.8-.163,1.19-.254a90.828,90.828,0,0,0,70.831-86.184l-.3,0Z" fill="#ffe4e0"/>
      <path id="Trazado_147976" data-name="Trazado 147976" d="M-6126.727-1929.322a100.254,100.254,0,0,1-21.924,2.415c-1.143,0-2.3-.019-3.431-.057l-.049,1.467c1.15.04,2.32.059,3.48.059a101.69,101.69,0,0,0,22.245-2.451,101.387,101.387,0,0,0,44.563-22.688,101.763,101.763,0,0,0,28.2-40.876l-1.378-.513A99.461,99.461,0,0,1-6126.727-1929.322Z" fill="#b3a4f5"/>
      <path id="Trazado_147977" data-name="Trazado 147977" d="M-6052.705-1998.979l1.411.407c.726-2.513,1.362-5.085,1.889-7.646l-1.439-.3C-6051.364-2003.99-6051.99-2001.456-6052.705-1998.979Z" fill="#b3a4f5"/>
      <path id="Trazado_147978" data-name="Trazado 147978" d="M-6048.195-2040.119a100.346,100.346,0,0,0-28.446-57.927l-1.043,1.033a98.9,98.9,0,0,1,28.033,57.086Z" fill="#b3a4f5"/>
      <path id="Trazado_147979" data-name="Trazado 147979" d="M-6087.37-2105.61l.9-1.159a100.338,100.338,0,0,0-62.183-21.32,101.9,101.9,0,0,0-21.719,2.334l.313,1.434a100.554,100.554,0,0,1,21.406-2.3A98.878,98.878,0,0,1-6087.37-2105.61Z" fill="#b3a4f5"/>
      <path id="Trazado_147980" data-name="Trazado 147980" d="M-6179.875-2123.186c-2.1.678-4.193,1.435-6.236,2.248l.543,1.364c2.013-.8,4.081-1.546,6.145-2.215Z" fill="#b3a4f5"/>
      <path id="Trazado_147981" data-name="Trazado 147981" d="M-6247.464-2041.226l-1.453-.21q-.2,1.379-.363,2.77l1.459.171Q-6247.66-2039.866-6247.464-2041.226Z" fill="#b3a4f5"/>
      <path id="Trazado_147982" data-name="Trazado 147982" d="M-6249.973-2026.759a100.986,100.986,0,0,0,15.759,54.29l1.239-.787a99.538,99.538,0,0,1-15.529-53.5q0-.846.015-1.688l-1.469-.026Q-6249.973-2027.616-6249.973-2026.759Z" fill="#b3a4f5"/>
      <path id="Trazado_147983" data-name="Trazado 147983" d="M-6118.551-1923.843l6.179,21.151c1.358-.4,2.732-.823,4.084-1.266l-6.873-20.937C-6116.284-1924.526-6117.425-1924.172-6118.551-1923.843Z" fill="#ccc2ff"/>
      <path id="Trazado_147984" data-name="Trazado 147984" d="M-6111.866-1926.038l7.561,20.7a130.1,130.1,0,0,0,48.2-31.214l-15.777-15.384A107.91,107.91,0,0,1-6111.866-1926.038Z" fill="#ddd6ff"/>
      <path id="Trazado_147985" data-name="Trazado 147985" d="M-6022.465-2054.809l-21.515,4.763a107.885,107.885,0,0,1,2.535,23.288,107.072,107.072,0,0,1-26.653,70.737l16.549,14.55a129.1,129.1,0,0,0,32.139-85.287A130.01,130.01,0,0,0-6022.465-2054.809Z" fill="#f2f0ff"/>
      <path id="Trazado_147986" data-name="Trazado 147986" d="M-6052.65-2074.531l19.72-9.833c-1.841-3.691-3.886-7.34-6.078-10.845l-18.682,11.686C-6055.872-2080.617-6054.176-2077.591-6052.65-2074.531Z" fill="#ddd6ff"/>
      <path id="Trazado_147987" data-name="Trazado 147987" d="M-6255.849-2026.758a107.324,107.324,0,0,1,107.2-107.207,107.72,107.72,0,0,1,86.314,43.611l17.729-13.086a130.381,130.381,0,0,0-44.836-38.228A129.6,129.6,0,0,0-6148.652-2156c-71.259,0-129.232,57.977-129.232,129.242a130.178,130.178,0,0,0,2.341,24.6l21.637-4.171A108.177,108.177,0,0,1-6255.849-2026.758Z" fill="#f2f0ff"/>
      <path id="Trazado_147988" data-name="Trazado 147988" d="M-6252.828-2001.374l-21.413,5.2c.615,2.532,1.315,5.075,2.081,7.557l21.056-6.5C-6251.739-1997.169-6252.319-1999.276-6252.828-2001.374Z" fill="#ddd6ff"/>
      <path id="Trazado_147989" data-name="Trazado 147989" d="M-6148.652-1919.562a106.687,106.687,0,0,1-38.937-7.29,108.087,108.087,0,0,1-59.26-56.838l-20.175,8.863a130.281,130.281,0,0,0,71.428,68.5,128.641,128.641,0,0,0,46.944,8.8,129.756,129.756,0,0,0,28.369-3.127l-4.827-21.5A107.687,107.687,0,0,1-6148.652-1919.562Z" fill="#f2f0ff"/>
      <path id="Trazado_147990" data-name="Trazado 147990" d="M-6181.482-2071.153l6.34,1.953.765-7.323a30.082,30.082,0,0,1,14.722,6.54,23.479,23.479,0,0,0,13.94,5.343l.768.032h0a3.846,3.846,0,0,1,3.679,4,3.844,3.844,0,0,1-4,3.678l-.768-.033-.207,4.879-.358,8.424-.071,1.677-.454,10.709,7.676.325h0l6.677.283a9.949,9.949,0,0,1,6.781,1.949,10.187,10.187,0,0,1,.986.855l.007-.008,8.56,8.324c.569-4.9,2.47-7.8.777-15.475-2.4-10.855-10.429-8.973-12.823-19.828a13.763,13.763,0,0,1-.332-3.817,28.064,28.064,0,0,0,1.347-4.92c.056-.294.1-.6.142-.887a28.432,28.432,0,0,0-.153-9.18,28.578,28.578,0,0,0-33.162-23.095,28.582,28.582,0,0,0-23.512,29.461l.9-2.931A1.42,1.42,0,0,1-6181.482-2071.153Z" fill="#40327a"/>
      <path id="Trazado_147991" data-name="Trazado 147991" d="M-6164.03-2031.987l.454-10.709-1.029-.043a12.454,12.454,0,0,1-10.858-7.386l-.95,3.086c.045.245.092.489.127.747,1.383,10.025-5.27,11.771-5.328,20.313l6.5-3.961a9.946,9.946,0,0,1,4.9-2.138l.005-.112.779.034a9.968,9.968,0,0,1,1.039-.016l1.851.078h0Z" fill="#40327a"/>
      <path id="Trazado_147992" data-name="Trazado 147992" d="M-6104.173-1987.433l-26.13-19.539-12.165,40.933,1.985,1.545a26.969,26.969,0,0,1,3.843,3.66l12.958-2.319a24.9,24.9,0,0,0,20.506-23.788,7.085,7.085,0,0,1-.919-.584Z" fill="#40327a"/>
      <path id="Trazado_147993" data-name="Trazado 147993" d="M-6183.9-2066.315a5.381,5.381,0,0,1,3.114,6.946,5.331,5.331,0,0,1-.9,1.526l0,0-5.329,6.4-1.454,6.079h0l0,.018,9.174,2.825a1.42,1.42,0,0,0,1.775-.939l1.1-3.583.95-3.086a12.4,12.4,0,0,1-1.008-6.36l1.329-12.715-6.34-1.953a1.42,1.42,0,0,0-1.775.939l-.9,2.931-.248.8C-6184.237-2066.432-6184.068-2066.379-6183.9-2066.315Z" fill="#624ac9"/>
      <path id="Trazado_147994" data-name="Trazado 147994" d="M-6188.462-2045.361l1.454-6.079,5.329-6.4,0,0a5.331,5.331,0,0,0,.9-1.526,5.381,5.381,0,0,0-3.114-6.946c-.167-.064-.336-.117-.506-.164a5.383,5.383,0,0,0-6.439,3.278l-3.284,8.623-2.547,6.689Z" fill="#ff95a9"/>
      <path id="Trazado_147995" data-name="Trazado 147995" d="M-6178.614-1965.413h0v-.063C-6178.613-1965.455-6178.614-1965.434-6178.614-1965.413Z" fill="#e5659b"/>
      <path id="Trazado_147996" data-name="Trazado 147996" d="M-6147.13-2031.27l.454-10.709.071-1.677.358-8.424.207-4.879.768.033a3.844,3.844,0,0,0,4-3.678,3.846,3.846,0,0,0-3.679-4h0l-.768-.032a23.479,23.479,0,0,1-13.94-5.343,30.082,30.082,0,0,0-14.722-6.54l-.765,7.323-1.329,12.715a12.4,12.4,0,0,0,1.008,6.36,12.454,12.454,0,0,0,10.858,7.386l1.029.043-.454,10.709-2.518-.107h0l-.753,17.772,27.847-16.623h0Zm-21.388-19.051a3.533,3.533,0,0,1-3.746-3.309,3.366,3.366,0,0,1,.1-1.083l6.953.932A3.533,3.533,0,0,1-6168.518-2050.321Z" fill="#ff95a9"/>
      <path id="Trazado_147997" data-name="Trazado 147997" d="M-6045.2-2029.9a5.381,5.381,0,0,0-5.456-5.307,5.347,5.347,0,0,0-1.742.319v-.006l-5.661,2.029-3.024,1.084,0,.017a3.8,3.8,0,0,0-1.019.547l-.013-.015-5.684,4.35,5.647,6.48,3.963-3.936.3,0,7.378-.1A5.382,5.382,0,0,0-6045.2-2029.9Z" fill="#ff95a9"/>
      <path id="Trazado_147998" data-name="Trazado 147998" d="M-6099.251-2002.826l-17.192-16.716-8.56-8.324-.007.008a10.187,10.187,0,0,0-.986-.855,9.949,9.949,0,0,0-6.781-1.949l-6.677-.283-27.847,16.623.753-17.772-1.851-.078a9.968,9.968,0,0,0-1.039.016l.689.029-.927,21.786,31.281-18.668.753,1.261-33.617,20.062,1.037-24.392a9.946,9.946,0,0,0-4.9,2.138l-6.5,3.961-13.443,8.195,6.592-27.558,0-.018h0l-8.215-2.528h0l-16.283,42.752h0a7.264,7.264,0,0,0,4.2,9.373,7.234,7.234,0,0,0,5.43-.111l.03.056,15.44-6.86c0-.173-.012-.345,0-.52a10.68,10.68,0,0,1,.669-3.282l-.01-.01.193-.476,1.586-3.709,1.351.578-1.578,3.712a9.367,9.367,0,0,0-.744,3.249,9.272,9.272,0,0,0,8.861,9.644c.134.007.263.008.388.007h12.276v1.469h-12.695v-.008h-.038c-.11-.005-.217-.023-.327-.031v9.438h-.735l.01,2.355h.821v2.355h-.812l.045,11.711h19.079v.784H-6158v-.734h1.743v-.05h2.639v.05h11.008l.139.108,12.165-40.933,26.13,19.539.078-.092a7.085,7.085,0,0,0,.919.584,7.25,7.25,0,0,0,8.571-1.22h0l32.454-32.244,0,0-5.647-6.48h0Zm-85.063-10.441,2.194-5.132,1.351.578-2.195,5.133Z" fill="#e5659b"/>
      <rect id="Rectángulo_34593" data-name="Rectángulo 34593" width="5.582" height="1.469" transform="translate(-6184.315 -2013.267) rotate(-66.827)" fill="#624ac9"/>
      <path id="Trazado_147999" data-name="Trazado 147999" d="M-6177.93-1982.618v-9.438c.11.008.217.026.327.031h.038v.008h12.695v-1.469h-12.276c-.125,0-.254,0-.388-.007a9.272,9.272,0,0,1-8.861-9.644,9.367,9.367,0,0,1,.744-3.249l1.578-3.712-1.351-.578-1.586,3.709-.193.476.01.01a10.68,10.68,0,0,0-.669,3.282c-.008.175,0,.347,0,.52a10.73,10.73,0,0,0,8.459,10.413v9.648h1.469Z" fill="#624ac9"/>
      <path id="Trazado_148000" data-name="Trazado 148000" d="M-6131.378-1942.893a26.046,26.046,0,0,0-10.007-20.441l-1.726-1.344H-6158v-.735h-1.525v.686h-19.091v-.686h0a44.4,44.4,0,0,0-4.606,19.678v2.96c.529.213,1.058.426,1.587.632a90.552,90.552,0,0,0,32.98,6.177,91.482,91.482,0,0,0,18.01-1.785h-.734Z" fill="#7760db"/>
      <path id="Trazado_148001" data-name="Trazado 148001" d="M-6136.64-1960.834a26.969,26.969,0,0,0-3.843-3.66l-1.985-1.545-.139-.108h-11.008v1.42h-2.639v-1.42H-6158v1.469h14.886l1.726,1.344a26.046,26.046,0,0,1,10.007,20.441v5.142h1.469v-5.142A27.545,27.545,0,0,0-6136.64-1960.834Z" fill="#4f37b3"/>
      <path id="Trazado_148002" data-name="Trazado 148002" d="M-6177.833-1980.263h-1.469v2.355h1.469Z" fill="#624ac9"/>
      <path id="Trazado_148003" data-name="Trazado 148003" d="M-6178.6-1966.2h-.012v1.469h19.091v-1.469Z" fill="#fff"/>
      <path id="Trazado_148004" data-name="Trazado 148004" d="M-6156.253-1966.2v1.469h2.639v-1.469Z" fill="#fff"/>
      <path id="Trazado_148005" data-name="Trazado 148005" d="M-6172.264-2053.63a3.533,3.533,0,0,0,3.746,3.309,3.533,3.533,0,0,0,3.311-3.46l-6.953-.932A3.366,3.366,0,0,0-6172.264-2053.63Z" fill="#fff"/>
      <path id="Trazado_148006" data-name="Trazado 148006" d="M-6170.222-2032.078l-1.038,24.392,33.617-20.062-.752-1.261-31.281,18.667.927-21.785-.688-.03-.779-.033Z" fill="#fff"/>
    </g>
    <g id="Grupo_92281" data-name="Grupo 92281">
      <rect id="Rectángulo_34594" data-name="Rectángulo 34594" width="11.768" height="9.397" transform="translate(-6268.856 -1934.64) rotate(-168.576)" fill="#c4b8ff"/>
      <rect id="Rectángulo_34595" data-name="Rectángulo 34595" width="11.768" height="9.397" transform="translate(-6267.809 -1921.013) rotate(180)" fill="#ff809f"/>
      <rect id="Rectángulo_34596" data-name="Rectángulo 34596" width="11.768" height="9.397" transform="matrix(-0.989, 0.15, -0.15, -0.989, -6268.246, -1908.664)" fill="#fff"/>
      <path id="Trazado_148007" data-name="Trazado 148007" d="M-6209.17-1964.187" fill="none" stroke="#fff" stroke-miterlimit="10" stroke-width="0.397"/>
      <path id="Trazado_148008" data-name="Trazado 148008" d="M-6274.142-1885.12l118.5.007,3.309-82.85-118.5-.008Z" fill="#ddd6ff"/>
      <path id="Trazado_148009" data-name="Trazado 148009" d="M-6154.135-1922.772l-.722,18.082-115.487-.007,4.083-.636Z" fill="#b3a4f5"/>
      <path id="Trazado_148010" data-name="Trazado 148010" d="M-6155.64-1885.113l-115.486-.007.782-19.577,115.487.007Z" fill="#b3a4f5"/>
      <path id="Trazado_148011" data-name="Trazado 148011" d="M-6154.934-1884.378l-119.208,0v-1.469l117.8,0,.457-11.426,1.467.059Z" fill="#7760db"/>
      <path id="Trazado_148012" data-name="Trazado 148012" d="M-6268.54-1949.888l.723-18.082,115.486.007-4.083.636Z" fill="#ccc2ff"/>
      <g id="Grupo_92279" data-name="Grupo 92279">
        <rect id="Rectángulo_34597" data-name="Rectángulo 34597" width="101.645" height="1.469" transform="matrix(0.988, -0.154, 0.154, 0.988, -6253.446, -1938.885)" fill="#fff"/>
        <rect id="Rectángulo_34598" data-name="Rectángulo 34598" width="65.094" height="1.469" transform="matrix(0.988, -0.154, 0.154, 0.988, -6217.091, -1950.491)" fill="#fff"/>
        <rect id="Rectángulo_34599" data-name="Rectángulo 34599" width="12.981" height="1.469" transform="matrix(0.988, -0.154, 0.154, 0.988, -6240.296, -1946.885)" fill="#fff"/>
      </g>
      <path id="Trazado_148013" data-name="Trazado 148013" d="M-6152.639-1941.826l-1.468-.059,1.012-25.344-71.8,0v-1.469l73.325,0Z" fill="#b3a4f5"/>
      <rect id="Rectángulo_34600" data-name="Rectángulo 34600" width="13.612" height="1.469" transform="translate(-6270.833 -1968.705)" fill="#b3a4f5"/>
      <path id="Trazado_148014" data-name="Trazado 148014" d="M-6207.673-1964.282" fill="none" stroke="#fff" stroke-miterlimit="10" stroke-width="0.397"/>
      <path id="Trazado_148015" data-name="Trazado 148015" d="M-6155.406-1964.279" fill="none" stroke="#fff" stroke-miterlimit="10" stroke-width="0.397"/>
      <rect id="Rectángulo_34601" data-name="Rectángulo 34601" width="2.396" height="1.469" transform="translate(-6155.791 -1899.727) rotate(-87.705)" fill="#7760db"/>
      <rect id="Rectángulo_34602" data-name="Rectángulo 34602" width="6.286" height="1.469" transform="translate(-6154.541 -1931.024) rotate(-87.706)" fill="#b3a4f5"/>
      <g id="Grupo_92280" data-name="Grupo 92280">
        <path id="Trazado_148016" data-name="Trazado 148016" d="M-6199.924-1923.906l15.108,38.685h-13.608Z" fill="#8b77e8"/>
        <path id="Trazado_148017" data-name="Trazado 148017" d="M-6223.429-1867.1h32.859l-10.089-56.8h-22.77Z" fill="#ccc2ff"/>
        <rect id="Rectángulo_34603" data-name="Rectángulo 34603" width="27.613" height="2.793" transform="translate(-6251.042 -1869.896)" fill="#ccc2ff"/>
        <rect id="Rectángulo_34604" data-name="Rectángulo 34604" width="1.469" height="1.653" transform="translate(-6224.164 -1892.976)" fill="#fff"/>
        <path id="Trazado_148018" data-name="Trazado 148018" d="M-6222.695-1897.322h-1.469v-27.318h18.626v1.469h-17.157Z" fill="#fff"/>
        <rect id="Rectángulo_34605" data-name="Rectángulo 34605" width="1.469" height="57.692" transform="translate(-6201.382 -1923.777) rotate(-10.072)" fill="#b3a4f5"/>
        <circle id="Elipse_4872" data-name="Elipse 4872" cx="5.865" cy="5.865" r="5.865" transform="translate(-6217.16 -1905.764) rotate(-80.783)" fill="#8b77e8"/>
        <path id="Trazado_148019" data-name="Trazado 148019" d="M-6205.855-1912.935a5.117,5.117,0,0,0-.987-1.344l1.027-1.05a6.569,6.569,0,0,1,1.269,1.728Z" fill="#fff"/>
        <path id="Trazado_148020" data-name="Trazado 148020" d="M-6214.992-1905.843a6.544,6.544,0,0,1-2.039-4.77,6.607,6.607,0,0,1,6.6-6.6,6.561,6.561,0,0,1,2.569.519l-.572,1.353a5.084,5.084,0,0,0-2-.4,5.135,5.135,0,0,0-5.13,5.131,5.088,5.088,0,0,0,1.585,3.708Z" fill="#fff"/>
      </g>
    </g>
    <g id="Grupo_92283" data-name="Grupo 92283">
      <path id="Trazado_148021" data-name="Trazado 148021" d="M-6202.468-2057.906h-114.561a32.462,32.462,0,0,1-32.424-32.424,32.461,32.461,0,0,1,32.424-32.424h82.137a32.461,32.461,0,0,1,32.424,32.424Zm-114.561-63.379a30.99,30.99,0,0,0-30.955,30.955,30.991,30.991,0,0,0,30.955,30.955h113.092v-30.955a30.99,30.99,0,0,0-30.955-30.955Z" fill="#b3a4f5"/>
      <g id="Grupo_92282" data-name="Grupo 92282">
        <circle id="Elipse_4873" data-name="Elipse 4873" cx="6.08" cy="6.08" r="6.08" transform="translate(-6304.11 -2096.411)" fill="#b3a4f5"/>
        <circle id="Elipse_4874" data-name="Elipse 4874" cx="6.08" cy="6.08" r="6.08" transform="translate(-6283.275 -2085.81) rotate(-76.717)" fill="#b3a4f5"/>
        <circle id="Elipse_4875" data-name="Elipse 4875" cx="6.08" cy="6.08" r="6.08" transform="translate(-6259.971 -2096.411)" fill="#b3a4f5"/>
      </g>
    </g>
  </g>
</svg>
