<svg xmlns="http://www.w3.org/2000/svg" width="64.278" height="62.042" viewBox="0 0 64.278 62.042">
  <path id="Trazado_149098" data-name="Trazado 149098" d="M840.548,464.88h13.636c0-3.014,1.706-4.139,4.719-4.139V444.176a14.488,14.488,0,0,1-22.6-.6v17.164C839.315,460.741,840.548,461.866,840.548,464.88Zm7.055-11.15a2.943,2.943,0,1,1-2.945,2.943A2.943,2.943,0,0,1,847.6,453.73Zm18.742-28.352v47.057H828.861V425.378h3.673v43.27H862.67v-43.27ZM843.32,436.955a5.476,5.476,0,0,1,.4-.738,2.52,2.52,0,0,1,.391-.484l-1.677-.928a7.837,7.837,0,0,0-.965,1.769,6.985,6.985,0,0,0-.475,2.185h-1.841v.949H841a6.217,6.217,0,0,0,.355,1.668,4.179,4.179,0,0,0,.784,1.32,3.465,3.465,0,0,0,1.194.876,3.853,3.853,0,0,0,1.586.309,3.1,3.1,0,0,0,1.3-.247,2.673,2.673,0,0,0,.938-.719,4.2,4.2,0,0,0,.683-1.194,15.126,15.126,0,0,0,.537-1.686c.024-.073.045-.149.064-.229a2.254,2.254,0,0,1,.064-.226h3.773a6.861,6.861,0,0,1-.257,1.268,8.154,8.154,0,0,1-.417,1.12,6.564,6.564,0,0,1-.492.893,3.2,3.2,0,0,1-.475.584l1.75.927a7.763,7.763,0,0,0,1.195-2.169,9.134,9.134,0,0,0,.52-2.494h1.952v-.949h-1.915a6.809,6.809,0,0,0-.249-1.74,4.25,4.25,0,0,0-.681-1.422,3.232,3.232,0,0,0-1.139-.958,3.653,3.653,0,0,0-1.649-.344,3.33,3.33,0,0,0-1.487.3,2.914,2.914,0,0,0-1.031.846,5.106,5.106,0,0,0-.709,1.341,16.192,16.192,0,0,0-.529,1.778l-.074.345h-3.772a5.358,5.358,0,0,1,.174-1.031A5.924,5.924,0,0,1,843.32,436.955Zm6.105.165a1.348,1.348,0,0,1,1.211-.638,1.373,1.373,0,0,1,1.222.627,3.3,3.3,0,0,1,.438,1.8h-3.608A6.792,6.792,0,0,1,849.425,437.12Zm-3.016,2.459a5.205,5.205,0,0,1-.674,1.631,1.317,1.317,0,0,1-1.15.536,1.574,1.574,0,0,1-1.248-.527,2.65,2.65,0,0,1-.52-1.64Zm12.494-5.863a14.486,14.486,0,0,0-22.6.6v-8.938h22.6Zm-35.694-2.977v-7.822a3.963,3.963,0,0,1,4.073-3.832h40.644A3.964,3.964,0,0,1,872,422.918v7.822c0,2.037-3.26,1.63-3.26,1.63v-9.452c0-.272-.336-.573-.814-.573H827.282c-.478,0-.814.3-.814.573v9.452S823.209,433.3,823.209,430.74Zm56.533-15.273v19.819a5.246,5.246,0,0,1-5.39,5.077h-5.586v-4.346h5.586c.616,0,1.046-.384,1.046-.73V415.467c0-.343-.429-.728-1.046-.728h-53.5c-.615,0-1.045.385-1.045.728v19.819c0,.346.429.73,1.045.73h5.613v4.346h-5.613a5.249,5.249,0,0,1-5.391-5.077V415.467a5.247,5.247,0,0,1,5.391-5.074h53.5A5.245,5.245,0,0,1,879.742,415.467Z" transform="translate(-815.464 -410.393)" fill="#ef6c00"/>
</svg>
