<svg xmlns="http://www.w3.org/2000/svg" xmlns:xlink="http://www.w3.org/1999/xlink" width="974.177" height="517.266" viewBox="0 0 974.177 517.266">
  <defs>
    <linearGradient id="linear-gradient" x1="0.199" y1="0.189" x2="0.906" y2="1.608" gradientUnits="objectBoundingBox">
      <stop offset="0" stop-color="#fff"/>
      <stop offset="0.87" stop-color="#f5f4f3"/>
    </linearGradient>
    <filter id="Trazado_102603" x="250.073" y="277.29" width="457.492" height="239.976" filterUnits="userSpaceOnUse">
      <feOffset dy="3" input="SourceAlpha"/>
      <feGaussianBlur stdDeviation="4" result="blur"/>
      <feFlood flood-opacity="0.161"/>
      <feComposite operator="in" in2="blur"/>
      <feComposite in="SourceGraphic"/>
    </filter>
  </defs>
  <g id="Grupo_88006" data-name="Grupo 88006" transform="translate(-321.28 -547.906)">
    <g id="Grupo_87934" data-name="Grupo 87934" transform="translate(1031.14 -1604.806)">
      <path id="Trazado_102598" data-name="Trazado 102598" d="M-690.6,2841.308h447.323l-358.6-268.6A457.376,457.376,0,0,0-690.6,2841.308Z" transform="translate(0 -188.638)" fill="#fcecdf"/>
      <path id="Trazado_102599" data-name="Trazado 102599" d="M710.4,2841.541a457.374,457.374,0,0,0-88.555-268.367L271.959,2841.541Z" transform="translate(-482.084 -188.871)" fill="#fcecdf"/>
      <path id="Trazado_102600" data-name="Trazado 102600" d="M259.3,2674.012l349.888-268.367a460.357,460.357,0,0,0-232.34-166.968L246.674,2674.012Z" transform="translate(-469.421 -21.343)" fill="#dad6f7"/>
      <path id="Trazado_102601" data-name="Trazado 102601" d="M-283.393,2240.4a460.405,460.405,0,0,0-229.46,165.877l358.6,268.6h12.67Z" transform="translate(-89.02 -22.204)" fill="#dad6f7"/>
      <path id="Trazado_102602" data-name="Trazado 102602" d="M96.5,2652.669l130.169-435.335a461.971,461.971,0,0,0-279.837.859L88.648,2652.669Z" transform="translate(-319.251)" fill="#fcecdf"/>
      <g id="Grupo_87933" data-name="Grupo 87933" transform="translate(-447.787 2435.002)">
        <g transform="matrix(1, 0, 0, 1, -262.07, -282.29)" filter="url(#Trazado_102603)">
          <path id="Trazado_102603-2" data-name="Trazado 102603" d="M229.33,2890.719c-.418-119.351-97.3-215.976-216.746-215.976s-216.328,96.625-216.746,215.976Z" transform="translate(466.24 -2388.45)" fill="url(#linear-gradient)"/>
        </g>
      </g>
    </g>
    <path id="Trazado_149168" data-name="Trazado 149168" d="M28.535,14.759,32.191,4.2h1.846L29.291,17H27.8L23.06,4.2H24.9ZM40.963,17a3.416,3.416,0,0,1-.229-1,3.628,3.628,0,0,1-2.707,1.178,3.357,3.357,0,0,1-2.307-.8,2.573,2.573,0,0,1-.9-2.017,2.688,2.688,0,0,1,1.129-2.307,5.325,5.325,0,0,1,3.177-.822h1.582v-.747a1.826,1.826,0,0,0-.51-1.358,2.049,2.049,0,0,0-1.5-.505,2.371,2.371,0,0,0-1.459.439,1.3,1.3,0,0,0-.589,1.063H35.013a2.244,2.244,0,0,1,.505-1.375A3.449,3.449,0,0,1,36.889,7.7a4.613,4.613,0,0,1,1.9-.387,3.759,3.759,0,0,1,2.575.822,2.964,2.964,0,0,1,.967,2.263v4.377a5.351,5.351,0,0,0,.334,2.083V17Zm-2.7-1.239a2.858,2.858,0,0,0,1.45-.4,2.392,2.392,0,0,0,.993-1.028V12.386H39.434q-2.988,0-2.988,1.749a1.48,1.48,0,0,0,.51,1.2A1.959,1.959,0,0,0,38.265,15.761ZM49.479,8.949a4.873,4.873,0,0,0-.8-.062,2.143,2.143,0,0,0-2.171,1.362V17H44.883V7.49h1.582l.026,1.1a2.532,2.532,0,0,1,2.268-1.274,1.661,1.661,0,0,1,.721.123ZM52.74,17H51.114V7.49H52.74ZM50.982,4.968a.971.971,0,0,1,.242-.668.907.907,0,0,1,.716-.272.922.922,0,0,1,.721.272.96.96,0,0,1,.246.668.929.929,0,0,1-.246.659.938.938,0,0,1-.721.264.924.924,0,0,1-.716-.264A.938.938,0,0,1,50.982,4.968ZM61.213,17a3.416,3.416,0,0,1-.229-1,3.628,3.628,0,0,1-2.707,1.178,3.357,3.357,0,0,1-2.307-.8,2.573,2.573,0,0,1-.9-2.017A2.688,2.688,0,0,1,56.2,12.056a5.325,5.325,0,0,1,3.177-.822h1.582v-.747a1.826,1.826,0,0,0-.51-1.358,2.049,2.049,0,0,0-1.5-.505,2.371,2.371,0,0,0-1.459.439,1.3,1.3,0,0,0-.589,1.063H55.263a2.244,2.244,0,0,1,.505-1.375A3.449,3.449,0,0,1,57.139,7.7a4.613,4.613,0,0,1,1.9-.387,3.759,3.759,0,0,1,2.575.822,2.964,2.964,0,0,1,.967,2.263v4.377a5.351,5.351,0,0,0,.334,2.083V17Zm-2.7-1.239a2.858,2.858,0,0,0,1.45-.4,2.392,2.392,0,0,0,.993-1.028V12.386H59.684q-2.988,0-2.988,1.749a1.48,1.48,0,0,0,.51,1.2A1.959,1.959,0,0,0,58.515,15.761Zm14.669-3.41a5.654,5.654,0,0,1-1,3.5,3.2,3.2,0,0,1-2.689,1.323A3.315,3.315,0,0,1,66.706,15.9L66.627,17H65.133V3.5h1.626V8.536a3.3,3.3,0,0,1,2.716-1.222,3.221,3.221,0,0,1,2.72,1.31,5.824,5.824,0,0,1,.989,3.586Zm-1.626-.185A4.394,4.394,0,0,0,70.916,9.6a2.124,2.124,0,0,0-1.846-.905,2.387,2.387,0,0,0-2.312,1.494V14.3A2.454,2.454,0,0,0,69.088,15.8a2.112,2.112,0,0,0,1.819-.905A4.672,4.672,0,0,0,71.558,12.166ZM77,17H75.372V3.5H77Zm6.548.176a4.155,4.155,0,0,1-3.146-1.27,4.714,4.714,0,0,1-1.213-3.4v-.3a5.707,5.707,0,0,1,.541-2.527,4.217,4.217,0,0,1,1.512-1.74,3.8,3.8,0,0,1,2.1-.628,3.562,3.562,0,0,1,2.883,1.222,5.289,5.289,0,0,1,1.028,3.5v.677H80.813a3.38,3.38,0,0,0,.822,2.272,2.583,2.583,0,0,0,2,.866,2.832,2.832,0,0,0,1.459-.352,3.666,3.666,0,0,0,1.046-.932l.993.773A3.993,3.993,0,0,1,83.546,17.176Zm-.2-8.525a2.169,2.169,0,0,0-1.652.716,3.482,3.482,0,0,0-.826,2.008h4.764v-.123a3.1,3.1,0,0,0-.668-1.92A2.042,2.042,0,0,0,83.344,8.65Zm11.329,5.827a1.2,1.2,0,0,0-.5-1.024,4.78,4.78,0,0,0-1.731-.628,8.186,8.186,0,0,1-1.96-.633,2.788,2.788,0,0,1-1.072-.879,2.1,2.1,0,0,1-.347-1.213,2.467,2.467,0,0,1,.989-1.978,3.861,3.861,0,0,1,2.527-.809,3.974,3.974,0,0,1,2.624.835,2.652,2.652,0,0,1,1.006,2.136H94.576a1.468,1.468,0,0,0-.567-1.151,2.124,2.124,0,0,0-1.428-.483,2.223,2.223,0,0,0-1.389.387,1.217,1.217,0,0,0-.5,1.011.986.986,0,0,0,.466.888,5.731,5.731,0,0,0,1.683.571,8.77,8.77,0,0,1,1.973.65,2.878,2.878,0,0,1,1.121.91,2.237,2.237,0,0,1,.365,1.3,2.434,2.434,0,0,1-1.02,2.043,4.277,4.277,0,0,1-2.646.769,4.789,4.789,0,0,1-2.021-.4,3.288,3.288,0,0,1-1.375-1.129,2.722,2.722,0,0,1-.5-1.569h1.626a1.683,1.683,0,0,0,.655,1.3,2.54,2.54,0,0,0,1.613.479,2.622,2.622,0,0,0,1.481-.374A1.148,1.148,0,0,0,94.673,14.478ZM5.925,37.166a5.571,5.571,0,0,1,1.037-3.52,3.28,3.28,0,0,1,2.716-1.332,3.3,3.3,0,0,1,2.646,1.143V28.5H13.95V42H12.456l-.079-1.02a3.311,3.311,0,0,1-2.716,1.2,3.248,3.248,0,0,1-2.694-1.354,5.634,5.634,0,0,1-1.042-3.533Zm1.626.185a4.218,4.218,0,0,0,.668,2.531,2.159,2.159,0,0,0,1.846.914,2.372,2.372,0,0,0,2.259-1.389V35.039a2.39,2.39,0,0,0-2.241-1.345,2.17,2.17,0,0,0-1.863.923A4.644,4.644,0,0,0,7.551,37.351Zm12.867,4.825a4.155,4.155,0,0,1-3.146-1.27,4.714,4.714,0,0,1-1.213-3.4v-.3a5.707,5.707,0,0,1,.541-2.527,4.217,4.217,0,0,1,1.512-1.74,3.8,3.8,0,0,1,2.1-.628A3.562,3.562,0,0,1,23.1,33.536a5.289,5.289,0,0,1,1.028,3.5v.677H17.685a3.38,3.38,0,0,0,.822,2.272,2.583,2.583,0,0,0,2,.866,2.832,2.832,0,0,0,1.459-.352,3.666,3.666,0,0,0,1.046-.932l.993.773A3.993,3.993,0,0,1,20.418,42.176Zm-.2-8.525a2.169,2.169,0,0,0-1.652.716,3.482,3.482,0,0,0-.826,2.008H22.5v-.123a3.1,3.1,0,0,0-.668-1.92A2.042,2.042,0,0,0,20.216,33.65Zm7.321-1.16.044,1.055a3.512,3.512,0,0,1,2.821-1.23,2.719,2.719,0,0,1,2.716,1.529,3.6,3.6,0,0,1,1.235-1.107,3.647,3.647,0,0,1,1.8-.422q3.129,0,3.182,3.313V42H37.707V35.725a2.184,2.184,0,0,0-.466-1.525,2.051,2.051,0,0,0-1.564-.505,2.156,2.156,0,0,0-1.5.541,2.193,2.193,0,0,0-.694,1.455V42H31.844V35.769a1.814,1.814,0,0,0-2.03-2.074,2.175,2.175,0,0,0-2.188,1.362V42H26V32.49Zm13.816,4.667a5.617,5.617,0,0,1,.549-2.514,4.1,4.1,0,0,1,1.529-1.723,4.163,4.163,0,0,1,2.237-.606,4.01,4.01,0,0,1,3.142,1.345,5.174,5.174,0,0,1,1.2,3.577v.114a5.666,5.666,0,0,1-.532,2.492,4.038,4.038,0,0,1-1.521,1.718,4.211,4.211,0,0,1-2.272.615,4,4,0,0,1-3.133-1.345,5.147,5.147,0,0,1-1.2-3.56Zm1.635.193a4.068,4.068,0,0,0,.734,2.54,2.487,2.487,0,0,0,3.933-.013,4.449,4.449,0,0,0,.729-2.72,4.061,4.061,0,0,0-.743-2.536,2.361,2.361,0,0,0-1.973-.971,2.335,2.335,0,0,0-1.942.958A4.416,4.416,0,0,0,42.989,37.351Zm8.675-.185a5.589,5.589,0,0,1,1.028-3.538,3.545,3.545,0,0,1,5.44-.083l.079-1.055H59.7v9.281A3.869,3.869,0,0,1,58.6,44.681a4.038,4.038,0,0,1-2.94,1.063A4.891,4.891,0,0,1,53.65,45.3a3.465,3.465,0,0,1-1.5-1.2l.844-.976a3.18,3.18,0,0,0,2.558,1.292,2.491,2.491,0,0,0,1.85-.668,2.553,2.553,0,0,0,.664-1.881v-.817A3.342,3.342,0,0,1,55.4,42.176a3.248,3.248,0,0,1-2.7-1.345A5.876,5.876,0,0,1,51.664,37.166Zm1.635.185a4.264,4.264,0,0,0,.659,2.527A2.142,2.142,0,0,0,55.8,40.8a2.382,2.382,0,0,0,2.259-1.4V35.057a2.41,2.41,0,0,0-2.241-1.362,2.161,2.161,0,0,0-1.854.923A4.644,4.644,0,0,0,53.3,37.351Zm13.447-3.4a4.873,4.873,0,0,0-.8-.062,2.143,2.143,0,0,0-2.171,1.362V42H62.149V32.49h1.582l.026,1.1a2.532,2.532,0,0,1,2.268-1.274,1.661,1.661,0,0,1,.721.123ZM73.759,42a3.416,3.416,0,0,1-.229-1,3.628,3.628,0,0,1-2.707,1.178,3.357,3.357,0,0,1-2.307-.8,2.573,2.573,0,0,1-.9-2.017,2.688,2.688,0,0,1,1.129-2.307,5.325,5.325,0,0,1,3.177-.822H73.5v-.747a1.826,1.826,0,0,0-.51-1.358,2.049,2.049,0,0,0-1.5-.505,2.371,2.371,0,0,0-1.459.439,1.3,1.3,0,0,0-.589,1.063H67.809a2.244,2.244,0,0,1,.505-1.375,3.449,3.449,0,0,1,1.371-1.05,4.613,4.613,0,0,1,1.9-.387,3.759,3.759,0,0,1,2.575.822A2.964,2.964,0,0,1,75.13,35.4v4.377a5.351,5.351,0,0,0,.334,2.083V42Zm-2.7-1.239a2.858,2.858,0,0,0,1.45-.4,2.392,2.392,0,0,0,.993-1.028V37.386H72.23q-2.988,0-2.988,1.749a1.48,1.48,0,0,0,.51,1.2A1.959,1.959,0,0,0,71.061,40.761Zm1.5-12.243h1.969L72.177,31.1l-1.31,0ZM78.224,42V33.747h-1.5V32.49h1.5v-.809a3.3,3.3,0,0,1,.91-2.479,3.528,3.528,0,0,1,2.571-.888,7.741,7.741,0,0,1,2.487.536l-.272,1.371a5.633,5.633,0,0,0-2.092-.439,2.047,2.047,0,0,0-1.507.47,1.938,1.938,0,0,0-.461,1.411v.826H81.8v1.257H79.859V42ZM85,42H83.366V32.49H85Zm6.46-1.151a2.342,2.342,0,0,0,1.521-.527A1.855,1.855,0,0,0,93.7,39H95.24a2.949,2.949,0,0,1-.562,1.556,3.7,3.7,0,0,1-1.384,1.178,3.994,3.994,0,0,1-1.833.439,3.918,3.918,0,0,1-3.089-1.3,5.163,5.163,0,0,1-1.147-3.546v-.272a5.725,5.725,0,0,1,.51-2.47A3.883,3.883,0,0,1,89.2,32.912a4.157,4.157,0,0,1,2.254-.6,3.814,3.814,0,0,1,2.659.958A3.424,3.424,0,0,1,95.24,35.76H93.7a2.241,2.241,0,0,0-.7-1.516,2.174,2.174,0,0,0-1.551-.593,2.276,2.276,0,0,0-1.92.892,4.19,4.19,0,0,0-.681,2.58v.308a4.106,4.106,0,0,0,.677,2.531A2.287,2.287,0,0,0,91.46,40.849ZM102.939,42a3.416,3.416,0,0,1-.229-1A3.628,3.628,0,0,1,100,42.176a3.357,3.357,0,0,1-2.307-.8,2.573,2.573,0,0,1-.9-2.017,2.688,2.688,0,0,1,1.129-2.307,5.325,5.325,0,0,1,3.177-.822h1.582v-.747a1.826,1.826,0,0,0-.51-1.358,2.049,2.049,0,0,0-1.5-.505,2.371,2.371,0,0,0-1.459.439,1.3,1.3,0,0,0-.589,1.063H96.989a2.244,2.244,0,0,1,.505-1.375,3.449,3.449,0,0,1,1.371-1.05,4.613,4.613,0,0,1,1.9-.387,3.759,3.759,0,0,1,2.575.822,2.964,2.964,0,0,1,.967,2.263v4.377a5.351,5.351,0,0,0,.334,2.083V42Zm-2.7-1.239a2.858,2.858,0,0,0,1.45-.4,2.392,2.392,0,0,0,.993-1.028V37.386H101.41q-2.988,0-2.988,1.749a1.48,1.48,0,0,0,.51,1.2A1.959,1.959,0,0,0,100.241,40.761ZM112.4,39.478a1.2,1.2,0,0,0-.5-1.024,4.78,4.78,0,0,0-1.731-.628,8.186,8.186,0,0,1-1.96-.633,2.788,2.788,0,0,1-1.072-.879,2.1,2.1,0,0,1-.347-1.213,2.467,2.467,0,0,1,.989-1.978,3.861,3.861,0,0,1,2.527-.809,3.974,3.974,0,0,1,2.624.835,2.652,2.652,0,0,1,1.006,2.136H112.3a1.468,1.468,0,0,0-.567-1.151,2.124,2.124,0,0,0-1.428-.483,2.223,2.223,0,0,0-1.389.387,1.217,1.217,0,0,0-.5,1.011.986.986,0,0,0,.466.888,5.731,5.731,0,0,0,1.683.571,8.77,8.77,0,0,1,1.973.65,2.878,2.878,0,0,1,1.121.91,2.237,2.237,0,0,1,.365,1.3A2.434,2.434,0,0,1,113,41.407a4.277,4.277,0,0,1-2.646.769,4.789,4.789,0,0,1-2.021-.4,3.288,3.288,0,0,1-1.375-1.129,2.722,2.722,0,0,1-.5-1.569h1.626a1.683,1.683,0,0,0,.655,1.3,2.54,2.54,0,0,0,1.613.479,2.622,2.622,0,0,0,1.481-.374A1.148,1.148,0,0,0,112.4,39.478Z" transform="translate(426.438 927.863)" fill="#12263f"/>
    <path id="Trazado_149167" data-name="Trazado 149167" d="M50.535,14.759,54.191,4.2h1.846L51.291,17H49.8L45.06,4.2H46.9ZM62.963,17a3.416,3.416,0,0,1-.229-1,3.628,3.628,0,0,1-2.707,1.178,3.357,3.357,0,0,1-2.307-.8,2.573,2.573,0,0,1-.9-2.017,2.688,2.688,0,0,1,1.129-2.307,5.325,5.325,0,0,1,3.177-.822h1.582v-.747a1.826,1.826,0,0,0-.51-1.358,2.049,2.049,0,0,0-1.5-.505,2.371,2.371,0,0,0-1.459.439,1.3,1.3,0,0,0-.589,1.063H57.013a2.244,2.244,0,0,1,.505-1.375A3.449,3.449,0,0,1,58.889,7.7a4.613,4.613,0,0,1,1.9-.387,3.759,3.759,0,0,1,2.575.822,2.964,2.964,0,0,1,.967,2.263v4.377a5.351,5.351,0,0,0,.334,2.083V17Zm-2.7-1.239a2.858,2.858,0,0,0,1.45-.4,2.392,2.392,0,0,0,.993-1.028V12.386H61.434q-2.988,0-2.988,1.749a1.48,1.48,0,0,0,.51,1.2A1.959,1.959,0,0,0,60.265,15.761ZM71.479,8.949a4.873,4.873,0,0,0-.8-.062,2.143,2.143,0,0,0-2.171,1.362V17H66.883V7.49h1.582l.026,1.1a2.532,2.532,0,0,1,2.268-1.274,1.661,1.661,0,0,1,.721.123ZM74.74,17H73.114V7.49H74.74ZM72.982,4.968a.971.971,0,0,1,.242-.668.907.907,0,0,1,.716-.272.922.922,0,0,1,.721.272.96.96,0,0,1,.246.668.929.929,0,0,1-.246.659.938.938,0,0,1-.721.264.924.924,0,0,1-.716-.264A.938.938,0,0,1,72.982,4.968ZM83.213,17a3.416,3.416,0,0,1-.229-1,3.628,3.628,0,0,1-2.707,1.178,3.357,3.357,0,0,1-2.307-.8,2.573,2.573,0,0,1-.9-2.017A2.688,2.688,0,0,1,78.2,12.056a5.325,5.325,0,0,1,3.177-.822h1.582v-.747a1.826,1.826,0,0,0-.51-1.358,2.049,2.049,0,0,0-1.5-.505,2.371,2.371,0,0,0-1.459.439,1.3,1.3,0,0,0-.589,1.063H77.263a2.244,2.244,0,0,1,.505-1.375A3.449,3.449,0,0,1,79.139,7.7a4.613,4.613,0,0,1,1.9-.387,3.759,3.759,0,0,1,2.575.822,2.964,2.964,0,0,1,.967,2.263v4.377a5.351,5.351,0,0,0,.334,2.083V17Zm-2.7-1.239a2.858,2.858,0,0,0,1.45-.4,2.392,2.392,0,0,0,.993-1.028V12.386H81.684q-2.988,0-2.988,1.749a1.48,1.48,0,0,0,.51,1.2A1.959,1.959,0,0,0,80.515,15.761Zm14.669-3.41a5.654,5.654,0,0,1-1,3.5,3.2,3.2,0,0,1-2.689,1.323A3.315,3.315,0,0,1,88.706,15.9L88.627,17H87.133V3.5h1.626V8.536a3.3,3.3,0,0,1,2.716-1.222,3.221,3.221,0,0,1,2.72,1.31,5.824,5.824,0,0,1,.989,3.586Zm-1.626-.185A4.394,4.394,0,0,0,92.916,9.6a2.124,2.124,0,0,0-1.846-.905,2.387,2.387,0,0,0-2.312,1.494V14.3A2.454,2.454,0,0,0,91.088,15.8a2.112,2.112,0,0,0,1.819-.905A4.672,4.672,0,0,0,93.558,12.166ZM99,17H97.372V3.5H99Zm6.548.176a4.155,4.155,0,0,1-3.146-1.27,4.714,4.714,0,0,1-1.213-3.4v-.3a5.707,5.707,0,0,1,.541-2.527,4.217,4.217,0,0,1,1.512-1.74,3.8,3.8,0,0,1,2.1-.628,3.562,3.562,0,0,1,2.883,1.222,5.289,5.289,0,0,1,1.028,3.5v.677h-6.442a3.38,3.38,0,0,0,.822,2.272,2.583,2.583,0,0,0,2,.866,2.832,2.832,0,0,0,1.459-.352,3.666,3.666,0,0,0,1.046-.932l.993.773A3.993,3.993,0,0,1,105.546,17.176Zm-.2-8.525a2.169,2.169,0,0,0-1.652.716,3.482,3.482,0,0,0-.826,2.008h4.764v-.123a3.1,3.1,0,0,0-.668-1.92A2.042,2.042,0,0,0,105.344,8.65Zm11.329,5.827a1.2,1.2,0,0,0-.5-1.024,4.78,4.78,0,0,0-1.731-.628,8.186,8.186,0,0,1-1.96-.633,2.788,2.788,0,0,1-1.072-.879,2.1,2.1,0,0,1-.347-1.213,2.467,2.467,0,0,1,.989-1.978,3.861,3.861,0,0,1,2.527-.809,3.974,3.974,0,0,1,2.624.835,2.652,2.652,0,0,1,1.006,2.136h-1.635a1.468,1.468,0,0,0-.567-1.151,2.124,2.124,0,0,0-1.428-.483,2.223,2.223,0,0,0-1.389.387,1.217,1.217,0,0,0-.5,1.011.986.986,0,0,0,.466.888,5.731,5.731,0,0,0,1.683.571,8.77,8.77,0,0,1,1.973.65,2.878,2.878,0,0,1,1.121.91,2.237,2.237,0,0,1,.365,1.3,2.434,2.434,0,0,1-1.02,2.043,4.277,4.277,0,0,1-2.646.769,4.789,4.789,0,0,1-2.021-.4,3.288,3.288,0,0,1-1.375-1.129,2.722,2.722,0,0,1-.5-1.569h1.626a1.683,1.683,0,0,0,.655,1.3,2.54,2.54,0,0,0,1.613.479,2.622,2.622,0,0,0,1.481-.374A1.148,1.148,0,0,0,116.673,14.478ZM35.849,37.166a5.589,5.589,0,0,1,1.028-3.538,3.545,3.545,0,0,1,5.44-.083L42.4,32.49h1.485v9.281a3.869,3.869,0,0,1-1.094,2.909,4.038,4.038,0,0,1-2.94,1.063,4.891,4.891,0,0,1-2.013-.439,3.465,3.465,0,0,1-1.5-1.2l.844-.976a3.18,3.18,0,0,0,2.558,1.292,2.491,2.491,0,0,0,1.85-.668,2.553,2.553,0,0,0,.664-1.881v-.817a3.342,3.342,0,0,1-2.663,1.125,3.248,3.248,0,0,1-2.7-1.345A5.876,5.876,0,0,1,35.849,37.166Zm1.635.185a4.264,4.264,0,0,0,.659,2.527,2.142,2.142,0,0,0,1.846.918,2.382,2.382,0,0,0,2.259-1.4V35.057a2.41,2.41,0,0,0-2.241-1.362,2.161,2.161,0,0,0-1.854.923A4.644,4.644,0,0,0,37.483,37.351Zm12.8,4.825a4.155,4.155,0,0,1-3.146-1.27,4.714,4.714,0,0,1-1.213-3.4v-.3a5.707,5.707,0,0,1,.541-2.527,4.217,4.217,0,0,1,1.512-1.74,3.8,3.8,0,0,1,2.1-.628,3.562,3.562,0,0,1,2.883,1.222,5.289,5.289,0,0,1,1.028,3.5v.677H47.547a3.38,3.38,0,0,0,.822,2.272,2.583,2.583,0,0,0,2,.866,2.832,2.832,0,0,0,1.459-.352,3.666,3.666,0,0,0,1.046-.932l.993.773A3.993,3.993,0,0,1,50.28,42.176Zm-.2-8.525a2.169,2.169,0,0,0-1.652.716,3.482,3.482,0,0,0-.826,2.008h4.764v-.123a3.1,3.1,0,0,0-.668-1.92A2.042,2.042,0,0,0,50.078,33.65Zm5.361,3.507a5.617,5.617,0,0,1,.549-2.514,4.1,4.1,0,0,1,1.529-1.723,4.163,4.163,0,0,1,2.237-.606A4.01,4.01,0,0,1,62.9,33.659a5.174,5.174,0,0,1,1.2,3.577v.114a5.666,5.666,0,0,1-.532,2.492,4.038,4.038,0,0,1-1.521,1.718,4.211,4.211,0,0,1-2.272.615,4,4,0,0,1-3.133-1.345,5.147,5.147,0,0,1-1.2-3.56Zm1.635.193a4.068,4.068,0,0,0,.734,2.54,2.487,2.487,0,0,0,3.933-.013,4.449,4.449,0,0,0,.729-2.72,4.061,4.061,0,0,0-.743-2.536,2.361,2.361,0,0,0-1.973-.971,2.335,2.335,0,0,0-1.942.958A4.416,4.416,0,0,0,57.074,37.351Zm8.675-.185a5.589,5.589,0,0,1,1.028-3.538,3.545,3.545,0,0,1,5.44-.083L72.3,32.49h1.485v9.281a3.869,3.869,0,0,1-1.094,2.909,4.038,4.038,0,0,1-2.94,1.063,4.891,4.891,0,0,1-2.013-.439,3.465,3.465,0,0,1-1.5-1.2l.844-.976a3.18,3.18,0,0,0,2.558,1.292,2.491,2.491,0,0,0,1.85-.668,2.553,2.553,0,0,0,.664-1.881v-.817a3.342,3.342,0,0,1-2.663,1.125,3.248,3.248,0,0,1-2.7-1.345A5.876,5.876,0,0,1,65.749,37.166Zm1.635.185a4.264,4.264,0,0,0,.659,2.527,2.142,2.142,0,0,0,1.846.918,2.382,2.382,0,0,0,2.259-1.4V35.057a2.41,2.41,0,0,0-2.241-1.362,2.161,2.161,0,0,0-1.854.923A4.644,4.644,0,0,0,67.384,37.351Zm13.447-3.4a4.873,4.873,0,0,0-.8-.062A2.143,2.143,0,0,0,77.86,35.25V42H76.234V32.49h1.582l.026,1.1a2.532,2.532,0,0,1,2.268-1.274,1.661,1.661,0,0,1,.721.123ZM87.845,42a3.416,3.416,0,0,1-.229-1,3.628,3.628,0,0,1-2.707,1.178,3.357,3.357,0,0,1-2.307-.8,2.573,2.573,0,0,1-.9-2.017,2.688,2.688,0,0,1,1.129-2.307,5.325,5.325,0,0,1,3.177-.822H87.59v-.747a1.826,1.826,0,0,0-.51-1.358,2.049,2.049,0,0,0-1.5-.505,2.371,2.371,0,0,0-1.459.439,1.3,1.3,0,0,0-.589,1.063H81.895a2.244,2.244,0,0,1,.505-1.375,3.449,3.449,0,0,1,1.371-1.05,4.613,4.613,0,0,1,1.9-.387,3.759,3.759,0,0,1,2.575.822,2.964,2.964,0,0,1,.967,2.263v4.377a5.351,5.351,0,0,0,.334,2.083V42Zm-2.7-1.239a2.858,2.858,0,0,0,1.45-.4,2.392,2.392,0,0,0,.993-1.028V37.386H86.315q-2.988,0-2.988,1.749a1.48,1.48,0,0,0,.51,1.2A1.959,1.959,0,0,0,85.146,40.761Zm1.5-12.243h1.969L86.263,31.1l-1.31,0ZM92.31,42V33.747h-1.5V32.49h1.5v-.809a3.3,3.3,0,0,1,.91-2.479,3.528,3.528,0,0,1,2.571-.888,7.741,7.741,0,0,1,2.487.536L98,30.223a5.633,5.633,0,0,0-2.092-.439,2.047,2.047,0,0,0-1.507.47,1.938,1.938,0,0,0-.461,1.411v.826h1.942v1.257H93.944V42Zm6.776,0H97.451V32.49h1.635Zm6.46-1.151a2.342,2.342,0,0,0,1.521-.527A1.855,1.855,0,0,0,107.787,39h1.538a2.949,2.949,0,0,1-.562,1.556,3.7,3.7,0,0,1-1.384,1.178,3.994,3.994,0,0,1-1.833.439,3.918,3.918,0,0,1-3.089-1.3,5.163,5.163,0,0,1-1.147-3.546v-.272a5.725,5.725,0,0,1,.51-2.47,3.883,3.883,0,0,1,1.463-1.679,4.157,4.157,0,0,1,2.254-.6,3.814,3.814,0,0,1,2.659.958,3.424,3.424,0,0,1,1.129,2.487h-1.538a2.241,2.241,0,0,0-.7-1.516,2.174,2.174,0,0,0-1.551-.593,2.276,2.276,0,0,0-1.92.892,4.19,4.19,0,0,0-.681,2.58v.308a4.106,4.106,0,0,0,.677,2.531A2.287,2.287,0,0,0,105.546,40.849ZM117.024,42a3.416,3.416,0,0,1-.229-1,3.628,3.628,0,0,1-2.707,1.178,3.357,3.357,0,0,1-2.307-.8,2.573,2.573,0,0,1-.9-2.017,2.688,2.688,0,0,1,1.129-2.307,5.325,5.325,0,0,1,3.177-.822h1.582v-.747a1.826,1.826,0,0,0-.51-1.358,2.049,2.049,0,0,0-1.5-.505,2.371,2.371,0,0,0-1.459.439,1.3,1.3,0,0,0-.589,1.063h-1.635a2.244,2.244,0,0,1,.505-1.375,3.449,3.449,0,0,1,1.371-1.05,4.613,4.613,0,0,1,1.9-.387,3.759,3.759,0,0,1,2.575.822A2.964,2.964,0,0,1,118.4,35.4v4.377a5.351,5.351,0,0,0,.334,2.083V42Zm-2.7-1.239a2.858,2.858,0,0,0,1.45-.4,2.392,2.392,0,0,0,.993-1.028V37.386H115.5q-2.988,0-2.988,1.749a1.48,1.48,0,0,0,.51,1.2A1.959,1.959,0,0,0,114.326,40.761Zm12.155-1.283a1.2,1.2,0,0,0-.5-1.024,4.78,4.78,0,0,0-1.731-.628,8.186,8.186,0,0,1-1.96-.633,2.788,2.788,0,0,1-1.072-.879,2.1,2.1,0,0,1-.347-1.213,2.467,2.467,0,0,1,.989-1.978,3.861,3.861,0,0,1,2.527-.809,3.974,3.974,0,0,1,2.624.835,2.652,2.652,0,0,1,1.006,2.136h-1.635a1.468,1.468,0,0,0-.567-1.151,2.124,2.124,0,0,0-1.428-.483,2.223,2.223,0,0,0-1.389.387,1.217,1.217,0,0,0-.5,1.011.986.986,0,0,0,.466.888,5.731,5.731,0,0,0,1.683.571,8.77,8.77,0,0,1,1.973.65,2.878,2.878,0,0,1,1.121.91,2.237,2.237,0,0,1,.365,1.3,2.434,2.434,0,0,1-1.02,2.043,4.277,4.277,0,0,1-2.646.769,4.789,4.789,0,0,1-2.021-.4,3.288,3.288,0,0,1-1.375-1.129,2.722,2.722,0,0,1-.5-1.569h1.626a1.683,1.683,0,0,0,.655,1.3,2.54,2.54,0,0,0,1.613.479,2.622,2.622,0,0,0,1.481-.374A1.148,1.148,0,0,0,126.481,39.478Z" transform="translate(515.05 758.635)" fill="#12263f"/>
    <path id="Trazado_149169" data-name="Trazado 149169" d="M30.036,14.759,33.692,4.2h1.846L30.792,17H29.3L24.56,4.2H26.4ZM42.463,17a3.416,3.416,0,0,1-.229-1,3.628,3.628,0,0,1-2.707,1.178,3.357,3.357,0,0,1-2.307-.8,2.573,2.573,0,0,1-.9-2.017,2.688,2.688,0,0,1,1.129-2.307,5.325,5.325,0,0,1,3.177-.822h1.582v-.747a1.826,1.826,0,0,0-.51-1.358,2.049,2.049,0,0,0-1.5-.505,2.371,2.371,0,0,0-1.459.439,1.3,1.3,0,0,0-.589,1.063H36.513a2.244,2.244,0,0,1,.505-1.375A3.449,3.449,0,0,1,38.39,7.7a4.613,4.613,0,0,1,1.9-.387,3.759,3.759,0,0,1,2.575.822,2.964,2.964,0,0,1,.967,2.263v4.377a5.351,5.351,0,0,0,.334,2.083V17Zm-2.7-1.239a2.858,2.858,0,0,0,1.45-.4,2.392,2.392,0,0,0,.993-1.028V12.386H40.934q-2.988,0-2.988,1.749a1.48,1.48,0,0,0,.51,1.2A1.959,1.959,0,0,0,39.765,15.761ZM50.98,8.949a4.873,4.873,0,0,0-.8-.062,2.143,2.143,0,0,0-2.171,1.362V17H46.383V7.49h1.582l.026,1.1a2.532,2.532,0,0,1,2.268-1.274,1.661,1.661,0,0,1,.721.123ZM54.241,17H52.615V7.49h1.626ZM52.483,4.968a.971.971,0,0,1,.242-.668.907.907,0,0,1,.716-.272.922.922,0,0,1,.721.272.96.96,0,0,1,.246.668.929.929,0,0,1-.246.659.938.938,0,0,1-.721.264.924.924,0,0,1-.716-.264A.938.938,0,0,1,52.483,4.968ZM62.713,17a3.416,3.416,0,0,1-.229-1,3.628,3.628,0,0,1-2.707,1.178,3.357,3.357,0,0,1-2.307-.8,2.573,2.573,0,0,1-.9-2.017A2.688,2.688,0,0,1,57.7,12.056a5.325,5.325,0,0,1,3.177-.822h1.582v-.747a1.826,1.826,0,0,0-.51-1.358,2.049,2.049,0,0,0-1.5-.505,2.371,2.371,0,0,0-1.459.439,1.3,1.3,0,0,0-.589,1.063H56.763a2.244,2.244,0,0,1,.505-1.375A3.449,3.449,0,0,1,58.64,7.7a4.613,4.613,0,0,1,1.9-.387,3.759,3.759,0,0,1,2.575.822,2.964,2.964,0,0,1,.967,2.263v4.377a5.351,5.351,0,0,0,.334,2.083V17Zm-2.7-1.239a2.858,2.858,0,0,0,1.45-.4,2.392,2.392,0,0,0,.993-1.028V12.386H61.184q-2.988,0-2.988,1.749a1.48,1.48,0,0,0,.51,1.2A1.959,1.959,0,0,0,60.015,15.761Zm14.669-3.41a5.654,5.654,0,0,1-1,3.5,3.2,3.2,0,0,1-2.689,1.323A3.315,3.315,0,0,1,68.207,15.9L68.127,17H66.633V3.5h1.626V8.536a3.3,3.3,0,0,1,2.716-1.222,3.221,3.221,0,0,1,2.72,1.31,5.824,5.824,0,0,1,.989,3.586Zm-1.626-.185A4.394,4.394,0,0,0,72.417,9.6a2.124,2.124,0,0,0-1.846-.905,2.387,2.387,0,0,0-2.312,1.494V14.3A2.454,2.454,0,0,0,70.588,15.8a2.112,2.112,0,0,0,1.819-.905A4.672,4.672,0,0,0,73.058,12.166ZM78.5,17H76.873V3.5H78.5Zm6.548.176a4.155,4.155,0,0,1-3.146-1.27,4.714,4.714,0,0,1-1.213-3.4v-.3a5.707,5.707,0,0,1,.541-2.527,4.217,4.217,0,0,1,1.512-1.74,3.8,3.8,0,0,1,2.1-.628,3.562,3.562,0,0,1,2.883,1.222,5.289,5.289,0,0,1,1.028,3.5v.677H82.313a3.38,3.38,0,0,0,.822,2.272,2.583,2.583,0,0,0,2,.866,2.832,2.832,0,0,0,1.459-.352,3.666,3.666,0,0,0,1.046-.932l.993.773A3.993,3.993,0,0,1,85.046,17.176Zm-.2-8.525a2.169,2.169,0,0,0-1.652.716,3.482,3.482,0,0,0-.826,2.008h4.764v-.123a3.1,3.1,0,0,0-.668-1.92A2.042,2.042,0,0,0,84.844,8.65Zm11.329,5.827a1.2,1.2,0,0,0-.5-1.024,4.78,4.78,0,0,0-1.731-.628,8.186,8.186,0,0,1-1.96-.633,2.788,2.788,0,0,1-1.072-.879,2.1,2.1,0,0,1-.347-1.213,2.467,2.467,0,0,1,.989-1.978,3.861,3.861,0,0,1,2.527-.809,3.974,3.974,0,0,1,2.624.835,2.652,2.652,0,0,1,1.006,2.136H96.077a1.468,1.468,0,0,0-.567-1.151,2.124,2.124,0,0,0-1.428-.483,2.223,2.223,0,0,0-1.389.387,1.217,1.217,0,0,0-.5,1.011.986.986,0,0,0,.466.888,5.731,5.731,0,0,0,1.683.571,8.77,8.77,0,0,1,1.973.65,2.878,2.878,0,0,1,1.121.91,2.237,2.237,0,0,1,.365,1.3,2.434,2.434,0,0,1-1.02,2.043,4.277,4.277,0,0,1-2.646.769,4.789,4.789,0,0,1-2.021-.4,3.288,3.288,0,0,1-1.375-1.129,2.722,2.722,0,0,1-.5-1.569h1.626a1.683,1.683,0,0,0,.655,1.3,2.54,2.54,0,0,0,1.613.479,2.622,2.622,0,0,0,1.481-.374A1.148,1.148,0,0,0,96.173,14.478ZM20.249,37.351a5.694,5.694,0,0,1-.993,3.5,3.183,3.183,0,0,1-2.689,1.327,3.488,3.488,0,0,1-2.725-1.1v4.579H12.216V32.49H13.7l.079,1.055a3.35,3.35,0,0,1,2.76-1.23,3.243,3.243,0,0,1,2.711,1.292,5.756,5.756,0,0,1,1,3.595Zm-1.626-.185a4.2,4.2,0,0,0-.686-2.54,2.208,2.208,0,0,0-1.881-.932A2.39,2.39,0,0,0,13.842,35v4.544a2.4,2.4,0,0,0,2.232,1.3,2.2,2.2,0,0,0,1.859-.927A4.587,4.587,0,0,0,18.623,37.166Zm9.229,2.312a1.2,1.2,0,0,0-.5-1.024,4.78,4.78,0,0,0-1.731-.628,8.186,8.186,0,0,1-1.96-.633,2.788,2.788,0,0,1-1.072-.879,2.1,2.1,0,0,1-.347-1.213,2.467,2.467,0,0,1,.989-1.978,3.861,3.861,0,0,1,2.527-.809,3.974,3.974,0,0,1,2.624.835,2.652,2.652,0,0,1,1.006,2.136H27.755a1.468,1.468,0,0,0-.567-1.151,2.124,2.124,0,0,0-1.428-.483,2.223,2.223,0,0,0-1.389.387,1.217,1.217,0,0,0-.5,1.011.986.986,0,0,0,.466.888,5.731,5.731,0,0,0,1.683.571,8.77,8.77,0,0,1,1.973.65,2.878,2.878,0,0,1,1.121.91,2.237,2.237,0,0,1,.365,1.3,2.434,2.434,0,0,1-1.02,2.043,4.277,4.277,0,0,1-2.646.769,4.789,4.789,0,0,1-2.021-.4,3.288,3.288,0,0,1-1.375-1.129,2.722,2.722,0,0,1-.5-1.569h1.626a1.683,1.683,0,0,0,.655,1.3,2.54,2.54,0,0,0,1.613.479,2.622,2.622,0,0,0,1.481-.374A1.148,1.148,0,0,0,27.852,39.478ZM33.362,42H31.736V32.49h1.626ZM31.6,29.968a.971.971,0,0,1,.242-.668.907.907,0,0,1,.716-.272.922.922,0,0,1,.721.272.96.96,0,0,1,.246.668.929.929,0,0,1-.246.659.938.938,0,0,1-.721.264.924.924,0,0,1-.716-.264A.938.938,0,0,1,31.6,29.968Zm8.174,10.881a2.342,2.342,0,0,0,1.521-.527A1.855,1.855,0,0,0,42.02,39h1.538A2.949,2.949,0,0,1,43,40.559a3.7,3.7,0,0,1-1.384,1.178,3.994,3.994,0,0,1-1.833.439,3.918,3.918,0,0,1-3.089-1.3,5.163,5.163,0,0,1-1.147-3.546v-.272a5.725,5.725,0,0,1,.51-2.47,3.883,3.883,0,0,1,1.463-1.679,4.157,4.157,0,0,1,2.254-.6,3.814,3.814,0,0,1,2.659.958,3.424,3.424,0,0,1,1.129,2.487H42.02a2.241,2.241,0,0,0-.7-1.516,2.174,2.174,0,0,0-1.551-.593,2.276,2.276,0,0,0-1.92.892,4.19,4.19,0,0,0-.681,2.58v.308a4.106,4.106,0,0,0,.677,2.531A2.287,2.287,0,0,0,39.778,40.849Zm5.177-3.691a5.617,5.617,0,0,1,.549-2.514,4.1,4.1,0,0,1,1.529-1.723,4.163,4.163,0,0,1,2.237-.606,4.01,4.01,0,0,1,3.142,1.345,5.174,5.174,0,0,1,1.2,3.577v.114a5.666,5.666,0,0,1-.532,2.492,4.038,4.038,0,0,1-1.521,1.718,4.211,4.211,0,0,1-2.272.615,4,4,0,0,1-3.133-1.345,5.147,5.147,0,0,1-1.2-3.56Zm1.635.193a4.068,4.068,0,0,0,.734,2.54,2.487,2.487,0,0,0,3.933-.013,4.449,4.449,0,0,0,.729-2.72,4.061,4.061,0,0,0-.743-2.536,2.361,2.361,0,0,0-1.973-.971,2.335,2.335,0,0,0-1.942.958A4.416,4.416,0,0,0,46.59,37.351ZM57.418,42H55.792V28.5h1.626Zm2.171-4.843a5.617,5.617,0,0,1,.549-2.514,4.1,4.1,0,0,1,1.529-1.723,4.163,4.163,0,0,1,2.237-.606,4.01,4.01,0,0,1,3.142,1.345,5.174,5.174,0,0,1,1.2,3.577v.114a5.666,5.666,0,0,1-.532,2.492,4.038,4.038,0,0,1-1.521,1.718,4.211,4.211,0,0,1-2.272.615,4,4,0,0,1-3.133-1.345,5.147,5.147,0,0,1-1.2-3.56Zm1.635.193a4.068,4.068,0,0,0,.734,2.54,2.487,2.487,0,0,0,3.933-.013,4.449,4.449,0,0,0,.729-2.72,4.061,4.061,0,0,0-.743-2.536A2.361,2.361,0,0,0,63.9,33.65a2.335,2.335,0,0,0-1.942.958A4.416,4.416,0,0,0,61.224,37.351Zm3.419-8.833h1.969L64.256,31.1l-1.31,0ZM69.9,37.166a5.589,5.589,0,0,1,1.028-3.538,3.545,3.545,0,0,1,5.44-.083l.079-1.055h1.485v9.281a3.869,3.869,0,0,1-1.094,2.909,4.038,4.038,0,0,1-2.94,1.063,4.891,4.891,0,0,1-2.013-.439,3.465,3.465,0,0,1-1.5-1.2l.844-.976a3.18,3.18,0,0,0,2.558,1.292,2.491,2.491,0,0,0,1.85-.668,2.553,2.553,0,0,0,.664-1.881v-.817a3.342,3.342,0,0,1-2.663,1.125,3.248,3.248,0,0,1-2.7-1.345A5.876,5.876,0,0,1,69.9,37.166Zm1.635.185a4.264,4.264,0,0,0,.659,2.527,2.142,2.142,0,0,0,1.846.918A2.382,2.382,0,0,0,76.3,39.4V35.057a2.41,2.41,0,0,0-2.241-1.362,2.161,2.161,0,0,0-1.854.923A4.644,4.644,0,0,0,71.533,37.351ZM82.15,42H80.524V32.49H82.15ZM80.393,29.968a.971.971,0,0,1,.242-.668.907.907,0,0,1,.716-.272.922.922,0,0,1,.721.272.96.96,0,0,1,.246.668.929.929,0,0,1-.246.659.938.938,0,0,1-.721.264.924.924,0,0,1-.716-.264A.938.938,0,0,1,80.393,29.968Zm8.174,10.881a2.342,2.342,0,0,0,1.521-.527A1.855,1.855,0,0,0,90.808,39h1.538a2.949,2.949,0,0,1-.562,1.556A3.7,3.7,0,0,1,90.4,41.736a3.994,3.994,0,0,1-1.833.439,3.918,3.918,0,0,1-3.089-1.3,5.163,5.163,0,0,1-1.147-3.546v-.272a5.725,5.725,0,0,1,.51-2.47A3.883,3.883,0,0,1,86.3,32.912a4.157,4.157,0,0,1,2.254-.6,3.814,3.814,0,0,1,2.659.958,3.424,3.424,0,0,1,1.129,2.487H90.808a2.241,2.241,0,0,0-.7-1.516,2.174,2.174,0,0,0-1.551-.593,2.276,2.276,0,0,0-1.92.892,4.19,4.19,0,0,0-.681,2.58v.308a4.106,4.106,0,0,0,.677,2.531A2.287,2.287,0,0,0,88.566,40.849ZM100.045,42a3.416,3.416,0,0,1-.229-1,3.628,3.628,0,0,1-2.707,1.178,3.357,3.357,0,0,1-2.307-.8,2.573,2.573,0,0,1-.9-2.017,2.688,2.688,0,0,1,1.129-2.307,5.325,5.325,0,0,1,3.177-.822H99.79v-.747a1.826,1.826,0,0,0-.51-1.358,2.049,2.049,0,0,0-1.5-.505,2.371,2.371,0,0,0-1.459.439,1.3,1.3,0,0,0-.589,1.063H94.095a2.244,2.244,0,0,1,.505-1.375,3.449,3.449,0,0,1,1.371-1.05,4.613,4.613,0,0,1,1.9-.387,3.759,3.759,0,0,1,2.575.822,2.964,2.964,0,0,1,.967,2.263v4.377a5.351,5.351,0,0,0,.334,2.083V42Zm-2.7-1.239a2.858,2.858,0,0,0,1.45-.4,2.392,2.392,0,0,0,.993-1.028V37.386H98.516q-2.988,0-2.988,1.749a1.48,1.48,0,0,0,.51,1.2A1.959,1.959,0,0,0,97.347,40.761ZM109.5,39.478a1.2,1.2,0,0,0-.5-1.024,4.78,4.78,0,0,0-1.731-.628,8.186,8.186,0,0,1-1.96-.633,2.788,2.788,0,0,1-1.072-.879,2.1,2.1,0,0,1-.347-1.213,2.467,2.467,0,0,1,.989-1.978,3.861,3.861,0,0,1,2.527-.809,3.974,3.974,0,0,1,2.624.835,2.652,2.652,0,0,1,1.006,2.136h-1.635a1.468,1.468,0,0,0-.567-1.151,2.124,2.124,0,0,0-1.428-.483,2.223,2.223,0,0,0-1.389.387,1.217,1.217,0,0,0-.5,1.011.986.986,0,0,0,.466.888,5.731,5.731,0,0,0,1.683.571,8.77,8.77,0,0,1,1.973.65,2.878,2.878,0,0,1,1.121.91,2.237,2.237,0,0,1,.365,1.3,2.434,2.434,0,0,1-1.02,2.043,4.277,4.277,0,0,1-2.646.769,4.789,4.789,0,0,1-2.021-.4,3.288,3.288,0,0,1-1.375-1.129,2.722,2.722,0,0,1-.5-1.569H105.2a1.683,1.683,0,0,0,.655,1.3,2.54,2.54,0,0,0,1.613.479,2.622,2.622,0,0,0,1.481-.374A1.148,1.148,0,0,0,109.5,39.478Z" transform="translate(738.5 716.635)" fill="#12263f"/>
    <path id="Trazado_149170" data-name="Trazado 149170" d="M50.535,14.759,54.191,4.2h1.846L51.291,17H49.8L45.06,4.2H46.9ZM62.963,17a3.416,3.416,0,0,1-.229-1,3.628,3.628,0,0,1-2.707,1.178,3.357,3.357,0,0,1-2.307-.8,2.573,2.573,0,0,1-.9-2.017,2.688,2.688,0,0,1,1.129-2.307,5.325,5.325,0,0,1,3.177-.822h1.582v-.747a1.826,1.826,0,0,0-.51-1.358,2.049,2.049,0,0,0-1.5-.505,2.371,2.371,0,0,0-1.459.439,1.3,1.3,0,0,0-.589,1.063H57.013a2.244,2.244,0,0,1,.505-1.375A3.449,3.449,0,0,1,58.889,7.7a4.613,4.613,0,0,1,1.9-.387,3.759,3.759,0,0,1,2.575.822,2.964,2.964,0,0,1,.967,2.263v4.377a5.351,5.351,0,0,0,.334,2.083V17Zm-2.7-1.239a2.858,2.858,0,0,0,1.45-.4,2.392,2.392,0,0,0,.993-1.028V12.386H61.434q-2.988,0-2.988,1.749a1.48,1.48,0,0,0,.51,1.2A1.959,1.959,0,0,0,60.265,15.761ZM71.479,8.949a4.873,4.873,0,0,0-.8-.062,2.143,2.143,0,0,0-2.171,1.362V17H66.883V7.49h1.582l.026,1.1a2.532,2.532,0,0,1,2.268-1.274,1.661,1.661,0,0,1,.721.123ZM74.74,17H73.114V7.49H74.74ZM72.982,4.968a.971.971,0,0,1,.242-.668.907.907,0,0,1,.716-.272.922.922,0,0,1,.721.272.96.96,0,0,1,.246.668.929.929,0,0,1-.246.659.938.938,0,0,1-.721.264.924.924,0,0,1-.716-.264A.938.938,0,0,1,72.982,4.968ZM83.213,17a3.416,3.416,0,0,1-.229-1,3.628,3.628,0,0,1-2.707,1.178,3.357,3.357,0,0,1-2.307-.8,2.573,2.573,0,0,1-.9-2.017A2.688,2.688,0,0,1,78.2,12.056a5.325,5.325,0,0,1,3.177-.822h1.582v-.747a1.826,1.826,0,0,0-.51-1.358,2.049,2.049,0,0,0-1.5-.505,2.371,2.371,0,0,0-1.459.439,1.3,1.3,0,0,0-.589,1.063H77.263a2.244,2.244,0,0,1,.505-1.375A3.449,3.449,0,0,1,79.139,7.7a4.613,4.613,0,0,1,1.9-.387,3.759,3.759,0,0,1,2.575.822,2.964,2.964,0,0,1,.967,2.263v4.377a5.351,5.351,0,0,0,.334,2.083V17Zm-2.7-1.239a2.858,2.858,0,0,0,1.45-.4,2.392,2.392,0,0,0,.993-1.028V12.386H81.684q-2.988,0-2.988,1.749a1.48,1.48,0,0,0,.51,1.2A1.959,1.959,0,0,0,80.515,15.761Zm14.669-3.41a5.654,5.654,0,0,1-1,3.5,3.2,3.2,0,0,1-2.689,1.323A3.315,3.315,0,0,1,88.706,15.9L88.627,17H87.133V3.5h1.626V8.536a3.3,3.3,0,0,1,2.716-1.222,3.221,3.221,0,0,1,2.72,1.31,5.824,5.824,0,0,1,.989,3.586Zm-1.626-.185A4.394,4.394,0,0,0,92.916,9.6a2.124,2.124,0,0,0-1.846-.905,2.387,2.387,0,0,0-2.312,1.494V14.3A2.454,2.454,0,0,0,91.088,15.8a2.112,2.112,0,0,0,1.819-.905A4.672,4.672,0,0,0,93.558,12.166ZM99,17H97.372V3.5H99Zm6.548.176a4.155,4.155,0,0,1-3.146-1.27,4.714,4.714,0,0,1-1.213-3.4v-.3a5.707,5.707,0,0,1,.541-2.527,4.217,4.217,0,0,1,1.512-1.74,3.8,3.8,0,0,1,2.1-.628,3.562,3.562,0,0,1,2.883,1.222,5.289,5.289,0,0,1,1.028,3.5v.677h-6.442a3.38,3.38,0,0,0,.822,2.272,2.583,2.583,0,0,0,2,.866,2.832,2.832,0,0,0,1.459-.352,3.666,3.666,0,0,0,1.046-.932l.993.773A3.993,3.993,0,0,1,105.546,17.176Zm-.2-8.525a2.169,2.169,0,0,0-1.652.716,3.482,3.482,0,0,0-.826,2.008h4.764v-.123a3.1,3.1,0,0,0-.668-1.92A2.042,2.042,0,0,0,105.344,8.65Zm11.329,5.827a1.2,1.2,0,0,0-.5-1.024,4.78,4.78,0,0,0-1.731-.628,8.186,8.186,0,0,1-1.96-.633,2.788,2.788,0,0,1-1.072-.879,2.1,2.1,0,0,1-.347-1.213,2.467,2.467,0,0,1,.989-1.978,3.861,3.861,0,0,1,2.527-.809,3.974,3.974,0,0,1,2.624.835,2.652,2.652,0,0,1,1.006,2.136h-1.635a1.468,1.468,0,0,0-.567-1.151,2.124,2.124,0,0,0-1.428-.483,2.223,2.223,0,0,0-1.389.387,1.217,1.217,0,0,0-.5,1.011.986.986,0,0,0,.466.888,5.731,5.731,0,0,0,1.683.571,8.77,8.77,0,0,1,1.973.65,2.878,2.878,0,0,1,1.121.91,2.237,2.237,0,0,1,.365,1.3,2.434,2.434,0,0,1-1.02,2.043,4.277,4.277,0,0,1-2.646.769,4.789,4.789,0,0,1-2.021-.4,3.288,3.288,0,0,1-1.375-1.129,2.722,2.722,0,0,1-.5-1.569h1.626a1.683,1.683,0,0,0,.655,1.3,2.54,2.54,0,0,0,1.613.479,2.622,2.622,0,0,0,1.481-.374A1.148,1.148,0,0,0,116.673,14.478ZM33.1,40.849a2.342,2.342,0,0,0,1.521-.527A1.855,1.855,0,0,0,35.339,39h1.538a2.949,2.949,0,0,1-.562,1.556,3.7,3.7,0,0,1-1.384,1.178,3.994,3.994,0,0,1-1.833.439,3.918,3.918,0,0,1-3.089-1.3,5.163,5.163,0,0,1-1.147-3.546v-.272a5.725,5.725,0,0,1,.51-2.47,3.883,3.883,0,0,1,1.463-1.679,4.157,4.157,0,0,1,2.254-.6,3.814,3.814,0,0,1,2.659.958,3.424,3.424,0,0,1,1.129,2.487H35.339a2.241,2.241,0,0,0-.7-1.516,2.174,2.174,0,0,0-1.551-.593,2.276,2.276,0,0,0-1.92.892,4.19,4.19,0,0,0-.681,2.58v.308a4.106,4.106,0,0,0,.677,2.531A2.287,2.287,0,0,0,33.1,40.849Zm5.177-3.691a5.617,5.617,0,0,1,.549-2.514,4.1,4.1,0,0,1,1.529-1.723,4.163,4.163,0,0,1,2.237-.606,4.01,4.01,0,0,1,3.142,1.345,5.174,5.174,0,0,1,1.2,3.577v.114a5.666,5.666,0,0,1-.532,2.492,4.038,4.038,0,0,1-1.521,1.718,4.211,4.211,0,0,1-2.272.615,4,4,0,0,1-3.133-1.345,5.147,5.147,0,0,1-1.2-3.56Zm1.635.193a4.068,4.068,0,0,0,.734,2.54,2.487,2.487,0,0,0,3.933-.013,4.449,4.449,0,0,0,.729-2.72,4.061,4.061,0,0,0-.743-2.536,2.361,2.361,0,0,0-1.973-.971,2.335,2.335,0,0,0-1.942.958A4.416,4.416,0,0,0,39.909,37.351Zm10.6-4.86.053,1.2a3.465,3.465,0,0,1,2.848-1.371q3.015,0,3.041,3.4V42H54.824V35.707a2.189,2.189,0,0,0-.47-1.521,1.884,1.884,0,0,0-1.437-.492,2.347,2.347,0,0,0-1.389.422,2.865,2.865,0,0,0-.932,1.107V42H48.971V32.49Zm8,4.676a5.571,5.571,0,0,1,1.037-3.52,3.529,3.529,0,0,1,5.361-.189V28.5h1.626V42H65.037l-.079-1.02a3.311,3.311,0,0,1-2.716,1.2,3.248,3.248,0,0,1-2.694-1.354,5.634,5.634,0,0,1-1.042-3.533Zm1.626.185a4.218,4.218,0,0,0,.668,2.531,2.159,2.159,0,0,0,1.846.914,2.372,2.372,0,0,0,2.259-1.389V35.039a2.39,2.39,0,0,0-2.241-1.345,2.17,2.17,0,0,0-1.863.923A4.644,4.644,0,0,0,60.133,37.351ZM74.925,41.06a3.454,3.454,0,0,1-2.786,1.116,2.956,2.956,0,0,1-2.316-.883,3.823,3.823,0,0,1-.8-2.615V32.49h1.626v6.144q0,2.162,1.758,2.162a2.434,2.434,0,0,0,2.479-1.389V32.49h1.626V42H74.96Zm7.866-.211a2.342,2.342,0,0,0,1.521-.527A1.855,1.855,0,0,0,85.032,39H86.57a2.949,2.949,0,0,1-.562,1.556,3.7,3.7,0,0,1-1.384,1.178,3.994,3.994,0,0,1-1.833.439,3.918,3.918,0,0,1-3.089-1.3,5.163,5.163,0,0,1-1.147-3.546v-.272a5.725,5.725,0,0,1,.51-2.47,3.883,3.883,0,0,1,1.463-1.679,4.157,4.157,0,0,1,2.254-.6,3.814,3.814,0,0,1,2.659.958A3.424,3.424,0,0,1,86.57,35.76H85.032a2.241,2.241,0,0,0-.7-1.516,2.174,2.174,0,0,0-1.551-.593,2.276,2.276,0,0,0-1.92.892,4.19,4.19,0,0,0-.681,2.58v.308a4.106,4.106,0,0,0,.677,2.531A2.287,2.287,0,0,0,82.791,40.849ZM90.6,30.188v2.3H92.38v1.257H90.6v5.9a1.32,1.32,0,0,0,.237.858,1,1,0,0,0,.809.286,3.937,3.937,0,0,0,.773-.105V42a4.742,4.742,0,0,1-1.248.175,2.025,2.025,0,0,1-1.644-.659,2.832,2.832,0,0,1-.554-1.872v-5.9H87.247V32.49h1.731v-2.3Zm9.545,10.872a3.454,3.454,0,0,1-2.786,1.116,2.956,2.956,0,0,1-2.316-.883,3.823,3.823,0,0,1-.8-2.615V32.49h1.626v6.144q0,2.162,1.758,2.162a2.434,2.434,0,0,0,2.479-1.389V32.49h1.626V42h-1.547Zm9.923.94a3.416,3.416,0,0,1-.229-1,3.628,3.628,0,0,1-2.707,1.178,3.357,3.357,0,0,1-2.307-.8,2.573,2.573,0,0,1-.9-2.017,2.688,2.688,0,0,1,1.129-2.307,5.325,5.325,0,0,1,3.177-.822h1.582v-.747a1.826,1.826,0,0,0-.51-1.358,2.049,2.049,0,0,0-1.5-.505,2.371,2.371,0,0,0-1.459.439,1.3,1.3,0,0,0-.589,1.063h-1.635a2.244,2.244,0,0,1,.505-1.375A3.449,3.449,0,0,1,106,32.7a4.613,4.613,0,0,1,1.9-.387,3.759,3.759,0,0,1,2.575.822,2.964,2.964,0,0,1,.967,2.263v4.377a5.351,5.351,0,0,0,.334,2.083V42Zm-2.7-1.239a2.858,2.858,0,0,0,1.45-.4,2.392,2.392,0,0,0,.993-1.028V37.386h-1.274q-2.988,0-2.988,1.749a1.48,1.48,0,0,0,.51,1.2A1.959,1.959,0,0,0,107.374,40.761ZM115.759,42h-1.626V28.5h1.626Zm6.548.176a4.155,4.155,0,0,1-3.146-1.27,4.714,4.714,0,0,1-1.213-3.4v-.3a5.707,5.707,0,0,1,.541-2.527A4.217,4.217,0,0,1,120,32.943a3.8,3.8,0,0,1,2.1-.628,3.562,3.562,0,0,1,2.883,1.222,5.289,5.289,0,0,1,1.028,3.5v.677h-6.442a3.38,3.38,0,0,0,.822,2.272,2.583,2.583,0,0,0,2,.866,2.832,2.832,0,0,0,1.459-.352,3.666,3.666,0,0,0,1.046-.932l.993.773A3.993,3.993,0,0,1,122.307,42.176Zm-.2-8.525a2.169,2.169,0,0,0-1.652.716,3.482,3.482,0,0,0-.826,2.008h4.764v-.123a3.1,3.1,0,0,0-.668-1.92A2.042,2.042,0,0,0,122.1,33.65Zm11.329,5.827a1.2,1.2,0,0,0-.5-1.024,4.78,4.78,0,0,0-1.731-.628,8.186,8.186,0,0,1-1.96-.633,2.788,2.788,0,0,1-1.072-.879,2.1,2.1,0,0,1-.347-1.213,2.467,2.467,0,0,1,.989-1.978,3.861,3.861,0,0,1,2.527-.809,3.974,3.974,0,0,1,2.624.835,2.652,2.652,0,0,1,1.006,2.136h-1.635a1.468,1.468,0,0,0-.567-1.151,2.124,2.124,0,0,0-1.428-.483,2.223,2.223,0,0,0-1.389.387,1.217,1.217,0,0,0-.5,1.011.986.986,0,0,0,.466.888,5.731,5.731,0,0,0,1.683.571,8.77,8.77,0,0,1,1.973.65,2.878,2.878,0,0,1,1.121.91,2.237,2.237,0,0,1,.365,1.3,2.434,2.434,0,0,1-1.02,2.043,4.277,4.277,0,0,1-2.646.769,4.789,4.789,0,0,1-2.021-.4A3.288,3.288,0,0,1,128,40.642a2.722,2.722,0,0,1-.5-1.569h1.626a1.683,1.683,0,0,0,.655,1.3,2.54,2.54,0,0,0,1.613.479,2.622,2.622,0,0,0,1.481-.374A1.148,1.148,0,0,0,133.434,39.478Z" transform="translate(918 758.635)" fill="#12263f"/>
    <path id="Trazado_149172" data-name="Trazado 149172" d="M26.506,14.759,30.162,4.2h1.846L27.262,17H25.768L21.03,4.2h1.837ZM38.934,17a3.416,3.416,0,0,1-.229-1A3.628,3.628,0,0,1,36,17.176a3.357,3.357,0,0,1-2.307-.8,2.573,2.573,0,0,1-.9-2.017,2.688,2.688,0,0,1,1.129-2.307,5.325,5.325,0,0,1,3.177-.822h1.582v-.747a1.826,1.826,0,0,0-.51-1.358,2.049,2.049,0,0,0-1.5-.505,2.371,2.371,0,0,0-1.459.439,1.3,1.3,0,0,0-.589,1.063H32.983a2.244,2.244,0,0,1,.505-1.375A3.449,3.449,0,0,1,34.86,7.7a4.613,4.613,0,0,1,1.9-.387,3.759,3.759,0,0,1,2.575.822A2.964,2.964,0,0,1,40.3,10.4v4.377a5.351,5.351,0,0,0,.334,2.083V17Zm-2.7-1.239a2.858,2.858,0,0,0,1.45-.4,2.392,2.392,0,0,0,.993-1.028V12.386H37.4q-2.988,0-2.988,1.749a1.48,1.48,0,0,0,.51,1.2A1.959,1.959,0,0,0,36.235,15.761ZM47.45,8.949a4.873,4.873,0,0,0-.8-.062,2.143,2.143,0,0,0-2.171,1.362V17H42.854V7.49h1.582l.026,1.1a2.532,2.532,0,0,1,2.268-1.274,1.661,1.661,0,0,1,.721.123ZM50.711,17H49.085V7.49h1.626ZM48.953,4.968a.971.971,0,0,1,.242-.668.907.907,0,0,1,.716-.272.922.922,0,0,1,.721.272.96.96,0,0,1,.246.668.929.929,0,0,1-.246.659.938.938,0,0,1-.721.264.924.924,0,0,1-.716-.264A.938.938,0,0,1,48.953,4.968ZM59.184,17a3.416,3.416,0,0,1-.229-1,3.628,3.628,0,0,1-2.707,1.178,3.357,3.357,0,0,1-2.307-.8,2.573,2.573,0,0,1-.9-2.017,2.688,2.688,0,0,1,1.129-2.307,5.325,5.325,0,0,1,3.177-.822h1.582v-.747a1.826,1.826,0,0,0-.51-1.358,2.049,2.049,0,0,0-1.5-.505,2.371,2.371,0,0,0-1.459.439,1.3,1.3,0,0,0-.589,1.063H53.233a2.244,2.244,0,0,1,.505-1.375A3.449,3.449,0,0,1,55.11,7.7a4.613,4.613,0,0,1,1.9-.387,3.759,3.759,0,0,1,2.575.822,2.964,2.964,0,0,1,.967,2.263v4.377a5.351,5.351,0,0,0,.334,2.083V17Zm-2.7-1.239a2.858,2.858,0,0,0,1.45-.4,2.392,2.392,0,0,0,.993-1.028V12.386H57.654q-2.988,0-2.988,1.749a1.48,1.48,0,0,0,.51,1.2A1.959,1.959,0,0,0,56.485,15.761Zm14.669-3.41a5.654,5.654,0,0,1-1,3.5,3.2,3.2,0,0,1-2.689,1.323A3.315,3.315,0,0,1,64.677,15.9L64.6,17H63.1V3.5h1.626V8.536a3.3,3.3,0,0,1,2.716-1.222,3.221,3.221,0,0,1,2.72,1.31,5.824,5.824,0,0,1,.989,3.586Zm-1.626-.185A4.394,4.394,0,0,0,68.887,9.6a2.124,2.124,0,0,0-1.846-.905,2.387,2.387,0,0,0-2.312,1.494V14.3A2.454,2.454,0,0,0,67.059,15.8a2.112,2.112,0,0,0,1.819-.905A4.672,4.672,0,0,0,69.528,12.166ZM74.969,17H73.343V3.5h1.626Zm6.548.176a4.155,4.155,0,0,1-3.146-1.27,4.714,4.714,0,0,1-1.213-3.4v-.3A5.707,5.707,0,0,1,77.7,9.683a4.217,4.217,0,0,1,1.512-1.74,3.8,3.8,0,0,1,2.1-.628A3.562,3.562,0,0,1,84.2,8.536a5.289,5.289,0,0,1,1.028,3.5v.677H78.783a3.38,3.38,0,0,0,.822,2.272,2.583,2.583,0,0,0,2,.866,2.832,2.832,0,0,0,1.459-.352,3.666,3.666,0,0,0,1.046-.932l.993.773A3.993,3.993,0,0,1,81.517,17.176Zm-.2-8.525a2.169,2.169,0,0,0-1.652.716,3.482,3.482,0,0,0-.826,2.008H83.6v-.123a3.1,3.1,0,0,0-.668-1.92A2.042,2.042,0,0,0,81.314,8.65Zm11.329,5.827a1.2,1.2,0,0,0-.5-1.024,4.78,4.78,0,0,0-1.731-.628,8.186,8.186,0,0,1-1.96-.633,2.788,2.788,0,0,1-1.072-.879,2.1,2.1,0,0,1-.347-1.213,2.467,2.467,0,0,1,.989-1.978,3.861,3.861,0,0,1,2.527-.809,3.974,3.974,0,0,1,2.624.835,2.652,2.652,0,0,1,1.006,2.136H92.547a1.468,1.468,0,0,0-.567-1.151,2.124,2.124,0,0,0-1.428-.483,2.223,2.223,0,0,0-1.389.387,1.217,1.217,0,0,0-.5,1.011.986.986,0,0,0,.466.888,5.731,5.731,0,0,0,1.683.571,8.77,8.77,0,0,1,1.973.65,2.878,2.878,0,0,1,1.121.91,2.237,2.237,0,0,1,.365,1.3,2.434,2.434,0,0,1-1.02,2.043,4.277,4.277,0,0,1-2.646.769,4.789,4.789,0,0,1-2.021-.4,3.288,3.288,0,0,1-1.375-1.129,2.722,2.722,0,0,1-.5-1.569h1.626a1.683,1.683,0,0,0,.655,1.3,2.54,2.54,0,0,0,1.613.479,2.622,2.622,0,0,0,1.481-.374A1.148,1.148,0,0,0,92.644,14.478Zm13.737,0a1.2,1.2,0,0,0-.5-1.024,4.78,4.78,0,0,0-1.731-.628,8.186,8.186,0,0,1-1.96-.633,2.788,2.788,0,0,1-1.072-.879,2.1,2.1,0,0,1-.347-1.213,2.467,2.467,0,0,1,.989-1.978,3.861,3.861,0,0,1,2.527-.809,3.974,3.974,0,0,1,2.624.835,2.652,2.652,0,0,1,1.006,2.136h-1.635a1.468,1.468,0,0,0-.567-1.151,2.124,2.124,0,0,0-1.428-.483,2.223,2.223,0,0,0-1.389.387,1.217,1.217,0,0,0-.5,1.011.986.986,0,0,0,.466.888,5.731,5.731,0,0,0,1.683.571,8.77,8.77,0,0,1,1.973.65,2.878,2.878,0,0,1,1.121.91,2.237,2.237,0,0,1,.365,1.3,2.434,2.434,0,0,1-1.02,2.043,4.277,4.277,0,0,1-2.646.769,4.789,4.789,0,0,1-2.021-.4,3.288,3.288,0,0,1-1.375-1.129,2.722,2.722,0,0,1-.5-1.569h1.626a1.683,1.683,0,0,0,.655,1.3,2.54,2.54,0,0,0,1.613.479,2.622,2.622,0,0,0,1.481-.374A1.148,1.148,0,0,0,106.381,14.478Zm3.313-2.32a5.617,5.617,0,0,1,.549-2.514,4.1,4.1,0,0,1,1.529-1.723,4.163,4.163,0,0,1,2.237-.606,4.01,4.01,0,0,1,3.142,1.345,5.174,5.174,0,0,1,1.2,3.577v.114a5.666,5.666,0,0,1-.532,2.492,4.038,4.038,0,0,1-1.521,1.718,4.211,4.211,0,0,1-2.272.615,4,4,0,0,1-3.133-1.345,5.147,5.147,0,0,1-1.2-3.56Zm1.635.193a4.068,4.068,0,0,0,.734,2.54A2.487,2.487,0,0,0,116,14.877a4.449,4.449,0,0,0,.729-2.72,4.061,4.061,0,0,0-.743-2.536,2.361,2.361,0,0,0-1.973-.971,2.335,2.335,0,0,0-1.942.958A4.416,4.416,0,0,0,111.329,12.351Zm12.876,3.5a2.342,2.342,0,0,0,1.521-.527A1.855,1.855,0,0,0,126.446,14h1.538a2.949,2.949,0,0,1-.562,1.556,3.7,3.7,0,0,1-1.384,1.178,3.994,3.994,0,0,1-1.833.439,3.918,3.918,0,0,1-3.089-1.3,5.163,5.163,0,0,1-1.147-3.546v-.272a5.725,5.725,0,0,1,.51-2.47,3.883,3.883,0,0,1,1.463-1.679,4.157,4.157,0,0,1,2.254-.6,3.814,3.814,0,0,1,2.659.958,3.424,3.424,0,0,1,1.129,2.487h-1.538a2.241,2.241,0,0,0-.7-1.516A2.174,2.174,0,0,0,124.2,8.65a2.276,2.276,0,0,0-1.92.892,4.19,4.19,0,0,0-.681,2.58v.308a4.106,4.106,0,0,0,.677,2.531A2.287,2.287,0,0,0,124.205,15.849ZM131.579,17h-1.626V7.49h1.626ZM129.821,4.968a.971.971,0,0,1,.242-.668.907.907,0,0,1,.716-.272.922.922,0,0,1,.721.272.96.96,0,0,1,.246.668.929.929,0,0,1-.246.659.938.938,0,0,1-.721.264.924.924,0,0,1-.716-.264A.938.938,0,0,1,129.821,4.968Zm3.929,7.189a5.617,5.617,0,0,1,.549-2.514,4.1,4.1,0,0,1,1.529-1.723,4.163,4.163,0,0,1,2.237-.606,4.01,4.01,0,0,1,3.142,1.345,5.174,5.174,0,0,1,1.2,3.577v.114a5.666,5.666,0,0,1-.532,2.492,4.038,4.038,0,0,1-1.521,1.718,4.211,4.211,0,0,1-2.272.615,4,4,0,0,1-3.133-1.345,5.147,5.147,0,0,1-1.2-3.56Zm1.635.193a4.068,4.068,0,0,0,.734,2.54,2.487,2.487,0,0,0,3.933-.013,4.449,4.449,0,0,0,.729-2.72,4.061,4.061,0,0,0-.743-2.536,2.361,2.361,0,0,0-1.973-.971,2.335,2.335,0,0,0-1.942.958A4.416,4.416,0,0,0,135.385,12.351Zm-87.456,28.5a2.342,2.342,0,0,0,1.521-.527A1.855,1.855,0,0,0,50.17,39h1.538a2.949,2.949,0,0,1-.562,1.556,3.7,3.7,0,0,1-1.384,1.178,3.994,3.994,0,0,1-1.833.439,3.918,3.918,0,0,1-3.089-1.3,5.163,5.163,0,0,1-1.147-3.546v-.272a5.725,5.725,0,0,1,.51-2.47,3.883,3.883,0,0,1,1.463-1.679,4.157,4.157,0,0,1,2.254-.6,3.814,3.814,0,0,1,2.659.958,3.424,3.424,0,0,1,1.129,2.487H50.17a2.241,2.241,0,0,0-.7-1.516,2.174,2.174,0,0,0-1.551-.593,2.276,2.276,0,0,0-1.92.892,4.19,4.19,0,0,0-.681,2.58v.308A4.106,4.106,0,0,0,46,39.961,2.287,2.287,0,0,0,47.929,40.849Zm11.479.211a3.454,3.454,0,0,1-2.786,1.116,2.956,2.956,0,0,1-2.316-.883,3.823,3.823,0,0,1-.8-2.615V32.49h1.626v6.144q0,2.162,1.758,2.162a2.434,2.434,0,0,0,2.479-1.389V32.49H60.99V42H59.443Zm5.818.94H63.6V28.5h1.626Zm4.808-11.812v2.3h1.775v1.257H70.034v5.9a1.32,1.32,0,0,0,.237.858,1,1,0,0,0,.809.286,3.937,3.937,0,0,0,.773-.105V42a4.742,4.742,0,0,1-1.248.175,2.025,2.025,0,0,1-1.644-.659,2.832,2.832,0,0,1-.554-1.872v-5.9H66.676V32.49h1.731v-2.3ZM79.579,41.06a3.454,3.454,0,0,1-2.786,1.116,2.956,2.956,0,0,1-2.316-.883,3.823,3.823,0,0,1-.8-2.615V32.49H75.3v6.144q0,2.162,1.758,2.162a2.434,2.434,0,0,0,2.479-1.389V32.49h1.626V42H79.614Zm8.648-7.11a4.873,4.873,0,0,0-.8-.062,2.143,2.143,0,0,0-2.171,1.362V42H83.63V32.49h1.582l.026,1.1a2.532,2.532,0,0,1,2.268-1.274,1.661,1.661,0,0,1,.721.123ZM95.241,42a3.416,3.416,0,0,1-.229-1,3.628,3.628,0,0,1-2.707,1.178A3.357,3.357,0,0,1,90,41.38a2.573,2.573,0,0,1-.9-2.017,2.688,2.688,0,0,1,1.129-2.307,5.325,5.325,0,0,1,3.177-.822h1.582v-.747a1.826,1.826,0,0,0-.51-1.358,2.049,2.049,0,0,0-1.5-.505,2.371,2.371,0,0,0-1.459.439,1.3,1.3,0,0,0-.589,1.063H89.291a2.244,2.244,0,0,1,.505-1.375,3.449,3.449,0,0,1,1.371-1.05,4.613,4.613,0,0,1,1.9-.387,3.759,3.759,0,0,1,2.575.822,2.964,2.964,0,0,1,.967,2.263v4.377a5.351,5.351,0,0,0,.334,2.083V42Zm-2.7-1.239a2.858,2.858,0,0,0,1.45-.4,2.392,2.392,0,0,0,.993-1.028V37.386H93.711q-2.988,0-2.988,1.749a1.48,1.48,0,0,0,.51,1.2A1.959,1.959,0,0,0,92.542,40.761ZM100.927,42H99.3V28.5h1.626Zm6.548.176a4.155,4.155,0,0,1-3.146-1.27,4.714,4.714,0,0,1-1.213-3.4v-.3a5.707,5.707,0,0,1,.541-2.527,4.217,4.217,0,0,1,1.512-1.74,3.8,3.8,0,0,1,2.1-.628,3.562,3.562,0,0,1,2.883,1.222,5.289,5.289,0,0,1,1.028,3.5v.677h-6.442a3.38,3.38,0,0,0,.822,2.272,2.583,2.583,0,0,0,2,.866,2.832,2.832,0,0,0,1.459-.352,3.666,3.666,0,0,0,1.046-.932l.993.773A3.993,3.993,0,0,1,107.475,42.176Zm-.2-8.525a2.169,2.169,0,0,0-1.652.716,3.482,3.482,0,0,0-.826,2.008h4.764v-.123a3.1,3.1,0,0,0-.668-1.92A2.042,2.042,0,0,0,107.273,33.65ZM118.6,39.478a1.2,1.2,0,0,0-.5-1.024,4.78,4.78,0,0,0-1.731-.628,8.186,8.186,0,0,1-1.96-.633,2.788,2.788,0,0,1-1.072-.879,2.1,2.1,0,0,1-.347-1.213,2.467,2.467,0,0,1,.989-1.978,3.861,3.861,0,0,1,2.527-.809,3.974,3.974,0,0,1,2.624.835,2.652,2.652,0,0,1,1.006,2.136h-1.635a1.468,1.468,0,0,0-.567-1.151,2.124,2.124,0,0,0-1.428-.483,2.223,2.223,0,0,0-1.389.387,1.217,1.217,0,0,0-.5,1.011.986.986,0,0,0,.466.888,5.731,5.731,0,0,0,1.683.571,8.77,8.77,0,0,1,1.973.65,2.878,2.878,0,0,1,1.121.91,2.237,2.237,0,0,1,.365,1.3,2.434,2.434,0,0,1-1.02,2.043,4.277,4.277,0,0,1-2.646.769,4.789,4.789,0,0,1-2.021-.4,3.288,3.288,0,0,1-1.375-1.129,2.722,2.722,0,0,1-.5-1.569H114.3a1.683,1.683,0,0,0,.655,1.3,2.54,2.54,0,0,0,1.613.479,2.622,2.622,0,0,0,1.481-.374A1.148,1.148,0,0,0,118.6,39.478Z" transform="translate(1038.229 928.27)" fill="#12263f"/>
    <circle id="Elipse_4810" data-name="Elipse 4810" cx="58.229" cy="58.229" r="58.229" transform="translate(321.28 856.906)" fill="#fcecdf"/>
    <circle id="Elipse_4811" data-name="Elipse 4811" cx="58.229" cy="58.229" r="58.229" transform="translate(488.209 634.906)" fill="#dad6f7"/>
    <circle id="Elipse_4812" data-name="Elipse 4812" cx="58.229" cy="58.229" r="58.229" transform="translate(741.771 547.906)" fill="#fcecdf"/>
    <circle id="Elipse_4813" data-name="Elipse 4813" cx="58.229" cy="58.229" r="58.229" transform="translate(1003.771 649.406)" fill="#dad6f7"/>
    <circle id="Elipse_4814" data-name="Elipse 4814" cx="58.229" cy="58.229" r="58.229" transform="translate(1179 855.543)" fill="#fcecdf"/>
    <path id="Trazado_149171" data-name="Trazado 149171" d="M14.518,13.6a1.268,1.268,0,0,0-.479-1.055,5.954,5.954,0,0,0-1.683-.782,16.147,16.147,0,0,1-1.969-.782Q7.9,9.758,7.9,7.622a3.011,3.011,0,0,1,.62-1.876A4.008,4.008,0,0,1,10.272,4.48a6.823,6.823,0,0,1,2.549-.453A5.969,5.969,0,0,1,15.3,4.52a3.917,3.917,0,0,1,1.7,1.4A3.661,3.661,0,0,1,17.6,8H14.526a1.547,1.547,0,0,0-.479-1.213,1.867,1.867,0,0,0-1.3-.431,2.106,2.106,0,0,0-1.305.365,1.074,1.074,0,0,0,.048,1.819,6.65,6.65,0,0,0,1.854.826,11.36,11.36,0,0,1,2.18.918,3.663,3.663,0,0,1,2.074,3.3,3.125,3.125,0,0,1-1.266,2.637,5.629,5.629,0,0,1-3.472.958,6.888,6.888,0,0,1-2.817-.558,4.247,4.247,0,0,1-1.9-1.529,3.985,3.985,0,0,1-.637-2.237h3.094a1.963,1.963,0,0,0,.532,1.516,2.513,2.513,0,0,0,1.727.488,1.985,1.985,0,0,0,1.208-.33A1.088,1.088,0,0,0,14.518,13.6Zm9.132,3.577a4.889,4.889,0,0,1-3.542-1.305,4.507,4.507,0,0,1-1.354-3.4v-.246a5.84,5.84,0,0,1,.541-2.575,3.955,3.955,0,0,1,1.578-1.727,4.763,4.763,0,0,1,2.461-.611A4.117,4.117,0,0,1,26.5,8.558a4.887,4.887,0,0,1,1.16,3.467v1.151H21.769a2.135,2.135,0,0,0,.694,1.257,2.066,2.066,0,0,0,1.389.457,2.662,2.662,0,0,0,2.2-.984l1.354,1.6a3.784,3.784,0,0,1-1.569,1.217A5.3,5.3,0,0,1,23.649,17.176ZM23.315,9.6q-1.3,0-1.547,1.723h2.988v-.229a1.467,1.467,0,0,0-.36-1.1A1.434,1.434,0,0,0,23.315,9.6ZM28.5,12.175a6.421,6.421,0,0,1,.475-2.549,3.821,3.821,0,0,1,1.362-1.709,3.591,3.591,0,0,1,2.065-.6,2.855,2.855,0,0,1,2.32,1l.105-.826h2.689V16.64a4.009,4.009,0,0,1-.584,2.184,3.75,3.75,0,0,1-1.692,1.424,6.219,6.219,0,0,1-2.566.5,5.365,5.365,0,0,1-2.026-.4,3.657,3.657,0,0,1-1.5-1.028l1.239-1.74a2.716,2.716,0,0,0,2.18.976,1.764,1.764,0,0,0,1.969-2.021v-.3a2.781,2.781,0,0,1-2.153.94,3.437,3.437,0,0,1-2.812-1.332A5.517,5.517,0,0,1,28.5,12.28Zm2.971.185a3.383,3.383,0,0,0,.439,1.85,1.387,1.387,0,0,0,1.23.681,1.573,1.573,0,0,0,1.4-.642v-4a1.534,1.534,0,0,0-1.38-.65,1.4,1.4,0,0,0-1.239.708A3.858,3.858,0,0,0,31.472,12.359ZM42,7.49l.1,1.116a3.27,3.27,0,0,1,2.716-1.292,2.407,2.407,0,0,1,2.435,1.433,3.165,3.165,0,0,1,2.795-1.433q2.892,0,2.971,3.5V17H50.043V11A1.813,1.813,0,0,0,49.8,9.934a1.048,1.048,0,0,0-.9-.334,1.4,1.4,0,0,0-1.31.782l.009.123V17H44.629V11.015a1.906,1.906,0,0,0-.237-1.081,1.045,1.045,0,0,0-.905-.334,1.42,1.42,0,0,0-1.3.782V17H39.224V7.49Zm17.306,9.686a4.889,4.889,0,0,1-3.542-1.305,4.507,4.507,0,0,1-1.354-3.4v-.246a5.84,5.84,0,0,1,.541-2.575,3.955,3.955,0,0,1,1.578-1.727,4.763,4.763,0,0,1,2.461-.611,4.117,4.117,0,0,1,3.164,1.244,4.887,4.887,0,0,1,1.16,3.467v1.151H57.426a2.135,2.135,0,0,0,.694,1.257,2.066,2.066,0,0,0,1.389.457,2.662,2.662,0,0,0,2.2-.984l1.354,1.6a3.784,3.784,0,0,1-1.569,1.217A5.3,5.3,0,0,1,59.307,17.176ZM58.973,9.6q-1.3,0-1.547,1.723h2.988v-.229a1.467,1.467,0,0,0-.36-1.1A1.434,1.434,0,0,0,58.973,9.6ZM67.226,7.49l.1,1.116a3.225,3.225,0,0,1,2.716-1.292,2.713,2.713,0,0,1,2.219.888,4.226,4.226,0,0,1,.76,2.672V17H70.047V11a1.6,1.6,0,0,0-.29-1.059A1.342,1.342,0,0,0,68.7,9.6a1.413,1.413,0,0,0-1.292.686V17H64.448V7.49ZM78.106,5.126V7.49h1.564V9.547H78.106V13.9a1.111,1.111,0,0,0,.193.747,1.037,1.037,0,0,0,.765.211A4.345,4.345,0,0,0,79.8,14.8v2.118a5.466,5.466,0,0,1-1.67.255,3.1,3.1,0,0,1-2.259-.721,2.954,2.954,0,0,1-.729-2.188V9.547H73.932V7.49h1.213V5.126ZM86.192,17a3.344,3.344,0,0,1-.281-.853,2.754,2.754,0,0,1-2.285,1.028,3.374,3.374,0,0,1-2.285-.813,2.588,2.588,0,0,1-.94-2.043,2.66,2.66,0,0,1,1.143-2.338,5.821,5.821,0,0,1,3.322-.791h.914v-.5q0-1.316-1.134-1.316a.927.927,0,0,0-1.055,1.042H80.629A2.655,2.655,0,0,1,81.8,8.175a4.931,4.931,0,0,1,2.993-.86,4.323,4.323,0,0,1,2.874.888,3.086,3.086,0,0,1,1.081,2.435v4.21a4.311,4.311,0,0,0,.4,2V17Zm-1.854-1.934a1.652,1.652,0,0,0,.918-.237,1.487,1.487,0,0,0,.523-.536V12.772h-.861q-1.547,0-1.547,1.389a.848.848,0,0,0,.272.655A.986.986,0,0,0,84.338,15.066Zm10.072-.176a1.317,1.317,0,0,0,.967-.338,1.241,1.241,0,0,0,.334-.945h2.777a3.288,3.288,0,0,1-1.121,2.566,4.168,4.168,0,0,1-2.887,1,4.22,4.22,0,0,1-3.27-1.3,5.125,5.125,0,0,1-1.2-3.6v-.123A5.792,5.792,0,0,1,90.547,9.6a3.872,3.872,0,0,1,1.534-1.7,4.573,4.573,0,0,1,2.373-.593A4.116,4.116,0,0,1,97.4,8.343a3.647,3.647,0,0,1,1.09,2.786H95.711A1.626,1.626,0,0,0,95.351,10a1.244,1.244,0,0,0-.967-.4q-1.151,0-1.345,1.468a10.357,10.357,0,0,0-.062,1.283,4.068,4.068,0,0,0,.343,1.986A1.187,1.187,0,0,0,94.41,14.891ZM102.865,17H99.895V7.49h2.971ZM99.719,5.029a1.334,1.334,0,0,1,.457-1.043,1.934,1.934,0,0,1,2.373,0,1.334,1.334,0,0,1,.457,1.043,1.334,1.334,0,0,1-.457,1.043,1.934,1.934,0,0,1-2.373,0A1.334,1.334,0,0,1,99.719,5.029Zm4.6,7.128a5.613,5.613,0,0,1,.554-2.536,3.96,3.96,0,0,1,1.591-1.709,4.791,4.791,0,0,1,2.435-.6,4.373,4.373,0,0,1,3.366,1.323,5.076,5.076,0,0,1,1.23,3.6v.105a4.925,4.925,0,0,1-1.235,3.529,4.384,4.384,0,0,1-3.344,1.305,4.434,4.434,0,0,1-3.261-1.217,4.761,4.761,0,0,1-1.327-3.3Zm2.962.185a3.538,3.538,0,0,0,.413,1.934,1.376,1.376,0,0,0,1.222.615q1.582,0,1.617-2.435v-.3q0-2.558-1.635-2.558-1.485,0-1.608,2.206ZM109.3,3.5h3.129l-2.443,2.76-2.417,0Zm8.218,3.99.1,1.116a3.225,3.225,0,0,1,2.716-1.292,2.713,2.713,0,0,1,2.219.888,4.226,4.226,0,0,1,.76,2.672V17h-2.971V11a1.6,1.6,0,0,0-.29-1.059,1.342,1.342,0,0,0-1.055-.338,1.413,1.413,0,0,0-1.292.686V17h-2.962V7.49Zm11.54,4.685a5.809,5.809,0,0,1,.976-3.56,3.211,3.211,0,0,1,2.725-1.3,2.731,2.731,0,0,1,2.145,1V3.5h2.971V17h-2.663l-.149-1.02a2.8,2.8,0,0,1-2.32,1.2,3.205,3.205,0,0,1-2.689-1.3A5.993,5.993,0,0,1,129.057,12.175Zm2.962.185q0,2.531,1.477,2.531a1.458,1.458,0,0,0,1.406-.826V10.443a1.419,1.419,0,0,0-1.389-.844q-1.371,0-1.485,2.215Zm12.138,4.816a4.889,4.889,0,0,1-3.542-1.305,4.507,4.507,0,0,1-1.354-3.4v-.246a5.84,5.84,0,0,1,.541-2.575,3.955,3.955,0,0,1,1.578-1.727,4.763,4.763,0,0,1,2.461-.611A4.117,4.117,0,0,1,147,8.558a4.887,4.887,0,0,1,1.16,3.467v1.151h-5.889a2.135,2.135,0,0,0,.694,1.257,2.066,2.066,0,0,0,1.389.457,2.662,2.662,0,0,0,2.2-.984l1.354,1.6a3.784,3.784,0,0,1-1.569,1.217A5.3,5.3,0,0,1,144.156,17.176ZM143.822,9.6q-1.3,0-1.547,1.723h2.988v-.229a1.467,1.467,0,0,0-.36-1.1A1.434,1.434,0,0,0,143.822,9.6Zm8.657,7.4h-2.971V3.5h2.971Zm9.105-9.51.1,1.116A3.27,3.27,0,0,1,164.4,7.314a2.407,2.407,0,0,1,2.435,1.433,3.165,3.165,0,0,1,2.795-1.433q2.892,0,2.971,3.5V17h-2.971V11a1.813,1.813,0,0,0-.246-1.063,1.048,1.048,0,0,0-.9-.334,1.4,1.4,0,0,0-1.31.782l.009.123V17h-2.971V11.015a1.906,1.906,0,0,0-.237-1.081,1.045,1.045,0,0,0-.905-.334,1.42,1.42,0,0,0-1.3.782V17h-2.962V7.49Zm17.306,9.686a4.889,4.889,0,0,1-3.542-1.305,4.507,4.507,0,0,1-1.354-3.4v-.246a5.84,5.84,0,0,1,.541-2.575,3.955,3.955,0,0,1,1.578-1.727,4.763,4.763,0,0,1,2.461-.611,4.117,4.117,0,0,1,3.164,1.244,4.887,4.887,0,0,1,1.16,3.467v1.151H177.01a2.135,2.135,0,0,0,.694,1.257,2.066,2.066,0,0,0,1.389.457,2.662,2.662,0,0,0,2.2-.984l1.354,1.6a3.784,3.784,0,0,1-1.569,1.217A5.3,5.3,0,0,1,178.891,17.176ZM178.557,9.6q-1.3,0-1.547,1.723H180v-.229a1.467,1.467,0,0,0-.36-1.1A1.434,1.434,0,0,0,178.557,9.6Zm11.285.571-.976-.07a1.752,1.752,0,0,0-1.793.879V17h-2.962V7.49h2.777l.1,1.222a2.294,2.294,0,0,1,2.083-1.4,2.888,2.888,0,0,1,.826.105Zm4.922,4.72a1.317,1.317,0,0,0,.967-.338,1.241,1.241,0,0,0,.334-.945h2.777a3.288,3.288,0,0,1-1.121,2.566,4.168,4.168,0,0,1-2.887,1,4.22,4.22,0,0,1-3.27-1.3,5.125,5.125,0,0,1-1.2-3.6v-.123A5.792,5.792,0,0,1,190.9,9.6a3.872,3.872,0,0,1,1.534-1.7,4.573,4.573,0,0,1,2.373-.593,4.116,4.116,0,0,1,2.944,1.028,3.647,3.647,0,0,1,1.09,2.786h-2.777A1.626,1.626,0,0,0,195.7,10a1.244,1.244,0,0,0-.967-.4q-1.151,0-1.345,1.468a10.357,10.357,0,0,0-.062,1.283,4.068,4.068,0,0,0,.343,1.986A1.187,1.187,0,0,0,194.764,14.891ZM205.451,17a3.344,3.344,0,0,1-.281-.853,2.754,2.754,0,0,1-2.285,1.028,3.374,3.374,0,0,1-2.285-.813,2.588,2.588,0,0,1-.94-2.043,2.66,2.66,0,0,1,1.143-2.338,5.821,5.821,0,0,1,3.322-.791h.914v-.5q0-1.316-1.134-1.316a.927.927,0,0,0-1.055,1.042h-2.962a2.655,2.655,0,0,1,1.173-2.239,4.931,4.931,0,0,1,2.993-.86,4.323,4.323,0,0,1,2.874.888,3.086,3.086,0,0,1,1.081,2.435v4.21a4.311,4.311,0,0,0,.4,2V17ZM203.6,15.066a1.652,1.652,0,0,0,.918-.237,1.487,1.487,0,0,0,.523-.536V12.772h-.861q-1.547,0-1.547,1.389a.848.848,0,0,0,.272.655A.986.986,0,0,0,203.6,15.066Zm5.678-2.892a5.809,5.809,0,0,1,.976-3.56,3.211,3.211,0,0,1,2.725-1.3,2.731,2.731,0,0,1,2.145,1V3.5h2.971V17h-2.663l-.149-1.02a2.8,2.8,0,0,1-2.32,1.2,3.205,3.205,0,0,1-2.689-1.3A5.993,5.993,0,0,1,209.274,12.175Zm2.962.185q0,2.531,1.477,2.531a1.458,1.458,0,0,0,1.406-.826V10.443A1.419,1.419,0,0,0,213.73,9.6q-1.371,0-1.485,2.215Zm7.163-.2a5.613,5.613,0,0,1,.554-2.536,3.96,3.96,0,0,1,1.591-1.709,4.791,4.791,0,0,1,2.435-.6,4.373,4.373,0,0,1,3.366,1.323,5.076,5.076,0,0,1,1.23,3.6v.105a4.925,4.925,0,0,1-1.235,3.529A4.384,4.384,0,0,1,224,17.176a4.434,4.434,0,0,1-3.261-1.217,4.761,4.761,0,0,1-1.327-3.3Zm2.962.185a3.538,3.538,0,0,0,.413,1.934,1.376,1.376,0,0,0,1.222.615q1.582,0,1.617-2.435v-.3q0-2.558-1.635-2.558-1.485,0-1.608,2.206Z" transform="translate(682 915.135)" fill="#12263f"/>
    <g id="Grupo_87937" data-name="Grupo 87937" transform="translate(-1088.89 -962.247)">
      <path id="Trazado_102629" data-name="Trazado 102629" d="M1994.521,1815.336a1.662,1.662,0,0,1-.268-.022,1.64,1.64,0,0,1-1.353-1.884l2.61-15.917a1.64,1.64,0,0,1,3.237.531l-2.61,15.916A1.64,1.64,0,0,1,1994.521,1815.336Z" transform="translate(-111.02 -205.893)" fill="#ef6c00"/>
      <path id="Trazado_102630" data-name="Trazado 102630" d="M2002.044,1795.677h-.063l-4.322-.163a1.64,1.64,0,1,1,.124-3.278l4.322.163a1.64,1.64,0,0,1-.061,3.279Z" transform="translate(-113.471 -202.903)" fill="#ef6c00"/>
      <path id="Trazado_102631" data-name="Trazado 102631" d="M1993.823,1780.608a1.641,1.641,0,0,1-1.585-1.226l-1.192-4.56a1.64,1.64,0,0,1,3.173-.83l1.192,4.56a1.641,1.641,0,0,1-1.588,2.055Z" transform="translate(-109.575 -187.997)" fill="#ef6c00"/>
      <path id="Trazado_102632" data-name="Trazado 102632" d="M1926.877,1767.316H1850.9a1.64,1.64,0,0,1-1.635-1.512l-1.374-17.6c0-.043,0-.085,0-.128V1746.3a7.525,7.525,0,0,1,3.069-5.967,13.482,13.482,0,0,1,5.7-2.555c.568-.113,1.306-.24,2.161-.386,3.554-.609,10.169-1.743,12.958-3.647a1.645,1.645,0,0,1,.68-.267l.229-.034a1.64,1.64,0,0,1,.626,3.217c-3.458,2.17-9.739,3.246-13.938,3.965-.832.142-1.55.265-2.073.37-2.275.454-6.126,2.083-6.126,5.306v1.713l1.251,16.02h74.456a1.64,1.64,0,0,1,0,3.28Z" transform="translate(0 -157.873)" fill="#ef6c00"/>
      <path id="Trazado_102633" data-name="Trazado 102633" d="M1947.094,1600.762a1.64,1.64,0,0,1-1.308-.651l-21.181-28a1.64,1.64,0,0,1,1.308-2.629h42.317a1.64,1.64,0,0,1,1.309,2.628l-21.137,28a1.64,1.64,0,0,1-1.308.652Zm-17.884-28,17.883,23.644,17.845-23.644Z" transform="translate(-58.488 -32.336)" fill="#ef6c00"/>
      <path id="Trazado_102634" data-name="Trazado 102634" d="M1993.792,1599.919h-.1a1.64,1.64,0,0,1-1.594-1.366l-.439-2.589-6.365-24.041a1.64,1.64,0,0,1,3.171-.84l5.311,20.059,5.562-20.205a1.64,1.64,0,1,1,3.162.87l-6.652,24.166-.438,2.581a1.639,1.639,0,0,1-1.594,1.366Z" transform="translate(-105.169 -32.53)" fill="#ef6c00"/>
      <path id="Trazado_102635" data-name="Trazado 102635" d="M1968.238,1540.071a1.641,1.641,0,0,1-1.511-1l-3.615-8.541h-31.475l-4.252,8.626a1.64,1.64,0,0,1-2.942-1.45l4.7-9.541a1.639,1.639,0,0,1,1.471-.915H1964.2a1.64,1.64,0,0,1,1.51,1l4.039,9.542a1.641,1.641,0,0,1-1.51,2.28Z" transform="translate(-58.487 -0.001)" fill="#ef6c00"/>
      <path id="Trazado_102636" data-name="Trazado 102636" d="M1963.356,1540.311h-.13a1.64,1.64,0,0,1-1.434-.946l-.384-.824-6.291-8.639a1.64,1.64,0,1,1,2.651-1.931l5.565,7.643,5.841-7.715a1.64,1.64,0,0,1,2.615,1.98l-6.569,8.676-.377.811a1.64,1.64,0,0,1-1.434.946Z" transform="translate(-81.864)" fill="#ef6c00"/>
      <path id="Trazado_102637" data-name="Trazado 102637" d="M2023.024,1540.312h-.13a1.64,1.64,0,0,1-1.434-.946l-.384-.824-6.291-8.639a1.64,1.64,0,1,1,2.651-1.931l5.566,7.643,5.84-7.715a1.64,1.64,0,1,1,2.615,1.98l-6.569,8.676-.378.81a1.64,1.64,0,0,1-1.434.946Z" transform="translate(-127.552 0)" fill="#ef6c00"/>
      <path id="Trazado_102638" data-name="Trazado 102638" d="M1954.706,1727.14a1.681,1.681,0,0,1-.268-.022,1.64,1.64,0,0,1-1.2-.892l-6.29-12.74a1.64,1.64,0,0,1,.172-1.728l5.3-6.87a1.64,1.64,0,0,1,2.456-.159l10.319,10.291a1.64,1.64,0,0,1,0,2.322l-9.335,9.319A1.64,1.64,0,0,1,1954.706,1727.14Zm-4.366-14.188,4.825,9.773,6.554-6.543-7.837-7.816Z" transform="translate(-75.718 -135.533)" fill="#ef6c00"/>
      <path id="Trazado_102639" data-name="Trazado 102639" d="M2107.691,1764.649q-.075,0-.152-.007a1.64,1.64,0,0,1-1.483-1.783l1.367-14.852v-1.7c0-3.222-3.851-4.851-6.126-5.306-.523-.1-1.241-.228-2.073-.37-4.2-.72-10.48-1.8-13.938-3.965a1.64,1.64,0,0,1,.626-3.217l.229.035a1.644,1.644,0,0,1,.68.267c2.789,1.9,9.4,3.038,12.958,3.647.855.146,1.594.273,2.161.386,4.362.871,8.764,3.844,8.764,8.522v1.777c0,.05,0,.1-.007.151l-1.374,14.927A1.64,1.64,0,0,1,2107.691,1764.649Z" transform="translate(-180.813 -157.875)" fill="#ef6c00"/>
      <path id="Trazado_102640" data-name="Trazado 102640" d="M2032.519,1815.337a1.641,1.641,0,0,1-1.607-1.325l-3.122-15.917a1.64,1.64,0,0,1,3.219-.632l3.122,15.917a1.64,1.64,0,0,1-1.294,1.925A1.666,1.666,0,0,1,2032.519,1815.337Z" transform="translate(-137.727 -205.894)" fill="#ef6c00"/>
      <path id="Trazado_102641" data-name="Trazado 102641" d="M2018.892,1795.677a1.64,1.64,0,0,1-.061-3.279l4.322-.163a1.64,1.64,0,1,1,.124,3.278l-4.322.163Z" transform="translate(-129.683 -202.903)" fill="#ef6c00"/>
      <path id="Trazado_102642" data-name="Trazado 102642" d="M2037.34,1780.608a1.642,1.642,0,0,1-1.588-2.055l1.192-4.56a1.64,1.64,0,0,1,3.173.83l-1.192,4.56A1.641,1.641,0,0,1,2037.34,1780.608Z" transform="translate(-143.807 -187.997)" fill="#ef6c00"/>
      <path id="Trazado_102643" data-name="Trazado 102643" d="M2029.291,1727.14a1.641,1.641,0,0,1-1.159-.479l-9.335-9.319a1.64,1.64,0,0,1,0-2.322l10.319-10.292a1.64,1.64,0,0,1,2.456.159l5.3,6.87a1.64,1.64,0,0,1,.172,1.728l-6.29,12.74a1.64,1.64,0,0,1-1.2.892A1.681,1.681,0,0,1,2029.291,1727.14Zm-7.013-10.958,6.554,6.543,4.825-9.773-3.541-4.586Z" transform="translate(-130.497 -135.533)" fill="#ef6c00"/>
    </g>
    <g id="Grupo_87938" data-name="Grupo 87938" transform="translate(-1275.429 -478.866)">
      <path id="Trazado_102644" data-name="Trazado 102644" d="M2349.719,1222.583a6.686,6.686,0,0,1-4.8-2.011l-5.411-5.456a1.782,1.782,0,0,1,2.531-2.51l5.411,5.456c1.651,1.664,3.988.863,5.121-.238.689-.669,2.042-2.486-.258-4.9a1.774,1.774,0,0,1-.434-.777l-9.092-9.341a1.782,1.782,0,1,1,2.554-2.486l10.833,11.13c1.623,1.668,4.023.8,5.208-.353.719-.7,2.141-2.574-.117-4.94l-.037-.038-9.855-10.162c-.034-.035-.067-.072-.1-.109l-.635-.655a1.782,1.782,0,0,1,2.56-2.48l10.588,10.926.037.038c2.111,2.145,3.767,1.177,4.569.406a3.844,3.844,0,0,0,.413-5.36l-21.025-22.041a1.782,1.782,0,1,1,2.579-2.46L2369.225,1194l4.6-4.589c5.47-5.462,8-15.985-2.859-27.663a33.071,33.071,0,0,0-7.847-6.308c-2.453-1.376-14.01-5.33-21.621,2.078l-16.314,16.234c-.736.732-.492.979-.183,1.291,1.566,1.582,6.875,2.357,10.018-.741l4.114-4.054.054-.051c3.523-3.195,7.52-1.987,11.048-.921,4.03,1.218,7.836,2.368,12.276-1.136a1.782,1.782,0,0,1,2.208,2.8c-5.9,4.656-11.231,3.045-15.515,1.75-3.557-1.075-5.669-1.6-7.6.127l-4.085,4.026c-4.625,4.558-12.2,3.589-15.053.71-1.856-1.874-1.776-4.356.2-6.325l10.749-10.7-2.4-2.385c-6.108-5.946-17.244-7.749-27.226,2.376a22.825,22.825,0,0,0-6.676,12.957,15.689,15.689,0,0,0,4.792,13.372l5.432,5.424a1.782,1.782,0,1,1-2.519,2.522l-5.433-5.424a19.139,19.139,0,0,1-5.811-16.327,26.393,26.393,0,0,1,7.675-15.026,27.192,27.192,0,0,1,15.364-8.088,19.657,19.657,0,0,1,16.9,5.673l2.423,2.411,3.053-3.038a19.69,19.69,0,0,1,14.1-5.382c.19,0,.381,0,.573.007a25.7,25.7,0,0,1,11.188,2.728,36.656,36.656,0,0,1,8.714,6.99c8.492,9.129,12.641,22.754,2.768,32.613l-4.663,4.656c2.682,3.172,1.716,7.633-.812,10.065a6.493,6.493,0,0,1-4.818,1.887c.006.183,0,.358-.005.522a6.942,6.942,0,0,1-2.177,4.594,8.147,8.147,0,0,1-4.865,2.261,6.938,6.938,0,0,1-1.834-.079,6.772,6.772,0,0,1-2.113,4.545,7.848,7.848,0,0,1-4.808,2.183Q2349.98,1222.583,2349.719,1222.583Z" transform="translate(0)" fill="#3e2ea6"/>
      <path id="Trazado_102645" data-name="Trazado 102645" d="M2356.255,1336.264a6.79,6.79,0,0,1-4.817-1.992l-.578-.578a6.8,6.8,0,0,0-7.836-6.9l-.578-.578a6.793,6.793,0,0,1-1.99-4.943,6.95,6.95,0,0,1-1.24.111,6.761,6.761,0,0,1-4.816-1.984l-.578-.577a6.8,6.8,0,0,0-7.578-7.286l-.578-.577a6.821,6.821,0,0,1,0-9.634l7.487-7.491a6.764,6.764,0,0,1,4.817-1.989h0a6.767,6.767,0,0,1,4.815,1.988l.578.578a6.769,6.769,0,0,1,1.842,3.393l.542-.542a6.826,6.826,0,0,1,9.633,0l.578.578a6.823,6.823,0,0,1,.78,8.7,6.748,6.748,0,0,1,3.517,1.866l.578.578a6.809,6.809,0,0,0,4.679,10.056l.578.578a6.821,6.821,0,0,1,0,9.634l-5.021,5.021A6.792,6.792,0,0,1,2356.255,1336.264Zm4.442-15.653a3.236,3.236,0,0,0-2.3.949l-5.021,5.021a3.251,3.251,0,0,0,0,4.592l.578.578a3.29,3.29,0,0,0,4.592,0l5.021-5.021a3.292,3.292,0,0,0,0-4.592l-.578-.578A3.239,3.239,0,0,0,2360.7,1320.611Zm-5.257-10.629a3.222,3.222,0,0,0-2.3.945l-8.178,8.177a3.251,3.251,0,0,0,0,4.592l.578.577a3.251,3.251,0,0,0,4.593,0l8.177-8.177a3.251,3.251,0,0,0,0-4.592l-.577-.578A3.223,3.223,0,0,0,2355.44,1309.983Zm-4.875-11.15a3.237,3.237,0,0,0-2.3.95l-11.928,11.928a3.251,3.251,0,0,0,0,4.592l.578.577a3.272,3.272,0,0,0,4.592,0l11.928-11.927a3.251,3.251,0,0,0,0-4.592l-.579-.578A3.235,3.235,0,0,0,2350.566,1298.833Zm-12.6-3.422a3.22,3.22,0,0,0-2.3.944l-7.487,7.491a3.252,3.252,0,0,0,0,4.593l.578.577a3.29,3.29,0,0,0,4.592,0l7.487-7.491a3.29,3.29,0,0,0,0-4.593l-.578-.578a3.225,3.225,0,0,0-2.3-.944Z" transform="translate(-22.548 -106.035)" fill="#3e2ea6"/>
    </g>
    <path id="Trazado_102654" data-name="Trazado 102654" d="M2817.14,944.2a6.4,6.4,0,0,1-3.217-.845,4.959,4.959,0,0,1-2.5-4.436l.159-12.6.067-7.959a3.629,3.629,0,0,1-1.337.373,3.679,3.679,0,0,1-3.042-.921c-1.691-1.591-1.534-4.531-1.408-6.893.023-.432.045-.84.05-1.175.084-5.726.19-9.718.867-12.816.34-1.878,2.243-3.223,5.817-4.109a41.082,41.082,0,0,1,9.675-1,1.594,1.594,0,0,1-.007,3.189c-.067,0-.139,0-.209,0a38.954,38.954,0,0,0-8.445.85c-2.774.652-3.618,1.432-3.695,1.653,0,.027-.008.044-.014.071-.618,2.8-.721,6.829-.8,12.212-.006.4-.029.834-.053,1.3-.066,1.241-.2,3.824.41,4.4a.762.762,0,0,0,.528.071l.07-.007c.276-.019.963-.53,1.587-2.324.016-.045.033-.089.052-.132l.088-10.413a1.594,1.594,0,0,1,3.189.027l-.2,23.64-.159,12.6a1.755,1.755,0,0,0,.925,1.649,3.386,3.386,0,0,0,3.161.022,1.725,1.725,0,0,0,.918-1.614v-.006l.014-18.691a1.594,1.594,0,0,1,1.594-1.593h0a1.594,1.594,0,0,1,1.593,1.6l-.014,18.691v0a1.688,1.688,0,0,0,.931,1.559,3.978,3.978,0,0,0,3.659-.024,1.718,1.718,0,0,0,.936-1.6l-.158-12.59-.033-2.193a1.6,1.6,0,0,1,1.57-1.618h.024a1.594,1.594,0,0,1,1.594,1.571l.033,2.2.158,12.6A4.919,4.919,0,0,1,2829,943.3a7.136,7.136,0,0,1-6.857.039,5.366,5.366,0,0,1-.9-.65,5.22,5.22,0,0,1-.96.7A6.343,6.343,0,0,1,2817.14,944.2Zm46.608,0a6.394,6.394,0,0,1-3.217-.845,4.96,4.96,0,0,1-2.5-4.436l.159-12.6c0-.016,0-.033,0-.049l.076-1.749a1.594,1.594,0,0,1,3.186.138l-.075,1.724-.159,12.57a1.756,1.756,0,0,0,.925,1.649,3.384,3.384,0,0,0,3.161.022,1.725,1.725,0,0,0,.918-1.614v-.006l.014-18.691a1.594,1.594,0,0,1,1.594-1.593h0a1.594,1.594,0,0,1,1.593,1.6l-.014,18.691v0a1.687,1.687,0,0,0,.931,1.559,3.977,3.977,0,0,0,3.659-.024,1.718,1.718,0,0,0,.936-1.6l-.158-12.59-.2-23.646a1.594,1.594,0,0,1,1.581-1.608h.014a1.594,1.594,0,0,1,1.594,1.581l.084,9.845c.021.046.04.093.057.142.67,1.926,1.362,2.257,1.495,2.3a.4.4,0,0,0,.383-.071c.758-.472.8-1.413.606-3.481-.037-.392-.074-.8-.094-1.2l-.644-12.859c0-.05-.064-.161-.232-.312-1.358-1.226-6.446-2.339-13.2-1.988a1.594,1.594,0,0,1-.165-3.184c5.406-.282,12.711.285,15.5,2.806a3.6,3.6,0,0,1,1.28,2.52l.644,12.859c.016.328.049.683.085,1.058.193,2.066.457,4.9-2.1,6.484a3.572,3.572,0,0,1-3.13.37,3.81,3.81,0,0,1-.445-.189l.073,8.533.158,12.588a4.919,4.919,0,0,1-2.512,4.384,7.139,7.139,0,0,1-6.857.039,5.356,5.356,0,0,1-.9-.65,5.236,5.236,0,0,1-.96.7A6.342,6.342,0,0,1,2863.748,944.2Zm-23.66-.008a7.236,7.236,0,0,1-3.628-.938,5.331,5.331,0,0,1-2.707-4.759l.177-14.271.054-6.4a4.373,4.373,0,0,1-4.921-.447c-1.824-1.717-1.652-4.95-1.514-7.548.026-.483.05-.939.055-1.316l0-.223c.087-6.023.2-13.514.961-17.035.986-5.445,14.876-5.782,20.159-5.452,10.027.629,12.24,3.477,12.331,5.756l.718,17.961c.016.389.053.809.093,1.254.2,2.23.473,5.283-2.251,6.979a3.807,3.807,0,0,1-3.334.394,4.183,4.183,0,0,1-.714-.332l.055,6.418.177,14.261a5.328,5.328,0,0,1-2.705,4.757,7.5,7.5,0,0,1-7.2.04,1.179,1.179,0,0,0-2.264.007A7.168,7.168,0,0,1,2840.088,944.192Zm-4.339-47.915h.014a1.594,1.594,0,0,1,1.581,1.608l-.224,26.372-.177,14.273a2.11,2.11,0,0,0,1.13,1.972,4.253,4.253,0,0,0,3.97.027,2.077,2.077,0,0,0,1.124-1.933v-.006l.016-22.936a1.594,1.594,0,0,1,1.594-1.593h0a1.594,1.594,0,0,1,1.593,1.6l-.016,22.936v0a2.071,2.071,0,0,0,1.124,1.925,4.287,4.287,0,0,0,4.006-.026,2.106,2.106,0,0,0,1.128-1.969l-.177-14.263-.224-26.379a1.594,1.594,0,0,1,1.581-1.608h.014a1.594,1.594,0,0,1,1.594,1.581l.123,14.486c.016.036.031.074.044.113.755,2.172,1.553,2.6,1.78,2.682a.626.626,0,0,0,.587-.1c.953-.593.962-1.724.759-3.987-.041-.464-.085-.944-.1-1.412l-.718-17.961c-.03-.739-2.8-2.29-9.344-2.7a48.15,48.15,0,0,0-11.686.667c-4.1.818-5.094,1.922-5.136,2.173,0,.027-.01.054-.016.081-.7,3.189-.814,10.842-.895,16.43l0,.223c-.006.438-.032.924-.06,1.438-.081,1.522-.231,4.354.516,5.057.05.047.2.189.737.129l.068-.006c.376-.027,1.207-.629,1.934-2.717q.02-.058.044-.112l.123-14.486A1.594,1.594,0,0,1,2835.749,896.277Zm32.05-6.162c-4.3,0-7.79-3.754-7.79-8.368a8.529,8.529,0,0,1,3.883-7.241,7.382,7.382,0,0,1,3.993-1.181c4.3,0,7.791,3.754,7.791,8.368a8.529,8.529,0,0,1-3.886,7.243A7.386,7.386,0,0,1,2867.8,890.114Zm.086-13.6a4.2,4.2,0,0,0-2.277.679l-.022.014a5.32,5.32,0,0,0-2.388,4.54,4.922,4.922,0,0,0,4.6,5.179,4.2,4.2,0,0,0,2.276-.679l.023-.014a5.32,5.32,0,0,0,2.389-4.54A4.922,4.922,0,0,0,2867.884,876.513Zm-3.141-.661h0Zm-43.553,14.262c-4.3,0-7.79-3.754-7.79-8.368a8.529,8.529,0,0,1,3.882-7.241,7.383,7.383,0,0,1,3.994-1.181c4.3,0,7.791,3.754,7.791,8.368a8.529,8.529,0,0,1-3.886,7.243A7.385,7.385,0,0,1,2821.19,890.114Zm.086-13.6a4.2,4.2,0,0,0-2.277.679l-.023.014a5.321,5.321,0,0,0-2.387,4.54,4.922,4.922,0,0,0,4.6,5.179,4.2,4.2,0,0,0,2.276-.679l.023-.014a5.32,5.32,0,0,0,2.389-4.54A4.922,4.922,0,0,0,2821.276,876.513Zm-3.14-.661h0Zm26.332,8.011c-4.69,0-8.507-4.105-8.507-9.151a9.331,9.331,0,0,1,4.247-7.923,8.054,8.054,0,0,1,4.355-1.288c4.691,0,8.507,4.105,8.507,9.151a9.329,9.329,0,0,1-4.249,7.924A8.055,8.055,0,0,1,2844.467,883.863Zm.1-15.173a4.872,4.872,0,0,0-2.64.787l-.023.014a6.121,6.121,0,0,0-2.75,5.221c0,3.287,2.385,5.962,5.318,5.962a4.874,4.874,0,0,0,2.639-.787l.023-.014a6.119,6.119,0,0,0,2.752-5.221C2849.881,871.365,2847.5,868.69,2844.563,868.69Zm-3.5-.553h0Z" transform="translate(-2044.734 91.04)" fill="#12263f"/>
    <g id="Grupo_92549" data-name="Grupo 92549" transform="translate(278.338 473.896)">
      <g id="Grupo_92547" data-name="Grupo 92547" transform="translate(70.893 431.577)">
        <path id="Trazado_149057" data-name="Trazado 149057" d="M129.082,482.861c.176.148.408.341.682.566.363-.3.578-.488.578-.488v-1.745c-.142-.152-.284-.323-.424-.506a12.775,12.775,0,0,1-.836,1.145Z" transform="translate(-92.741 -458.424)" fill="#ef6c00"/>
        <path id="Trazado_149058" data-name="Trazado 149058" d="M80.175,480.719l.006-.036c.226-1.24,1.914-2.143,6.323-4.224.579-.273,1.177-.556,1.727-.823a45.226,45.226,0,0,0,7.2-5.107V469.5a25.031,25.031,0,0,1-2.456-3.961c-.28-.523-.63-1.175-.752-1.324a11.47,11.47,0,0,1-1.594-4.705,2.665,2.665,0,0,1,.887-1.836v-4.242l.006-.056a9.443,9.443,0,0,1,1.815-4.9,11.479,11.479,0,0,0-3.544-.636s-8.093-.131-9.336,7.493-.829,12.512-3.314,14.169a16.587,16.587,0,0,0,8.038,2.072s.413,2.817-.746,3.978-10.917,2.569-11.663,4.723l-1.876,5.361h8.725l.553-4.884Z" transform="translate(-70.893 -446.092)" fill="#ef6c00"/>
        <path id="Trazado_149059" data-name="Trazado 149059" d="M133.408,453.7v4.242a2.668,2.668,0,0,1,.887,1.836,11.483,11.483,0,0,1-1.593,4.7c-.124.15-.473.8-.754,1.326-.451.843-1.007,1.88-1.621,2.816.14.183.282.354.424.506v1.745s-.214.185-.578.488a41.036,41.036,0,0,0,6.518,4.541c.549.267,1.147.55,1.726.823,4.41,2.082,6.1,2.985,6.323,4.225l.007.036,0,.037.55,4.854h8.4l-.7-6.2c-.159-.872-3.887-2.459-6.663-3.807a44.4,44.4,0,0,1-6.994-5V469.13c1.335-1.428,2.631-4.443,3.106-5a9.989,9.989,0,0,0,1.19-3.569c0-.635-.794-1.19-.794-1.19v-4.2c-.714-7.055-7.8-6.61-7.8-6.61a9.082,9.082,0,0,0-3.228.5,9.614,9.614,0,0,1,1.582,4.576Z" transform="translate(-93.151 -446.36)" fill="#ef6c00"/>
        <path id="Trazado_149060" data-name="Trazado 149060" d="M127.7,484.557l-.536-4.73c-.178-.975-4.346-2.749-7.449-4.256a42.906,42.906,0,0,1-6.9-4.82c-.566-.467-.913-.766-.913-.766v-1.95a11.337,11.337,0,0,0,1.259-1.716c.992-1.6,1.836-3.429,2.214-3.871a11.177,11.177,0,0,0,1.33-3.99c0-.709-.887-1.329-.887-1.329v-4.695a8.437,8.437,0,0,0-1.514-4.24c-2.16-2.94-5.886-3.155-6.927-3.155-.178,0-.277.006-.277.006s-.1-.006-.277-.006c-1,0-4.477.2-6.664,2.818a8.238,8.238,0,0,0-1.778,4.577v4.695s-.887.62-.887,1.329a11.165,11.165,0,0,0,1.33,3.99c.532.621,1.98,3.99,3.472,5.587v1.95s-.184.159-.5.425c-.391.327-.986.817-1.695,1.375a36.066,36.066,0,0,1-5.621,3.786c-3.1,1.507-7.271,3.281-7.448,4.256l-.54,4.76-.245,2.168h41.71Z" transform="translate(-76.655 -445.039)" fill="#ef6c00"/>
      </g>
      <g id="Grupo_92548" data-name="Grupo 92548" transform="translate(81.183 409.184)">
        <rect id="Rectngulo_34682" data-name="Rectngulo 34682" width="8.912" height="8.341" transform="translate(0 11.389)" fill="#ef6c00"/>
        <rect id="Rectngulo_34683" data-name="Rectngulo 34683" width="8.912" height="14.057" transform="translate(15.532 5.673)" fill="#ef6c00"/>
        <rect id="Rectngulo_34684" data-name="Rectngulo 34684" width="8.912" height="19.73" transform="translate(31.064)" fill="#ef6c00"/>
      </g>
    </g>
    <g id="Grupo_92550" data-name="Grupo 92550" transform="translate(-133.13 470.655)">
      <path id="Trazado_149061" data-name="Trazado 149061" d="M1419.433,450.888a10.1,10.1,0,0,0,4.9-1.262c-1.514-1.009-1.262-3.986-2.018-8.628s-5.685-4.563-5.685-4.563-4.929-.08-5.685,4.563-.505,7.619-2.018,8.628a10.1,10.1,0,0,0,4.9,1.262s.252,1.716-.455,2.422c-.53.53-4.011,1.146-5.906,1.975a12.462,12.462,0,0,0,18.338,0c-1.895-.829-5.375-1.445-5.906-1.975C1419.181,452.6,1419.433,450.888,1419.433,450.888Z" transform="translate(-28.474 -8.839)" fill="#ef6c00"/>
      <path id="Trazado_149062" data-name="Trazado 149062" d="M1339.187,450.1v-1.074a25.721,25.721,0,0,0,1.912-3.077,6.139,6.139,0,0,0,.733-2.2c0-.391-.489-.732-.489-.732v-2.584c-.44-4.342-4.8-4.068-4.8-4.068s-4.361-.274-4.8,4.068v2.584s-.489.342-.489.732a6.141,6.141,0,0,0,.733,2.2,25.73,25.73,0,0,0,1.912,3.077V450.1a27.327,27.327,0,0,1-4.3,3.076c-.945.459-2.069.962-2.9,1.412a12.57,12.57,0,0,0,9.794,4.746h.114a12.573,12.573,0,0,0,9.794-4.746c-.833-.45-1.957-.953-2.9-1.412A27.286,27.286,0,0,1,1339.187,450.1Z" transform="translate(-4.35 -8.818)" fill="#ef6c00"/>
      <path id="Trazado_149063" data-name="Trazado 149063" d="M1399.495,473.2v6.814h9.085v7.269h6.814v-7.269h9.086V473.2h-9.084v-9.238a20.1,20.1,0,1,0-6.815,0v9.24Zm3.124-38.367a13.25,13.25,0,1,1,0,18.738A13.265,13.265,0,0,1,1402.619,434.832Z" transform="translate(-23.837 -5.168)" fill="#ef6c00"/>
      <path id="Trazado_149064" data-name="Trazado 149064" d="M1341.842,406.845v6.815h11.046l-9.132,9.133a20.092,20.092,0,1,0,4.819,4.819l9.132-9.133v11.047h6.814v-22.68Zm-9.649,45.578a13.249,13.249,0,1,1,13.248-13.249A13.264,13.264,0,0,1,1332.193,452.423Z" fill="#ef6c00"/>
    </g>
    <g id="Grupo_92558" data-name="Grupo 92558" transform="translate(17.453 244.915)">
      <g id="Grupo_92551" data-name="Grupo 92551" transform="translate(498.75 417.634)">
        <path id="Trazado_149065" data-name="Trazado 149065" d="M517.34,455.487a17.872,17.872,0,1,0,32.24-10.612h-.9l0,0-2.328,1.993a14.1,14.1,0,1,1-2.3-2.345l1.974-2.313,0,0,0-.944a17.859,17.859,0,0,0-28.678,14.221Z" transform="translate(-504.907 -425.182)" fill="#3e2ea6"/>
        <path id="Trazado_149066" data-name="Trazado 149066" d="M564,433.894l1.171,1.171H568.5a30.607,30.607,0,0,0-4.5-4.536Z" transform="translate(-514.569 -423.715)" fill="#3e2ea6"/>
        <path id="Trazado_149067" data-name="Trazado 149067" d="M539.031,459.422a.569.569,0,0,1-.433-.938l2.719-3.186a4.535,4.535,0,1,0,1.22,1.3l-3.136,2.684A.569.569,0,0,1,539.031,459.422Z" transform="translate(-508.395 -428.67)" fill="#3e2ea6"/>
        <path id="Trazado_149068" data-name="Trazado 149068" d="M533.585,429.759a24.115,24.115,0,1,0,21.327,12.886l-.6.6H550.9a20.358,20.358,0,1,1-6.523-6.589l-.013-3.355.655-.654A23.949,23.949,0,0,0,533.585,429.759Z" transform="translate(-503.28 -423.555)" fill="#3e2ea6"/>
        <path id="Trazado_149069" data-name="Trazado 149069" d="M536.9,445.752A11.434,11.434,0,1,0,546,450.29l-2.881,2.466a7.652,7.652,0,1,1-1.578-1.638L544,448.239A11.362,11.362,0,0,0,536.9,445.752Z" transform="translate(-506.592 -426.867)" fill="#3e2ea6"/>
        <path id="Trazado_149070" data-name="Trazado 149070" d="M557.839,436.478l-2.764,2.763a26.534,26.534,0,1,1-9.9-9.99l2.755-2.755a30.315,30.315,0,1,0,9.9,9.982Z" transform="translate(-501.66 -421.935)" fill="#3e2ea6"/>
      </g>
      <g id="Grupo_92552" data-name="Grupo 92552" transform="translate(527.872 401.164)">
        <rect id="Rectngulo_34685" data-name="Rectngulo 34685" width="2.364" height="11.822" transform="translate(0)" fill="#3e2ea6"/>
      </g>
      <g id="Grupo_92553" data-name="Grupo 92553" transform="translate(487.677 423.607)">
        <rect id="Rectngulo_34686" data-name="Rectngulo 34686" width="2.364" height="11.822" transform="translate(0 2.048) rotate(-60)" fill="#3e2ea6"/>
      </g>
      <g id="Grupo_92554" data-name="Grupo 92554" transform="translate(487.607 464.752)">
        <rect id="Rectngulo_34687" data-name="Rectngulo 34687" width="11.822" height="2.364" transform="matrix(0.866, -0.5, 0.5, 0.866, 0, 5.911)" fill="#3e2ea6"/>
      </g>
      <g id="Grupo_92555" data-name="Grupo 92555" transform="translate(527.733 483.454)">
        <rect id="Rectngulo_34688" data-name="Rectngulo 34688" width="2.364" height="11.822" transform="translate(0)" fill="#3e2ea6"/>
      </g>
      <g id="Grupo_92556" data-name="Grupo 92556" transform="translate(558.872 464.873)">
        <rect id="Rectngulo_34689" data-name="Rectngulo 34689" width="2.364" height="11.822" transform="translate(0 2.048) rotate(-60)" fill="#3e2ea6"/>
      </g>
      <g id="Grupo_92557" data-name="Grupo 92557" transform="translate(558.942 423.728)">
        <rect id="Rectngulo_34690" data-name="Rectngulo 34690" width="11.822" height="2.364" transform="translate(0 5.911) rotate(-30.002)" fill="#3e2ea6"/>
      </g>
    </g>
  </g>
</svg>
