<svg xmlns="http://www.w3.org/2000/svg" width="45.047" height="45.051" viewBox="0 0 45.047 45.051">
  <g id="Grupo_88525" data-name="Grupo 88525" transform="translate(6379.566 1809.472)">
    <path id="Trazado_145508" data-name="Trazado 145508" d="M-6334.518-1786.945a22.524,22.524,0,0,1-22.526,22.523,22.521,22.521,0,0,1-22.521-22.523,22.525,22.525,0,0,1,22.521-22.527A22.527,22.527,0,0,1-6334.518-1786.945Z" transform="translate(0)" fill="#ef6c00"/>
    <path id="Trazado_145509" data-name="Trazado 145509" d="M-6357.844-1809.1a21.355,21.355,0,0,0-21.354,21.356,21.354,21.354,0,0,0,21.354,21.354,21.355,21.355,0,0,0,21.356-21.354A21.356,21.356,0,0,0-6357.844-1809.1Zm0,41.937a20.582,20.582,0,0,1-20.581-20.581,20.583,20.583,0,0,1,20.581-20.583,20.583,20.583,0,0,1,20.583,20.583A20.583,20.583,0,0,1-6357.844-1767.166Z" transform="translate(0.801 0.803)" fill="#0f0140"/>
    <path id="Trazado_145510" data-name="Trazado 145510" d="M-6346.561-1791.84a15.373,15.373,0,0,1-15.375,15.374,15.374,15.374,0,0,1-15.373-15.374,15.372,15.372,0,0,1,15.373-15.374A15.37,15.37,0,0,1-6346.561-1791.84Z" transform="translate(4.892 4.895)" fill="#0f0140"/>
    <path id="Trazado_145511" data-name="Trazado 145511" d="M-6348.1-1792.464A14.463,14.463,0,0,1-6362.561-1778a14.461,14.461,0,0,1-14.46-14.461,14.461,14.461,0,0,1,14.46-14.462A14.463,14.463,0,0,1-6348.1-1792.464Z" transform="translate(5.517 5.519)" fill="#ef6c00"/>
    <path id="Trazado_145512" data-name="Trazado 145512" d="M-6369.285-1786.552a14.552,14.552,0,0,1-5.171-1.2v-4.068a17.749,17.749,0,0,0,3.086,1.207,10.668,10.668,0,0,0,2.925.485,3.471,3.471,0,0,0,1.528-.254.871.871,0,0,0,.482-.836.859.859,0,0,0-.347-.688,5.552,5.552,0,0,0-1.163-.637q-.819-.356-2.2-.855a10.2,10.2,0,0,1-2.512-1.292,4.513,4.513,0,0,1-1.388-1.606,4.988,4.988,0,0,1-.436-2.211,3.984,3.984,0,0,1,1.3-3.158,6.885,6.885,0,0,1,3.9-1.41v-2.715h2.533v2.693a14.265,14.265,0,0,1,4.909,1.2l-1.457,3.488a11.438,11.438,0,0,0-4.616-1.15,2.864,2.864,0,0,0-1.378.238.777.777,0,0,0-.4.707.858.858,0,0,0,.289.665,3.9,3.9,0,0,0,1,.589q.709.323,1.971.754a9.517,9.517,0,0,1,3.675,2.062,4.111,4.111,0,0,1,1.115,2.981,4.487,4.487,0,0,1-1.305,3.345,6.351,6.351,0,0,1-3.8,1.59v3.278h-2.533Z" transform="translate(11.021 7.982)" fill="#0f0140"/>
  </g>
</svg>
