<svg xmlns="http://www.w3.org/2000/svg" width="274.646" height="141.839" viewBox="0 0 274.646 141.839">
  <g id="Grupo_88490" data-name="Grupo 88490" transform="translate(6984.725 1638.356)">
    <g id="Grupo_88436" data-name="Grupo 88436" transform="translate(-6898.703 -1638.356)">
      <g id="Grupo_88429" data-name="Grupo 88429" transform="translate(18.225 0)">
        <circle id="Elipse_4729" data-name="Elipse 4729" cx="24.248" cy="24.248" r="24.248" transform="translate(2.557 2.557)" fill="#1b1b25"/>
        <circle id="Elipse_4730" data-name="Elipse 4730" cx="24.248" cy="24.248" r="24.248" fill="#ffb54a"/>
        <path id="Trazado_145279" data-name="Trazado 145279" d="M-6706.936-1588a19.551,19.551,0,0,1-19.528-19.529,19.551,19.551,0,0,1,19.528-19.529,19.551,19.551,0,0,1,19.529,19.529A19.551,19.551,0,0,1-6706.936-1588Zm0-37.792a18.284,18.284,0,0,0-18.263,18.263,18.284,18.284,0,0,0,18.263,18.263,18.284,18.284,0,0,0,18.264-18.263A18.284,18.284,0,0,0-6706.936-1625.794Z" transform="translate(6731.183 1631.826)" fill="#fcf0e3"/>
        <g id="Grupo_88428" data-name="Grupo 88428" transform="translate(16.187 11.829)">
          <g id="Grupo_88427" data-name="Grupo 88427">
            <path id="Trazado_145280" data-name="Trazado 145280" d="M-6692.649-1589.1a13.846,13.846,0,0,1-3.528-.913,13.427,13.427,0,0,1-3.106-1.757l2.193-3.2a16.834,16.834,0,0,0,2.234,1.447,8.487,8.487,0,0,0,2.347.829v-4.469a19.3,19.3,0,0,1-2.656-.927,6.647,6.647,0,0,1-1.884-1.209,4.6,4.6,0,0,1-1.124-1.644,5.8,5.8,0,0,1-.379-2.178v-.056a5.237,5.237,0,0,1,.422-2.136,4.879,4.879,0,0,1,1.194-1.658,6.111,6.111,0,0,1,1.869-1.138,9.158,9.158,0,0,1,2.418-.577v-1.63h2.922v1.687a12.161,12.161,0,0,1,2.8.745,12.115,12.115,0,0,1,2.431,1.335l-1.883,3.288a16.014,16.014,0,0,0-1.714-1,8.69,8.69,0,0,0-1.771-.661v4.244a10.7,10.7,0,0,1,4.651,2.277,5.008,5.008,0,0,1,1.447,3.766v.056a5.091,5.091,0,0,1-.436,2.136,5.033,5.033,0,0,1-1.209,1.658,6.272,6.272,0,0,1-1.868,1.152,8.8,8.8,0,0,1-2.445.59v2.782h-2.922Zm.14-16.077a2.539,2.539,0,0,0-1.476.6,1.547,1.547,0,0,0-.464,1.138v.056a1.657,1.657,0,0,0,.394,1.11,3.761,3.761,0,0,0,1.546.885Zm2.642,12.62q2-.309,2-1.8v-.056a1.706,1.706,0,0,0-.422-1.195,4.063,4.063,0,0,0-1.574-.886Z" transform="translate(6699.283 1610.319)" fill="#1b1b25"/>
          </g>
        </g>
      </g>
      <g id="Grupo_88432" data-name="Grupo 88432" transform="translate(18.225 0)">
        <circle id="Elipse_4731" data-name="Elipse 4731" cx="24.248" cy="24.248" r="24.248" transform="translate(2.557 2.557)" fill="#0f0140"/>
        <circle id="Elipse_4732" data-name="Elipse 4732" cx="24.248" cy="24.248" r="24.248" fill="#ffb54a"/>
        <path id="Trazado_145281" data-name="Trazado 145281" d="M-6706.936-1588a19.551,19.551,0,0,1-19.528-19.529,19.551,19.551,0,0,1,19.528-19.529,19.551,19.551,0,0,1,19.529,19.529A19.551,19.551,0,0,1-6706.936-1588Zm0-37.792a18.284,18.284,0,0,0-18.263,18.263,18.284,18.284,0,0,0,18.263,18.263,18.284,18.284,0,0,0,18.264-18.263A18.284,18.284,0,0,0-6706.936-1625.794Z" transform="translate(6731.183 1631.826)" fill="#fcf0e3"/>
        <g id="Grupo_88431" data-name="Grupo 88431" transform="translate(16.187 11.829)">
          <g id="Grupo_88430" data-name="Grupo 88430">
            <path id="Trazado_145282" data-name="Trazado 145282" d="M-6692.649-1589.1a13.846,13.846,0,0,1-3.528-.913,13.427,13.427,0,0,1-3.106-1.757l2.193-3.2a16.834,16.834,0,0,0,2.234,1.447,8.487,8.487,0,0,0,2.347.829v-4.469a19.3,19.3,0,0,1-2.656-.927,6.647,6.647,0,0,1-1.884-1.209,4.6,4.6,0,0,1-1.124-1.644,5.8,5.8,0,0,1-.379-2.178v-.056a5.237,5.237,0,0,1,.422-2.136,4.879,4.879,0,0,1,1.194-1.658,6.111,6.111,0,0,1,1.869-1.138,9.158,9.158,0,0,1,2.418-.577v-1.63h2.922v1.687a12.161,12.161,0,0,1,2.8.745,12.115,12.115,0,0,1,2.431,1.335l-1.883,3.288a16.014,16.014,0,0,0-1.714-1,8.69,8.69,0,0,0-1.771-.661v4.244a10.7,10.7,0,0,1,4.651,2.277,5.008,5.008,0,0,1,1.447,3.766v.056a5.091,5.091,0,0,1-.436,2.136,5.033,5.033,0,0,1-1.209,1.658,6.272,6.272,0,0,1-1.868,1.152,8.8,8.8,0,0,1-2.445.59v2.782h-2.922Zm.14-16.077a2.539,2.539,0,0,0-1.476.6,1.547,1.547,0,0,0-.464,1.138v.056a1.657,1.657,0,0,0,.394,1.11,3.761,3.761,0,0,0,1.546.885Zm2.642,12.62q2-.309,2-1.8v-.056a1.706,1.706,0,0,0-.422-1.195,4.063,4.063,0,0,0-1.574-.886Z" transform="translate(6699.283 1610.319)" fill="#1b1b25"/>
          </g>
        </g>
      </g>
      <g id="Grupo_88435" data-name="Grupo 88435" transform="translate(6.184 0.897)">
        <circle id="Elipse_4733" data-name="Elipse 4733" cx="10.971" cy="10.971" r="10.971" transform="translate(1.157 1.157)" fill="#1b1b25"/>
        <circle id="Elipse_4734" data-name="Elipse 4734" cx="10.971" cy="10.971" r="10.971" fill="#ffb54a"/>
        <path id="Trazado_145283" data-name="Trazado 145283" d="M-6752.29-1613.447a8.847,8.847,0,0,1-8.836-8.837,8.847,8.847,0,0,1,8.836-8.836,8.846,8.846,0,0,1,8.836,8.836A8.846,8.846,0,0,1-6752.29-1613.447Zm0-17.1a8.273,8.273,0,0,0-8.264,8.263,8.273,8.273,0,0,0,8.264,8.264,8.273,8.273,0,0,0,8.263-8.264A8.273,8.273,0,0,0-6752.29-1630.547Z" transform="translate(6763.261 1633.276)" fill="#fcf0e3"/>
        <g id="Grupo_88434" data-name="Grupo 88434" transform="translate(7.325 5.352)">
          <g id="Grupo_88433" data-name="Grupo 88433">
            <path id="Trazado_145284" data-name="Trazado 145284" d="M-6745.825-1613.943a6.261,6.261,0,0,1-1.6-.413,6.072,6.072,0,0,1-1.4-.795l.992-1.45a7.624,7.624,0,0,0,1.012.655,3.842,3.842,0,0,0,1.062.375v-2.022a8.76,8.76,0,0,1-1.2-.42,3.021,3.021,0,0,1-.853-.547,2.092,2.092,0,0,1-.508-.744,2.619,2.619,0,0,1-.171-.986v-.026a2.356,2.356,0,0,1,.191-.966,2.219,2.219,0,0,1,.54-.751,2.768,2.768,0,0,1,.846-.515,4.134,4.134,0,0,1,1.094-.261v-.738h1.322v.763a5.479,5.479,0,0,1,1.265.337,5.461,5.461,0,0,1,1.1.6l-.852,1.488a7.275,7.275,0,0,0-.775-.451,3.922,3.922,0,0,0-.8-.3v1.92a4.84,4.84,0,0,1,2.1,1.03,2.267,2.267,0,0,1,.655,1.7v.026a2.31,2.31,0,0,1-.2.966,2.274,2.274,0,0,1-.548.75,2.846,2.846,0,0,1-.846.522,3.983,3.983,0,0,1-1.106.267v1.259h-1.322Zm.063-7.274a1.147,1.147,0,0,0-.668.273.7.7,0,0,0-.21.515v.025a.753.753,0,0,0,.178.5,1.706,1.706,0,0,0,.7.4Zm1.2,5.71q.9-.14.9-.814v-.025a.772.772,0,0,0-.19-.541,1.83,1.83,0,0,0-.712-.4Z" transform="translate(6748.826 1623.545)" fill="#1b1b25"/>
          </g>
        </g>
      </g>
      <path id="Trazado_145285" data-name="Trazado 145285" d="M-6776.08-1576.589h0a4.764,4.764,0,0,0-4.765-4.764h0a4.764,4.764,0,0,0,4.765-4.765h0a4.765,4.765,0,0,0,4.765,4.765h0A4.764,4.764,0,0,0-6776.08-1576.589Z" transform="translate(6780.845 1608.158)" fill="#fff"/>
      <path id="Trazado_145286" data-name="Trazado 145286" d="M-6641.687-1516.348h0a3.5,3.5,0,0,0-3.5-3.5h0a3.5,3.5,0,0,0,3.5-3.5h0a3.5,3.5,0,0,0,3.5,3.5h0A3.5,3.5,0,0,0-6641.687-1516.348Z" transform="translate(6702.423 1571.871)" fill="#fff"/>
      <path id="Trazado_145287" data-name="Trazado 145287" d="M-6699.915-1484.452h0a6.434,6.434,0,0,0-6.435-6.434h0a6.434,6.434,0,0,0,6.435-6.434h0a6.434,6.434,0,0,0,6.434,6.434h0A6.434,6.434,0,0,0-6699.915-1484.452Z" transform="translate(6737.781 1556.826)" fill="#fff"/>
      <path id="Trazado_145288" data-name="Trazado 145288" d="M-6646.713-1601h0a6.03,6.03,0,0,0-6.03-6.03h0a6.03,6.03,0,0,0,6.03-6.029h0a6.03,6.03,0,0,0,6.029,6.029h0A6.03,6.03,0,0,0-6646.713-1601Z" transform="translate(6706.792 1623.733)" fill="#fcf0e3"/>
      <path id="Trazado_145289" data-name="Trazado 145289" d="M-6595.238-1583.939h0a3.326,3.326,0,0,0-3.325-3.326h0a3.326,3.326,0,0,0,3.325-3.326h0a3.326,3.326,0,0,0,3.326,3.326h0A3.326,3.326,0,0,0-6595.238-1583.939Z" transform="translate(6675.472 1610.744)" fill="#fff"/>
    </g>
    <g id="Grupo_88448" data-name="Grupo 88448" transform="translate(-6984.725 -1627.524)">
      <path id="Trazado_145290" data-name="Trazado 145290" d="M-6892.438-1601.127h-37.045a6.9,6.9,0,0,0-6.9,6.9,6.9,6.9,0,0,0,6.9,6.9h30.53l4.2,3.827v-3.827h2.316a6.9,6.9,0,0,0,6.9-6.9A6.9,6.9,0,0,0-6892.438-1601.127Z" transform="translate(6956.779 1606.003)" fill="#3e2ea6"/>
      <path id="Trazado_145291" data-name="Trazado 145291" d="M-6919.584-1592.333a2.182,2.182,0,0,0,.79-1.683,2.186,2.186,0,0,0-2.186-2.187,2.187,2.187,0,0,0-2.187,2.188,2.183,2.183,0,0,0,.791,1.683,4.053,4.053,0,0,0-2.66,3.8c0,2.24,8.112,2.24,8.112,0A4.054,4.054,0,0,0-6919.584-1592.333Z" transform="translate(6950.22 1603.156)" fill="#ffb54a"/>
      <g id="Grupo_88437" data-name="Grupo 88437" transform="translate(38.049 8.162)">
        <path id="Trazado_145292" data-name="Trazado 145292" d="M-6867.791-1592.915h-26.544a.211.211,0,0,1-.211-.211.211.211,0,0,1,.211-.211h26.544a.211.211,0,0,1,.211.211A.211.211,0,0,1-6867.791-1592.915Z" transform="translate(6894.546 1593.337)" fill="#fff"/>
        <path id="Trazado_145293" data-name="Trazado 145293" d="M-6871.908-1578.153h-22.427a.211.211,0,0,1-.211-.211.211.211,0,0,1,.211-.211h22.427a.211.211,0,0,1,.211.211A.21.21,0,0,1-6871.908-1578.153Z" transform="translate(6894.546 1584.803)" fill="#fff"/>
        <path id="Trazado_145294" data-name="Trazado 145294" d="M-6878.016-1585.067h-16.319a.211.211,0,0,1-.211-.211.211.211,0,0,1,.211-.211h16.319a.211.211,0,0,1,.211.211A.211.211,0,0,1-6878.016-1585.067Z" transform="translate(6894.546 1588.8)" fill="#fff"/>
        <path id="Trazado_145295" data-name="Trazado 145295" d="M-6842.643-1585.067h-8.191a.211.211,0,0,1-.21-.211.211.211,0,0,1,.21-.211h8.191a.211.211,0,0,1,.211.211A.211.211,0,0,1-6842.643-1585.067Z" transform="translate(6869.398 1588.8)" fill="#fff"/>
      </g>
      <path id="Trazado_145296" data-name="Trazado 145296" d="M-6912.249-1586.059a.631.631,0,0,1-.447-.186l-1.59-1.59a.633.633,0,0,1,0-.9.633.633,0,0,1,.9,0l1.142,1.142,3.069-3.069a.632.632,0,0,1,.895,0,.631.631,0,0,1,0,.895l-3.516,3.517A.633.633,0,0,1-6912.249-1586.059Z" transform="translate(6944.113 1600.057)" fill="#fff"/>
      <g id="Grupo_88443" data-name="Grupo 88443" transform="translate(222.483 40.803)">
        <path id="Trazado_145297" data-name="Trazado 145297" d="M-6450.338-1515.976h38.007a7.078,7.078,0,0,1,7.078,7.078,7.078,7.078,0,0,1-7.078,7.078h-31.322l-4.309,3.927v-3.927h-2.376a7.079,7.079,0,0,1-7.078-7.078A7.079,7.079,0,0,1-6450.338-1515.976Z" transform="translate(6457.416 1515.976)" fill="#ffb54a"/>
        <g id="Grupo_88441" data-name="Grupo 88441" transform="translate(38.783 2.167)">
          <g id="Grupo_88440" data-name="Grupo 88440">
            <g id="Grupo_88439" data-name="Grupo 88439">
              <path id="Trazado_145298" data-name="Trazado 145298" d="M-6360.045-1506.969a2.182,2.182,0,0,0,.791-1.683,2.187,2.187,0,0,0-2.187-2.187,2.187,2.187,0,0,0-2.187,2.187,2.183,2.183,0,0,0,.792,1.683,4.053,4.053,0,0,0-2.66,3.8c0,2.24,8.112,2.24,8.112,0A4.053,4.053,0,0,0-6360.045-1506.969Z" transform="translate(6365.497 1510.839)" fill="#4e69ff"/>
              <g id="Grupo_88438" data-name="Grupo 88438" transform="translate(5.115 3.834)">
                <path id="Trazado_145299" data-name="Trazado 145299" d="M-6349.707-1500.5h-1.047v-1.048a.206.206,0,0,0-.206-.205h-.956a.206.206,0,0,0-.206.205v1.048h-1.047a.206.206,0,0,0-.206.206v.956a.205.205,0,0,0,.206.206h1.047v1.048a.206.206,0,0,0,.206.205h.956a.206.206,0,0,0,.206-.205v-1.048h1.047a.206.206,0,0,0,.206-.206v-.956A.206.206,0,0,0-6349.707-1500.5Z" transform="translate(6353.375 1501.753)" fill="#fff"/>
              </g>
            </g>
          </g>
        </g>
        <g id="Grupo_88442" data-name="Grupo 88442" transform="translate(8.708 3.799)">
          <path id="Trazado_145300" data-name="Trazado 145300" d="M-6410.023-1506.551h-26.544a.211.211,0,0,1-.211-.211.211.211,0,0,1,.211-.211h26.544a.211.211,0,0,1,.211.211A.211.211,0,0,1-6410.023-1506.551Z" transform="translate(6436.778 1506.973)" fill="#fff"/>
          <path id="Trazado_145301" data-name="Trazado 145301" d="M-6414.141-1491.789h-22.426a.211.211,0,0,1-.211-.211.211.211,0,0,1,.211-.211h22.426a.211.211,0,0,1,.211.211A.211.211,0,0,1-6414.141-1491.789Z" transform="translate(6436.778 1498.44)" fill="#fff"/>
          <path id="Trazado_145302" data-name="Trazado 145302" d="M-6420.248-1498.7h-16.319a.211.211,0,0,1-.211-.211.211.211,0,0,1,.211-.211h16.319a.211.211,0,0,1,.211.211A.211.211,0,0,1-6420.248-1498.7Z" transform="translate(6436.778 1502.436)" fill="#fff"/>
          <path id="Trazado_145303" data-name="Trazado 145303" d="M-6384.876-1498.7h-8.19a.211.211,0,0,1-.211-.211.211.211,0,0,1,.211-.211h8.19a.211.211,0,0,1,.211.211A.211.211,0,0,1-6384.876-1498.7Z" transform="translate(6411.631 1502.436)" fill="#fff"/>
        </g>
      </g>
      <g id="Grupo_88445" data-name="Grupo 88445" transform="translate(176.911 0)">
        <path id="Trazado_145304" data-name="Trazado 145304" d="M-6560.551-1612.683h26.182a4.876,4.876,0,0,1,4.876,4.876,4.876,4.876,0,0,1-4.876,4.875h-26.182a4.875,4.875,0,0,1-4.876-4.875A4.876,4.876,0,0,1-6560.551-1612.683Z" transform="translate(6565.427 1612.683)" fill="#3e2ea6"/>
        <g id="Grupo_88444" data-name="Grupo 88444" transform="translate(7.592 2.85)">
          <path id="Trazado_145305" data-name="Trazado 145305" d="M-6526.924-1605.506h-20.3a.211.211,0,0,1-.211-.211.211.211,0,0,1,.211-.211h20.3a.211.211,0,0,1,.211.211A.211.211,0,0,1-6526.924-1605.506Z" transform="translate(6547.434 1605.928)" fill="#3e2ea6"/>
          <path id="Trazado_145306" data-name="Trazado 145306" d="M-6530.073-1596.764h-17.15a.211.211,0,0,1-.211-.211.211.211,0,0,1,.211-.211h17.15a.211.211,0,0,1,.211.211A.21.21,0,0,1-6530.073-1596.764Z" transform="translate(6547.434 1600.875)" fill="#3e2ea6"/>
          <path id="Trazado_145307" data-name="Trazado 145307" d="M-6534.743-1600.859h-12.48a.211.211,0,0,1-.211-.211.211.211,0,0,1,.211-.211h12.48a.211.211,0,0,1,.211.211A.211.211,0,0,1-6534.743-1600.859Z" transform="translate(6547.434 1603.242)" fill="#3e2ea6"/>
          <path id="Trazado_145308" data-name="Trazado 145308" d="M-6507.692-1600.859h-6.263a.211.211,0,0,1-.211-.211.211.211,0,0,1,.211-.211h6.263a.211.211,0,0,1,.211.211A.211.211,0,0,1-6507.692-1600.859Z" transform="translate(6528.203 1603.242)" fill="#3e2ea6"/>
        </g>
      </g>
      <g id="Grupo_88447" data-name="Grupo 88447" transform="translate(0 69.124)">
        <path id="Trazado_145309" data-name="Trazado 145309" d="M-6980.39-1448.852h23.28a4.335,4.335,0,0,1,4.335,4.335,4.335,4.335,0,0,1-4.335,4.336h-23.28a4.336,4.336,0,0,1-4.336-4.336A4.335,4.335,0,0,1-6980.39-1448.852Z" transform="translate(6984.726 1448.852)" fill="#ffb54a"/>
        <g id="Grupo_88446" data-name="Grupo 88446" transform="translate(6.727 2.511)">
          <path id="Trazado_145310" data-name="Trazado 145310" d="M-6950.52-1442.479h-18.05a.211.211,0,0,1-.211-.211.211.211,0,0,1,.211-.211h18.05a.211.211,0,0,1,.21.211A.211.211,0,0,1-6950.52-1442.479Z" transform="translate(6968.781 1442.901)" fill="#fff"/>
          <path id="Trazado_145311" data-name="Trazado 145311" d="M-6953.32-1434.706h-15.25a.211.211,0,0,1-.211-.211.211.211,0,0,1,.211-.211h15.25a.211.211,0,0,1,.211.211A.211.211,0,0,1-6953.32-1434.706Z" transform="translate(6968.781 1438.408)" fill="#fff"/>
          <path id="Trazado_145312" data-name="Trazado 145312" d="M-6957.473-1438.347h-11.1a.211.211,0,0,1-.211-.211.211.211,0,0,1,.211-.211h11.1a.211.211,0,0,1,.211.211A.211.211,0,0,1-6957.473-1438.347Z" transform="translate(6968.781 1440.512)" fill="#fff"/>
          <path id="Trazado_145313" data-name="Trazado 145313" d="M-6933.421-1438.347h-5.569a.211.211,0,0,1-.211-.211.211.211,0,0,1,.211-.211h5.569a.211.211,0,0,1,.211.211A.211.211,0,0,1-6933.421-1438.347Z" transform="translate(6951.681 1440.512)" fill="#fff"/>
        </g>
      </g>
    </g>
    <g id="Grupo_88470" data-name="Grupo 88470" transform="translate(-6844.672 -1610.4)">
      <g id="Grupo_88454" data-name="Grupo 88454" transform="translate(0 6.624)">
        <g id="Grupo_88453" data-name="Grupo 88453">
          <g id="Grupo_88452" data-name="Grupo 88452">
            <g id="Grupo_88450" data-name="Grupo 88450">
              <path id="Trazado_145314" data-name="Trazado 145314" d="M-6632.032-1511.383l.014-.048,6.108-21.251-.026-.02a7.64,7.64,0,0,1,2.444-2.708,7.07,7.07,0,0,0,2.819-4.666c1.345-1.3,2.86-2.412,4.233-3.683a.976.976,0,0,0,.334-.469.816.816,0,0,0-.174-.61,2.425,2.425,0,0,0-3.094-.717,7.589,7.589,0,0,0-1.734,1.133,8.645,8.645,0,0,0-1.375,1.175l4.859-10.375a1.728,1.728,0,0,0-.627-2.336h0a1.444,1.444,0,0,0-1.227.025,1.958,1.958,0,0,0-.676.538l.024-.121c-5.691-4.786-12.713,11.5-12.713,11.5l-1.993,4.7-16.9,31.34a9.105,9.105,0,0,0,4.069,12.421h0c.067.033.135.061.2.092a9.178,9.178,0,0,0,4.6,1.232h33.265l7.168-17.036Zm9.478-31.708Z" transform="translate(6652.786 1556.397)" fill="#fec29e"/>
              <g id="Grupo_88449" data-name="Grupo 88449" transform="translate(14.467 44.966)">
                <path id="Trazado_145315" data-name="Trazado 145315" d="M-6607.024-1441.844l-.852,2.962C-6607.566-1439.906-6607.276-1440.91-6607.024-1441.844Z" transform="translate(6612.357 1445.211)" fill="none"/>
                <path id="Trazado_145316" data-name="Trazado 145316" d="M-6617.907-1409.094Z" transform="translate(6618.497 1426.289)" fill="#ff887c" opacity="0.17"/>
                <path id="Trazado_145317" data-name="Trazado 145317" d="M-6617.085-1409.069l.272.009Z" transform="translate(6617.681 1426.264)" fill="#ff887c" opacity="0.17"/>
                <path id="Trazado_145318" data-name="Trazado 145318" d="M-6611.007-1449.824l-.968,3.367c-.251.934-.542,1.938-.852,2.962l-1.169,4.069a9.184,9.184,0,0,1-.606,1.484c-1.007,3.012-1.837,5.322-1.837,5.322l11.963-17.129C-6607.453-1449.749-6608.135-1449.821-6611.007-1449.824Z" transform="translate(6617.308 1449.824)" fill="#ff887c" opacity="0.17"/>
                <path id="Trazado_145319" data-name="Trazado 145319" d="M-6617.1-1409.069h0Z" transform="translate(6617.688 1426.264)" fill="#ff887c" opacity="0.17"/>
              </g>
              <path id="Trazado_145320" data-name="Trazado 145320" d="M-6592.438-1525.566a.211.211,0,0,1-.125-.041.211.211,0,0,1-.045-.3,3.866,3.866,0,0,1,5-1.308.21.21,0,0,1,.08.286.21.21,0,0,1-.286.082,3.4,3.4,0,0,0-4.46,1.19A.209.209,0,0,1-6592.438-1525.566Z" transform="translate(6618.021 1539.775)" fill="#fb8e77"/>
              <path id="Trazado_145321" data-name="Trazado 145321" d="M-6580.98-1554.4a32.223,32.223,0,0,0-2.416,3.476,15.763,15.763,0,0,0-.96,1.869,4.605,4.605,0,0,0-.452,1.964v.013a.21.21,0,0,1-.2.222.211.211,0,0,1-.222-.2v-.005a4.946,4.946,0,0,1,.524-2.144,16.113,16.113,0,0,1,1.02-1.895,32.542,32.542,0,0,1,2.511-3.462.125.125,0,0,1,.177-.017.127.127,0,0,1,.019.175Z" transform="translate(6613.733 1555.364)" fill="#fb8e77"/>
              <path id="Trazado_145322" data-name="Trazado 145322" d="M-6585.062-1555.883a7.976,7.976,0,0,0-1.5,1.418,12.669,12.669,0,0,0-1.194,1.71,15.082,15.082,0,0,0-.913,1.879c-.138.32-.242.655-.363.981l-.3,1,0,.012a.211.211,0,0,1-.263.141.21.21,0,0,1-.141-.263v0l.328-1.018c.131-.332.244-.671.391-1a15.445,15.445,0,0,1,.972-1.907,12.89,12.89,0,0,1,1.259-1.732,8.127,8.127,0,0,1,1.6-1.445.131.131,0,0,1,.181.037.132.132,0,0,1-.035.18Z" transform="translate(6616.349 1556.242)" fill="#fb8e77"/>
              <path id="Trazado_145323" data-name="Trazado 145323" d="M-6589.612-1555.452a20.581,20.581,0,0,0-2.21,2.73,11.8,11.8,0,0,0-.871,1.511,6.153,6.153,0,0,0-.532,1.621v.005a.211.211,0,0,1-.241.176.211.211,0,0,1-.176-.241v-.005a6.553,6.553,0,0,1,.61-1.721,12.128,12.128,0,0,1,.935-1.534,20.84,20.84,0,0,1,2.312-2.716.123.123,0,0,1,.174,0,.124.124,0,0,1,0,.172Z" transform="translate(6618.598 1555.973)" fill="#fb8e77"/>
            </g>
            <g id="Grupo_88451" data-name="Grupo 88451" transform="translate(29.695 44.952)">
              <path id="Trazado_145324" data-name="Trazado 145324" d="M-6514.572-1418.851l-8.16-22.242c-.971-4.881-5.614-8.581-11.2-8.581l-22.793-.181-25.68.1v17.12h7.969l-4.113,44.65,56.547.32-.317-30.235Z" transform="translate(6582.405 1449.856)" fill="#0f0140"/>
              <path id="Trazado_145325" data-name="Trazado 145325" d="M-6554.767-1379.024" transform="translate(6566.428 1408.91)" fill="#0f0140"/>
            </g>
            <path id="Trazado_145326" data-name="Trazado 145326" d="M-6556.77-1449.665l.045-.191-25.68.1v17.12h7.969l.042-.452C-6574.394-1442.125-6566.539-1449.467-6556.77-1449.665Z" transform="translate(6612.1 1494.808)" fill="#1b1b25" opacity="0.05"/>
            <path id="Trazado_145327" data-name="Trazado 145327" d="M-6598.563-1508.118s1.441,12.242,1.526,11.947,2.473-8.6,2.473-8.6Z" transform="translate(6621.441 1528.488)" fill="#ff887c" opacity="0.18"/>
          </g>
        </g>
      </g>
      <g id="Grupo_88457" data-name="Grupo 88457" transform="translate(40.754 68.23)">
        <g id="Grupo_88455" data-name="Grupo 88455">
          <path id="Trazado_145328" data-name="Trazado 145328" d="M-6540.411-1389.644l-2.158-10.877-1.665-8.392a1.835,1.835,0,0,0-2.151-1.438l-8.334,1.654a1.835,1.835,0,0,0-1.439,2.151l1.675,8.446,1.33,6.7.818,4.123a1.835,1.835,0,0,0,2.151,1.439l4.923-.977,3.413-.677A1.835,1.835,0,0,0-6540.411-1389.644Z" transform="translate(6556.194 1410.386)" fill="#1b1b25"/>
        </g>
        <g id="Grupo_88456" data-name="Grupo 88456" transform="translate(0.356 9.865)">
          <path id="Trazado_145329" data-name="Trazado 145329" d="M-6495.555-1366.1l-3.759-16.367-17.09,2.091.939,4.164-.087-.021-18.578-4.6-.016.023a6.219,6.219,0,0,1-2.323-2.135,5.561,5.561,0,0,0-4.174-2.391c-.5-.528-.974-1.093-1.438-1.662l.436,2.194-.109.057a7.037,7.037,0,0,1-3.846.8l-8.169-.638a1.244,1.244,0,0,0-1.222.7c-2.391,5.026,7.875,9.624,10.217,10.6h0l.083.034.1.04.089.036.075.03.07.028.027.011.035.013,4.018,1.506,31.807,15.656a9.2,9.2,0,0,0,.9.372,7.938,7.938,0,0,0,5.1.527h0A9.226,9.226,0,0,0-6495.555-1366.1Z" transform="translate(6555.35 1387.005)" fill="#fec29e"/>
          <path id="Trazado_145330" data-name="Trazado 145330" d="M-6443.406-1362.306l-19.636-9c.655,2.856.273,1.6.851,4.142l1.336.331C-6455.2-1366.452-6443.406-1362.306-6443.406-1362.306Z" transform="translate(6501.988 1377.93)" fill="#ff887c" opacity="0.17"/>
        </g>
        <path id="Trazado_145331" data-name="Trazado 145331" d="M-6470.455-1387.667a.211.211,0,0,1-.206-.168l-2.453-11.885a.21.21,0,0,1,.164-.249.211.211,0,0,1,.25.163l2.413,11.693,8.264-1.052a.211.211,0,0,1,.236.182.211.211,0,0,1-.183.236l-8.458,1.076Z" transform="translate(6508.17 1404.367)" fill="#1b1b25" opacity="0.35"/>
      </g>
      <g id="Grupo_88458" data-name="Grupo 88458" transform="translate(99.693 93.718)">
        <path id="Trazado_145332" data-name="Trazado 145332" d="M-6416.185-1348.372l.034.168Z" transform="translate(6416.319 1349.048)" fill="#ff887c" opacity="0.17"/>
        <path id="Trazado_145333" data-name="Trazado 145333" d="M-6416.106-1347.973c0,.01,0,.012,0,0Z" transform="translate(6416.273 1348.818)" fill="#ff887c" opacity="0.17"/>
        <path id="Trazado_145334" data-name="Trazado 145334" d="M-6416.5-1349.975s.045.229.089.451C-6416.437-1349.644-6416.465-1349.786-6416.5-1349.975Z" transform="translate(6416.502 1349.975)" fill="#ff887c" opacity="0.17"/>
        <path id="Trazado_145335" data-name="Trazado 145335" d="M-6416.291-1348.906l.044.225C-6416.259-1348.748-6416.275-1348.825-6416.291-1348.906Z" transform="translate(6416.38 1349.357)" fill="#ff887c" opacity="0.17"/>
      </g>
      <g id="Grupo_88469" data-name="Grupo 88469" transform="translate(45.992)">
        <g id="Grupo_88460" data-name="Grupo 88460">
          <path id="Trazado_145336" data-name="Trazado 145336" d="M-6513.238-1564.4a6.73,6.73,0,0,0-7.413-5.723,6.711,6.711,0,0,0-2.636.877,5.93,5.93,0,0,0-5.729-2.809,5.9,5.9,0,0,0-3.453,1.633,7.772,7.772,0,0,0-4.373-.779,7.818,7.818,0,0,0-6.89,8.647,7.781,7.781,0,0,0,2.6,4.984l-1.589,8.488a4.489,4.489,0,0,0,3.586,5.238l18.828,3.525a4.489,4.489,0,0,0,5.237-3.586l3.085-16.478A4.483,4.483,0,0,0-6513.238-1564.4Z" transform="translate(6543.781 1572.097)" fill="#1b1b25"/>
          <g id="Grupo_88459" data-name="Grupo 88459" transform="translate(1.699 3.427)">
            <path id="Trazado_145337" data-name="Trazado 145337" d="M-6538.351-1555.067a.212.212,0,0,1-.179-.1,6.329,6.329,0,0,1,1.317-8.769.21.21,0,0,1,.293.048.211.211,0,0,1-.048.294c-.18.129-4.353,3.219-1.206,8.2a.211.211,0,0,1-.066.291A.21.21,0,0,1-6538.351-1555.067Z" transform="translate(6539.752 1563.974)" fill="#fcf0e3"/>
          </g>
        </g>
        <g id="Grupo_88462" data-name="Grupo 88462" transform="translate(0.494 14.235)">
          <g id="Grupo_88461" data-name="Grupo 88461">
            <path id="Trazado_145338" data-name="Trazado 145338" d="M-6515.605-1528.26l-.412-.077-4.156-8.933a6.722,6.722,0,0,1-2.812-1.087,5.055,5.055,0,0,1-3.154,1.6,5.06,5.06,0,0,1-3.991-1.3,7.776,7.776,0,0,1-4.274,1.894,7.786,7.786,0,0,1-5.162-1.229l-2.9,15.466a8.52,8.52,0,0,0,1.073,5.96,8.651,8.651,0,0,0,6.088,5.2v10.213a6.469,6.469,0,0,0,6.45,6.45h2.035a6.47,6.47,0,0,0,6.45-6.45v-11.6a8.616,8.616,0,0,0,2.11-4.228l.528-2.824.412.077a4.533,4.533,0,0,0,5.274-3.612l.047-.248A4.533,4.533,0,0,0-6515.605-1528.26Z" transform="translate(6542.609 1538.358)" fill="#fec29e"/>
          </g>
          <path id="Trazado_145339" data-name="Trazado 145339" d="M-6517.015-1493.809l-.377,2.015a8.562,8.562,0,0,1-9.991,6.84l-6.57-1.23a8.533,8.533,0,0,1-5.767-4.03,8.657,8.657,0,0,0,6.44,5.283l.262.049a6.464,6.464,0,0,0,5.808,3.669h2.06a6.471,6.471,0,0,0,6.276-4.987,8.62,8.62,0,0,0,2.288-4.427l.529-2.824Z" transform="translate(6540.939 1512.605)" fill="#ff887c" opacity="0.32"/>
        </g>
        <g id="Grupo_88468" data-name="Grupo 88468" transform="translate(1.735 19.78)">
          <path id="Trazado_145340" data-name="Trazado 145340" d="M-6480.29-1505.011a.213.213,0,0,1-.129-.044l-1.642-1.274a.215.215,0,0,1-.081-.157.213.213,0,0,1,.065-.163l2.024-1.911a.212.212,0,0,1,.3.008.212.212,0,0,1-.009.3l-1.846,1.741,1.447,1.124a.211.211,0,0,1,.037.3A.21.21,0,0,1-6480.29-1505.011Z" transform="translate(6506.413 1515.621)" fill="#fb8e77"/>
          <g id="Grupo_88467" data-name="Grupo 88467" transform="translate(0)">
            <g id="Grupo_88466" data-name="Grupo 88466" transform="translate(2.032)">
              <g id="Grupo_88465" data-name="Grupo 88465">
                <g id="Grupo_88463" data-name="Grupo 88463" transform="translate(9.739)">
                  <path id="Trazado_145341" data-name="Trazado 145341" d="M-6507.856-1522.456a2.5,2.5,0,0,1-.969-.369c-.324-.176-.655-.344-.947-.48s-.635-.282-.978-.418a2.477,2.477,0,0,1-.9-.5c-.2-.223-.162-.575.31-.81a2.86,2.86,0,0,1,2.334.16,2.772,2.772,0,0,1,1.6,1.674C-6507.3-1522.7-6507.552-1522.444-6507.856-1522.456Z" transform="translate(6511.768 1525.216)" fill="#1b1b25"/>
                </g>
                <g id="Grupo_88464" data-name="Grupo 88464" transform="translate(0 0.349)">
                  <path id="Trazado_145342" data-name="Trazado 145342" d="M-6534.624-1523.136a2.811,2.811,0,0,0,1.015.21c.367.031.736.072,1.055.116s.687.108,1.048.178a2.8,2.8,0,0,0,1.031.077c.289-.065.44-.344.165-.752a3.061,3.061,0,0,0-2.062-1.042,2.944,2.944,0,0,0-2.236.44C-6534.969-1523.59-6534.887-1523.278-6534.624-1523.136Z" transform="translate(6534.851 1524.39)" fill="#1b1b25"/>
                </g>
              </g>
            </g>
            <rect id="Rectángulo_34290" data-name="Rectángulo 34290" width="1.073" height="1.724" rx="0.537" transform="matrix(-0.983, -0.184, 0.184, -0.983, 13.122, 6.467)" fill="#1b1b25"/>
            <rect id="Rectángulo_34291" data-name="Rectángulo 34291" width="1.073" height="1.724" rx="0.537" transform="matrix(-0.983, -0.184, 0.184, -0.983, 4.028, 4.99)" fill="#1b1b25"/>
            <rect id="Rectángulo_34292" data-name="Rectángulo 34292" width="3.172" height="1.329" rx="0.665" transform="translate(15.466 9.066) rotate(-173.583)" fill="#ff887c" opacity="0.17"/>
            <rect id="Rectángulo_34293" data-name="Rectángulo 34293" width="3.172" height="1.329" rx="0.665" transform="matrix(-0.994, -0.112, 0.112, -0.994, 3.152, 7.126)" fill="#ff887c" opacity="0.17"/>
            <path id="Trazado_145343" data-name="Trazado 145343" d="M-6525.538-1487.373a.209.209,0,0,1-.17-.087.211.211,0,0,1,.045-.295,2,2,0,0,1,2.275,0,.211.211,0,0,1,.052.293.212.212,0,0,1-.293.053,1.582,1.582,0,0,0-1.785,0A.207.207,0,0,1-6525.538-1487.373Z" transform="translate(6531.621 1503.769)" fill="#fb8e77"/>
            <path id="Trazado_145344" data-name="Trazado 145344" d="M-6521.867-1501.535l4.935-.7-.541,1.714a2.636,2.636,0,0,1-2.514,1.843h0a1.752,1.752,0,0,1-1.742-1.565Z" transform="translate(6529.377 1511.934)" fill="#fff"/>
            <path id="Trazado_145345" data-name="Trazado 145345" d="M-6523.221-1515.45a.213.213,0,0,1-.053-.007l-1.53-.4a2.139,2.139,0,0,1-1.437-1.236,2.137,2.137,0,0,1,.1-1.892l2.33-4.194a.211.211,0,0,1,.287-.082.211.211,0,0,1,.082.287l-2.329,4.193a1.716,1.716,0,0,0-.078,1.521,1.718,1.718,0,0,0,1.155.994l1.53.4a.21.21,0,0,1,.15.257A.21.21,0,0,1-6523.221-1515.45Z" transform="translate(6532.007 1524.1)" fill="#fb8e77"/>
          </g>
        </g>
      </g>
    </g>
    <g id="Grupo_88489" data-name="Grupo 88489" transform="translate(-6955.486 -1600.095)">
      <g id="Grupo_88474" data-name="Grupo 88474" transform="translate(3.27 0)">
        <g id="Grupo_88473" data-name="Grupo 88473">
          <g id="Grupo_88471" data-name="Grupo 88471" transform="translate(56.761)">
            <path id="Trazado_145346" data-name="Trazado 145346" d="M-6737.5-1499.166l-16.9-31.339-1.993-4.7s-7.022-16.288-12.713-11.5l.023.121a1.951,1.951,0,0,0-.675-.538,1.446,1.446,0,0,0-1.229-.025h0a1.728,1.728,0,0,0-.627,2.336l4.859,10.376a8.546,8.546,0,0,0-1.375-1.176,7.5,7.5,0,0,0-1.733-1.132,2.424,2.424,0,0,0-3.094.717.818.818,0,0,0-.174.611.973.973,0,0,0,.334.469c1.374,1.271,2.889,2.382,4.233,3.683a7.072,7.072,0,0,0,2.819,4.666,7.635,7.635,0,0,1,2.444,2.708l-.026.02,6.122,21.3-8.941.12v17.036h19.773a9.183,9.183,0,0,0,4.609-1.235c.065-.03.13-.057.194-.089h0A9.106,9.106,0,0,0-6737.5-1499.166Z" transform="translate(6773.145 1547.626)" fill="#fec29e"/>
            <path id="Trazado_145347" data-name="Trazado 145347" d="M-6738.881-1423.814h0s-4.6-12.362-5.385-17.2c-3.044,0-3.507.135-6.552.135Z" transform="translate(6760.238 1486.019)" fill="#ff887c" opacity="0.17"/>
            <path id="Trazado_145348" data-name="Trazado 145348" d="M-6753.589-1516.759a.209.209,0,0,1-.17-.086,3.4,3.4,0,0,0-4.459-1.19.212.212,0,0,1-.287-.081.211.211,0,0,1,.081-.287,3.867,3.867,0,0,1,5,1.307.212.212,0,0,1-.044.3A.208.208,0,0,1-6753.589-1516.759Z" transform="translate(6764.698 1531.004)" fill="#fb8e77"/>
            <path id="Trazado_145349" data-name="Trazado 145349" d="M-6763.664-1545.767a17.735,17.735,0,0,1,1.421,1.62,17.472,17.472,0,0,1,1.223,1.776,13.008,13.008,0,0,1,.945,1.951,8.3,8.3,0,0,1,.475,2.137.21.21,0,0,1-.194.227.211.211,0,0,1-.227-.194v-.012a7.954,7.954,0,0,0-.411-2.031,12.706,12.706,0,0,0-.879-1.91,17.2,17.2,0,0,0-1.165-1.767,17.647,17.647,0,0,0-1.365-1.619l0,0a.125.125,0,0,1,0-.177A.126.126,0,0,1-6763.664-1545.767Z" transform="translate(6767.789 1546.593)" fill="#fb8e77"/>
            <path id="Trazado_145350" data-name="Trazado 145350" d="M-6760.25-1547.66a5.556,5.556,0,0,1,1.664,1.442,11.431,11.431,0,0,1,1.213,1.808,18.848,18.848,0,0,1,.935,1.96l.383,1.014.341,1.029a.211.211,0,0,1-.134.267.211.211,0,0,1-.267-.134v0l0-.01-.317-1.018-.358-1a18.168,18.168,0,0,0-.88-1.937,11.106,11.106,0,0,0-1.147-1.781,5.364,5.364,0,0,0-1.531-1.391l-.02-.011a.129.129,0,0,1-.053-.176A.13.13,0,0,1-6760.25-1547.66Z" transform="translate(6765.801 1547.674)" fill="#fb8e77"/>
            <path id="Trazado_145351" data-name="Trazado 145351" d="M-6754.77-1546.831a10.553,10.553,0,0,1,1.289,1.256,12.183,12.183,0,0,1,1.084,1.432,11.475,11.475,0,0,1,.869,1.577,12.009,12.009,0,0,1,.623,1.695.212.212,0,0,1-.142.262.211.211,0,0,1-.263-.141v0l0-.01a11.389,11.389,0,0,0-.559-1.649,11.09,11.09,0,0,0-.805-1.551,11.865,11.865,0,0,0-1.022-1.422,10.226,10.226,0,0,0-1.22-1.25l0,0a.123.123,0,0,1-.014-.174A.123.123,0,0,1-6754.77-1546.831Z" transform="translate(6762.638 1547.202)" fill="#fb8e77"/>
            <path id="Trazado_145352" data-name="Trazado 145352" d="M-6751.685-1495.344l6.532-.806-4.039,8.034S-6750.395-1494.09-6751.685-1495.344Z" transform="translate(6760.74 1517.889)" fill="#ff887c" opacity="0.18"/>
          </g>
          <g id="Grupo_88472" data-name="Grupo 88472" transform="translate(0 45.085)">
            <path id="Trazado_145353" data-name="Trazado 145353" d="M-6868.106-1440.734v.007c-.1,0-.2-.007-.3-.007h-20.639a10.48,10.48,0,0,0-9.8,6.77h0l-.031.086-.015.041-8.778,23.928,8.149,1v26.572h44.349l3.316-41.357h7.715v-17.119Z" transform="translate(6907.674 1440.818)" fill="#fff"/>
            <path id="Trazado_145354" data-name="Trazado 145354" d="M-6788.842-1440.818l-23.562.1v0a16.582,16.582,0,0,1,15.882,16.566l-.037.452h7.715Z" transform="translate(6852.6 1440.818)" fill="#1b1b25" opacity="0.05"/>
            <path id="Trazado_145355" data-name="Trazado 145355" d="M-6774-1370.217" transform="translate(6830.399 1400.005)" fill="none" stroke="#fb8e77" stroke-linecap="round" stroke-miterlimit="10" stroke-width="1"/>
          </g>
        </g>
      </g>
      <g id="Grupo_88477" data-name="Grupo 88477" transform="translate(0 61.641)">
        <path id="Trazado_145356" data-name="Trazado 145356" d="M-6795.717-1399.891l-8.335-1.654a1.835,1.835,0,0,0-2.151,1.439l-1.665,8.392-2.158,10.876a1.835,1.835,0,0,0,1.439,2.151l3.412.677,4.923.977a1.835,1.835,0,0,0,2.151-1.438l.818-4.123,1.33-6.7,1.675-8.446A1.835,1.835,0,0,0-6795.717-1399.891Z" transform="translate(6854.517 1401.58)" fill="#1b1b25"/>
        <g id="Grupo_88476" data-name="Grupo 88476" transform="translate(0 3.528)">
          <path id="Trazado_145357" data-name="Trazado 145357" d="M-6855.752-1375.175a1.213,1.213,0,0,0-.467-.513c-.036-.052-.064-.1-.1-.157l-.2.025a1.257,1.257,0,0,0-.454-.05l-8.168.638a7.041,7.041,0,0,1-3.846-.8l-.2-.1.409-2.062c-.441.541-.889,1.074-1.364,1.579a5.709,5.709,0,0,0-2.9,1.094,5.243,5.243,0,0,0-1.347,1.381,6.668,6.668,0,0,1-1.51,1.622,5.3,5.3,0,0,1-.7.428l-.017-.023-18.579,4.6-.085.021.943-4.183-17.094-2.071-3.759,16.367a9.225,9.225,0,0,0,6.927,11.056h0a7.932,7.932,0,0,0,5.1-.527,9.154,9.154,0,0,0,.9-.372l31.447-15.479,4.263-1.6s.172-.066.474-.192l-.062-.012C-6864.2-1365.3-6853.3-1370.012-6855.752-1375.175Z" transform="translate(6915.425 1384.535)" fill="#fec29e"/>
          <g id="Grupo_88475" data-name="Grupo 88475" transform="translate(1.165 12.941)">
            <path id="Trazado_145358" data-name="Trazado 145358" d="M-6912.621-1339.6c-.018.089-.028.144-.034.169Z" transform="translate(6912.658 1349.281)" fill="#ff887c" opacity="0.17"/>
            <path id="Trazado_145359" data-name="Trazado 145359" d="M-6893.48-1358.384c.385-1.771.273-1.618.858-4.162l-19.642,9.02s1.946-.586,4.632-1.3c.25-.091.5-.175.766-.245Z" transform="translate(6912.432 1362.546)" fill="#ff887c" opacity="0.17"/>
            <path id="Trazado_145360" data-name="Trazado 145360" d="M-6912.527-1340.172l-.048.241C-6912.563-1339.992-6912.546-1340.073-6912.527-1340.172Z" transform="translate(6912.612 1349.612)" fill="#ff887c" opacity="0.17"/>
            <path id="Trazado_145361" data-name="Trazado 145361" d="M-6912.66-1339.2c0,.025,0,.026,0,0Z" transform="translate(6912.663 1349.05)" fill="#ff887c" opacity="0.17"/>
            <path id="Trazado_145362" data-name="Trazado 145362" d="M-6912.378-1341.168c-.034.173-.061.305-.083.42C-6912.419-1340.959-6912.378-1341.168-6912.378-1341.168Z" transform="translate(6912.546 1350.188)" fill="#ff887c" opacity="0.17"/>
          </g>
          <path id="Trazado_145363" data-name="Trazado 145363" d="M-6867.361-1380.066l-.026,0-3.729-.46a.21.21,0,0,1-.184-.235.211.211,0,0,1,.235-.183l3.526.435,1.963-12.529a.212.212,0,0,1,.242-.176.21.21,0,0,1,.176.241l-2,12.731A.211.211,0,0,1-6867.361-1380.066Z" transform="translate(6889.918 1393.219)" fill="#1b1b25" opacity="0.35"/>
        </g>
        <path id="Trazado_145364" data-name="Trazado 145364" d="M-6851.638-1360.918l8.42-.211c1.571.206,4.071-1.211,3.781-2.768h0Z" transform="translate(6878.551 1379.796)" fill="#ff887c" opacity="0.08"/>
      </g>
      <g id="Grupo_88488" data-name="Grupo 88488" transform="translate(12.686 1.41)">
        <g id="Grupo_88478" data-name="Grupo 88478">
          <path id="Trazado_145365" data-name="Trazado 145365" d="M-6844.567-1505.964l-2.862-19.488a21.558,21.558,0,0,0-1.8-6.007l1.555-.25s-1.091-15.818-18.832-12.041a21.577,21.577,0,0,0-5.363.117h0a15.773,15.773,0,0,0-13.312,17.9l1.669,11.36a15.773,15.773,0,0,0,17.9,13.313l19.544-2.872A1.788,1.788,0,0,0-6844.567-1505.964Z" transform="translate(6885.357 1544.332)" fill="#1b1b25"/>
          <path id="Trazado_145366" data-name="Trazado 145366" d="M-6816.863-1528.662a.21.21,0,0,1-.208-.182.211.211,0,0,1,.18-.238l5.705-.779a.168.168,0,0,0,.114-.069.156.156,0,0,0,.029-.121c-.922-5.142-5.659-7.514-5.707-7.538a.211.211,0,0,1-.1-.282.211.211,0,0,1,.282-.1c.05.024,4.977,2.485,5.938,7.842a.577.577,0,0,1-.1.443.594.594,0,0,1-.4.239l-5.705.779Z" transform="translate(6845.883 1540.665)" fill="#fcf0e3"/>
        </g>
        <g id="Grupo_88480" data-name="Grupo 88480" transform="translate(7.296 10.035)">
          <g id="Grupo_88479" data-name="Grupo 88479">
            <path id="Trazado_145367" data-name="Trazado 145367" d="M-6840.844-1517.451l-15.616,2.509-3.791-5.606a12.608,12.608,0,0,1-3.867,10.294s-.047-.064-.129-.183l-.129.024a4.534,4.534,0,0,0-3.611,5.275h0a4.533,4.533,0,0,0,5.275,3.611l.3-.056a11.627,11.627,0,0,0,3.38,5.915v10.008a6.469,6.469,0,0,0,6.45,6.45h0a6.47,6.47,0,0,0,6.451-6.45v-7.9a11.708,11.708,0,0,0,5.729-5.745l.007-.011a11.536,11.536,0,0,0,1.439-8.061Z" transform="translate(6868.065 1520.548)" fill="#fec29e"/>
          </g>
          <path id="Trazado_145368" data-name="Trazado 145368" d="M-6840.455-1468.076h0a11.583,11.583,0,0,1-13.143-7.793c-.058-.179-1.077.055-1.052.164a11.622,11.622,0,0,0,3.4,5.856,6.47,6.47,0,0,0,6.419,5.856h0a6.462,6.462,0,0,0,5.713-3.475,11.694,11.694,0,0,0,6.474-6.062A11.554,11.554,0,0,1-6840.455-1468.076Z" transform="translate(6860.31 1494.758)" fill="#ff887c" opacity="0.32"/>
        </g>
        <g id="Grupo_88487" data-name="Grupo 88487" transform="translate(9.928 15.234)">
          <path id="Trazado_145369" data-name="Trazado 145369" d="M-6861.242-1487.315a.209.209,0,0,1-.167-.082.21.21,0,0,1,.037-.3l1.4-1.089-1.791-1.69a.21.21,0,0,1-.009-.3.212.212,0,0,1,.3-.009l1.97,1.859a.211.211,0,0,1,.065.164.211.211,0,0,1-.081.156l-1.6,1.24A.206.206,0,0,1-6861.242-1487.315Z" transform="translate(6861.826 1498.173)" fill="#fb8e77"/>
          <g id="Grupo_88486" data-name="Grupo 88486" transform="translate(10.876)">
            <g id="Grupo_88485" data-name="Grupo 88485">
              <g id="Grupo_88484" data-name="Grupo 88484" transform="translate(0.663)">
                <g id="Grupo_88483" data-name="Grupo 88483">
                  <g id="Grupo_88481" data-name="Grupo 88481" transform="translate(0 1.528)">
                    <path id="Trazado_145370" data-name="Trazado 145370" d="M-6834.2-1502.967a1.484,1.484,0,0,0,.576-.219c.192-.1.389-.2.562-.285s.376-.167.58-.248a1.478,1.478,0,0,0,.537-.3c.119-.133.1-.342-.184-.481a1.7,1.7,0,0,0-1.387.094,1.652,1.652,0,0,0-.949.994C-6834.528-1503.109-6834.377-1502.959-6834.2-1502.967Z" transform="translate(6834.478 1504.605)" fill="#1b1b25"/>
                  </g>
                  <g id="Grupo_88482" data-name="Grupo 88482" transform="translate(8.894)">
                    <path id="Trazado_145371" data-name="Trazado 145371" d="M-6810.819-1507.006a1.49,1.49,0,0,1-.613-.051c-.214-.047-.431-.089-.62-.119s-.407-.057-.625-.078a1.474,1.474,0,0,1-.6-.139c-.152-.095-.187-.3.043-.514a1.7,1.7,0,0,1,1.358-.292,1.644,1.644,0,0,1,1.187.693C-6810.541-1507.235-6810.644-1507.05-6810.819-1507.006Z" transform="translate(6813.397 1508.226)" fill="#1b1b25"/>
                  </g>
                </g>
              </g>
              <path id="Trazado_145372" data-name="Trazado 145372" d="M-6826.312-1482.391a4.156,4.156,0,0,1-2.9-1.376.211.211,0,0,1,.027-.3.211.211,0,0,1,.3.027,3.356,3.356,0,0,0,3.905.918.21.21,0,0,1,.279.1.211.211,0,0,1-.1.28A3.563,3.563,0,0,1-6826.312-1482.391Z" transform="translate(6832.125 1494.287)" fill="#fb8e77"/>
              <path id="Trazado_145373" data-name="Trazado 145373" d="M-6819.575-1495.786a.211.211,0,0,1-.207-.17.21.21,0,0,1,.166-.248l1.484-.292a1.706,1.706,0,0,0,1.343-2,.617.617,0,0,0-.723-.485,1.442,1.442,0,0,1-1.692-1.135l-.358-1.82a.211.211,0,0,1,.167-.248.212.212,0,0,1,.248.166l.358,1.82a1.021,1.021,0,0,0,1.2.8,1.031,1.031,0,0,1,.778.156,1.029,1.029,0,0,1,.439.661,2.128,2.128,0,0,1-1.675,2.5l-1.484.292A.194.194,0,0,1-6819.575-1495.786Z" transform="translate(6826.648 1504.736)" fill="#fb8e77"/>
              <path id="Trazado_145374" data-name="Trazado 145374" d="M-6830.256-1494.556h0a.524.524,0,0,1-.608-.417l-.117-.623a.524.524,0,0,1,.417-.609h0a.524.524,0,0,1,.609.417l.116.622A.524.524,0,0,1-6830.256-1494.556Z" transform="translate(6833.125 1501.282)" fill="#1b1b25"/>
              <path id="Trazado_145375" data-name="Trazado 145375" d="M-6809.286-1497.963h0a.523.523,0,0,1-.609-.417l-.117-.623a.524.524,0,0,1,.417-.609h0a.524.524,0,0,1,.609.417l.116.623A.524.524,0,0,1-6809.286-1497.963Z" transform="translate(6821.002 1503.251)" fill="#1b1b25"/>
              <path id="Trazado_145376" data-name="Trazado 145376" d="M-6833.548-1488.477l-1.782.2a.649.649,0,0,1-.714-.57h0a.649.649,0,0,1,.57-.715l1.781-.2a.648.648,0,0,1,.715.57h0A.648.648,0,0,1-6833.548-1488.477Z" transform="translate(6836.048 1497.555)" fill="#ff887c" opacity="0.17"/>
              <path id="Trazado_145377" data-name="Trazado 145377" d="M-6805.155-1492.95l-1.782.2a.649.649,0,0,1-.715-.57h0a.648.648,0,0,1,.571-.715l1.781-.2a.65.65,0,0,1,.715.57h0A.649.649,0,0,1-6805.155-1492.95Z" transform="translate(6819.636 1500.14)" fill="#ff887c" opacity="0.17"/>
              <path id="Trazado_145378" data-name="Trazado 145378" d="M-6817.229-1470.156a.209.209,0,0,1-.124-.04,1.533,1.533,0,0,0-1.729,0,.212.212,0,0,1-.293-.052.21.21,0,0,1,.051-.293,1.945,1.945,0,0,1,2.219,0,.211.211,0,0,1,.046.295A.211.211,0,0,1-6817.229-1470.156Z" transform="translate(6826.432 1486.642)" fill="#fb8e77"/>
            </g>
          </g>
        </g>
      </g>
    </g>
  </g>
</svg>
