<svg xmlns="http://www.w3.org/2000/svg" width="148.164" height="136.408" viewBox="0 0 148.164 136.408">
  <g id="Grupo_88520" data-name="Grupo 88520" transform="translate(1227.535 -715.976)">
    <path id="Trazado_145379" data-name="Trazado 145379" d="M-1148.144,771.4s-7.341,14.686-14.8,24.823c-2.968,4.034-5.954,7.349-8.5,8.731a20.313,20.313,0,0,0-6.353,5.782,46.385,46.385,0,0,0-6.614,13.576l-19.068-28.849s.651-28.2,2.941-32.916c3.337-6.874,4.948-20.763,6.231-23.527.95-2.051,3.667-12.646,3.927-13.426a2.589,2.589,0,0,1,2.191-.848,3.416,3.416,0,0,1,2.945,2.78,31.707,31.707,0,0,1-.388,15.969c.719,7.266-1.443,12.659.072,14.088.057.053.162.027.31-.067,2.629-1.688,18.945-25.474,20.953-25.988C-1162.173,730.988-1148.144,771.4-1148.144,771.4Z" transform="translate(10.118 3.689)" fill="#ffb27d"/>
    <path id="Trazado_145380" data-name="Trazado 145380" d="M-1171.48,794.693s-.259,12.819-1,30.085h-48.1c10.994-23.445,20.553-43.178,20.553-43.178S-1172.642,782.437-1171.48,794.693Z" transform="translate(2.925 27.6)" fill="#f99746"/>
    <path id="Trazado_145381" data-name="Trazado 145381" d="M-1147.165,724.655l-5.905,8.657-5.794,8.5a1.327,1.327,0,0,1-1.2.531c-1.391-.132-3.111-2.138-4.452-3.247l-.136-.112a4.183,4.183,0,0,1-.554-5.873l8.856-10.705h0l2.626-3.175a4.183,4.183,0,0,1,5.873-.554l.136.111A4.186,4.186,0,0,1-1147.165,724.655Z" transform="translate(25.81 0.732)" fill="#ffb27d"/>
    <path id="Trazado_145382" data-name="Trazado 145382" d="M-1154.875,731.925l-5.795,8.5a1.327,1.327,0,0,1-1.2.531l3.714-19.938C-1158.152,721.126-1157.521,730.072-1154.875,731.925Z" transform="translate(27.615 2.119)" fill="#efa26f"/>
    <path id="Trazado_145383" data-name="Trazado 145383" d="M-1167.986,775.588c-2.968,4.034-5.954,7.349-8.5,8.731a20.313,20.313,0,0,0-6.353,5.782c-2.01-.937-4.3-2.036-6.54-3.124a3.73,3.73,0,0,1-.161-6.633l.077-.043c2.5-1.432,5.067-6.488,5.067-6.488Z" transform="translate(15.161 24.325)" fill="#efa26f"/>
    <path id="Trazado_145384" data-name="Trazado 145384" d="M-1193.893,725.653l-1.546,6.238a3.28,3.28,0,0,0,2.219.123C-1192.353,731.585-1191.646,725.99-1193.893,725.653Z" transform="translate(13.499 4.07)" fill="#ffc197"/>
    <g id="Grupo_88496" data-name="Grupo 88496" transform="translate(-1175.128 717.952)">
      <rect id="Rectángulo_34295" data-name="Rectángulo 34295" width="45.106" height="84.909" rx="4.183" fill="#2b478b"/>
      <g id="Grupo_88491" data-name="Grupo 88491" transform="translate(2.236 2.104)">
        <path id="Trazado_145385" data-name="Trazado 145385" d="M-1148.435,723.247v71.334a4.4,4.4,0,0,1-4.367,4.4h-31.9a4.395,4.395,0,0,1-4.365-4.4V723.247a4.4,4.4,0,0,1,4.365-4.4h31.9A4.4,4.4,0,0,1-1148.435,723.247Z" transform="translate(1189.069 -718.848)" fill="#fff"/>
      </g>
      <g id="Grupo_88495" data-name="Grupo 88495" transform="translate(5.255 62.258)">
        <g id="Grupo_88492" data-name="Grupo 88492" transform="translate(0 0.05)">
          <path id="Trazado_145386" data-name="Trazado 145386" d="M-1186.944,765.4v-4.176h1.276a1.921,1.921,0,0,1,1.463.524,2.183,2.183,0,0,1,.494,1.548,2.221,2.221,0,0,1-.5,1.575,1.957,1.957,0,0,1-1.492.528Zm.788-.69h.429a1.168,1.168,0,0,0,.931-.332,1.65,1.65,0,0,0,.286-1.081,1.532,1.532,0,0,0-.3-1.043,1.183,1.183,0,0,0-.931-.334h-.418Z" transform="translate(1186.944 -761.228)" fill="#9fc5ed"/>
          <path id="Trazado_145387" data-name="Trazado 145387" d="M-1184.159,765.4v-4.176h2.712v.679h-1.929v.987h1.405v.668h-1.405v1.129h2.013v.713Z" transform="translate(1188.115 -761.228)" fill="#9fc5ed"/>
          <path id="Trazado_145388" data-name="Trazado 145388" d="M-1181.745,765.4v-4.176h.8v3.463h1.761v.713Z" transform="translate(1189.13 -761.228)" fill="#9fc5ed"/>
          <path id="Trazado_145389" data-name="Trazado 145389" d="M-1179.473,765.4v-4.176h.791V765.4Z" transform="translate(1190.086 -761.228)" fill="#9fc5ed"/>
          <path id="Trazado_145390" data-name="Trazado 145390" d="M-1177.26,765.4l-1.247-4.176h.787l.953,3.408.943-3.408h.79l-1.245,4.176Z" transform="translate(1190.492 -761.228)" fill="#9fc5ed"/>
          <path id="Trazado_145391" data-name="Trazado 145391" d="M-1175.693,765.4v-4.176h2.712v.679h-1.929v.987h1.405v.668h-1.405v1.129h2.013v.713Z" transform="translate(1191.676 -761.228)" fill="#9fc5ed"/>
          <path id="Trazado_145392" data-name="Trazado 145392" d="M-1173.275,765.4v-4.176h1.413a1.881,1.881,0,0,1,1.181.307,1.13,1.13,0,0,1,.388.942,1.117,1.117,0,0,1-.2.678,1.025,1.025,0,0,1-.572.376l.925,1.874h-.844l-.8-1.695h-.719V765.4Zm.768-2.357h.685a.9.9,0,0,0,.557-.139.529.529,0,0,0,.178-.44.524.524,0,0,0-.178-.438.9.9,0,0,0-.557-.141h-.685Z" transform="translate(1192.693 -761.228)" fill="#9fc5ed"/>
          <path id="Trazado_145393" data-name="Trazado 145393" d="M-1169.757,765.4v-1.649l-1.212-2.527h.827l.806,1.736.791-1.736h.77l-1.195,2.521V765.4Z" transform="translate(1193.663 -761.228)" fill="#9fc5ed"/>
        </g>
        <g id="Grupo_88493" data-name="Grupo 88493" transform="translate(27.853)">
          <path id="Trazado_145394" data-name="Trazado 145394" d="M-1167.337,763.341a2.441,2.441,0,0,1,.46-1.58,1.545,1.545,0,0,1,1.273-.568,1.548,1.548,0,0,1,1.274.568,2.434,2.434,0,0,1,.462,1.58,2.44,2.44,0,0,1-.463,1.577,1.549,1.549,0,0,1-1.273.571,1.546,1.546,0,0,1-1.27-.571A2.439,2.439,0,0,1-1167.337,763.341Zm.8,0a1.981,1.981,0,0,0,.239,1.075.777.777,0,0,0,.7.365.78.78,0,0,0,.7-.365,2,2,0,0,0,.237-1.075,2.03,2.03,0,0,0-.237-1.085.779.779,0,0,0-.7-.371.776.776,0,0,0-.7.371A2.017,2.017,0,0,0-1166.54,763.341Z" transform="translate(1167.337 -761.193)" fill="#9fc5ed"/>
          <path id="Trazado_145395" data-name="Trazado 145395" d="M-1164.417,765.4v-4.176h2.635v.679h-1.843v.982h1.394v.679h-1.394V765.4Z" transform="translate(1168.565 -761.178)" fill="#9fc5ed"/>
        </g>
        <g id="Grupo_88494" data-name="Grupo 88494" transform="translate(0 5.454)">
          <path id="Trazado_145396" data-name="Trazado 145396" d="M-1186.944,770.094v-5.019h1.793a2.007,2.007,0,0,1,1.323.369,1.388,1.388,0,0,1,.435,1.121,1.425,1.425,0,0,1-.425,1.117,1.793,1.793,0,0,1-1.24.384h-.931v2.029Zm.955-2.824h.7a1.247,1.247,0,0,0,.733-.162.635.635,0,0,0,.214-.543.64.64,0,0,0-.214-.547,1.248,1.248,0,0,0-.733-.162h-.7Z" transform="translate(1186.944 -765.014)" fill="#9fc5ed"/>
          <path id="Trazado_145397" data-name="Trazado 145397" d="M-1183.864,770.094v-5.019h1.7a2.263,2.263,0,0,1,1.419.369,1.352,1.352,0,0,1,.466,1.131,1.337,1.337,0,0,1-.24.815,1.214,1.214,0,0,1-.688.452l1.112,2.252h-1.014l-.967-2.036h-.864v2.036Zm.923-2.831h.824a1.082,1.082,0,0,0,.669-.169.632.632,0,0,0,.213-.528.629.629,0,0,0-.213-.526,1.082,1.082,0,0,0-.669-.169h-.824Z" transform="translate(1188.239 -765.014)" fill="#9fc5ed"/>
          <path id="Trazado_145398" data-name="Trazado 145398" d="M-1180.836,767.615a2.934,2.934,0,0,1,.554-1.9,1.856,1.856,0,0,1,1.53-.683,1.862,1.862,0,0,1,1.531.683,2.927,2.927,0,0,1,.555,1.9,2.932,2.932,0,0,1-.557,1.9,1.862,1.862,0,0,1-1.53.686,1.858,1.858,0,0,1-1.527-.686A2.932,2.932,0,0,1-1180.836,767.615Zm.957,0a2.387,2.387,0,0,0,.287,1.293.936.936,0,0,0,.839.44.939.939,0,0,0,.839-.44,2.388,2.388,0,0,0,.287-1.293,2.429,2.429,0,0,0-.287-1.3.938.938,0,0,0-.839-.446.935.935,0,0,0-.839.446A2.428,2.428,0,0,0-1179.879,767.615Z" transform="translate(1189.513 -765.032)" fill="#9fc5ed"/>
          <path id="Trazado_145399" data-name="Trazado 145399" d="M-1177.321,770.094v-5.019h1.534a2.3,2.3,0,0,1,1.757.631,2.615,2.615,0,0,1,.6,1.861,2.664,2.664,0,0,1-.6,1.894,2.348,2.348,0,0,1-1.791.634Zm.948-.828h.516a1.4,1.4,0,0,0,1.119-.4,1.978,1.978,0,0,0,.344-1.3,1.845,1.845,0,0,0-.358-1.254,1.426,1.426,0,0,0-1.12-.4h-.5Z" transform="translate(1190.991 -765.014)" fill="#9fc5ed"/>
          <path id="Trazado_145400" data-name="Trazado 145400" d="M-1173.992,768.25v-3.175h.945v3.216a1.187,1.187,0,0,0,.226.808.939.939,0,0,0,.727.25,1.016,1.016,0,0,0,.761-.241,1.182,1.182,0,0,0,.227-.817v-3.216h.916V768.4a1.715,1.715,0,0,1-.493,1.317,2,2,0,0,1-1.412.46,1.925,1.925,0,0,1-1.428-.477A2,2,0,0,1-1173.992,768.25Z" transform="translate(1192.391 -765.014)" fill="#9fc5ed"/>
          <path id="Trazado_145401" data-name="Trazado 145401" d="M-1167.788,768.616l.871.239a1.794,1.794,0,0,1-.661,1,1.972,1.972,0,0,1-1.188.345,1.745,1.745,0,0,1-1.476-.651,3.122,3.122,0,0,1-.5-1.919,3.055,3.055,0,0,1,.529-1.919,1.8,1.8,0,0,1,1.5-.676,1.763,1.763,0,0,1,1.112.337,1.647,1.647,0,0,1,.58.974l-.87.213a1.025,1.025,0,0,0-.315-.547.841.841,0,0,0-.561-.185.82.82,0,0,0-.764.45,2.85,2.85,0,0,0-.253,1.36,2.608,2.608,0,0,0,.253,1.305.849.849,0,0,0,.784.42.951.951,0,0,0,.6-.2A1.027,1.027,0,0,0-1167.788,768.616Z" transform="translate(1193.759 -765.032)" fill="#9fc5ed"/>
          <path id="Trazado_145402" data-name="Trazado 145402" d="M-1166.5,770.094V765.9h-1.318v-.83h3.59v.83h-1.318v4.189Z" transform="translate(1194.987 -765.014)" fill="#9fc5ed"/>
          <path id="Trazado_145403" data-name="Trazado 145403" d="M-1165.064,768.978l.857-.381a1.616,1.616,0,0,0,.443.585.936.936,0,0,0,.578.183.939.939,0,0,0,.6-.172.56.56,0,0,0,.219-.466.522.522,0,0,0-.162-.389,1.757,1.757,0,0,0-.582-.311c-.038-.016-.094-.036-.166-.061a5.513,5.513,0,0,1-1.027-.459,1.225,1.225,0,0,1-.439-.465,1.338,1.338,0,0,1-.152-.641,1.225,1.225,0,0,1,.455-.986,1.781,1.781,0,0,1,1.185-.379,1.933,1.933,0,0,1,1.067.276,1.591,1.591,0,0,1,.625.82l-.857.314a1.22,1.22,0,0,0-.373-.49.9.9,0,0,0-.533-.153.75.75,0,0,0-.484.142.477.477,0,0,0-.176.391c0,.253.288.494.867.72.176.07.317.126.417.169a2.6,2.6,0,0,1,.986.626,1.281,1.281,0,0,1,.262.837,1.375,1.375,0,0,1-.456,1.092,1.831,1.831,0,0,1-1.25.4,2.148,2.148,0,0,1-1.172-.3A1.862,1.862,0,0,1-1165.064,768.978Z" transform="translate(1196.146 -765.03)" fill="#9fc5ed"/>
        </g>
      </g>
      <rect id="Rectángulo_34296" data-name="Rectángulo 34296" width="17.282" height="4.26" rx="1.39" transform="translate(13.912 0.498)" fill="#2b478b"/>
    </g>
    <g id="Grupo_88497" data-name="Grupo 88497" transform="translate(-1136.647 750.048)">
      <path id="Trazado_145404" data-name="Trazado 145404" d="M-1151.2,747.99l-.881.335-5.921,2.25a3.836,3.836,0,0,1-.419.132,4.045,4.045,0,0,1-4.783-2.47l-.087-.227a4.044,4.044,0,0,1,2.338-5.2l5.52-2.1.4-.152.881-.335a4.045,4.045,0,0,1,5.2,2.337l.087.229A4.046,4.046,0,0,1-1151.2,747.99Z" transform="translate(1163.555 -739.961)" fill="#ffb27d"/>
      <path id="Trazado_145405" data-name="Trazado 145405" d="M-1156.487,747.15a23.735,23.735,0,0,1-3.733,1.176,1.579,1.579,0,0,1-1.236-.618,3.671,3.671,0,0,1-.744-1.344,4.221,4.221,0,0,1-.2-.857,3.657,3.657,0,0,1,.031-1.02,1.022,1.022,0,0,1,.565-.727l0,0a23.473,23.473,0,0,1,3.591-1.408,1.563,1.563,0,0,1,1.936.865l.123.339.636,1.74A1.492,1.492,0,0,1-1156.487,747.15Z" transform="translate(1164.031 -738.984)" fill="#ffd3b6"/>
      <path id="Trazado_145406" data-name="Trazado 145406" d="M-1156.666,746.862a23.733,23.733,0,0,1-3.733,1.176,1.579,1.579,0,0,1-1.236-.618c-.05-.116-.1-.239-.138-.369a4.258,4.258,0,0,1-.2-.857,3.611,3.611,0,0,1,.033-1.02,1.02,1.02,0,0,1,.565-.727l0,0a23.256,23.256,0,0,1,3.591-1.408,1.7,1.7,0,0,1,1.453.23l.636,1.74A1.492,1.492,0,0,1-1156.666,746.862Z" transform="translate(1164.209 -738.696)" fill="#ffc197"/>
    </g>
    <g id="Grupo_88498" data-name="Grupo 88498" transform="translate(-1135.585 760.153)">
      <path id="Rectángulo_34297" data-name="Rectángulo 34297" d="M1.84,0H8.121A1.841,1.841,0,0,1,9.962,1.841V3.924A1.841,1.841,0,0,1,8.121,5.765H1.841A1.841,1.841,0,0,1,0,3.924V1.84A1.84,1.84,0,0,1,1.84,0Z" transform="translate(0 2.617) rotate(-15.23)" fill="#ffb27d"/>
      <path id="Trazado_145407" data-name="Trazado 145407" d="M-1157.088,752.448a20.632,20.632,0,0,1-3.151.662,1.538,1.538,0,0,1-1.244-.989,2.981,2.981,0,0,1-.234-.644,3.028,3.028,0,0,1-.1-.671,2.6,2.6,0,0,1,.1-.783.808.808,0,0,1,.516-.521h0a20.279,20.279,0,0,1,3.051-.851,1.291,1.291,0,0,1,1.523.788l.118.412.352,1.235A1.159,1.159,0,0,1-1157.088,752.448Z" transform="translate(1163.223 -746.422)" fill="#ffd3b6"/>
      <path id="Trazado_145408" data-name="Trazado 145408" d="M-1157.16,752.245a20.636,20.636,0,0,1-3.151.662,1.538,1.538,0,0,1-1.244-.989,2.9,2.9,0,0,1-.092-.629,2.655,2.655,0,0,1,.1-.781.811.811,0,0,1,.517-.521l0,0a20.227,20.227,0,0,1,3.05-.849,1.375,1.375,0,0,1,1.4.514l.352,1.235A1.159,1.159,0,0,1-1157.16,752.245Z" transform="translate(1163.295 -746.219)" fill="#ffc197"/>
    </g>
    <path id="Trazado_145409" data-name="Trazado 145409" d="M-1209.41,792.259s9.4,9,15.736,12.478l4.8-3.4v5.019s9.436,1.669,12.412,0V792.666l-26.5-13.284Z" transform="translate(7.623 26.667)" fill="#ed7d2b"/>
    <path id="Trazado_145410" data-name="Trazado 145410" d="M-1173.436,807.607c-3.651.749-11.518-2.118-11.518-2.118l1.268-12.258-8.89,10.183c-4.525-1.683-11.6-6.077-15.805-8.812-2.094-1.362-3.475-2.311-3.475-2.311,5.932-9.548,11.9-18.477,11.9-18.477,1.752,3.5,5.9,6.547,10.392,8.982a88.46,88.46,0,0,0,15.9,6.408C-1173.666,796.488-1173.436,807.607-1173.436,807.607Z" transform="translate(6.595 24.325)" fill="#fff"/>
    <g id="Grupo_88499" data-name="Grupo 88499" transform="translate(-1137.093 739.254)">
      <path id="Trazado_145411" data-name="Trazado 145411" d="M-1151.214,742.434c-.033.013-.065.023-.1.034L-1157.3,744a4.948,4.948,0,0,1-6.049-3.165l-.357-1.239a4.589,4.589,0,0,1,3.214-5.533l1.977-.508,4.01-1.029a4.947,4.947,0,0,1,6.049,3.165l.357,1.237A4.58,4.58,0,0,1-1151.214,742.434Z" transform="translate(1163.869 -732.363)" fill="#ffb27d"/>
      <path id="Trazado_145412" data-name="Trazado 145412" d="M-1155.229,740.073l-2.909,1.311-.019,0a3.087,3.087,0,0,1-.351.072c-.048.007-.1.013-.148.019h-.061a.464.464,0,0,1-.4-.655,2.89,2.89,0,0,0,.165-1.972l-.07-.253v-.008l-.226-.825a3.1,3.1,0,0,0-1.054-1.607,2.183,2.183,0,0,0-.185-.138.836.836,0,0,1,.246-1.487l.018-.006,3.192-.483a1.52,1.52,0,0,1,1.764,1.182l.256.94.546,2.006C-1154.253,738.966-1154.441,739.858-1155.229,740.073Z" transform="translate(1165.141 -731.673)" fill="#ffd3b6"/>
      <path id="Trazado_145413" data-name="Trazado 145413" d="M-1155.389,739.688-1158.3,741l-.019,0c-.068.013-.281.048-.56.092a.464.464,0,0,1-.4-.655,2.89,2.89,0,0,0,.165-1.972l-.069-.253v-.008l-.226-.825a3.1,3.1,0,0,0-1.054-1.607.814.814,0,0,1,.458-.327l.018-.006,3.192-.482a1.45,1.45,0,0,1,1.624.823l.546,2.006C-1154.413,738.582-1154.6,739.474-1155.389,739.688Z" transform="translate(1165.301 -731.288)" fill="#ffc197"/>
    </g>
    <path id="Trazado_145414" data-name="Trazado 145414" d="M-1189.488,771.226s-1.307-11.4-2.512-13.623-2.225-6.677-.371-9.984,2.495-9.674,2.495-9.674c.719,7.266-1.443,12.659.072,14.088.057.053.162.027.31-.067Z" transform="translate(14.361 9.239)" fill="#efa26f"/>
    <g id="Grupo_88500" data-name="Grupo 88500" transform="translate(-1227.535 774.432)">
      <path id="Trazado_145415" data-name="Trazado 145415" d="M-1224.135,757.126h22.152a3.22,3.22,0,0,1,3.21,3.211v9.718a2.957,2.957,0,0,1-2.949,2.949h-.569l1.068,4.509-6.7-4.509h-16.4a3.217,3.217,0,0,1-3.208-3.208v-9.271A3.41,3.41,0,0,1-1224.135,757.126Z" transform="translate(1227.535 -757.126)" fill="#f7faff"/>
      <path id="Trazado_145416" data-name="Trazado 145416" d="M-1225.392,762.431h23.1a.574.574,0,0,0,.573-.572h0a.575.575,0,0,0-.573-.573h-23.1a.574.574,0,0,0-.571.573h0A.573.573,0,0,0-1225.392,762.431Z" transform="translate(1228.196 -755.376)" fill="#cbe1fd"/>
      <path id="Trazado_145417" data-name="Trazado 145417" d="M-1225.392,764.232h23.1a.574.574,0,0,0,.573-.572h0a.574.574,0,0,0-.573-.571h-23.1a.573.573,0,0,0-.571.571h0A.573.573,0,0,0-1225.392,764.232Z" transform="translate(1228.196 -754.618)" fill="#cbe1fd"/>
      <path id="Trazado_145418" data-name="Trazado 145418" d="M-1225.392,766.035h23.1a.574.574,0,0,0,.573-.571h0a.574.574,0,0,0-.573-.573h-23.1a.573.573,0,0,0-.571.573h0A.573.573,0,0,0-1225.392,766.035Z" transform="translate(1228.196 -753.86)" fill="#cbe1fd"/>
      <path id="Trazado_145419" data-name="Trazado 145419" d="M-1216.5,760.175h9.8a.684.684,0,0,0,.682-.682h0a.684.684,0,0,0-.682-.68h-9.8a.684.684,0,0,0-.682.68h0A.684.684,0,0,0-1216.5,760.175Z" transform="translate(1231.889 -756.416)" fill="#cbe1fd"/>
      <rect id="Rectángulo_34298" data-name="Rectángulo 34298" width="6.977" height="1.362" rx="0.379" transform="translate(13.4 3.758) rotate(180)" fill="#cbe1fd"/>
    </g>
    <g id="Grupo_88501" data-name="Grupo 88501" transform="translate(-1121.263 772.521)">
      <path id="Trazado_145420" data-name="Trazado 145420" d="M-1146.789,761.655l13.933,4.555-8.346-8.135-.847,1.987-3.586.017Z" transform="translate(1155.223 -754.815)" fill="#9ec3f6"/>
      <path id="Trazado_145421" data-name="Trazado 145421" d="M-1130.359,767.019l-10.813-8.226-11.553-2.639Z" transform="translate(1152.726 -755.623)" fill="#fff"/>
      <path id="Trazado_145422" data-name="Trazado 145422" d="M-1142.856,759.042l8.346,8.134-5.563-11.4Z" transform="translate(1156.877 -755.78)" fill="#fff"/>
    </g>
    <g id="Grupo_88502" data-name="Grupo 88502" transform="translate(-1214.214 715.976)">
      <path id="Trazado_145423" data-name="Trazado 145423" d="M-1205.134,722.343l-13.023,1.858,8.642-5.891.44,1.888,3.167.574Z" transform="translate(1218.157 -714.994)" fill="#9ec3f6"/>
      <path id="Trazado_145424" data-name="Trazado 145424" d="M-1218.157,724.269l10.837-5.588,10.622-.534Z" transform="translate(1218.157 -715.063)" fill="#fff"/>
      <path id="Trazado_145425" data-name="Trazado 145425" d="M-1209.515,719.292l-8.642,5.891,6.69-9.206Z" transform="translate(1218.157 -715.976)" fill="#fff"/>
    </g>
    <g id="Grupo_88506" data-name="Grupo 88506" transform="translate(-1169.535 721.979)">
      <path id="Trazado_145426" data-name="Trazado 145426" d="M-1184.469,722.058l-.454.327-.457-.322a.564.564,0,0,1,.457-.237A.559.559,0,0,1-1184.469,722.058Z" transform="translate(1187.263 -719.519)" fill="#fff"/>
      <g id="Grupo_88503" data-name="Grupo 88503" transform="translate(1.235 1.511)">
        <path id="Trazado_145427" data-name="Trazado 145427" d="M-1184.732,721.266a1.35,1.35,0,0,0-1.105.574l.287.2a1,1,0,0,1,.818-.425,1,1,0,0,1,.813.419l.287-.207A1.351,1.351,0,0,0-1184.732,721.266Z" transform="translate(1185.837 -721.266)" fill="#fff"/>
      </g>
      <g id="Grupo_88504" data-name="Grupo 88504">
        <path id="Trazado_145428" data-name="Trazado 145428" d="M-1184.366,720.2a2.854,2.854,0,0,0-2.34,1.216l.288.2a2.508,2.508,0,0,1,2.052-1.064,2.514,2.514,0,0,1,2.041,1.048l.285-.206A2.855,2.855,0,0,0-1184.366,720.2Z" transform="translate(1186.706 -720.202)" fill="#fff"/>
      </g>
      <g id="Grupo_88505" data-name="Grupo 88505" transform="translate(0.671 0.827)">
        <path id="Trazado_145429" data-name="Trazado 145429" d="M-1184.565,720.784a2.049,2.049,0,0,0-1.669.862l.288.2a1.7,1.7,0,0,1,1.381-.71,1.7,1.7,0,0,1,1.374.7l.286-.2A2.042,2.042,0,0,0-1184.565,720.784Z" transform="translate(1186.234 -720.784)" fill="#fff"/>
      </g>
    </g>
    <g id="Grupo_88507" data-name="Grupo 88507" transform="translate(-1140.788 768.695)">
      <path id="Trazado_145430" data-name="Trazado 145430" d="M-1108.532,836.763h-35.274c-1.692-1.134-10.477-7.126-14.112-11.593-.77-.946-3.587-9.1-5.752-15.729-1.352-4.137-2.45-7.678-2.635-8.489a10.379,10.379,0,0,1-.134-1.6v-.008c-.092-2.709.033-7.932.163-12.082v-.02l0-.054.017-.54v-.06c.024-.72.047-1.4.068-2.019.056-1.544.1-2.7.119-3.159l.008-.212h0c.055-.031,1.753-.936,4.02.7a5.9,5.9,0,0,1,1.516,2.593c.3.794.571,1.708.83,2.668.99,3.7,1.7,8.12,2.081,9.3.611,1.913,7.823,10.326,8.275,10.849l.021.026V794.045l-5.445-14.568-2.234-5.981-1.124-3.006a54.077,54.077,0,0,1-3.168-6.231,29.24,29.24,0,0,1-1.571-4.607c-.087-.362-.159-.72-.217-1.071h0a7.772,7.772,0,0,1,.068-3.445,2.493,2.493,0,0,1,2.625-2.017c.094,0,.186.011.274.021a1.8,1.8,0,0,1,.261.05,1.812,1.812,0,0,1,.453.189h0a1.821,1.821,0,0,1,.592.554s.77,1,1.8,2.355c.679.891,1.472,1.929,2.234,2.931,1.357,1.784,2.618,3.448,2.965,3.936,1.872,2.637,6.917,11.23,6.917,11.23l5.9.247a3.916,3.916,0,0,1,2.51,1.051c2.1,1.96,6.626,6.2,7.181,6.833,0,.207,3.517,1.9,6.233,3.405a37.214,37.214,0,0,1,5.635,3.732,6.49,6.49,0,0,1,1.644,1.99c1.266,2.755,4.7,26.714,6.341,38.559C-1108.9,834.01-1108.559,836.566-1108.532,836.763Z" transform="translate(1166.47 -753.075)" fill="#ffb27d"/>
      <path id="Trazado_145431" data-name="Trazado 145431" d="M-1151.27,768.089s5.469,8.927,6.192,9.329,3.54.966,3.861,0S-1151.27,768.089-1151.27,768.089Z" transform="translate(1172.863 -746.778)" fill="#efa26f"/>
      <path id="Trazado_145432" data-name="Trazado 145432" d="M-1128.416,780.951l-.028-.024a37.218,37.218,0,0,0-5.635-3.732c-2.495-1.384-5.662-2.922-6.165-3.326.58.662,4.652,5.272,6.219,5.618C-1132.649,779.79-1129.522,780.645-1128.416,780.951Z" transform="translate(1177.5 -744.347)" fill="#efa26f"/>
      <path id="Trazado_145433" data-name="Trazado 145433" d="M-1154.393,795.213V781.928s3.155,5.279,3.4,8.175S-1152.307,797.685-1154.393,795.213Z" transform="translate(1171.55 -740.957)" fill="#efa26f"/>
      <path id="Trazado_145434" data-name="Trazado 145434" d="M-1161.975,758.592a23.867,23.867,0,0,1-1.573-3.029,1.515,1.515,0,0,1,.209-1.165,2.614,2.614,0,0,1,.828-.859,2.748,2.748,0,0,1,.581-.314,2.289,2.289,0,0,1,.744-.138.794.794,0,0,1,.635.369l0,0a23.288,23.288,0,0,1,1.712,2.868,1.471,1.471,0,0,1-.253,1.808l-.221.162-1.137.83A1.079,1.079,0,0,1-1161.975,758.592Z" transform="translate(1167.681 -753.087)" fill="#ffd3b6"/>
      <path id="Trazado_145435" data-name="Trazado 145435" d="M-1161.975,758.39a23.867,23.867,0,0,1-1.573-3.029,1.515,1.515,0,0,1,.209-1.165,2.949,2.949,0,0,1,.24-.18,2.8,2.8,0,0,1,.581-.313,2.293,2.293,0,0,1,.744-.138.791.791,0,0,1,.635.369l0,0a23.1,23.1,0,0,1,1.712,2.868,1.743,1.743,0,0,1,.114,1.29l-1.137.83A1.079,1.079,0,0,1-1161.975,758.39Z" transform="translate(1167.681 -752.885)" fill="#ffc197"/>
      <path id="Trazado_145436" data-name="Trazado 145436" d="M-1127.084,814.634l-10.536,5.455h-7.015c-1.692-1.134-10.477-7.126-14.112-11.593-.77-.946-3.587-9.1-5.752-15.729v0c.287.879,6.33,13.748,8.05,15.211s10.754,9.979,13.248,9.893c2.418-.082,15.284-3.043,16.081-3.226Z" transform="translate(1167.3 -736.4)" fill="#efa26f"/>
      <path id="Trazado_145437" data-name="Trazado 145437" d="M-1111.989,814.17h-37.989a152.571,152.571,0,0,1,16.751-5.447l.036-.008c6.49-1.642,13.17-2.637,16.8-1.145l.027.04Z" transform="translate(1173.407 -730.481)" fill="#fff"/>
      <path id="Trazado_145438" data-name="Trazado 145438" d="M-1166.263,776.735h0c.639-.234,1.538-.389,1.976.341.68,1.136-1.848,11.161-2.164,12.423Z" transform="translate(1166.48 -743.224)" fill="#efa26f"/>
      <path id="Trazado_145439" data-name="Trazado 145439" d="M-1166.116,772.882l-.217,6.064a3.107,3.107,0,0,0,2-.334C-1163.608,778.071-1163.992,772.811-1166.116,772.882Z" transform="translate(1166.528 -744.762)" fill="#ffc197"/>
    </g>
    <path id="Trazado_145440" data-name="Trazado 145440" d="M-1174.464,804.948c-3.651.749-11.518-2.118-11.518-2.118l1.268-12.258-8.89,10.183c-4.525-1.683-11.6-6.077-15.805-8.812,10.774-1.175,18.817-11.806,18.817-11.806a88.461,88.461,0,0,0,15.9,6.408C-1174.694,793.829-1174.464,804.948-1174.464,804.948Z" transform="translate(7.623 26.984)" fill="#f2f7ff"/>
    <path id="Trazado_145441" data-name="Trazado 145441" d="M-1202.444,790.2a1.48,1.48,0,0,1,1.493-1.466,1.479,1.479,0,0,1,1.466,1.493,1.48,1.48,0,0,1-1.493,1.468A1.481,1.481,0,0,1-1202.444,790.2Z" transform="translate(10.552 30.599)" fill="#f99746"/>
    <g id="Grupo_88518" data-name="Grupo 88518" transform="translate(-1168.072 727.61)">
      <g id="Grupo_88517" data-name="Grupo 88517">
        <g id="Grupo_88514" data-name="Grupo 88514" transform="translate(2.628)">
          <g id="Grupo_88509" data-name="Grupo 88509" transform="translate(7.783)">
            <g id="Grupo_88508" data-name="Grupo 88508" transform="translate(2.275)">
              <path id="Trazado_145442" data-name="Trazado 145442" d="M-1174.339,739.279l0,.077-.024-.074c-.131-.4-.773-2.4-1.357-4.628-.807-3.078-1.5-6.59-.587-6.914,1.737-.617,2.057,4.3,2.063,7.931C-1174.245,737.459-1174.319,738.934-1174.339,739.279Z" transform="translate(1176.746 -722.685)" fill="#a8d29f"/>
              <path id="Trazado_145443" data-name="Trazado 145443" d="M-1173.337,736.764c-.628,1.392-1.172,2.564-1.484,3.266-.136.305-.229.523-.264.629.031-.173.112-.639.23-1.3h0c.175-.992.43-2.425.709-3.98.679-3.78,1.506-8.285,1.7-8.93.339-1.135,1.908-3.554,2.963-1.45C-1168.8,726.365-1171.445,732.566-1173.337,736.764Z" transform="translate(1177.444 -724.166)" fill="#a8d29f"/>
              <path id="Trazado_145444" data-name="Trazado 145444" d="M-1173.245,736.473c-.649.685-1.193,1.24-1.5,1.547-.166.168-.261.261-.261.261s.166-.354.45-.92c.267-.534.638-1.257,1.073-2.048,1.423-2.593,3.517-5.915,4.817-5.724C-1167.183,729.808-1170.892,733.99-1173.245,736.473Z" transform="translate(1177.479 -721.888)" fill="#a8d29f"/>
              <path id="Trazado_145445" data-name="Trazado 145445" d="M-1174.642,737.216l-.028,0c-.13-.4-.773-2.4-1.356-4.628a2.1,2.1,0,0,0,1.476,1.017C-1174.548,735.4-1174.622,736.871-1174.642,737.216Z" transform="translate(1177.049 -720.622)" fill="#82b378"/>
              <path id="Trazado_145446" data-name="Trazado 145446" d="M-1173.405,733.444c-.628,1.392-1.172,2.564-1.484,3.266a5.616,5.616,0,0,1-.034-.672h0c.175-.992.431-2.425.709-3.98A1.932,1.932,0,0,0-1173.405,733.444Z" transform="translate(1177.513 -720.847)" fill="#82b378"/>
              <path id="Trazado_145447" data-name="Trazado 145447" d="M-1173.322,734.777c-.649.685-1.193,1.24-1.5,1.547a4.114,4.114,0,0,1,.189-.659c.267-.534.638-1.257,1.073-2.048A2.835,2.835,0,0,0-1173.322,734.777Z" transform="translate(1177.556 -720.192)" fill="#82b378"/>
            </g>
            <path id="Trazado_145448" data-name="Trazado 145448" d="M-1175.081,735.776l-.013.075C-1175.1,735.847-1175.1,735.821-1175.081,735.776Z" transform="translate(1179.715 -719.283)" fill="#a8d29f"/>
            <path id="Trazado_145449" data-name="Trazado 145449" d="M-1172.843,741.184c-1.088,3.083-2.443,6.445-2.443,6.445l-3.061-.918s.358-2.284.884-4.824c.614-2.963.965-5.954,2.223-6.731a2.378,2.378,0,0,1,1.087-.341,2.712,2.712,0,0,1,.548.016l.128.02c.105.02.21.044.313.074.04.011.078.024.118.038a2.789,2.789,0,0,1,.391.165,2.283,2.283,0,0,1,1.125,1.114C-1171.029,737.558-1172.021,738.854-1172.843,741.184Z" transform="translate(1178.348 -719.69)" fill="#ed7d2b"/>
          </g>
          <g id="Grupo_88510" data-name="Grupo 88510" transform="translate(10.936 14.609)">
            <path id="Trazado_145450" data-name="Trazado 145450" d="M-1175.272,745.111a18.519,18.519,0,0,0-.713,7.974,1.594,1.594,0,0,0,.7,1.145,1.6,1.6,0,0,0,.578.236c.472,0,1.405-.861,1.938-1.957a4.114,4.114,0,0,0,.331-.946c.535-2.536,1.524-5.589,2.753-7.15a18.334,18.334,0,0,1,5.272-4.814h0c.225-.128,5.5-3.97,5.5-3.97.526-.555-.1-1.176-.1-1.176a14.519,14.519,0,0,1-2.03,1.32c-1.528.879-4.213-.152-4.213-.152a2.563,2.563,0,0,0-2.385.143,18.882,18.882,0,0,0-4.1,3.355A16.478,16.478,0,0,0-1175.272,745.111Z" transform="translate(1176.129 -734.45)" fill="#ffb93e"/>
            <path id="Trazado_145451" data-name="Trazado 145451" d="M-1173.424,750.729c.536-2.536,1.524-5.589,2.753-7.15a18.335,18.335,0,0,1,5.272-4.814h0a1.234,1.234,0,0,0-.13-2.24c-1.706-1.027-8.671,6.631-8.226,15.152A4.119,4.119,0,0,0-1173.424,750.729Z" transform="translate(1177.119 -733.617)" fill="#ffa412"/>
          </g>
          <g id="Grupo_88513" data-name="Grupo 88513" transform="translate(0 14.891)">
            <path id="Trazado_145452" data-name="Trazado 145452" d="M-1175.583,740.953a5.636,5.636,0,0,1-.81,1,7.685,7.685,0,0,1-5.552,2.053,7.239,7.239,0,0,1-1.523-2.223h0a3.529,3.529,0,0,1,0-3.078,2.368,2.368,0,0,1,1.379-1.047c.851-.259,1.722-.125,2.1-.5a3.778,3.778,0,0,1,1.494-.882,2.943,2.943,0,0,1,.291-.08h0l.124-.027h0a2.537,2.537,0,0,1,2.54.8,2.9,2.9,0,0,1,.418.685A3.543,3.543,0,0,1-1175.583,740.953Z" transform="translate(1183.827 -734.039)" fill="#a8d29f"/>
            <path id="Trazado_145453" data-name="Trazado 145453" d="M-1182.847,737.842s-.807.632-.56,1.334.885.376,1.084-.109S-1182.318,737.606-1182.847,737.842Z" transform="translate(1183.984 -733.32)" fill="#d1f2c9"/>
            <path id="Trazado_145454" data-name="Trazado 145454" d="M-1175.641,736.7a2.9,2.9,0,0,1,.418.685c.431.966,1.02,3.53.31,4.645l-.953.872c-1.209,1.192-3.74.861-6.184.837a7.222,7.222,0,0,1-1.523-2.222h0a5.952,5.952,0,0,0,5.87-1.3A6.236,6.236,0,0,0-1175.641,736.7Z" transform="translate(1183.933 -733.783)" fill="#95c38b"/>
            <g id="Grupo_88511" data-name="Grupo 88511" transform="translate(0.378 0.714)">
              <path id="Trazado_145455" data-name="Trazado 145455" d="M-1180.257,736.084c-.5-.3-1,.119-1.59.35a6.184,6.184,0,0,1-1.715.224,8.134,8.134,0,0,1,1.225-1.331C-1181.576,734.664-1180.257,736.084-1180.257,736.084Z" transform="translate(1183.561 -735.151)" fill="#a8d29f"/>
              <path id="Trazado_145456" data-name="Trazado 145456" d="M-1180.257,736.084a2.151,2.151,0,0,0-1.76-.433,12.738,12.738,0,0,0-1.544,1.007,8.134,8.134,0,0,1,1.225-1.331C-1181.576,734.664-1180.257,736.084-1180.257,736.084Z" transform="translate(1183.561 -735.151)" fill="#82b378"/>
            </g>
            <path id="Trazado_145457" data-name="Trazado 145457" d="M-1180.5,737.1a3.777,3.777,0,0,1,1.494-.882c-1,.374-1.547,1.637-1.925,1.49a6.69,6.69,0,0,0-1.672-.1C-1181.752,737.344-1180.881,737.477-1180.5,737.1Z" transform="translate(1184.342 -733.989)" fill="#95c38b"/>
            <path id="Trazado_145458" data-name="Trazado 145458" d="M-1179.742,736.141c-.033.008-.072.018-.124.027Z" transform="translate(1185.493 -734.021)" fill="#95c38b"/>
            <g id="Grupo_88512" data-name="Grupo 88512" transform="translate(3.304)">
              <path id="Trazado_145459" data-name="Trazado 145459" d="M-1181.323,738.34h0a3.157,3.157,0,0,1,.054-2.192,13.947,13.947,0,0,1,.618-1.453.081.081,0,0,1,.15.01l.061.183a.664.664,0,0,1-.062.553,3.836,3.836,0,0,0-.649,2.688C-1181.12,738.238-1181.267,738.466-1181.323,738.34Z" transform="translate(1181.501 -734.648)" fill="#82b378"/>
            </g>
          </g>
        </g>
        <g id="Grupo_88516" data-name="Grupo 88516" transform="translate(10.685 20.154)">
          <g id="Grupo_88515" data-name="Grupo 88515" transform="translate(1.904)">
            <path id="Trazado_145460" data-name="Trazado 145460" d="M-1176.716,739.965l-.1-.04a3.7,3.7,0,0,1,1.661-1.313,4.348,4.348,0,0,1,.983-.259.1.1,0,0,1,.087.034l.084.1a.082.082,0,0,1-.051.134A4.089,4.089,0,0,0-1176.716,739.965Z" transform="translate(1176.815 -738.353)" fill="#2b478b"/>
          </g>
          <path id="Trazado_145461" data-name="Trazado 145461" d="M-1178.024,739.894c.5-1.261,1.215-.977,2.091-.626s1.587.635,1.082,1.9a1.737,1.737,0,0,1-2.242,1A1.736,1.736,0,0,1-1178.024,739.894Z" transform="translate(1178.155 -738.095)" fill="#699dee"/>
          <path id="Trazado_145462" data-name="Trazado 145462" d="M-1177.688,739.565a.654.654,0,0,1,.622-.432.422.422,0,0,1,.3.51.551.551,0,0,1-.568.389A.415.415,0,0,1-1177.688,739.565Z" transform="translate(1178.35 -738.027)" fill="#92beff"/>
        </g>
        <path id="Trazado_145463" data-name="Trazado 145463" d="M-1166.9,739.843l2.706,19.283a3.975,3.975,0,0,1-3.937,4.527h-4.077a3.459,3.459,0,0,1-3.439-3.836l2.29-17.936Z" transform="translate(1189.885 -717.573)" fill="#fcecdb"/>
        <path id="Trazado_145464" data-name="Trazado 145464" d="M-1178.817,739.843a25.776,25.776,0,0,0,14.216,0l-2.256,23.871h-14.284Z" transform="translate(1187.584 -717.573)" fill="#fcecdb"/>
        <path id="Trazado_145465" data-name="Trazado 145465" d="M-1176.909,739.843l2.706,19.331a3.981,3.981,0,0,1-3.935,4.54h-4.078a3.465,3.465,0,0,1-3.439-3.845l1.939-20.026a19.539,19.539,0,0,0,3.279.187A26.032,26.032,0,0,0-1176.909,739.843Z" transform="translate(1185.677 -717.573)" fill="#efcbab"/>
        <path id="Trazado_145466" data-name="Trazado 145466" d="M-1168.235,741.508a.508.508,0,0,0-.509-.509.508.508,0,0,0-.509.509.507.507,0,0,0,.254.439,4.683,4.683,0,0,1-.973,3.965,3.735,3.735,0,0,1-3.382.835c-1.267-.2-2.1-1.608-2.578-2.749a13.348,13.348,0,0,1-.663-2.107.508.508,0,0,0,.176-.384.509.509,0,0,0-.509-.509.508.508,0,0,0-.509.509.505.505,0,0,0,.257.44c.273,1.254,1.286,4.976,3.733,5.371a6.366,6.366,0,0,0,1.026.087,3.893,3.893,0,0,0,2.862-1.085,5.225,5.225,0,0,0,1.138-4.422A.51.51,0,0,0-1168.235,741.508Z" transform="translate(1189.143 -717.086)" fill="#ed7d2b"/>
      </g>
    </g>
    <g id="Grupo_88519" data-name="Grupo 88519" transform="translate(-1096.784 729.996)">
      <path id="Trazado_145467" data-name="Trazado 145467" d="M-1130.028,735.613a1.592,1.592,0,0,0-.023-.551,1.166,1.166,0,0,0-.233-.457,2.175,2.175,0,0,0-.466-.412,5.87,5.87,0,0,0-.723-.4,15.006,15.006,0,0,1-1.334-.733,4.772,4.772,0,0,1-1-.813,2.794,2.794,0,0,1-.59-.989,2.877,2.877,0,0,1-.1-1.266,2.847,2.847,0,0,1,.355-1.108,2.625,2.625,0,0,1,.735-.817,3.306,3.306,0,0,1,1.054-.5,4.359,4.359,0,0,1,1.316-.152l.186-1.566,1.259.151-.187,1.587a3.944,3.944,0,0,1,1.185.5,3.057,3.057,0,0,1,.854.814,3.075,3.075,0,0,1,.474,1.091,3.95,3.95,0,0,1,.051,1.344l-2.274-.27a1.938,1.938,0,0,0-.234-1.358,1.346,1.346,0,0,0-.991-.56,1.7,1.7,0,0,0-.622.027,1.161,1.161,0,0,0-.453.22,1.093,1.093,0,0,0-.293.376,1.593,1.593,0,0,0-.138.5,1.457,1.457,0,0,0,.02.5,1.065,1.065,0,0,0,.224.438,2.174,2.174,0,0,0,.469.412,7.227,7.227,0,0,0,.752.433q.729.377,1.32.75a4.835,4.835,0,0,1,.993.818,2.809,2.809,0,0,1,.588.994,2.82,2.82,0,0,1,.1,1.257,2.849,2.849,0,0,1-.361,1.129,2.6,2.6,0,0,1-.739.81,3.189,3.189,0,0,1-1.06.482,4.723,4.723,0,0,1-1.321.141l-.173,1.455-1.251-.148.172-1.449a5.3,5.3,0,0,1-1.23-.435,3.364,3.364,0,0,1-1.007-.761,3,3,0,0,1-.632-1.131,3.7,3.7,0,0,1-.105-1.541l2.276.271a2.269,2.269,0,0,0,.043.884,1.473,1.473,0,0,0,.324.6,1.433,1.433,0,0,0,.52.358,2.433,2.433,0,0,0,.625.159,2.058,2.058,0,0,0,.661-.018,1.363,1.363,0,0,0,.5-.207,1.071,1.071,0,0,0,.331-.365A1.352,1.352,0,0,0-1130.028,735.613Z" transform="translate(1135.494 -725.845)" fill="#fff"/>
    </g>
  </g>
</svg>
