<svg xmlns="http://www.w3.org/2000/svg" width="48.792" height="53.017" viewBox="0 0 48.792 53.017">
  <g id="Grupo_88523" data-name="Grupo 88523" transform="translate(6391.98 1809.472)">
    <path id="Trazado_145502" data-name="Trazado 145502" d="M-6362.146-1800.762a8.709,8.709,0,0,1-8.71,8.709,8.708,8.708,0,0,1-8.708-8.709,8.71,8.71,0,0,1,8.708-8.71A8.711,8.711,0,0,1-6362.146-1800.762Z" transform="translate(2.792)" fill="#ef6c00"/>
    <path id="Trazado_145503" data-name="Trazado 145503" d="M-6370.94-1809.1a8.257,8.257,0,0,0-8.256,8.257,8.256,8.256,0,0,0,8.256,8.257,8.257,8.257,0,0,0,8.258-8.257A8.258,8.258,0,0,0-6370.94-1809.1Zm0,16.216a7.959,7.959,0,0,1-7.958-7.958,7.959,7.959,0,0,1,7.958-7.958,7.959,7.959,0,0,1,7.959,7.958A7.959,7.959,0,0,1-6370.94-1792.887Z" transform="translate(2.875 0.083)" fill="#0f0140"/>
    <path id="Trazado_145504" data-name="Trazado 145504" d="M-6365.42-1801.269a5.944,5.944,0,0,1-5.945,5.944,5.945,5.945,0,0,1-5.944-5.944,5.944,5.944,0,0,1,5.944-5.945A5.944,5.944,0,0,1-6365.42-1801.269Z" transform="translate(3.3 0.508)" fill="#0f0140"/>
    <path id="Trazado_145505" data-name="Trazado 145505" d="M-6365.838-1801.334a5.591,5.591,0,0,1-5.592,5.592,5.591,5.591,0,0,1-5.591-5.592,5.591,5.591,0,0,1,5.591-5.592A5.592,5.592,0,0,1-6365.838-1801.334Z" transform="translate(3.364 0.573)" fill="#ef6c00"/>
    <path id="Trazado_145506" data-name="Trazado 145506" d="M-6372.473-1798.351a5.626,5.626,0,0,1-2-.464v-1.573a6.867,6.867,0,0,0,1.193.467,4.125,4.125,0,0,0,1.131.188,1.342,1.342,0,0,0,.59-.1.336.336,0,0,0,.187-.323.33.33,0,0,0-.134-.266,2.145,2.145,0,0,0-.45-.246q-.316-.138-.85-.331a3.9,3.9,0,0,1-.971-.5,1.739,1.739,0,0,1-.537-.621,1.926,1.926,0,0,1-.169-.855,1.539,1.539,0,0,1,.5-1.221,2.663,2.663,0,0,1,1.507-.545v-1.05h.979v1.041a5.52,5.52,0,0,1,1.9.464l-.563,1.349a4.425,4.425,0,0,0-1.785-.445,1.105,1.105,0,0,0-.533.092.3.3,0,0,0-.154.273.331.331,0,0,0,.112.257,1.509,1.509,0,0,0,.386.228c.182.083.437.18.762.292a3.676,3.676,0,0,1,1.42.8,1.589,1.589,0,0,1,.432,1.153,1.735,1.735,0,0,1-.5,1.293,2.455,2.455,0,0,1-1.47.615v1.268h-.979Z" transform="translate(3.936 0.828)" fill="#0f0140"/>
    <path id="Trazado_145507" data-name="Trazado 145507" d="M-6345.79-1781.791l0,0h-1.451a15.9,15.9,0,0,0-3.944-5.948l2.491-4.72a.019.019,0,0,0-.01-.027,7.609,7.609,0,0,0-4.878-.572l.35-.845a.02.02,0,0,0-.011-.027,7.757,7.757,0,0,0-7.26,1.058,25.074,25.074,0,0,0-6.479-.842,22.991,22.991,0,0,0-15.119,5.349,15.016,15.016,0,0,0-5.462,11.289c0,.08,0,.159,0,.239a3.212,3.212,0,0,1-1.847-.709,2.394,2.394,0,0,0,1.085-1.177h0a2.278,2.278,0,0,0-.444-2.34,2.868,2.868,0,0,0-1.764-1c-1.959-.071-1.25,2.929.054,4.261l.077.079.172.179a3.692,3.692,0,0,1-1.447.842.463.463,0,0,0-.305.486v.006a.181.181,0,0,0,.136.164c.222.042.874.028,2.03-1.086a5.08,5.08,0,0,0,2.3,1.278,15.654,15.654,0,0,0,6.683,11.09.9.9,0,0,0-.021.19v3.817a.911.911,0,0,0,.908.908h6.523a.911.911,0,0,0,.908-.908v-.288a25.222,25.222,0,0,0,5.524.606,25.315,25.315,0,0,0,4.753-.448v.13a.91.91,0,0,0,.908.908h6.522a.91.91,0,0,0,.908-.908v-3.484a17.1,17.1,0,0,0,6.4-7.487c.092-.217.177-.436.257-.658h1.426a.186.186,0,0,1,.008.027,5.079,5.079,0,0,0,2.61-4.721A5.088,5.088,0,0,0-6345.79-1781.791Zm-44.017.872a1.2,1.2,0,0,1,.525.554,3.43,3.43,0,0,1,.164.431,1.227,1.227,0,0,1-.061.886,4.441,4.441,0,0,1-.6.941C-6391.187-1778.995-6391.436-1781.767-6389.807-1780.919Zm25.8-9.418h-8.138v-1.194H-6364Z" transform="translate(0 3.39)" fill="#ef6c00"/>
  </g>
</svg>
