<svg xmlns="http://www.w3.org/2000/svg" width="637.5" height="350.369" viewBox="0 0 637.5 350.369">
  <g id="Grupo_92600" data-name="Grupo 92600" transform="translate(-704 -7619.972)">
    <rect id="Rectángulo_34326" data-name="Rectángulo 34326" width="629.5" height="343" rx="36" transform="translate(712 7627.34)" fill="#8a7cbf"/>
    <rect id="Rectángulo_34327" data-name="Rectángulo 34327" width="629.5" height="343" rx="36" transform="translate(705 7619.972)" fill="#fff"/>
    <rect id="Rectángulo_34328" data-name="Rectángulo 34328" width="40" height="8" transform="translate(704 7824.98) rotate(-90)" fill="#ef6c00"/>
    <rect id="Rectángulo_34329" data-name="Rectángulo 34329" width="115" height="31" transform="translate(937 7713.315)" fill="#0f0140"/>
    <path id="Trazado_149113" data-name="Trazado 149113" d="M6.172,12.008a1.43,1.43,0,0,0-.355-1.02,3.222,3.222,0,0,0-1.207-.7,14.24,14.24,0,0,1-1.469-.637,4.679,4.679,0,0,1-1.059-.727,2.919,2.919,0,0,1-.687-.965,3.238,3.238,0,0,1-.246-1.32,2.93,2.93,0,0,1,.844-2.164,3.56,3.56,0,0,1,2.242-.984V1.82h1.25v1.7A3.263,3.263,0,0,1,7.648,4.668a3.8,3.8,0,0,1,.781,2.48H6.172a2.156,2.156,0,0,0-.387-1.4A1.278,1.278,0,0,0,4.75,5.281a1.317,1.317,0,0,0-.992.363,1.383,1.383,0,0,0-.352,1A1.321,1.321,0,0,0,3.75,7.6a3.788,3.788,0,0,0,1.277.734,14.187,14.187,0,0,1,1.535.707,4.431,4.431,0,0,1,1.016.75,2.9,2.9,0,0,1,.633.953,3.277,3.277,0,0,1,.219,1.246A2.917,2.917,0,0,1,7.6,14.148a3.632,3.632,0,0,1-2.281.977V16.68H4.078V15.133A3.758,3.758,0,0,1,1.6,14,3.664,3.664,0,0,1,.719,11.43H2.977a2.077,2.077,0,0,0,.441,1.426,1.61,1.61,0,0,0,1.27.5,1.551,1.551,0,0,0,1.086-.363A1.261,1.261,0,0,0,6.172,12.008ZM17.75,15h-7.8V13.453l3.68-3.922a9.078,9.078,0,0,0,1.121-1.445,2.322,2.322,0,0,0,.363-1.172,1.738,1.738,0,0,0-.383-1.191,1.382,1.382,0,0,0-1.094-.434,1.49,1.49,0,0,0-1.207.527A2.089,2.089,0,0,0,11.992,7.2H9.727a3.729,3.729,0,0,1,.5-1.9,3.5,3.5,0,0,1,1.4-1.348,4.262,4.262,0,0,1,2.055-.488,4.036,4.036,0,0,1,2.73.844A2.985,2.985,0,0,1,17.383,6.7a3.825,3.825,0,0,1-.437,1.719,9.551,9.551,0,0,1-1.5,2.039L12.859,13.18H17.75Zm9.039-4.7a5.763,5.763,0,0,1-.977,3.609,3.409,3.409,0,0,1-2.859,1.25,3.433,3.433,0,0,1-2.844-1.227A5.594,5.594,0,0,1,19.1,10.414V8.32A5.687,5.687,0,0,1,20.09,4.7a3.434,3.434,0,0,1,2.848-1.234,3.437,3.437,0,0,1,2.844,1.223A5.576,5.576,0,0,1,26.789,8.2Zm-2.258-2.3a4.165,4.165,0,0,0-.387-2.061,1.307,1.307,0,0,0-1.207-.645,1.284,1.284,0,0,0-1.176.614,3.9,3.9,0,0,0-.4,1.92v2.768a4.373,4.373,0,0,0,.379,2.068,1.29,1.29,0,0,0,1.215.676,1.268,1.268,0,0,0,1.2-.649,4.268,4.268,0,0,0,.383-1.986Zm3.992,5.9a1.137,1.137,0,0,1,.363-.875,1.412,1.412,0,0,1,1.828,0,1.137,1.137,0,0,1,.363.875,1.121,1.121,0,0,1-.359.863,1.435,1.435,0,0,1-1.836,0A1.121,1.121,0,0,1,28.523,13.891ZM40.617,10.3a5.762,5.762,0,0,1-.977,3.609,3.409,3.409,0,0,1-2.859,1.25,3.433,3.433,0,0,1-2.844-1.227,5.594,5.594,0,0,1-1.008-3.516V8.32A5.687,5.687,0,0,1,33.918,4.7a3.434,3.434,0,0,1,2.848-1.234,3.437,3.437,0,0,1,2.844,1.223A5.576,5.576,0,0,1,40.617,8.2Zm-2.258-2.3a4.165,4.165,0,0,0-.387-2.061,1.307,1.307,0,0,0-1.207-.645A1.284,1.284,0,0,0,35.59,5.9a3.9,3.9,0,0,0-.4,1.92v2.768a4.372,4.372,0,0,0,.379,2.068,1.29,1.29,0,0,0,1.215.676,1.268,1.268,0,0,0,1.2-.649,4.268,4.268,0,0,0,.383-1.986ZM49.8,10.3a5.762,5.762,0,0,1-.977,3.609,3.9,3.9,0,0,1-5.7.023,5.594,5.594,0,0,1-1.008-3.516V8.32A5.687,5.687,0,0,1,43.1,4.7a3.91,3.91,0,0,1,5.691-.012A5.576,5.576,0,0,1,49.8,8.2Zm-2.258-2.3a4.165,4.165,0,0,0-.387-2.061,1.307,1.307,0,0,0-1.207-.645A1.284,1.284,0,0,0,44.77,5.9a3.9,3.9,0,0,0-.4,1.92v2.768a4.372,4.372,0,0,0,.379,2.068,1.29,1.29,0,0,0,1.215.676,1.268,1.268,0,0,0,1.2-.649,4.268,4.268,0,0,0,.383-1.986Zm11.438,2.3A5.762,5.762,0,0,1,58,13.906a3.9,3.9,0,0,1-5.7.023,5.594,5.594,0,0,1-1.008-3.516V8.32A5.687,5.687,0,0,1,52.277,4.7a3.91,3.91,0,0,1,5.691-.012A5.576,5.576,0,0,1,58.977,8.2Zm-2.258-2.3a4.165,4.165,0,0,0-.387-2.061,1.307,1.307,0,0,0-1.207-.645,1.284,1.284,0,0,0-1.176.614,3.9,3.9,0,0,0-.4,1.92v2.768a4.372,4.372,0,0,0,.379,2.068,1.29,1.29,0,0,0,1.215.676,1.268,1.268,0,0,0,1.2-.649,4.268,4.268,0,0,0,.383-1.986Z" transform="translate(968 7716.315)" fill="#fff"/>
    <g id="Grupo_88553" data-name="Grupo 88553" transform="translate(773.526 7682.841)">
      <g id="Grupo_87483" data-name="Grupo 87483" transform="translate(232.315 0)">
        <g id="Grupo_87476" data-name="Grupo 87476" transform="translate(0 130.316)">
          <path id="Trazado_101384" data-name="Trazado 101384" d="M-1342.649-851.448c-5.885,6.988-11.219,18.575-14.529,20.414s-8.893,2.479-14.168,19.457,21.356,14.654,21.356,14.654,11.386-6.54,15.985-22.34l11.4-10.115Z" transform="translate(1385.777 912.259)" fill="#ffa497"/>
          <path id="Trazado_101385" data-name="Trazado 101385" d="M-1363.541-799.447a42.684,42.684,0,0,0,15.93-10.528c7.338-7.751,8.284-21.541,8.284-21.541l3.515,6.568,7.03-7.514,3.389-.328,2.5,2.751-11.4,10.115c-4.6,15.8-15.985,22.339-15.985,22.339a42.331,42.331,0,0,1-13.552-1.212C-1363.672-799.2-1363.541-799.447-1363.541-799.447Z" transform="translate(1386.068 912.92)" fill="#f45763"/>
          <path id="Trazado_101386" data-name="Trazado 101386" d="M-1303.445-910.178c-8.156,5.963-13.024,10.29-17.079,18.4s-29.473,37.255-31.1,39.854,14.284,30.179,27.016,36.938c0,0,19.222-22.172,30.308-30.555s7.3-38.126,2.163-48.13A78.135,78.135,0,0,0-1303.445-910.178Z" transform="translate(1386.497 910.178)" fill="#0f0140"/>
          <path id="Trazado_101387" data-name="Trazado 101387" d="M-1304.324-857.779v-16.556s2.158-.865,3.841,4.724a15.341,15.341,0,0,1,.32,6.609l12.376-9.308c.512,10.42-1.16,21.017-7.091,25.5-11.086,8.383-30.308,30.555-30.308,30.555-3.284-1.744-6.779-4.878-10.131-8.607C-1327.49-832.653-1312.642-847.7-1304.324-857.779Z" transform="translate(1387.078 911.446)" fill="#170c62"/>
          <path id="Trazado_101388" data-name="Trazado 101388" d="M-1381.627-805.106c-2.116.661-3.68,1.672-3.68,4.339s.46,6.9,1.471,8.553,6.234,2.647,6.234,2.647-.349-11.015-1.453-13.038A5.151,5.151,0,0,0-1381.627-805.106Z" transform="translate(1385.307 913.901)" fill="#ffa497"/>
          <path id="Trazado_101389" data-name="Trazado 101389" d="M-1383.861-792.59a7.36,7.36,0,0,1-.72-1.927,3.564,3.564,0,0,0,2.9,1.269l3.966,1.236c.061,1.239.087,2.068.087,2.068S-1382.85-790.935-1383.861-792.59Z" transform="translate(1385.333 914.277)" fill="#f45763"/>
          <path id="Trazado_101390" data-name="Trazado 101390" d="M-1376.68-809c-2.575.275-5.15,2.206-5.15,4.874s-.92,10.115,0,11.31,5.426,4.6,6.989,4.874,4.218-.184,3.856-1.012S-1376.68-809-1376.68-809Z" transform="translate(1385.416 913.763)" fill="#ffa497"/>
          <path id="Trazado_101391" data-name="Trazado 101391" d="M-1382.221-795.3c1.953,2.2,6.945,2.006,6.945,2.006a19.917,19.917,0,0,1,2.464,3.1c.164.455,1.061,1.053,1.185,1.516a7.042,7.042,0,0,1-3.214.258c-1.532-.27-5.884-3.541-6.922-4.8l-.458-2.075Z" transform="translate(1385.416 914.249)" fill="#f45763"/>
          <path id="Trazado_101392" data-name="Trazado 101392" d="M-1367.219-813.246c-7.9.445-9.372,1.18-9.647,4.4s-.092,12.6.919,14.989,1.563,4.505,2.851,5.793a5.032,5.032,0,0,0,3.213,1.291s4.327-6.349,4.511-11.683S-1367.219-813.246-1367.219-813.246Z" transform="translate(1385.602 913.613)" fill="#ffa497"/>
          <path id="Trazado_101393" data-name="Trazado 101393" d="M-1371.792-792.365a47.877,47.877,0,0,0,1.4-11.822c.042-2.746,2.589,11.595,1.452,15.531-.567.976-.973,1.574-.973,1.574a5.033,5.033,0,0,1-3.213-1.291c-1.287-1.288-1.839-3.4-2.851-5.793a4.513,4.513,0,0,1-.187-.555C-1375.647-793.38-1374.009-792.5-1371.792-792.365Z" transform="translate(1385.631 913.922)" fill="#f45763"/>
          <path id="Trazado_101394" data-name="Trazado 101394" d="M-1350.146-796.988c-.5,4.394-6.253,5.978-6.9,8.184s-.183,4.231-1.287,4.782-5.7-2.022-5.518-4.965a5.724,5.724,0,0,1-3.862,2.943c-2.666.46-3.31-1.489-2.85-4.422a37.426,37.426,0,0,0,.276-7.993c-.092-3.494-.92-6.713.643-10.575s3.679-7.265,7.909-6.621,6.8,5.978,9.1,7.817S-1349.594-801.862-1350.146-796.988Z" transform="translate(1385.825 913.525)" fill="#ffa497"/>
          <path id="Trazado_101395" data-name="Trazado 101395" d="M-1364.082-789.278c.258-5.588.55-10.162.55-11.064s-.292-6.833,1.817-7.193c.32-.055,4.957,2.885,5.047,4.868s0,5.543-1.441,6.556S-1364.082-789.278-1364.082-789.278Z" transform="translate(1386.059 913.815)" fill="#f45763"/>
        </g>
        <g id="Grupo_87477" data-name="Grupo 87477" transform="translate(78.399 73.413)">
          <path id="Trazado_101396" data-name="Trazado 101396" d="M-1174.382-897.428c-8.382-10.636-11.266-11.718-19.919-16.765s-41.461-17.847-48.22-19.468-34.024,11.085-42.971,15.142-20.329,8.046-22.268,12c-6.493,13.232,6.366,31.985,6.433,71.282.036,20.582,4.726,66.866,4.726,66.866s103.021.192,104.463-1.971,5.048-76.072,6.85-91.214S-1174.382-897.428-1174.382-897.428Z" transform="translate(1309.591 966.244)" fill="#0f0140"/>
          <line id="Línea_151" data-name="Línea 151" x1="2.209" y1="15.277" transform="translate(0 65.165)" fill="none" stroke="#170c62" stroke-miterlimit="10" stroke-width="1"/>
          <path id="Trazado_101397" data-name="Trazado 101397" d="M-1269.715-902.111c-3.98-1.487-13.411,1.1-15.134,1.7s1.014-6.769,2.027-7.681,2.636-3.038,5.746-2.077,5.724,4.522,6.174,5.693A16.65,16.65,0,0,0-1269.715-902.111Z" transform="translate(1310.448 967.073)" fill="#170c62"/>
          <path id="Trazado_101398" data-name="Trazado 101398" d="M-1237.24-896.033c-1.419-.067-9.7-3.876-11.683-4.822s-10.967-1.389-17,.3c0,0,11.612-7.845,18.372-7.778s9.328,2.5,9.87,4.665A44.878,44.878,0,0,1-1237.24-896.033Z" transform="translate(1311.139 967.147)" fill="#170c62"/>
          <path id="Trazado_101399" data-name="Trazado 101399" d="M-1280.406-786.67c1.106-1.082,68.385,1.081,69.738-5.95s2.282-19.815,2.282-19.815c-8.1,4.326-19.858,2.524-19.858,2.524,7.841-2.561,19.2-15.427,19.739-19.213,1.666-11.661-4.564-43.813-4.564-43.813l4.564-9.183,5.341-2.975a74.13,74.13,0,0,1,18.787,14.32,72.935,72.935,0,0,0-1.337,7.491c-1.7,14.277-5,80.778-6.582,90.152-20.838.768-58.614,2.152-83.891,3.019-12.247.029-20.84.013-20.84.013s-.158-6.088-.526-14.818C-1290.5-785.329-1281.092-786-1280.406-786.67Z" transform="translate(1310.018 967.97)" fill="#170c62"/>
          <path id="Trazado_101400" data-name="Trazado 101400" d="M-1267.142-899.231c7.26-.876,18.928-7.166,23.525-5s5.678,7.706,6.625,8.652,5-3.786,5-15.412.356-23.533-8.2-25.151-30.734,6.764-35.2,10.144a21.074,21.074,0,0,0-7.571,10.093c-1.217,3.291-4.461,16.54-2.974,16.676s5.678-8.517,8.788-8.788S-1269.107-898.994-1267.142-899.231Z" transform="translate(1310.416 966.154)" fill="#0f0140"/>
          <path id="Trazado_101401" data-name="Trazado 101401" d="M-1271.656-909.952c-1.85-4.394-3.879-8.247-3.811-11.289s.743-5.138,4.123-6.084,4.8.879,5,5.475S-1271.656-909.952-1271.656-909.952Z" transform="translate(1310.801 966.465)" fill="#170c62"/>
          <path id="Trazado_101402" data-name="Trazado 101402" d="M-1246.191-917.863c7.068-6.41,7.867-13.576,7.2-15.063s-3.583-2.568-3.583-2.568-1.149,4.664-.473,5.813S-1246.191-917.863-1246.191-917.863Z" transform="translate(1311.838 966.184)" fill="#170c62"/>
          <path id="Trazado_101403" data-name="Trazado 101403" d="M-1257.055-903.058c4.321-1.636,11.549-3.469,13.875-1.01a19.075,19.075,0,0,1,4.025,5.561c1.126,2.2,1.544,4.26,4.157-1.2s1.97-16.273,1.97-16.273" transform="translate(1311.453 966.876)" fill="none" stroke="#170c62" stroke-miterlimit="10" stroke-width="1"/>
          <path id="Trazado_101404" data-name="Trazado 101404" d="M-1272.661-905.73s-3.516-4.006-4.932-3.159-3.122,1.939-5.341,5.517-4.872,5.333-2.588-3.676" transform="translate(1310.413 967.123)" fill="none" stroke="#170c62" stroke-miterlimit="10" stroke-width="1"/>
          <path id="Trazado_101405" data-name="Trazado 101405" d="M-1272.745-935.031c.017,2.857.13,5.705.427,8.546.729,6.972.014,16.166.565,17.863.615,1.893,4.266,8.652,4.266,8.652s6.489-2.974,9.194-6.219,6.219-3.409,10.951-8.193,7.949-12.385,6.9-18.711c-.135-.811-.966-8.909-1.149-17.291s-8.991-14.751-17.373-14.751-13.4,12.439-13.663,20.82C-1272.74-940.874-1272.759-937.644-1272.745-935.031Z" transform="translate(1310.897 965.134)" fill="#ffa497"/>
          <path id="Trazado_101406" data-name="Trazado 101406" d="M-1241.6-950.461c.183,8.382,1.014,16.48,1.149,17.291a17.163,17.163,0,0,1-.167,6.111c-1.854.343-25.728.918-31.912-1.961-.141-2.025-.206-4.055-.218-6.088-.014-2.614.005-5.843.113-9.283a31.562,31.562,0,0,1,2.794-11.588l19.637-6.96C-1245.38-960.368-1241.714-955.833-1241.6-950.461Z" transform="translate(1310.897 965.212)" fill="#f45763"/>
        </g>
        <g id="Grupo_87479" data-name="Grupo 87479" transform="translate(75.685 0)">
          <path id="Trazado_101407" data-name="Trazado 101407" d="M-1286.35-984.6c-12.684,0-17.431,9.744-17.431,17.045,0,6.553,2.1,17.045,17.431,17.045,7.665,0,12.854-7.632,12.854-17.045S-1278.685-984.6-1286.35-984.6Z" transform="translate(1312.511 1037.857)" fill="#524786"/>
          <path id="Trazado_101408" data-name="Trazado 101408" d="M-1287.037-980.566c-9.578,0-13.162,7.358-13.162,12.871,0,4.948,1.586,12.872,13.162,12.872,5.788,0,9.706-5.763,9.706-12.872S-1281.249-980.566-1287.037-980.566Z" transform="translate(1312.638 1038)" fill="#38295c"/>
          <path id="Trazado_101409" data-name="Trazado 101409" d="M-1302.383-977.7c.75,4.444,2.949,6.142,3.931,12.134s-1.638,14.7,2.271,22.281,10.227,17.553,13.878,17.974,32.893-4.519,42.759-24.138c2.832-5.632,8.884-27.717,3.7-41.2s-13.6-25.842-33.077-26.216S-1306.354-1001.253-1302.383-977.7Z" transform="translate(1312.541 1036.713)" fill="#ffa497"/>
          <path id="Trazado_101410" data-name="Trazado 101410" d="M-1286.6-955.47a3.433,3.433,0,0,0,2.7-1.054,2.762,2.762,0,0,0,.5-2.12,6.271,6.271,0,0,1-5.262,1.143C-1288.9-956.1-1287.819-955.5-1286.6-955.47Z" transform="translate(1313.045 1038.777)" fill="#f45763"/>
          <path id="Trazado_101411" data-name="Trazado 101411" d="M-1251.322-977.02a13.051,13.051,0,0,0-3.831-7.292s-7.443-3.089-13.2-3.651a75.762,75.762,0,0,1-11.655-2.247s1.825,4.623,4.915,6.595c0,0-13.762-.7-18.115-4.769,0,0,.843,3.357,1.685,5.61,0,0-6.74-.695-8.847-3.363,0,0-1.685,5.875-1.685,9.117,0,0-8.1-11.082-6.038-19.882s4.868-12.17,4.868-12.17-5.8.561-8.988,0c0,0,7.489-6.553,13.107-10.86s22.468-4.494,22.468-4.494-1.311-4.494.187-11.608c0,0,7.208,10.579,14.838,13.809s6.6,2.955,14.692,5,15.78,7.219,19.01,11.573,6.74,8.846,8.847,9.549c0,0-5.056-.7-7.583-2.809,0,0,4.215,9.574-1.356,21.9s-19.527,8.675-22.234,5.956A5.3,5.3,0,0,1-1251.322-977.02Z" transform="translate(1312.212 1036.034)" fill="#d16452"/>
          <path id="Trazado_101412" data-name="Trazado 101412" d="M-1252.147-971.612a5.3,5.3,0,0,1-1.084-5.956,13.172,13.172,0,0,0-2.718-6.08,82.122,82.122,0,0,0-2.4-36.939,42.406,42.406,0,0,0,6.394,2.019,69.279,69.279,0,0,1,8.453,18.345c2.449,8.156,3.635,16.966,1.35,25.168a27.516,27.516,0,0,1-2.521,6.076C-1248.134-969.269-1251.056-970.515-1252.147-971.612Z" transform="translate(1314.121 1036.581)" fill="#994234"/>
          <path id="Trazado_101413" data-name="Trazado 101413" d="M-1248.158-982.069s.963-30.8-15.186-40.627a21.059,21.059,0,0,1,19.659,11.094c7.162,12.5,6.678,23.217,6.5,29.224S-1248.158-982.069-1248.158-982.069Z" transform="translate(1313.944 1036.505)" fill="#524786"/>
          <path id="Trazado_101414" data-name="Trazado 101414" d="M-1243.483-984.6c12.684,0,17.43,9.744,17.43,17.045,0,6.553-2.1,17.045-17.43,17.045-7.666,0-12.854-7.632-12.854-17.045S-1251.148-984.6-1243.483-984.6Z" transform="translate(1314.192 1037.857)" fill="#524786"/>
          <path id="Trazado_101415" data-name="Trazado 101415" d="M-1250.527-967.617c0-8.357,5.517-15.132,12.322-15.132s11.947,6.775,11.947,15.132-5.142,15.132-11.947,15.132S-1250.527-959.26-1250.527-967.617Z" transform="translate(1314.398 1037.922)" fill="#38295c"/>
          <ellipse id="Elipse_4754" data-name="Elipse 4754" cx="8.385" cy="10.298" rx="8.385" ry="10.298" transform="translate(69.434 60.008)" fill="#524786"/>
          <g id="Grupo_87478" data-name="Grupo 87478" transform="translate(22.981 87.351)">
            <path id="Trazado_101416" data-name="Trazado 101416" d="M-1274.439-951.673c-3.427,1.887-14.625,2.516-15.386,2.411s.8,8.4,3.544,8.711,8.226-.419,10.511-2.621S-1274.439-951.673-1274.439-951.673Z" transform="translate(1290.017 951.673)" fill="#f45763"/>
            <path id="Trazado_101417" data-name="Trazado 101417" d="M-1275.184-949.213c-.211-.753-.376-1.358-.536-1.948-3.771,1.287-11.194,1.832-13.481,1.887a15.735,15.735,0,0,0,.977,3.418c.073-.047-.018.109.055.062A16.684,16.684,0,0,0-1275.184-949.213Z" transform="translate(1290.046 951.691)" fill="#fff"/>
          </g>
          <path id="Trazado_101418" data-name="Trazado 101418" d="M-1276.431-971.2c0-1.551.764-2.809,1.708-2.809s1.709,1.258,1.709,2.809-.765,2.808-1.709,2.808S-1276.431-969.652-1276.431-971.2Z" transform="translate(1313.48 1038.232)" fill="#471052"/>
          <path id="Trazado_101419" data-name="Trazado 101419" d="M-1295.312-969.938c0-1.551.659-2.808,1.469-2.808s1.468,1.257,1.468,2.808-.658,2.809-1.468,2.809S-1295.312-968.387-1295.312-969.938Z" transform="translate(1312.811 1038.277)" fill="#471052"/>
          <path id="Trazado_101420" data-name="Trazado 101420" d="M-1266.674-981.8a17.827,17.827,0,0,0-3.714-1.457,17.823,17.823,0,0,0-4-.6,9.933,9.933,0,0,0-4.1.4,7.536,7.536,0,0,0-3.39,2.37l.1.168c1.41-.152,2.575-.5,3.805-.661,1.2-.181,2.37-.62,3.626-.722a21.752,21.752,0,0,1,7.6.678Z" transform="translate(1313.287 1037.882)" fill="#471052"/>
          <path id="Trazado_101421" data-name="Trazado 101421" d="M-1300.08-978.282a7.676,7.676,0,0,1,1.889-.458,15.755,15.755,0,0,1,1.9-.125,8.357,8.357,0,0,0,1.884.067,5.6,5.6,0,0,0,.958-.266,3.9,3.9,0,0,0,1.02-.509l.021-.194a3.68,3.68,0,0,0-2-.979,4.765,4.765,0,0,0-2.093.338,9.761,9.761,0,0,0-1.987.741,6.472,6.472,0,0,0-1.71,1.231Z" transform="translate(1312.638 1037.992)" fill="#471052"/>
        </g>
        <g id="Grupo_87482" data-name="Grupo 87482" transform="translate(53.326 138.738)">
          <path id="Trazado_101422" data-name="Trazado 101422" d="M-1279.121-783c.008.435-.6,1.063-2.088,1.063H-1328.1c-5.407,0-6.669-2.139-5.047-4.843s8.472-8.652,25.417-12.8,25.855,5.548,28.609,9.915C-1277.1-786.463-1279.121-783-1279.121-783Z" transform="translate(1333.806 905.64)" fill="#524786"/>
          <path id="Trazado_101423" data-name="Trazado 101423" d="M-1333.547-786.116c.933,3.1,36.713,1.485,36.713,1.485s-3.627-4.9-7.639-5.041-5.961,1.254-11.34,2.178-1.391-2.189-1.391-2.189-3.8-.841-5.348-2.04c0,0,8.864-2.62,12.581-3.228s13.182-.2,14.4,0c.86.143,5.228-2.393,10.505-1.119a23.608,23.608,0,0,1,5.945,6.257c2.02,3.2,0,6.663,0,6.663.008.435-.6,1.063-2.088,1.063H-1328.1C-1332.953-782.085-1334.46-783.809-1333.547-786.116Z" transform="translate(1333.807 905.787)" fill="#38295c"/>
          <path id="Trazado_101424" data-name="Trazado 101424" d="M-1180.808-811.1s-33.347,5.156-51.421,8.39c-17.122,3.064-31.907,4.394-36.1,3.583s-18.522-6.083-23.118-7.976-13.79-2.975-18.522-1.488-8.608,3.11-10.5,3.11-1.532,3.064.991,3.7a18.924,18.924,0,0,0,4.777.541s-8.563,4.686-10.1,5.138.284,3.244,2.357,3.064c0,0-1.815,1.082-1.185,2.163s5.138,1.082,5.138,1.082-5.5,2.7-.9,3.786,10.094-4.056,12.349-4.507,7.481-.18,10,1.713,13.34,10.636,28.122,5.408c0,0,100.33,4.065,110.334,4.065s16.047-8.842,12.839-25.877a129.372,129.372,0,0,0-9.427-29.744l-34.611,2.433Z" transform="translate(1334.105 904.422)" fill="#ffa497"/>
          <g id="Grupo_87480" data-name="Grupo 87480" transform="translate(13.022 100.112)">
            <path id="Trazado_101425" data-name="Trazado 101425" d="M-1307.436-805a13.744,13.744,0,0,1,2.028-.356S-1306.264-805.211-1307.436-805Z" transform="translate(1321.719 805.359)" fill="#f45763"/>
            <path id="Trazado_101426" data-name="Trazado 101426" d="M-1314.845-802.306a18.924,18.924,0,0,1-4.778-.541,3.008,3.008,0,0,1-1.607-.99c2.807,1.24,6.261.448,8.153,0,1.194-.285,4.126-.819,6.13-1.176A46.965,46.965,0,0,0-1314.845-802.306Z" transform="translate(1321.23 805.371)" fill="#f45763"/>
          </g>
          <g id="Grupo_87481" data-name="Grupo 87481" transform="translate(9.329 107.021)">
            <path id="Trazado_101427" data-name="Trazado 101427" d="M-1314.638-798.475a5.239,5.239,0,0,1,.518-.211Z" transform="translate(1325.157 798.686)" fill="#f45763"/>
            <path id="Trazado_101428" data-name="Trazado 101428" d="M-1324.8-795.392c.033.029,1.022.9,3.105-.005,1.736-.755,5.947-2.484,7.414-3.085-1.846.838-6.85,3.662-8.18,4.146A2.894,2.894,0,0,1-1324.8-795.392Z" transform="translate(1324.797 798.693)" fill="#f45763"/>
          </g>
          <path id="Trazado_101429" data-name="Trazado 101429" d="M-1319.685-792.153c1.532-.451,4.732-2.388,6.692-3.314a13.477,13.477,0,0,1,4.462-1.034,9.514,9.514,0,0,0-2.7,1.034c-1.961.966-7.336,4.306-7.336,4.306a16.587,16.587,0,0,1-4.367-.558A12.809,12.809,0,0,0-1319.685-792.153Z" transform="translate(1334.192 905.785)" fill="#f45763"/>
          <path id="Trazado_101430" data-name="Trazado 101430" d="M-1291.746-789.98c2.839,1.757,11.222,4.056,16.224,3.109a7.623,7.623,0,0,0,6.084-5.138l1.4,4.507s69.582,1.983,83.733,1.346c13.988-.628,35.805-.946,38.655-9.348-.782,9.752-6.065,14.771-13.6,14.771-10,0-110.334-4.065-110.334-4.065-14.782,5.228-25.6-3.515-28.122-5.408-2.1-1.573-6.06-2.023-8.633-1.872h0C-1302.5-793.423-1294.586-791.737-1291.746-789.98Z" transform="translate(1334.78 905.82)" fill="#f45763"/>
          <path id="Trazado_101431" data-name="Trazado 101431" d="M-1185.658-811.57s13.036-1.772,15.65-2.042l-1.983-8.113-16.494,3.335Z" transform="translate(1338.956 904.891)" fill="#f45763"/>
          <path id="Trazado_101432" data-name="Trazado 101432" d="M-1149.809-831.43a3.382,3.382,0,0,1-.794,3.649c-6.059,5.915-14.012,13.974-22.193,15.214-8.923,1.351-23.8,1.893-24.606,0s-3.786-25.958-9.194-38.126-8.922-18.387-10.275-25.418,10.816-23.524,16.223-24.876,17.847-2.163,22.984,2.434,8.923,22.172,14.872,35.421C-1157.992-852.441-1151.96-837-1149.809-831.43Z" transform="translate(1337.946 902.045)" fill="#0f0140"/>
          <path id="Trazado_101433" data-name="Trazado 101433" d="M-1183.349-901.225s-9-1.838-17.37.235-14.259,16.495-14.259,16.495" transform="translate(1338.017 902.047)" fill="none" stroke="#170c62" stroke-miterlimit="10" stroke-width="1"/>
          <path id="Trazado_101434" data-name="Trazado 101434" d="M-1158.038-826.777c-.044-4.32-9.168-43.927-17.227-66h0c3.426,7.543,6.628,19.595,10.994,29.321,4.8,10.691,10.833,26.136,12.983,31.7a3.379,3.379,0,0,1-.794,3.648c-2.32,2.266-4.922,4.845-7.7,7.236C-1159.576-821.078-1158-822.743-1158.038-826.777Z" transform="translate(1339.425 902.373)" fill="#170c62"/>
        </g>
      </g>
      <g id="Grupo_87491" data-name="Grupo 87491" transform="translate(32.041 143.218)">
        <g id="Grupo_87485" data-name="Grupo 87485" transform="translate(0 20.951)">
          <path id="Trazado_101435" data-name="Trazado 101435" d="M-1578.68-871.94a6.384,6.384,0,0,0,.761,3.853,27.669,27.669,0,0,1,3.4,14.118c-.1,3.226-.764,6.526.114,9.633,1.515,5.358,7.17,8.672,8.991,13.934,1.613,4.666.113,10.534,3.466,14.156a3.135,3.135,0,0,0,3.259,1.131,3.976,3.976,0,0,0,1.4-1.166c3.846-4.367,7.96-9.673,6.775-15.369-1.114-5.35-6.628-8.966-7.672-14.33-.854-4.383,1.386-9.44-1.126-13.132-.693-1.019-1.685-1.8-2.442-2.77-2.986-3.835-1.88-9.947-5.321-13.38a7.938,7.938,0,0,0-4.057-2.081,6.3,6.3,0,0,0-7.551,5.4Z" transform="translate(1578.727 877.484)" fill="#d25e5a"/>
          <g id="Grupo_87484" data-name="Grupo 87484" transform="translate(6.843 7.157)">
            <path id="Trazado_101436" data-name="Trazado 101436" d="M-1557.074-804.2c.231-2.854.329-5.709.436-8.572-.131-2.853-.283-5.707-.527-8.56s-.564-5.7-1.069-8.54a36.311,36.311,0,0,0-2.375-8.344c-2.07-5.235-3.744-10.708-5.435-16.133l-2.453-8.178q-1.511-4.007-2.942-8.044c.417,2.836,1.066,5.621,1.635,8.425l2.458,8.2c1.7,5.451,3.359,10.893,5.479,16.257a34.943,34.943,0,0,1,2.292,8.059c.494,2.775.811,5.592,1.053,8.417s.4,5.662.513,8.5Z" transform="translate(1572.142 870.572)" fill="#ffa7a4"/>
            <path id="Trazado_101437" data-name="Trazado 101437" d="M-1572.118-862.255a6.71,6.71,0,0,0,1.728,1.719,10.093,10.093,0,0,0,1.091.554,4.172,4.172,0,0,1,.993.687l.13.117.116-.177c.272-.416.6-.8.864-1.224s.517-.847.739-1.287a10.027,10.027,0,0,0,.924-2.848l-.082-.04a10.087,10.087,0,0,0-1.711,2.458c-.215.444-.389.909-.578,1.367s-.286.96-.453,1.429l.245-.06a4.141,4.141,0,0,1-.948-.744,10.033,10.033,0,0,0-.851-.877,6.706,6.706,0,0,0-2.154-1.144Z" transform="translate(1572.118 870.778)" fill="#ffa7a4"/>
            <path id="Trazado_101438" data-name="Trazado 101438" d="M-1571.448-852.823c.49.4,1,.841,1.525,1.205a12.64,12.64,0,0,0,1.647,1.026c.587.282,1.211.5,1.775.824a10.943,10.943,0,0,1,1.591,1.121l.179.145.18-.236a28.578,28.578,0,0,0,2.083-3.225,20.327,20.327,0,0,0,1.5-3.553l-.079-.044a20.318,20.318,0,0,0-2.267,3.122,28.409,28.409,0,0,0-1.688,3.449l.358-.091a11.559,11.559,0,0,1-1.709-.935c-.537-.363-1.018-.821-1.537-1.218a11.3,11.3,0,0,0-1.677-.991,7.526,7.526,0,0,0-1.868-.689Z" transform="translate(1572.142 871.104)" fill="#ffa7a4"/>
            <path id="Trazado_101439" data-name="Trazado 101439" d="M-1568.1-840.458a8.235,8.235,0,0,0,1.755,1.3,6.688,6.688,0,0,0,1.994.793,5.153,5.153,0,0,1,1.931.926c.573.435,1.133.914,1.706,1.29l.432.284.322-.482a13.552,13.552,0,0,0,1.24-2.233,11.906,11.906,0,0,0,.8-2.474l-.1-.055a11.87,11.87,0,0,0-1.662,2,13.621,13.621,0,0,0-1.222,2.243l.755-.2a12.943,12.943,0,0,0-2.039-.81,5.893,5.893,0,0,1-1.882-1.049,6.115,6.115,0,0,0-1.857-1.1,7.54,7.54,0,0,0-2.126-.535Z" transform="translate(1572.26 871.616)" fill="#ffa7a4"/>
          </g>
        </g>
        <g id="Grupo_87487" data-name="Grupo 87487" transform="translate(17.983)">
          <path id="Trazado_101440" data-name="Trazado 101440" d="M-1552.891-802.68c2.23-.368,10.593-3.042,10.009-5.226-2.507-9.373-5.014-20.006,3.667-24.591,4.178-2.206,9.421-3.327,11.8-7.409,2.451-4.2.647-9.548-1.552-13.889s-4.846-8.987-3.9-13.761c.987-5,5.714-8.687,6.47-13.727,1.032-6.88-5.649-12.424-12.067-15.11-2.184-.914-4.583-1.7-6.884-1.139a8.453,8.453,0,0,0-4.195,2.71c-4.508,5.041-4.324,12.647-3.3,19.332s2.6,13.743.086,20.02c-1.788,4.459-5.616,8.652-4.591,13.346.411,1.879,1.583,3.519,2.03,5.391,1.205,5.046-2.985,9.59-4.907,14.408a17.687,17.687,0,0,0,3.921,18.53,3.92,3.92,0,0,0,3.412,1.115Z" transform="translate(1561.359 897.718)" fill="#ff7571"/>
          <g id="Grupo_87486" data-name="Grupo 87486" transform="translate(7.66 10.865)">
            <path id="Trazado_101441" data-name="Trazado 101441" d="M-1553.943-802.949c.517-3.71,1.033-7.407,1.695-11.077.157-.919.35-1.831.5-2.748s.223-1.845.374-2.761c.277-1.837.586-3.667.937-5.488a72.01,72.01,0,0,1,2.8-10.7,22.225,22.225,0,0,1,2.339-4.838,6.626,6.626,0,0,1,1.691-1.79,8.878,8.878,0,0,0,2.256-2.1,9.267,9.267,0,0,0,1.628-5.821,28.6,28.6,0,0,0-.834-5.709c-.861-3.681-1.942-7.237-2.544-10.858a24.909,24.909,0,0,1,.222-10.748c.293-.843.523-1.7.8-2.56a17.923,17.923,0,0,1,1.066-2.5,24.976,24.976,0,0,1,3.124-4.583,21.1,21.1,0,0,0-3.987,4.041,19.1,19.1,0,0,0-1.565,2.439,9.979,9.979,0,0,0-1.08,2.712,26.58,26.58,0,0,0-.259,11.479c.626,3.756,1.727,7.366,2.564,10.957a27.065,27.065,0,0,1,.792,5.357,7.582,7.582,0,0,1-1.294,4.78,7.2,7.2,0,0,1-1.829,1.693,8.249,8.249,0,0,0-2.151,2.242,23.8,23.8,0,0,0-2.537,5.219,73.651,73.651,0,0,0-2.87,10.96q-.534,2.771-.948,5.557c-.128.93-.3,1.853-.414,2.785-.1.934-.137,1.874-.2,2.811C-1553.873-810.442-1554.013-806.695-1553.943-802.949Z" transform="translate(1553.961 887.225)" fill="#ffa7a4"/>
            <path id="Trazado_101442" data-name="Trazado 101442" d="M-1539.346-876.486a5.732,5.732,0,0,0-1.68,1,6.051,6.051,0,0,0-1.314,1.381,8.933,8.933,0,0,1-1.117,1.555,13.854,13.854,0,0,1-1.46,1.237l.661.041c-.222-.48-.5-.93-.75-1.391a13.984,13.984,0,0,0-.829-1.335c-.29-.434-.62-.843-.935-1.26s-.675-.8-.962-1.245l-.112.019a4.4,4.4,0,0,0,.331,1.638,10.9,10.9,0,0,0,.678,1.468,10.075,10.075,0,0,0,.876,1.338,14.8,14.8,0,0,0,1.01,1.245l.414.435.248-.393a11.124,11.124,0,0,1,1.087-1.562,7.613,7.613,0,0,1,1.474-1.2,7.345,7.345,0,0,0,1.34-1.317,11.714,11.714,0,0,0,1.112-1.559Z" transform="translate(1554.178 887.605)" fill="#ffa7a4"/>
            <path id="Trazado_101443" data-name="Trazado 101443" d="M-1547.467-862.742a9.149,9.149,0,0,0,1,1.765,12.834,12.834,0,0,0,1.278,1.535c.484.459,1.037.851,1.553,1.275a9.257,9.257,0,0,1,1.362,1.45l.128.17.183-.146a15.355,15.355,0,0,0,1.744-1.6c.5-.576,1.041-1.121,1.51-1.721s.914-1.214,1.333-1.848.8-1.3,1.245-1.914l-.064-.094a8,8,0,0,0-1.889,1.409,17.6,17.6,0,0,0-1.569,1.686c-.489.587-.9,1.232-1.358,1.842s-.817,1.341-1.238,1.865l.312.024a8.27,8.27,0,0,1-1.374-1.428c-.387-.543-.735-1.119-1.144-1.639a17.29,17.29,0,0,0-1.368-1.427,15.032,15.032,0,0,0-1.553-1.275Z" transform="translate(1554.191 888.053)" fill="#ffa7a4"/>
            <path id="Trazado_101444" data-name="Trazado 101444" d="M-1532.534-852.131c-.7.827-1.433,1.588-2.181,2.315s-1.553,1.367-2.335,2.068a7.6,7.6,0,0,1-2.726,1.584,10.04,10.04,0,0,1-3.132.349l.465.327a20.926,20.926,0,0,0-.742-2.535,14.05,14.05,0,0,0-1.078-2.417,11.77,11.77,0,0,0-1.545-2.184,5.77,5.77,0,0,0-2.171-1.566l-.057.1a8.47,8.47,0,0,1,1.566,1.969,24.251,24.251,0,0,1,1.171,2.217l1.044,2.3c.344.772.645,1.576.945,2.358l.146.377.32-.05a18.08,18.08,0,0,0,3.183-.909,32.286,32.286,0,0,0,3.053-1.254,7.983,7.983,0,0,0,2.568-2.109,8.2,8.2,0,0,0,1.608-2.891Z" transform="translate(1554.171 888.396)" fill="#ffa7a4"/>
            <path id="Trazado_101445" data-name="Trazado 101445" d="M-1552.526-844.1a6.341,6.341,0,0,0-.436,2.6,8.49,8.49,0,0,0,.487,2.611,9.338,9.338,0,0,0,1.339,2.279l1.56,2.074.111.148.18-.128a22.93,22.93,0,0,1,2.721-1.532c.914-.492,1.862-.91,2.81-1.315s1.893-.822,2.865-1.187c.965-.4,1.959-.711,2.967-1.09l-.018-.113a14.938,14.938,0,0,0-6.3,1.281,19.748,19.748,0,0,0-2.828,1.575,18.971,18.971,0,0,0-2.488,2.069l.291.02a7.231,7.231,0,0,1-1.44-2.056,17.7,17.7,0,0,1-.816-2.346,18.535,18.535,0,0,1-.895-4.865Z" transform="translate(1553.997 888.753)" fill="#ffa7a4"/>
          </g>
        </g>
        <g id="Grupo_87490" data-name="Grupo 87490" transform="translate(3.024 79.241)">
          <g id="Grupo_87489" data-name="Grupo 87489">
            <g id="Grupo_87488" data-name="Grupo 87488">
              <path id="Trazado_101446" data-name="Trazado 101446" d="M-1567.542-781.208h23.873c2.216,0,4.1-1.916,4.433-4.508l3.779-29.366c.413-3.213-1.688-6.107-4.433-6.107h-31.432c-2.746,0-4.847,2.894-4.433,6.107l3.778,29.366C-1571.641-783.123-1569.758-781.208-1567.542-781.208Z" transform="translate(1575.806 821.189)" fill="#524786"/>
            </g>
          </g>
          <path id="Trazado_101447" data-name="Trazado 101447" d="M-1571.322-821.189h16.069c-2.746,0-4.847,2.894-4.434,6.107l3.779,29.366c.333,2.593,2.217,4.508,4.433,4.508h-16.068c-2.216,0-4.1-1.916-4.434-4.508l-3.778-29.366C-1576.168-818.295-1574.067-821.189-1571.322-821.189Z" transform="translate(1575.806 821.189)" fill="#38295c"/>
        </g>
      </g>
      <g id="Grupo_87498" data-name="Grupo 87498" transform="translate(73.014 84.671)">
        <g id="Grupo_87492" data-name="Grupo 87492" transform="translate(82.496 169.696)">
          <path id="Trazado_101448" data-name="Trazado 101448" d="M-1357.814-790.364h-99.847a1.82,1.82,0,0,0-1.821,1.82v4.423a1.82,1.82,0,0,0,1.821,1.82h99.847Z" transform="translate(1459.483 790.373)" fill="#261b41"/>
          <path id="Trazado_101449" data-name="Trazado 101449" d="M-1335.545-784.8v1.8a.7.7,0,0,1-.7.7H-1361.4a1.417,1.417,0,0,1-1.418-1.417v-5.24a1.417,1.417,0,0,1,1.577-1.407l25.071,4.863A.7.7,0,0,1-1335.545-784.8Z" transform="translate(1462.909 790.373)" fill="#524786"/>
        </g>
        <g id="Grupo_87497" data-name="Grupo 87497">
          <g id="Grupo_87495" data-name="Grupo 87495">
            <path id="Trazado_101450" data-name="Trazado 101450" d="M-1529.485-954.261h186.613a8.953,8.953,0,0,1,8.424,5.921L-1293.637-835c1.706,5.846-2.569,10.225-9.442,10.965-1.053.114-6.067-2.139-13.938-5.842H-1483.85a8.954,8.954,0,0,1-8.424-5.921l-36.867-102.382c-6.234-3.254-9.787-5.113-9.787-5.113S-1541.236-954.261-1529.485-954.261Z" transform="translate(1539.157 954.261)" fill="#524786"/>
            <path id="Trazado_101451" data-name="Trazado 101451" d="M-1348.713-948.619h-186.613a3.826,3.826,0,0,0-3.6,5.123l40.812,113.338a8.954,8.954,0,0,0,8.424,5.92h186.613a3.826,3.826,0,0,0,3.6-5.123L-1340.289-942.7A8.955,8.955,0,0,0-1348.713-948.619Z" transform="translate(1539.156 954.461)" fill="#38295c"/>
            <path id="Trazado_101452" data-name="Trazado 101452" d="M-1394.561-827.443l-8.284-30.724-31.4,30.724Z" transform="translate(1542.874 957.666)" fill="#261b41"/>
            <path id="Trazado_101453" data-name="Trazado 101453" d="M-1439.8-909.935c.82,5.067,4.1,7.109,8.026,7.109a6.051,6.051,0,0,0,6.193-7.109,8.547,8.547,0,0,0-8.026-7.109A6.077,6.077,0,0,0-1439.8-909.935Z" transform="translate(1542.674 955.58)" fill="#524786"/>
            <g id="Grupo_87493" data-name="Grupo 87493" transform="translate(169.124 104.699)">
              <path id="Trazado_101454" data-name="Trazado 101454" d="M-1355.017-846.481l-2.4-6.664h3.016l2.4,6.664Z" transform="translate(1376.472 853.145)" fill="#261b41"/>
              <path id="Trazado_101455" data-name="Trazado 101455" d="M-1361.151-846.481l-2.4-6.664h3.016l2.4,6.664Z" transform="translate(1376.255 853.145)" fill="#261b41"/>
              <path id="Trazado_101456" data-name="Trazado 101456" d="M-1367.286-846.481l-2.4-6.664h3.016l2.4,6.664Z" transform="translate(1376.037 853.145)" fill="#261b41"/>
              <path id="Trazado_101457" data-name="Trazado 101457" d="M-1373.42-846.481l-2.4-6.664h3.016l2.4,6.664Z" transform="translate(1375.82 853.145)" fill="#261b41"/>
            </g>
            <g id="Grupo_87494" data-name="Grupo 87494" transform="translate(59.846 104.699)">
              <path id="Trazado_101458" data-name="Trazado 101458" d="M-1460.556-846.481l-2.4-6.664h3.016l2.4,6.664Z" transform="translate(1482.011 853.145)" fill="#261b41"/>
              <path id="Trazado_101459" data-name="Trazado 101459" d="M-1466.69-846.481l-2.4-6.664h3.016l2.4,6.664Z" transform="translate(1481.793 853.145)" fill="#261b41"/>
              <path id="Trazado_101460" data-name="Trazado 101460" d="M-1472.824-846.481l-2.4-6.664h3.016l2.4,6.664Z" transform="translate(1481.576 853.145)" fill="#261b41"/>
              <path id="Trazado_101461" data-name="Trazado 101461" d="M-1478.959-846.481l-2.4-6.664h3.016l2.4,6.664Z" transform="translate(1481.359 853.145)" fill="#261b41"/>
            </g>
          </g>
          <g id="Grupo_87496" data-name="Grupo 87496" transform="translate(79.131 88.952)">
            <path id="Trazado_101462" data-name="Trazado 101462" d="M-1456.737-790.507c1.842-5.3,24.172-77.352,24.172-77.352h28.665l1.894,10.036s-19.22,62.022-21.061,67.317q-.211.606-.4,1.215h0c-1.685,5.177,2.759,5.154,7.764,5.154h50.554v4.584h-84.223C-1459.5-779.554-1458.579-785.211-1456.737-790.507Z" transform="translate(1462.904 868.371)" fill="#38295c"/>
            <path id="Trazado_101463" data-name="Trazado 101463" d="M-1403.729-867.859s-22.33,72.057-24.172,77.352-2.762,10.953,7.367,10.953h-33.67c-10.13,0-9.209-5.658-7.367-10.953s24.172-77.352,24.172-77.352Z" transform="translate(1462.733 868.371)" fill="#524786"/>
            <path id="Trazado_101464" data-name="Trazado 101464" d="M-1411.244-867.842c-2.221-.1-4.442-.153-6.663-.226s-4.442-.092-6.662-.142-4.442-.1-6.663-.1l-6.662-.042-.372,0-.116.36c-.928,2.9-1.844,5.809-2.716,8.728l-2.657,8.746c-1.708,5.85-3.421,11.7-4.984,17.594,2.052-5.743,3.954-11.534,5.859-17.322l2.766-8.713c.935-2.9,1.826-5.813,2.7-8.731l-.486.358,6.662-.04c2.221,0,4.442-.066,6.663-.1s4.441-.065,6.662-.142S-1413.465-867.739-1411.244-867.842Z" transform="translate(1463.229 868.353)" fill="#8375d4"/>
          </g>
        </g>
      </g>
      <g id="Grupo_87499" data-name="Grupo 87499" transform="translate(0 262.44)">
        <path id="Trazado_101465" data-name="Trazado 101465" d="M-1600.826-764.886h494.26a8.845,8.845,0,0,0,8.845-8.845h0a8.845,8.845,0,0,0-8.845-8.846h-494.26a8.845,8.845,0,0,0-8.845,8.846h0A8.845,8.845,0,0,0-1600.826-764.886Z" transform="translate(1609.671 782.576)" fill="#a04f58"/>
        <path id="Trazado_101466" data-name="Trazado 101466" d="M-1600.826-765.188h494.26a8.845,8.845,0,0,0,8.845-8.845h-511.949A8.845,8.845,0,0,0-1600.826-765.188Z" transform="translate(1609.671 782.879)" fill="#713349"/>
      </g>
    </g>
    <g id="Grupo_88568" data-name="Grupo 88568" transform="translate(822.25 7699.939)">
      <g id="Grupo_88561" data-name="Grupo 88561" transform="translate(0 3.049)">
        <path id="Trazado_145796" data-name="Trazado 145796" d="M60.218,16.841s2.027-5.113-2.3-5.776-4.01-1.587-4.83-.527.17,5.492-13.626,16.106S12.431,36.09,11.237,39.263s30.948,8.6,33.742,7.811S60.218,16.841,60.218,16.841Z" transform="translate(2.197 -10.058)" fill="#f79d00"/>
        <path id="Trazado_145797" data-name="Trazado 145797" d="M88.282,20.713s2.293,5.828-.44,7.593-51.954,7.323-79.171-3.8a8.212,8.212,0,0,1,.013-5.915C9.917,15.378,88.282,20.713,88.282,20.713Z" transform="translate(-8.13 15.153)" fill="#d3d3d3"/>
        <path id="Trazado_145798" data-name="Trazado 145798" d="M14.441,36.293c6.7,0,23.826-3.178,32.3-7.942S64.39,10.876,64.39,10.876c9.882,2.916,20.648.706,20.648.706S83.8,20.588,87.863,26.939s0,16.237,0,16.237c-33.006,11.651-79.6-2.118-79.6-2.118S7.733,36.293,14.441,36.293Z" transform="translate(-7.711 -7.309)" fill="#ffb800"/>
        <path id="Trazado_145799" data-name="Trazado 145799" d="M20.951,13.885a2.116,2.116,0,1,0,2.114-2.118A2.114,2.114,0,0,0,20.951,13.885Z" transform="translate(34.935 -4.317)" fill="#84270a"/>
        <path id="Trazado_145800" data-name="Trazado 145800" d="M19.554,15.5a2.116,2.116,0,1,0,2.114-2.118A2.117,2.117,0,0,0,19.554,15.5Z" transform="translate(30.242 1.091)" fill="#84270a"/>
        <path id="Trazado_145801" data-name="Trazado 145801" d="M18.015,16.75a2.118,2.118,0,1,0,2.118-2.118A2.118,2.118,0,0,0,18.015,16.75Z" transform="translate(25.073 5.307)" fill="#84270a"/>
        <path id="Trazado_145802" data-name="Trazado 145802" d="M16.274,17.905a2.116,2.116,0,1,0,2.118-2.118A2.114,2.114,0,0,0,16.274,17.905Z" transform="translate(19.225 9.186)" fill="#84270a"/>
        <path id="Trazado_145803" data-name="Trazado 145803" d="M14.189,18.387A2.116,2.116,0,1,0,16.3,16.273,2.114,2.114,0,0,0,14.189,18.387Z" transform="translate(12.222 10.819)" fill="#84270a"/>
        <g id="Grupo_88556" data-name="Grupo 88556" transform="translate(50.976 5.22)">
          <path id="Trazado_145804" data-name="Trazado 145804" d="M22.228,11.446l5.422,2.79c1.822.933.214,3.675-1.6,2.742s-3.614-1.857-5.422-2.785-.214-3.679,1.6-2.746Z" transform="translate(-19.825 -11.255)" fill="#fff"/>
        </g>
        <g id="Grupo_88557" data-name="Grupo 88557" transform="translate(45.592 11.167)">
          <path id="Trazado_145805" data-name="Trazado 145805" d="M21.3,13.07l4.734,3.845a1.6,1.6,0,0,1,0,2.245,1.618,1.618,0,0,1-2.245,0q-2.367-1.916-4.738-3.84a1.606,1.606,0,0,1,0-2.249,1.632,1.632,0,0,1,2.249,0Z" transform="translate(-18.589 -12.62)" fill="#fff"/>
        </g>
        <g id="Grupo_88558" data-name="Grupo 88558" transform="translate(40.091 15.956)">
          <path id="Trazado_145806" data-name="Trazado 145806" d="M20.019,14.179q1.772,2.171,3.548,4.341a1.639,1.639,0,0,1,0,2.245,1.606,1.606,0,0,1-2.249,0q-1.772-2.171-3.544-4.337a1.64,1.64,0,0,1,0-2.249,1.6,1.6,0,0,1,2.245,0Z" transform="translate(-17.327 -13.718)" fill="#fff"/>
        </g>
        <g id="Grupo_88559" data-name="Grupo 88559" transform="translate(33.347 20.283)">
          <path id="Trazado_145807" data-name="Trazado 145807" d="M18.721,15.5q1.321,2.5,2.637,5c.95,1.8-1.787,3.413-2.746,1.6q-1.314-2.5-2.633-5c-.955-1.8,1.787-3.413,2.742-1.6Z" transform="translate(-15.78 -14.711)" fill="#fff"/>
        </g>
        <g id="Grupo_88560" data-name="Grupo 88560" transform="translate(25.32 22.875)">
          <path id="Trazado_145808" data-name="Trazado 145808" d="M17.087,16.406c.532,1.6,1.059,3.208,1.591,4.812.641,1.944-2.424,2.781-3.064.841l-1.587-4.812c-.645-1.944,2.424-2.777,3.06-.841Z" transform="translate(-13.939 -15.306)" fill="#fff"/>
        </g>
      </g>
      <g id="Grupo_88567" data-name="Grupo 88567" transform="translate(93.876 0)">
        <path id="Trazado_145809" data-name="Trazado 145809" d="M63.166,28.827S52.888,42.841,34.415,30.788L30.544,21.26s-2.685,13.029,1.338,17.95S54.51,51.463,64.2,41.69s-3.269-26.2-3.269-26.2Z" transform="translate(-29.667 11.247)" fill="#d3d3d3"/>
        <path id="Trazado_145810" data-name="Trazado 145810" d="M49.377,13.772s.5-3.147-.994-3.8S32.892,9,32.1,9.976s-1.343,41.418-1.343,41.418S47.49,65.011,59.507,49.432c0,0-4.965-16.66-5.065-16.987S49.277,19.744,49.377,13.772Z" transform="translate(-26.008 -9.358)" fill="#f79d00"/>
        <path id="Trazado_145811" data-name="Trazado 145811" d="M35.347,10.137c-.488-1.2-.384,6.4-.384,6.4l5.976,23.141,4.468,7.567S46.9,41.717,46.3,38.7,38.633,18.157,35.347,10.137Z" transform="translate(-11.908 -7.174)" fill="#ffb800"/>
        <path id="Trazado_145812" data-name="Trazado 145812" d="M34.84,9.961l1.325,5.584s4.616,21.611,3.426,24.3a105.638,105.638,0,0,1-5.81,9.529s-3.574-6.517-3.871-9.529.741-8.173.593-12.92S30.669,13.378,34.84,9.961Z" transform="translate(-29.033 -7.334)" fill="#ffb800"/>
        <path id="Trazado_145813" data-name="Trazado 145813" d="M35.173,13.245c.31,1.081,1,1.8,1.552,1.617s.737-1.216.427-2.3-1.007-1.8-1.556-1.617S34.863,12.164,35.173,13.245Z" transform="translate(-11.673 -4.119)" fill="#84270a"/>
        <path id="Trazado_145814" data-name="Trazado 145814" d="M35.568,14.624c.314,1.081,1.007,1.8,1.552,1.617s.737-1.216.427-2.3S36.54,12.139,36,12.327,35.259,13.543,35.568,14.624Z" transform="translate(-10.342 0.513)" fill="#84270a"/>
        <path id="Trazado_145815" data-name="Trazado 145815" d="M35.966,16c.309,1.081,1.007,1.8,1.552,1.617s.737-1.216.427-2.3-1.007-1.8-1.552-1.617S35.656,14.922,35.966,16Z" transform="translate(-9.009 5.145)" fill="#84270a"/>
        <path id="Trazado_145816" data-name="Trazado 145816" d="M36.364,17.382c.309,1.081,1,1.8,1.552,1.617s.737-1.216.423-2.3-1-1.8-1.552-1.617S36.051,16.3,36.364,17.382Z" transform="translate(-7.677 9.777)" fill="#84270a"/>
        <path id="Trazado_145817" data-name="Trazado 145817" d="M36.758,18.761c.309,1.081,1.007,1.8,1.552,1.617s.737-1.216.427-2.3-1.007-1.8-1.552-1.617S36.449,17.68,36.758,18.761Z" transform="translate(-6.344 14.409)" fill="#84270a"/>
        <path id="Trazado_145818" data-name="Trazado 145818" d="M30.658,13.233c0,1.19.658,2.153,1.469,2.153s1.465-.963,1.465-2.153-.654-2.153-1.465-2.153S30.658,12.043,30.658,13.233Z" transform="translate(-26.337 -3.576)" fill="#84270a"/>
        <path id="Trazado_145819" data-name="Trazado 145819" d="M30.756,14.607c0,1.19.658,2.158,1.469,2.158s1.469-.968,1.469-2.158-.658-2.153-1.469-2.153S30.756,13.422,30.756,14.607Z" transform="translate(-26.008 1.039)" fill="#84270a"/>
        <path id="Trazado_145820" data-name="Trazado 145820" d="M30.854,15.982c0,1.19.658,2.153,1.469,2.153s1.469-.963,1.469-2.153-.658-2.153-1.469-2.153S30.854,14.792,30.854,15.982Z" transform="translate(-25.679 5.658)" fill="#84270a"/>
        <path id="Trazado_145821" data-name="Trazado 145821" d="M30.953,17.356c0,1.19.658,2.153,1.469,2.153s1.465-.963,1.465-2.153S33.233,15.2,32.422,15.2,30.953,16.166,30.953,17.356Z" transform="translate(-25.346 10.273)" fill="#84270a"/>
        <path id="Trazado_145822" data-name="Trazado 145822" d="M31.051,18.73c0,1.19.658,2.153,1.469,2.153s1.469-.963,1.469-2.153-.658-2.153-1.469-2.153S31.051,17.54,31.051,18.73Z" transform="translate(-25.017 14.888)" fill="#84270a"/>
        <g id="Grupo_88562" data-name="Grupo 88562" transform="translate(4.995 6.444)">
          <path id="Trazado_145823" data-name="Trazado 145823" d="M49.788,14.347a26.862,26.862,0,0,0-17.658.872c-1.312.567-1.883-1.774-.584-2.336a28.675,28.675,0,0,1,18.826-.872c1.364.384.785,2.724-.584,2.336Z" transform="translate(-30.813 -10.837)" fill="#fff"/>
        </g>
        <g id="Grupo_88563" data-name="Grupo 88563" transform="translate(5.188 11.978)">
          <path id="Trazado_145824" data-name="Trazado 145824" d="M51.24,16.093c-6.085-2.467-13.181-1.853-19.083.85-1.295.6-1.857-1.748-.575-2.336,6.211-2.846,13.835-3.444,20.238-.85,1.308.527.741,2.873-.58,2.336Z" transform="translate(-30.857 -12.106)" fill="#fff"/>
        </g>
        <g id="Grupo_88564" data-name="Grupo 88564" transform="translate(5.598 17.983)">
          <path id="Trazado_145825" data-name="Trazado 145825" d="M52.807,17.477c-6.517-2.559-14.162-1.748-20.526.833-1.329.536-1.9-1.8-.584-2.336,6.7-2.716,14.842-3.522,21.694-.833,1.325.519.754,2.859-.584,2.336Z" transform="translate(-30.951 -13.484)" fill="#fff"/>
        </g>
        <g id="Grupo_88565" data-name="Grupo 88565" transform="translate(5.939 23.721)">
          <path id="Trazado_145826" data-name="Trazado 145826" d="M54.179,19.066c-6.787-2.554-14.925-2.607-21.476.689-1.273.641-2.389-1.447-1.1-2.092a29.4,29.4,0,0,1,23.159-.933c1.325.5.758,2.842-.58,2.336Z" transform="translate(-31.029 -14.8)" fill="#fff"/>
        </g>
        <g id="Grupo_88566" data-name="Grupo 88566" transform="translate(6.361 29.845)">
          <path id="Trazado_145827" data-name="Trazado 145827" d="M55.736,20.358c-7.253-2.3-15.91-2.589-22.919.667-1.29.6-2.415-1.486-1.112-2.092C39.3,15.4,48.444,15.52,56.32,18.022c1.36.436.78,2.772-.584,2.336Z" transform="translate(-31.126 -16.205)" fill="#fff"/>
        </g>
      </g>
    </g>
  </g>
</svg>
