<svg xmlns="http://www.w3.org/2000/svg" xmlns:xlink="http://www.w3.org/1999/xlink" width="637.5" height="350.368" viewBox="0 0 637.5 350.368">
  <defs>
    <linearGradient id="linear-gradient" x1="31.936" y1="0.5" x2="32.936" y2="0.5" gradientUnits="objectBoundingBox">
      <stop offset="0.073" stop-color="#ffa67b"/>
      <stop offset="0.959" stop-color="#fbb585"/>
    </linearGradient>
  </defs>
  <g id="Grupo_92601" data-name="Grupo 92601" transform="translate(-704 -8168.947)">
    <rect id="Rectángulo_34332" data-name="Rectángulo 34332" width="629.5" height="343" rx="36" transform="translate(712 8176.315)" fill="#8a7cbf"/>
    <rect id="Rectángulo_34330" data-name="Rectángulo 34330" width="629.5" height="343" rx="36" transform="translate(705 8168.947)" fill="#fff"/>
    <rect id="Rectángulo_34331" data-name="Rectángulo 34331" width="40" height="8" transform="translate(704 8373.956) rotate(-90)" fill="#ef6c00"/>
    <g id="Grupo_88584" data-name="Grupo 88584" transform="translate(587.32 8108.069)">
      <g id="freepik--Device--inject-7" transform="translate(284.68 75.2)">
        <path id="Trazado_145828" data-name="Trazado 145828" d="M421.121,405.68l-112.127-.523a24.424,24.424,0,0,1-24.314-24.525l1.19-281.127A24.475,24.475,0,0,1,310.412,75.2l112.1.515a24.475,24.475,0,0,1,24.314,24.533l-1.165,281.135A24.475,24.475,0,0,1,421.121,405.68Z" transform="translate(-284.68 -75.2)" fill="#455a64"/>
        <path id="Trazado_145829" data-name="Trazado 145829" d="M423.756,87.221l-21.74-.1a5.4,5.4,0,0,0-5.3,5.494v3.941a5.393,5.393,0,0,1-5.29,5.494h-.01l-42.383-.194a5.392,5.392,0,0,1-5.249-5.532V92.369a5.418,5.418,0,0,0-5.258-5.545H330.88l-19.031-.084a17.107,17.107,0,0,0-17.183,17.031h0L293.51,378.12A17.107,17.107,0,0,0,310.532,395.3l111.907.515a17.107,17.107,0,0,0,17.183-17.031v-.008L440.77,104.4A17.107,17.107,0,0,0,423.756,87.221Z" transform="translate(-286.058 -77.001)" fill="#fafafa"/>
        <path id="Trazado_145830" data-name="Trazado 145830" d="M448.235,117.538a18.082,18.082,0,0,1-2.81.143c-1.747,0-4.169.068-6.9.076h-.194v-.186c-.051-.371-.11-.76-.16-1.148-.473-3.376-.844-6.363-1.08-8.3l.135.118a15.215,15.215,0,0,1-2.532-.143,16.068,16.068,0,0,1,2.532-.135h.118v.118c.312,1.933.768,4.929,1.232,8.288.059.388.11.776.16,1.139l-.211-.186c2.734,0,5.156,0,6.9.076A18.083,18.083,0,0,1,448.235,117.538Z" transform="translate(-308.09 -80.311)" fill="#263238"/>
        <path id="Trazado_145831" data-name="Trazado 145831" d="M438.736,115.792a4.083,4.083,0,0,1,.751-.068l2.076-.059c1.781,0,4.279-.068,7.174-.076l-.211.169.675-3.865c.127-.692.245-1.376.363-2.025l.211.253c-3.376,0-6.321,0-8.439-.076l-2.532-.059a3.385,3.385,0,0,1-.9-.084,4.323,4.323,0,0,1,.9-.076l2.532-.068c2.127,0,5.064-.059,8.439-.068h.262v.253c-.118.65-.236,1.333-.354,2.025-.245,1.35-.481,2.65-.692,3.865v.177h-.177c-2.895,0-5.393,0-7.174-.076l-2.076-.059A2.964,2.964,0,0,1,438.736,115.792Z" transform="translate(-308.591 -80.582)" fill="#263238"/>
        <path id="Trazado_145832" data-name="Trazado 145832" d="M441.7,122.225c-.068,0-.068-.38-.473-.65a.844.844,0,0,0-.76-.076.777.777,0,0,0,0,1.443.844.844,0,0,0,.76-.076c.405-.262.405-.658.473-.641s.068.084.059.253a1.017,1.017,0,0,1-.346.641,1.121,1.121,0,0,1-1.08.2,1.165,1.165,0,0,1,0-2.2,1.121,1.121,0,0,1,1.08.2,1.017,1.017,0,0,1,.346.641C441.769,122.132,441.736,122.225,441.7,122.225Z" transform="translate(-308.848 -82.357)" fill="#263238"/>
        <path id="Trazado_145833" data-name="Trazado 145833" d="M449.111,122.225c-.068,0-.068-.38-.473-.65a.844.844,0,0,0-.76-.076.777.777,0,0,0,0,1.443.844.844,0,0,0,.76-.076c.405-.262.405-.658.473-.641s.068.084.059.253a1.017,1.017,0,0,1-.346.641,1.121,1.121,0,0,1-1.08.2,1.155,1.155,0,0,1-.793-1.1,1.174,1.174,0,0,1,.793-1.106,1.121,1.121,0,0,1,1.08.2,1.017,1.017,0,0,1,.346.641C449.178,122.132,449.144,122.225,449.111,122.225Z" transform="translate(-310.003 -82.357)" fill="#263238"/>
        <path id="Trazado_145834" data-name="Trazado 145834" d="M329.507,120.484a81.1,81.1,0,0,1-8.363.219,80.629,80.629,0,0,1-8.364-.219,77.9,77.9,0,0,1,8.364-.219A78.343,78.343,0,0,1,329.507,120.484Z" transform="translate(-289.065 -82.228)" fill="#263238"/>
        <path id="Trazado_145835" data-name="Trazado 145835" d="M329.507,116.735a78.343,78.343,0,0,1-8.363.219,77.9,77.9,0,0,1-8.364-.219,80.629,80.629,0,0,1,8.364-.219A81.1,81.1,0,0,1,329.507,116.735Z" transform="translate(-289.065 -81.643)" fill="#263238"/>
        <path id="Trazado_145836" data-name="Trazado 145836" d="M329.507,112.955a81.1,81.1,0,0,1-8.363.219,80.626,80.626,0,0,1-8.364-.219,80.629,80.629,0,0,1,8.364-.219A81.1,81.1,0,0,1,329.507,112.955Z" transform="translate(-289.065 -81.053)" fill="#263238"/>
        <path id="Trazado_145837" data-name="Trazado 145837" d="M409.224,354.509c0,.127-14.263.219-31.842.219s-31.842-.093-31.842-.219,14.254-.219,31.842-.219S409.224,354.391,409.224,354.509Z" transform="translate(-294.177 -118.753)" fill="#263238"/>
        <path id="Trazado_145838" data-name="Trazado 145838" d="M409.224,146.469c0,.118-14.263.219-31.842.219s-31.842-.1-31.842-.219,14.254-.219,31.842-.219S409.224,146.343,409.224,146.469Z" transform="translate(-294.177 -86.288)" fill="#263238"/>
        <path id="Trazado_145839" data-name="Trazado 145839" d="M409.224,360.739c0,.118-14.263.219-31.842.219s-31.842-.1-31.842-.219,14.254-.219,31.842-.219S409.224,360.621,409.224,360.739Z" transform="translate(-294.177 -119.725)" fill="#263238"/>
        <path id="Trazado_145840" data-name="Trazado 145840" d="M398.35,346.549c0,.118-7.891.219-17.63.219s-17.63-.1-17.63-.219,7.891-.219,17.63-.219S398.35,346.431,398.35,346.549Z" transform="translate(-296.916 -117.511)" fill="#7e57c2"/>
        <circle id="Elipse_4756" data-name="Elipse 4756" cx="12.727" cy="12.727" r="12.727" transform="translate(117.645 247.547)" fill="#7e57c2"/>
        <path id="Trazado_145841" data-name="Trazado 145841" d="M435.35,389.427a4.1,4.1,0,0,1,.7-.625c.473-.388,1.156-.928,2.009-1.587,1.688-1.325,4.085-3.131,6.752-5.106v.354h0l-.059-.051-.127-.093-.245-.177-.481-.371-.945-.709-1.789-1.35-3.013-2.3-2.009-1.587a4.3,4.3,0,0,1-.7-.633,3.592,3.592,0,0,1,.8.49l2.093,1.477,3.072,2.236,1.8,1.325.954.709.489.363.245.186.118.084.068.051h0v.354c-2.642,1.975-5.064,3.739-6.8,5l-2.093,1.477A3.626,3.626,0,0,1,435.35,389.427Z" transform="translate(-308.193 -122.015)" fill="#fafafa"/>
        <circle id="Elipse_4757" data-name="Elipse 4757" cx="12.727" cy="12.727" r="12.727" transform="translate(21.308 247.564)" fill="#7e57c2"/>
        <path id="Trazado_145842" data-name="Trazado 145842" d="M327.012,375.14a3.87,3.87,0,0,1-.7.633c-.464.38-1.156.92-2.009,1.587-1.688,1.325-4.076,3.123-6.752,5.064v-.346h0l.068.042.118.093.245.186.49.363.945.709,1.789,1.35,3,2.312c.844.658,1.544,1.2,2.009,1.587a3.709,3.709,0,0,1,.7.625,3.876,3.876,0,0,1-.8-.489l-2.093-1.477-3.064-2.228-1.806-1.333-.945-.709-.49-.354-.245-.186-.127-.093-.059-.042h0v-.354c2.642-1.966,5.064-3.73,6.794-5,.844-.574,1.519-1.072,2.093-1.477A3.852,3.852,0,0,1,327.012,375.14Z" transform="translate(-289.769 -122.007)" fill="#fafafa"/>
        <rect id="Rectángulo_34333" data-name="Rectángulo 34333" width="25.428" height="25.428" transform="translate(25.124 281.962)" fill="#e0e0e0"/>
        <rect id="Rectángulo_34334" data-name="Rectángulo 34334" width="25.428" height="25.428" transform="translate(57.38 281.962)" fill="#e0e0e0"/>
        <rect id="Rectángulo_34335" data-name="Rectángulo 34335" width="25.428" height="25.428" transform="translate(89.644 281.962)" fill="#e0e0e0"/>
        <rect id="Rectángulo_34336" data-name="Rectángulo 34336" width="25.428" height="25.428" transform="translate(121.9 281.962)" fill="#e0e0e0"/>
        <rect id="Rectángulo_34337" data-name="Rectángulo 34337" width="47.447" height="2.701" transform="translate(58.924 51.354)" fill="#7e57c2"/>
        <path id="Trazado_149114" data-name="Trazado 149114" d="M7.82,0V-1.241H2.856v-.034l.884-.816C6.069-4.335,7.548-5.984,7.548-8.024a3.109,3.109,0,0,0-3.383-3.213,4.849,4.849,0,0,0-3.128,1.122l.476,1.054A3.763,3.763,0,0,1,3.859-10,1.971,1.971,0,0,1,6.052-7.837C6.035-6.171,4.76-4.743,1.938-2.057L.765-.918V0Zm5.355-11.237c-2.244,0-3.842,2.04-3.842,5.746.034,3.655,1.5,5.678,3.655,5.678,2.448,0,3.842-2.074,3.842-5.831C16.83-9.163,15.5-11.237,13.175-11.237Zm-.085,1.156c1.547,0,2.244,1.785,2.244,4.505,0,2.822-.731,4.607-2.261,4.607-1.36,0-2.244-1.632-2.244-4.505C10.829-8.483,11.781-10.081,13.09-10.081ZM19.329.187a1,1,0,0,0,1.02-1.071.992.992,0,0,0-1-1.071,1,1,0,0,0-1.02,1.071A1,1,0,0,0,19.329.187Zm6.086-11.424c-2.244,0-3.842,2.04-3.842,5.746.034,3.655,1.5,5.678,3.655,5.678,2.448,0,3.842-2.074,3.842-5.831C29.07-9.163,27.744-11.237,25.415-11.237Zm-.085,1.156c1.547,0,2.244,1.785,2.244,4.505,0,2.822-.731,4.607-2.261,4.607-1.36,0-2.244-1.632-2.244-4.505C23.069-8.483,24.021-10.081,25.33-10.081Zm8.806-1.156c-2.244,0-3.842,2.04-3.842,5.746.034,3.655,1.5,5.678,3.655,5.678,2.448,0,3.842-2.074,3.842-5.831C37.791-9.163,36.465-11.237,34.136-11.237Zm-.085,1.156C35.6-10.081,36.3-8.3,36.3-5.576c0,2.822-.731,4.607-2.261,4.607-1.36,0-2.244-1.632-2.244-4.505C31.79-8.483,32.742-10.081,34.051-10.081Zm8.806-1.156c-2.244,0-3.842,2.04-3.842,5.746.034,3.655,1.5,5.678,3.655,5.678,2.448,0,3.842-2.074,3.842-5.831C46.512-9.163,45.186-11.237,42.857-11.237Zm-.085,1.156c1.547,0,2.244,1.785,2.244,4.505,0,2.822-.731,4.607-2.261,4.607-1.36,0-2.244-1.632-2.244-4.505C40.511-8.483,41.463-10.081,42.772-10.081Z" transform="translate(57.38 264.011)"/>
        <g id="freepik--background-simple--inject-7" transform="translate(11.461 80.739)">
          <path id="Trazado_145843" data-name="Trazado 145843" d="M436.926,205c-1.67-11.028-7.438-21.613-16.565-28.024s-21.662-8.158-31.752-3.41c-16.281,7.666-23.051,29.3-40.006,35.331-11.135,3.956-24,.024-34.977,4.405a25.038,25.038,0,0,0-15.361,21.742,22.84,22.84,0,0,0,.366,4.582,36.684,36.684,0,0,0,36.01,30.412l42.825.294c11.169,2.787,23.342.032,32.978-6.265s16.862-15.891,21.473-26.431C436.41,227.423,438.6,216.029,436.926,205Z" transform="translate(-298.26 -170.869)" fill="#f0e9ff"/>
        </g>
        <g id="Grupo_88579" data-name="Grupo 88579" transform="translate(12.819 113.696)">
          <g id="Grupo_88572" data-name="Grupo 88572" transform="translate(0 6.086)">
            <g id="Grupo_88571" data-name="Grupo 88571">
              <path id="Trazado_145844" data-name="Trazado 145844" d="M342.314,219.044a7.408,7.408,0,0,1,.087,7.174c-1.991,4.125-29.52,25.614-29.52,25.614l1.745-11.249s9.929-3.273,14.447-8.126S338.57,215.145,342.314,219.044Z" transform="translate(-301.9 -217.313)" fill="#0093b6"/>
              <path id="Trazado_145845" data-name="Trazado 145845" d="M374.556,242.692a68.555,68.555,0,0,1,.821,9.058c.03,3.019-1.476,5.631-3.69,6.51a46.712,46.712,0,0,1-23.41,2.511s-9.571.57-13.25,2.846-17.027,4.085-25.8.522-8.407-4.291-8.407-4.291-2.171-7.685.035-9.946c0,0,2.4,4.764,11.817,6.043C322.974,257.345,373.12,244.66,374.556,242.692Z" transform="translate(-299.869 -221.12)" fill="#e8c197"/>
              <path id="Trazado_145846" data-name="Trazado 145846" d="M312.779,244.683s-.668,9.613-1.745,11.249c0,0-8.021-1.651-9.991-5.736A11.808,11.808,0,0,1,312.779,244.683Z" transform="translate(-300.052 -221.414)" fill="#0093b6"/>
              <path id="Trazado_145847" data-name="Trazado 145847" d="M312.883,251.651l.017,0c.008.008.025.008.042.006.336.041,2.037.251,4.447.4l.033,0c1.917.122,4.28.209,6.752.136,8.182-.229,19.152-3.534,24.739-4.45,9.686-1.569,23.826-1.169,26.836-5.96a6.235,6.235,0,0,0,.842-3.069c.244-5.449-6.135-15-6.4-21.575,0,0-7.45,5.374-21.951,1.406a65.7,65.7,0,0,0-4.993,4.324c-1.569,1.885-4.21,4.948-6.665,7.4-.35.348-.7.686-1.037,1a17.308,17.308,0,0,1-3.135,2.479,2.993,2.993,0,0,1-.794.32,4.387,4.387,0,0,0-.662.208,22.6,22.6,0,0,0-3.49,1.9h-.008c-.385.245-.785.5-1.191.781-.976.672-2.029,1.428-3.084,2.237-.356.284-.72.57-1.084.866-3.594,2.914-7.114,6.445-8.567,9.557a7.86,7.86,0,0,0-.6,1.719C312.913,251.442,312.9,251.541,312.883,251.651Z" transform="translate(-301.9 -217.131)" fill="#00b2ce"/>
            </g>
            <path id="Trazado_145848" data-name="Trazado 145848" d="M349.629,218.8s-9.606,17.913-24.869,24.735l-3-1.763s7.8-7.724,12.524-9.278C334.289,232.491,346.936,219.358,349.629,218.8Z" transform="translate(-303.286 -217.391)" fill="#007285"/>
          </g>
          <g id="Grupo_88578" data-name="Grupo 88578" transform="translate(85.456)">
            <path id="Trazado_145849" data-name="Trazado 145849" d="M411.243,219.323a12.564,12.564,0,0,0,.762,4.054c0,.017.008.025.017.041v.008a10.972,10.972,0,0,0,.8,1.723,9.653,9.653,0,0,0,4.274,3.916c.174.082.357.156.538.23a12.987,12.987,0,0,0,3.181.853,14.445,14.445,0,0,0,8.408-1.109c.19-.081.372-.171.555-.271a14.547,14.547,0,0,0,4.232-3.373c.141-.155.273-.312.389-.459.083-.116.166-.222.249-.32a10.374,10.374,0,0,0,.729-1.1s-.953-3.907-2.005-10.515l-1.366-.452a.026.026,0,0,1-.008.017,9.645,9.645,0,0,0-2.444-1.412h-.008c-.107-.05-.223-.09-.339-.139-.207-.083-.422-.156-.646-.239-.166-.049-.34-.106-.514-.164-.3-.09-.6-.132-.895-.2a16.747,16.747,0,0,0-8.234.032l-.306.074a.154.154,0,0,1-.058.008,2.556,2.556,0,0,0-.357.083c-.132.041-.264.083-.4.132s-.257.082-.382.131c-.007,0-.015.008-.024.008-.116.041-.224.082-.332.123a.05.05,0,0,1-.033.008c-.125.049-.241.1-.349.139a10.384,10.384,0,0,0-2.029,1.1l-.175.419c-.049.123-.1.246-.149.36-.339.772-.671,1.486-.994,2.127v.008c-.182.344-.348.673-.513.976v.008c-.745,1.387-1.35,2.3-1.524,2.57-.042.057-.058.081-.058.081S411.235,218.995,411.243,219.323Z" transform="translate(-402.705 -209.92)" fill="url(#linear-gradient)"/>
            <g id="Grupo_88574" data-name="Grupo 88574">
              <path id="Trazado_145850" data-name="Trazado 145850" d="M408.722,249.669l14.007,1.945,11.406-1.584,2.6-.361h.008l-.314-2.84-2.42-21.891-.041-.337-.231-2.085-.911-8.291-.025-.2a2.7,2.7,0,0,0-.563-.869,4.95,4.95,0,0,0-.63-.591,9.645,9.645,0,0,0-2.444-1.412h-.008c-.107-.05-.223-.09-.339-.139l-.646-.239c-.166-.049-.34-.106-.514-.164-.3-.09-.6-.132-.895-.2a16.747,16.747,0,0,0-8.234.032l-.306.074a.154.154,0,0,1-.058.008,2.556,2.556,0,0,0-.357.083c-.132.041-.264.083-.4.132s-.257.082-.382.131c-.007,0-.015.008-.024.008-.116.041-.224.082-.332.123a.05.05,0,0,1-.033.008c-.125.049-.241.1-.349.139a10.384,10.384,0,0,0-2.029,1.1,6.1,6.1,0,0,0-.746.608,3.514,3.514,0,0,0-.795,1.034.2.2,0,0,0-.025.041c0,.008,0,.008-.008.017a.324.324,0,0,0-.025.073l-.231,2.118v.008l-.8,7.222v.05l-1.5,13.536L409,247.124Z" transform="translate(-402.312 -209.92)" fill="#0093b6"/>
              <g id="Grupo_88573" data-name="Grupo 88573" transform="translate(0 2.632)">
                <path id="Trazado_145851" data-name="Trazado 145851" d="M416.217,236.783l-6.879,11.278a24.17,24.17,0,0,1-6.078-3.018l-.078-.053,2.127-7.479s1.654-6.752,2.8-8.95c1.916-3.707,2.3-14.465,2.3-14.465l3.19-1.055a12.335,12.335,0,0,1,0,4.137c-.328,3.018,1.313,6.674,1.812,8.547S416.217,236.783,416.217,236.783Z" transform="translate(-401.448 -213.038)" fill="#00b2ce"/>
                <path id="Trazado_145852" data-name="Trazado 145852" d="M440.84,250.9a56.348,56.348,0,0,1-6.446,2.615c-11.264,3.772-19.994,2.355-25.377.456a24.17,24.17,0,0,1-6.078-3.018l-.078-.053s-3.124,4.879-.984,10.082,17.551,9.262,31.663,5.685S440.84,250.9,440.84,250.9Z" transform="translate(-401.127 -218.946)" fill="#e8c197"/>
                <path id="Trazado_145853" data-name="Trazado 145853" d="M432.739,236.785l6.585,10.818c.282-.09.564-.189.846-.287h.008a58.489,58.489,0,0,0,5.59-2.323l-2.12-7.487s-1.657-6.747-2.8-8.947a14.372,14.372,0,0,1-1.068-3.366,78.049,78.049,0,0,1-1.226-11.1l-1.822-.608-1.366-.452a.026.026,0,0,1-.008.017.469.469,0,0,1-.017.082,14.056,14.056,0,0,0,.025,4.039c.281,2.609-.911,5.695-1.558,7.7-.1.311-.19.6-.257.854a26.119,26.119,0,0,0-.414,3.529C432.888,232.557,432.739,236.785,432.739,236.785Z" transform="translate(-406.06 -213.038)" fill="#00b2ce"/>
              </g>
              <path id="Trazado_145854" data-name="Trazado 145854" d="M415.12,213.041s3.926,14.772,2.626,23.742l-3.27.917S410.717,215.961,415.12,213.041Z" transform="translate(-402.977 -210.407)" fill="#007285"/>
              <path id="Trazado_145855" data-name="Trazado 145855" d="M432.69,236.785l3.264.911s1-5.8,1.366-11.812q.024-.406.05-.812c.033-.7.058-1.387.067-2.069.065-3.291-.142-6.379-.911-8.291a4.838,4.838,0,0,0-.588-1.067,2.433,2.433,0,0,0-.621-.608.026.026,0,0,1-.008.017.469.469,0,0,1-.017.082,107.029,107.029,0,0,0-2.278,11.7c-.207,1.543-.373,3.127-.48,4.694A36.042,36.042,0,0,0,432.69,236.785Z" transform="translate(-406.011 -210.406)" fill="#007285"/>
            </g>
            <g id="Grupo_88575" data-name="Grupo 88575" transform="translate(10.643 3.987)">
              <path id="Trazado_145856" data-name="Trazado 145856" d="M432.517,218.742c-5.308-3.469-12.132-2.6-17.387.41a.926.926,0,0,1-.94-1.594c5.81-3.326,13.4-4.246,19.268-.411,1,.652.064,2.252-.941,1.6Z" transform="translate(-413.738 -214.644)" fill="#e74e4f"/>
            </g>
            <g id="Grupo_88576" data-name="Grupo 88576" transform="translate(10.643 9.493)">
              <path id="Trazado_145857" data-name="Trazado 145857" d="M432.517,225.266c-5.308-3.469-12.132-2.6-17.387.41a.926.926,0,0,1-.94-1.594c5.81-3.326,13.4-4.246,19.268-.411,1,.652.064,2.252-.941,1.6Z" transform="translate(-413.738 -221.168)" fill="#e74e4f"/>
            </g>
            <g id="Grupo_88577" data-name="Grupo 88577" transform="translate(10.643 14.999)">
              <path id="Trazado_145858" data-name="Trazado 145858" d="M432.517,231.79c-5.308-3.47-12.132-2.6-17.387.41a.926.926,0,0,1-.94-1.6c5.81-3.326,13.4-4.245,19.268-.41,1,.652.064,2.252-.941,1.6Z" transform="translate(-413.738 -227.692)" fill="#e74e4f"/>
            </g>
          </g>
        </g>
      </g>
      <g id="freepik--Bag--inject-7" transform="translate(531.787 336.11)">
        <path id="Trazado_145859" data-name="Trazado 145859" d="M596.918,405.686a1.733,1.733,0,0,1-.042-.5v-1.435c0-1.308-.042-3.1-.068-5.283v-5.68a16.037,16.037,0,0,1,.068-2.177A7.233,7.233,0,0,1,611,389.625a7.9,7.9,0,0,1,.27,2.186v5.68c0,2.186-.051,3.975-.068,5.283a14.106,14.106,0,0,1-.042,1.435,2.234,2.234,0,0,1,0,.5,1.763,1.763,0,0,1,0-.5c0-.38,0-.844-.042-1.435,0-1.308,0-3.1-.076-5.283v-3.646a15.81,15.81,0,0,0-.287-4.1,6.836,6.836,0,0,0-11.343-3,6.914,6.914,0,0,0-1.992,3.933,17.744,17.744,0,0,0-.076,2.118v5.68c0,2.186-.051,3.975-.068,5.283v1.435A2.291,2.291,0,0,1,596.918,405.686Z" transform="translate(-580.495 -384.355)" fill="#263238"/>
        <path id="Trazado_145860" data-name="Trazado 145860" d="M607.236,405.686a1.758,1.758,0,0,1,0-.5c0-.38,0-.844-.042-1.435,0-1.308,0-3.1-.076-5.283v-5.68a16.037,16.037,0,0,1,.068-2.177,7.228,7.228,0,0,1,14.119-.987,7.59,7.59,0,0,1,.279,2.186v5.68c0,2.186-.051,3.975-.068,5.283v1.435a2.227,2.227,0,0,1,0,.5,1.905,1.905,0,0,1-.051-.5v-1.435c0-1.308-.042-3.1-.076-5.283v-3.646a15.815,15.815,0,0,0-.287-4.1,6.836,6.836,0,0,0-13.334.928,16.15,16.15,0,0,0-.076,2.118v5.68c0,2.186-.051,3.975-.068,5.283l-.042,1.435A2.306,2.306,0,0,1,607.236,405.686Z" transform="translate(-582.103 -384.355)" fill="#263238"/>
        <path id="Trazado_145861" data-name="Trazado 145861" d="M583.345,405.23l-5.865,51.81h40.273l5.081-51.81Z" transform="translate(-577.48 -387.612)" fill="#7e57c2"/>
        <path id="Trazado_145862" data-name="Trazado 145862" d="M630.281,405.23h8.414l7.106,51.81H625.2Z" transform="translate(-584.927 -387.612)" fill="#7e57c2"/>
        <g id="Grupo_88580" data-name="Grupo 88580" transform="translate(40.273 17.618)" opacity="0.4">
          <path id="Trazado_145863" data-name="Trazado 145863" d="M630.281,405.23h8.414l7.106,51.81H625.2Z" transform="translate(-625.2 -405.23)"/>
        </g>
        <path id="Trazado_145864" data-name="Trazado 145864" d="M582.042,422.5l38.7,10.3-1.966,20.077-39.049-9.925Z" transform="translate(-577.831 -390.308)" fill="#fafafa"/>
      </g>
      <g id="freepik--Character--inject-7" transform="translate(401.701 260.391)">
        <path id="Trazado_145865" data-name="Trazado 145865" d="M506.349,311a26.082,26.082,0,0,0-.279,15.858c.954,3.165,2.532,6.33,2.051,9.6-.4,2.667-2.127,5-2.473,7.671-.692,5.435,4.473,10.583,3.089,15.883a8.438,8.438,0,0,1-4.954,5.359,15.4,15.4,0,0,1-7.427.937c-3.7-.321-7.714-1.688-9.427-5.064-1.367-2.633-.937-5.8-.464-8.718,2.093-12.929,4.507-25.951,9.748-37.978" transform="translate(-433.12 -297.189)" fill="#263238"/>
        <path id="Trazado_145866" data-name="Trazado 145866" d="M510.924,351.621a2.86,2.86,0,0,1-.43.143,4.545,4.545,0,0,1-1.308.11,4.992,4.992,0,0,1-1.992-.574,4.48,4.48,0,0,1-1.907-1.95,4.945,4.945,0,0,1-.38-3.291,4.652,4.652,0,0,1,.793-1.688,7.107,7.107,0,0,1,1.409-1.393,38.5,38.5,0,0,0,3.376-2.532,6.691,6.691,0,0,0,1.874-3.907,11.253,11.253,0,0,0-.321-4.4,25.331,25.331,0,0,0-1.468-3.9,32.432,32.432,0,0,1-2.532-6.625,10,10,0,0,1,0-4.777,5.176,5.176,0,0,1,.692-1.612,10.474,10.474,0,0,0-.6,1.637,10.311,10.311,0,0,0,.068,4.709,32.958,32.958,0,0,0,2.591,6.566,25.7,25.7,0,0,1,1.5,3.933,11.617,11.617,0,0,1,.329,4.507,6.884,6.884,0,0,1-1.958,4.051,36.5,36.5,0,0,1-3.376,2.532,5.218,5.218,0,0,0-2.127,2.945,4.726,4.726,0,0,0,.329,3.156,4.429,4.429,0,0,0,1.814,1.907,5.072,5.072,0,0,0,1.924.6A5.6,5.6,0,0,0,510.924,351.621Z" transform="translate(-436.049 -297.849)" fill="#263238"/>
        <path id="Trazado_145867" data-name="Trazado 145867" d="M447.181,457l-2.11,8.085-21.732-.2s1.6-3.806,13.5-3.629l.844-4.22Z" transform="translate(-423.34 -319.973)" fill="#b78876"/>
        <path id="Trazado_145868" data-name="Trazado 145868" d="M544.28,313.36c-.211.414-5.73,28.77-5.73,28.77l13.005.608,5.064-24.382Z" transform="translate(-441.319 -297.557)" fill="#455a64"/>
        <path id="Trazado_145869" data-name="Trazado 145869" d="M538.275,342.143l-1.485-.633,5.629-27.951,1.764-.118Z" transform="translate(-441.044 -297.569)" fill="#263238"/>
        <path id="Trazado_145870" data-name="Trazado 145870" d="M551.529,320.591a.675.675,0,1,0,.757-.582h-.006a.667.667,0,0,0-.749.571Z" transform="translate(-443.344 -298.594)" fill="#263238"/>
        <path id="Trazado_145871" data-name="Trazado 145871" d="M553.719,341.733l.194-3.713-5.553-2.3,2.169-5.14a4.482,4.482,0,0,1,5.907-2.3q.168.075.33.162l2.262,1.224a6.381,6.381,0,0,1,3.165,4.11,83.168,83.168,0,0,1,1.291,9.072" transform="translate(-442.85 -299.827)" fill="#b78876"/>
        <path id="Trazado_145872" data-name="Trazado 145872" d="M571.356,456.28s22.854,6.33,23.774,6.65c1.376.489,1.148,5.528-1,5.452-1.013,0-17.554.616-19.647.49s-8.4-2.616-8.4-2.616Z" transform="translate(-445.617 -319.86)" fill="#7e57c2"/>
        <path id="Trazado_145873" data-name="Trazado 145873" d="M583.61,465.777a21.632,21.632,0,0,1,1.013-2.456,21.993,21.993,0,0,1,1.612-2.1A5.064,5.064,0,0,0,583.61,465.777Z" transform="translate(-448.351 -320.631)" fill="#263238"/>
        <path id="Trazado_145874" data-name="Trazado 145874" d="M580.789,464.533c.11,0,.346-1.063.954-2.253s1.325-2.034,1.241-2.11A4.316,4.316,0,0,0,581.4,462.1,4.419,4.419,0,0,0,580.789,464.533Z" transform="translate(-447.91 -320.467)" fill="#263238"/>
        <path id="Trazado_145875" data-name="Trazado 145875" d="M578.118,463.787a16.407,16.407,0,0,1,.54-2.414,16.163,16.163,0,0,1,1.241-2.144A4.3,4.3,0,0,0,578.118,463.787Z" transform="translate(-447.476 -320.321)" fill="#263238"/>
        <path id="Trazado_145876" data-name="Trazado 145876" d="M578.288,460.149a3.994,3.994,0,0,0,.245-1.688,7.819,7.819,0,0,0-.228-1.857,8.074,8.074,0,0,0-.338-1.063,1.25,1.25,0,0,0-.371-.557.616.616,0,0,0-.785,0,1.027,1.027,0,0,0-.3.65,3.546,3.546,0,0,0,0,.6,4.746,4.746,0,0,0,.135,1.122,6.767,6.767,0,0,0,.709,1.747,4.783,4.783,0,0,0,1.021,1.376c.059,0-.329-.565-.785-1.5a7.9,7.9,0,0,1-.6-1.688,5.254,5.254,0,0,1-.11-1.046c0-.354,0-.793.211-.962a.237.237,0,0,1,.3,0,1.048,1.048,0,0,1,.253.405,10.2,10.2,0,0,1,.346,1,9.17,9.17,0,0,1,.3,1.789C578.331,459.491,578.229,460.14,578.288,460.149Z" transform="translate(-447.241 -319.636)" fill="#263238"/>
        <path id="Trazado_145877" data-name="Trazado 145877" d="M577.746,460.8a3.372,3.372,0,0,0-1.477-.236,6.646,6.646,0,0,0-1.62.2,3.262,3.262,0,0,0-.937.346.962.962,0,0,0-.515,1.038,1.14,1.14,0,0,0,.844.844,2.091,2.091,0,0,0,1.021,0,3.88,3.88,0,0,0,1.485-.734,3.981,3.981,0,0,0,1.063-1.046,9.633,9.633,0,0,0-1.215.844,4.093,4.093,0,0,1-1.4.608,1.805,1.805,0,0,1-.844,0,.768.768,0,0,1-.557-.54.608.608,0,0,1,.346-.641,3.523,3.523,0,0,1,.844-.321,7.844,7.844,0,0,1,1.536-.27C577.172,460.78,577.737,460.872,577.746,460.8Z" transform="translate(-446.723 -320.529)" fill="#263238"/>
        <path id="Trazado_145878" data-name="Trazado 145878" d="M587.744,466.2a11.679,11.679,0,0,1,.447-2.059,11.222,11.222,0,0,1,1.122-1.789,2.724,2.724,0,0,0-1.477,1.637A2.667,2.667,0,0,0,587.744,466.2Z" transform="translate(-448.965 -320.805)" fill="#263238"/>
        <path id="Trazado_145879" data-name="Trazado 145879" d="M568.88,468.159a4.771,4.771,0,0,0,.844.414,19.383,19.383,0,0,0,2.532.785,35.68,35.68,0,0,0,8.726.844c3.426,0,6.515-.186,8.752-.279l2.65-.143a4.847,4.847,0,0,0,.962-.1,4.608,4.608,0,0,0-.971-.042h-2.65l-8.743.169a40.788,40.788,0,0,1-8.667-.709C570.18,468.648,568.905,468.083,568.88,468.159Z" transform="translate(-446.052 -321.713)" fill="#263238"/>
        <path id="Trazado_145880" data-name="Trazado 145880" d="M568.08,468.414a17.867,17.867,0,0,0,1.688-.768,7.976,7.976,0,0,1,4.321-.726,6.9,6.9,0,0,1,3.739,2.228,14.024,14.024,0,0,0,1.317,1.342,7.306,7.306,0,0,0-1.114-1.528,9.264,9.264,0,0,0-1.519-1.418,5.362,5.362,0,0,0-2.363-1,7.492,7.492,0,0,0-4.5.844A6.082,6.082,0,0,0,568.08,468.414Z" transform="translate(-445.927 -321.454)" fill="#263238"/>
        <path id="Trazado_145881" data-name="Trazado 145881" d="M539.361,448.81s-21.6,14.161-22.441,14.744c-1.165.844.177,5.064,2.194,4.346.954-.346,19.1-5.393,21.048-6.152s7.207-5.064,7.207-5.064Z" transform="translate(-437.876 -318.695)" fill="#7e57c2"/>
        <path id="Trazado_145882" data-name="Trazado 145882" d="M535.282,461.425a4.136,4.136,0,0,0-1.452-2.312,4.019,4.019,0,0,0-2.431-1.232,21.116,21.116,0,0,1,2.177,1.511A23.915,23.915,0,0,1,535.282,461.425Z" transform="translate(-440.203 -320.11)" fill="#263238"/>
        <path id="Trazado_145883" data-name="Trazado 145883" d="M537.655,459.355a5.7,5.7,0,0,0-3.376-3.485c-.059.093.895.667,1.823,1.629S537.554,459.406,537.655,459.355Z" transform="translate(-440.652 -319.796)" fill="#263238"/>
        <path id="Trazado_145884" data-name="Trazado 145884" d="M540.02,457.818a4.287,4.287,0,0,0-3.08-3.8,15.479,15.479,0,0,1,1.831,1.688A16.067,16.067,0,0,1,540.02,457.818Z" transform="translate(-441.068 -319.508)" fill="#263238"/>
        <path id="Trazado_145885" data-name="Trazado 145885" d="M538.861,454.332c.051,0-.245-.608-.49-1.612a8.8,8.8,0,0,1-.253-1.8,8.932,8.932,0,0,1,0-1.063,1.1,1.1,0,0,1,.118-.456.219.219,0,0,1,.3-.068c.253.1.38.515.5.844a5.145,5.145,0,0,1,.211,1.021,7.31,7.31,0,0,1-.059,1.806c-.152,1.021-.354,1.688-.3,1.688a4.641,4.641,0,0,0,.565-1.629,6.75,6.75,0,0,0,.135-1.874,5.374,5.374,0,0,0-.2-1.114,5.908,5.908,0,0,0-.211-.565,1.038,1.038,0,0,0-.49-.523.615.615,0,0,0-.76.2,1.319,1.319,0,0,0-.177.65,8.156,8.156,0,0,0,0,1.114,8.032,8.032,0,0,0,.346,1.84A3.923,3.923,0,0,0,538.861,454.332Z" transform="translate(-441.191 -318.714)" fill="#263238"/>
        <path id="Trazado_145886" data-name="Trazado 145886" d="M539,454.875c0,.059.54-.2,1.409-.414a7.9,7.9,0,0,1,1.553-.211,3.122,3.122,0,0,1,.886.059.583.583,0,0,1,.515.506.768.768,0,0,1-.363.684,1.807,1.807,0,0,1-.844.27,4.153,4.153,0,0,1-1.528-.152,9.232,9.232,0,0,0-1.409-.422,3.9,3.9,0,0,0,1.333.675,3.854,3.854,0,0,0,1.637.245,2.128,2.128,0,0,0,.979-.3,1.147,1.147,0,0,0,.532-1.03.961.961,0,0,0-.844-.844,3.651,3.651,0,0,0-.987-.051,6.763,6.763,0,0,0-1.612.3A3.374,3.374,0,0,0,539,454.875Z" transform="translate(-441.389 -319.485)" fill="#263238"/>
        <path id="Trazado_145887" data-name="Trazado 145887" d="M522.476,469.5a1.422,1.422,0,0,0,.532-.844,3.205,3.205,0,0,0-.405-2.346,8.851,8.851,0,0,0-.726-1.08,3.881,3.881,0,0,0-.734-.785,1.27,1.27,0,0,0-.692-.3c-.177,0-.27,0-.27.059a2.056,2.056,0,0,1,.785.439,5.036,5.036,0,0,1,.625.785c.219.329.464.675.675,1.063a3.326,3.326,0,0,1,.473,2.11A8.64,8.64,0,0,1,522.476,469.5Z" transform="translate(-438.452 -321.089)" fill="#263238"/>
        <path id="Trazado_145888" data-name="Trazado 145888" d="M531.607,463.03a3.258,3.258,0,0,0-2.667-3.19,11.8,11.8,0,0,1,1.612,1.359A12.564,12.564,0,0,1,531.607,463.03Z" transform="translate(-439.819 -320.416)" fill="#263238"/>
        <path id="Trazado_145889" data-name="Trazado 145889" d="M545.433,459.07a7.38,7.38,0,0,0-.945.65,27.044,27.044,0,0,1-2.667,1.637,34.551,34.551,0,0,1-4.22,1.882c-1.637.616-3.477,1.19-5.418,1.755-3.891,1.114-7.41,2.144-9.95,2.9l-3.013.928a6.812,6.812,0,0,0-1.08.388,7.391,7.391,0,0,0,1.122-.245l3.038-.844c2.532-.692,6.093-1.688,9.992-2.8,1.941-.565,3.789-1.148,5.435-1.789a32.133,32.133,0,0,0,4.22-1.975,21.03,21.03,0,0,0,2.625-1.747A5.436,5.436,0,0,0,545.433,459.07Z" transform="translate(-438.134 -320.296)" fill="#263238"/>
        <path id="Trazado_145890" data-name="Trazado 145890" d="M549.593,459.305a5.948,5.948,0,0,0-1.831-.49,7.51,7.51,0,0,0-4.54.557,5.363,5.363,0,0,0-1.949,1.688,9.251,9.251,0,0,0-1.013,1.806,6.93,6.93,0,0,0-.6,1.8,13.968,13.968,0,0,0,.844-1.688,6.845,6.845,0,0,1,2.886-3.258,7.927,7.927,0,0,1,4.338-.625C548.876,459.2,549.585,459.364,549.593,459.305Z" transform="translate(-441.492 -320.236)" fill="#263238"/>
        <path id="Trazado_145891" data-name="Trazado 145891" d="M479.908,348.122l17.723,1.688,7.207,2.042a19.612,19.612,0,0,1,8.2,4.7l23.217,22.289,4.22-34.6,11.6,1-1.941,44.56a13.267,13.267,0,0,1-12.659,9.241,13.739,13.739,0,0,1-9.342-3.84L511.606,379.66l-.49,22.213,11.469,9.283L478.355,435.8s-2.4-9.418-1.308-30.382c.2-3.848-6.853-15.529-7.393-18.963-2.068-13.208-1.747-32.526-1.747-32.526Z" transform="translate(-430.292 -302.376)" fill="#7e57c2"/>
        <path id="Trazado_145892" data-name="Trazado 145892" d="M464.438,355.22s-8.971,3.334-11.14,10.355c-1.924,6.237-8.347,41.277-8.347,41.277l-6.372,37.134,13.343.506,15.351-63.211Z" transform="translate(-425.718 -304.089)" fill="#7e57c2"/>
        <path id="Trazado_145893" data-name="Trazado 145893" d="M468.51,400.1a3.354,3.354,0,0,0,.27-.751c.152-.49.354-1.207.591-2.093.481-1.781,1.1-4.22,1.688-6.979s1.114-5.224,1.443-7.039c.16-.9.287-1.637.363-2.144a3.126,3.126,0,0,0,.076-.8,3.708,3.708,0,0,0-.228.776c-.127.582-.287,1.283-.481,2.118-.414,1.882-.954,4.313-1.544,7l-1.6,7c-.186.844-.338,1.544-.473,2.127A3.571,3.571,0,0,0,468.51,400.1Z" transform="translate(-430.389 -308.002)" fill="#263238"/>
        <path id="Trazado_145894" data-name="Trazado 145894" d="M565.234,348.686a4.228,4.228,0,0,0,.346-1.747,4.527,4.527,0,0,0,0-1.789,4.211,4.211,0,0,0-.346,1.755A4.485,4.485,0,0,0,565.234,348.686Z" transform="translate(-445.469 -302.518)" fill="#263238"/>
        <path id="Trazado_145895" data-name="Trazado 145895" d="M561.2,348.769a4.58,4.58,0,0,0,.287-1.857,4.926,4.926,0,0,0-.093-1.882,4.607,4.607,0,0,0-.287,1.865A4.883,4.883,0,0,0,561.2,348.769Z" transform="translate(-444.832 -302.499)" fill="#263238"/>
        <path id="Trazado_145896" data-name="Trazado 145896" d="M557.214,348.439a6.191,6.191,0,0,0,.3-2.076,5.652,5.652,0,0,0-.076-2.093,5.859,5.859,0,0,0-.3,2.076A5.651,5.651,0,0,0,557.214,348.439Z" transform="translate(-444.21 -302.381)" fill="#263238"/>
        <path id="Trazado_145897" data-name="Trazado 145897" d="M549.385,390.393a12.5,12.5,0,0,0-.127-3.064,12.223,12.223,0,0,0-.506-3.03,12.494,12.494,0,0,0,.127,3.064A11.867,11.867,0,0,0,549.385,390.393Z" transform="translate(-442.905 -308.628)" fill="#263238"/>
        <path id="Trazado_145898" data-name="Trazado 145898" d="M451.662,456.38a4.773,4.773,0,0,0-.515,1.857,5,5,0,0,0-.143,1.924,4.774,4.774,0,0,0,.515-1.857A5,5,0,0,0,451.662,456.38Z" transform="translate(-427.651 -319.876)" fill="#263238"/>
        <path id="Trazado_145899" data-name="Trazado 145899" d="M446.475,456.37a4.294,4.294,0,0,0-.473,1.688,4.167,4.167,0,0,0-.1,1.747,4,4,0,0,0,.481-1.688A4.281,4.281,0,0,0,446.475,456.37Z" transform="translate(-426.853 -319.874)" fill="#263238"/>
        <path id="Trazado_145900" data-name="Trazado 145900" d="M441.539,455.87a6.232,6.232,0,0,0-.439,1.907,6.464,6.464,0,0,0-.211,1.941,4.212,4.212,0,0,0,.591-1.874A4.458,4.458,0,0,0,441.539,455.87Z" transform="translate(-426.078 -319.796)" fill="#263238"/>
        <path id="Trazado_145901" data-name="Trazado 145901" d="M460.69,360.322c0,.076.928,0,2.371.321a11.26,11.26,0,0,1,5.064,2.532,11.391,11.391,0,0,1,3.182,4.709c.5,1.393.565,2.321.633,2.312a1.837,1.837,0,0,0,0-.658,9.408,9.408,0,0,0-.371-1.739,10.779,10.779,0,0,0-3.182-4.912,10.908,10.908,0,0,0-5.292-2.532,9.3,9.3,0,0,0-1.772-.127A2.266,2.266,0,0,0,460.69,360.322Z" transform="translate(-429.169 -304.871)" fill="#263238"/>
        <path id="Trazado_145902" data-name="Trazado 145902" d="M517.264,393.778c-.076,0,.346-1.1.768-2.878a25.173,25.173,0,0,0-.751-14.094c-.608-1.73-1.139-2.743-1.072-2.777s.186.228.439.675a16.879,16.879,0,0,1,.92,1.992,22.662,22.662,0,0,1,.76,14.28,15.156,15.156,0,0,1-.709,2.076A3.034,3.034,0,0,1,517.264,393.778Z" transform="translate(-437.832 -307.024)" fill="#263238"/>
        <path id="Trazado_145903" data-name="Trazado 145903" d="M515.378,410.959a3.085,3.085,0,0,1-.768.051,18.863,18.863,0,0,1-2.085-.093,35.728,35.728,0,0,1-13.208-3.781c-.785-.405-1.409-.76-1.823-1.03a2.615,2.615,0,0,1-.625-.447c0-.059.987.464,2.582,1.2a43.64,43.64,0,0,0,13.107,3.747A27.992,27.992,0,0,1,515.378,410.959Z" transform="translate(-434.815 -311.96)" fill="#263238"/>
        <g id="Grupo_88581" data-name="Grupo 88581" transform="translate(60.967 92.821)" opacity="0.2">
          <path id="Trazado_145904" data-name="Trazado 145904" d="M495.6,404.62c1.384,1.249,3.545,1.426,5.4,1.393s3.713-.405,5.578-.371a6.911,6.911,0,0,1,5.064,1.916,2.532,2.532,0,0,1,.726,1.528,1.367,1.367,0,0,1-.844,1.359,2.16,2.16,0,0,1-1.063,0c-5.224-1.08-10.836-2.3-14.879-5.781" transform="translate(-495.58 -404.62)"/>
        </g>
        <g id="Grupo_88582" data-name="Grupo 88582" transform="translate(39.733 73.917)" opacity="0.2">
          <path id="Trazado_145905" data-name="Trazado 145905" d="M474.581,402.779c1.376-.4,1.6-2.009,1.688-3.435a31.105,31.105,0,0,0-3.317-17.124c-.65,3.874-1.73,7.916-2.532,11.866Z" transform="translate(-470.42 -382.22)"/>
        </g>
        <path id="Trazado_145906" data-name="Trazado 145906" d="M468.642,387.289a3.382,3.382,0,0,0-1.131-.506,3.814,3.814,0,0,0-3.114.895c-1.131.844-1.755,2.532-2.1,4.439s-.557,4.118-1.983,6a4.652,4.652,0,0,1-2.861,1.688,23.131,23.131,0,0,1-3.047.219,6.562,6.562,0,0,0-4.515,1.857,6.954,6.954,0,0,0-1.789,2.853c-.236.776-.262,1.232-.312,1.224a1.074,1.074,0,0,1,0-.329,4.1,4.1,0,0,1,.152-.937,6.879,6.879,0,0,1,3.713-4.439,7.506,7.506,0,0,1,2.726-.633,24.071,24.071,0,0,0,2.988-.236,4.217,4.217,0,0,0,2.6-1.57,7.977,7.977,0,0,0,1.317-2.853c.27-1,.414-2,.616-2.954.371-1.89,1.046-3.671,2.3-4.6a3.925,3.925,0,0,1,3.376-.844,2.37,2.37,0,0,1,.844.43C468.574,387.2,468.65,387.272,468.642,387.289Z" transform="translate(-427.153 -308.967)" fill="#fafafa"/>
        <path id="Trazado_145907" data-name="Trazado 145907" d="M523.548,367.669a5.7,5.7,0,0,1-1.106,1.688,8.387,8.387,0,0,1-4.87,2.608,7.967,7.967,0,0,1-3.857-.3,12.651,12.651,0,0,1-3.764-2.346,21.164,21.164,0,0,0-3.874-2.81,6.255,6.255,0,0,0-2.38-.658,7.455,7.455,0,0,0-2.532.321,17.1,17.1,0,0,0-4.549,2.355,27.785,27.785,0,0,1-4.22,2.532,10.745,10.745,0,0,1-4.338.928,12.391,12.391,0,0,1-3.815-.633,11.5,11.5,0,0,1-4.675-3,9.3,9.3,0,0,1-.928-1.19,2.105,2.105,0,0,1-.262-.456c.042,0,.414.6,1.317,1.528a11.7,11.7,0,0,0,4.642,2.819,11.042,11.042,0,0,0,7.9-.363,29.976,29.976,0,0,0,4.11-2.532,16.939,16.939,0,0,1,4.659-2.422,7.486,7.486,0,0,1,2.684-.329,6.621,6.621,0,0,1,2.532.7,21.55,21.55,0,0,1,3.95,2.886,12.352,12.352,0,0,0,3.629,2.312,7.7,7.7,0,0,0,3.688.346,8.44,8.44,0,0,0,4.785-2.422A13.384,13.384,0,0,0,523.548,367.669Z" transform="translate(-431.929 -305.677)" fill="#fafafa"/>
        <path id="Trazado_145908" data-name="Trazado 145908" d="M552.2,404.119a11.752,11.752,0,0,1-.346-1.553,19.883,19.883,0,0,0-1.165-4.118,9.432,9.432,0,0,0-1.6-2.464,6.19,6.19,0,0,0-2.76-1.823,11.453,11.453,0,0,0-3.7-.371,15.4,15.4,0,0,1-4.127-.3,9.1,9.1,0,0,1-3.6-2.068,32.476,32.476,0,0,1-2.675-2.734c-1.62-1.781-3.376-3.215-5.106-3.637a5.14,5.14,0,0,0-4.076.616,4.981,4.981,0,0,0-1.1,1.114,2.169,2.169,0,0,1,.177-.371,3.516,3.516,0,0,1,.844-.844,5.24,5.24,0,0,1,4.22-.776c1.874.414,3.671,1.89,5.325,3.663.844.844,1.688,1.831,2.667,2.684a8.685,8.685,0,0,0,3.435,1.975c2.65.667,5.418-.127,7.84.7a6.584,6.584,0,0,1,2.9,1.966,9.33,9.33,0,0,1,1.6,2.591,17.325,17.325,0,0,1,1.1,4.22c.076.506.127.9.152,1.173A1.28,1.28,0,0,1,552.2,404.119Z" transform="translate(-438.727 -308.681)" fill="#fafafa"/>
        <path id="Trazado_145909" data-name="Trazado 145909" d="M511.773,391.946a1.654,1.654,0,0,1-.43.068,5.479,5.479,0,0,1-1.249-.042,15.734,15.734,0,0,1-4.321-1.561,17.988,17.988,0,0,0-2.912-1.131,7.76,7.76,0,0,0-3.511-.118,14.829,14.829,0,0,0-6.988,4.068,80.218,80.218,0,0,1-6.009,5.764,13.43,13.43,0,0,1-6.211,2.785,12.778,12.778,0,0,1-4.591-.068,9.4,9.4,0,0,1-1.215-.312,1.664,1.664,0,0,1-.405-.16c0-.042.591.143,1.646.3a13.426,13.426,0,0,0,10.524-2.869c2-1.561,3.815-3.713,5.958-5.764a14.849,14.849,0,0,1,7.216-4.144,8.108,8.108,0,0,1,3.68.16,17.51,17.51,0,0,1,2.954,1.207,17.144,17.144,0,0,0,4.22,1.688A16.259,16.259,0,0,0,511.773,391.946Z" transform="translate(-431.235 -309.303)" fill="#fafafa"/>
        <path id="Trazado_145910" data-name="Trazado 145910" d="M509.058,410.152a5.538,5.538,0,0,0-1.688.692c-.844.608-.979,1.468-1.106,1.443s-.093-.236,0-.6a2.425,2.425,0,0,1,.844-1.19,2.327,2.327,0,0,1,1.359-.5C508.856,410,509.067,410.093,509.058,410.152Z" transform="translate(-436.268 -312.638)" fill="#fafafa"/>
        <path id="Trazado_145911" data-name="Trazado 145911" d="M517.6,406.1a5.266,5.266,0,0,1-1.08,2.532,5.332,5.332,0,0,1-1.941,1.983,24.587,24.587,0,0,1,1.578-2.228A26.774,26.774,0,0,1,517.6,406.1Z" transform="translate(-437.578 -312.03)" fill="#fafafa"/>
        <path id="Trazado_145912" data-name="Trazado 145912" d="M482.448,420.121c-.042.118-.954-.135-2.093-.135a16.741,16.741,0,0,1-2.085.1,3.062,3.062,0,0,1,2.093-.54A3.119,3.119,0,0,1,482.448,420.121Z" transform="translate(-431.912 -314.125)" fill="#fafafa"/>
        <path id="Trazado_145913" data-name="Trazado 145913" d="M454.52,370.473a3.2,3.2,0,0,0,.549.2,2.534,2.534,0,0,0,1.536-.135,4.221,4.221,0,0,0,1.772-1.477,21.4,21.4,0,0,1,1.882-2.338,9.988,9.988,0,0,1,4.785-2.625,9.311,9.311,0,0,1,1.646-.211c.4,0,.608,0,.608.059s-.844.084-2.177.456a10.621,10.621,0,0,0-4.549,2.633,22.624,22.624,0,0,0-1.874,2.287,4.471,4.471,0,0,1-1.992,1.511,2.529,2.529,0,0,1-1.688,0C454.638,370.667,454.5,370.481,454.52,370.473Z" transform="translate(-428.206 -305.442)" fill="#fafafa"/>
        <path id="Trazado_145914" data-name="Trazado 145914" d="M506.335,352a3.28,3.28,0,0,1-.954,1.106,7.973,7.973,0,0,1-3.139,1.629,7.858,7.858,0,0,1-3.536.118,3.116,3.116,0,0,1-1.376-.5,10.4,10.4,0,0,1,1.409.177,9.575,9.575,0,0,0,3.376-.236,9.453,9.453,0,0,0,3.055-1.443A10.368,10.368,0,0,1,506.335,352Z" transform="translate(-434.887 -303.587)" fill="#fafafa"/>
        <path id="Trazado_145915" data-name="Trazado 145915" d="M459.8,426.516c0,.042-.354,0-.971.169a6.327,6.327,0,0,0-2.363,1.148,9.746,9.746,0,0,0-2.532,2.988c-.76,1.291-1.384,2.827-2.186,4.389a11.753,11.753,0,0,1-3,3.95,5.553,5.553,0,0,1-3.832,1.3,4.217,4.217,0,0,1-2.532-.945,2.542,2.542,0,0,1-.506-.549c-.093-.143-.135-.219-.118-.228a6.224,6.224,0,0,0,.734.65,4.335,4.335,0,0,0,2.464.768,5.373,5.373,0,0,0,3.57-1.308,11.9,11.9,0,0,0,2.869-3.84c.785-1.536,1.435-3.08,2.228-4.388a9.681,9.681,0,0,1,2.684-3.038,5.911,5.911,0,0,1,2.532-1.063,3.639,3.639,0,0,1,.743,0C459.685,426.491,459.8,426.5,459.8,426.516Z" transform="translate(-426.214 -315.213)" fill="#fafafa"/>
        <g id="Grupo_88583" data-name="Grupo 88583" transform="translate(103.872 75.816)" opacity="0.3">
          <path id="Trazado_145916" data-name="Trazado 145916" d="M548.15,384.647a7.6,7.6,0,0,0-1.519,6.608c.093.38.262.793.633.9a.845.845,0,0,0,.844-.321,2.221,2.221,0,0,0,.354-.844,13.5,13.5,0,0,0-.118-6.524" transform="translate(-546.419 -384.47)"/>
        </g>
        <path id="Trazado_145917" data-name="Trazado 145917" d="M564.513,361.57a12.3,12.3,0,0,0-2.127,2.532,20.039,20.039,0,0,0-1.536,3.283c-.481,1.274-.954,2.726-1.629,4.22a10.729,10.729,0,0,1-2.625,3.7,6.75,6.75,0,0,1-3.376,1.536,4.61,4.61,0,0,1-2.481-.321,3.407,3.407,0,0,1-.582-.346c-.127-.093-.186-.152-.177-.16s.287.152.844.346a4.744,4.744,0,0,0,2.372.169A6.525,6.525,0,0,0,556.36,375a10.651,10.651,0,0,0,2.532-3.578c.658-1.426,1.139-2.861,1.688-4.152a18.488,18.488,0,0,1,1.688-3.3,8.851,8.851,0,0,1,1.629-1.882A2.615,2.615,0,0,1,564.513,361.57Z" transform="translate(-443.103 -305.08)" fill="#fafafa"/>
        <path id="Trazado_145918" data-name="Trazado 145918" d="M565.69,350.459a5.3,5.3,0,0,1-1.485,1.3,12.237,12.237,0,0,1-9.14,1.806,5.377,5.377,0,0,1-1.865-.633c0-.076.734.152,1.916.321a13.691,13.691,0,0,0,8.929-1.764C565.1,350.915,565.69,350.4,565.69,350.459Z" transform="translate(-443.605 -303.346)" fill="#fafafa"/>
        <path id="Trazado_145919" data-name="Trazado 145919" d="M560.118,448.861s-53.033-34.813-55.2-35.539-7.418-4.161-12.659-2.717-9.95,6.161-12.3,13.03S477.42,445.9,477.42,445.9s4.161,12.127,12.3,14.659a20.348,20.348,0,0,0,2.118.532,25.047,25.047,0,0,0,25.614-11.064l1.19-1.806s34.695,12.744,35.235,12.566Z" transform="translate(-431.779 -312.678)" fill="#263238"/>
        <path id="Trazado_145920" data-name="Trazado 145920" d="M585.9,407.659a10.348,10.348,0,0,1,6.515,9.587c.051,13.934-28.154,29.327-28.154,29.327l-37.539-24.88V419.06S575.061,401.684,585.9,407.659Z" transform="translate(-439.473 -312.078)" fill="#263238"/>
        <path id="Trazado_145921" data-name="Trazado 145921" d="M497.66,439.686l.3.135.844.346,3.376,1.291,12.5,4.709c5.308,1.975,11.663,4.329,18.795,6.929s15.039,5.443,23.487,8.3l.152.051.076-.143,4.144-7.908,2.11-4.034.084-.16-.152-.093-40.442-25.681-12.153-7.663-3.3-2.059-.844-.532-.3-.169.279.2.844.557,3.266,2.118,12.085,7.764L563.2,449.425l-.068-.245-2.11,4.034-4.169,7.891.228-.093c-8.439-2.853-16.347-5.688-23.487-8.262l-18.828-6.836-12.533-4.591-3.376-1.232-.844-.312Z" transform="translate(-434.938 -313.106)" fill="#455a64"/>
        <path id="Trazado_145922" data-name="Trazado 145922" d="M549.25,435.764a7.876,7.876,0,0,0,.979-.667c.616-.439,1.494-1.106,2.532-1.933,2.152-1.688,5.064-4.017,8.22-6.752s5.908-5.241,7.882-7.114c.987-.937,1.772-1.688,2.3-2.245a6.129,6.129,0,0,0,.844-.844,7.681,7.681,0,0,0-.9.76l-2.388,2.152c-2.009,1.823-4.8,4.321-7.942,7.013s-6.034,5.064-8.144,6.8l-2.532,2.025A7.231,7.231,0,0,0,549.25,435.764Z" transform="translate(-442.989 -313.607)" fill="#455a64"/>
        <path id="Trazado_145923" data-name="Trazado 145923" d="M583.026,414.043a7.374,7.374,0,0,0-3.621.329,7.276,7.276,0,0,0-3.215,1.688c.059.1,1.426-.776,3.325-1.325S583.026,414.161,583.026,414.043Z" transform="translate(-447.193 -313.255)" fill="#455a64"/>
        <path id="Trazado_145924" data-name="Trazado 145924" d="M579.826,411.46a5.722,5.722,0,0,0-3.376,4.22,25.97,25.97,0,0,1,1.468-2.3C578.864,412.228,579.893,411.553,579.826,411.46Z" transform="translate(-447.234 -312.866)" fill="#455a64"/>
        <path id="Trazado_145925" data-name="Trazado 145925" d="M598.9,463.733c0-.042-.447-.135-.97.3a3.493,3.493,0,0,0-1.08,2.177,4.275,4.275,0,0,0,.338,2.405,2.228,2.228,0,0,0,.591.844c.034,0-.152-.354-.338-.911a4.785,4.785,0,0,1-.211-2.253,3.765,3.765,0,0,1,.886-2.034A2.463,2.463,0,0,1,598.9,463.733Z" transform="translate(-450.41 -321.017)" fill="#263238"/>
        <path id="Trazado_145926" data-name="Trazado 145926" d="M467.095,316.3a5.333,5.333,0,0,0-7.542.1c-.077.078-.15.16-.222.242a9.077,9.077,0,0,0-1.789,4.709,22.7,22.7,0,0,1-.987,5,5.122,5.122,0,0,1-3.544,3.376c-1.266.236-2.768-.152-3.739.692a2.43,2.43,0,0,0-.219,3.021,5.636,5.636,0,0,0,2.6,1.949c.4.177.844.43.844.844,0,.565-.726.768-1.249.987a3.13,3.13,0,0,0-1.148,4.372,5.063,5.063,0,0,0,4.38,2.186,14.807,14.807,0,0,0,4.962-1.139,1.924,1.924,0,0,0-.051,2.447,2.651,2.651,0,0,0,2.4.895,4.322,4.322,0,0,0,2.329-1.207,8.381,8.381,0,0,0,2.287-4.6,27.5,27.5,0,0,0,.3-5.207,139.726,139.726,0,0,1,1.325-18.567" transform="translate(-427.286 -297.779)" fill="#263238"/>
        <path id="Trazado_145927" data-name="Trazado 145927" d="M489.271,302.378a12.836,12.836,0,0,1,12.237,12.811c0,5.308-.076,11.081-.414,14.507-.785,7.967-6.752,9.326-6.752,9.326s.186,4.954.456,9.646a8.608,8.608,0,0,1-8.2,8.794h0c-4.735.38-8.794-2.861-9.115-7.292l-1.6-34.374A12.837,12.837,0,0,1,488.1,302.378q.591-.027,1.183,0Z" transform="translate(-431.537 -295.841)" fill="#b78876"/>
        <path id="Trazado_145928" data-name="Trazado 145928" d="M503.725,321.528a1.013,1.013,0,0,1-.9,1.112l-.025,0a.962.962,0,0,1-1.093-.811l0-.033a1.013,1.013,0,0,1,.92-1.08.961.961,0,0,1,1.1.8Z" transform="translate(-435.568 -298.703)" fill="#263238"/>
        <path id="Trazado_145929" data-name="Trazado 145929" d="M503.326,319.645c-.118.143-.92-.38-2.009-.312s-1.848.658-1.975.532.051-.3.38-.574a2.859,2.859,0,0,1,1.578-.591,2.787,2.787,0,0,1,1.612.414C503.267,319.358,503.385,319.585,503.326,319.645Z" transform="translate(-435.194 -298.39)" fill="#263238"/>
        <path id="Trazado_145930" data-name="Trazado 145930" d="M490.288,322.232a1.021,1.021,0,0,1-.911,1.08.97.97,0,0,1-1.095-.828l0-.016a1.013,1.013,0,0,1,.911-1.08.971.971,0,0,1,1.095.828Z" transform="translate(-433.474 -298.808)" fill="#263238"/>
        <path id="Trazado_145931" data-name="Trazado 145931" d="M489.886,320.914c-.118.143-.911-.38-2-.312s-1.857.658-1.983.532.051-.3.388-.574a2.74,2.74,0,0,1,1.57-.591,2.7,2.7,0,0,1,1.612.414C489.818,320.619,489.945,320.838,489.886,320.914Z" transform="translate(-433.097 -298.588)" fill="#263238"/>
        <path id="Trazado_145932" data-name="Trazado 145932" d="M495.7,328.712a6.965,6.965,0,0,1,1.747-.43c.279-.042.532-.11.574-.3a1.479,1.479,0,0,0-.236-.844l-.945-2.068a36.179,36.179,0,0,1-2.177-5.427,37.333,37.333,0,0,1,2.608,5.241c.321.726.625,1.418.911,2.085a1.593,1.593,0,0,1,.211,1.08.729.729,0,0,1-.439.439,2.127,2.127,0,0,1-.464.093A7.709,7.709,0,0,1,495.7,328.712Z" transform="translate(-434.47 -298.537)" fill="#263238"/>
        <path id="Trazado_145933" data-name="Trazado 145933" d="M495.777,345.371A21.613,21.613,0,0,1,485,343s2.945,5.671,10.878,4.642Z" transform="translate(-432.962 -302.182)" fill="#995037"/>
        <path id="Trazado_145934" data-name="Trazado 145934" d="M486.377,317.27c.127.194.92-.135,1.907-.354s1.848-.27,1.882-.5-.895-.557-2.059-.3S486.242,317.1,486.377,317.27Z" transform="translate(-433.175 -297.973)" fill="#263238"/>
        <path id="Trazado_145935" data-name="Trazado 145935" d="M499.16,315.068c.051.219.945.194,2.017.211s1.966.059,2.025-.16-.844-.65-2.017-.658S499.1,314.857,499.16,315.068Z" transform="translate(-435.172 -297.729)" fill="#263238"/>
        <path id="Trazado_145936" data-name="Trazado 145936" d="M475.137,344.837c-.076-1.637,1.755-8.743,2.49-13.106s-2.127-5.064-2.582-7.646a8.878,8.878,0,0,1,.844-5.021c4.169,1.494,5.815-1.477,8.093-3.232,2.414-1.874,2.945-4.169,3.933-7.064s2.144-4.692,5.19-4.979a9.047,9.047,0,0,1,4.051,4.65c.928,2.709,1.688,13.275,1.688,13.275.422-5.064,4.532-7.19,3.418-14.651-.481-3.215-3.148-7.6-7.266-8.254-1.2-.194-3.46-.338-3.46-.338-2.456-2.211-3.654-2.144-6.009-3.19-5.064-2.253-11.191,1.772-14.558,6.186-2.6,3.376-3.857,7.992-4.566,12.313a35.81,35.81,0,0,0-.194,9.064c.169,1.8-.051,4.076-1.823,5.46-2.532,1.966-3.19,5.714-1.443,10.71s-4.692,13.5-4.692,13.5a39.672,39.672,0,0,1,5.739-3.891C466.58,347.268,475.137,344.837,475.137,344.837Z" transform="translate(-428.788 -294.635)" fill="#263238"/>
        <path id="Trazado_145937" data-name="Trazado 145937" d="M493.839,333.373a1.639,1.639,0,0,0-1.5-.5,1.527,1.527,0,0,0-.987.633.954.954,0,0,0,0,1.08,1.1,1.1,0,0,0,1.207.211,3.592,3.592,0,0,0,1.106-.776.946.946,0,0,0,.236-.287.3.3,0,0,0,0-.338" transform="translate(-433.927 -300.598)" fill="#995037"/>
        <path id="Trazado_145938" data-name="Trazado 145938" d="M491.48,331.83c.143,0,.219.962,1.114,1.6s1.924.447,1.941.582-.219.211-.658.253a2.433,2.433,0,0,1-1.62-.43,2.15,2.15,0,0,1-.844-1.342C491.32,332.083,491.413,331.83,491.48,331.83Z" transform="translate(-433.957 -300.439)" fill="#263238"/>
        <path id="Trazado_145939" data-name="Trazado 145939" d="M450.7,326.938a7.964,7.964,0,0,0,.084,1.1,3.95,3.95,0,0,0,.414,1.207,2.778,2.778,0,0,0,1.182,1.148,2.311,2.311,0,0,0,1.941.093,2.467,2.467,0,0,0,1.3-1.789,9.79,9.79,0,0,0,.135-2.608c0-.911-.084-1.865-.084-2.844a11.377,11.377,0,0,1,1.063-5.41,5.386,5.386,0,0,1,3.376-2.9,4.3,4.3,0,0,1,3,.236,2.685,2.685,0,0,1,.844.675,7.049,7.049,0,0,0-.928-.582,4.3,4.3,0,0,0-2.92-.143,5.23,5.23,0,0,0-3.2,2.836,11.32,11.32,0,0,0-1.013,5.283c0,.979.051,1.924.084,2.844a10.017,10.017,0,0,1-.16,2.675,2.7,2.7,0,0,1-1.452,1.933,2.532,2.532,0,0,1-2.11-.127,2.9,2.9,0,0,1-1.224-1.249,3.764,3.764,0,0,1-.388-1.257A3.384,3.384,0,0,1,450.7,326.938Z" transform="translate(-427.597 -297.776)" fill="#263238"/>
        <path id="Trazado_145940" data-name="Trazado 145940" d="M464.3,341.984a2.071,2.071,0,0,1-.422-.4,3.32,3.32,0,0,1-.616-1.561,4.582,4.582,0,0,1,.456-2.616,10.033,10.033,0,0,1,2.194-2.76,18.646,18.646,0,0,0,2.869-3.106,7.294,7.294,0,0,0,1-4.642,48.861,48.861,0,0,1-.405-5.393,7.1,7.1,0,0,1,.658-2.819,5.061,5.061,0,0,1,2.059-2.144c1.772-1,3.756-1.283,5.376-2.177a8.758,8.758,0,0,0,3.477-3.924c.776-1.528,1.333-3.08,2.051-4.439a9.6,9.6,0,0,1,2.658-3.376,5.191,5.191,0,0,1,3.317-1.131,4.127,4.127,0,0,1,2.456.987,3.081,3.081,0,0,1,.945,1.384,1.548,1.548,0,0,1,.1.422v.152a1.46,1.46,0,0,0-.169-.557,3.073,3.073,0,0,0-.962-1.325,4.087,4.087,0,0,0-2.4-.92,5.063,5.063,0,0,0-3.19,1.139,9.336,9.336,0,0,0-2.582,3.291c-.7,1.35-1.249,2.895-2.034,4.448a8.986,8.986,0,0,1-3.57,4.043c-1.688.928-3.654,1.2-5.359,2.177a4.73,4.73,0,0,0-1.958,2.034,7.031,7.031,0,0,0-.641,2.709,49.434,49.434,0,0,0,.4,5.367,7.522,7.522,0,0,1-1.03,4.76,18.765,18.765,0,0,1-2.929,3.123,10.017,10.017,0,0,0-2.186,2.692,4.562,4.562,0,0,0-.49,2.532A3.265,3.265,0,0,0,464.3,341.984Z" transform="translate(-429.565 -295.706)" fill="#455a64"/>
        <path id="Trazado_145941" data-name="Trazado 145941" d="M466.928,320.2a4.051,4.051,0,0,1,1-4.794,18.281,18.281,0,0,0-.844,2.321A16.829,16.829,0,0,0,466.928,320.2Z" transform="translate(-430.081 -297.877)" fill="#fafafa"/>
        <path id="Trazado_145942" data-name="Trazado 145942" d="M470.217,347.96a18.829,18.829,0,0,0,2.464,12.2,9.588,9.588,0,0,0,3.013,3.325,4.98,4.98,0,0,0,4.329.616,3.375,3.375,0,0,0,2.236-3.536c-.338-2.11-2.937-3.435-2.954-5.578.945.574,2.228,1.122,3.055.388a1.874,1.874,0,0,0,.312-2.076,8.037,8.037,0,0,0-1.283-1.831,11.476,11.476,0,0,1-2.3-8.735c.127-.844.354-3.494.371-4.355s-.236,0-.844-.565a2.676,2.676,0,0,0-2.414-.447,5.133,5.133,0,0,0-2.135,1.342,9.882,9.882,0,0,0-2.937,7.494" transform="translate(-430.628 -301.286)" fill="#263238"/>
      </g>
      <g id="freepik--speech-bubble--inject-7" transform="translate(527.787 224.528)">
        <path id="Trazado_145943" data-name="Trazado 145943" d="M644.07,288.615v-.549l.177-1.6c0-.354.1-.751.11-1.19s0-.92,0-1.435.042-1.08,0-1.688-.11-1.232-.16-1.9a30.821,30.821,0,0,0-2.532-9.452,30.436,30.436,0,0,0-7.6-10.389l-1.376-1.2c-.49-.371-1-.726-1.519-1.1A30.016,30.016,0,0,0,627.9,256.1a30.579,30.579,0,0,0-7.672-2.777,31.532,31.532,0,0,0-4.22-.667c-.726-.076-1.46,0-2.2-.068h-1.114c-.38,0-.751.059-1.122.084a29.066,29.066,0,0,0-9.022,1.992,30.742,30.742,0,0,0-15.09,12.465,31.294,31.294,0,0,0-4.372,20.483q.1.692.228,1.393v.093l-.051.076-9.883,13.807-.211-.338,14.668-2.27h.135l.068.11a30.608,30.608,0,0,0,18.035,12.7,24,24,0,0,0,3.376.625l1.688.211c.557.068,1.122.042,1.688.059a30.591,30.591,0,0,0,12.187-2.169,31.523,31.523,0,0,0,9.073-5.587l1.73-1.62,1.477-1.688a16.333,16.333,0,0,0,1.291-1.688,16.721,16.721,0,0,0,1.131-1.629,32.2,32.2,0,0,0,2.853-5.823l.76-2.22c.16-.658.287-1.215.4-1.688s.186-.776.245-1.021a2.609,2.609,0,0,1,.1-.346,1.579,1.579,0,0,1-.059.354c-.059.228-.127.582-.219,1.03s-.219,1.021-.363,1.688-.456,1.4-.726,2.245a31.572,31.572,0,0,1-2.819,5.908c-.312.565-.734,1.072-1.122,1.646a15.729,15.729,0,0,1-1.291,1.688l-1.477,1.688-1.739,1.646a31.613,31.613,0,0,1-9.123,5.68,30.873,30.873,0,0,1-12.313,2.236,16.194,16.194,0,0,1-1.688-.059l-1.688-.2A24.564,24.564,0,0,1,606,313.52a30.98,30.98,0,0,1-18.288-12.836l.211.093-14.668,2.279-.515.084.3-.422,9.933-13.807-.042.169q-.127-.709-.228-1.418a31.642,31.642,0,0,1,4.405-20.786,31.23,31.23,0,0,1,15.309-12.659,29.709,29.709,0,0,1,9.148-2c.38,0,.76-.068,1.131-.076h1.131a19.669,19.669,0,0,1,2.237.084,32.539,32.539,0,0,1,4.3.684,30.386,30.386,0,0,1,7.739,2.836,28.624,28.624,0,0,1,3.308,2.051c.515.371,1.038.726,1.527,1.106l1.393,1.215a30.638,30.638,0,0,1,10.127,20.061c.051.675.093,1.308.143,1.916s0,1.156,0,1.688,0,1-.042,1.443-.093.844-.135,1.19c-.093.692-.169,1.224-.219,1.6A2.548,2.548,0,0,1,644.07,288.615Z" transform="translate(-572.74 -252.14)" fill="#263238"/>
        <path id="Trazado_145944" data-name="Trazado 145944" d="M628.67,275.07l3.7,28.061H604.93l4-28.061Z" transform="translate(-577.763 -255.718)" fill="#455a64"/>
        <path id="Trazado_145945" data-name="Trazado 145945" d="M612.31,279.884a12.588,12.588,0,0,0,1.426,2.625,7.211,7.211,0,0,0,2.388,2.11,7.8,7.8,0,0,0,3.781.92,8.069,8.069,0,0,0,3.8-.844,6.488,6.488,0,0,0,2.355-2.127,11.784,11.784,0,0,0,1.266-2.717,2.136,2.136,0,0,1-.11.844,7.6,7.6,0,0,1-.895,2.068,6.617,6.617,0,0,1-2.422,2.312,8.2,8.2,0,0,1-3.992.92,8,8,0,0,1-3.975-1,7.258,7.258,0,0,1-2.447-2.287,7.68,7.68,0,0,1-.987-2.017A2.072,2.072,0,0,1,612.31,279.884Z" transform="translate(-578.915 -256.464)" fill="#fff"/>
      </g>
    </g>
  </g>
</svg>
