<svg xmlns="http://www.w3.org/2000/svg" xmlns:xlink="http://www.w3.org/1999/xlink" width="637.5" height="350.368" viewBox="0 0 637.5 350.368">
  <defs>
    <clipPath id="clip-path">
      <circle id="Elipse_4761" data-name="Elipse 4761" cx="87.968" cy="87.968" r="87.968" fill="none"/>
    </clipPath>
  </defs>
  <g id="Grupo_92603" data-name="Grupo 92603" transform="translate(-704 -9241.379)">
    <rect id="Rectángulo_34341" data-name="Rectángulo 34341" width="629.5" height="343" rx="36" transform="translate(712 9248.747)" fill="#8a7cbf"/>
    <rect id="Rectángulo_34342" data-name="Rectángulo 34342" width="629.5" height="343" rx="36" transform="translate(705 9241.379)" fill="#fff"/>
    <rect id="Rectángulo_34343" data-name="Rectángulo 34343" width="40" height="8" transform="translate(704 9446.388) rotate(-90)" fill="#ef6c00"/>
    <g id="Grupo_88598" data-name="Grupo 88598" transform="translate(105.678 8890.236)">
      <g id="freepik--Character--inject-7" transform="translate(744.93 473.975)">
        <path id="Trazado_145990" data-name="Trazado 145990" d="M837.73,468.514A38.655,38.655,0,0,0,837.317,492c1.413,4.688,3.752,9.376,3.038,14.214-.588,3.951-3.149,7.4-3.662,11.364-1.026,8.051,6.625,15.677,4.574,23.528a12.5,12.5,0,0,1-7.339,7.939,22.82,22.82,0,0,1-11,1.388c-5.488-.475-11.427-2.5-13.964-7.5-2.025-3.9-1.388-8.589-.688-12.914,3.1-19.153,6.676-38.443,14.439-56.257" transform="translate(-729.253 -448.055)" fill="#263238"/>
        <path id="Trazado_145991" data-name="Trazado 145991" d="M835.471,526.651a4.188,4.188,0,0,1-.638.213,6.728,6.728,0,0,1-1.938.163,7.408,7.408,0,0,1-2.951-.85,6.65,6.65,0,0,1-2.825-2.888,7.34,7.34,0,0,1-.562-4.876,6.9,6.9,0,0,1,1.175-2.5,10.559,10.559,0,0,1,2.088-2.063,56.837,56.837,0,0,0,5-3.75,9.915,9.915,0,0,0,2.775-5.788,16.668,16.668,0,0,0-.475-6.513,37.519,37.519,0,0,0-2.175-5.776,48.193,48.193,0,0,1-3.75-9.814,14.852,14.852,0,0,1,0-7.076,7.668,7.668,0,0,1,1.025-2.388,15.421,15.421,0,0,0-.886,2.425,15.256,15.256,0,0,0,.1,6.976,48.743,48.743,0,0,0,3.839,9.726A38.143,38.143,0,0,1,837.5,497.7a17.233,17.233,0,0,1,.488,6.676,10.216,10.216,0,0,1-2.9,6,54.239,54.239,0,0,1-5,3.75,7.714,7.714,0,0,0-3.15,4.363,7,7,0,0,0,.488,4.676,6.547,6.547,0,0,0,2.688,2.825,7.507,7.507,0,0,0,2.85.888A8.325,8.325,0,0,0,835.471,526.651Z" transform="translate(-724.556 -446.997)" fill="#263238"/>
        <path id="Trazado_145992" data-name="Trazado 145992" d="M780.247,614.514l-3.125,11.977-32.192-.3s2.363-5.638,20-5.376l1.25-6.251Z" transform="translate(-744.93 -411.531)" fill="#b78876"/>
        <path id="Trazado_145993" data-name="Trazado 145993" d="M868.63,470.874c-.312.613-8.489,42.618-8.489,42.618l19.264.9,7.5-36.117Z" transform="translate(-716.108 -447.465)" fill="#455a64"/>
        <path id="Trazado_145994" data-name="Trazado 145994" d="M860.581,513.472l-2.2-.938,8.339-41.406,2.613-.175Z" transform="translate(-716.549 -447.445)" fill="#263238"/>
        <path id="Trazado_145995" data-name="Trazado 145995" d="M873.123,478.388a1,1,0,1,0,1.121-.861h-.009a.987.987,0,0,0-1.111.846Z" transform="translate(-712.863 -445.803)" fill="#263238"/>
        <path id="Trazado_145996" data-name="Trazado 145996" d="M877.888,505.9l.288-5.5L869.95,497l3.213-7.614a6.639,6.639,0,0,1,8.75-3.4c.166.074.33.154.489.24l3.351,1.813a9.446,9.446,0,0,1,4.688,6.088,123.249,123.249,0,0,1,1.914,13.439" transform="translate(-713.654 -443.825)" fill="#b78876"/>
        <path id="Trazado_145997" data-name="Trazado 145997" d="M895.481,613.794s33.856,9.376,35.217,9.851c2.038.725,1.7,8.189-1.475,8.076-1.5,0-26,.913-29.1.725s-12.439-3.875-12.439-3.875Z" transform="translate(-709.219 -411.711)" fill="#7e57c2"/>
        <path id="Trazado_145998" data-name="Trazado 145998" d="M905.2,625.485a31.968,31.968,0,0,1,1.5-3.638,32.389,32.389,0,0,1,2.388-3.113A7.5,7.5,0,0,0,905.2,625.485Z" transform="translate(-704.836 -410.475)" fill="#263238"/>
        <path id="Trazado_145999" data-name="Trazado 145999" d="M902.381,624.147c.162,0,.513-1.575,1.413-3.338s1.963-3.013,1.838-3.125a6.386,6.386,0,0,0-2.35,2.863A6.561,6.561,0,0,0,902.381,624.147Z" transform="translate(-705.542 -410.738)" fill="#263238"/>
        <path id="Trazado_146000" data-name="Trazado 146000" d="M899.764,623.495a24.473,24.473,0,0,1,.8-3.575,23.933,23.933,0,0,1,1.837-3.175A6.366,6.366,0,0,0,899.764,623.495Z" transform="translate(-706.239 -410.973)" fill="#263238"/>
        <path id="Trazado_146001" data-name="Trazado 146001" d="M900.741,620.217a5.9,5.9,0,0,0,.363-2.5,11.519,11.519,0,0,0-.338-2.75,11.767,11.767,0,0,0-.5-1.575,1.824,1.824,0,0,0-.55-.825.913.913,0,0,0-1.163,0,1.528,1.528,0,0,0-.45.963,5.526,5.526,0,0,0,0,.888,7.1,7.1,0,0,0,.2,1.663,10.042,10.042,0,0,0,1.05,2.588,7.084,7.084,0,0,0,1.513,2.038c.088,0-.488-.838-1.163-2.225a11.838,11.838,0,0,1-.888-2.5,7.89,7.89,0,0,1-.162-1.55c0-.525,0-1.175.313-1.425a.348.348,0,0,1,.45,0,1.53,1.53,0,0,1,.375.6,14.52,14.52,0,0,1,.513,1.488,13.485,13.485,0,0,1,.438,2.65C900.8,619.242,900.654,620.2,900.741,620.217Z" transform="translate(-706.616 -412.07)" fill="#263238"/>
        <path id="Trazado_146002" data-name="Trazado 146002" d="M901.534,618.436a5,5,0,0,0-2.188-.35,9.77,9.77,0,0,0-2.4.3,4.823,4.823,0,0,0-1.388.513,1.422,1.422,0,0,0-.763,1.538,1.687,1.687,0,0,0,1.25,1.25,3.1,3.1,0,0,0,1.513,0,5.766,5.766,0,0,0,2.2-1.088,5.934,5.934,0,0,0,1.575-1.55,14.191,14.191,0,0,0-1.8,1.25,6.108,6.108,0,0,1-2.075.9,2.708,2.708,0,0,1-1.25,0,1.138,1.138,0,0,1-.825-.8.9.9,0,0,1,.513-.95,5.128,5.128,0,0,1,1.25-.475,11.6,11.6,0,0,1,2.275-.4C900.683,618.4,901.521,618.536,901.534,618.436Z" transform="translate(-707.445 -410.64)" fill="#263238"/>
        <path id="Trazado_146003" data-name="Trazado 146003" d="M909.429,625.568a17.177,17.177,0,0,1,.663-3.05,16.539,16.539,0,0,1,1.663-2.65,4.035,4.035,0,0,0-2.188,2.425A3.945,3.945,0,0,0,909.429,625.568Z" transform="translate(-703.851 -410.196)" fill="#263238"/>
        <path id="Trazado_146004" data-name="Trazado 146004" d="M890.47,625.676a7.289,7.289,0,0,0,1.25.613,28.732,28.732,0,0,0,3.751,1.163A52.87,52.87,0,0,0,908.4,628.7c5.076,0,9.65-.275,12.964-.413l3.925-.213a7.183,7.183,0,0,0,1.425-.15,6.836,6.836,0,0,0-1.438-.062h-3.927l-12.951.25a60.426,60.426,0,0,1-12.84-1.05C892.4,626.4,890.508,625.564,890.47,625.676Z" transform="translate(-708.521 -408.741)" fill="#263238"/>
        <path id="Trazado_146005" data-name="Trazado 146005" d="M889.67,626.854a26.8,26.8,0,0,0,2.5-1.138,11.816,11.816,0,0,1,6.4-1.075,10.206,10.206,0,0,1,5.538,3.3,20.905,20.905,0,0,0,1.95,1.988,10.744,10.744,0,0,0-1.65-2.263,13.72,13.72,0,0,0-2.25-2.1,7.9,7.9,0,0,0-3.5-1.475,11.1,11.1,0,0,0-6.663,1.25A9.036,9.036,0,0,0,889.67,626.854Z" transform="translate(-708.721 -409.156)" fill="#263238"/>
        <path id="Trazado_146006" data-name="Trazado 146006" d="M871.961,606.324s-31.993,20.978-33.243,21.84c-1.725,1.25.262,7.5,3.25,6.438,1.413-.513,28.291-7.988,31.179-9.114s10.676-7.5,10.676-7.5Z" transform="translate(-721.628 -413.58)" fill="#7e57c2"/>
        <path id="Trazado_146007" data-name="Trazado 146007" d="M858.741,620.645a6.118,6.118,0,0,0-2.149-3.425,5.949,5.949,0,0,0-3.6-1.825,31.4,31.4,0,0,1,3.225,2.238A35.408,35.408,0,0,1,858.741,620.645Z" transform="translate(-717.897 -411.311)" fill="#263238"/>
        <path id="Trazado_146008" data-name="Trazado 146008" d="M860.872,618.547a8.441,8.441,0,0,0-5-5.163c-.089.138,1.325.988,2.7,2.413S860.721,618.622,860.872,618.547Z" transform="translate(-717.177 -411.813)" fill="#263238"/>
        <path id="Trazado_146009" data-name="Trazado 146009" d="M863.094,617.16a6.353,6.353,0,0,0-4.564-5.626,22.832,22.832,0,0,1,2.713,2.5A23.807,23.807,0,0,1,863.094,617.16Z" transform="translate(-716.511 -412.276)" fill="#263238"/>
        <path id="Trazado_146010" data-name="Trazado 146010" d="M861,614.444c.075,0-.361-.9-.725-2.388a13.122,13.122,0,0,1-.375-2.663,13.782,13.782,0,0,1,0-1.575,1.626,1.626,0,0,1,.175-.675.325.325,0,0,1,.438-.1c.375.15.563.763.738,1.25a7.428,7.428,0,0,1,.313,1.513,10.77,10.77,0,0,1-.088,2.675c-.225,1.513-.524,2.5-.436,2.5a6.854,6.854,0,0,0,.836-2.413,9.945,9.945,0,0,0,.2-2.775,7.857,7.857,0,0,0-.3-1.65,8.317,8.317,0,0,0-.312-.838,1.533,1.533,0,0,0-.725-.775.913.913,0,0,0-1.125.3,1.969,1.969,0,0,0-.262.963,12.125,12.125,0,0,0,0,1.65,11.973,11.973,0,0,0,.513,2.725A5.811,5.811,0,0,0,861,614.444Z" transform="translate(-716.314 -413.549)" fill="#263238"/>
        <path id="Trazado_146011" data-name="Trazado 146011" d="M860.59,612.871c0,.088.8-.3,2.088-.613a11.526,11.526,0,0,1,2.3-.313,4.582,4.582,0,0,1,1.313.088.861.861,0,0,1,.763.75,1.135,1.135,0,0,1-.538,1.013,2.7,2.7,0,0,1-1.25.4,6.15,6.15,0,0,1-2.263-.225,13.6,13.6,0,0,0-2.088-.625,5.8,5.8,0,0,0,1.977,1,5.7,5.7,0,0,0,2.425.362,3.147,3.147,0,0,0,1.449-.45,1.7,1.7,0,0,0,.788-1.525,1.424,1.424,0,0,0-1.25-1.25,5.354,5.354,0,0,0-1.461-.075,10.012,10.012,0,0,0-2.388.45A5,5,0,0,0,860.59,612.871Z" transform="translate(-715.996 -412.313)" fill="#263238"/>
        <path id="Trazado_146012" data-name="Trazado 146012" d="M845.171,629.59a2.114,2.114,0,0,0,.788-1.25,4.759,4.759,0,0,0-.6-3.476,13.251,13.251,0,0,0-1.075-1.6A5.786,5.786,0,0,0,843.2,622.1a1.881,1.881,0,0,0-1.025-.437c-.263,0-.4,0-.4.088a3.039,3.039,0,0,1,1.163.65,7.557,7.557,0,0,1,.925,1.163c.325.487.688,1,1,1.575a4.922,4.922,0,0,1,.7,3.125A12.952,12.952,0,0,1,845.171,629.59Z" transform="translate(-720.704 -409.742)" fill="#263238"/>
        <path id="Trazado_146013" data-name="Trazado 146013" d="M854.48,622.08a4.823,4.823,0,0,0-3.95-4.726,17.317,17.317,0,0,1,2.388,2.013A18.261,18.261,0,0,1,854.48,622.08Z" transform="translate(-718.512 -410.82)" fill="#263238"/>
        <path id="Trazado_146014" data-name="Trazado 146014" d="M880.16,616.584a10.909,10.909,0,0,0-1.4.963,39.9,39.9,0,0,1-3.951,2.425,51.063,51.063,0,0,1-6.251,2.788c-2.425.913-5.151,1.763-8.025,2.6-5.763,1.65-10.978,3.175-14.739,4.3l-4.463,1.375a10.146,10.146,0,0,0-1.6.575,11.28,11.28,0,0,0,1.664-.363l4.5-1.25c3.75-1.025,9.026-2.5,14.8-4.151,2.874-.838,5.613-1.7,8.051-2.65A47.622,47.622,0,0,0,875,620.272a31.416,31.416,0,0,0,3.887-2.588A8.043,8.043,0,0,0,880.16,616.584Z" transform="translate(-721.214 -411.013)" fill="#263238"/>
        <path id="Trazado_146015" data-name="Trazado 146015" d="M875.964,617.118a8.8,8.8,0,0,0-2.713-.725,11.125,11.125,0,0,0-6.726.825,7.934,7.934,0,0,0-2.888,2.5,13.771,13.771,0,0,0-1.5,2.675,10.357,10.357,0,0,0-.888,2.663,20.819,20.819,0,0,0,1.25-2.5,10.141,10.141,0,0,1,4.276-4.826,11.733,11.733,0,0,1,6.426-.925C874.9,616.968,875.952,617.206,875.964,617.118Z" transform="translate(-715.831 -411.109)" fill="#263238"/>
        <path id="Trazado_146016" data-name="Trazado 146016" d="M807.283,507.5l26.253,2.5,10.676,3.025a29.038,29.038,0,0,1,12.152,6.963l34.393,33.017,6.251-51.257,17.19,1.488-2.875,66.009A19.654,19.654,0,0,1,892.57,582.94a20.352,20.352,0,0,1-13.839-5.688l-24.492-23.028-.725,32.9L870.5,600.88l-65.521,36.5s-3.55-13.952-1.938-45.006c.3-5.7-10.15-23-10.951-28.091-3.063-19.565-2.588-48.181-2.588-48.181Z" transform="translate(-733.785 -439.739)" fill="#7e57c2"/>
        <path id="Trazado_146017" data-name="Trazado 146017" d="M798.475,512.734s-13.289,4.938-16.5,15.34c-2.85,9.239-12.364,61.146-12.364,61.146l-9.439,55.007,19.765.75,22.741-93.637Z" transform="translate(-741.117 -436.993)" fill="#7e57c2"/>
        <path id="Trazado_146018" data-name="Trazado 146018" d="M790.1,567.145a4.848,4.848,0,0,0,.4-1.113c.225-.725.526-1.788.876-3.1.713-2.638,1.624-6.251,2.5-10.339s1.65-7.739,2.137-10.426c.239-1.338.425-2.425.538-3.175a4.627,4.627,0,0,0,.112-1.188,5.57,5.57,0,0,0-.337,1.15c-.186.863-.424,1.9-.713,3.138-.611,2.788-1.413,6.388-2.287,10.376l-2.375,10.364c-.275,1.25-.5,2.288-.7,3.15A5.28,5.28,0,0,0,790.1,567.145Z" transform="translate(-733.63 -430.721)" fill="#263238"/>
        <path id="Trazado_146019" data-name="Trazado 146019" d="M886.867,507.9a6.226,6.226,0,0,0,.512-2.588,6.708,6.708,0,0,0,0-2.65,6.275,6.275,0,0,0-.512,2.6A6.641,6.641,0,0,0,886.867,507.9Z" transform="translate(-709.455 -439.512)" fill="#263238"/>
        <path id="Trazado_146020" data-name="Trazado 146020" d="M882.862,508.082a6.784,6.784,0,0,0,.425-2.75,7.294,7.294,0,0,0-.138-2.788,6.842,6.842,0,0,0-.425,2.763A7.257,7.257,0,0,0,882.862,508.082Z" transform="translate(-710.477 -439.542)" fill="#263238"/>
        <path id="Trazado_146021" data-name="Trazado 146021" d="M878.871,507.96a9.175,9.175,0,0,0,.45-3.075,8.346,8.346,0,0,0-.113-3.1,8.679,8.679,0,0,0-.45,3.075A8.4,8.4,0,0,0,878.871,507.96Z" transform="translate(-711.474 -439.732)" fill="#263238"/>
        <path id="Trazado_146022" data-name="Trazado 146022" d="M871.3,550.84a18.444,18.444,0,0,0-.187-4.538,18.04,18.04,0,0,0-.75-4.488,18.521,18.521,0,0,0,.189,4.538A17.6,17.6,0,0,0,871.3,550.84Z" transform="translate(-713.566 -429.718)" fill="#263238"/>
        <path id="Trazado_146023" data-name="Trazado 146023" d="M773.586,613.894a7.072,7.072,0,0,0-.761,2.75,7.383,7.383,0,0,0-.214,2.85,7.057,7.057,0,0,0,.763-2.75A7.386,7.386,0,0,0,773.586,613.894Z" transform="translate(-738.018 -411.686)" fill="#263238"/>
        <path id="Trazado_146024" data-name="Trazado 146024" d="M768.365,613.884a6.36,6.36,0,0,0-.7,2.5,6.212,6.212,0,0,0-.15,2.588,5.916,5.916,0,0,0,.713-2.5A6.338,6.338,0,0,0,768.365,613.884Z" transform="translate(-739.298 -411.688)" fill="#263238"/>
        <path id="Trazado_146025" data-name="Trazado 146025" d="M763.444,613.384a9.27,9.27,0,0,0-.65,2.825,9.611,9.611,0,0,0-.312,2.875,6.263,6.263,0,0,0,.876-2.775A6.587,6.587,0,0,0,763.444,613.384Z" transform="translate(-740.541 -411.813)" fill="#263238"/>
        <path id="Trazado_146026" data-name="Trazado 146026" d="M782.28,517.882c0,.112,1.375,0,3.513.475a16.661,16.661,0,0,1,7.5,3.751,16.866,16.866,0,0,1,4.713,6.976c.738,2.063.838,3.438.938,3.425a2.661,2.661,0,0,0,0-.975,13.833,13.833,0,0,0-.55-2.575,15.948,15.948,0,0,0-4.713-7.276,16.159,16.159,0,0,0-7.839-3.75,13.666,13.666,0,0,0-2.625-.187A3.361,3.361,0,0,0,782.28,517.882Z" transform="translate(-735.586 -435.74)" fill="#263238"/>
        <path id="Trazado_146027" data-name="Trazado 146027" d="M839.364,560.8c-.113,0,.513-1.625,1.138-4.263a37.268,37.268,0,0,0-1.113-20.878c-.9-2.563-1.688-4.063-1.588-4.113s.275.338.65,1a24.6,24.6,0,0,1,1.363,2.95,33.562,33.562,0,0,1,1.126,21.153,22.3,22.3,0,0,1-1.051,3.075A4.44,4.44,0,0,1,839.364,560.8Z" transform="translate(-721.699 -432.288)" fill="#263238"/>
        <path id="Trazado_146028" data-name="Trazado 146028" d="M845.876,571.026a4.567,4.567,0,0,1-1.138.075,27.914,27.914,0,0,1-3.087-.138,52.91,52.91,0,0,1-19.565-5.6c-1.163-.6-2.088-1.125-2.7-1.525a3.882,3.882,0,0,1-.925-.663c0-.088,1.463.688,3.826,1.775A64.673,64.673,0,0,0,841.7,570.5,41.122,41.122,0,0,1,845.876,571.026Z" transform="translate(-726.535 -424.376)" fill="#263238"/>
        <g id="Grupo_88593" data-name="Grupo 88593" transform="translate(90.312 137.5)" opacity="0.2">
          <path id="Trazado_146029" data-name="Trazado 146029" d="M817.195,562.134c2.05,1.85,5.251,2.113,8,2.063s5.5-.6,8.264-.55a10.236,10.236,0,0,1,7.5,2.838,3.744,3.744,0,0,1,1.075,2.263,2.023,2.023,0,0,1-1.25,2.013,3.23,3.23,0,0,1-1.575,0c-7.739-1.6-16.052-3.413-22.041-8.564" transform="translate(-817.17 -562.134)"/>
        </g>
        <g id="Grupo_88594" data-name="Grupo 88594" transform="translate(58.858 109.496)" opacity="0.2">
          <path id="Trazado_146030" data-name="Trazado 146030" d="M798.173,570.188c2.038-.588,2.363-2.975,2.5-5.088a46.066,46.066,0,0,0-4.913-25.366c-.961,5.738-2.562,11.727-3.75,17.577Z" transform="translate(-792.01 -539.734)"/>
        </g>
        <path id="Trazado_146031" data-name="Trazado 146031" d="M800.275,545.2a4.973,4.973,0,0,0-1.675-.75,5.65,5.65,0,0,0-4.613,1.325c-1.675,1.25-2.6,3.75-3.113,6.576s-.825,6.1-2.938,8.889a6.891,6.891,0,0,1-4.238,2.5,34.282,34.282,0,0,1-4.513.325,9.725,9.725,0,0,0-6.688,2.75,10.285,10.285,0,0,0-2.65,4.226c-.35,1.15-.387,1.825-.463,1.813a1.682,1.682,0,0,1,0-.488,6.14,6.14,0,0,1,.225-1.388,10.193,10.193,0,0,1,5.5-6.576,11.123,11.123,0,0,1,4.038-.938,35.911,35.911,0,0,0,4.426-.35,6.257,6.257,0,0,0,3.851-2.325,11.817,11.817,0,0,0,1.95-4.226c.4-1.475.613-2.963.913-4.375.55-2.8,1.55-5.438,3.413-6.813a5.809,5.809,0,0,1,5-1.25,3.488,3.488,0,0,1,1.25.638C800.175,545.058,800.288,545.171,800.275,545.2Z" transform="translate(-738.817 -429.174)" fill="#fafafa"/>
        <path id="Trazado_146032" data-name="Trazado 146032" d="M866.88,526.278a8.456,8.456,0,0,1-1.638,2.5,12.427,12.427,0,0,1-7.215,3.863,11.816,11.816,0,0,1-5.713-.45,18.771,18.771,0,0,1-5.576-3.475A31.348,31.348,0,0,0,841,524.553a9.252,9.252,0,0,0-3.526-.975,11.043,11.043,0,0,0-3.75.475,25.364,25.364,0,0,0-6.738,3.488,41.047,41.047,0,0,1-6.251,3.75,15.914,15.914,0,0,1-6.426,1.375,18.4,18.4,0,0,1-5.651-.938,17.045,17.045,0,0,1-6.926-4.438,13.874,13.874,0,0,1-1.375-1.763,3.21,3.21,0,0,1-.388-.675c.063,0,.613.888,1.95,2.263a17.341,17.341,0,0,0,6.876,4.176,16.356,16.356,0,0,0,11.7-.538,44.456,44.456,0,0,0,6.088-3.75,25.093,25.093,0,0,1,6.9-3.588,11.062,11.062,0,0,1,3.975-.488,9.774,9.774,0,0,1,3.75,1.038,31.92,31.92,0,0,1,5.851,4.276,18.311,18.311,0,0,0,5.376,3.425,11.425,11.425,0,0,0,5.463.513,12.506,12.506,0,0,0,7.088-3.588A19.7,19.7,0,0,0,866.88,526.278Z" transform="translate(-731.161 -434.447)" fill="#fafafa"/>
        <path id="Trazado_146033" data-name="Trazado 146033" d="M888.348,571.007a17.478,17.478,0,0,1-.513-2.3,29.292,29.292,0,0,0-1.725-6.1,13.918,13.918,0,0,0-2.363-3.651,9.171,9.171,0,0,0-4.088-2.7,16.96,16.96,0,0,0-5.488-.55,22.811,22.811,0,0,1-6.113-.438,13.5,13.5,0,0,1-5.338-3.063,48.083,48.083,0,0,1-3.963-4.051c-2.4-2.638-5-4.763-7.564-5.388a7.609,7.609,0,0,0-6.038.913,7.347,7.347,0,0,0-1.625,1.65,3.18,3.18,0,0,1,.263-.55,5.231,5.231,0,0,1,1.25-1.25,7.764,7.764,0,0,1,6.251-1.15c2.775.613,5.438,2.8,7.889,5.426,1.25,1.25,2.5,2.713,3.951,3.976a12.863,12.863,0,0,0,5.088,2.925c3.926.988,8.026-.187,11.614,1.038a9.736,9.736,0,0,1,4.3,2.913,13.76,13.76,0,0,1,2.375,3.838,25.6,25.6,0,0,1,1.625,6.251c.112.75.188,1.338.225,1.738A1.851,1.851,0,0,1,888.348,571.007Z" transform="translate(-720.264 -429.632)" fill="#fafafa"/>
        <path id="Trazado_146034" data-name="Trazado 146034" d="M851.577,551.058a2.438,2.438,0,0,1-.638.1,8.241,8.241,0,0,1-1.849-.062,23.351,23.351,0,0,1-6.4-2.313,26.7,26.7,0,0,0-4.314-1.675,11.494,11.494,0,0,0-5.2-.175c-3.662.713-7.226,3.063-10.351,6.026s-5.863,6.251-8.9,8.539a19.92,19.92,0,0,1-9.2,4.126,18.926,18.926,0,0,1-6.8-.1,13.916,13.916,0,0,1-1.8-.463,2.508,2.508,0,0,1-.6-.238c0-.062.875.213,2.438.45a19.9,19.9,0,0,0,15.59-4.251c2.963-2.313,5.651-5.5,8.826-8.539s6.851-5.426,10.688-6.138a12.007,12.007,0,0,1,5.451.238,25.793,25.793,0,0,1,4.376,1.788,25.446,25.446,0,0,0,6.251,2.5A24.108,24.108,0,0,0,851.577,551.058Z" transform="translate(-732.274 -428.636)" fill="#fafafa"/>
        <path id="Trazado_146035" data-name="Trazado 146035" d="M832.033,567.739a8.155,8.155,0,0,0-2.5,1.025c-1.25.9-1.45,2.175-1.638,2.138s-.137-.35,0-.888a3.593,3.593,0,0,1,1.25-1.763,3.445,3.445,0,0,1,2.013-.738C831.732,567.514,832.045,567.652,832.033,567.739Z" transform="translate(-724.206 -423.288)" fill="#fafafa"/>
        <path id="Trazado_146036" data-name="Trazado 146036" d="M840.646,563.614a7.776,7.776,0,0,1-1.6,3.75,7.9,7.9,0,0,1-2.875,2.938,36.268,36.268,0,0,1,2.338-3.3A39.677,39.677,0,0,1,840.646,563.614Z" transform="translate(-722.105 -424.264)" fill="#fafafa"/>
        <path id="Trazado_146037" data-name="Trazado 146037" d="M806.048,577.919c-.062.175-1.413-.2-3.1-.2s-3.026.338-3.088.15a4.537,4.537,0,0,1,3.1-.8A4.618,4.618,0,0,1,806.048,577.919Z" transform="translate(-731.188 -420.905)" fill="#fafafa"/>
        <path id="Trazado_146038" data-name="Trazado 146038" d="M776.11,531.155a4.743,4.743,0,0,0,.813.3,3.754,3.754,0,0,0,2.275-.2,6.245,6.245,0,0,0,2.625-2.188,31.735,31.735,0,0,1,2.788-3.463,14.8,14.8,0,0,1,7.089-3.888,13.817,13.817,0,0,1,2.439-.313c.588,0,.9,0,.9.088s-1.25.125-3.225.675a15.715,15.715,0,0,0-6.738,3.9,33.523,33.523,0,0,0-2.775,3.388,6.63,6.63,0,0,1-2.95,2.238,3.747,3.747,0,0,1-2.5,0C776.285,531.443,776.085,531.168,776.11,531.155Z" transform="translate(-737.13 -434.824)" fill="#fafafa"/>
        <path id="Trazado_146039" data-name="Trazado 146039" d="M832.259,509.514a4.86,4.86,0,0,1-1.413,1.638,11.821,11.821,0,0,1-4.651,2.413,11.658,11.658,0,0,1-5.238.175A4.63,4.63,0,0,1,818.92,513a15.04,15.04,0,0,1,2.088.263,14.18,14.18,0,0,0,5-.35,14.015,14.015,0,0,0,4.526-2.138A15.318,15.318,0,0,1,832.259,509.514Z" transform="translate(-726.42 -437.798)" fill="#fafafa"/>
        <path id="Trazado_146040" data-name="Trazado 146040" d="M790.08,584.04c0,.063-.525,0-1.438.25a9.338,9.338,0,0,0-3.5,1.7,14.406,14.406,0,0,0-3.75,4.426c-1.125,1.913-2.052,4.188-3.238,6.5a17.438,17.438,0,0,1-4.451,5.851,8.226,8.226,0,0,1-5.676,1.925,6.256,6.256,0,0,1-3.75-1.4,3.7,3.7,0,0,1-.75-.813c-.138-.213-.2-.325-.176-.338a9.216,9.216,0,0,0,1.088.963,6.434,6.434,0,0,0,3.651,1.138,7.97,7.97,0,0,0,5.289-1.938,17.647,17.647,0,0,0,4.251-5.688c1.161-2.275,2.125-4.563,3.3-6.5a14.339,14.339,0,0,1,3.975-4.5,8.733,8.733,0,0,1,3.751-1.575,5.219,5.219,0,0,1,1.1,0C789.9,584,790.08,584.015,790.08,584.04Z" transform="translate(-740.323 -419.162)" fill="#fafafa"/>
        <g id="Grupo_88595" data-name="Grupo 88595" transform="translate(153.87 112.309)" opacity="0.3">
          <path id="Trazado_146041" data-name="Trazado 146041" d="M870.573,542.247a11.256,11.256,0,0,0-2.25,9.789c.137.563.388,1.175.938,1.338a1.25,1.25,0,0,0,1.25-.475,3.29,3.29,0,0,0,.525-1.25,20,20,0,0,0-.175-9.664" transform="translate(-868.009 -541.984)"/>
        </g>
        <path id="Trazado_146042" data-name="Trazado 146042" d="M893.1,519.084a18.215,18.215,0,0,0-3.15,3.75,29.886,29.886,0,0,0-2.275,4.863c-.713,1.888-1.413,4.038-2.413,6.251a15.9,15.9,0,0,1-3.888,5.476,10,10,0,0,1-5,2.275,6.83,6.83,0,0,1-3.675-.475,5.031,5.031,0,0,1-.863-.513c-.188-.138-.274-.225-.263-.238s.425.225,1.25.513a7.029,7.029,0,0,0,3.513.25,9.687,9.687,0,0,0,4.688-2.263,15.778,15.778,0,0,0,3.751-5.3c.975-2.113,1.688-4.238,2.5-6.151a27.382,27.382,0,0,1,2.5-4.888,13.078,13.078,0,0,1,2.413-2.788A3.869,3.869,0,0,1,893.1,519.084Z" transform="translate(-713.249 -435.404)" fill="#fafafa"/>
        <path id="Trazado_146043" data-name="Trazado 146043" d="M893.292,507.975a7.876,7.876,0,0,1-2.2,1.925,18.132,18.132,0,0,1-13.539,2.675,7.981,7.981,0,0,1-2.763-.938c0-.113,1.088.225,2.838.475a20.281,20.281,0,0,0,13.227-2.613C892.417,508.65,893.292,507.888,893.292,507.975Z" transform="translate(-712.444 -438.185)" fill="#fafafa"/>
        <path id="Trazado_146044" data-name="Trazado 146044" d="M921.514,624.958s-78.56-51.569-81.773-52.644-10.989-6.163-18.753-4.026-14.74,9.126-18.227,19.3-3.75,32.979-3.75,32.979,6.163,17.965,18.227,21.715a30.488,30.488,0,0,0,3.138.788,37.107,37.107,0,0,0,37.943-16.39l1.763-2.675s51.394,18.878,52.194,18.615Z" transform="translate(-731.401 -423.225)" fill="#263238"/>
        <path id="Trazado_146045" data-name="Trazado 146045" d="M935.973,565.775a15.326,15.326,0,0,1,9.65,14.2c.075,20.64-41.706,43.443-41.706,43.443l-55.606-36.855v-3.9S919.919,556.924,935.973,565.775Z" transform="translate(-719.068 -424.187)" fill="#263238"/>
        <path id="Trazado_146046" data-name="Trazado 146046" d="M819.25,610.044l.438.2,1.25.513,5,1.913,18.515,6.976c7.864,2.925,17.277,6.413,27.843,10.264s22.278,8.064,34.792,12.289l.225.075.113-.213,6.138-11.714,3.125-5.976.124-.238-.225-.138L856.68,585.954l-18-11.352-4.888-3.05-1.25-.788-.438-.25.413.3,1.25.825,4.838,3.138,17.9,11.5,59.833,38.193-.1-.363-3.125,5.976-6.176,11.689.338-.138c-12.5-4.226-24.216-8.426-34.792-12.239L844.591,619.27l-18.565-6.8-5-1.825-1.25-.463Z" transform="translate(-726.338 -422.538)" fill="#455a64"/>
        <path id="Trazado_146047" data-name="Trazado 146047" d="M870.84,602.69a11.582,11.582,0,0,0,1.45-.988c.913-.65,2.213-1.638,3.75-2.863,3.188-2.5,7.5-5.951,12.177-10s8.751-7.764,11.677-10.539c1.463-1.388,2.625-2.5,3.413-3.325a9.087,9.087,0,0,0,1.25-1.25,11.26,11.26,0,0,0-1.338,1.125l-3.538,3.188c-2.975,2.7-7.113,6.4-11.764,10.389s-8.939,7.5-12.064,10.076l-3.75,3A10.8,10.8,0,0,0,870.84,602.69Z" transform="translate(-713.432 -421.735)" fill="#455a64"/>
        <path id="Trazado_146048" data-name="Trazado 146048" d="M907.906,571.6a10.928,10.928,0,0,0-5.363.488,10.787,10.787,0,0,0-4.763,2.5c.087.15,2.113-1.15,4.926-1.963S907.906,571.776,907.906,571.6Z" transform="translate(-706.692 -422.3)" fill="#455a64"/>
        <path id="Trazado_146049" data-name="Trazado 146049" d="M903.041,568.974a8.479,8.479,0,0,0-5,6.251,38.48,38.48,0,0,1,2.175-3.4C901.615,570.112,903.142,569.112,903.041,568.974Z" transform="translate(-706.627 -422.923)" fill="#455a64"/>
        <path id="Trazado_146050" data-name="Trazado 146050" d="M921.5,621.265c0-.063-.663-.2-1.438.438a5.183,5.183,0,0,0-1.6,3.225,6.357,6.357,0,0,0,.5,3.563,3.3,3.3,0,0,0,.875,1.25c.05,0-.225-.525-.5-1.35a7.1,7.1,0,0,1-.313-3.338,5.573,5.573,0,0,1,1.313-3.013A3.646,3.646,0,0,1,921.5,621.265Z" transform="translate(-701.535 -409.856)" fill="#263238"/>
        <path id="Trazado_146051" data-name="Trazado 146051" d="M797.574,474.543a7.9,7.9,0,0,0-11.173.141c-.113.116-.223.235-.329.359a13.468,13.468,0,0,0-2.65,6.976,33.559,33.559,0,0,1-1.463,7.4,7.588,7.588,0,0,1-5.251,5c-1.875.35-4.1-.225-5.538,1.025a3.6,3.6,0,0,0-.325,4.476,8.359,8.359,0,0,0,3.851,2.888c.588.263,1.25.638,1.25,1.25,0,.838-1.075,1.138-1.85,1.463-2.325.988-3,4.3-1.7,6.476a7.505,7.505,0,0,0,6.488,3.238,21.928,21.928,0,0,0,7.351-1.688,2.853,2.853,0,0,0-.075,3.625,3.929,3.929,0,0,0,3.551,1.325,6.4,6.4,0,0,0,3.45-1.788,12.412,12.412,0,0,0,3.388-6.813,40.637,40.637,0,0,0,.45-7.714,206.983,206.983,0,0,1,1.963-27.5" transform="translate(-738.604 -447.108)" fill="#263238"/>
        <path id="Trazado_146052" data-name="Trazado 146052" d="M817.314,459.9a19.014,19.014,0,0,1,18.127,18.977c0,7.864-.113,16.415-.613,21.49-1.163,11.8-10,13.814-10,13.814s.275,7.338.675,14.289c.375,6.626-5,12.5-12.152,13.027h0c-7.012.563-13.027-4.238-13.5-10.8l-2.375-50.919A19.014,19.014,0,0,1,815.586,459.9q.876-.041,1.754,0Z" transform="translate(-731.79 -450.215)" fill="#b78876"/>
        <path id="Trazado_146053" data-name="Trazado 146053" d="M826.291,479.438a1.5,1.5,0,0,1-1.336,1.646l-.039,0a1.425,1.425,0,0,1-1.618-1.2l-.008-.049a1.5,1.5,0,0,1,1.363-1.6,1.426,1.426,0,0,1,1.635,1.179Z" transform="translate(-725.328 -445.627)" fill="#263238"/>
        <path id="Trazado_146054" data-name="Trazado 146054" d="M826.853,477.615c-.175.213-1.363-.563-2.975-.463s-2.738.975-2.925.788.075-.438.563-.85a4.235,4.235,0,0,1,2.338-.875,4.126,4.126,0,0,1,2.388.613C826.765,477.19,826.94,477.528,826.853,477.615Z" transform="translate(-725.927 -446.13)" fill="#263238"/>
        <path id="Trazado_146055" data-name="Trazado 146055" d="M812.846,480.157a1.512,1.512,0,0,1-1.35,1.6,1.438,1.438,0,0,1-1.621-1.226l0-.024a1.5,1.5,0,0,1,1.349-1.6,1.437,1.437,0,0,1,1.623,1.225Z" transform="translate(-728.685 -445.458)" fill="#263238"/>
        <path id="Trazado_146056" data-name="Trazado 146056" d="M813.413,478.886c-.175.213-1.35-.563-2.963-.463s-2.75.975-2.938.788.075-.45.575-.85a4.062,4.062,0,0,1,2.325-.875,3.99,3.99,0,0,1,2.388.613C813.313,478.448,813.5,478.773,813.413,478.886Z" transform="translate(-729.289 -445.812)" fill="#263238"/>
        <path id="Trazado_146057" data-name="Trazado 146057" d="M817.787,490.593a10.275,10.275,0,0,1,2.588-.638c.413-.063.789-.163.85-.45a2.171,2.171,0,0,0-.35-1.25l-1.4-3.063a53.78,53.78,0,0,1-3.224-8.039,55.443,55.443,0,0,1,3.863,7.764c.475,1.075.924,2.1,1.349,3.088a2.352,2.352,0,0,1,.313,1.6,1.074,1.074,0,0,1-.649.65,3.236,3.236,0,0,1-.687.138A11.5,11.5,0,0,1,817.787,490.593Z" transform="translate(-727.088 -445.893)" fill="#263238"/>
        <path id="Trazado_146058" data-name="Trazado 146058" d="M822.555,504.027a32.016,32.016,0,0,1-15.965-3.513s4.363,8.4,16.115,6.876Z" transform="translate(-729.505 -440.05)" fill="#995037"/>
        <path id="Trazado_146059" data-name="Trazado 146059" d="M807.975,475.383c.188.288,1.363-.2,2.825-.525s2.738-.4,2.789-.738-1.325-.825-3.05-.438S807.775,475.133,807.975,475.383Z" transform="translate(-729.164 -446.798)" fill="#263238"/>
        <path id="Trazado_146060" data-name="Trazado 146060" d="M820.751,472.874c.075.325,1.4.288,2.988.313s2.913.088,3-.238-1.25-.963-2.988-.975S820.663,472.562,820.751,472.874Z" transform="translate(-725.963 -447.189)" fill="#263238"/>
        <path id="Trazado_146061" data-name="Trazado 146061" d="M804.856,526.515c-.113-2.425,2.6-12.952,3.688-19.415s-3.149-7.5-3.824-11.327a13.138,13.138,0,0,1,1.25-7.438c6.176,2.213,8.614-2.188,11.988-4.788,3.576-2.775,4.363-6.176,5.827-10.464s3.175-6.951,7.687-7.376a13.4,13.4,0,0,1,6,6.888c1.375,4.013,2.5,19.665,2.5,19.665.625-7.5,6.713-10.651,5.063-21.7-.713-4.763-4.663-11.252-10.764-12.227-1.775-.288-5.126-.5-5.126-.5-3.638-3.275-5.413-3.175-8.9-4.726-7.5-3.338-16.577,2.625-21.565,9.164-3.85,5-5.713,11.839-6.763,18.24a53.1,53.1,0,0,0-.288,13.427c.25,2.663-.075,6.038-2.7,8.089-3.75,2.913-4.726,8.464-2.138,15.865s-6.951,20-6.951,20a58.827,58.827,0,0,1,8.5-5.763C792.179,530.116,804.856,526.515,804.856,526.515Z" transform="translate(-736.197 -452.149)" fill="#263238"/>
        <path id="Trazado_146062" data-name="Trazado 146062" d="M816.708,491.14a2.423,2.423,0,0,0-2.225-.738,2.262,2.262,0,0,0-1.463.938,1.413,1.413,0,0,0,0,1.6,1.639,1.639,0,0,0,1.788.313,5.327,5.327,0,0,0,1.638-1.15,1.416,1.416,0,0,0,.35-.425.45.45,0,0,0,0-.5" transform="translate(-727.958 -442.589)" fill="#995037"/>
        <path id="Trazado_146063" data-name="Trazado 146063" d="M813.122,489.344c.212,0,.325,1.425,1.65,2.363s2.85.663,2.875.863-.325.313-.975.375a3.605,3.605,0,0,1-2.4-.638,3.193,3.193,0,0,1-1.25-1.988C812.884,489.719,813.022,489.344,813.122,489.344Z" transform="translate(-727.91 -442.844)" fill="#263238"/>
        <path id="Trazado_146064" data-name="Trazado 146064" d="M772.322,490.314a11.989,11.989,0,0,0,.125,1.625,5.884,5.884,0,0,0,.613,1.788,4.13,4.13,0,0,0,1.75,1.7,3.428,3.428,0,0,0,2.875.137,3.648,3.648,0,0,0,1.925-2.65,14.4,14.4,0,0,0,.2-3.863c0-1.35-.125-2.763-.125-4.213a16.867,16.867,0,0,1,1.575-8.014,7.978,7.978,0,0,1,5-4.3,6.355,6.355,0,0,1,4.451.35,3.949,3.949,0,0,1,1.25,1,10.437,10.437,0,0,0-1.375-.863,6.371,6.371,0,0,0-4.326-.213,7.75,7.75,0,0,0-4.738,4.2,16.784,16.784,0,0,0-1.5,7.826c0,1.45.075,2.85.125,4.213a14.739,14.739,0,0,1-.238,3.963,4,4,0,0,1-2.15,2.863,3.751,3.751,0,0,1-3.125-.188,4.3,4.3,0,0,1-1.813-1.85,5.6,5.6,0,0,1-.575-1.863A5.011,5.011,0,0,1,772.322,490.314Z" transform="translate(-738.105 -447.114)" fill="#263238"/>
        <path id="Trazado_146065" data-name="Trazado 146065" d="M786.408,518.985a3.131,3.131,0,0,1-.625-.588,4.943,4.943,0,0,1-.913-2.313,6.8,6.8,0,0,1,.675-3.876,14.908,14.908,0,0,1,3.25-4.088,27.562,27.562,0,0,0,4.251-4.6,10.79,10.79,0,0,0,1.488-6.876,72.675,72.675,0,0,1-.6-7.989,10.532,10.532,0,0,1,.975-4.176,7.5,7.5,0,0,1,3.05-3.175c2.625-1.488,5.563-1.9,7.964-3.225a12.975,12.975,0,0,0,5.151-5.813c1.15-2.263,1.975-4.563,3.038-6.576a14.2,14.2,0,0,1,3.938-5,7.684,7.684,0,0,1,4.913-1.675,6.11,6.11,0,0,1,3.638,1.463,4.548,4.548,0,0,1,1.4,2.05,2.238,2.238,0,0,1,.15.625v.225a2.162,2.162,0,0,0-.25-.825,4.553,4.553,0,0,0-1.425-1.963,6.044,6.044,0,0,0-3.55-1.363,7.5,7.5,0,0,0-4.726,1.688,13.819,13.819,0,0,0-3.826,4.876c-1.038,2-1.85,4.288-3.013,6.588a13.3,13.3,0,0,1-5.288,5.988c-2.5,1.375-5.413,1.775-7.939,3.225a7.014,7.014,0,0,0-2.9,3.013,10.431,10.431,0,0,0-.95,4.013,73.851,73.851,0,0,0,.588,7.951,11.134,11.134,0,0,1-1.525,7.051,27.691,27.691,0,0,1-4.338,4.626,14.863,14.863,0,0,0-3.238,3.988,6.768,6.768,0,0,0-.725,3.75A4.843,4.843,0,0,0,786.408,518.985Z" transform="translate(-734.951 -450.432)" fill="#455a64"/>
        <path id="Trazado_146066" data-name="Trazado 146066" d="M788.706,480.025a6,6,0,0,1,1.488-7.1,27.455,27.455,0,0,0-1.25,3.438A25.087,25.087,0,0,0,788.706,480.025Z" transform="translate(-734.123 -446.952)" fill="#fafafa"/>
        <path id="Trazado_146067" data-name="Trazado 146067" d="M791.893,510.628a27.9,27.9,0,0,0,3.65,18.077,14.228,14.228,0,0,0,4.463,4.926,7.379,7.379,0,0,0,6.415.913,5,5,0,0,0,3.312-5.238c-.5-3.125-4.351-5.088-4.376-8.264,1.4.85,3.3,1.663,4.526.575a2.774,2.774,0,0,0,.463-3.075,11.863,11.863,0,0,0-1.9-2.713,17.014,17.014,0,0,1-3.4-12.939c.188-1.25.526-5.176.55-6.451s-.349,0-1.25-.838a3.959,3.959,0,0,0-3.574-.663,7.589,7.589,0,0,0-3.163,1.988,14.635,14.635,0,0,0-4.351,11.1" transform="translate(-733.247 -441.487)" fill="#263238"/>
      </g>
      <g id="Grupo_88597" data-name="Grupo 88597" transform="translate(907.277 364.903)">
        <g id="Grupo_88596" data-name="Grupo 88596" clip-path="url(#clip-path)">
          <path id="Trazado_146081" data-name="Trazado 146081" d="M87.968,0A87.968,87.968,0,1,1,0,87.968,87.968,87.968,0,0,1,87.968,0Z" fill="#fcecdf"/>
          <g id="Group_88587" data-name="Group 88587" transform="translate(-2.437 42.964)">
            <g id="Group_87483" data-name="Group 87483" transform="translate(69.693)">
              <g id="Group_87476" data-name="Group 87476" transform="translate(0 98.219)">
                <path id="Trazado_146068" data-name="Trazado 146068" d="M970,513.041c.57-8.5-1.374-18.271-3.679-22.762a58.945,58.945,0,0,0-8.526-12.444c-6.147,4.494-9.816,7.756-12.873,13.869-1.915,3.831-10.148,13.881-16.332,21.337Z" transform="translate(-928.588 -477.835)" fill="#0f0140"/>
                <path id="Trazado_146069" data-name="Trazado 146069" d="M963.218,507.138a49.3,49.3,0,0,0,.036-5.707l-7.587,5.707Z" transform="translate(-921.814 -471.932)" fill="#170c62"/>
                <path id="Trazado_146070" data-name="Trazado 146070" d="M955.047,507.451a11.577,11.577,0,0,0-.386-3.674c-1.269-4.211-2.894-3.559-2.894-3.559v7.233Z" transform="translate(-922.789 -472.245)" fill="#170c62"/>
              </g>
              <g id="Group_87477" data-name="Group 87477" transform="translate(25.698 55.336)">
                <path id="Trazado_146071" data-name="Trazado 146071" d="M1042.933,516.73c1.571-11.328,8.116-26.227,8.116-26.227-6.317-8.012-8.49-8.831-15.013-12.635s-31.248-13.451-36.342-14.673-25.643,8.355-32.386,11.409-15.322,6.065-16.783,9.045c-3.585,7.306.656,16.855,3.2,33.082Z" transform="translate(-949.144 -438.641)" fill="#0f0140"/>
                <line id="Line_151" data-name="Line 151" x1="1.664" y1="11.514" transform="translate(0 49.111)" fill="none" stroke="#170c62" stroke-miterlimit="10" stroke-width="1"/>
                <path id="Path_101397" data-name="Path 101397" d="M976.068,483.947c-3-1.121-10.108.829-11.409,1.28s.764-5.1,1.528-5.79,1.987-2.289,4.329-1.568a9.1,9.1,0,0,1,4.654,4.292A12.62,12.62,0,0,0,976.068,483.947Z" transform="translate(-945.368 -434.989)" fill="#170c62"/>
                <path id="Path_101398" data-name="Path 101398" d="M998.02,488.258c-1.07-.051-7.31-2.922-8.8-3.634s-8.265-1.045-12.81.224c0,0,8.751-5.913,13.847-5.862s7.031,1.885,7.44,3.515A33.724,33.724,0,0,1,998.02,488.258Z" transform="translate(-942.324 -434.664)" fill="#170c62"/>
                <path id="Trazado_146072" data-name="Trazado 146072" d="M1028.33,509.124c.229-1.624.514-3.239.885-4.837a55.873,55.873,0,0,0-14.159-10.794l-4.024,2.243-3.44,6.921s.509,2.632,1.146,6.467Z" transform="translate(-934.523 -431.035)" fill="#170c62"/>
                <path id="Path_101400" data-name="Path 101400" d="M978.124,489.475c5.471-.661,14.266-5.4,17.731-3.771s4.279,5.808,4.992,6.521,3.77-2.853,3.77-11.615.269-17.737-6.183-18.956-23.166,5.1-26.527,7.645a15.888,15.888,0,0,0-5.706,7.607c-.917,2.48-3.362,12.467-2.242,12.568s4.279-6.418,6.623-6.618S976.644,489.653,978.124,489.475Z" transform="translate(-945.51 -439.038)" fill="#0f0140"/>
                <path id="Path_101401" data-name="Path 101401" d="M973.317,480.257c-1.393-3.309-2.923-6.216-2.874-8.509s.56-3.872,3.108-4.586,3.617.663,3.769,4.127S973.317,480.257,973.317,480.257Z" transform="translate(-943.816 -437.667)" fill="#170c62"/>
                <path id="Path_101402" data-name="Path 101402" d="M988.721,475.321c5.327-4.832,5.928-10.233,5.428-11.354s-2.7-1.935-2.7-1.935-.866,3.515-.356,4.382S988.721,475.321,988.721,475.321Z" transform="translate(-939.243 -438.905)" fill="#170c62"/>
                <path id="Path_101403" data-name="Path 101403" d="M981.938,483.949c3.257-1.233,8.7-2.613,10.458-.761a14.376,14.376,0,0,1,3.033,4.192c.849,1.661,1.164,3.21,3.135-.9s1.485-12.264,1.485-12.264" transform="translate(-940.94 -435.858)" fill="none" stroke="#170c62" stroke-miterlimit="10" stroke-width="1"/>
                <path id="Path_101404" data-name="Path 101404" d="M973.974,481.036s-2.649-3.019-3.717-2.382a10.74,10.74,0,0,0-4.026,4.158c-1.672,2.7-3.671,4.021-1.949-2.77" transform="translate(-945.522 -434.769)" fill="none" stroke="#170c62" stroke-miterlimit="10" stroke-width="1"/>
                <path id="Path_101405" data-name="Path 101405" d="M972.146,466.219c.012,2.153.1,4.3.321,6.445.55,5.253.011,12.183.426,13.463.463,1.426,3.215,6.521,3.215,6.521s4.891-2.24,6.928-4.687,4.687-2.569,8.254-6.176,5.991-9.334,5.2-14.1c-.1-.61-.728-6.715-.866-13.033s-6.777-11.116-13.093-11.116-10.1,9.375-10.3,15.692C972.149,461.814,972.134,464.248,972.146,466.219Z" transform="translate(-943.391 -443.533)" fill="#ffa497"/>
                <path id="Path_101406" data-name="Path 101406" d="M995.621,454.3c.138,6.317.764,12.42.866,13.032a12.94,12.94,0,0,1-.126,4.607c-1.394.261-19.391.693-24.052-1.48-.106-1.528-.155-3.057-.164-4.589-.011-1.97,0-4.4.088-7a23.778,23.778,0,0,1,2.105-8.734l14.8-5.244C992.77,446.838,995.533,450.256,995.621,454.3Z" transform="translate(-943.391 -443.191)" fill="#f45763"/>
              </g>
              <g id="Group_87479" data-name="Group 87479" transform="translate(23.656)">
                <path id="Path_101407" data-name="Path 101407" d="M965.906,431.379c-9.56,0-13.137,7.343-13.137,12.847,0,4.938,1.583,12.847,13.137,12.847,5.778,0,9.688-5.753,9.688-12.847S971.687,431.379,965.906,431.379Z" transform="translate(-946.194 -391.237)" fill="#524786"/>
                <path id="Path_101408" data-name="Path 101408" d="M964.927,433.9c-7.218,0-9.92,5.544-9.92,9.7,0,3.729,1.2,9.7,9.92,9.7,4.362,0,7.316-4.343,7.316-9.7S969.289,433.9,964.927,433.9Z" transform="translate(-945.635 -390.607)" fill="#38295c"/>
                <path id="Path_101409" data-name="Path 101409" d="M953.716,440.757c.565,3.35,2.222,4.631,2.96,9.145s-1.234,11.076,1.711,16.792,7.708,13.229,10.459,13.547,24.792-3.405,32.224-18.192c2.134-4.244,6.695-20.889,2.792-31.053s-10.253-19.478-24.93-19.759S950.723,423,953.716,440.757Z" transform="translate(-946.062 -396.277)" fill="#ffa497"/>
                <path id="Path_101410" data-name="Path 101410" d="M963.766,449.971a2.583,2.583,0,0,0,2.031-.794,2.083,2.083,0,0,0,.38-1.6,4.72,4.72,0,0,1-3.967.861C962.036,449.5,962.848,449.952,963.766,449.971Z" transform="translate(-943.838 -387.185)" fill="#f45763"/>
                <path id="Path_101411" data-name="Path 101411" d="M993.4,443.75a9.831,9.831,0,0,0-2.887-5.494,43.055,43.055,0,0,0-9.949-2.753,57.023,57.023,0,0,1-8.784-1.694s1.376,3.484,3.7,4.971c0,0-10.371-.523-13.653-3.594,0,0,.635,2.53,1.27,4.228,0,0-5.079-.523-6.667-2.534a34.328,34.328,0,0,0-1.27,6.871s-6.1-8.352-4.551-14.984,3.669-9.172,3.669-9.172a33.69,33.69,0,0,1-6.773,0s5.644-4.938,9.879-8.186,16.933-3.387,16.933-3.387a19.584,19.584,0,0,1,.141-8.75s5.432,7.974,11.183,10.408,4.976,2.227,11.073,3.767,11.893,5.441,14.327,8.722,5.081,6.667,6.668,7.2c0,0-3.811-.53-5.716-2.118,0,0,3.177,7.216-1.023,16.5s-14.718,6.537-16.757,4.488A3.99,3.99,0,0,1,993.4,443.75Z" transform="translate(-947.51 -399.27)" fill="#d16452"/>
                <path id="Path_101412" data-name="Path 101412" d="M985.8,445.828a3.992,3.992,0,0,1-.816-4.488,9.932,9.932,0,0,0-2.048-4.583,61.9,61.9,0,0,0-1.806-27.84,32.122,32.122,0,0,0,4.818,1.521,52.234,52.234,0,0,1,6.372,13.826c1.845,6.147,2.739,12.787,1.016,18.969a20.645,20.645,0,0,1-1.9,4.579A10.116,10.116,0,0,1,985.8,445.828Z" transform="translate(-939.099 -396.857)" fill="#994234"/>
                <path id="Path_101413" data-name="Path 101413" d="M989.46,438.222s.725-23.212-11.445-30.62a15.874,15.874,0,0,1,14.817,8.361c5.4,9.419,5.033,17.5,4.9,22.025S989.46,438.222,989.46,438.222Z" transform="translate(-939.879 -397.191)" fill="#524786"/>
                <path id="Path_101414" data-name="Path 101414" d="M992.074,431.379c9.56,0,13.137,7.343,13.137,12.847,0,4.938-1.583,12.847-13.137,12.847-5.777,0-9.687-5.753-9.687-12.847S986.3,431.379,992.074,431.379Z" transform="translate(-938.785 -391.237)" fill="#524786"/>
                <path id="Path_101415" data-name="Path 101415" d="M986.014,443.94c0-6.3,4.158-11.409,9.286-11.409s9,5.106,9,11.409-3.875,11.409-9,11.409S986.014,450.238,986.014,443.94Z" transform="translate(-937.878 -390.949)" fill="#38295c"/>
                <ellipse id="Ellipse_4754" data-name="Ellipse 4754" cx="6.319" cy="7.761" rx="6.319" ry="7.761" transform="translate(52.329 45.229)" fill="#524786"/>
                <g id="Group_87478" data-name="Group 87478" transform="translate(17.317 65.838)">
                  <path id="Path_101416" data-name="Path 101416" d="M973.1,451.933c-2.583,1.421-11.023,1.9-11.6,1.816s.6,6.328,2.672,6.566,6.2-.316,7.925-1.975S973.1,451.933,973.1,451.933Z" transform="translate(-961.362 -451.933)" fill="#f45763"/>
                  <path id="Path_101417" data-name="Path 101417" d="M972.436,453.72c-.159-.566-.283-1.024-.4-1.468-2.842.97-8.436,1.381-10.161,1.423a11.924,11.924,0,0,0,.736,2.577c.055-.036-.014.081.041.046A12.572,12.572,0,0,0,972.436,453.72Z" transform="translate(-961.235 -451.853)" fill="#fff"/>
                </g>
                <path id="Path_101418" data-name="Path 101418" d="M969.844,440.106c0-1.169.576-2.118,1.288-2.118s1.289.949,1.289,2.118-.576,2.117-1.289,2.117S969.844,441.275,969.844,440.106Z" transform="translate(-941.923 -389.584)" fill="#471052"/>
                <path id="Path_101419" data-name="Path 101419" d="M958.058,440.895c0-1.169.5-2.117,1.108-2.117s1.106.948,1.106,2.117-.5,2.118-1.106,2.118S958.058,442.063,958.058,440.895Z" transform="translate(-944.871 -389.386)" fill="#471052"/>
                <path id="Path_101420" data-name="Path 101420" d="M977.9,433.4a13.5,13.5,0,0,0-5.816-1.55,7.475,7.475,0,0,0-3.09.3,5.678,5.678,0,0,0-2.555,1.786l.076.126c1.061-.115,1.94-.375,2.868-.5.906-.136,1.785-.468,2.733-.544a16.381,16.381,0,0,1,5.726.511Z" transform="translate(-942.774 -391.131)" fill="#471052"/>
                <path id="Path_101421" data-name="Path 101421" d="M955.094,435.643a5.757,5.757,0,0,1,1.424-.349,11.935,11.935,0,0,1,1.433-.094,6.29,6.29,0,0,0,1.421.05,4.257,4.257,0,0,0,.721-.2,2.953,2.953,0,0,0,.769-.384l.016-.146a2.777,2.777,0,0,0-1.511-.738,3.585,3.585,0,0,0-1.578.254,7.36,7.36,0,0,0-1.5.559,4.871,4.871,0,0,0-1.288.928Z" transform="translate(-945.635 -390.638)" fill="#471052"/>
              </g>
              <g id="Group_87482" data-name="Group 87482" transform="translate(97.977 104.565)">
                <path id="Trazado_146073" data-name="Trazado 146073" d="M1010.288,511.771h37.3c-4.364-9.928-7.191-22.817-11-26.229-3.87-3.465-13.247-2.854-17.322-1.835s-13.247,13.447-12.227,18.749A41.853,41.853,0,0,0,1010.288,511.771Z" transform="translate(-1006.959 -482.911)" fill="#0f0140"/>
                <path id="Path_101433" data-name="Path 101433" d="M1032.043,483.518a33.979,33.979,0,0,0-13.093.175c-6.307,1.563-10.746,12.432-10.746,12.432" transform="translate(-1006.648 -482.897)" fill="none" stroke="#170c62" stroke-miterlimit="10" stroke-width="1"/>
                <path id="Trazado_146074" data-name="Trazado 146074" d="M1041.077,510.324c-3.187-7.246-5.554-16.063-8.082-21.629,2.223,6.091,4.553,13.951,6.616,21.629Z" transform="translate(-1000.446 -481.464)" fill="#170c62"/>
              </g>
            </g>
            <g id="Group_87498" data-name="Group 87498" transform="translate(0 63.817)">
              <g id="Group_87497" data-name="Group 87497">
                <g id="Group_87495" data-name="Group 87495">
                  <path id="Trazado_146075" data-name="Trazado 146075" d="M872.841,519.925h93.987L943.37,454.78a6.749,6.749,0,0,0-6.35-4.463h-64.18Z" transform="translate(-872.841 -450.317)" fill="#524786"/>
                  <path id="Trazado_146076" data-name="Trazado 146076" d="M872.841,519.044h88L938.964,458.3a6.749,6.749,0,0,0-6.348-4.463H872.841Z" transform="translate(-872.841 -449.436)" fill="#38295c"/>
                  <path id="Trazado_146077" data-name="Trazado 146077" d="M877.335,478.849a6.428,6.428,0,0,0-4.494-5.068V484.2a4.553,4.553,0,0,0,4.494-5.348Z" transform="translate(-872.841 -444.447)" fill="#524786"/>
                </g>
                <g id="Group_87496" data-name="Group 87496" transform="translate(0 67.071)">
                  <path id="Trazado_146078" data-name="Trazado 146078" d="M872.841,506.432H893.6l-.411-2.18h-20.35Z" transform="translate(-872.841 -503.896)" fill="#38295c"/>
                  <path id="Trazado_146079" data-name="Trazado 146079" d="M872.841,504.252v2.18h19.675c.431-1.389.676-2.18.676-2.18Z" transform="translate(-872.841 -503.896)" fill="#524786"/>
                  <path id="Trazado_146080" data-name="Trazado 146080" d="M882.88,504.15c-1.674-.059-3.348-.07-5.021-.108s-3.345-.074-5.018-.075v.708c1.673,0,3.345-.05,5.018-.076s3.347-.049,5.021-.108,3.348-.091,5.022-.167C886.228,504.247,884.554,504.208,882.88,504.15Z" transform="translate(-872.841 -503.967)" fill="#8375d4"/>
                </g>
              </g>
            </g>
          </g>
        </g>
      </g>
    </g>
  </g>
</svg>
