<svg xmlns="http://www.w3.org/2000/svg" xmlns:xlink="http://www.w3.org/1999/xlink" width="187.947" height="130.879" viewBox="0 0 187.947 130.879">
  <defs>
    <linearGradient id="linear-gradient" x1="0.522" y1="0.166" x2="0.49" y2="1.391" gradientUnits="objectBoundingBox">
      <stop offset="0" stop-color="#ffbc53"/>
      <stop offset="0.08" stop-color="#f8c15d"/>
      <stop offset="0.226" stop-color="#f2c769"/>
      <stop offset="0.431" stop-color="#eecb70"/>
      <stop offset="1" stop-color="#edcc72"/>
    </linearGradient>
    <linearGradient id="linear-gradient-2" x1="0.522" y1="0.167" x2="0.49" y2="1.39" xlink:href="#linear-gradient"/>
  </defs>
  <g id="Grupo_91690" data-name="Grupo 91690" transform="translate(-7091.225 -648.453)">
    <path id="Trazado_147296" data-name="Trazado 147296" d="M7811.184,1213.028h5.717a2.98,2.98,0,0,1,2.98,2.981v2.067a2.981,2.981,0,0,0,2.981,2.981h16.3a2.981,2.981,0,0,0,2.98-2.981v-3.71a2.981,2.981,0,0,0-2.98-2.981h-5.17a2.981,2.981,0,0,1-2.98-2.981v-.06a2.981,2.981,0,0,1,2.98-2.981h.859a2.981,2.981,0,0,0,2.981-2.981v-3.527a2.981,2.981,0,0,0-2.981-2.981h-16a2.98,2.98,0,0,0-2.979,2.981v1.7a2.981,2.981,0,0,1-2.981,2.981h-1.7a2.98,2.98,0,0,0-2.98,2.981v3.527A2.98,2.98,0,0,0,7811.184,1213.028Z" transform="translate(-586.146 -447.53)" fill="#b9beed"/>
    <g id="Grupo_91673" data-name="Grupo 91673" transform="translate(7109.833 729.025)">
      <rect id="Rectángulo_34364" data-name="Rectángulo 34364" width="11.679" height="20.072" transform="translate(20.802 10.401)" fill="#5169d1"/>
      <path id="Trazado_147297" data-name="Trazado 147297" d="M7373.343,1098H7360.2v29.239a1.6,1.6,0,0,0,1.6,1.6h11.54Z" transform="translate(-7329.731 -1096.54)" fill="#b9beed"/>
      <rect id="Rectángulo_34365" data-name="Rectángulo 34365" width="16.97" height="7.299" rx="3.65" transform="translate(28.466 0)" fill="#5169d1"/>
      <path id="Trazado_147298" data-name="Trazado 147298" d="M7246.2,1098h13.139v29.239a1.6,1.6,0,0,1-1.6,1.6H7246.2Z" transform="translate(-7236.532 -1096.54)" fill="#b9beed"/>
      <path id="Rectángulo_34366" data-name="Rectángulo 34366" d="M3.65,0h9.671A3.649,3.649,0,0,1,16.97,3.649v0a3.65,3.65,0,0,1-3.65,3.65H3.65A3.65,3.65,0,0,1,0,3.65v0A3.65,3.65,0,0,1,3.65,0Z" transform="translate(7.847 0)" fill="#5169d1"/>
      <path id="Rectángulo_34367" data-name="Rectángulo 34367" d="M2.828,0h0A2.828,2.828,0,0,1,5.657,2.828v11.5a2.828,2.828,0,0,1-2.828,2.828h0A2.828,2.828,0,0,1,0,14.324V2.828A2.828,2.828,0,0,1,2.828,0Z" transform="translate(23.904 11.861)" fill="#b9beed"/>
      <path id="Trazado_147299" data-name="Trazado 147299" d="M7214.043,1192.041l-2.634-4.151.171-19.89h-11.966a1.921,1.921,0,0,0-1.921,1.856l-.634,18.034-1.81,4.014-.046,6.387h1.492l-.032.912h13.275l.119-.912H7214Z" transform="translate(-7194.838 -1153.767)" fill="#b9beed"/>
      <path id="Trazado_147300" data-name="Trazado 147300" d="M7379.578,1192.041l2.635-4.151-.171-19.89h11.965a1.924,1.924,0,0,1,1.923,1.856l.632,18.034,1.812,4.014.045,6.387h-1.491l.032.912h-13.277l-.118-.912h-3.941Z" transform="translate(-7345.569 -1153.767)" fill="#b9beed"/>
      <rect id="Rectángulo_34368" data-name="Rectángulo 34368" width="19.708" height="3.467" rx="1.734" transform="translate(0 43.794)" fill="#5169d1"/>
      <rect id="Rectángulo_34369" data-name="Rectángulo 34369" width="19.708" height="3.467" rx="1.734" transform="translate(33.576 43.794)" fill="#5169d1"/>
      <rect id="Rectángulo_34370" data-name="Rectángulo 34370" width="7.213" height="3.832" rx="1.916" transform="translate(23.126 29.744)" fill="#b9beed"/>
      <rect id="Rectángulo_34371" data-name="Rectángulo 34371" width="5.582" height="2.965" rx="1.483" transform="translate(23.942 8.348)" fill="#b9beed"/>
      <rect id="Rectángulo_34372" data-name="Rectángulo 34372" width="1.095" height="11.314" rx="0.547" transform="translate(18.156 8.211)" fill="#f7fbfd"/>
      <rect id="Rectángulo_34373" data-name="Rectángulo 34373" width="1.095" height="8.211" rx="0.547" transform="translate(15.237 9.854)" fill="#f7fbfd"/>
      <rect id="Rectángulo_34374" data-name="Rectángulo 34374" width="1.095" height="11.314" rx="0.547" transform="translate(33.576 8.211)" fill="#f7fbfd"/>
      <rect id="Rectángulo_34375" data-name="Rectángulo 34375" width="1.095" height="8.211" rx="0.547" transform="translate(36.495 9.854)" fill="#f7fbfd"/>
    </g>
    <g id="Grupo_91675" data-name="Grupo 91675" transform="translate(7128.744 706.893)">
      <path id="Trazado_147301" data-name="Trazado 147301" d="M7367.645,1018.007h-2.6a4.593,4.593,0,0,0,.369-2.007h1.976A4.37,4.37,0,0,0,7367.645,1018.007Z" transform="translate(-7352.594 -1007.372)" fill="url(#linear-gradient)"/>
      <path id="Trazado_147302" data-name="Trazado 147302" d="M7361.774,990.634l-.772.534a1.061,1.061,0,0,1-1.228,0l-.771-.534a3.035,3.035,0,0,1-1.246-2.5v-3.2h5.262v3.2A3.036,3.036,0,0,1,7361.774,990.634Z" transform="translate(-7346.64 -981.971)" fill="#edcc72"/>
      <path id="Trazado_147303" data-name="Trazado 147303" d="M7327.768,1033.965c-.742-.853-3.224-6.282-4.137-6.923a9.766,9.766,0,0,0-1.975-.749,3.721,3.721,0,0,0-1.413-.293h-1.508a3.5,3.5,0,0,0-1.493.332,8.671,8.671,0,0,0-1.847.69c-.912.641-3.394,6.08-4.135,6.933-.664.763-2.517,2.116-3.222,2.863l.937.45a12.706,12.706,0,0,0,2.575-1.344c.64-.512,1.125-.9,1.7-1.44a39.348,39.348,0,0,0,2.465-3.477l.39,2.783-.188,5.114,7.055,0,.224-5.074.295-2.834a18.631,18.631,0,0,0,2.285,3.487c.575.538,1.062.928,1.7,1.44a12.75,12.75,0,0,0,2.573,1.345l.938-.448C7330.285,1036.077,7328.431,1034.728,7327.768,1033.965Z" transform="translate(-7305.994 -1015.547)" fill="#1e47b1"/>
      <path id="Trazado_147304" data-name="Trazado 147304" d="M7371.418,1138.587a8.336,8.336,0,0,0-.6,2.417c-.011.82-.047,1.676.851,1.879,1.555.353,1.307-3.125,1.194-4.2Z" transform="translate(-7357.314 -1107.59)" fill="#0c110b"/>
      <path id="Trazado_147305" data-name="Trazado 147305" d="M7360.43,1138.587a8.3,8.3,0,0,1,.6,2.417c.011.82.048,1.676-.85,1.879-1.556.353-1.308-3.125-1.2-4.2Z" transform="translate(-7347.573 -1107.59)" fill="#0c110b"/>
      <g id="Grupo_91674" data-name="Grupo 91674" transform="translate(10.106 0)">
        <path id="Trazado_147306" data-name="Trazado 147306" d="M7357.019,978.421c-.839.159-1.71.28-2.055,1.31-.279.833.315,1.972-.361,2.641.361.064,1.563-1.074,1.631-1.8l-.023-.125a3.073,3.073,0,0,0,1.788.985,9.617,9.617,0,0,0,1.588-.106c.559-.025.847.343,1.244.708a6.317,6.317,0,0,1,.064-1.321,1.42,1.42,0,0,0-.2-1.337c-.494-.775-2.327-1.24-3.139-1.24Z" transform="translate(-7354.167 -976.414)" fill="#2e1a14"/>
        <circle id="Elipse_4771" data-name="Elipse 4771" cx="1.696" cy="1.696" r="1.696" fill="#2e1a14"/>
      </g>
      <path id="Trazado_147307" data-name="Trazado 147307" d="M7429.309,1085.228c.476,0,.957-.023,1.431,0,.209.01.56-.018.718.131a.456.456,0,0,1-.033.671c-.313.269-1.068.2-1.455.162-.361-.034-1.424.032-1.375-.528Z" transform="translate(-7404.55 -1063.959)" fill="#edcc72"/>
      <path id="Trazado_147308" data-name="Trazado 147308" d="M7299.115,1085.228c-.475,0-.955-.023-1.43,0-.209.01-.559-.018-.717.131a.457.457,0,0,0,.032.671c.314.269,1.069.2,1.455.162.362-.034,1.423.032,1.376-.528Z" transform="translate(-7296.835 -1063.959)" fill="#edcc72"/>
      <path id="Trazado_147309" data-name="Trazado 147309" d="M7356.587,1085.015H7351.5c-.794.671-1.174.169-1.236-.538a5.153,5.153,0,0,1,.078-2.149h7.215a3.852,3.852,0,0,1-.031,2.038C7357.444,1085.061,7357.2,1085.686,7356.587,1085.015Z" transform="translate(-7340.449 -1061.596)" fill="#f48067"/>
      <path id="Trazado_147310" data-name="Trazado 147310" d="M7373.207,1089.437s-.206-9.692.024-10.352c.324-.934,2.92-.58,3.058.192.451,2.533-1.49,10.275-1.49,10.275C7374.745,1090.021,7373.228,1089.91,7373.207,1089.437Z" transform="translate(-7359.201 -1058.487)" fill="#f48067"/>
      <path id="Trazado_147311" data-name="Trazado 147311" d="M7352.847,1088.965s.03-9.773-.209-10.443c-.338-.948-2.894-.636-3.017.141-.4,2.548,1.656,10.39,1.656,10.39C7351.338,1089.529,7352.833,1089.443,7352.847,1088.965Z" transform="translate(-7339.946 -1058.006)" fill="#f48067"/>
    </g>
    <g id="Grupo_91677" data-name="Grupo 91677" transform="translate(7217.716 703.323)">
      <path id="Trazado_147312" data-name="Trazado 147312" d="M7913.566,1128.743l-.043.022a2.409,2.409,0,0,1-3.227-1.091l-4.732-9.562,4.363-2.158,4.73,9.562A2.408,2.408,0,0,1,7913.566,1128.743Z" transform="translate(-7883.457 -1085.517)" fill="#b9beed"/>
      <circle id="Elipse_4772" data-name="Elipse 4772" cx="17.334" cy="17.334" r="17.334" fill="#f48067"/>
      <circle id="Elipse_4773" data-name="Elipse 4773" cx="14.369" cy="14.369" r="14.369" transform="translate(2.387 3.567) rotate(-2.354)" fill="#e3e9ff"/>
      <path id="Trazado_147313" data-name="Trazado 147313" d="M7942.6,1190.306l-.1.048a5.418,5.418,0,0,1-7.259-2.454l-11.66-23.565a2.42,2.42,0,0,1-.241-1.281l.476-5.359,4.175-2.065,4.535,2.882a2.412,2.412,0,0,1,.868.965l11.66,23.568A5.419,5.419,0,0,1,7942.6,1190.306Z" transform="translate(-7897.983 -1117.953)" fill="#f591b5"/>
      <path id="Trazado_147314" data-name="Trazado 147314" d="M7852.1,987.769a7.791,7.791,0,0,1-2.718,5.936,3.771,3.771,0,0,0-1.3,2.872v2h-7.665v-2a3.773,3.773,0,0,0-1.285-2.884,7.831,7.831,0,0,1,5.239-13.734,8.32,8.32,0,0,1,.978.071A7.823,7.823,0,0,1,7852.1,987.769Z" transform="translate(-7826.953 -974.331)" fill="#e5bd5a"/>
      <path id="Trazado_147315" data-name="Trazado 147315" d="M7869.662,988.091a7.792,7.792,0,0,1-2.719,5.936,3.77,3.77,0,0,0-1.305,2.872v1.63h-3.649v-2.1a3.838,3.838,0,0,0-1.348-2.885,6.8,6.8,0,1,1,9.022-5.459Z" transform="translate(-7844.508 -974.653)" fill="#edcc72"/>
      <rect id="Rectángulo_34376" data-name="Rectángulo 34376" width="9.997" height="2.552" rx="1.276" transform="translate(12.331 24.058)" fill="#2b2b72"/>
      <path id="Trazado_147316" data-name="Trazado 147316" d="M7862.688,1096.907h-7.247a.962.962,0,0,1-.912-1v-.543a.962.962,0,0,1,.912-1.005h7.247a.962.962,0,0,1,.911,1.005v.543A.962.962,0,0,1,7862.688,1096.907Z" transform="translate(-7841.736 -1067.859)" fill="#2b2b72"/>
      <g id="Grupo_91676" data-name="Grupo 91676" transform="translate(14.701 12.157)">
        <path id="Trazado_147317" data-name="Trazado 147317" d="M7865.27,1016.011c-.934,2.024.525,4.66,2.07,5.987.444.381,1.092-.261.645-.645-1.178-1.014-2.67-3.273-1.927-4.881.246-.531-.542-.994-.788-.461Z" transform="translate(-7864.976 -1015.775)" fill="#f7fbfd"/>
      </g>
    </g>
    <g id="Grupo_91680" data-name="Grupo 91680" transform="translate(7162.934 689.975)">
      <rect id="Rectángulo_34377" data-name="Rectángulo 34377" width="54.743" height="77.37" rx="21.419" transform="translate(0 8.941)" fill="#1e47b1"/>
      <rect id="Rectángulo_34378" data-name="Rectángulo 34378" width="45.254" height="63.502" transform="translate(4.744 15.875)" fill="#f7fbfd"/>
      <path id="Trazado_147318" data-name="Trazado 147318" d="M7581.594,914.146H7555.28a1.076,1.076,0,0,1-1.076-1.077V902.394A3.394,3.394,0,0,1,7557.6,899h21.679a3.4,3.4,0,0,1,3.394,3.394v10.675A1.076,1.076,0,0,1,7581.594,914.146Z" transform="translate(-7541.431 -894.803)" fill="#2b2b72"/>
      <path id="Trazado_147319" data-name="Trazado 147319" d="M7617.915,884.211H7609.7v-4.27a3.942,3.942,0,0,1,3.941-3.942h.33a3.941,3.941,0,0,1,3.941,3.942Z" transform="translate(-7586.803 -876)" fill="#2b2b72"/>
      <circle id="Elipse_4774" data-name="Elipse 4774" cx="2.053" cy="2.053" r="2.053" transform="translate(24.954 2.053)" fill="#f7fbfd"/>
      <g id="Grupo_91678" data-name="Grupo 91678" transform="translate(8.211 24.634)">
        <rect id="Rectángulo_34379" data-name="Rectángulo 34379" width="21.897" height="12.956" transform="translate(16.423 33.211)" fill="#e3e9ff"/>
        <rect id="Rectángulo_34380" data-name="Rectángulo 34380" width="21.897" height="12.956" transform="translate(0 18.795)" fill="#e3e9ff"/>
        <rect id="Rectángulo_34381" data-name="Rectángulo 34381" width="13.503" height="12.956" transform="translate(24.087 18.795)" fill="#e3e9ff"/>
        <rect id="Rectángulo_34382" data-name="Rectángulo 34382" width="21.897" height="12.956" transform="translate(15.693)" fill="#e3e9ff"/>
        <rect id="Rectángulo_34383" data-name="Rectángulo 34383" width="13.503" height="12.956" fill="#e3e9ff"/>
      </g>
      <g id="Grupo_91679" data-name="Grupo 91679" transform="translate(7.664 36.191)">
        <path id="Trazado_147320" data-name="Trazado 147320" d="M7536.711,1086.123l.768-1.9a.562.562,0,0,1,.146-.209l4.563-4.136s-.348-1.163,1.252-1.277a6.924,6.924,0,0,1,1.948,0l-.981-1.227a9.616,9.616,0,0,1,2.984-.3l.014-2.736s2.346.956,2.5,2.615c2.944.574,4.885,3.27,6.13,5.78a8.68,8.68,0,0,1-1.185,9.173c-1.618,1.81-4.562,3.344-4.711,6.051-.124,2.26,1.466,4.236,3.123,5.779l-14.954,0a10.561,10.561,0,0,1-.611-7.668,10.362,10.362,0,0,1,4.626-5.917,23.181,23.181,0,0,0,3.808-2.2c.824-.727,2.115-2.98.877-3.9-1.114,2.865-5.1,2.011-5.1,2.011a4.155,4.155,0,0,0-1.5,1.531.565.565,0,0,1-.262.208l-1.082.423c-1.15.438-2.077-1.109-2.331-1.639A.57.57,0,0,1,7536.711,1086.123Z" transform="translate(-7534.76 -1074.331)" fill="#e5bd5a"/>
        <path id="Trazado_147321" data-name="Trazado 147321" d="M7536.242,1236.267h17.422c.283,0,.513-.375.513-.837v-.017c0-.462-.23-.837-.513-.837h-17.422c-.283,0-.512.375-.512.837v.017C7535.729,1235.892,7535.958,1236.267,7536.242,1236.267Z" transform="translate(-7533.992 -1205.335)" fill="#e5bd5a"/>
        <rect id="Rectángulo_34384" data-name="Rectángulo 34384" width="15.146" height="2.92" transform="translate(3.467 30.778)" fill="#e5bd5a"/>
        <rect id="Rectángulo_34385" data-name="Rectángulo 34385" height="0.186" transform="translate(10.967 34.504)" fill="#e5bd5a"/>
        <path id="Trazado_147322" data-name="Trazado 147322" d="M7534.3,1258.214h18.968v-.03a3,3,0,0,0-3.035-2.961h-12.9a3,3,0,0,0-3.036,2.961Z" transform="translate(-7532.824 -1222.215)" fill="#e5bd5a"/>
        <rect id="Rectángulo_34386" data-name="Rectángulo 34386" width="22.08" height="1.642" transform="translate(0 35.888)" fill="#e5bd5a"/>
      </g>
      <path id="Trazado_147323" data-name="Trazado 147323" d="M7617.956,998.432l-2.763,1.148a.693.693,0,0,1-.785-.189c-.1-.114-.213-.214-.32-.323a.7.7,0,0,1-.146-.75l1.138-2.755a.49.49,0,0,0-.267-.641l-2.142-.884a.493.493,0,0,0-.642.267l-1.151,2.791a.709.709,0,0,1-.744.421,1.237,1.237,0,0,0-.141,0,1.024,1.024,0,0,1-.956-.628l-1.07-2.575a.492.492,0,0,0-.643-.265l-2.14.889a.492.492,0,0,0-.265.642l1.159,2.787a.7.7,0,0,1-.16.765c-.11.105-.209.2-.311.315a.7.7,0,0,1-.778.175l-2.771-1.144a.491.491,0,0,0-.641.266l-.885,2.142a.492.492,0,0,0,.267.641l2.514,1.058a.983.983,0,0,1,.583.952v.014a.983.983,0,0,1-.58.95l-2.545,1.068a.487.487,0,0,0-.252.642l.9,2.14a.5.5,0,0,0,.646.265l2.744-1.14a.7.7,0,0,1,.761.151c.108.109.213.223.328.326a.7.7,0,0,1,.182.782l-1.136,2.75a.49.49,0,0,0,.267.641l2.142.884a.49.49,0,0,0,.64-.267l1.125-2.725a.7.7,0,0,1,.67-.428c.155.006.31.007.464,0a.7.7,0,0,1,.673.426l1.131,2.722a.492.492,0,0,0,.642.265l2.14-.889a.492.492,0,0,0,.265-.642l-1.129-2.715a.7.7,0,0,1,.177-.781c.11-.1.216-.208.32-.319a.693.693,0,0,1,.772-.17l2.738,1.13a.492.492,0,0,0,.642-.266l.883-2.142a.491.491,0,0,0-.267-.641l-2.738-1.13a.694.694,0,0,1-.428-.662c0-.161,0-.324,0-.483a.693.693,0,0,1,.427-.674l2.73-1.135a.493.493,0,0,0,.265-.642l-.89-2.139A.491.491,0,0,0,7617.956,998.432Zm-5.33,8.388a4.21,4.21,0,1,1,.682-5.914A4.21,4.21,0,0,1,7612.626,1006.819Z" transform="translate(-7579.262 -972.468)" fill="#b9beed"/>
      <path id="Trazado_147324" data-name="Trazado 147324" d="M7683.859,1082.53l-1.862.774a.467.467,0,0,1-.529-.127c-.068-.077-.145-.144-.217-.218a.469.469,0,0,1-.1-.506l.767-1.857a.331.331,0,0,0-.179-.432l-1.444-.6a.331.331,0,0,0-.432.18l-.776,1.881a.478.478,0,0,1-.5.284.807.807,0,0,0-.094,0,.693.693,0,0,1-.646-.423l-.721-1.735a.33.33,0,0,0-.432-.179l-1.442.6a.331.331,0,0,0-.179.433l.78,1.878a.468.468,0,0,1-.107.516c-.074.071-.141.137-.211.212a.467.467,0,0,1-.523.118l-1.867-.771a.331.331,0,0,0-.432.18l-.6,1.443a.331.331,0,0,0,.18.432l1.635.713a.619.619,0,0,1,.333.642v.009a.618.618,0,0,1-.331.64l-1.685.719a.321.321,0,0,0-.155.433l.611,1.442a.337.337,0,0,0,.438.179l1.852-.768a.471.471,0,0,1,.515.1c.072.073.144.15.221.22a.468.468,0,0,1,.122.527l-.766,1.854a.332.332,0,0,0,.18.432l1.443.6a.33.33,0,0,0,.432-.179l.758-1.837a.469.469,0,0,1,.451-.288c.105,0,.208,0,.313,0a.469.469,0,0,1,.454.287l.763,1.834a.33.33,0,0,0,.432.179l1.442-.6a.332.332,0,0,0,.179-.433l-.76-1.83a.469.469,0,0,1,.119-.526c.074-.068.146-.14.215-.215a.469.469,0,0,1,.521-.115l1.845.762a.332.332,0,0,0,.433-.18l.6-1.443a.332.332,0,0,0-.18-.432l-1.846-.762a.47.47,0,0,1-.289-.446c0-.109,0-.218,0-.326a.464.464,0,0,1,.287-.454l1.839-.765a.331.331,0,0,0,.179-.433l-.6-1.442A.331.331,0,0,0,7683.859,1082.53Zm-3.593,5.652a2.837,2.837,0,1,1,.459-3.986A2.837,2.837,0,0,1,7680.266,1088.182Z" transform="translate(-7637.783 -1042.401)" fill="#5169d1"/>
    </g>
    <rect id="Rectángulo_34387" data-name="Rectángulo 34387" width="187.947" height="3.102" rx="1.551" transform="translate(7091.225 776.229)" fill="#b9beed"/>
    <g id="Grupo_91681" data-name="Grupo 91681" transform="translate(7155.625 659.775)">
      <circle id="Elipse_4775" data-name="Elipse 4775" cx="7.691" cy="7.691" r="7.691" transform="translate(3.549 2.958)" fill="#b9beed"/>
      <circle id="Elipse_4776" data-name="Elipse 4776" cx="5.99" cy="5.99" r="5.99" transform="translate(11.725 16.803) rotate(-76.717)" fill="#b9beed"/>
      <circle id="Elipse_4777" data-name="Elipse 4777" cx="7.691" cy="7.691" r="7.691" transform="translate(34.09 2.958)" fill="#b9beed"/>
      <circle id="Elipse_4778" data-name="Elipse 4778" cx="5.99" cy="5.99" r="5.99" transform="translate(25.619 12.349) rotate(-45)" fill="#b9beed"/>
      <circle id="Elipse_4779" data-name="Elipse 4779" cx="4.665" cy="4.665" r="4.665" transform="translate(22.252 9.009)" fill="#b9beed"/>
      <circle id="Elipse_4780" data-name="Elipse 4780" cx="7.691" cy="7.691" r="7.691" transform="translate(0 0)" fill="#f7fbfd"/>
      <circle id="Elipse_4781" data-name="Elipse 4781" cx="5.99" cy="5.99" r="5.99" transform="translate(9.391 3.402)" fill="#f7fbfd"/>
      <circle id="Elipse_4782" data-name="Elipse 4782" cx="7.691" cy="7.691" r="7.691" transform="translate(30.541)" fill="#f7fbfd"/>
      <circle id="Elipse_4783" data-name="Elipse 4783" cx="5.99" cy="5.99" r="5.99" transform="translate(24.551 3.402)" fill="#f7fbfd"/>
      <circle id="Elipse_4784" data-name="Elipse 4784" cx="4.665" cy="4.665" r="4.665" transform="translate(16.77 10.716) rotate(-45)" fill="#f7fbfd"/>
    </g>
    <g id="Grupo_91684" data-name="Grupo 91684" transform="translate(7170.916 648.453)">
      <path id="Trazado_147325" data-name="Trazado 147325" d="M7603.019,718.128c.356.6.718,1.191,1.028,1.8.131.256.3.551.106.82-.206.288-.814.441-1.17.615Z" transform="translate(-7589.29 -705.414)" fill="#5169d1"/>
      <path id="Trazado_147326" data-name="Trazado 147326" d="M7531.168,718.128c-.357.6-.718,1.191-1.029,1.8-.131.256-.3.551-.106.82.2.288.814.441,1.17.615Z" transform="translate(-7529.58 -705.414)" fill="#5169d1"/>
      <path id="Trazado_147327" data-name="Trazado 147327" d="M7565.06,687.825h-2.284A3.919,3.919,0,0,0,7563.1,686h1.732A4.058,4.058,0,0,0,7565.06,687.825Z" transform="translate(-7556.419 -679.148)" fill="url(#linear-gradient-2)"/>
      <path id="Trazado_147328" data-name="Trazado 147328" d="M7559.916,664.5l-.677.468a.93.93,0,0,1-1.076,0l-.676-.468a2.659,2.659,0,0,1-1.092-2.194v-2.8h4.612v2.8A2.662,2.662,0,0,1,7559.916,664.5Z" transform="translate(-7551.203 -657.484)" fill="#edcc72"/>
      <path id="Trazado_147329" data-name="Trazado 147329" d="M7548.352,703.542h-10.809l-.63-4.291a6.822,6.822,0,0,1,2.508-4.745,16.159,16.159,0,0,1,2.422-1.206.88.88,0,0,1,.32-.059h1.644a.883.883,0,0,1,.308.055,12.594,12.594,0,0,1,2.366,1.212,6.129,6.129,0,0,1,2.155,4.573Z" transform="translate(-7535.275 -685.068)" fill="#5169d1"/>
      <path id="Trazado_147330" data-name="Trazado 147330" d="M7531.773,758.132c-.232,0-.466,0-.7,0a3.46,3.46,0,0,0-.766.17,6.109,6.109,0,0,0-1.495.486c-.444.247-.958.681-.868,1.251s.881.548,1.311.4c.524-.184,1.054-.282,1.563-.508.229-.1.554-.182.781-.286.452-.206.3-.241.551-.221Z" transform="translate(-7527.938 -738.117)" fill="#0c110b"/>
      <path id="Trazado_147331" data-name="Trazado 147331" d="M7593.752,758.132c.231,0,.465,0,.7,0a3.458,3.458,0,0,1,.765.17,6.1,6.1,0,0,1,1.5.486c.443.247.956.681.866,1.251s-.881.548-1.311.4c-.522-.184-1.054-.282-1.563-.508-.228-.1-.554-.182-.78-.286-.453-.206-.3-.241-.551-.221Z" transform="translate(-7581.431 -738.117)" fill="#0c110b"/>
      <g id="Grupo_91683" data-name="Grupo 91683" transform="translate(4.592 0)">
        <g id="Grupo_91682" data-name="Grupo 91682">
          <path id="Trazado_147332" data-name="Trazado 147332" d="M7553.789,653.587a2.812,2.812,0,0,1-.032-.532c0-.1-.006-.207,0-.309.005-.085-.017-.787.009-1.061a1.4,1.4,0,0,1,.325-.824.886.886,0,0,1,.329-.249c.4-.151-.063.378.074.363a2.46,2.46,0,0,0,.83-.528c.127.014-.125.641-.1.649a3.193,3.193,0,0,0,2.425-.435c.148-.1-.022.432.171.653.166.191.44.137.453.39.039.723,0,1.228,0,1.984a3.566,3.566,0,0,0,.227-3.806c.109-.027.348-.075.457-.1-.206-.666-1.259-.957-1.954-.9a.71.71,0,0,1,.413-.288c-1.435-.562-2.725.713-2.774.694a1.907,1.907,0,0,0-.722.068,1.334,1.334,0,0,0-.617.681,3.974,3.974,0,0,0-.192,1.43,7.3,7.3,0,0,0,.246,1.439,1.5,1.5,0,0,0,.2.453Z" transform="translate(-7553.104 -648.453)" fill="#0c110b"/>
        </g>
      </g>
      <path id="Trazado_147333" data-name="Trazado 147333" d="M7548.48,706.89v7.149h-12.2V706.89a.7.7,0,0,1,.7-.7h10.811A.7.7,0,0,1,7548.48,706.89Z" transform="translate(-7534.754 -695.657)" fill="#2b2b72"/>
      <rect id="Rectángulo_34388" data-name="Rectángulo 34388" width="2.179" height="2.179" rx="1.09" transform="translate(6.643 13.768)" fill="#f48067"/>
      <path id="Trazado_147334" data-name="Trazado 147334" d="M7547.671,742.907l-.4-1.412,9.669-3.513c3.242-.908,4.056,1.994.813,2.9Z" transform="translate(-7543.747 -721.503)" fill="#1e47b1"/>
      <path id="Trazado_147335" data-name="Trazado 147335" d="M7540.088,742.907l.4-1.412-9.669-3.513c-3.242-.908-4.056,1.994-.813,2.9Z" transform="translate(-7527.938 -721.503)" fill="#1e47b1"/>
    </g>
    <g id="Grupo_91685" data-name="Grupo 91685" transform="translate(7196.693 658.387)">
      <path id="Trazado_147336" data-name="Trazado 147336" d="M7715.914,748.476a.651.651,0,0,1-.14-.016.639.639,0,0,1-.484-.763q.04-.175.077-.35a.638.638,0,1,1,1.249.265c-.025.121-.052.243-.078.364A.64.64,0,0,1,7715.914,748.476Zm.674-4.141a.608.608,0,0,1-.068,0,.639.639,0,0,1-.568-.7c.012-.119.023-.238.036-.357a.638.638,0,1,1,1.271.12q-.017.185-.037.37A.638.638,0,0,1,7716.588,744.336Zm.194-4.2a.637.637,0,0,1-.64-.628c0-.119,0-.241,0-.36a.636.636,0,0,1,.625-.654h.014a.642.642,0,0,1,.638.63c0,.123,0,.245.005.369a.635.635,0,0,1-.632.643Zm-.282-4.175a.637.637,0,0,1-.632-.559c-.016-.119-.031-.238-.047-.356a.639.639,0,1,1,1.266-.171c.018.122.033.245.048.368a.638.638,0,0,1-.553.713A.628.628,0,0,1,7716.5,735.962Zm-.76-4.124a.64.64,0,0,1-.62-.487c-.028-.116-.057-.232-.087-.347a.639.639,0,0,1,1.238-.317c.031.12.06.24.09.361a.639.639,0,0,1-.469.772A.627.627,0,0,1,7715.741,731.838Zm-1.231-4.009a.638.638,0,0,1-.6-.415q-.063-.169-.127-.336a.639.639,0,0,1,1.193-.457c.043.115.088.231.13.346a.639.639,0,0,1-.6.862Zm-1.687-3.839a.64.64,0,0,1-.57-.348q-.081-.159-.164-.318a.638.638,0,1,1,1.131-.592l.17.328a.639.639,0,0,1-.568.93Zm-2.119-3.617a.64.64,0,0,1-.532-.285c-.066-.1-.133-.2-.2-.3a.638.638,0,1,1,1.056-.718q.1.153.207.307a.639.639,0,0,1-.531.993Zm-2.521-3.351a.636.636,0,0,1-.488-.227l-.232-.272a.639.639,0,1,1,.967-.835c.08.094.161.188.24.283a.639.639,0,0,1-.487,1.051Zm-2.887-3.041a.634.634,0,0,1-.437-.173q-.131-.123-.264-.245a.639.639,0,0,1,.866-.939c.092.084.182.168.272.252a.639.639,0,0,1-.437,1.1Zm-3.218-2.691a.633.633,0,0,1-.379-.126l-.29-.213a.638.638,0,1,1,.751-1.032l.3.22a.639.639,0,0,1-.382,1.151Zm-3.5-2.3a.642.642,0,0,1-.32-.086c-.1-.06-.207-.119-.311-.178a.639.639,0,1,1,.628-1.112l.323.185a.639.639,0,0,1-.32,1.192Zm-3.747-1.886a.639.639,0,0,1-.253-.053l-.331-.141a.639.639,0,0,1,.5-1.177l.342.146a.639.639,0,0,1-.253,1.225Zm-24.984-1.43a.639.639,0,0,1-.185-1.25l.355-.105a.639.639,0,1,1,.358,1.226l-.344.1A.632.632,0,0,1,7669.842,705.669Zm21.044-.01a.638.638,0,0,1-.185-.027l-.343-.1a.639.639,0,0,1,.355-1.227l.356.105a.639.639,0,0,1-.184,1.25Zm-16.965-.968a.639.639,0,0,1-.112-1.267l.365-.064a.639.639,0,1,1,.212,1.26l-.353.061A.654.654,0,0,1,7673.92,704.692Zm12.887-.006a.657.657,0,0,1-.113-.01l-.353-.061a.639.639,0,1,1,.211-1.26l.366.063a.639.639,0,0,1-.111,1.268Zm-8.723-.495a.639.639,0,0,1-.04-1.276l.371-.021a.639.639,0,0,1,.066,1.276l-.357.021Zm4.559,0h-.039l-.359-.02a.639.639,0,0,1,.066-1.276l.369.021a.639.639,0,0,1-.038,1.276Z" transform="translate(-7669.204 -702.892)" fill="#1d243a"/>
    </g>
    <g id="Grupo_91686" data-name="Grupo 91686" transform="translate(7125.134 663.054)">
      <circle id="Elipse_4785" data-name="Elipse 4785" cx="6.643" cy="6.643" r="6.643" transform="translate(0 0)" fill="#b9beed"/>
      <circle id="Elipse_4786" data-name="Elipse 4786" cx="3.554" cy="3.554" r="3.554" transform="translate(3.089 3.089)" fill="#e3e9ff"/>
    </g>
    <g id="Grupo_91687" data-name="Grupo 91687" transform="translate(7093.652 712.784)">
      <path id="Trazado_147337" data-name="Trazado 147337" d="M7109.668,1010.489h-5.143l4.286-9.489h5.143Z" transform="translate(-7104.525 -1001)" fill="#b9beed"/>
      <path id="Trazado_147338" data-name="Trazado 147338" d="M7145.906,1010.489h-5.143l4.286-9.489h5.143Z" transform="translate(-7134.15 -1001)" fill="#b9beed"/>
      <path id="Trazado_147339" data-name="Trazado 147339" d="M7182.144,1010.489H7177l4.286-9.489h5.143Z" transform="translate(-7163.775 -1001)" fill="#b9beed"/>
      <path id="Trazado_147340" data-name="Trazado 147340" d="M7218.383,1010.489h-5.143l4.286-9.489h5.143Z" transform="translate(-7193.402 -1001)" fill="#b9beed"/>
    </g>
    <g id="Grupo_91689" data-name="Grupo 91689" transform="translate(7205.413 679.302)">
      <rect id="Rectángulo_34389" data-name="Rectángulo 34389" width="24.522" height="11.728" rx="5.864" transform="translate(0 0)" fill="#b9beed"/>
      <g id="Grupo_91688" data-name="Grupo 91688" transform="translate(3.732 3.598)">
        <circle id="Elipse_4787" data-name="Elipse 4787" cx="2.266" cy="2.266" r="2.266" fill="#f7fbfd"/>
        <circle id="Elipse_4788" data-name="Elipse 4788" cx="2.266" cy="2.266" r="2.266" transform="translate(6.264)" fill="#f7fbfd"/>
        <circle id="Elipse_4789" data-name="Elipse 4789" cx="2.266" cy="2.266" r="2.266" transform="translate(12.528)" fill="#f7fbfd"/>
      </g>
    </g>
  </g>
</svg>
