<svg xmlns="http://www.w3.org/2000/svg" xmlns:xlink="http://www.w3.org/1999/xlink" width="190.893" height="126.344" viewBox="0 0 190.893 126.344">
  <defs>
    <linearGradient id="linear-gradient" x1="0.522" y1="0.167" x2="0.489" y2="1.39" gradientUnits="objectBoundingBox">
      <stop offset="0" stop-color="#ffbc53"/>
      <stop offset="0.08" stop-color="#f8c15d"/>
      <stop offset="0.226" stop-color="#f2c769"/>
      <stop offset="0.431" stop-color="#eecb70"/>
      <stop offset="1" stop-color="#edcc72"/>
    </linearGradient>
    <linearGradient id="linear-gradient-2" x1="-2091.219" y1="-25.291" x2="-2091.162" y2="-24.149" xlink:href="#linear-gradient"/>
    <linearGradient id="linear-gradient-3" x1="-1883.682" y1="-218.035" x2="-1883.63" y2="-216.858" xlink:href="#linear-gradient"/>
  </defs>
  <g id="Grupo_91803" data-name="Grupo 91803" transform="translate(-9158.053 -658.722)">
    <path id="Trazado_147473" data-name="Trazado 147473" d="M9403.157,1108.74v-.1a4.585,4.585,0,0,0-4.628-4.645h-7.4a4.7,4.7,0,0,0-4.767,4.645v.1a4.4,4.4,0,0,0,1.456,3.3h-3.828a4.809,4.809,0,0,0-4.775,4.761v.1a4.87,4.87,0,0,0,1.3,3.185h-6.554a4.747,4.747,0,0,0-4.756,4.708v.095a4.714,4.714,0,0,0,4.756,4.669h24.57a4.605,4.605,0,0,0,4.628-4.669v-.095a4.711,4.711,0,0,1,0-7.893v-.1a4.714,4.714,0,0,1,0-8.063Z" transform="translate(-173.415 -365.701)" fill="#b9beed"/>
    <g id="Grupo_91765" data-name="Grupo 91765" transform="translate(9296.758 731.009)">
      <path id="Trazado_147474" data-name="Trazado 147474" d="M9978.522,1114.784h-33c-6.261,0-11.337-5.871-11.337-13.112v-35.985a1.661,1.661,0,0,1,1.661-1.661h38.465Z" transform="translate(-9934.186 -1063.879)" fill="#5169d1"/>
      <path id="Trazado_147475" data-name="Trazado 147475" d="M10160.5,1065.262V1107.4a7.031,7.031,0,0,1-7.049,7.036h-.144a7.079,7.079,0,0,1-7.1-7.036v-43.787l2.179.068h10.481A1.569,1.569,0,0,1,10160.5,1065.262Z" transform="translate(-10108.313 -1063.544)" fill="#b9beed"/>
      <path id="Trazado_147476" data-name="Trazado 147476" d="M10169.032,1063.209v42.553a5.037,5.037,0,0,1-4.926,5.126h-.1a4.936,4.936,0,0,1-4.8-5.126V1063.25Z" transform="translate(-10118.989 -1063.209)" fill="#f7fbfd"/>
      <rect id="Rectángulo_34460" data-name="Rectángulo 34460" width="29.744" height="8.158" transform="translate(4.454 3.144)" fill="#f7fbfd"/>
      <rect id="Rectángulo_34461" data-name="Rectángulo 34461" width="16.263" height="2.502" transform="translate(4.471 14.796)" fill="#2b2b72"/>
      <rect id="Rectángulo_34462" data-name="Rectángulo 34462" width="11.795" height="2.502" transform="translate(22.342 14.796)" fill="#2b2b72"/>
      <rect id="Rectángulo_34463" data-name="Rectángulo 34463" width="16.442" height="2.502" transform="translate(17.696 18.906)" fill="#2b2b72"/>
      <rect id="Rectángulo_34464" data-name="Rectángulo 34464" width="11.795" height="2.502" transform="translate(4.471 18.906)" fill="#2b2b72"/>
      <rect id="Rectángulo_34465" data-name="Rectángulo 34465" width="11.259" height="11.438" transform="translate(22.878 23.195)" fill="#85dfff"/>
      <rect id="Rectángulo_34466" data-name="Rectángulo 34466" width="16.336" height="1.021" rx="0.511" transform="translate(4.518 23.191)" fill="#b9beed"/>
      <rect id="Rectángulo_34467" data-name="Rectángulo 34467" width="16.336" height="1.021" rx="0.511" transform="translate(4.518 25.817)" fill="#b9beed"/>
      <rect id="Rectángulo_34468" data-name="Rectángulo 34468" width="16.336" height="1.021" rx="0.511" transform="translate(4.518 28.442)" fill="#b9beed"/>
      <rect id="Rectángulo_34469" data-name="Rectángulo 34469" width="16.336" height="1.021" rx="0.511" transform="translate(4.518 31.068)" fill="#b9beed"/>
      <rect id="Rectángulo_34470" data-name="Rectángulo 34470" width="16.336" height="1.021" rx="0.511" transform="translate(4.518 33.693)" fill="#b9beed"/>
      <rect id="Rectángulo_34471" data-name="Rectángulo 34471" width="30.284" height="1.021" rx="0.511" transform="translate(4.518 36.319)" fill="#b9beed"/>
      <rect id="Rectángulo_34472" data-name="Rectángulo 34472" width="30.284" height="1.021" rx="0.511" transform="translate(4.518 39.163)" fill="#b9beed"/>
      <rect id="Rectángulo_34473" data-name="Rectángulo 34473" width="30.284" height="1.021" rx="0.511" transform="translate(4.518 42.007)" fill="#b9beed"/>
    </g>
    <g id="Grupo_91775" data-name="Grupo 91775" transform="translate(9183.329 705.416)">
      <g id="Grupo_91773" data-name="Grupo 91773" transform="translate(1.583 0)">
        <g id="Grupo_91766" data-name="Grupo 91766" transform="translate(0 0.042)">
          <circle id="Elipse_4819" data-name="Elipse 4819" cx="14.16" cy="14.16" r="14.16" transform="translate(0.268 0.268)" fill="#85dfff"/>
          <path id="Trazado_147477" data-name="Trazado 147477" d="M9322.776,949.089a14.428,14.428,0,1,1,14.428-14.428A14.444,14.444,0,0,1,9322.776,949.089Zm0-28.32a13.892,13.892,0,1,0,13.892,13.892A13.908,13.908,0,0,0,9322.776,920.769Z" transform="translate(-9308.349 -920.233)" fill="#1e47b1"/>
        </g>
        <g id="Grupo_91767" data-name="Grupo 91767" transform="translate(14.175 0.317)">
          <path id="Trazado_147478" data-name="Trazado 147478" d="M9389.083,949.981l.029-28.209Z" transform="translate(-9388.829 -921.772)" fill="#f7fbfd"/>
          <rect id="Rectángulo_34474" data-name="Rectángulo 34474" width="0.536" height="28.209" fill="#1e47b1"/>
        </g>
        <g id="Grupo_91770" data-name="Grupo 91770" transform="translate(1.555 8.157)">
          <g id="Grupo_91768" data-name="Grupo 91768" transform="translate(0 11.963)">
            <path id="Trazado_147479" data-name="Trazado 147479" d="M9317.051,1034.083l25.654.03Z" transform="translate(-9317.051 -1033.815)" fill="#f7fbfd"/>
            <rect id="Rectángulo_34475" data-name="Rectángulo 34475" width="0.536" height="25.654" transform="translate(0 0.536) rotate(-89.934)" fill="#1e47b1"/>
          </g>
          <g id="Grupo_91769" data-name="Grupo 91769" transform="translate(0 0)">
            <path id="Trazado_147480" data-name="Trazado 147480" d="M9317.051,967.141l25.654.029Z" transform="translate(-9317.051 -966.873)" fill="#f7fbfd"/>
            <rect id="Rectángulo_34476" data-name="Rectángulo 34476" width="0.536" height="25.654" transform="translate(0 0.536) rotate(-89.934)" fill="#1e47b1"/>
          </g>
        </g>
        <g id="Grupo_91771" data-name="Grupo 91771" transform="translate(14.45)">
          <path id="Trazado_147481" data-name="Trazado 147481" d="M9389.2,948.794v-.536c3.038,0,4.871-2.15,5.913-3.954,3.075-5.33,3.118-14.614.1-19.841-1.477-2.553-3.554-3.927-6-3.927h0V920h0c2.648,0,4.881,1.466,6.457,4.194,3.1,5.37,3.066,14.892-.091,20.365C9393.986,947.321,9391.706,948.794,9389.2,948.794Z" transform="translate(-9389.203 -920)" fill="#1e47b1"/>
        </g>
        <g id="Grupo_91772" data-name="Grupo 91772" transform="translate(5.683 0.048)">
          <path id="Trazado_147482" data-name="Trazado 147482" d="M9348.91,949c-2.647,0-4.88-1.431-6.458-4.16-3.1-5.37-3.067-14.875.09-20.347,1.594-2.763,3.872-4.217,6.375-4.217v.536c-3.04,0-4.87,2.151-5.911,3.955-3.075,5.329-3.116,14.579-.1,19.806,1.475,2.553,3.555,3.892,6,3.892h0V949Z" transform="translate(-9340.149 -920.271)" fill="#1e47b1"/>
        </g>
      </g>
      <rect id="Rectángulo_34477" data-name="Rectángulo 34477" width="32.144" height="10.06" rx="5.03" transform="translate(0 9.133)" fill="#1e47b1"/>
      <g id="Grupo_91774" data-name="Grupo 91774" transform="translate(5.958 11.21)">
        <path id="Trazado_147483" data-name="Trazado 147483" d="M9332.83,988.975v-5.728h.808l1.836,2.9a16.135,16.135,0,0,1,1.028,1.861l.016-.009c-.066-.765-.084-1.462-.084-2.354v-2.4h.7v5.728h-.747l-1.818-2.907a18.242,18.242,0,0,1-1.071-1.912l-.025.009c.042.722.059,1.411.059,2.363v2.448Z" transform="translate(-9332.83 -983.154)" fill="#f7fbfd"/>
        <path id="Trazado_147484" data-name="Trazado 147484" d="M9367.105,986.289h-2.229v2.065h2.482v.62h-3.222v-5.728h3.095v.62h-2.355v1.81h2.229Z" transform="translate(-9358.542 -983.154)" fill="#f7fbfd"/>
        <path id="Trazado_147485" data-name="Trazado 147485" d="M9386.527,988.975l-1.452-5.728h.781l.681,2.9c.169.714.322,1.428.424,1.98h.018c.094-.57.272-1.25.469-1.989l.764-2.89h.773l.7,2.906c.162.68.313,1.36.4,1.963h.017c.118-.629.28-1.266.459-1.98l.757-2.89h.756l-1.623,5.728h-.774l-.722-2.983a17.1,17.1,0,0,1-.373-1.87h-.018a17.7,17.7,0,0,1-.442,1.87l-.815,2.983Z" transform="translate(-9375.738 -983.154)" fill="#f7fbfd"/>
        <path id="Trazado_147486" data-name="Trazado 147486" d="M9426.8,987.645a2.618,2.618,0,0,0,1.326.374c.756,0,1.2-.4,1.2-.977,0-.535-.307-.841-1.08-1.139-.934-.331-1.513-.816-1.513-1.623a1.649,1.649,0,0,1,1.853-1.555,2.605,2.605,0,0,1,1.267.28l-.2.6a2.286,2.286,0,0,0-1.088-.272c-.782,0-1.079.468-1.079.859,0,.535.348.8,1.139,1.1.968.374,1.462.842,1.462,1.683,0,.884-.655,1.649-2.007,1.649a2.956,2.956,0,0,1-1.461-.366Z" transform="translate(-9409.857 -982.724)" fill="#f7fbfd"/>
      </g>
    </g>
    <g id="Grupo_91779" data-name="Grupo 91779" transform="translate(9189.468 731.509)">
      <path id="Trazado_147487" data-name="Trazado 147487" d="M9385.84,1127.608h-2.01a3.1,3.1,0,0,0,.283-1.608h1.525A3.221,3.221,0,0,0,9385.84,1127.608Z" transform="translate(-9374.896 -1115.278)" fill="url(#linear-gradient)"/>
      <path id="Trazado_147488" data-name="Trazado 147488" d="M9401.114,1338.405c-.185.46-.423.649-.535.942a.65.65,0,0,0,.04.585c.135.206.2.188.438.219.278.036.558.048.838.072.71.059,1.424.074,2.138.076.357,0,.713,0,1.071,0a2.115,2.115,0,0,0,.527-.039c.085-.023.124-.08.116-.245-.019-.349-.471-.4-.728-.485a14.618,14.618,0,0,1-1.716-.433c-.108-.059-.558-.538-.665-.576A8.678,8.678,0,0,0,9401.114,1338.405Z" transform="translate(-9388.611 -1289.724)" fill="#2a2f21"/>
      <path id="Trazado_147489" data-name="Trazado 147489" d="M9354.423,1338.405c.185.46.423.649.535.942a.65.65,0,0,1-.039.585c-.136.206-.2.188-.438.219-.277.036-.557.048-.837.072-.711.059-1.426.074-2.139.076-.357,0-.714,0-1.071,0a2.112,2.112,0,0,1-.527-.039c-.085-.023-.123-.08-.116-.245.018-.349.472-.4.728-.485a14.587,14.587,0,0,0,1.717-.433c.107-.059.557-.538.666-.576A8.648,8.648,0,0,1,9354.423,1338.405Z" transform="translate(-9346.939 -1289.724)" fill="#2a2f21"/>
      <path id="Trazado_147490" data-name="Trazado 147490" d="M9372.394,1203.869l-.019-.043-7.413-.1v.072c0,.982-1.325,18.186-.317,24.23l1.658-.058c.6-2.927,2.084-13.81,2.332-16.637.428,2.753,2.057,13.711,2.651,16.641l1.615.056C9373.959,1221.68,9372.394,1203.869,9372.394,1203.869Z" transform="translate(-9358.829 -1179.11)" fill="#2b2b72"/>
      <path id="Trazado_147491" data-name="Trazado 147491" d="M9368.06,1208.215Z" transform="translate(-9361.944 -1182.801)" fill="#fff"/>
      <path id="Trazado_147492" data-name="Trazado 147492" d="M9372.083,1134.361c-.162,4.6-.482,5.923-.861,11.974,0,.462-7.457.359-7.457-.1-.3-4.965-1.076-7.654-.913-11.782a14.347,14.347,0,0,1,2.8-.845c.234-.039.479-.07.741-.092l.023,0,.031,0c.02,0,.039,0,.057,0a13.621,13.621,0,0,1,1.9-.007q.13.008.255.02a.45.45,0,0,1,.049,0l.061.005c.273.025.531.058.78.1A12.875,12.875,0,0,1,9372.083,1134.361Z" transform="translate(-9357.648 -1121.411)" fill="#5169d1"/>
      <path id="Trazado_147493" data-name="Trazado 147493" d="M9379.977,1102.459l-.179.084a.652.652,0,0,1-.277.062h-.694a.65.65,0,0,1-.278-.063l-.172-.081a2.5,2.5,0,0,1-1.432-2.262v-3.078h4.471v3.073A2.5,2.5,0,0,1,9379.977,1102.459Z" transform="translate(-9369.241 -1091.559)" fill="#edcc72"/>
      <path id="Trazado_147494" data-name="Trazado 147494" d="M9345.007,1068.948c.225-.518.568-1.194-.105-1.53-.545-.272-1.17-.2-1.57-.7-.16-.2-.163-.54-.41-.665-.37-.188-.527.231-.527.533a1.909,1.909,0,0,0,.9,1.618c.249.128.535.189.675.463s-.028.557-.106.833Z" transform="translate(-9340.865 -1066.006)" fill="#edcc72"/>
      <path id="Trazado_147495" data-name="Trazado 147495" d="M9339.079,1092.349c-1.594-1.514-2.188-2.066-2.74-3.256a30.552,30.552,0,0,0,1.7-6.862l-1.264.3c-.877,2-3.4,6.678-2.858,7.6a46.636,46.636,0,0,0,5.4,6.395Z" transform="translate(-9333.841 -1079.331)" fill="#5169d1"/>
      <path id="Trazado_147496" data-name="Trazado 147496" d="M9417.938,1068.948c-.227-.518-.569-1.194.105-1.53.544-.272,1.169-.2,1.569-.7.159-.2.162-.54.41-.665.371-.188.526.231.528.533a1.915,1.915,0,0,1-.9,1.618c-.249.128-.535.189-.675.463s.027.557.107.833Z" transform="translate(-9402.67 -1066.006)" fill="#edcc72"/>
      <path id="Trazado_147497" data-name="Trazado 147497" d="M9412.061,1092.349c1.593-1.514,2.188-2.066,2.739-3.256a30.552,30.552,0,0,1-1.7-6.862l1.265.3c.877,2,3.4,6.678,2.857,7.6a46.653,46.653,0,0,1-5.4,6.395Z" transform="translate(-9397.891 -1079.331)" fill="#5169d1"/>
      <g id="Grupo_91777" data-name="Grupo 91777" transform="translate(7.074 3.89)">
        <g id="Grupo_91776" data-name="Grupo 91776">
          <path id="Trazado_147498" data-name="Trazado 147498" d="M9374.092,1092.8a2.855,2.855,0,0,1-.032-.521c0-.1,0-.2,0-.3,0-.083-.017-.77.008-1.038a1.37,1.37,0,0,1,.317-.806.863.863,0,0,1,.321-.244c.392-.148-.061.37.073.355a2.408,2.408,0,0,0,.813-.516c.125.013-.123.627-.094.635a3.123,3.123,0,0,0,2.372-.426c.146-.1-.021.423.167.64.163.186.431.134.443.382.039.707,0,1.2,0,1.941a3.231,3.231,0,0,0,.651-1.83,3.276,3.276,0,0,0-.43-1.894c.106-.026.34-.073.447-.1-.2-.652-1.232-.936-1.913-.877a.7.7,0,0,1,.405-.282c-1.405-.55-2.666.7-2.715.68a1.855,1.855,0,0,0-.706.067,1.29,1.29,0,0,0-.6.666,3.861,3.861,0,0,0-.189,1.4,7.177,7.177,0,0,0,.24,1.409,1.492,1.492,0,0,0,.193.443Z" transform="translate(-9373.422 -1087.775)" fill="#0c110b"/>
        </g>
      </g>
      <path id="Trazado_147499" data-name="Trazado 147499" d="M9385.4,1134.356h-2.279v-1.122l-.018,0c.012,0,0,0,.014,0a.432.432,0,0,1,.047,0,5.884,5.884,0,0,1,1.881-.037c.086.015.18.042.264.05.016,0,.031.023.045.024Z" transform="translate(-9374.301 -1121.133)" fill="#edcc72"/>
      <path id="Trazado_147500" data-name="Trazado 147500" d="M9385.8,1146.657l-1.072,1.081-1.088-1.081,1.039-5.709.627,3.188.032.17Z" transform="translate(-9374.74 -1127.555)" fill="#2b2b72"/>
      <rect id="Rectángulo_34478" data-name="Rectángulo 34478" width="0.68" height="0.68" transform="translate(9.453 13.692) rotate(-45)" fill="#2b2b72"/>
      <g id="Grupo_91778" data-name="Grupo 91778" transform="translate(7.855 12.093)">
        <path id="Trazado_147501" data-name="Trazado 147501" d="M9390.988,1133.983l-1.58,1.574-.5-.507-.117-.119.117-.119,1.07-1.064c.037,0,.072.005.109.008.273.026.529.058.779.1Z" transform="translate(-9386.823 -1133.734)" fill="#f7fbfd"/>
        <path id="Trazado_147502" data-name="Trazado 147502" d="M9379.994,1134.869l-.118.119-.5.506-1.58-1.574.147-.148c.241-.041.493-.071.765-.093l.032,0c.019,0,.038,0,.056,0l1.084,1.078Z" transform="translate(-9377.792 -1133.672)" fill="#f7fbfd"/>
      </g>
      <path id="Trazado_147503" data-name="Trazado 147503" d="M9388.263,1159.179h-1.06V1159h1.027Z" transform="translate(-9377.666 -1142.381)" fill="#edcc72"/>
    </g>
    <rect id="Rectángulo_34479" data-name="Rectángulo 34479" width="184.07" height="3.038" rx="1.519" transform="translate(9164.134 782.027)" fill="#b9beed"/>
    <g id="Grupo_91789" data-name="Grupo 91789" transform="translate(9219.445 710.735)">
      <path id="Trazado_147504" data-name="Trazado 147504" d="M9579.591,998.258h-78.013V954.364a4.6,4.6,0,0,1,4.6-4.6h68.813a4.6,4.6,0,0,1,4.6,4.6Z" transform="translate(-9501.578 -949.763)" fill="#f7fbfd"/>
      <rect id="Rectángulo_34480" data-name="Rectángulo 34480" width="13.046" height="14.476" transform="translate(32.459 53.477)" fill="#2b2b72"/>
      <path id="Trazado_147505" data-name="Trazado 147505" d="M9660.942,1328.335h-32.8v-3.269a1.15,1.15,0,0,1,1.15-1.15h30.5a1.15,1.15,0,0,1,1.149,1.15Z" transform="translate(-9605.521 -1257.05)" fill="#2b2b72"/>
      <path id="Trazado_147506" data-name="Trazado 147506" d="M9574.991,1227.167h-68.812a4.6,4.6,0,0,1-4.6-4.6v-2.427h78.013v2.427A4.6,4.6,0,0,1,9574.991,1227.167Z" transform="translate(-9501.578 -1171.819)" fill="#1e47b1"/>
      <g id="Grupo_91781" data-name="Grupo 91781" transform="translate(5.622 31.237)">
        <rect id="Rectángulo_34481" data-name="Rectángulo 34481" width="23.848" height="13.087" rx="6.544" fill="#f48067"/>
        <g id="Grupo_91780" data-name="Grupo 91780" transform="translate(3.121 2.072)">
          <rect id="Rectángulo_34482" data-name="Rectángulo 34482" width="12.506" height="8.978" rx="4.489" fill="#5169d1"/>
          <path id="Trazado_147507" data-name="Trazado 147507" d="M9618.913,1146.4l-3.63-1.512a.854.854,0,0,1-.537-.707v-3.148a.854.854,0,0,1,.537-.707l3.63-1.512c1.009-.421,2.007-.349,2.007.252v7.082C9620.92,1146.75,9619.922,1146.821,9618.913,1146.4Z" transform="translate(-9603.264 -1138.118)" fill="#5169d1"/>
        </g>
      </g>
      <rect id="Rectángulo_34483" data-name="Rectángulo 34483" width="25.913" height="10.544" transform="translate(46.934 33.819)" fill="#e3e9ff"/>
      <rect id="Rectángulo_34484" data-name="Rectángulo 34484" width="25.913" height="12.867" transform="translate(5.652 3.08)" fill="#b9beed"/>
      <g id="Grupo_91783" data-name="Grupo 91783" transform="translate(25.082 10.323)">
        <circle id="Elipse_4820" data-name="Elipse 4820" cx="9.936" cy="9.936" r="9.936" transform="translate(0 12.044) rotate(-37.308)" fill="#edcc72"/>
        <g id="Grupo_91782" data-name="Grupo 91782" transform="translate(4.745 11.116)">
          <rect id="Rectángulo_34485" data-name="Rectángulo 34485" width="4.847" height="4.847" transform="matrix(0.468, -0.884, 0.884, 0.468, 1.606, 5.177)" fill="#e3e9ff"/>
          <path id="Trazado_147508" data-name="Trazado 147508" d="M9671.642,1080l2.663-6.445-5.824-3.832,18.262.006Z" transform="translate(-9668.48 -1069.725)" fill="#f7fbfd"/>
          <path id="Trazado_147509" data-name="Trazado 147509" d="M9686.2,1080.114l2.659-6.46,12.441-3.811Z" transform="translate(-9683.033 -1069.822)" fill="#e3e9ff"/>
        </g>
      </g>
      <g id="Grupo_91784" data-name="Grupo 91784" transform="translate(12.8 6.476)">
        <rect id="Rectángulo_34486" data-name="Rectángulo 34486" width="11.438" height="6.255" fill="#fff"/>
        <path id="Trazado_147510" data-name="Trazado 147510" d="M9573.241,986l5.745,3.987,5.745-3.987Z" transform="translate(-9573.234 -986)" fill="#e3e9ff"/>
      </g>
      <g id="Grupo_91788" data-name="Grupo 91788" transform="translate(53.547 3.08)">
        <circle id="Elipse_4821" data-name="Elipse 4821" cx="9.62" cy="9.62" r="9.62" fill="#b9beed"/>
        <path id="Trazado_147511" data-name="Trazado 147511" d="M9844.123,1039a3.034,3.034,0,0,1-6.068,0Z" transform="translate(-9831.469 -1026.133)" fill="#f7fbfd"/>
        <g id="Grupo_91787" data-name="Grupo 91787" transform="translate(2.88 5.719)">
          <g id="Grupo_91785" data-name="Grupo 91785" transform="translate(7.897)">
            <path id="Trazado_147512" data-name="Trazado 147512" d="M9866.642,1001.161a.431.431,0,0,1-.352-.156,2.437,2.437,0,0,0-1.863-1.112h-.022a3.248,3.248,0,0,0-2.108,1.12.447.447,0,0,1-.629.053.433.433,0,0,1-.062-.617,4.1,4.1,0,0,1,2.8-1.45h.027a3.269,3.269,0,0,1,2.561,1.453.435.435,0,0,1-.351.708Z" transform="translate(-9861.505 -999)" fill="#fafeff"/>
          </g>
          <g id="Grupo_91786" data-name="Grupo 91786">
            <path id="Trazado_147513" data-name="Trazado 147513" d="M9822.453,1001.161a.431.431,0,0,1-.351-.156,2.437,2.437,0,0,0-1.863-1.112h-.022a3.242,3.242,0,0,0-2.108,1.12.448.448,0,0,1-.63.053.434.434,0,0,1-.062-.617,4.1,4.1,0,0,1,2.8-1.45h.025a3.269,3.269,0,0,1,2.563,1.453.435.435,0,0,1-.352.708Z" transform="translate(-9817.316 -999)" fill="#fafeff"/>
          </g>
        </g>
      </g>
    </g>
    <g id="Grupo_91790" data-name="Grupo 91790" transform="translate(9264.36 666.696)">
      <path id="Trazado_147514" data-name="Trazado 147514" d="M9765.587,709.681c0,3.5-6.342,14.113-6.342,14.113s-6.341-10.611-6.341-14.113a6.341,6.341,0,0,1,12.683,0Z" transform="translate(-9752.904 -703.34)" fill="#b9beed"/>
      <circle id="Elipse_4822" data-name="Elipse 4822" cx="4.593" cy="4.593" r="4.593" transform="translate(1.748 1.731)" fill="#f7fbfd"/>
    </g>
    <g id="Grupo_91792" data-name="Grupo 91792" transform="translate(9317.453 689.78)">
      <rect id="Rectángulo_34487" data-name="Rectángulo 34487" width="24.016" height="11.486" rx="5.743" transform="translate(0)" fill="#b9beed"/>
      <g id="Grupo_91791" data-name="Grupo 91791" transform="translate(3.655 3.524)">
        <circle id="Elipse_4823" data-name="Elipse 4823" cx="2.219" cy="2.219" r="2.219" fill="#f7fbfd"/>
        <circle id="Elipse_4824" data-name="Elipse 4824" cx="2.219" cy="2.219" r="2.219" transform="translate(6.135)" fill="#f7fbfd"/>
        <circle id="Elipse_4825" data-name="Elipse 4825" cx="2.219" cy="2.219" r="2.219" transform="translate(12.269)" fill="#f7fbfd"/>
      </g>
    </g>
    <g id="Grupo_91797" data-name="Grupo 91797" transform="translate(9187.977 672.387)">
      <g id="Grupo_91793" data-name="Grupo 91793" transform="translate(0 13.768)">
        <path id="Trazado_147515" data-name="Trazado 147515" d="M9336.711,821.456l-5.188-9.011a.452.452,0,0,0-.772,0q-2.6,4.563-5.2,9.126a.448.448,0,0,0,.771.454q2.6-4.563,5.2-9.123h-.772c1.73,3.038,3.46,6,5.189,9.008a.448.448,0,0,0,.771-.454Z" transform="translate(-9325.492 -812.227)" fill="#b9beed"/>
      </g>
      <g id="Grupo_91794" data-name="Grupo 91794" transform="translate(0 9.178)">
        <path id="Trazado_147516" data-name="Trazado 147516" d="M9336.711,795.776l-5.188-9.011a.452.452,0,0,0-.772,0q-2.6,4.563-5.2,9.126a.441.441,0,0,0,.771.425c1.731-3.042,3.464-6.114,5.2-9.152h-.772c1.73,3.038,3.46,6.033,5.189,9.037a.441.441,0,0,0,.771-.425Z" transform="translate(-9325.492 -786.547)" fill="#b9beed"/>
      </g>
      <g id="Grupo_91795" data-name="Grupo 91795" transform="translate(0 4.589)">
        <path id="Trazado_147517" data-name="Trazado 147517" d="M9336.711,770.1l-5.188-9.011a.452.452,0,0,0-.772,0q-2.6,4.563-5.2,9.126c-.286.5.486.987.771.486,1.731-3.042,3.464-6.053,5.2-9.091h-.772c1.73,2.859,3.46,5.972,5.189,8.976.288.5,1.06.014.771-.486Z" transform="translate(-9325.492 -760.868)" fill="#b9beed"/>
      </g>
      <g id="Grupo_91796" data-name="Grupo 91796" transform="translate(0 0)">
        <path id="Trazado_147518" data-name="Trazado 147518" d="M9336.711,744.417l-5.188-9.011a.452.452,0,0,0-.772,0q-2.6,4.563-5.2,9.126a.449.449,0,0,0,.771.457q2.6-4.563,5.2-9.12h-.772c1.73,3.038,3.46,6,5.189,9a.449.449,0,0,0,.771-.457Z" transform="translate(-9325.492 -735.188)" fill="#b9beed"/>
      </g>
    </g>
    <g id="Grupo_91798" data-name="Grupo 91798" transform="translate(9158.053 734.093)">
      <circle id="Elipse_4826" data-name="Elipse 4826" cx="6.506" cy="6.506" r="6.506" transform="translate(0 0)" fill="#b9beed"/>
      <circle id="Elipse_4827" data-name="Elipse 4827" cx="3.481" cy="3.481" r="3.481" transform="translate(3.025 3.025)" fill="#e3e9ff"/>
    </g>
    <g id="Grupo_91799" data-name="Grupo 91799" transform="translate(9201.602 658.722)">
      <path id="Trazado_147519" data-name="Trazado 147519" d="M9520.736,730.043a.6.6,0,0,1-.1-.008.625.625,0,0,1-.518-.717c.018-.116.036-.233.055-.349a.625.625,0,1,1,1.235.192c-.018.119-.037.238-.056.357A.625.625,0,0,1,9520.736,730.043Zm.517-4.077-.058,0a.627.627,0,0,1-.566-.681l.032-.352a.625.625,0,1,1,1.246.108l-.032.36A.625.625,0,0,1,9521.253,725.966Zm.24-4.109h-.017a.618.618,0,0,1-.609-.638c0-.118,0-.234.008-.352a.626.626,0,0,1,1.251.025c0,.121-.006.238-.009.359A.622.622,0,0,1,9521.493,721.857Zm-.036-4.1a.626.626,0,0,1-.625-.6c0-.118-.01-.235-.016-.352a.625.625,0,1,1,1.249-.061c.006.12.012.241.017.362a.626.626,0,0,1-.6.651Zm-.312-4.1a.626.626,0,0,1-.621-.558c-.014-.117-.026-.234-.039-.351a.625.625,0,1,1,1.241-.145q.022.18.041.36a.626.626,0,0,1-.554.69C9521.19,713.656,9521.168,713.657,9521.146,713.657Zm-.588-4.066a.625.625,0,0,1-.615-.516c-.021-.116-.042-.231-.063-.347a.626.626,0,0,1,1.23-.229c.021.119.044.237.065.356a.627.627,0,0,1-.507.726A.608.608,0,0,1,9520.558,709.592Zm-118.2-3.372a.638.638,0,0,1-.146-.017.626.626,0,0,1-.463-.754c.028-.117.058-.234.086-.351a.625.625,0,1,1,1.214.3c-.028.114-.056.229-.083.344A.626.626,0,0,1,9402.361,706.22Zm117.333-.644a.626.626,0,0,1-.606-.473l-.088-.344a.626.626,0,0,1,1.212-.312l.089.349a.627.627,0,0,1-.606.779Zm-116.24-3.316a.626.626,0,0,1-.6-.813c.036-.115.073-.231.109-.346a.626.626,0,0,1,1.192.382c-.036.113-.072.225-.107.338A.626.626,0,0,1,9403.454,702.259Zm115.1-.632a.624.624,0,0,1-.594-.432c-.037-.112-.073-.224-.11-.336a.626.626,0,0,1,1.188-.394c.037.114.075.229.112.344a.626.626,0,0,1-.6.819Zm-113.739-3.25a.612.612,0,0,1-.227-.043.626.626,0,0,1-.356-.81c.045-.113.089-.225.134-.337a.625.625,0,1,1,1.162.462c-.044.11-.087.22-.13.33A.625.625,0,0,1,9404.817,698.378Zm112.336-.611a.626.626,0,0,1-.58-.391l-.134-.328a.625.625,0,0,1,1.157-.475l.136.334a.626.626,0,0,1-.579.86Zm-110.71-3.167a.619.619,0,0,1-.266-.06.626.626,0,0,1-.3-.833l.155-.326a.626.626,0,1,1,1.129.539l-.152.321A.625.625,0,0,1,9406.443,694.6Zm109.047-.584a.625.625,0,0,1-.562-.352c-.052-.106-.1-.212-.156-.317a.626.626,0,0,1,1.123-.552q.081.161.158.323a.625.625,0,0,1-.562.9Zm-107.166-3.073a.626.626,0,0,1-.547-.93l.178-.316a.626.626,0,0,1,1.089.617q-.088.154-.173.308A.626.626,0,0,1,9408.324,690.943Zm105.251-.556a.625.625,0,0,1-.544-.315c-.058-.1-.116-.2-.175-.306a.625.625,0,1,1,1.081-.627c.061.1.121.208.18.312a.626.626,0,0,1-.542.936Zm-103.127-2.964a.626.626,0,0,1-.523-.967l.2-.3a.626.626,0,1,1,1.045.688l-.193.3A.626.626,0,0,1,9410.448,687.423Zm100.97-.528a.625.625,0,0,1-.521-.279l-.2-.293a.626.626,0,0,1,1.037-.7l.2.3a.626.626,0,0,1-.52.973Zm-98.61-2.839a.625.625,0,0,1-.5-1l.217-.288a.626.626,0,1,1,1,.758c-.072.094-.143.188-.214.282A.624.624,0,0,1,9412.808,684.056Zm96.219-.5a.622.622,0,0,1-.5-.245c-.071-.093-.144-.186-.216-.279a.626.626,0,0,1,.987-.769l.221.286a.626.626,0,0,1-.5,1.006Zm-93.639-2.7a.626.626,0,0,1-.473-1.035l.237-.272a.626.626,0,1,1,.941.824l-.232.267A.624.624,0,0,1,9415.388,680.857Zm91.026-.47a.622.622,0,0,1-.468-.211l-.235-.265a.625.625,0,1,1,.933-.833c.08.09.16.179.239.269a.625.625,0,0,1-.469,1.04Zm-88.235-2.546a.626.626,0,0,1-.444-1.065l.255-.256a.626.626,0,0,1,.885.885l-.25.251A.625.625,0,0,1,9418.179,677.841Zm85.414-.44a.624.624,0,0,1-.439-.181q-.125-.124-.252-.248a.625.625,0,0,1,.874-.895l.259.253a.626.626,0,0,1-.441,1.07Zm-82.426-2.38a.626.626,0,0,1-.414-1.095l.271-.237a.626.626,0,0,1,.823.943l-.268.234A.624.624,0,0,1,9421.167,675.021Zm79.409-.41a.622.622,0,0,1-.408-.152l-.27-.231a.625.625,0,1,1,.813-.951l.273.235a.625.625,0,0,1-.408,1.1Zm-76.237-2.2a.625.625,0,0,1-.382-1.122l.287-.219a.625.625,0,0,1,.756,1l-.28.214A.625.625,0,0,1,9424.339,672.409Zm73.037-.378a.623.623,0,0,1-.375-.126l-.283-.212a.625.625,0,1,1,.746-1l.29.216a.626.626,0,0,1-.378,1.125Zm-69.7-2.012a.626.626,0,0,1-.348-1.146l.3-.2a.626.626,0,0,1,.687,1.046l-.295.194A.619.619,0,0,1,9427.679,670.018Zm66.33-.346a.624.624,0,0,1-.341-.1c-.1-.065-.2-.129-.3-.193a.625.625,0,0,1,.676-1.052c.1.065.2.13.3.2a.626.626,0,0,1-.342,1.15Zm-62.836-1.812a.625.625,0,0,1-.312-1.168l.313-.178a.626.626,0,1,1,.615,1.089l-.307.174A.62.62,0,0,1,9431.173,667.86Zm59.315-.312a.627.627,0,0,1-.3-.079l-.311-.172a.626.626,0,0,1,.6-1.1l.316.175a.626.626,0,0,1-.3,1.172Zm-55.684-1.6a.625.625,0,0,1-.273-1.189l.324-.156a.626.626,0,1,1,.538,1.129l-.317.153A.622.622,0,0,1,9434.8,665.946Zm52.023-.277a.622.622,0,0,1-.266-.06l-.321-.15a.626.626,0,0,1,.526-1.135l.328.154a.625.625,0,0,1-.268,1.191Zm-48.271-1.385a.626.626,0,0,1-.234-1.206l.335-.133a.626.626,0,1,1,.46,1.163l-.327.13A.622.622,0,0,1,9438.557,664.283Zm44.492-.241a.616.616,0,0,1-.227-.043l-.331-.128a.625.625,0,0,1,.447-1.168l.339.131a.626.626,0,0,1-.229,1.208Zm-40.637-1.161a.626.626,0,0,1-.193-1.221l.345-.11a.625.625,0,0,1,.38,1.192l-.337.109A.633.633,0,0,1,9442.412,662.882Zm36.754-.2a.642.642,0,0,1-.187-.029l-.34-.105a.626.626,0,0,1,.368-1.2l.346.107a.626.626,0,0,1-.187,1.223Zm-32.806-.933a.626.626,0,0,1-.151-1.232l.351-.087a.626.626,0,0,1,.3,1.215l-.345.085A.629.629,0,0,1,9446.36,661.746Zm28.844-.159a.636.636,0,0,1-.147-.017l-.343-.081a.626.626,0,1,1,.284-1.219l.352.083a.626.626,0,0,1-.146,1.234Zm-24.827-.7a.625.625,0,0,1-.108-1.241l.355-.063a.625.625,0,1,1,.212,1.233l-.348.061A.638.638,0,0,1,9450.377,660.883Zm20.8-.114a.631.631,0,0,1-.1-.009l-.349-.058a.625.625,0,1,1,.2-1.235l.356.059a.626.626,0,0,1-.1,1.242Zm-16.733-.473a.626.626,0,0,1-.068-1.247l.359-.038a.626.626,0,0,1,.129,1.244l-.352.037A.64.64,0,0,1,9454.444,660.3Zm12.661-.069c-.021,0-.041,0-.062,0l-.351-.034a.625.625,0,1,1,.115-1.245l.359.034a.625.625,0,0,1-.062,1.248Zm-8.565-.241a.625.625,0,0,1-.025-1.25l.359-.014a.626.626,0,0,1,.045,1.25l-.352.014Zm4.466-.024h-.021l-.353-.01a.591.591,0,1,1,.016-1.181h.016c.12,0,.24-.029.362-.025a.608.608,0,1,1-.021,1.216Z" transform="translate(-9401.734 -658.722)" fill="#1d243a"/>
    </g>
    <g id="Grupo_91802" data-name="Grupo 91802" transform="translate(9252.998 691.803)">
      <g id="Grupo_91800" data-name="Grupo 91800" transform="translate(2.963 5.258)">
        <path id="Trazado_147520" data-name="Trazado 147520" d="M9705.9,875.538c.092-.654.383-1.61.4-2.288l1.3.471a2.106,2.106,0,0,0,.1,1.547Z" transform="translate(-9705.903 -873.25)" fill="url(#linear-gradient-2)"/>
      </g>
      <path id="Trazado_147521" data-name="Trazado 147521" d="M9708.594,853.535c.063.735.1,1.452.155,2.19.015.2.3.683.285.894s-.338.152-.415.374c-.207.6-.332,1.476-.9,1.254a5.8,5.8,0,0,1-2.083-1.2l-.255-1.317.488-.608.808-1.256Z" transform="translate(-9702.514 -851.801)" fill="#edcc72"/>
      <path id="Trazado_147522" data-name="Trazado 147522" d="M9742.7,996.981c-.376.514-.821.209-1.121.033a11.663,11.663,0,0,1-1.164-.812c-.293-.224-.733-.35-.755-.834-.02-.46.349-.982.736-1C9740.394,994.37,9743.25,996.227,9742.7,996.981Z" transform="translate(-9730.661 -967.467)" fill="#0c110b"/>
      <path id="Trazado_147523" data-name="Trazado 147523" d="M9707.617,850.49c-.258.295-.279.566-.717.545-.3-.014-.585-.084-.879-.122a1.019,1.019,0,0,0-.888.325c-.105.084-.095.319-.2.491-.074.124-.1.332-.2.275-.531-.311-.478.707-.3.872.246.235.523-.078.437.322a2.35,2.35,0,0,1-.446.948c-.228.265-.486.361-.633.681l.089-5.359,3.517.405Z" transform="translate(-9701.205 -848.461)" fill="#2e1a14"/>
      <path id="Trazado_147524" data-name="Trazado 147524" d="M9693.252,846.351c-.344-.177-.765.533-.817.955-.1.767.332.342.432.583.265.636.97.725,1.417,1.238.245.281.6.42.809.723a1.425,1.425,0,0,1,.08,1.173c-.272,1.076-1.34,1.351-2.1,2.012a4.844,4.844,0,0,0-.746,1.06c-.245.347-.518.254-.774.625-.421.607.114,1-.566.968-2.127-.088-1.669-3.556-1.5-4.891a33.826,33.826,0,0,1,.667-3.472,7.967,7.967,0,0,1,1.017-2.964c.044-.058.091-.116.14-.17.684-.755,2.229-.122,3.138.116a.584.584,0,0,0,.157.018c.3-.005.621-.225,1.1.259a.976.976,0,0,1-.641,1.668c-.539.073-.661-.458-1.126-.134A1.021,1.021,0,0,1,9693.252,846.351Z" transform="translate(-9689.325 -843.831)" fill="#f48067"/>
      <g id="Grupo_91801" data-name="Grupo 91801" transform="translate(2.479 5.282)">
        <path id="Trazado_147525" data-name="Trazado 147525" d="M9703.2,875.579c.2-.63.639-1.526.771-2.191l1.211.677a2.1,2.1,0,0,0-.156,1.542Z" transform="translate(-9703.197 -873.388)" fill="url(#linear-gradient-3)"/>
      </g>
      <path id="Trazado_147526" data-name="Trazado 147526" d="M9700.717,893.208l1.16-.008,2.77-.018c-.166,0-.2-.883-.205-.976a14.261,14.261,0,0,0-.231-1.747,12.136,12.136,0,0,1-.107-3.851c.109-1.24-1.965-2.623-2.135-2.677a1.4,1.4,0,0,0-1.082-.036c-.847.517-1.061,2.227-.954,2.818a22.518,22.518,0,0,1,.1,3.343,12.441,12.441,0,0,1,.028,1.28,3.933,3.933,0,0,0,.285,1.844C9700.4,893.265,9700.479,893.21,9700.717,893.208Z" transform="translate(-9698.016 -876.654)" fill="#2b2b72"/>
      <path id="Trazado_147527" data-name="Trazado 147527" d="M9708.594,853.535c.063.735.1,1.452.155,2.19.015.2.3.683.285.894s-.338.152-.415.374c-.207.6-.332,1.476-.9,1.254a5.8,5.8,0,0,1-2.083-1.2l-.255-1.317.488-.608.808-1.256Z" transform="translate(-9702.514 -851.801)" fill="#edcc72"/>
      <path id="Trazado_147528" data-name="Trazado 147528" d="M9704.107,932.881c-.7.152-1.965.406-2.643.522a3.976,3.976,0,0,0,.027,2.107c.2.69,1.138.43,1.868.66a21.591,21.591,0,0,1,4.341,1.321c.366,2.163.218,3.72.554,6.979l1.45-.042c.084-2.444.413-7.288-.093-8.061a7.539,7.539,0,0,0-3.288-2.009Z" transform="translate(-9699.189 -916.967)" fill="#5169d1"/>
      <path id="Trazado_147529" data-name="Trazado 147529" d="M9771.44,988.9c-.08.631-.619.581-.965.572a11.617,11.617,0,0,1-1.411-.147c-.366-.054-.812.049-1.064-.364a.975.975,0,0,1,.16-1.23,2.216,2.216,0,0,1,1.527.388C9770.01,988.352,9771.5,988.433,9771.44,988.9Z" transform="translate(-9753.823 -962.005)" fill="#0c110b"/>
      <path id="Trazado_147530" data-name="Trazado 147530" d="M9717.954,932.342a5.089,5.089,0,0,1-2.036,1.151,3.413,3.413,0,0,0,.513,1.873c.353.626,1.206.16,1.97.218a21.573,21.573,0,0,1,4.527.3c.848,2.024,1.215,3.754,2.284,6.851l1.178-.406c-.475-2.4-1.275-7.256-1.857-7.973C9723.971,933.661,9717.954,932.2,9717.954,932.342Z" transform="translate(-9711.16 -916.516)" fill="#5169d1"/>
      <path id="Trazado_147531" data-name="Trazado 147531" d="M9707.617,850.49c-.258.295-.279.566-.717.545-.3-.014-.585-.084-.879-.122a1.019,1.019,0,0,0-.888.325c-.105.084-.095.319-.2.491-.074.124-.1.332-.2.275-.531-.311-.478.707-.3.872.246.235.523-.078.437.322a2.35,2.35,0,0,1-.446.948c-.228.265-.486.361-.633.681l.089-5.359,3.517.405Z" transform="translate(-9701.205 -848.461)" fill="#f48067"/>
      <path id="Trazado_147532" data-name="Trazado 147532" d="M9702.406,874.565a4.192,4.192,0,0,0,.925,1.957,7.905,7.905,0,0,1,.907.836c.178.24.328.379.29.684-.023.194-.353,1.148-.706,1.067a8.483,8.483,0,0,0,.036-1.2c-.091-.411-.969-.87-1.35-1.077-.651-.353-.651-.519-1.173-.405l.723-2.095Z" transform="translate(-9699.189 -868.879)" fill="#f48067"/>
      <path id="Trazado_147533" data-name="Trazado 147533" d="M9713.451,927.487c.342.054.634-.04.96.163.229.142.615.533.478.841-.279.622-1.389-.087-1.776-.18Z" transform="translate(-9708.861 -912.537)" fill="#edcc72"/>
      <path id="Trazado_147534" data-name="Trazado 147534" d="M9694.036,889.384c.261.885-.762,1.987-1.023,2.5-.326.64-.9,1.44-1.225,2.083,0,0,2.8,1.368,2.932,1.886.1.418.028.876-.339.824a13.6,13.6,0,0,1-3.226-1.193c-.833-.43-.986-.914-.751-1.935C9690.5,893.153,9691.912,887.4,9694.036,889.384Z" transform="translate(-9690.13 -880.903)" fill="#2b2b72"/>
      <path id="Trazado_147535" data-name="Trazado 147535" d="M9720.54,919.487l6.576-.016a.6.6,0,0,0,.594-.6l.794-3.961a.594.594,0,0,0-.6-.594l-6.576.016a.6.6,0,0,0-.595.6l-.794,3.961A.594.594,0,0,0,9720.54,919.487Z" transform="translate(-9714.472 -901.722)" fill="#2e1a14"/>
      <path id="Trazado_147536" data-name="Trazado 147536" d="M9739.42,925.1a.8.8,0,1,0,.8-.8A.8.8,0,0,0,9739.42,925.1Z" transform="translate(-9730.467 -909.921)" fill="#f7fbfd"/>
    </g>
  </g>
</svg>
