<svg xmlns="http://www.w3.org/2000/svg" xmlns:xlink="http://www.w3.org/1999/xlink" width="592.345" height="561.007" viewBox="0 0 592.345 561.007">
  <defs>
    <filter id="Elipse_4833" x="135.599" y="130.732" width="119.205" height="119.205" filterUnits="userSpaceOnUse">
      <feOffset dy="3" input="SourceAlpha"/>
      <feGaussianBlur stdDeviation="3" result="blur"/>
      <feFlood flood-opacity="0.161"/>
      <feComposite operator="in" in2="blur"/>
      <feComposite in="SourceGraphic"/>
    </filter>
    <filter id="Elipse_4834" x="163.421" y="360.42" width="119.205" height="119.205" filterUnits="userSpaceOnUse">
      <feOffset dy="3" input="SourceAlpha"/>
      <feGaussianBlur stdDeviation="3" result="blur-2"/>
      <feFlood flood-opacity="0.161"/>
      <feComposite operator="in" in2="blur-2"/>
      <feComposite in="SourceGraphic"/>
    </filter>
    <filter id="Elipse_4835" x="445.505" y="441.801" width="119.205" height="119.205" filterUnits="userSpaceOnUse">
      <feOffset dy="3" input="SourceAlpha"/>
      <feGaussianBlur stdDeviation="3" result="blur-3"/>
      <feFlood flood-opacity="0.161"/>
      <feComposite operator="in" in2="blur-3"/>
      <feComposite in="SourceGraphic"/>
    </filter>
    <filter id="Elipse_4832" x="249.447" y="0" width="119.205" height="119.205" filterUnits="userSpaceOnUse">
      <feOffset dy="3" input="SourceAlpha"/>
      <feGaussianBlur stdDeviation="3" result="blur-4"/>
      <feFlood flood-opacity="0.161"/>
      <feComposite operator="in" in2="blur-4"/>
      <feComposite in="SourceGraphic"/>
    </filter>
  </defs>
  <g id="Grupo_91880" data-name="Grupo 91880" transform="translate(-326.655 -6117.5)">
    <g id="Grupo_91854" data-name="Grupo 91854" transform="translate(471.254 6123.5)">
      <path id="Trazado_147605" data-name="Trazado 147605" d="M4.24,23.225A150.623,150.623,0,0,1,119.4,20.633a151.628,151.628,0,0,1,8.007,279.705l4.24,9.543A162.064,162.064,0,0,0,213.075,96.335a161.017,161.017,0,0,0-89.929-85.449A161,161,0,0,0,0,13.682Z" transform="translate(204.707 124.373) rotate(-3)" fill="#3e2ea6"/>
      <path id="Trazado_147606" data-name="Trazado 147606" d="M9.349,87.969A141.134,141.134,0,0,1,198.162,25.292a141.134,141.134,0,0,1,63.92,188.4l9.349,4.651A151.585,151.585,0,0,0,87.066,7.955,150.58,150.58,0,0,0,0,83.318Z" transform="matrix(0.999, -0.035, 0.035, 0.999, 138.359, 135.239)" fill="#0f0140"/>
      <path id="Trazado_147607" data-name="Trazado 147607" d="M-1481.716-1730.125a129.716,129.716,0,0,1-17.669-97.494,129.739,129.739,0,0,1,56.651-82.348,129.741,129.741,0,0,1,98.288-18.17,129.717,129.717,0,0,1,81.827,55.87l8.76-5.684a140.092,140.092,0,0,0-88.412-60.4,140.11,140.11,0,0,0-106.146,19.622,140.112,140.112,0,0,0-61.182,88.933,140.1,140.1,0,0,0,19.121,105.353Z" transform="translate(1649.647 2081.514)" fill="#ed6c1f"/>
      <path id="Trazado_147608" data-name="Trazado 147608" d="M-1328.942-1692.8a119.032,119.032,0,0,1-90.85-.511,119.052,119.052,0,0,1-64.74-64.972,119.053,119.053,0,0,1,.164-91.722,119.032,119.032,0,0,1,64.109-64.373l-3.979-9.654a129.408,129.408,0,0,0-69.771,70.014,129.433,129.433,0,0,0-.178,99.714,129.431,129.431,0,0,0,70.383,70.634,129.4,129.4,0,0,0,98.842.525Z" transform="translate(1651.19 2084.625)" fill="#00d9ef"/>
      <line id="Línea_152" data-name="Línea 152" x2="21.816" y2="56.572" transform="translate(321.793 392.008)" fill="none" stroke="#00d9ef" stroke-miterlimit="10" stroke-width="1"/>
      <line id="Línea_153" data-name="Línea 153" x1="50" y2="34.298" transform="translate(116.166 350.836)" fill="none" stroke="#ed6c1f" stroke-miterlimit="10" stroke-width="1"/>
      <line id="Línea_154" data-name="Línea 154" x1="54.856" y1="25.829" transform="translate(94.959 196.815)" fill="none" stroke="#0f043f" stroke-miterlimit="10" stroke-width="1"/>
      <g transform="matrix(1, 0, 0, 1, -144.6, -6)" filter="url(#Elipse_4833)">
        <circle id="Elipse_4833-2" data-name="Elipse 4833" cx="50.603" cy="50.603" r="50.603" transform="translate(144.6 136.73)" fill="#fff"/>
      </g>
      <g transform="matrix(1, 0, 0, 1, -144.6, -6)" filter="url(#Elipse_4834)">
        <circle id="Elipse_4834-2" data-name="Elipse 4834" cx="50.603" cy="50.603" r="50.603" transform="translate(172.42 366.42)" fill="#fff"/>
      </g>
      <g transform="matrix(1, 0, 0, 1, -144.6, -6)" filter="url(#Elipse_4835)">
        <circle id="Elipse_4835-2" data-name="Elipse 4835" cx="50.603" cy="50.603" r="50.603" transform="translate(454.51 447.8)" fill="#fff"/>
      </g>
      <line id="Línea_155" data-name="Línea 155" x1="26.205" y1="54.677" transform="translate(183.28 92.871)" fill="none" stroke="#3e33a3" stroke-miterlimit="10" stroke-width="1"/>
      <g transform="matrix(1, 0, 0, 1, -144.6, -6)" filter="url(#Elipse_4832)">
        <circle id="Elipse_4832-2" data-name="Elipse 4832" cx="50.603" cy="50.603" r="50.603" transform="translate(258.45 6)" fill="#fff"/>
      </g>
    </g>
    <path id="Trazado_149106" data-name="Trazado 149106" d="M15.116,12.474h-1.67V17H10.361V4.2H15.4a5.621,5.621,0,0,1,3.56,1.01A3.421,3.421,0,0,1,20.24,8.066a4.155,4.155,0,0,1-.541,2.213A3.837,3.837,0,0,1,18.008,11.7l2.672,5.167V17h-3.3ZM13.446,10.1H15.4a1.751,1.751,0,0,0,1.323-.463,1.788,1.788,0,0,0,.444-1.291,1.809,1.809,0,0,0-.448-1.3A1.735,1.735,0,0,0,15.4,6.576H13.446Zm13.122,7.075a4.889,4.889,0,0,1-3.542-1.305,4.507,4.507,0,0,1-1.354-3.4v-.246a5.84,5.84,0,0,1,.541-2.575,3.955,3.955,0,0,1,1.578-1.727,4.763,4.763,0,0,1,2.461-.611,4.117,4.117,0,0,1,3.164,1.244,4.887,4.887,0,0,1,1.16,3.467v1.151H24.688a2.135,2.135,0,0,0,.694,1.257,2.066,2.066,0,0,0,1.389.457,2.662,2.662,0,0,0,2.2-.984l1.354,1.6a3.784,3.784,0,0,1-1.569,1.217A5.3,5.3,0,0,1,26.569,17.176ZM26.235,9.6q-1.3,0-1.547,1.723h2.988v-.229a1.467,1.467,0,0,0-.36-1.1A1.434,1.434,0,0,0,26.235,9.6ZM34.892,17H31.921V3.5h2.971Zm7.181,0a3.344,3.344,0,0,1-.281-.853,2.754,2.754,0,0,1-2.285,1.028,3.374,3.374,0,0,1-2.285-.813,2.588,2.588,0,0,1-.94-2.043,2.66,2.66,0,0,1,1.143-2.338,5.821,5.821,0,0,1,3.322-.791h.914v-.5q0-1.316-1.134-1.316a.927.927,0,0,0-1.055,1.042H36.509a2.655,2.655,0,0,1,1.173-2.239,4.931,4.931,0,0,1,2.993-.86,4.323,4.323,0,0,1,2.874.888,3.086,3.086,0,0,1,1.081,2.435v4.21a4.311,4.311,0,0,0,.4,2V17Zm-1.854-1.934a1.652,1.652,0,0,0,.918-.237,1.487,1.487,0,0,0,.523-.536V12.772H40.8q-1.547,0-1.547,1.389a.848.848,0,0,0,.272.655A.986.986,0,0,0,40.218,15.066Zm10.072-.176a1.317,1.317,0,0,0,.967-.338,1.241,1.241,0,0,0,.334-.945h2.777a3.288,3.288,0,0,1-1.121,2.566,4.168,4.168,0,0,1-2.887,1,4.22,4.22,0,0,1-3.27-1.3,5.125,5.125,0,0,1-1.2-3.6v-.123A5.792,5.792,0,0,1,46.427,9.6a3.872,3.872,0,0,1,1.534-1.7,4.573,4.573,0,0,1,2.373-.593,4.116,4.116,0,0,1,2.944,1.028,3.647,3.647,0,0,1,1.09,2.786H51.591A1.626,1.626,0,0,0,51.231,10a1.244,1.244,0,0,0-.967-.4q-1.151,0-1.345,1.468a10.357,10.357,0,0,0-.062,1.283,4.068,4.068,0,0,0,.343,1.986A1.187,1.187,0,0,0,50.29,14.891ZM58.745,17H55.775V7.49h2.971ZM55.6,5.029a1.334,1.334,0,0,1,.457-1.043,1.934,1.934,0,0,1,2.373,0,1.334,1.334,0,0,1,.457,1.043,1.334,1.334,0,0,1-.457,1.043,1.934,1.934,0,0,1-2.373,0A1.334,1.334,0,0,1,55.6,5.029Zm4.6,7.128a5.613,5.613,0,0,1,.554-2.536A3.96,3.96,0,0,1,62.34,7.912a4.791,4.791,0,0,1,2.435-.6,4.373,4.373,0,0,1,3.366,1.323,5.076,5.076,0,0,1,1.23,3.6v.105a4.925,4.925,0,0,1-1.235,3.529,4.384,4.384,0,0,1-3.344,1.305,4.434,4.434,0,0,1-3.261-1.217,4.761,4.761,0,0,1-1.327-3.3Zm2.962.185a3.538,3.538,0,0,0,.413,1.934,1.376,1.376,0,0,0,1.222.615q1.582,0,1.617-2.435v-.3q0-2.558-1.635-2.558-1.485,0-1.608,2.206ZM65.179,3.5h3.129L65.864,6.26l-2.417,0ZM73.4,7.49l.1,1.116a3.225,3.225,0,0,1,2.716-1.292,2.713,2.713,0,0,1,2.219.888,4.226,4.226,0,0,1,.76,2.672V17H76.218V11a1.6,1.6,0,0,0-.29-1.059A1.342,1.342,0,0,0,74.873,9.6a1.413,1.413,0,0,0-1.292.686V17H70.619V7.49Zm16.515,9.686a4.889,4.889,0,0,1-3.542-1.305,4.507,4.507,0,0,1-1.354-3.4v-.246a5.84,5.84,0,0,1,.541-2.575,3.955,3.955,0,0,1,1.578-1.727,4.763,4.763,0,0,1,2.461-.611,4.117,4.117,0,0,1,3.164,1.244,4.887,4.887,0,0,1,1.16,3.467v1.151H88.03a2.135,2.135,0,0,0,.694,1.257,2.066,2.066,0,0,0,1.389.457,2.662,2.662,0,0,0,2.2-.984l1.354,1.6A3.784,3.784,0,0,1,92.1,16.723,5.3,5.3,0,0,1,89.911,17.176ZM89.577,9.6q-1.3,0-1.547,1.723h2.988v-.229a1.467,1.467,0,0,0-.36-1.1A1.434,1.434,0,0,0,89.577,9.6ZM97.83,7.49l.1,1.116a3.225,3.225,0,0,1,2.716-1.292,2.713,2.713,0,0,1,2.219.888,4.226,4.226,0,0,1,.76,2.672V17h-2.971V11a1.6,1.6,0,0,0-.29-1.059A1.342,1.342,0,0,0,99.307,9.6a1.413,1.413,0,0,0-1.292.686V17H95.053V7.49Zm10.881-2.364V7.49h1.564V9.547h-1.564V13.9a1.111,1.111,0,0,0,.193.747,1.037,1.037,0,0,0,.765.211,4.345,4.345,0,0,0,.738-.053v2.118a5.466,5.466,0,0,1-1.67.255,3.1,3.1,0,0,1-2.259-.721,2.954,2.954,0,0,1-.729-2.188V9.547h-1.213V7.49h1.213V5.126Zm8.481,5.045-.976-.07a1.752,1.752,0,0,0-1.793.879V17h-2.962V7.49h2.777l.1,1.222a2.294,2.294,0,0,1,2.083-1.4,2.888,2.888,0,0,1,.826.105Zm5.5,7a4.889,4.889,0,0,1-3.542-1.305,4.507,4.507,0,0,1-1.354-3.4v-.246a5.84,5.84,0,0,1,.541-2.575,3.955,3.955,0,0,1,1.578-1.727,4.763,4.763,0,0,1,2.461-.611,4.117,4.117,0,0,1,3.164,1.244,4.887,4.887,0,0,1,1.16,3.467v1.151h-5.889a2.135,2.135,0,0,0,.694,1.257,2.066,2.066,0,0,0,1.389.457,2.662,2.662,0,0,0,2.2-.984l1.354,1.6a3.784,3.784,0,0,1-1.569,1.217A5.3,5.3,0,0,1,122.695,17.176ZM122.361,9.6q-1.3,0-1.547,1.723H123.8v-.229a1.467,1.467,0,0,0-.36-1.1A1.434,1.434,0,0,0,122.361,9.6ZM13.293,32.49l.1,1.116a3.27,3.27,0,0,1,2.716-1.292,2.407,2.407,0,0,1,2.435,1.433,3.165,3.165,0,0,1,2.795-1.433q2.892,0,2.971,3.5V42H21.335V36a1.813,1.813,0,0,0-.246-1.063,1.048,1.048,0,0,0-.9-.334,1.4,1.4,0,0,0-1.31.782l.009.123V42H15.921V36.015a1.906,1.906,0,0,0-.237-1.081,1.045,1.045,0,0,0-.905-.334,1.42,1.42,0,0,0-1.3.782V42H10.515V32.49ZM30.6,42.176a4.889,4.889,0,0,1-3.542-1.305,4.507,4.507,0,0,1-1.354-3.4v-.246a5.84,5.84,0,0,1,.541-2.575,3.955,3.955,0,0,1,1.578-1.727,4.763,4.763,0,0,1,2.461-.611,4.117,4.117,0,0,1,3.164,1.244,4.887,4.887,0,0,1,1.16,3.467v1.151H28.717a2.135,2.135,0,0,0,.694,1.257,2.066,2.066,0,0,0,1.389.457,2.662,2.662,0,0,0,2.2-.984l1.354,1.6a3.784,3.784,0,0,1-1.569,1.217A5.3,5.3,0,0,1,30.6,42.176ZM30.264,34.6q-1.3,0-1.547,1.723h2.988v-.229a1.467,1.467,0,0,0-.36-1.1A1.434,1.434,0,0,0,30.264,34.6Zm11.285.571-.976-.07a1.752,1.752,0,0,0-1.793.879V42H35.819V32.49H38.6l.1,1.222a2.294,2.294,0,0,1,2.083-1.4,2.888,2.888,0,0,1,.826.105Zm4.922,4.72a1.317,1.317,0,0,0,.967-.338,1.241,1.241,0,0,0,.334-.945h2.777a3.288,3.288,0,0,1-1.121,2.566,4.168,4.168,0,0,1-2.887,1,4.22,4.22,0,0,1-3.27-1.3,5.125,5.125,0,0,1-1.2-3.6v-.123a5.792,5.792,0,0,1,.532-2.544,3.872,3.872,0,0,1,1.534-1.7,4.573,4.573,0,0,1,2.373-.593,4.116,4.116,0,0,1,2.944,1.028,3.647,3.647,0,0,1,1.09,2.786H47.772A1.626,1.626,0,0,0,47.412,35a1.244,1.244,0,0,0-.967-.4q-1.151,0-1.345,1.468a10.357,10.357,0,0,0-.062,1.283,4.068,4.068,0,0,0,.343,1.986A1.187,1.187,0,0,0,46.471,39.891ZM57.159,42a3.344,3.344,0,0,1-.281-.853,2.754,2.754,0,0,1-2.285,1.028,3.374,3.374,0,0,1-2.285-.813,2.588,2.588,0,0,1-.94-2.043,2.66,2.66,0,0,1,1.143-2.338,5.821,5.821,0,0,1,3.322-.791h.914v-.5q0-1.316-1.134-1.316a.927.927,0,0,0-1.055,1.042H51.6a2.655,2.655,0,0,1,1.173-2.239,4.931,4.931,0,0,1,2.993-.86,4.323,4.323,0,0,1,2.874.888,3.086,3.086,0,0,1,1.081,2.435v4.21a4.311,4.311,0,0,0,.4,2V42ZM55.3,40.066a1.652,1.652,0,0,0,.918-.237,1.487,1.487,0,0,0,.523-.536V37.772h-.861q-1.547,0-1.547,1.389a.848.848,0,0,0,.272.655A.986.986,0,0,0,55.3,40.066Zm5.678-2.892a5.809,5.809,0,0,1,.976-3.56,3.211,3.211,0,0,1,2.725-1.3,2.731,2.731,0,0,1,2.145,1V28.5H69.8V42H67.134l-.149-1.02a2.8,2.8,0,0,1-2.32,1.2,3.205,3.205,0,0,1-2.689-1.3A5.993,5.993,0,0,1,60.982,37.175Zm2.962.185q0,2.531,1.477,2.531a1.458,1.458,0,0,0,1.406-.826V35.443a1.419,1.419,0,0,0-1.389-.844q-1.371,0-1.485,2.215Zm7.163-.2a5.613,5.613,0,0,1,.554-2.536,3.96,3.96,0,0,1,1.591-1.709,4.791,4.791,0,0,1,2.435-.6,4.373,4.373,0,0,1,3.366,1.323,5.076,5.076,0,0,1,1.23,3.6v.105a4.925,4.925,0,0,1-1.235,3.529A4.384,4.384,0,0,1,75.7,42.176a4.434,4.434,0,0,1-3.261-1.217,4.761,4.761,0,0,1-1.327-3.3Zm2.962.185a3.538,3.538,0,0,0,.413,1.934,1.376,1.376,0,0,0,1.222.615q1.582,0,1.617-2.435v-.3q0-2.558-1.635-2.558-1.485,0-1.608,2.206ZM89.52,30.126V32.49h1.564v2.057H89.52V38.9a1.111,1.111,0,0,0,.193.747,1.037,1.037,0,0,0,.765.211,4.345,4.345,0,0,0,.738-.053v2.118a5.466,5.466,0,0,1-1.67.255,3.1,3.1,0,0,1-2.259-.721,2.954,2.954,0,0,1-.729-2.188v-4.72H85.345V32.49h1.213V30.126Zm2.092,7.031a5.613,5.613,0,0,1,.554-2.536,3.96,3.96,0,0,1,1.591-1.709,4.791,4.791,0,0,1,2.435-.6,4.373,4.373,0,0,1,3.366,1.323,5.076,5.076,0,0,1,1.23,3.6v.105a4.925,4.925,0,0,1-1.235,3.529,4.384,4.384,0,0,1-3.344,1.305,4.434,4.434,0,0,1-3.261-1.217,4.761,4.761,0,0,1-1.327-3.3Zm2.962.185a3.538,3.538,0,0,0,.413,1.934,1.376,1.376,0,0,0,1.222.615q1.582,0,1.617-2.435v-.3q0-2.558-1.635-2.558-1.485,0-1.608,2.206Zm10.969-7.216V32.49h1.564v2.057h-1.564V38.9a1.111,1.111,0,0,0,.193.747,1.037,1.037,0,0,0,.765.211,4.345,4.345,0,0,0,.738-.053v2.118a5.466,5.466,0,0,1-1.67.255,3.1,3.1,0,0,1-2.259-.721,2.954,2.954,0,0,1-.729-2.188v-4.72h-1.213V32.49h1.213V30.126ZM113.629,42a3.344,3.344,0,0,1-.281-.853,2.754,2.754,0,0,1-2.285,1.028,3.374,3.374,0,0,1-2.285-.813,2.588,2.588,0,0,1-.94-2.043,2.66,2.66,0,0,1,1.143-2.338,5.821,5.821,0,0,1,3.322-.791h.914v-.5q0-1.316-1.134-1.316a.927.927,0,0,0-1.055,1.042h-2.962a2.655,2.655,0,0,1,1.173-2.239,4.931,4.931,0,0,1,2.993-.86,4.323,4.323,0,0,1,2.874.888,3.086,3.086,0,0,1,1.081,2.435v4.21a4.311,4.311,0,0,0,.4,2V42Zm-1.854-1.934a1.652,1.652,0,0,0,.918-.237,1.487,1.487,0,0,0,.523-.536V37.772h-.861q-1.547,0-1.547,1.389a.848.848,0,0,0,.272.655A.986.986,0,0,0,111.774,40.066ZM120.95,42h-2.971V28.5h2.971Zm2.865,3.445-1.494-.7.3-.6a4.874,4.874,0,0,0,.642-2.18v-2.2h2.373l-.009,1.907a4.767,4.767,0,0,1-.519,2.057A5.226,5.226,0,0,1,123.815,45.445ZM36.311,57.49l.1,1.116a3.27,3.27,0,0,1,2.716-1.292,2.407,2.407,0,0,1,2.435,1.433,3.165,3.165,0,0,1,2.795-1.433q2.892,0,2.971,3.5V67H44.353V61a1.813,1.813,0,0,0-.246-1.063,1.048,1.048,0,0,0-.9-.334,1.4,1.4,0,0,0-1.31.782l.009.123V67H38.939V61.015a1.906,1.906,0,0,0-.237-1.081A1.045,1.045,0,0,0,37.8,59.6a1.42,1.42,0,0,0-1.3.782V67H33.534V57.49Zm17.306,9.686a4.889,4.889,0,0,1-3.542-1.305,4.507,4.507,0,0,1-1.354-3.4v-.246a5.84,5.84,0,0,1,.541-2.575,3.955,3.955,0,0,1,1.578-1.727,4.763,4.763,0,0,1,2.461-.611,4.117,4.117,0,0,1,3.164,1.244,4.887,4.887,0,0,1,1.16,3.467v1.151H51.736a2.135,2.135,0,0,0,.694,1.257,2.066,2.066,0,0,0,1.389.457,2.662,2.662,0,0,0,2.2-.984l1.354,1.6A3.784,3.784,0,0,1,55.8,66.723,5.3,5.3,0,0,1,53.617,67.176ZM53.283,59.6q-1.3,0-1.547,1.723h2.988v-.229a1.467,1.467,0,0,0-.36-1.1A1.434,1.434,0,0,0,53.283,59.6Zm11.285.571-.976-.07a1.752,1.752,0,0,0-1.793.879V67H58.838V57.49h2.777l.1,1.222a2.294,2.294,0,0,1,2.083-1.4,2.888,2.888,0,0,1,.826.105Zm4.922,4.72a1.317,1.317,0,0,0,.967-.338,1.241,1.241,0,0,0,.334-.945h2.777a3.288,3.288,0,0,1-1.121,2.566,4.168,4.168,0,0,1-2.887,1,4.22,4.22,0,0,1-3.27-1.3,5.125,5.125,0,0,1-1.2-3.6v-.123a5.792,5.792,0,0,1,.532-2.544,3.872,3.872,0,0,1,1.534-1.7,4.573,4.573,0,0,1,2.373-.593,4.116,4.116,0,0,1,2.944,1.028,3.647,3.647,0,0,1,1.09,2.786H70.791A1.626,1.626,0,0,0,70.43,60a1.244,1.244,0,0,0-.967-.4q-1.151,0-1.345,1.468a10.357,10.357,0,0,0-.062,1.283,4.068,4.068,0,0,0,.343,1.986A1.187,1.187,0,0,0,69.49,64.891ZM80.177,67a3.344,3.344,0,0,1-.281-.853,2.754,2.754,0,0,1-2.285,1.028,3.374,3.374,0,0,1-2.285-.813,2.588,2.588,0,0,1-.94-2.043,2.66,2.66,0,0,1,1.143-2.338,5.821,5.821,0,0,1,3.322-.791h.914v-.5q0-1.316-1.134-1.316a.927.927,0,0,0-1.055,1.042H74.614a2.655,2.655,0,0,1,1.173-2.239,4.931,4.931,0,0,1,2.993-.86,4.323,4.323,0,0,1,2.874.888,3.086,3.086,0,0,1,1.081,2.435v4.21a4.311,4.311,0,0,0,.4,2V67Zm-1.854-1.934a1.652,1.652,0,0,0,.918-.237,1.487,1.487,0,0,0,.523-.536V62.772H78.9q-1.547,0-1.547,1.389a.848.848,0,0,0,.272.655A.986.986,0,0,0,78.323,65.066ZM84,62.175a5.809,5.809,0,0,1,.976-3.56,3.211,3.211,0,0,1,2.725-1.3,2.731,2.731,0,0,1,2.145,1V53.5h2.971V67H90.153L90,65.98a2.8,2.8,0,0,1-2.32,1.2,3.205,3.205,0,0,1-2.689-1.3A5.993,5.993,0,0,1,84,62.175Zm2.962.185q0,2.531,1.477,2.531a1.458,1.458,0,0,0,1.406-.826V60.443a1.419,1.419,0,0,0-1.389-.844q-1.371,0-1.485,2.215Zm7.163-.2a5.613,5.613,0,0,1,.554-2.536,3.96,3.96,0,0,1,1.591-1.709,4.791,4.791,0,0,1,2.435-.6,4.373,4.373,0,0,1,3.366,1.323,5.076,5.076,0,0,1,1.23,3.6v.105a4.925,4.925,0,0,1-1.235,3.529,4.384,4.384,0,0,1-3.344,1.305,4.434,4.434,0,0,1-3.261-1.217,4.761,4.761,0,0,1-1.327-3.3Zm2.962.185a3.538,3.538,0,0,0,.413,1.934,1.376,1.376,0,0,0,1.222.615q1.582,0,1.617-2.435v-.3q0-2.558-1.635-2.558-1.485,0-1.608,2.206ZM33.4,87.315a5.735,5.735,0,0,1-1,3.538,3.2,3.2,0,0,1-2.694,1.323,2.742,2.742,0,0,1-2.153-.958v4.438H24.591V82.49H27.36l.088.879a2.742,2.742,0,0,1,2.241-1.055,3.224,3.224,0,0,1,2.733,1.3,5.805,5.805,0,0,1,.976,3.564Zm-2.962-.185q0-2.531-1.477-2.531a1.394,1.394,0,0,0-1.406.756V89.1a1.439,1.439,0,0,0,1.424.791q1.415,0,1.459-2.443Zm3.894.026a5.613,5.613,0,0,1,.554-2.536,3.96,3.96,0,0,1,1.591-1.709,4.791,4.791,0,0,1,2.435-.6,4.373,4.373,0,0,1,3.366,1.323,5.076,5.076,0,0,1,1.23,3.6v.105a4.925,4.925,0,0,1-1.235,3.529,4.384,4.384,0,0,1-3.344,1.305,4.434,4.434,0,0,1-3.261-1.217,4.761,4.761,0,0,1-1.327-3.3Zm2.962.185a3.538,3.538,0,0,0,.413,1.934,1.376,1.376,0,0,0,1.222.615q1.582,0,1.617-2.435v-.3q0-2.558-1.635-2.558-1.485,0-1.608,2.206ZM48.26,80.126V82.49h1.564v2.057H48.26V88.9a1.111,1.111,0,0,0,.193.747,1.037,1.037,0,0,0,.765.211,4.345,4.345,0,0,0,.738-.053v2.118a5.466,5.466,0,0,1-1.67.255,3.1,3.1,0,0,1-2.259-.721,2.954,2.954,0,0,1-.729-2.188v-4.72H44.085V82.49H45.3V80.126Zm7.33,12.05a4.889,4.889,0,0,1-3.542-1.305,4.507,4.507,0,0,1-1.354-3.4v-.246a5.84,5.84,0,0,1,.541-2.575,3.955,3.955,0,0,1,1.578-1.727,4.763,4.763,0,0,1,2.461-.611,4.117,4.117,0,0,1,3.164,1.244,4.887,4.887,0,0,1,1.16,3.467v1.151H53.709a2.135,2.135,0,0,0,.694,1.257,2.066,2.066,0,0,0,1.389.457,2.662,2.662,0,0,0,2.2-.984l1.354,1.6a3.784,3.784,0,0,1-1.569,1.217A5.3,5.3,0,0,1,55.59,92.176ZM55.256,84.6q-1.3,0-1.547,1.723H56.7v-.229a1.467,1.467,0,0,0-.36-1.1A1.434,1.434,0,0,0,55.256,84.6Zm8.253-2.109.1,1.116a3.225,3.225,0,0,1,2.716-1.292,2.713,2.713,0,0,1,2.219.888,4.226,4.226,0,0,1,.76,2.672V92H66.33V86a1.6,1.6,0,0,0-.29-1.059,1.342,1.342,0,0,0-1.055-.338,1.413,1.413,0,0,0-1.292.686V92H60.732V82.49Zm11.452,7.4a1.317,1.317,0,0,0,.967-.338,1.241,1.241,0,0,0,.334-.945h2.777a3.288,3.288,0,0,1-1.121,2.566,4.168,4.168,0,0,1-2.887,1,4.22,4.22,0,0,1-3.27-1.3,5.125,5.125,0,0,1-1.2-3.6v-.123A5.792,5.792,0,0,1,71.1,84.6a3.872,3.872,0,0,1,1.534-1.7,4.573,4.573,0,0,1,2.373-.593,4.116,4.116,0,0,1,2.944,1.028,3.647,3.647,0,0,1,1.09,2.786H76.262A1.626,1.626,0,0,0,75.9,85a1.244,1.244,0,0,0-.967-.4q-1.151,0-1.345,1.468a10.357,10.357,0,0,0-.062,1.283,4.068,4.068,0,0,0,.343,1.986A1.187,1.187,0,0,0,74.961,89.891ZM83.416,92H80.445V82.49h2.971ZM80.27,80.029a1.334,1.334,0,0,1,.457-1.043,1.934,1.934,0,0,1,2.373,0,1.42,1.42,0,0,1,0,2.087,1.934,1.934,0,0,1-2.373,0A1.334,1.334,0,0,1,80.27,80.029ZM90.6,92a3.344,3.344,0,0,1-.281-.853,2.754,2.754,0,0,1-2.285,1.028,3.374,3.374,0,0,1-2.285-.813,2.588,2.588,0,0,1-.94-2.043,2.66,2.66,0,0,1,1.143-2.338,5.821,5.821,0,0,1,3.322-.791h.914v-.5q0-1.316-1.134-1.316A.927.927,0,0,0,88,85.413H85.033a2.655,2.655,0,0,1,1.173-2.239,4.931,4.931,0,0,1,2.993-.86,4.323,4.323,0,0,1,2.874.888,3.086,3.086,0,0,1,1.081,2.435v4.21a4.311,4.311,0,0,0,.4,2V92Zm-1.854-1.934a1.652,1.652,0,0,0,.918-.237,1.487,1.487,0,0,0,.523-.536V87.772h-.861q-1.547,0-1.547,1.389a.848.848,0,0,0,.272.655A.986.986,0,0,0,88.742,90.066ZM97.918,92H94.947V78.5h2.971Zm10.107-4.148,1.582-5.361h3.173l-3.876,11.1-.167.4a2.944,2.944,0,0,1-2.918,1.846,4.642,4.642,0,0,1-1.222-.175v-2.11h.387a2.026,2.026,0,0,0,.954-.18,1.094,1.094,0,0,0,.488-.647l.237-.633-3.3-9.605h3.164ZM18.592,107.49l.1,1.116a3.27,3.27,0,0,1,2.716-1.292,2.407,2.407,0,0,1,2.435,1.433,3.165,3.165,0,0,1,2.795-1.433q2.892,0,2.971,3.5V117H26.634v-6a1.813,1.813,0,0,0-.246-1.063,1.048,1.048,0,0,0-.9-.334,1.4,1.4,0,0,0-1.31.782l.009.123V117H21.22v-5.985a1.906,1.906,0,0,0-.237-1.081,1.045,1.045,0,0,0-.905-.334,1.42,1.42,0,0,0-1.3.782V117H15.815v-9.51ZM35.9,117.176a4.889,4.889,0,0,1-3.542-1.305,4.507,4.507,0,0,1-1.354-3.4v-.246a5.84,5.84,0,0,1,.541-2.575,3.955,3.955,0,0,1,1.578-1.727,4.763,4.763,0,0,1,2.461-.611,4.117,4.117,0,0,1,3.164,1.244,4.887,4.887,0,0,1,1.16,3.467v1.151H34.017a2.135,2.135,0,0,0,.694,1.257,2.066,2.066,0,0,0,1.389.457,2.662,2.662,0,0,0,2.2-.984l1.354,1.6a3.784,3.784,0,0,1-1.569,1.217A5.3,5.3,0,0,1,35.9,117.176Zm-.334-7.576q-1.3,0-1.547,1.723h2.988v-.229a1.467,1.467,0,0,0-.36-1.1A1.434,1.434,0,0,0,35.564,109.6Zm11.285.571-.976-.07a1.752,1.752,0,0,0-1.793.879V117H41.119v-9.51H43.9l.1,1.222a2.294,2.294,0,0,1,2.083-1.4,2.888,2.888,0,0,1,.826.105Zm4.922,4.72a1.317,1.317,0,0,0,.967-.338,1.241,1.241,0,0,0,.334-.945h2.777a3.288,3.288,0,0,1-1.121,2.566,4.168,4.168,0,0,1-2.887,1,4.22,4.22,0,0,1-3.27-1.3,5.125,5.125,0,0,1-1.2-3.6v-.123a5.792,5.792,0,0,1,.532-2.544,3.872,3.872,0,0,1,1.534-1.7,4.573,4.573,0,0,1,2.373-.593,4.116,4.116,0,0,1,2.944,1.028,3.647,3.647,0,0,1,1.09,2.786H53.072a1.626,1.626,0,0,0-.36-1.134,1.244,1.244,0,0,0-.967-.4q-1.151,0-1.345,1.468a10.357,10.357,0,0,0-.062,1.283,4.068,4.068,0,0,0,.343,1.986A1.187,1.187,0,0,0,51.771,114.891ZM62.459,117a3.344,3.344,0,0,1-.281-.853,2.754,2.754,0,0,1-2.285,1.028,3.374,3.374,0,0,1-2.285-.813,2.588,2.588,0,0,1-.94-2.043,2.66,2.66,0,0,1,1.143-2.338,5.821,5.821,0,0,1,3.322-.791h.914v-.5q0-1.316-1.134-1.316a.927.927,0,0,0-1.055,1.042H56.9a2.655,2.655,0,0,1,1.173-2.239,4.931,4.931,0,0,1,2.993-.86,4.323,4.323,0,0,1,2.874.888,3.086,3.086,0,0,1,1.081,2.435v4.21a4.311,4.311,0,0,0,.4,2V117ZM60.6,115.066a1.652,1.652,0,0,0,.918-.237,1.487,1.487,0,0,0,.523-.536v-1.521h-.861q-1.547,0-1.547,1.389a.848.848,0,0,0,.272.655A.986.986,0,0,0,60.6,115.066Zm5.678-2.892a5.809,5.809,0,0,1,.976-3.56,3.211,3.211,0,0,1,2.725-1.3,2.731,2.731,0,0,1,2.145,1V103.5H75.1V117H72.434l-.149-1.02a2.8,2.8,0,0,1-2.32,1.2,3.205,3.205,0,0,1-2.689-1.3A5.993,5.993,0,0,1,66.282,112.175Zm2.962.185q0,2.531,1.477,2.531a1.458,1.458,0,0,0,1.406-.826v-3.621a1.419,1.419,0,0,0-1.389-.844q-1.371,0-1.485,2.215Zm7.163-.2a5.613,5.613,0,0,1,.554-2.536,3.96,3.96,0,0,1,1.591-1.709,4.791,4.791,0,0,1,2.435-.6,4.373,4.373,0,0,1,3.366,1.323,5.076,5.076,0,0,1,1.23,3.6v.105a4.925,4.925,0,0,1-1.235,3.529A4.384,4.384,0,0,1,81,117.176a4.434,4.434,0,0,1-3.261-1.217,4.761,4.761,0,0,1-1.327-3.3Zm2.962.185a3.538,3.538,0,0,0,.413,1.934,1.376,1.376,0,0,0,1.222.615q1.582,0,1.617-2.435v-.3q0-2.558-1.635-2.558-1.485,0-1.608,2.206Zm17.754-2.171-.976-.07a1.752,1.752,0,0,0-1.793.879V117H91.392v-9.51H94.17l.1,1.222a2.294,2.294,0,0,1,2.083-1.4,2.888,2.888,0,0,1,.826.105Zm5.5,7a4.889,4.889,0,0,1-3.542-1.305,4.507,4.507,0,0,1-1.354-3.4v-.246a5.84,5.84,0,0,1,.541-2.575,3.955,3.955,0,0,1,1.578-1.727,4.763,4.763,0,0,1,2.461-.611,4.117,4.117,0,0,1,3.164,1.244,4.887,4.887,0,0,1,1.16,3.467v1.151h-5.889a2.135,2.135,0,0,0,.694,1.257,2.066,2.066,0,0,0,1.389.457,2.662,2.662,0,0,0,2.2-.984l1.354,1.6a3.784,3.784,0,0,1-1.569,1.217A5.3,5.3,0,0,1,102.625,117.176Zm-.334-7.576q-1.3,0-1.547,1.723h2.988v-.229a1.467,1.467,0,0,0-.36-1.1A1.434,1.434,0,0,0,102.291,109.6Zm10.89,7.4a3.344,3.344,0,0,1-.281-.853,2.754,2.754,0,0,1-2.285,1.028,3.374,3.374,0,0,1-2.285-.813,2.588,2.588,0,0,1-.94-2.043,2.66,2.66,0,0,1,1.143-2.338,5.821,5.821,0,0,1,3.322-.791h.914v-.5q0-1.316-1.134-1.316a.927.927,0,0,0-1.055,1.042h-2.962a2.655,2.655,0,0,1,1.173-2.239,4.931,4.931,0,0,1,2.993-.86,4.323,4.323,0,0,1,2.874.888,3.086,3.086,0,0,1,1.081,2.435v4.21a4.311,4.311,0,0,0,.4,2V117Zm-1.854-1.934a1.652,1.652,0,0,0,.918-.237,1.487,1.487,0,0,0,.523-.536v-1.521h-.861q-1.547,0-1.547,1.389a.848.848,0,0,0,.272.655A.986.986,0,0,0,111.326,115.066ZM120.5,117h-2.971V103.5H120.5Z" transform="translate(688.434 6353.595)" fill="#12263f"/>
    <g id="Grupo_91859" data-name="Grupo 91859" transform="translate(801.913 6586.259)">
      <g id="Grupo_91855" data-name="Grupo 91855" transform="translate(33.217 30.594)">
        <path id="Trazado_147609" data-name="Trazado 147609" d="M27.589,46.4A13.238,13.238,0,1,1,40.827,33.161,13.255,13.255,0,0,1,27.589,46.4Zm0-23.525A10.287,10.287,0,1,0,37.876,33.161,10.3,10.3,0,0,0,27.589,22.874Z" transform="translate(-14.351 -19.923)" fill="#05dbf2"/>
      </g>
      <g id="Grupo_91856" data-name="Grupo 91856" transform="translate(13.154 0)">
        <path id="Trazado_147610" data-name="Trazado 147610" d="M26.049,44.568A14.329,14.329,0,1,1,40.377,30.24,14.341,14.341,0,0,1,26.049,44.568Zm0-25.706A11.377,11.377,0,1,0,37.426,30.24,11.387,11.387,0,0,0,26.049,18.862Z" transform="translate(-11.72 -15.911)" fill="#05dbf2"/>
      </g>
      <g id="Grupo_91857" data-name="Grupo 91857" transform="translate(0 20.33)">
        <path id="Trazado_147611" data-name="Trazado 147611" d="M46.972,50.46h-35.5A1.474,1.474,0,0,1,10,48.988V43.871A27.5,27.5,0,0,1,26.466,18.7a1.481,1.481,0,0,1,1.792.5,11.31,11.31,0,0,0,18.439,0,1.486,1.486,0,0,1,1.792-.5A27.729,27.729,0,0,1,61.216,30.16,1.481,1.481,0,0,1,59.5,32.318a9.98,9.98,0,0,0-3.05-.526,10.255,10.255,0,0,0-8.289,16.326,1.466,1.466,0,0,1-1.19,2.341ZM12.946,47.509H44.4a12.921,12.921,0,0,1-1.19-5.429A13.255,13.255,0,0,1,56.45,28.841l.328.008a24.7,24.7,0,0,0-8.449-6.962,14.251,14.251,0,0,1-21.71,0A24.528,24.528,0,0,0,12.946,43.871Z" transform="translate(-9.995 -18.577)" fill="#05dbf2"/>
      </g>
      <g id="Grupo_91858" data-name="Grupo 91858" transform="translate(40.171 38.006)">
        <path id="Trazado_147612" data-name="Trazado 147612" d="M20.609,32.547a1.461,1.461,0,0,1-1.2-.61l-3.866-5.3A1.476,1.476,0,1,1,17.933,24.9l2.616,3.584,4.575-6.924a1.477,1.477,0,1,1,2.463,1.632l-5.75,8.693a1.471,1.471,0,0,1-1.2.663Z" transform="translate(-15.263 -20.895)" fill="#05dbf2"/>
      </g>
    </g>
    <path id="Trazado_149105" data-name="Trazado 149105" d="M17.345,3.625l3.719,9.281,3.719-9.281h1.945V15h-1.5V10.57l.141-4.781L21.634,15H20.485L16.759,5.813l.148,4.758V15h-1.5V3.625ZM32.657,15.156a3.693,3.693,0,0,1-2.8-1.129,4.19,4.19,0,0,1-1.078-3.02v-.266a5.073,5.073,0,0,1,.48-2.246,3.748,3.748,0,0,1,1.344-1.547,3.378,3.378,0,0,1,1.871-.559A3.166,3.166,0,0,1,35.04,7.477a4.7,4.7,0,0,1,.914,3.109v.6H30.227a3,3,0,0,0,.73,2.02,2.3,2.3,0,0,0,1.777.77,2.517,2.517,0,0,0,1.3-.312,3.259,3.259,0,0,0,.93-.828l.883.688A3.55,3.55,0,0,1,32.657,15.156Zm-.18-7.578a1.928,1.928,0,0,0-1.469.637A3.1,3.1,0,0,0,30.274,10h4.234V9.891a2.753,2.753,0,0,0-.594-1.707A1.815,1.815,0,0,0,32.477,7.578Zm9.234.266A4.331,4.331,0,0,0,41,7.789,1.9,1.9,0,0,0,39.071,9v6H37.626V6.547h1.406l.023.977a2.251,2.251,0,0,1,2.016-1.133,1.477,1.477,0,0,1,.641.109Zm4.57,6.133a2.082,2.082,0,0,0,1.352-.469,1.649,1.649,0,0,0,.641-1.172h1.367a2.621,2.621,0,0,1-.5,1.383,3.293,3.293,0,0,1-1.23,1.047,3.55,3.55,0,0,1-1.629.391A3.482,3.482,0,0,1,43.536,14a4.59,4.59,0,0,1-1.02-3.152v-.242a5.089,5.089,0,0,1,.453-2.2,3.451,3.451,0,0,1,1.3-1.492,3.7,3.7,0,0,1,2-.531,3.39,3.39,0,0,1,2.363.852,3.043,3.043,0,0,1,1,2.211H48.274a1.992,1.992,0,0,0-.621-1.348,1.932,1.932,0,0,0-1.379-.527,2.023,2.023,0,0,0-1.707.793,3.724,3.724,0,0,0-.605,2.293v.273a3.65,3.65,0,0,0,.6,2.25A2.033,2.033,0,0,0,46.282,13.977ZM56.485,15a3.036,3.036,0,0,1-.2-.891,3.225,3.225,0,0,1-2.406,1.047,2.984,2.984,0,0,1-2.051-.707,2.287,2.287,0,0,1-.8-1.793,2.39,2.39,0,0,1,1-2.051,4.733,4.733,0,0,1,2.824-.73h1.406V9.211A1.623,1.623,0,0,0,55.805,8a1.821,1.821,0,0,0-1.336-.449,2.107,2.107,0,0,0-1.3.391,1.151,1.151,0,0,0-.523.945H51.2a2,2,0,0,1,.449-1.223,3.066,3.066,0,0,1,1.219-.934,4.1,4.1,0,0,1,1.691-.344,3.342,3.342,0,0,1,2.289.73A2.635,2.635,0,0,1,57.7,9.133v3.891a4.757,4.757,0,0,0,.3,1.852V15Zm-2.4-1.1a2.54,2.54,0,0,0,1.289-.352,2.127,2.127,0,0,0,.883-.914V10.9H55.126q-2.656,0-2.656,1.555a1.316,1.316,0,0,0,.453,1.063A1.742,1.742,0,0,0,54.087,13.9Zm5.531-3.2a4.952,4.952,0,0,1,.922-3.129,3.137,3.137,0,0,1,4.766-.168V3h1.445V15H65.423l-.07-.906a2.943,2.943,0,0,1-2.414,1.063,2.887,2.887,0,0,1-2.395-1.2,5.008,5.008,0,0,1-.926-3.141Zm1.445.164a3.749,3.749,0,0,0,.594,2.25,1.92,1.92,0,0,0,1.641.813A2.108,2.108,0,0,0,65.305,12.7V8.813a2.125,2.125,0,0,0-1.992-1.2,1.929,1.929,0,0,0-1.656.82A4.128,4.128,0,0,0,61.063,10.867ZM68.61,10.7A4.993,4.993,0,0,1,69.1,8.461,3.643,3.643,0,0,1,70.458,6.93a3.7,3.7,0,0,1,1.988-.539,3.565,3.565,0,0,1,2.793,1.2,4.6,4.6,0,0,1,1.066,3.18v.1a5.036,5.036,0,0,1-.473,2.215,3.589,3.589,0,0,1-1.352,1.527,3.743,3.743,0,0,1-2.02.547,3.556,3.556,0,0,1-2.785-1.2A4.575,4.575,0,0,1,68.61,10.8Zm1.453.172a3.616,3.616,0,0,0,.652,2.258,2.211,2.211,0,0,0,3.5-.012A3.955,3.955,0,0,0,74.86,10.7a3.61,3.61,0,0,0-.66-2.254,2.1,2.1,0,0,0-1.754-.863,2.075,2.075,0,0,0-1.727.852A3.925,3.925,0,0,0,70.063,10.867Zm16.1-3.023a4.331,4.331,0,0,0-.711-.055A1.9,1.9,0,0,0,83.524,9v6H82.079V6.547h1.406l.023.977a2.251,2.251,0,0,1,2.016-1.133,1.477,1.477,0,0,1,.641.109Zm4.688,7.313a3.693,3.693,0,0,1-2.8-1.129,4.19,4.19,0,0,1-1.078-3.02v-.266a5.073,5.073,0,0,1,.48-2.246A3.748,3.748,0,0,1,88.8,6.949a3.378,3.378,0,0,1,1.871-.559,3.166,3.166,0,0,1,2.563,1.086,4.7,4.7,0,0,1,.914,3.109v.6H88.423a3,3,0,0,0,.73,2.02,2.3,2.3,0,0,0,1.777.77,2.517,2.517,0,0,0,1.3-.312,3.259,3.259,0,0,0,.93-.828l.883.688A3.55,3.55,0,0,1,90.852,15.156Zm-.18-7.578a1.928,1.928,0,0,0-1.469.637A3.1,3.1,0,0,0,88.47,10H92.7V9.891a2.753,2.753,0,0,0-.594-1.707A1.815,1.815,0,0,0,90.673,7.578ZM101.04,15a3.036,3.036,0,0,1-.2-.891,3.225,3.225,0,0,1-2.406,1.047,2.984,2.984,0,0,1-2.051-.707,2.288,2.288,0,0,1-.8-1.793,2.39,2.39,0,0,1,1-2.051,4.733,4.733,0,0,1,2.824-.73h1.406V9.211A1.623,1.623,0,0,0,100.36,8a1.821,1.821,0,0,0-1.336-.449,2.108,2.108,0,0,0-1.3.391,1.151,1.151,0,0,0-.523.945H95.751A2,2,0,0,1,96.2,7.668a3.066,3.066,0,0,1,1.219-.934,4.1,4.1,0,0,1,1.691-.344,3.342,3.342,0,0,1,2.289.73,2.635,2.635,0,0,1,.859,2.012v3.891a4.757,4.757,0,0,0,.3,1.852V15Zm-2.4-1.1a2.54,2.54,0,0,0,1.289-.352,2.127,2.127,0,0,0,.883-.914V10.9H99.68q-2.656,0-2.656,1.555a1.316,1.316,0,0,0,.453,1.063A1.742,1.742,0,0,0,98.641,13.9Zm7.453,1.1h-1.445V3h1.445Z" transform="translate(651.732 6593.572)" fill="#12263f"/>
    <path id="Trazado_149104" data-name="Trazado 149104" d="M12.294,3.625l3.719,9.281,3.719-9.281h1.945V15h-1.5V10.57l.141-4.781L16.583,15H15.434L11.708,5.813l.148,4.758V15h-1.5V3.625ZM27.606,15.156a3.693,3.693,0,0,1-2.8-1.129,4.19,4.19,0,0,1-1.078-3.02v-.266a5.073,5.073,0,0,1,.48-2.246,3.748,3.748,0,0,1,1.344-1.547,3.378,3.378,0,0,1,1.871-.559,3.166,3.166,0,0,1,2.563,1.086,4.7,4.7,0,0,1,.914,3.109v.6H25.177a3,3,0,0,0,.73,2.02,2.3,2.3,0,0,0,1.777.77,2.517,2.517,0,0,0,1.3-.312,3.259,3.259,0,0,0,.93-.828l.883.688A3.55,3.55,0,0,1,27.606,15.156Zm-.18-7.578a1.928,1.928,0,0,0-1.469.637A3.1,3.1,0,0,0,25.223,10h4.234V9.891a2.753,2.753,0,0,0-.594-1.707A1.815,1.815,0,0,0,27.427,7.578Zm9.234.266a4.331,4.331,0,0,0-.711-.055A1.9,1.9,0,0,0,34.02,9v6H32.575V6.547h1.406L34,7.523A2.251,2.251,0,0,1,36.02,6.391a1.477,1.477,0,0,1,.641.109Zm4.57,6.133a2.082,2.082,0,0,0,1.352-.469,1.649,1.649,0,0,0,.641-1.172h1.367a2.621,2.621,0,0,1-.5,1.383,3.293,3.293,0,0,1-1.23,1.047,3.55,3.55,0,0,1-1.629.391A3.482,3.482,0,0,1,38.485,14a4.59,4.59,0,0,1-1.02-3.152v-.242a5.089,5.089,0,0,1,.453-2.2,3.451,3.451,0,0,1,1.3-1.492,3.7,3.7,0,0,1,2-.531,3.39,3.39,0,0,1,2.363.852,3.043,3.043,0,0,1,1,2.211H43.223A1.992,1.992,0,0,0,42.6,8.105a1.932,1.932,0,0,0-1.379-.527,2.023,2.023,0,0,0-1.707.793,3.724,3.724,0,0,0-.605,2.293v.273a3.65,3.65,0,0,0,.6,2.25A2.033,2.033,0,0,0,41.231,13.977ZM51.434,15a3.036,3.036,0,0,1-.2-.891,3.225,3.225,0,0,1-2.406,1.047,2.984,2.984,0,0,1-2.051-.707,2.287,2.287,0,0,1-.8-1.793,2.39,2.39,0,0,1,1-2.051,4.733,4.733,0,0,1,2.824-.73h1.406V9.211A1.623,1.623,0,0,0,50.755,8a1.821,1.821,0,0,0-1.336-.449,2.107,2.107,0,0,0-1.3.391,1.151,1.151,0,0,0-.523.945H46.145a2,2,0,0,1,.449-1.223,3.066,3.066,0,0,1,1.219-.934A4.1,4.1,0,0,1,49.5,6.391a3.342,3.342,0,0,1,2.289.73,2.635,2.635,0,0,1,.859,2.012v3.891a4.757,4.757,0,0,0,.3,1.852V15Zm-2.4-1.1a2.54,2.54,0,0,0,1.289-.352,2.127,2.127,0,0,0,.883-.914V10.9H50.075q-2.656,0-2.656,1.555a1.316,1.316,0,0,0,.453,1.063A1.742,1.742,0,0,0,49.036,13.9Zm5.531-3.2a4.952,4.952,0,0,1,.922-3.129,3.137,3.137,0,0,1,4.766-.168V3H61.7V15H60.372l-.07-.906a2.943,2.943,0,0,1-2.414,1.063,2.887,2.887,0,0,1-2.395-1.2,5.008,5.008,0,0,1-.926-3.141Zm1.445.164a3.749,3.749,0,0,0,.594,2.25,1.92,1.92,0,0,0,1.641.813A2.108,2.108,0,0,0,60.255,12.7V8.813a2.125,2.125,0,0,0-1.992-1.2,1.929,1.929,0,0,0-1.656.82A4.128,4.128,0,0,0,56.013,10.867Zm7.547-.172a4.993,4.993,0,0,1,.488-2.234A3.643,3.643,0,0,1,65.407,6.93,3.7,3.7,0,0,1,67.4,6.391a3.565,3.565,0,0,1,2.793,1.2,4.6,4.6,0,0,1,1.066,3.18v.1a5.036,5.036,0,0,1-.473,2.215,3.589,3.589,0,0,1-1.352,1.527,3.743,3.743,0,0,1-2.02.547,3.556,3.556,0,0,1-2.785-1.2A4.576,4.576,0,0,1,63.559,10.8Zm1.453.172a3.616,3.616,0,0,0,.652,2.258,2.211,2.211,0,0,0,3.5-.012,3.955,3.955,0,0,0,.648-2.418,3.61,3.61,0,0,0-.66-2.254A2.1,2.1,0,0,0,67.4,7.578a2.075,2.075,0,0,0-1.727.852A3.925,3.925,0,0,0,65.012,10.867Zm13.375-4.32.039.938a3.122,3.122,0,0,1,2.508-1.094A2.417,2.417,0,0,1,83.348,7.75a3.2,3.2,0,0,1,1.1-.984,3.242,3.242,0,0,1,1.6-.375q2.781,0,2.828,2.945V15H87.427V9.422a1.941,1.941,0,0,0-.414-1.355,1.823,1.823,0,0,0-1.391-.449,1.916,1.916,0,0,0-1.336.48,1.949,1.949,0,0,0-.617,1.293V15H82.216V9.461a1.613,1.613,0,0,0-1.8-1.844,1.934,1.934,0,0,0-1.945,1.211V15H77.02V6.547Zm16.172,8.609a3.693,3.693,0,0,1-2.8-1.129,4.19,4.19,0,0,1-1.078-3.02v-.266a5.073,5.073,0,0,1,.48-2.246,3.748,3.748,0,0,1,1.344-1.547,3.378,3.378,0,0,1,1.871-.559,3.166,3.166,0,0,1,2.563,1.086,4.7,4.7,0,0,1,.914,3.109v.6H92.13a3,3,0,0,0,.73,2.02,2.3,2.3,0,0,0,1.777.77,2.517,2.517,0,0,0,1.3-.312,3.259,3.259,0,0,0,.93-.828l.883.688A3.55,3.55,0,0,1,94.559,15.156Zm-.18-7.578a1.928,1.928,0,0,0-1.469.637A3.1,3.1,0,0,0,92.177,10h4.234V9.891a2.753,2.753,0,0,0-.594-1.707A1.815,1.815,0,0,0,94.38,7.578ZM101.489,4.5V6.547h1.578V7.664h-1.578v5.249a1.173,1.173,0,0,0,.211.763.888.888,0,0,0,.719.254,3.5,3.5,0,0,0,.688-.094V15a4.215,4.215,0,0,1-1.109.155,1.8,1.8,0,0,1-1.461-.586,2.517,2.517,0,0,1-.492-1.664V7.664H98.5V6.547h1.539V4.5ZM109.973,15a3.036,3.036,0,0,1-.2-.891,3.225,3.225,0,0,1-2.406,1.047,2.984,2.984,0,0,1-2.051-.707,2.288,2.288,0,0,1-.8-1.793,2.39,2.39,0,0,1,1-2.051,4.733,4.733,0,0,1,2.824-.73h1.406V9.211A1.623,1.623,0,0,0,109.294,8a1.821,1.821,0,0,0-1.336-.449,2.108,2.108,0,0,0-1.3.391,1.151,1.151,0,0,0-.523.945h-1.453a2,2,0,0,1,.449-1.223,3.066,3.066,0,0,1,1.219-.934,4.1,4.1,0,0,1,1.691-.344,3.342,3.342,0,0,1,2.289.73,2.635,2.635,0,0,1,.859,2.012v3.891a4.757,4.757,0,0,0,.3,1.852V15Zm-2.4-1.1a2.54,2.54,0,0,0,1.289-.352,2.127,2.127,0,0,0,.883-.914V10.9h-1.133q-2.656,0-2.656,1.555a1.316,1.316,0,0,0,.453,1.063A1.742,1.742,0,0,0,107.575,13.9Z" transform="translate(363.76 6519.227)" fill="#12263f"/>
    <path id="Trazado_149103" data-name="Trazado 149103" d="M16.592,3.625l3.719,9.281L24.03,3.625h1.945V15h-1.5V10.57l.141-4.781L20.881,15H19.733L16.006,5.813l.148,4.758V15h-1.5V3.625ZM31.9,15.156a3.693,3.693,0,0,1-2.8-1.129,4.19,4.19,0,0,1-1.078-3.02v-.266A5.073,5.073,0,0,1,28.51,8.5a3.748,3.748,0,0,1,1.344-1.547,3.378,3.378,0,0,1,1.871-.559,3.166,3.166,0,0,1,2.563,1.086,4.7,4.7,0,0,1,.914,3.109v.6H29.475a3,3,0,0,0,.73,2.02,2.3,2.3,0,0,0,1.777.77,2.517,2.517,0,0,0,1.3-.312,3.259,3.259,0,0,0,.93-.828l.883.688A3.55,3.55,0,0,1,31.9,15.156Zm-.18-7.578a1.928,1.928,0,0,0-1.469.637A3.1,3.1,0,0,0,29.522,10h4.234V9.891a2.753,2.753,0,0,0-.594-1.707A1.815,1.815,0,0,0,31.725,7.578Zm9.234.266a4.331,4.331,0,0,0-.711-.055A1.9,1.9,0,0,0,38.319,9v6H36.873V6.547H38.28l.023.977a2.251,2.251,0,0,1,2.016-1.133,1.477,1.477,0,0,1,.641.109Zm4.57,6.133a2.082,2.082,0,0,0,1.352-.469,1.649,1.649,0,0,0,.641-1.172h1.367a2.621,2.621,0,0,1-.5,1.383,3.293,3.293,0,0,1-1.23,1.047,3.55,3.55,0,0,1-1.629.391A3.482,3.482,0,0,1,42.783,14a4.59,4.59,0,0,1-1.02-3.152v-.242a5.089,5.089,0,0,1,.453-2.2,3.451,3.451,0,0,1,1.3-1.492,3.7,3.7,0,0,1,2-.531,3.39,3.39,0,0,1,2.363.852,3.043,3.043,0,0,1,1,2.211H47.522A1.992,1.992,0,0,0,46.9,8.105a1.932,1.932,0,0,0-1.379-.527,2.023,2.023,0,0,0-1.707.793,3.724,3.724,0,0,0-.605,2.293v.273a3.65,3.65,0,0,0,.6,2.25A2.033,2.033,0,0,0,45.53,13.977ZM55.733,15a3.036,3.036,0,0,1-.2-.891,3.225,3.225,0,0,1-2.406,1.047,2.984,2.984,0,0,1-2.051-.707,2.287,2.287,0,0,1-.8-1.793,2.39,2.39,0,0,1,1-2.051,4.733,4.733,0,0,1,2.824-.73h1.406V9.211A1.623,1.623,0,0,0,55.053,8a1.821,1.821,0,0,0-1.336-.449,2.107,2.107,0,0,0-1.3.391,1.151,1.151,0,0,0-.523.945H50.444a2,2,0,0,1,.449-1.223,3.066,3.066,0,0,1,1.219-.934A4.1,4.1,0,0,1,53.8,6.391a3.342,3.342,0,0,1,2.289.73,2.635,2.635,0,0,1,.859,2.012v3.891a4.757,4.757,0,0,0,.3,1.852V15Zm-2.4-1.1a2.54,2.54,0,0,0,1.289-.352,2.127,2.127,0,0,0,.883-.914V10.9H54.373q-2.656,0-2.656,1.555a1.316,1.316,0,0,0,.453,1.063A1.742,1.742,0,0,0,53.334,13.9Zm5.531-3.2a4.952,4.952,0,0,1,.922-3.129,3.137,3.137,0,0,1,4.766-.168V3H66V15H64.67l-.07-.906a2.943,2.943,0,0,1-2.414,1.063,2.887,2.887,0,0,1-2.395-1.2,5.008,5.008,0,0,1-.926-3.141Zm1.445.164a3.749,3.749,0,0,0,.594,2.25,1.92,1.92,0,0,0,1.641.813A2.108,2.108,0,0,0,64.553,12.7V8.813a2.125,2.125,0,0,0-1.992-1.2,1.929,1.929,0,0,0-1.656.82A4.128,4.128,0,0,0,60.311,10.867Zm7.547-.172a4.993,4.993,0,0,1,.488-2.234A3.643,3.643,0,0,1,69.705,6.93a3.7,3.7,0,0,1,1.988-.539,3.565,3.565,0,0,1,2.793,1.2,4.6,4.6,0,0,1,1.066,3.18v.1a5.036,5.036,0,0,1-.473,2.215,3.589,3.589,0,0,1-1.352,1.527,3.743,3.743,0,0,1-2.02.547,3.556,3.556,0,0,1-2.785-1.2A4.575,4.575,0,0,1,67.858,10.8Zm1.453.172a3.616,3.616,0,0,0,.652,2.258,2.211,2.211,0,0,0,3.5-.012,3.955,3.955,0,0,0,.648-2.418,3.61,3.61,0,0,0-.66-2.254,2.1,2.1,0,0,0-1.754-.863,2.075,2.075,0,0,0-1.727.852A3.925,3.925,0,0,0,69.311,10.867Zm19.156,0a5.062,5.062,0,0,1-.883,3.109,2.829,2.829,0,0,1-2.391,1.18,3.1,3.1,0,0,1-2.422-.977v4.07H81.326V6.547h1.32l.07.938A2.977,2.977,0,0,1,85.17,6.391a2.882,2.882,0,0,1,2.41,1.148,5.117,5.117,0,0,1,.887,3.2ZM87.022,10.7a3.735,3.735,0,0,0-.609-2.258,1.963,1.963,0,0,0-1.672-.828,2.125,2.125,0,0,0-1.969,1.164V12.82a2.129,2.129,0,0,0,1.984,1.156,1.954,1.954,0,0,0,1.652-.824A4.077,4.077,0,0,0,87.022,10.7Zm2.9-.008a4.993,4.993,0,0,1,.488-2.234A3.643,3.643,0,0,1,91.768,6.93a3.7,3.7,0,0,1,1.988-.539,3.565,3.565,0,0,1,2.793,1.2,4.6,4.6,0,0,1,1.066,3.18v.1a5.036,5.036,0,0,1-.473,2.215,3.589,3.589,0,0,1-1.352,1.527,3.743,3.743,0,0,1-2.02.547,3.556,3.556,0,0,1-2.785-1.2A4.575,4.575,0,0,1,89.92,10.8Zm1.453.172a3.616,3.616,0,0,0,.652,2.258,2.211,2.211,0,0,0,3.5-.012A3.955,3.955,0,0,0,96.17,10.7a3.61,3.61,0,0,0-.66-2.254,2.1,2.1,0,0,0-1.754-.863,2.075,2.075,0,0,0-1.727.852A3.925,3.925,0,0,0,91.373,10.867ZM101.389,4.5V6.547h1.578V7.664h-1.578v5.249a1.173,1.173,0,0,0,.211.763.888.888,0,0,0,.719.254,3.5,3.5,0,0,0,.688-.094V15a4.215,4.215,0,0,1-1.109.155,1.8,1.8,0,0,1-1.461-.586,2.517,2.517,0,0,1-.492-1.664V7.664H98.4V6.547h1.539V4.5Zm6.773,10.656a3.693,3.693,0,0,1-2.8-1.129,4.19,4.19,0,0,1-1.078-3.02v-.266a5.073,5.073,0,0,1,.48-2.246,3.748,3.748,0,0,1,1.344-1.547,3.378,3.378,0,0,1,1.871-.559,3.166,3.166,0,0,1,2.563,1.086,4.7,4.7,0,0,1,.914,3.109v.6h-5.727a3,3,0,0,0,.73,2.02,2.3,2.3,0,0,0,1.777.77,2.517,2.517,0,0,0,1.3-.312,3.259,3.259,0,0,0,.93-.828l.883.688A3.55,3.55,0,0,1,108.162,15.156Zm-.18-7.578a1.928,1.928,0,0,0-1.469.637A3.1,3.1,0,0,0,105.78,10h4.234V9.891a2.753,2.753,0,0,0-.594-1.707A1.815,1.815,0,0,0,107.983,7.578ZM114.5,6.547l.047,1.063a3.08,3.08,0,0,1,2.531-1.219q2.68,0,2.7,3.023V15h-1.445V9.406a1.946,1.946,0,0,0-.418-1.352,1.675,1.675,0,0,0-1.277-.437,2.086,2.086,0,0,0-1.234.375,2.546,2.546,0,0,0-.828.984V15h-1.445V6.547Zm10.852,7.43a2.082,2.082,0,0,0,1.352-.469,1.649,1.649,0,0,0,.641-1.172h1.367a2.621,2.621,0,0,1-.5,1.383,3.293,3.293,0,0,1-1.23,1.047,3.55,3.55,0,0,1-1.629.391A3.482,3.482,0,0,1,122.6,14a4.59,4.59,0,0,1-1.02-3.152v-.242a5.089,5.089,0,0,1,.453-2.2,3.451,3.451,0,0,1,1.3-1.492,3.7,3.7,0,0,1,2-.531,3.39,3.39,0,0,1,2.363.852,3.043,3.043,0,0,1,1,2.211h-1.367a1.992,1.992,0,0,0-.621-1.348,1.932,1.932,0,0,0-1.379-.527,2.023,2.023,0,0,0-1.707.793,3.724,3.724,0,0,0-.605,2.293v.273a3.65,3.65,0,0,0,.6,2.25A2.033,2.033,0,0,0,125.35,13.977ZM131.9,15h-1.445V6.547H131.9ZM130.342,4.3a.863.863,0,0,1,.215-.594.807.807,0,0,1,.637-.242.819.819,0,0,1,.641.242.854.854,0,0,1,.219.594.826.826,0,0,1-.219.586.834.834,0,0,1-.641.234.821.821,0,0,1-.637-.234A.834.834,0,0,1,130.342,4.3ZM139.436,15a3.036,3.036,0,0,1-.2-.891,3.225,3.225,0,0,1-2.406,1.047,2.984,2.984,0,0,1-2.051-.707,2.287,2.287,0,0,1-.8-1.793,2.39,2.39,0,0,1,1-2.051,4.733,4.733,0,0,1,2.824-.73h1.406V9.211A1.623,1.623,0,0,0,138.756,8a1.821,1.821,0,0,0-1.336-.449,2.107,2.107,0,0,0-1.3.391,1.151,1.151,0,0,0-.523.945h-1.453a2,2,0,0,1,.449-1.223,3.066,3.066,0,0,1,1.219-.934,4.1,4.1,0,0,1,1.691-.344,3.342,3.342,0,0,1,2.289.73,2.635,2.635,0,0,1,.859,2.012v3.891a4.757,4.757,0,0,0,.3,1.852V15Zm-2.4-1.1a2.54,2.54,0,0,0,1.289-.352,2.127,2.127,0,0,0,.883-.914V10.9h-1.133q-2.656,0-2.656,1.555a1.316,1.316,0,0,0,.453,1.063A1.742,1.742,0,0,0,137.037,13.9ZM144.49,15h-1.445V3h1.445Z" transform="translate(312 6292.425)" fill="#12263f"/>
    <path id="Trazado_149102" data-name="Trazado 149102" d="M14.5,3.625l3.719,9.281,3.719-9.281h1.945V15h-1.5V10.57l.141-4.781L18.794,15H17.645L13.919,5.813l.148,4.758V15h-1.5V3.625ZM29.817,15.156a3.693,3.693,0,0,1-2.8-1.129,4.19,4.19,0,0,1-1.078-3.02v-.266a5.073,5.073,0,0,1,.48-2.246,3.748,3.748,0,0,1,1.344-1.547,3.378,3.378,0,0,1,1.871-.559A3.166,3.166,0,0,1,32.2,7.477a4.7,4.7,0,0,1,.914,3.109v.6H27.388a3,3,0,0,0,.73,2.02,2.3,2.3,0,0,0,1.777.77,2.517,2.517,0,0,0,1.3-.312,3.259,3.259,0,0,0,.93-.828l.883.688A3.55,3.55,0,0,1,29.817,15.156Zm-.18-7.578a1.928,1.928,0,0,0-1.469.637A3.1,3.1,0,0,0,27.434,10h4.234V9.891a2.753,2.753,0,0,0-.594-1.707A1.815,1.815,0,0,0,29.638,7.578Zm9.234.266a4.331,4.331,0,0,0-.711-.055A1.9,1.9,0,0,0,36.231,9v6H34.786V6.547h1.406l.023.977a2.251,2.251,0,0,1,2.016-1.133,1.477,1.477,0,0,1,.641.109Zm4.57,6.133a2.082,2.082,0,0,0,1.352-.469,1.649,1.649,0,0,0,.641-1.172H46.8a2.621,2.621,0,0,1-.5,1.383,3.293,3.293,0,0,1-1.23,1.047,3.55,3.55,0,0,1-1.629.391A3.482,3.482,0,0,1,40.7,14a4.59,4.59,0,0,1-1.02-3.152v-.242a5.089,5.089,0,0,1,.453-2.2,3.451,3.451,0,0,1,1.3-1.492,3.7,3.7,0,0,1,2-.531,3.39,3.39,0,0,1,2.363.852,3.043,3.043,0,0,1,1,2.211H45.434a1.992,1.992,0,0,0-.621-1.348,1.932,1.932,0,0,0-1.379-.527,2.023,2.023,0,0,0-1.707.793,3.724,3.724,0,0,0-.605,2.293v.273a3.65,3.65,0,0,0,.6,2.25A2.033,2.033,0,0,0,43.442,13.977ZM53.645,15a3.036,3.036,0,0,1-.2-.891,3.225,3.225,0,0,1-2.406,1.047,2.984,2.984,0,0,1-2.051-.707,2.287,2.287,0,0,1-.8-1.793,2.39,2.39,0,0,1,1-2.051,4.733,4.733,0,0,1,2.824-.73h1.406V9.211A1.623,1.623,0,0,0,52.966,8a1.821,1.821,0,0,0-1.336-.449,2.107,2.107,0,0,0-1.3.391,1.151,1.151,0,0,0-.523.945H48.356a2,2,0,0,1,.449-1.223,3.066,3.066,0,0,1,1.219-.934,4.1,4.1,0,0,1,1.691-.344A3.342,3.342,0,0,1,54,7.121a2.635,2.635,0,0,1,.859,2.012v3.891a4.757,4.757,0,0,0,.3,1.852V15Zm-2.4-1.1a2.54,2.54,0,0,0,1.289-.352,2.127,2.127,0,0,0,.883-.914V10.9H52.286q-2.656,0-2.656,1.555a1.316,1.316,0,0,0,.453,1.063A1.742,1.742,0,0,0,51.247,13.9Zm5.531-3.2A4.952,4.952,0,0,1,57.7,7.574a3.137,3.137,0,0,1,4.766-.168V3h1.445V15H62.583l-.07-.906A2.943,2.943,0,0,1,60.1,15.156a2.887,2.887,0,0,1-2.395-1.2,5.008,5.008,0,0,1-.926-3.141Zm1.445.164a3.749,3.749,0,0,0,.594,2.25,1.92,1.92,0,0,0,1.641.813A2.108,2.108,0,0,0,62.466,12.7V8.813a2.125,2.125,0,0,0-1.992-1.2,1.929,1.929,0,0,0-1.656.82A4.128,4.128,0,0,0,58.223,10.867ZM65.77,10.7a4.993,4.993,0,0,1,.488-2.234A3.643,3.643,0,0,1,67.618,6.93a3.7,3.7,0,0,1,1.988-.539,3.565,3.565,0,0,1,2.793,1.2,4.6,4.6,0,0,1,1.066,3.18v.1a5.036,5.036,0,0,1-.473,2.215,3.589,3.589,0,0,1-1.352,1.527,3.743,3.743,0,0,1-2.02.547,3.556,3.556,0,0,1-2.785-1.2A4.575,4.575,0,0,1,65.77,10.8Zm1.453.172a3.616,3.616,0,0,0,.652,2.258,2.211,2.211,0,0,0,3.5-.012A3.955,3.955,0,0,0,72.02,10.7a3.61,3.61,0,0,0-.66-2.254,2.1,2.1,0,0,0-1.754-.863,2.075,2.075,0,0,0-1.727.852A3.925,3.925,0,0,0,67.223,10.867ZM81.2,4.5V6.547h1.578V7.664H81.2v5.249a1.173,1.173,0,0,0,.211.763.888.888,0,0,0,.719.254,3.5,3.5,0,0,0,.688-.094V15a4.215,4.215,0,0,1-1.109.155,1.8,1.8,0,0,1-1.461-.586,2.517,2.517,0,0,1-.492-1.664V7.664H78.216V6.547h1.539V4.5Zm2.727,6.2a4.993,4.993,0,0,1,.488-2.234A3.643,3.643,0,0,1,85.774,6.93a3.7,3.7,0,0,1,1.988-.539,3.565,3.565,0,0,1,2.793,1.2,4.6,4.6,0,0,1,1.066,3.18v.1a5.036,5.036,0,0,1-.473,2.215A3.589,3.589,0,0,1,89.8,14.609a3.743,3.743,0,0,1-2.02.547,3.556,3.556,0,0,1-2.785-1.2A4.575,4.575,0,0,1,83.927,10.8Zm1.453.172a3.616,3.616,0,0,0,.652,2.258,2.211,2.211,0,0,0,3.5-.012,3.955,3.955,0,0,0,.648-2.418,3.61,3.61,0,0,0-.66-2.254,2.1,2.1,0,0,0-1.754-.863,2.075,2.075,0,0,0-1.727.852A3.925,3.925,0,0,0,85.38,10.867ZM95.4,4.5V6.547h1.578V7.664H95.4v5.249a1.173,1.173,0,0,0,.211.763.888.888,0,0,0,.719.254,3.5,3.5,0,0,0,.688-.094V15a4.215,4.215,0,0,1-1.109.155,1.8,1.8,0,0,1-1.461-.586,2.517,2.517,0,0,1-.492-1.664V7.664H92.411V6.547H93.95V4.5ZM103.88,15a3.036,3.036,0,0,1-.2-.891,3.225,3.225,0,0,1-2.406,1.047,2.984,2.984,0,0,1-2.051-.707,2.288,2.288,0,0,1-.8-1.793,2.39,2.39,0,0,1,1-2.051,4.733,4.733,0,0,1,2.824-.73h1.406V9.211A1.623,1.623,0,0,0,103.2,8a1.821,1.821,0,0,0-1.336-.449,2.108,2.108,0,0,0-1.3.391,1.151,1.151,0,0,0-.523.945H98.591a2,2,0,0,1,.449-1.223,3.066,3.066,0,0,1,1.219-.934,4.1,4.1,0,0,1,1.691-.344,3.342,3.342,0,0,1,2.289.73,2.635,2.635,0,0,1,.859,2.012v3.891a4.757,4.757,0,0,0,.3,1.852V15Zm-2.4-1.1a2.54,2.54,0,0,0,1.289-.352,2.127,2.127,0,0,0,.883-.914V10.9H102.52q-2.656,0-2.656,1.555a1.316,1.316,0,0,0,.453,1.063A1.742,1.742,0,0,0,101.481,13.9Zm7.453,1.1h-1.445V3h1.445Z" transform="translate(451.281 6151.262)" fill="#12263f"/>
    <g id="Grupo_91864" data-name="Grupo 91864" transform="translate(511.981 6505.632)">
      <g id="Grupo_91860" data-name="Grupo 91860" transform="translate(9.698 29.642)">
        <path id="Trazado_147613" data-name="Trazado 147613" d="M62.317,45.99c-1.04,0-4.928-.722-25.745-4.738a1.538,1.538,0,0,1-1.246-1.508v-16.4a1.53,1.53,0,0,1,.619-1.23,13.067,13.067,0,0,1,7.722-2.429c5.381,0,9.73,3.079,10.722,7.357h12.42a4.231,4.231,0,0,1,4.54,4.5v.111l13.746-6.278A5.237,5.237,0,0,1,92,28.22h0a5.238,5.238,0,0,1-2.865,6.849L62.754,45.9A.9.9,0,0,1,62.317,45.99ZM38.4,38.474C47.341,40.2,59.706,42.545,61.96,42.91L87.967,32.228a2.185,2.185,0,0,0,1.19-2.841h0a2.181,2.181,0,0,0-2.841-1.19L69.6,35.831a4.031,4.031,0,0,1-1.6.333,1.536,1.536,0,0,1-.135-3.063c.381-.04.413-.524.413-.524v-.984c-.032-1.119-.373-1.468-1.468-1.468H53.064a1.547,1.547,0,0,1-1.54-1.46c-.167-3.365-3.548-5.9-7.857-5.9a10.172,10.172,0,0,0-5.27,1.4Z" transform="translate(-35.326 -19.689)" fill="#ef6c00"/>
      </g>
      <g id="Grupo_91861" data-name="Grupo 91861" transform="translate(27.015 43.046)">
        <path id="Trazado_147614" data-name="Trazado 147614" d="M39.04,24.465a1.536,1.536,0,0,1,0-3.071L52.9,21.378h0a1.536,1.536,0,1,1,0,3.071l-13.849.016Z" transform="translate(-37.508 -21.378)" fill="#ef6c00"/>
      </g>
      <g id="Grupo_91862" data-name="Grupo 91862" transform="translate(0 28.086)">
        <path id="Trazado_147615" data-name="Trazado 147615" d="M45.334,44.548h-9.69a1.541,1.541,0,0,1-1.54-1.54V21.033a1.541,1.541,0,0,1,1.54-1.54h9.69a1.541,1.541,0,0,1,1.54,1.54V43.008A1.541,1.541,0,0,1,45.334,44.548Zm-8.151-3.071H43.8v-18.9H37.183Z" transform="translate(-34.104 -19.493)" fill="#ef6c00"/>
      </g>
      <g id="Grupo_91863" data-name="Grupo 91863" transform="translate(32.192 0)">
        <path id="Trazado_147616" data-name="Trazado 147616" d="M59.657,42.413a1.508,1.508,0,0,1-.714-.175L52.03,38.6l-6.9,3.635A1.538,1.538,0,0,1,42.9,40.62l1.317-7.69-5.587-5.452a1.536,1.536,0,0,1,.849-2.619L47.2,23.732l3.46-6.992a1.6,1.6,0,0,1,2.754,0l3.452,6.992,7.722,1.127a1.529,1.529,0,0,1,1.246,1.048,1.554,1.554,0,0,1-.389,1.571l-5.6,5.452,1.325,7.69a1.551,1.551,0,0,1-.611,1.5A1.52,1.52,0,0,1,59.657,42.413ZM43,27.454l3.936,3.833a1.537,1.537,0,0,1,.444,1.365l-.929,5.413,4.865-2.555a1.518,1.518,0,0,1,1.428,0l4.865,2.555-.929-5.413a1.582,1.582,0,0,1,.444-1.365l3.936-3.833-5.436-.794a1.538,1.538,0,0,1-1.159-.841L52.03,20.89,49.6,25.819a1.552,1.552,0,0,1-1.159.841Z" transform="translate(-38.16 -15.954)" fill="#ef6c00"/>
      </g>
    </g>
    <g id="Grupo_91874" data-name="Grupo 91874" transform="translate(502.573 6268.953)">
      <g id="Grupo_91865" data-name="Grupo 91865" transform="translate(16.596 31.435)">
        <path id="Trazado_147617" data-name="Trazado 147617" d="M64.241,41.8a1.764,1.764,0,0,1-1.769-1.769V21.078a1.774,1.774,0,1,1,3.548,0V40.027A1.772,1.772,0,0,1,64.241,41.8Z" transform="translate(-62.472 -19.3)" fill="#0f0140"/>
      </g>
      <g id="Grupo_91866" data-name="Grupo 91866" transform="translate(12.617 27.465)">
        <path id="Trazado_147618" data-name="Trazado 147618" d="M67.786,26.393a5.759,5.759,0,0,1-5.748-5.757,1.774,1.774,0,0,1,3.548,0,2.2,2.2,0,0,0,4.409,0,1.774,1.774,0,0,1,3.548,0A5.767,5.767,0,0,1,67.786,26.393Z" transform="translate(-62.038 -18.867)" fill="#0f0140"/>
      </g>
      <g id="Grupo_91867" data-name="Grupo 91867" transform="translate(0 12.486)">
        <path id="Trazado_147619" data-name="Trazado 147619" d="M71.977,58.687H70.51a1.784,1.784,0,0,1-1.778-1.824A10.357,10.357,0,0,0,67.2,51.271,20.617,20.617,0,0,0,65.5,49.007a25.025,25.025,0,0,1-1.943-2.585A19.49,19.49,0,0,1,66,22.807a17.967,17.967,0,0,1,26.017,0,18.87,18.87,0,0,1,3.52,5.106,19.628,19.628,0,0,1,1.357,12.541,18.128,18.128,0,0,1-2.374,5.821A28.8,28.8,0,0,1,92.6,48.869c-.587.724-1.137,1.421-1.613,2.145a10.485,10.485,0,0,0-1.714,5.849,1.774,1.774,0,1,1-3.548.092,14.02,14.02,0,0,1,2.283-7.866,30.32,30.32,0,0,1,1.824-2.448,27.825,27.825,0,0,0,1.687-2.264,14.7,14.7,0,0,0,1.907-4.684,16.08,16.08,0,0,0-1.1-10.267,15.283,15.283,0,0,0-2.869-4.153,14.414,14.414,0,0,0-20.911,0,15.921,15.921,0,0,0-1.989,19.27,21.96,21.96,0,0,0,1.678,2.209,22.556,22.556,0,0,1,1.989,2.659A14.181,14.181,0,0,1,72.2,55.149a1.776,1.776,0,0,1-.22,3.539Z" transform="translate(-60.662 -17.233)" fill="#0f0140"/>
      </g>
      <g id="Grupo_91870" data-name="Grupo 91870" transform="translate(2.082 2.093)">
        <g id="Grupo_91868" data-name="Grupo 91868">
          <path id="Trazado_147620" data-name="Trazado 147620" d="M69.755,24.521a1.739,1.739,0,0,1-1-.312l-7.1-4.868a1.777,1.777,0,0,1,2.008-2.934l7.1,4.868a1.779,1.779,0,0,1-1.008,3.245Z" transform="translate(-60.889 -16.099)" fill="#0f0140"/>
        </g>
        <g id="Grupo_91869" data-name="Grupo 91869" transform="translate(21.905)">
          <path id="Trazado_147621" data-name="Trazado 147621" d="M65.054,24.521a1.779,1.779,0,0,1-1.008-3.245l7.1-4.868a1.777,1.777,0,1,1,2.008,2.934L66.063,24.21A1.789,1.789,0,0,1,65.054,24.521Z" transform="translate(-63.278 -16.099)" fill="#0f0140"/>
        </g>
      </g>
      <g id="Grupo_91871" data-name="Grupo 91871" transform="translate(16.577 0)">
        <path id="Trazado_147622" data-name="Trazado 147622" d="M64.248,25.616a1.772,1.772,0,0,1-1.778-1.769v-6.2a1.778,1.778,0,1,1,3.557,0v6.2A1.772,1.772,0,0,1,64.248,25.616Z" transform="translate(-62.47 -15.871)" fill="#0f0140"/>
      </g>
      <g id="Grupo_91872" data-name="Grupo 91872" transform="translate(6.026 50.383)">
        <path id="Trazado_147623" data-name="Trazado 147623" d="M81.588,32.918H65.71a4.4,4.4,0,0,1-4.391-4.391V25.758a4.4,4.4,0,0,1,4.391-4.391H81.588a4.4,4.4,0,0,1,4.391,4.391v2.769A4.4,4.4,0,0,1,81.588,32.918Zm-15.878-8a.853.853,0,0,0-.843.843v2.769a.845.845,0,0,0,.843.834H81.588a.839.839,0,0,0,.843-.834V25.758a.847.847,0,0,0-.843-.843Z" transform="translate(-61.319 -21.367)" fill="#0f0140"/>
      </g>
      <g id="Grupo_91873" data-name="Grupo 91873" transform="translate(9.72 58.377)">
        <path id="Trazado_147624" data-name="Trazado 147624" d="M70.66,32.956a8.944,8.944,0,0,1-8.938-8.938A1.78,1.78,0,0,1,63.5,22.239H77.829A1.772,1.772,0,0,1,79.6,24.017,8.944,8.944,0,0,1,70.66,32.956ZM65.572,25.8a5.389,5.389,0,0,0,10.176,0Z" transform="translate(-61.722 -22.239)" fill="#0f0140"/>
      </g>
    </g>
    <g id="Grupo_91879" data-name="Grupo 91879" transform="translate(614.088 6150.338)">
      <g id="Grupo_91875" data-name="Grupo 91875" transform="translate(0 19.241)">
        <path id="Trazado_147625" data-name="Trazado 147625" d="M85.713,43.171a1.46,1.46,0,0,1-.735-.2,1.442,1.442,0,0,1-.7-1.232l-.111-21.158a1.412,1.412,0,0,1,.683-1.232,1.44,1.44,0,0,1,1.417-.045l20.059,10.471a1.436,1.436,0,0,1,.015,2.538L86.4,43A1.392,1.392,0,0,1,85.713,43.171Zm1.343-20.215.082,16.386,15.451-8.275Z" transform="translate(-84.169 -19.14)" fill="#3e2ea6"/>
      </g>
      <g id="Grupo_91876" data-name="Grupo 91876" transform="translate(20.059 19.029)">
        <path id="Trazado_147626" data-name="Trazado 147626" d="M108.371,43.147a1.5,1.5,0,0,1-.668-.163L87.644,32.5a1.436,1.436,0,0,1-.015-2.538L107.577,19.28a1.459,1.459,0,0,1,1.417.03,1.442,1.442,0,0,1,.7,1.232L109.8,41.7a1.412,1.412,0,0,1-.683,1.232A1.437,1.437,0,0,1,108.371,43.147ZM91.384,31.214l15.54,8.111-.089-16.386Z" transform="translate(-86.872 -19.111)" fill="#3e2ea6"/>
      </g>
      <g id="Grupo_91877" data-name="Grupo 91877" transform="translate(6.264 0)">
        <path id="Trazado_147627" data-name="Trazado 147627" d="M100.249,49.133a1.411,1.411,0,0,1-.668-.163l-13.8-7.2a1.446,1.446,0,0,1-.772-1.276V17.987a1.441,1.441,0,0,1,1.44-1.44h27.584a1.441,1.441,0,0,1,1.44,1.44V40.309a1.444,1.444,0,0,1-.757,1.269l-13.8,7.384A1.364,1.364,0,0,1,100.249,49.133ZM87.885,39.627l12.349,6.449L112.6,39.449V19.419H87.885Z" transform="translate(-85.013 -16.547)" fill="#3e2ea6"/>
      </g>
      <g id="Grupo_91878" data-name="Grupo 91878" transform="translate(0 14.972)">
        <path id="Trazado_147628" data-name="Trazado 147628" d="M85.713,46.865a1.433,1.433,0,0,1-1.432-1.432l-.111-21.158A1.405,1.405,0,0,1,84.8,23.08l6.271-4.23A1.434,1.434,0,0,1,93.3,20.045v6.627l12.349,6.449,12.371-6.627V20a1.438,1.438,0,0,1,2.226-1.2l6.152,4.059a1.437,1.437,0,0,1,.646,1.195l.111,21.158a1.406,1.406,0,0,1-.408,1.017,1.44,1.44,0,0,1-1.017.43l-40.015.208Zm1.336-21.833.1,18.954,37.135-.2-.1-18.954-3.288-2.16v4.683a1.444,1.444,0,0,1-.757,1.269l-13.8,7.384a1.413,1.413,0,0,1-1.343.007l-13.8-7.2a1.446,1.446,0,0,1-.772-1.276V22.747Z" transform="translate(-84.169 -18.564)" fill="#3e2ea6"/>
      </g>
    </g>
  </g>
</svg>
