<svg xmlns="http://www.w3.org/2000/svg" width="76" height="76" viewBox="0 0 76 76">
  <g id="Grupo_92606" data-name="Grupo 92606" transform="translate(-1239 -6900)">
    <circle id="Elipse_4839" data-name="Elipse 4839" cx="38" cy="38" r="38" transform="translate(1239 6900)" fill="#3e2ea6"/>
    <g id="Grupo_91882" data-name="Grupo 91882" transform="translate(1253.307 6912.069)">
      <g id="Grupo_91855" data-name="Grupo 91855" transform="translate(28.209 25.981)">
        <path id="Trazado_147609" data-name="Trazado 147609" d="M25.593,42.407A11.242,11.242,0,1,1,36.835,31.165,11.257,11.257,0,0,1,25.593,42.407Zm0-19.978a8.736,8.736,0,1,0,8.736,8.736A8.743,8.743,0,0,0,25.593,22.429Z" transform="translate(-14.351 -19.923)" fill="#fff"/>
      </g>
      <g id="Grupo_91856" data-name="Grupo 91856" transform="translate(11.171 0)">
        <path id="Trazado_147610" data-name="Trazado 147610" d="M23.888,40.247A12.168,12.168,0,1,1,36.056,28.079,12.179,12.179,0,0,1,23.888,40.247Zm0-21.83a9.662,9.662,0,1,0,9.662,9.662A9.67,9.67,0,0,0,23.888,18.417Z" transform="translate(-11.72 -15.911)" fill="#fff"/>
      </g>
      <g id="Grupo_91857" data-name="Grupo 91857" transform="translate(0 17.265)">
        <path id="Trazado_147611" data-name="Trazado 147611" d="M41.4,45.653H11.251A1.252,1.252,0,0,1,10,44.4V40.058A23.353,23.353,0,0,1,23.983,18.681,1.258,1.258,0,0,1,25.5,19.1a9.605,9.605,0,0,0,15.659,0,1.262,1.262,0,0,1,1.522-.421,23.548,23.548,0,0,1,10.808,9.733,1.258,1.258,0,0,1-1.457,1.833,8.476,8.476,0,0,0-2.59-.447,8.709,8.709,0,0,0-7.039,13.865,1.245,1.245,0,0,1-1.01,1.988ZM12.5,43.147H39.214a10.973,10.973,0,0,1-1.01-4.611A11.257,11.257,0,0,1,49.446,27.294l.278.006a20.977,20.977,0,0,0-7.175-5.913,12.1,12.1,0,0,1-18.437,0A20.83,20.83,0,0,0,12.5,40.058Z" transform="translate(-9.995 -18.577)" fill="#fff"/>
      </g>
      <g id="Grupo_91858" data-name="Grupo 91858" transform="translate(34.114 32.276)">
        <path id="Trazado_147612" data-name="Trazado 147612" d="M19.8,30.79a1.24,1.24,0,0,1-1.017-.518l-3.283-4.5a1.254,1.254,0,1,1,2.027-1.477l2.221,3.044,3.886-5.88a1.255,1.255,0,1,1,2.092,1.386l-4.883,7.383a1.249,1.249,0,0,1-1.017.563Z" transform="translate(-15.263 -20.895)" fill="#fff"/>
      </g>
    </g>
  </g>
</svg>
