<svg xmlns="http://www.w3.org/2000/svg" width="449.728" height="376.013" viewBox="0 0 449.728 376.013">
  <g id="Grupo_88310" data-name="Grupo 88310" transform="translate(3852.072 1843.885)">
    <g id="Grupo_88130" data-name="Grupo 88130" transform="translate(-3737.954 -1843.885)">
      <g id="Grupo_88060" data-name="Grupo 88060" transform="translate(9.419 4.519)">
        <rect id="Rectángulo_34255" data-name="Rectángulo 34255" width="316.149" height="261.702" transform="translate(0.26 0.26)" fill="#fff"/>
        <g id="Grupo_88059" data-name="Grupo 88059">
          <path id="Trazado_144919" data-name="Trazado 144919" d="M-3206.616-1569.885c0-1.824-.086-103.992-.218-261.7l.218.218-316.121.042h-.027l.26-.261c-.01,94.737-.021,184.142-.029,261.7l-.232-.232,316.148.232-316.148.232H-3523v-.232c-.009-77.56-.018-166.965-.028-261.7v-.26h.288l316.121.042h.219v.218C-3206.529-1673.877-3206.614-1571.708-3206.616-1569.885Z" transform="translate(3523.025 1831.848)" fill="#1a2e35"/>
        </g>
      </g>
      <g id="Grupo_88061" data-name="Grupo 88061" transform="translate(36.327 75.176)">
        <path id="Trazado_144920" data-name="Trazado 144920" d="M-3198.2-1643.391c0,.144-56.676.261-126.573.261-69.921,0-126.585-.117-126.585-.261s56.664-.26,126.585-.26C-3254.871-1643.651-3198.2-1643.534-3198.2-1643.391Z" transform="translate(3451.354 1643.651)" fill="#e1e1e1"/>
      </g>
      <g id="Grupo_88062" data-name="Grupo 88062" transform="translate(36.327 103.13)">
        <path id="Trazado_144921" data-name="Trazado 144921" d="M-3198.2-1568.933c0,.144-56.676.261-126.573.261-69.921,0-126.585-.117-126.585-.261s56.664-.26,126.585-.26C-3254.871-1569.194-3198.2-1569.078-3198.2-1568.933Z" transform="translate(3451.354 1569.194)" fill="#e1e1e1"/>
      </g>
      <g id="Grupo_88063" data-name="Grupo 88063" transform="translate(36.327 131.084)">
        <path id="Trazado_144922" data-name="Trazado 144922" d="M-3198.2-1494.477c0,.144-56.676.261-126.573.261-69.921,0-126.585-.117-126.585-.261s56.664-.26,126.585-.26C-3254.871-1494.737-3198.2-1494.621-3198.2-1494.477Z" transform="translate(3451.354 1494.737)" fill="#e1e1e1"/>
      </g>
      <g id="Grupo_88064" data-name="Grupo 88064" transform="translate(36.327 159.037)">
        <path id="Trazado_144923" data-name="Trazado 144923" d="M-3198.2-1420.021c0,.144-56.676.261-126.573.261-69.921,0-126.585-.117-126.585-.261s56.664-.26,126.585-.26C-3254.871-1420.281-3198.2-1420.164-3198.2-1420.021Z" transform="translate(3451.354 1420.281)" fill="#e1e1e1"/>
      </g>
      <g id="Grupo_88065" data-name="Grupo 88065" transform="translate(36.327 186.991)">
        <path id="Trazado_144924" data-name="Trazado 144924" d="M-3198.2-1345.563c0,.144-56.676.26-126.573.26-69.921,0-126.585-.116-126.585-.26s56.664-.261,126.585-.261C-3254.871-1345.824-3198.2-1345.707-3198.2-1345.563Z" transform="translate(3451.354 1345.824)" fill="#e1e1e1"/>
      </g>
      <g id="Grupo_88066" data-name="Grupo 88066" transform="translate(36.327 214.946)">
        <path id="Trazado_144925" data-name="Trazado 144925" d="M-3198.2-1271.106c0,.144-56.676.26-126.573.26-69.921,0-126.585-.116-126.585-.26s56.664-.261,126.585-.261C-3254.871-1271.367-3198.2-1271.25-3198.2-1271.106Z" transform="translate(3451.354 1271.367)" fill="#e1e1e1"/>
      </g>
      <rect id="Rectángulo_34256" data-name="Rectángulo 34256" width="25.221" height="81.207" transform="translate(191.773 161.69)" fill="#375a64"/>
      <rect id="Rectángulo_34257" data-name="Rectángulo 34257" width="25.221" height="108.032" transform="translate(239.4 134.865)" fill="#375a64"/>
      <rect id="Rectángulo_34258" data-name="Rectángulo 34258" width="25.221" height="38.011" transform="translate(59.006 204.887)" fill="#375a64"/>
      <rect id="Rectángulo_34259" data-name="Rectángulo 34259" width="25.221" height="49.352" transform="translate(100.733 193.546)" fill="#375a64"/>
      <rect id="Rectángulo_34260" data-name="Rectángulo 34260" width="25.221" height="63.706" transform="translate(143.977 179.191)" fill="#375a64"/>
      <rect id="Rectángulo_34261" data-name="Rectángulo 34261" width="335.61" height="19.288" rx="8.706" transform="translate(0 0)" fill="#1a2e35"/>
      <g id="Grupo_88067" data-name="Grupo 88067" transform="translate(35.498 49.626)">
        <path id="Trazado_144926" data-name="Trazado 144926" d="M-3197.274-1518.432s-.393.018-1.16.026l-3.4.026-13.091.049-48.145.083-158.839.077-31.39,0h-.259v-.258c.034-54.685.064-103,.086-137.653.033-17.316.06-31.217.078-40.8.019-4.78.035-8.48.045-11q.015-1.869.023-2.85c.008-.641.025-.969.025-.969s.016.327.024.969.013,1.6.024,2.85c.01,2.518.025,6.219.045,11,.018,9.585.046,23.486.079,40.8.022,34.655.052,82.967.086,137.653l-.258-.258,31.39,0,158.839.077,48.145.083,13.091.049,3.4.026C-3197.667-1518.45-3197.274-1518.432-3197.274-1518.432Z" transform="translate(3453.562 1711.703)" fill="#1a2e35"/>
      </g>
      <g id="Grupo_88068" data-name="Grupo 88068" transform="translate(35.756 155.306)">
        <path id="Trazado_144927" data-name="Trazado 144927" d="M-3285.054-1430.221s-.131.141-.4.4l-1.219,1.125-4.725,4.295-17.47,15.751-58.042,52.07-.186.167-.175-.179-2.187-2.237-28.544-29.233.332.015-39.677,33.766-11.407,9.652-3.049,2.553-.792.649c-.179.144-.277.21-.277.21s.08-.086.25-.241l.766-.68,3-2.611,11.317-9.758,39.554-33.909.173-.148.159.163,28.569,29.209,2.187,2.238-.36-.012,58.148-51.953,17.58-15.629,4.789-4.223,1.253-1.088C-3285.208-1430.107-3285.054-1430.221-3285.054-1430.221Z" transform="translate(3452.874 1430.221)" fill="#ff735d"/>
      </g>
      <g id="Grupo_88123" data-name="Grupo 88123" transform="translate(180.444 40.388)">
        <g id="Grupo_88069" data-name="Grupo 88069" transform="translate(0 77.056)">
          <path id="Trazado_144928" data-name="Trazado 144928" d="M-3007.745-1518.955l-30.4-12.112c-9.75.856-12.73,11.339-10.84,17.989a11.329,11.329,0,0,0-12.114,4.691,11.328,11.328,0,0,0,.769,12.968,10.283,10.283,0,0,0-6.543,13.176,10.284,10.284,0,0,0,13.832,5.011c3.215-1.734,5.379-5.192,8.833-6.381,3.24-1.115,6.76.041,10.172.351,8.474.771,16.9-4.077,21.585-11.177S-3006.506-1510.537-3007.745-1518.955Z" transform="translate(3067.492 1531.067)" fill="#ececec"/>
        </g>
        <g id="Grupo_88119" data-name="Grupo 88119" transform="translate(16.522)">
          <g id="Grupo_88115" data-name="Grupo 88115">
            <g id="Grupo_88070" data-name="Grupo 88070" transform="translate(10.527 81.653)">
              <path id="Trazado_144929" data-name="Trazado 144929" d="M-2982.2-1518.824a24.757,24.757,0,0,0-7.529,6.17,2.222,2.222,0,0,0,2.277,3.549l.055-.014a91.789,91.789,0,0,0-7.537,9.354,2.737,2.737,0,0,0,2.934,4.227,41.888,41.888,0,0,0,23.987-17.1Z" transform="translate(2995.445 1518.824)" fill="#ff735d"/>
            </g>
            <g id="Grupo_88072" data-name="Grupo 88072" transform="translate(19.357 85.64)" opacity="0.3">
              <g id="Grupo_88071" data-name="Grupo 88071">
                <path id="Trazado_144930" data-name="Trazado 144930" d="M-2968.209-1508.2a4.252,4.252,0,0,0-1.343.978,1.446,1.446,0,0,0-.237,1.558c.408.728,1.541.8,1.912,1.55.393.794-.34,1.662-1.006,2.246l-2.115,1.851c-.518.453-1.089,1.076-.886,1.734.226.728,1.2.86,1.954.775a10.939,10.939,0,0,0,8.364-5.79Z" transform="translate(2971.927 1508.204)"/>
              </g>
            </g>
            <g id="Grupo_88083" data-name="Grupo 88083">
              <g id="Grupo_88076" data-name="Grupo 88076" transform="translate(52.104 73.419)">
                <g id="Grupo_88073" data-name="Grupo 88073" transform="translate(0.119 0)">
                  <path id="Trazado_144931" data-name="Trazado 144931" d="M-2865.252-1540.755c.007.031.021.1.04.211a41.2,41.2,0,0,1-9.33,34.4l-5.117,5.935-4.727-18.35Z" transform="translate(2884.385 1540.755)" fill="#ff8654"/>
                </g>
                <g id="Grupo_88075" data-name="Grupo 88075">
                  <g id="Grupo_88074" data-name="Grupo 88074">
                    <path id="Trazado_144932" data-name="Trazado 144932" d="M-2865.449-1540.755s-.033.042-.094.115l-.272.322-1.052,1.234-3.938,4.61-13.7,15.982.023-.1c1.329,5.149,2.788,10.8,4.317,16.724l.418,1.624-.2-.047,3.017-3.5c.983-1.155,1.989-2.266,2.9-3.412a41.778,41.778,0,0,0,4.613-7.036,39.7,39.7,0,0,0,2.851-7.045c.373-1.132.605-2.26.87-3.332.194-1.087.424-2.123.528-3.13a40.718,40.718,0,0,0,.167-9.542c-.079-1.127-.253-1.987-.325-2.576-.072-.52-.106-.763-.124-.9,0,0,.02.068.054.224s.066.38.115.666c.086.587.275,1.447.368,2.574a39.828,39.828,0,0,1-.1,9.573c-.1,1.011-.325,2.052-.516,3.145-.261,1.077-.491,2.211-.861,3.35a39.657,39.657,0,0,1-2.845,7.087,41.767,41.767,0,0,1-4.625,7.081c-.914,1.156-1.915,2.263-2.9,3.42l-3.016,3.5-.146.169-.055-.216-.418-1.623-4.3-16.729-.014-.055.037-.043,13.854-15.972,3.956-4.547,1.048-1.2.268-.3C-2865.479-1540.725-2865.449-1540.758-2865.449-1540.755Z" transform="translate(2884.702 1540.755)" fill="#ff8654"/>
                  </g>
                </g>
              </g>
              <g id="Grupo_88080" data-name="Grupo 88080" transform="translate(0 44.34)">
                <g id="Grupo_88077" data-name="Grupo 88077" transform="translate(0.233 0.024)">
                  <path id="Trazado_144933" data-name="Trazado 144933" d="M-2985.4-1618.11l-.211-.009a40.644,40.644,0,0,0-32.2,14.1l-5.047,5.854,18.59,1.947Z" transform="translate(3022.862 1618.145)" fill="#ff8654"/>
                </g>
                <g id="Grupo_88079" data-name="Grupo 88079">
                  <g id="Grupo_88078" data-name="Grupo 88078">
                    <path id="Trazado_144934" data-name="Trazado 144934" d="M-2985.789-1618.151s-.025.033-.082.1l-.258.306-1.019,1.2-3.861,4.52-13.571,15.837-.037.043-.056-.006-16.946-1.766-1.645-.172-.221-.023.146-.169,2.976-3.45c.986-1.128,1.92-2.264,2.915-3.325a41.192,41.192,0,0,1,6.237-5.541,39.1,39.1,0,0,1,6.5-3.8c1.057-.526,2.13-.915,3.144-1.326,1.039-.344,2.021-.717,2.994-.96a39.223,39.223,0,0,1,9.325-1.483c1.114-.073,1.979-.014,2.565-.015l.666.016c.158.01.226.021.226.021l-.893.009c-.585.016-1.449-.029-2.56.057a40.206,40.206,0,0,0-9.285,1.549c-.967.247-1.944.623-2.977.97-1.007.414-2.073.8-3.124,1.333a39.14,39.14,0,0,0-6.459,3.8,41.2,41.2,0,0,0-6.194,5.522c-.986,1.052-1.924,2.2-2.907,3.322l-2.975,3.452-.076-.192,1.645.172,16.944,1.782-.093.037,13.6-15.682,3.926-4.512,1.052-1.206.275-.312C-2985.825-1618.113-2985.792-1618.15-2985.789-1618.151Z" transform="translate(3023.484 1618.21)" fill="#ff8654"/>
                  </g>
                </g>
              </g>
              <g id="Grupo_88082" data-name="Grupo 88082" transform="translate(10.942)">
                <g id="Grupo_88081" data-name="Grupo 88081">
                  <path id="Trazado_144935" data-name="Trazado 144935" d="M-2900.655-1735.513c-2.665-2.3-13.5.368-27.973,7.95a90.511,90.511,0,0,0-23.015,17.158l-42.7,49.523,13.049,11.25,7.563,6.52,13.049,11.25,38.745-44.94a90.9,90.9,0,0,0,10.048-14.151,108.664,108.664,0,0,0,7.486-15.723c5.692-15.244,6.41-26.541,3.745-28.839" transform="translate(2994.339 1736.311)" fill="#f5f5f5"/>
                </g>
              </g>
            </g>
            <g id="Grupo_88087" data-name="Grupo 88087" transform="translate(17.706 67.58)">
              <g id="Grupo_88084" data-name="Grupo 88084" transform="translate(0 0)">
                <line id="Línea_110" data-name="Línea 110" x2="33.49" y2="28.534" fill="#f5f5f5"/>
              </g>
              <g id="Grupo_88086" data-name="Grupo 88086">
                <g id="Grupo_88085" data-name="Grupo 88085">
                  <path id="Trazado_144936" data-name="Trazado 144936" d="M-2942.833-1527.773c-.042.049-7.573-6.3-16.82-14.177s-16.713-14.308-16.67-14.356,7.571,6.3,16.821,14.179S-2942.791-1527.822-2942.833-1527.773Z" transform="translate(2976.323 1556.307)" fill="#1a2e35"/>
                </g>
              </g>
            </g>
            <g id="Grupo_88091" data-name="Grupo 88091" transform="translate(16.263 68.953)">
              <g id="Grupo_88088" data-name="Grupo 88088" transform="translate(0 0)">
                <line id="Línea_111" data-name="Línea 111" x2="33.49" y2="28.534" fill="#f5f5f5"/>
              </g>
              <g id="Grupo_88090" data-name="Grupo 88090">
                <g id="Grupo_88089" data-name="Grupo 88089">
                  <path id="Trazado_144937" data-name="Trazado 144937" d="M-2946.677-1524.116c-.042.049-7.573-6.3-16.82-14.178s-16.712-14.307-16.67-14.356,7.571,6.3,16.822,14.179S-2946.635-1524.166-2946.677-1524.116Z" transform="translate(2980.167 1552.651)" fill="#1a2e35"/>
                </g>
              </g>
            </g>
            <g id="Grupo_88095" data-name="Grupo 88095" transform="translate(14.924 70.56)">
              <g id="Grupo_88092" data-name="Grupo 88092" transform="translate(0 0)">
                <line id="Línea_112" data-name="Línea 112" x2="33.49" y2="28.534" fill="#f5f5f5"/>
              </g>
              <g id="Grupo_88094" data-name="Grupo 88094">
                <g id="Grupo_88093" data-name="Grupo 88093">
                  <path id="Trazado_144938" data-name="Trazado 144938" d="M-2950.243-1519.837c-.042.049-7.573-6.3-16.82-14.178s-16.712-14.307-16.67-14.356,7.571,6.3,16.821,14.179S-2950.2-1519.886-2950.243-1519.837Z" transform="translate(2983.733 1548.371)" fill="#1a2e35"/>
                </g>
              </g>
            </g>
            <g id="Grupo_88099" data-name="Grupo 88099" transform="translate(13.584 72.166)">
              <g id="Grupo_88096" data-name="Grupo 88096" transform="translate(0 0)">
                <line id="Línea_113" data-name="Línea 113" x2="33.49" y2="28.534" fill="#f5f5f5"/>
              </g>
              <g id="Grupo_88098" data-name="Grupo 88098">
                <g id="Grupo_88097" data-name="Grupo 88097">
                  <path id="Trazado_144939" data-name="Trazado 144939" d="M-2953.811-1515.557c-.042.049-7.573-6.3-16.82-14.178s-16.712-14.307-16.67-14.356,7.572,6.3,16.821,14.179S-2953.77-1515.607-2953.811-1515.557Z" transform="translate(2987.302 1544.092)" fill="#1a2e35"/>
                </g>
              </g>
            </g>
            <g id="Grupo_88103" data-name="Grupo 88103" transform="translate(12.245 73.773)">
              <g id="Grupo_88100" data-name="Grupo 88100" transform="translate(0 0)">
                <line id="Línea_114" data-name="Línea 114" x2="33.49" y2="28.534" fill="#f5f5f5"/>
              </g>
              <g id="Grupo_88102" data-name="Grupo 88102">
                <g id="Grupo_88101" data-name="Grupo 88101">
                  <path id="Trazado_144940" data-name="Trazado 144940" d="M-2957.378-1511.278c-.042.049-7.573-6.3-16.82-14.178s-16.712-14.307-16.671-14.356,7.572,6.3,16.822,14.179S-2957.336-1511.327-2957.378-1511.278Z" transform="translate(2990.869 1539.812)" fill="#1a2e35"/>
                </g>
              </g>
            </g>
            <g id="Grupo_88105" data-name="Grupo 88105" transform="translate(34.579 59.003)">
              <g id="Grupo_88104" data-name="Grupo 88104">
                <path id="Trazado_144941" data-name="Trazado 144941" d="M-2911.4-1579.154a1.6,1.6,0,0,1-.162.263c-.11.177-.3.4-.539.707-.48.6-1.193,1.457-2.083,2.506-1.781,2.1-4.273,4.968-7.044,8.12s-5.3,5.992-7.138,8.039l-2.188,2.414-.6.648a1.506,1.506,0,0,1-.223.215,1.577,1.577,0,0,1,.188-.246l.571-.678,2.132-2.463,7.086-8.084,7.1-8.073,2.138-2.457c.246-.294.454-.514.57-.674A1.582,1.582,0,0,1-2911.4-1579.154Z" transform="translate(2931.382 1579.154)" fill="#1a2e35"/>
              </g>
            </g>
            <g id="Grupo_88107" data-name="Grupo 88107" transform="translate(37.96 44.67)">
              <g id="Grupo_88106" data-name="Grupo 88106">
                <path id="Trazado_144942" data-name="Trazado 144942" d="M-2888.98-1588.581c-.042.049-7.552-6.348-16.774-14.285s-16.665-14.415-16.623-14.464,7.551,6.347,16.775,14.287S-2888.938-1588.63-2888.98-1588.581Z" transform="translate(2922.377 1617.331)" fill="#1a2e35"/>
              </g>
            </g>
            <g id="Grupo_88109" data-name="Grupo 88109" transform="translate(41.616 77.634)">
              <g id="Grupo_88108" data-name="Grupo 88108">
                <path id="Trazado_144943" data-name="Trazado 144943" d="M-2911.078-1529.5a.556.556,0,0,1,.332.031,1.405,1.405,0,0,1,.733.544,1.333,1.333,0,0,1,.14,1.343,1.508,1.508,0,0,1-1.392.883,1.506,1.506,0,0,1-1.3-1.014,1.334,1.334,0,0,1,.27-1.323,1.4,1.4,0,0,1,.782-.47.557.557,0,0,1,.333,0,2.634,2.634,0,0,1-.31.086,1.435,1.435,0,0,0-.678.486,1.181,1.181,0,0,0-.2,1.147,1.313,1.313,0,0,0,1.11.853,1.312,1.312,0,0,0,1.187-.742,1.179,1.179,0,0,0-.083-1.16,1.432,1.432,0,0,0-.628-.55C-2910.963-1529.468-2911.08-1529.482-2911.078-1529.5Z" transform="translate(2912.639 1529.529)" fill="#1a2e35"/>
              </g>
            </g>
            <g id="Grupo_88111" data-name="Grupo 88111" transform="translate(50.045 68.216)">
              <g id="Grupo_88110" data-name="Grupo 88110">
                <path id="Trazado_144944" data-name="Trazado 144944" d="M-2888.625-1554.589c0-.012.122-.03.332.03a1.4,1.4,0,0,1,.733.544,1.336,1.336,0,0,1,.141,1.343,1.509,1.509,0,0,1-1.393.883,1.508,1.508,0,0,1-1.3-1.014,1.335,1.335,0,0,1,.27-1.323,1.406,1.406,0,0,1,.782-.47c.215-.039.334-.01.333,0a2.9,2.9,0,0,1-.31.086,1.435,1.435,0,0,0-.678.486,1.178,1.178,0,0,0-.195,1.147,1.311,1.311,0,0,0,1.109.853,1.313,1.313,0,0,0,1.187-.741,1.179,1.179,0,0,0-.083-1.16,1.435,1.435,0,0,0-.628-.55A2.76,2.76,0,0,1-2888.625-1554.589Z" transform="translate(2890.187 1554.615)" fill="#1a2e35"/>
              </g>
            </g>
            <g id="Grupo_88113" data-name="Grupo 88113" transform="translate(19.317 44.399)" opacity="0.3">
              <g id="Grupo_88112" data-name="Grupo 88112">
                <path id="Trazado_144945" data-name="Trazado 144945" d="M-2972.033-1596.736s12.721-14.088,18.379-21.317c-4.287,2.164-9.157,4.673-12.582,8.038A20.06,20.06,0,0,0-2972.033-1596.736Z" transform="translate(2972.033 1618.053)"/>
              </g>
            </g>
            <g id="Grupo_88114" data-name="Grupo 88114" transform="translate(8.569 110.961)">
              <path id="Trazado_144946" data-name="Trazado 144946" d="M-2997.946-1440.738a2.469,2.469,0,0,0-2.686,1.971,2.469,2.469,0,0,0,1.921,2.721,2.469,2.469,0,0,0,2.756-1.87,2.469,2.469,0,0,0-1.82-2.79" transform="translate(3000.659 1440.76)" fill="#ff735d"/>
            </g>
          </g>
          <g id="Grupo_88117" data-name="Grupo 88117" transform="translate(58.815 17.627)">
            <circle id="Elipse_4711" data-name="Elipse 4711" cx="11.999" cy="11.999" r="11.999" transform="translate(0 15.023) rotate(-38.756)" fill="#fff"/>
            <g id="Grupo_88116" data-name="Grupo 88116" transform="translate(4.619 4.644)">
              <path id="Trazado_144947" data-name="Trazado 144947" d="M-2830.369-1663.27a23.075,23.075,0,0,0-.108-2.942,11.961,11.961,0,0,0-3.535-6.981,11.762,11.762,0,0,0-4.663-2.785,11.84,11.84,0,0,0-6.2-.244,11.05,11.05,0,0,0-3.148,1.222,11.029,11.029,0,0,0-2.772,2.169,11.807,11.807,0,0,0-3.128,6.6,11.808,11.808,0,0,0,1.4,7.172,11.047,11.047,0,0,0,2.15,2.788,11.055,11.055,0,0,0,2.749,1.963,11.842,11.842,0,0,0,6.067,1.3,11.765,11.765,0,0,0,5.207-1.547,11.96,11.96,0,0,0,5.151-5.891,23.1,23.1,0,0,0,.831-2.823,4.144,4.144,0,0,1-.082.763,5.437,5.437,0,0,1-.185.914,8.4,8.4,0,0,1-.376,1.219,11.946,11.946,0,0,1-5.155,6.135,12.044,12.044,0,0,1-5.366,1.66,12.222,12.222,0,0,1-6.311-1.3,11.484,11.484,0,0,1-2.874-2.031,11.5,11.5,0,0,1-2.253-2.9,12.275,12.275,0,0,1-1.469-7.486,12.271,12.271,0,0,1,3.275-6.888,11.492,11.492,0,0,1,2.9-2.252,11.483,11.483,0,0,1,3.286-1.257,12.223,12.223,0,0,1,6.436.3,12.044,12.044,0,0,1,4.789,2.934,11.942,11.942,0,0,1,3.478,7.22,8.433,8.433,0,0,1,.064,1.274,5.452,5.452,0,0,1-.047.932A4.17,4.17,0,0,1-2830.369-1663.27Z" transform="translate(2854.525 1676.99)" fill="#1a2e35"/>
            </g>
          </g>
          <g id="Grupo_88118" data-name="Grupo 88118" transform="translate(76.654)">
            <path id="Trazado_144948" data-name="Trazado 144948" d="M-2791.34-1735.513c-2.665-2.3-13.5.368-27.973,7.95l24.228,20.888c5.692-15.244,6.409-26.541,3.745-28.839" transform="translate(2819.313 1736.311)" fill="#7cccff"/>
          </g>
        </g>
        <g id="Grupo_88122" data-name="Grupo 88122" transform="translate(89.803 26.959)">
          <g id="Grupo_88120" data-name="Grupo 88120" transform="translate(2.676)">
            <path id="Trazado_144949" data-name="Trazado 144949" d="M-2820.472-1648.046a10.033,10.033,0,0,1-.326-2.4c-.12-1.489-.2-3.55-.254-5.824-.038-2.171-.072-4.136-.1-5.819a12.6,12.6,0,0,1,.042-2.417,10.042,10.042,0,0,1,.325,2.4c.119,1.49.2,3.55.254,5.825.038,2.17.072,4.135.1,5.818A12.629,12.629,0,0,1-2820.472-1648.046Z" transform="translate(2821.169 1664.505)" fill="#1a2e35"/>
          </g>
          <g id="Grupo_88121" data-name="Grupo 88121" transform="translate(0 3.608)">
            <path id="Trazado_144950" data-name="Trazado 144950" d="M-2827.608-1644.337a26.976,26.976,0,0,1-.555-5.264,26.952,26.952,0,0,1-.035-5.294,27.136,27.136,0,0,1,.555,5.265A27.092,27.092,0,0,1-2827.608-1644.337Z" transform="translate(2828.297 1654.895)" fill="#1a2e35"/>
          </g>
        </g>
      </g>
      <path id="Trazado_144951" data-name="Trazado 144951" d="M-2988.538-1373.808a6.2,6.2,0,0,0-6.385,1.584,4.719,4.719,0,0,0-.4,5.618,5.329,5.329,0,0,0-3.127,4.968,6.455,6.455,0,0,0,3.032,5.166,8.224,8.224,0,0,0,6,1,9.754,9.754,0,0,0,7.566-8.827A9.755,9.755,0,0,0-2988.538-1373.808Z" transform="translate(3204.813 1550.491)" fill="#ececec"/>
      <path id="Trazado_144952" data-name="Trazado 144952" d="M-3106.726-1402.394a5.4,5.4,0,0,1-5.4,5.4,5.4,5.4,0,0,1-5.4-5.4,5.4,5.4,0,0,1,5.4-5.4A5.4,5.4,0,0,1-3106.726-1402.394Z" transform="translate(3279.187 1571.521)" fill="#ececec"/>
      <g id="Grupo_88124" data-name="Grupo 88124" transform="translate(35.756 64.062)">
        <path id="Trazado_144953" data-name="Trazado 144953" d="M-3440.348-1672.993a37.862,37.862,0,0,1-6.263.261,37.857,37.857,0,0,1-6.263-.261,37.9,37.9,0,0,1,6.263-.26A37.9,37.9,0,0,1-3440.348-1672.993Z" transform="translate(3452.874 1673.253)" fill="#1a2e35"/>
      </g>
      <g id="Grupo_88125" data-name="Grupo 88125" transform="translate(35.756 90.656)">
        <path id="Trazado_144954" data-name="Trazado 144954" d="M-3440.348-1602.158a37.911,37.911,0,0,1-6.263.26,37.906,37.906,0,0,1-6.263-.26,37.809,37.809,0,0,1,6.263-.261A37.814,37.814,0,0,1-3440.348-1602.158Z" transform="translate(3452.874 1602.419)" fill="#1a2e35"/>
      </g>
      <g id="Grupo_88126" data-name="Grupo 88126" transform="translate(35.756 117.249)">
        <path id="Trazado_144955" data-name="Trazado 144955" d="M-3440.348-1531.326a37.839,37.839,0,0,1-6.263.26,37.833,37.833,0,0,1-6.263-.26,37.872,37.872,0,0,1,6.263-.261A37.878,37.878,0,0,1-3440.348-1531.326Z" transform="translate(3452.874 1531.586)" fill="#1a2e35"/>
      </g>
      <g id="Grupo_88127" data-name="Grupo 88127" transform="translate(35.756 143.843)">
        <path id="Trazado_144956" data-name="Trazado 144956" d="M-3440.348-1460.491a37.878,37.878,0,0,1-6.263.261,37.872,37.872,0,0,1-6.263-.261,37.881,37.881,0,0,1,6.263-.26A37.887,37.887,0,0,1-3440.348-1460.491Z" transform="translate(3452.874 1460.752)" fill="#1a2e35"/>
      </g>
      <g id="Grupo_88128" data-name="Grupo 88128" transform="translate(35.756 170.436)">
        <path id="Trazado_144957" data-name="Trazado 144957" d="M-3440.348-1389.658a37.8,37.8,0,0,1-6.263.261,37.8,37.8,0,0,1-6.263-.261,37.9,37.9,0,0,1,6.263-.26A37.9,37.9,0,0,1-3440.348-1389.658Z" transform="translate(3452.874 1389.919)" fill="#1a2e35"/>
      </g>
      <g id="Grupo_88129" data-name="Grupo 88129" transform="translate(35.756 197.03)">
        <path id="Trazado_144958" data-name="Trazado 144958" d="M-3440.348-1318.824a37.911,37.911,0,0,1-6.263.26,37.906,37.906,0,0,1-6.263-.26,37.881,37.881,0,0,1,6.263-.26A37.887,37.887,0,0,1-3440.348-1318.824Z" transform="translate(3452.874 1319.085)" fill="#1a2e35"/>
      </g>
    </g>
    <g id="Grupo_88309" data-name="Grupo 88309" transform="translate(-3852.072 -1787.092)">
      <g id="Grupo_88135" data-name="Grupo 88135" transform="translate(210.086 133.162)">
        <path id="Trazado_144959" data-name="Trazado 144959" d="M-3292.5-1298.641l4.474-2.733s5.855-5.214,7.448-6.351,7.745-3.907,8.613-3.837,9.321-.462,11.331-1.4,4.179-2.164,4.179-2.164a3.088,3.088,0,0,1,.216,3.629c-1.209,2.081-7.385,6.006-7.385,6.006l2.319,15.115s-5.755,4.539-9.342,4.837-7.037-.409-8.05-.092-3.532,1.206-3.532,1.206Z" transform="translate(3292.497 1323.687)" fill="#ffc19d"/>
        <path id="Trazado_144960" data-name="Trazado 144960" d="M-3249.875-1311.889l39.262-26.042,2.229,3.279-38.9,25.929Z" transform="translate(3265.877 1337.931)" fill="#1a2e35"/>
        <g id="Grupo_88132" data-name="Grupo 88132" transform="translate(18.301 16.862)">
          <path id="Trazado_144961" data-name="Trazado 144961" d="M-3223.572-1291.267s3.02,1.222,1.415,3.962-3.64,1.885-3.64,1.885.737,2.96-2.653,4.557a5.091,5.091,0,0,1-1.982,4.563l-1.908.988-1.216-2.35s-7.184-.657-8.268-3.518l-.052-1.485a2.132,2.132,0,0,1-1.167-2.1c.233-1.394.138-1.424,2.843-2.347s8.435-.309,8.435-.309-3.075-1.175-3.023-2.763,1.279-2.6,4.581-2.372A32.837,32.837,0,0,1-3223.572-1291.267Z" transform="translate(3243.326 1292.75)" fill="#ffc19d"/>
          <g id="Grupo_88131" data-name="Grupo 88131">
            <path id="Trazado_144962" data-name="Trazado 144962" d="M-3224-1291.536a11.259,11.259,0,0,1-1.187-.264c-.771-.177-1.9-.435-3.364-.648a23.574,23.574,0,0,0-2.424-.234,6.7,6.7,0,0,0-2.765.367,2.029,2.029,0,0,0-1.065.954,1.75,1.75,0,0,0-.079,1.456,3.3,3.3,0,0,0,1.162,1.171,8.815,8.815,0,0,0,1.607.835l1.375.554-1.48-.12a31.715,31.715,0,0,0-7.054.027,9.023,9.023,0,0,0-1.811.483,7.1,7.1,0,0,0-1.71.755,1.1,1.1,0,0,0-.341.729l-.082.49a1.719,1.719,0,0,0-.009.433,1.956,1.956,0,0,0,1.04,1.384l.138.076.005.147c.017.47.035.976.053,1.485l-.017-.083.178.331a4.177,4.177,0,0,0,1.618,1.373,11.365,11.365,0,0,0,2.039.816,23.756,23.756,0,0,0,4.211.839l.139.016.062.12,1.211,2.353-.33-.105,1.911-.982-.029.017a4.8,4.8,0,0,0,1.906-4.34l-.014-.16.136-.065a4.684,4.684,0,0,0,2.137-1.845,3.689,3.689,0,0,0,.435-2.473l-.057-.316.3.108a2.375,2.375,0,0,0,1.855-.169,3.844,3.844,0,0,0,1.3-1.171,4.6,4.6,0,0,0,.7-1.37,2.2,2.2,0,0,0-.048-1.253,2.952,2.952,0,0,0-1.117-1.368c-.34-.24-.541-.333-.533-.351a1.671,1.671,0,0,1,.589.266,2.929,2.929,0,0,1,1.245,1.384,2.381,2.381,0,0,1,.1,1.377,4.794,4.794,0,0,1-.7,1.479,4.1,4.1,0,0,1-1.382,1.292,2.685,2.685,0,0,1-2.144.214l.243-.208a4.034,4.034,0,0,1-.436,2.755,5.077,5.077,0,0,1-2.3,2.042l.122-.224a5.671,5.671,0,0,1-.359,2.591,4.921,4.921,0,0,1-1.7,2.194l-.012.009-.017.009-1.9.994-.217.113-.114-.218-1.222-2.346.2.134a23.944,23.944,0,0,1-4.316-.846,11.838,11.838,0,0,1-2.134-.851,4.659,4.659,0,0,1-1.821-1.564l-.218-.414-.015-.028,0-.055c-.018-.509-.035-1.015-.052-1.484l.143.223a2.461,2.461,0,0,1-1.32-1.786,2.246,2.246,0,0,1,.013-.577l.086-.5a1.614,1.614,0,0,1,.519-1.027,7.17,7.17,0,0,1,1.874-.841,9.53,9.53,0,0,1,1.9-.5,31.467,31.467,0,0,1,7.179.017l-.1.434a9.175,9.175,0,0,1-1.689-.9,3.673,3.673,0,0,1-1.292-1.352,2.278,2.278,0,0,1,1.373-2.926,6.932,6.932,0,0,1,2.923-.346,22.484,22.484,0,0,1,2.45.292,30.465,30.465,0,0,1,3.359.774c.381.111.67.206.864.275A1.012,1.012,0,0,1-3224-1291.536Z" transform="translate(3243.752 1293.019)" fill="#ff9c6a"/>
          </g>
        </g>
        <g id="Grupo_88133" data-name="Grupo 88133" transform="translate(19.698 26.294)">
          <path id="Trazado_144963" data-name="Trazado 144963" d="M-3227.383-1265.364a34.146,34.146,0,0,0-6.191-1.827,34.109,34.109,0,0,0-6.455-.095,5.288,5.288,0,0,1,1.872-.467,16.521,16.521,0,0,1,4.661.047,16.535,16.535,0,0,1,4.464,1.34A5.322,5.322,0,0,1-3227.383-1265.364Z" transform="translate(3240.03 1267.896)" fill="#ff9c6a"/>
        </g>
        <g id="Grupo_88134" data-name="Grupo 88134" transform="translate(28.967 22.209)">
          <path id="Trazado_144964" data-name="Trazado 144964" d="M-3208.587-1276.592c-.087.111-1.412-.761-3.3-1.267-1.868-.541-3.463-.65-3.459-.8a6.929,6.929,0,0,1,3.6.3A5.724,5.724,0,0,1-3208.587-1276.592Z" transform="translate(3215.341 1278.777)" fill="#ff9c6a"/>
        </g>
      </g>
      <g id="Grupo_88288" data-name="Grupo 88288" transform="translate(51.102 0)">
        <g id="Grupo_88140" data-name="Grupo 88140" transform="translate(22.812)">
          <g id="Grupo_88139" data-name="Grupo 88139">
            <g id="Grupo_88138" data-name="Grupo 88138">
              <g id="Grupo_88137" data-name="Grupo 88137">
                <g id="Grupo_88136" data-name="Grupo 88136">
                  <path id="Trazado_144965" data-name="Trazado 144965" d="M-3654.559-1687.078a6.742,6.742,0,0,1,6.931-3.572,9.217,9.217,0,0,1,11.351-.018,8.36,8.36,0,0,1,8.079-.321,8.36,8.36,0,0,1,4.425,6.768,7.039,7.039,0,0,1,7.231,3.464,7.039,7.039,0,0,1-1.01,7.954,6.818,6.818,0,0,1,4.558,7.564,6.818,6.818,0,0,1-7.067,5.3l-33.111-19.461A6.741,6.741,0,0,1-3654.559-1687.078Z" transform="translate(3655.198 1692.614)" fill="#1a2e35"/>
                </g>
              </g>
            </g>
          </g>
        </g>
        <g id="Grupo_88275" data-name="Grupo 88275" transform="translate(0 3.092)">
          <g id="Grupo_88268" data-name="Grupo 88268" transform="translate(0.187 3.503)">
            <g id="Grupo_88147" data-name="Grupo 88147" transform="translate(7.127 1.861)">
              <g id="Grupo_88146" data-name="Grupo 88146">
                <g id="Grupo_88145" data-name="Grupo 88145">
                  <g id="Grupo_88144" data-name="Grupo 88144">
                    <g id="Grupo_88143" data-name="Grupo 88143">
                      <g id="Grupo_88142" data-name="Grupo 88142">
                        <g id="Grupo_88141" data-name="Grupo 88141">
                          <path id="Trazado_144966" data-name="Trazado 144966" d="M-3644.866-1644.974a27.935,27.935,0,0,0-28.371-25.111l-1.446.03c-15.577,1.233-23.233,15.15-21.57,30.687l3.329,51.887,2.272,6.487,26.835,33.626,6.764-30.292.129-14.065s14.945-2.64,14.822-17.634C-3642.163-1616.6-3643.5-1631.5-3644.866-1644.974Z" transform="translate(3696.477 1670.091)" fill="#ffc19d"/>
                        </g>
                      </g>
                    </g>
                  </g>
                </g>
              </g>
            </g>
            <g id="Grupo_88156" data-name="Grupo 88156" transform="translate(27.043 74.859)">
              <g id="Grupo_88155" data-name="Grupo 88155">
                <g id="Grupo_88154" data-name="Grupo 88154">
                  <g id="Grupo_88153" data-name="Grupo 88153">
                    <g id="Grupo_88152" data-name="Grupo 88152">
                      <g id="Grupo_88151" data-name="Grupo 88151">
                        <g id="Grupo_88150" data-name="Grupo 88150">
                          <g id="Grupo_88149" data-name="Grupo 88149">
                            <g id="Grupo_88148" data-name="Grupo 88148">
                              <path id="Trazado_144967" data-name="Trazado 144967" d="M-3623.81-1470.267a36.317,36.317,0,0,1-19.617-5.39s4.814,10.722,19.6,9.109Z" transform="translate(3643.428 1475.657)" fill="#ff9c6a"/>
                            </g>
                          </g>
                        </g>
                      </g>
                    </g>
                  </g>
                </g>
              </g>
            </g>
            <g id="Grupo_88168" data-name="Grupo 88168" transform="translate(50.411 39.057)">
              <g id="Grupo_88167" data-name="Grupo 88167">
                <g id="Grupo_88166" data-name="Grupo 88166">
                  <g id="Grupo_88165" data-name="Grupo 88165">
                    <g id="Grupo_88164" data-name="Grupo 88164">
                      <g id="Grupo_88163" data-name="Grupo 88163">
                        <g id="Grupo_88162" data-name="Grupo 88162">
                          <g id="Grupo_88161" data-name="Grupo 88161">
                            <g id="Grupo_88160" data-name="Grupo 88160">
                              <g id="Grupo_88159" data-name="Grupo 88159">
                                <g id="Grupo_88158" data-name="Grupo 88158">
                                  <g id="Grupo_88157" data-name="Grupo 88157">
                                    <path id="Trazado_144968" data-name="Trazado 144968" d="M-3576.917-1569.125a2.141,2.141,0,0,1-2.02,2.2,2.048,2.048,0,0,1-2.246-1.885,2.142,2.142,0,0,1,2.017-2.2A2.049,2.049,0,0,1-3576.917-1569.125Z" transform="translate(3581.186 1571.017)" fill="#1a2e35"/>
                                  </g>
                                </g>
                              </g>
                            </g>
                          </g>
                        </g>
                      </g>
                    </g>
                  </g>
                </g>
              </g>
            </g>
            <g id="Grupo_88181" data-name="Grupo 88181" transform="translate(47.387 32.971)">
              <g id="Grupo_88180" data-name="Grupo 88180">
                <g id="Grupo_88179" data-name="Grupo 88179">
                  <g id="Grupo_88178" data-name="Grupo 88178">
                    <g id="Grupo_88177" data-name="Grupo 88177">
                      <g id="Grupo_88176" data-name="Grupo 88176">
                        <g id="Grupo_88175" data-name="Grupo 88175">
                          <g id="Grupo_88174" data-name="Grupo 88174">
                            <g id="Grupo_88173" data-name="Grupo 88173">
                              <g id="Grupo_88172" data-name="Grupo 88172">
                                <g id="Grupo_88171" data-name="Grupo 88171">
                                  <g id="Grupo_88170" data-name="Grupo 88170">
                                    <g id="Grupo_88169" data-name="Grupo 88169">
                                      <path id="Trazado_144969" data-name="Trazado 144969" d="M-3580.779-1585.062c-.259.285-1.905-.882-4.209-.828-2.3.02-3.968,1.24-4.223.964-.125-.123.135-.632.859-1.183a5.873,5.873,0,0,1,3.374-1.117,5.646,5.646,0,0,1,3.358,1.008C-3580.9-1585.69-3580.65-1585.19-3580.779-1585.062Z" transform="translate(3589.241 1587.228)" fill="#1a2e35"/>
                                    </g>
                                  </g>
                                </g>
                              </g>
                            </g>
                          </g>
                        </g>
                      </g>
                    </g>
                  </g>
                </g>
              </g>
            </g>
            <g id="Grupo_88193" data-name="Grupo 88193" transform="translate(30.689 40.451)">
              <g id="Grupo_88192" data-name="Grupo 88192">
                <g id="Grupo_88191" data-name="Grupo 88191">
                  <g id="Grupo_88190" data-name="Grupo 88190">
                    <g id="Grupo_88189" data-name="Grupo 88189">
                      <g id="Grupo_88188" data-name="Grupo 88188">
                        <g id="Grupo_88187" data-name="Grupo 88187">
                          <g id="Grupo_88186" data-name="Grupo 88186">
                            <g id="Grupo_88185" data-name="Grupo 88185">
                              <g id="Grupo_88184" data-name="Grupo 88184">
                                <g id="Grupo_88183" data-name="Grupo 88183">
                                  <g id="Grupo_88182" data-name="Grupo 88182">
                                    <path id="Trazado_144970" data-name="Trazado 144970" d="M-3629.448-1565.414a2.141,2.141,0,0,1-2.02,2.2,2.047,2.047,0,0,1-2.246-1.885,2.143,2.143,0,0,1,2.018-2.2A2.049,2.049,0,0,1-3629.448-1565.414Z" transform="translate(3633.718 1567.306)" fill="#1a2e35"/>
                                  </g>
                                </g>
                              </g>
                            </g>
                          </g>
                        </g>
                      </g>
                    </g>
                  </g>
                </g>
              </g>
            </g>
            <g id="Grupo_88206" data-name="Grupo 88206" transform="translate(25.342 33.105)">
              <g id="Grupo_88205" data-name="Grupo 88205">
                <g id="Grupo_88204" data-name="Grupo 88204">
                  <g id="Grupo_88203" data-name="Grupo 88203">
                    <g id="Grupo_88202" data-name="Grupo 88202">
                      <g id="Grupo_88201" data-name="Grupo 88201">
                        <g id="Grupo_88200" data-name="Grupo 88200">
                          <g id="Grupo_88199" data-name="Grupo 88199">
                            <g id="Grupo_88198" data-name="Grupo 88198">
                              <g id="Grupo_88197" data-name="Grupo 88197">
                                <g id="Grupo_88196" data-name="Grupo 88196">
                                  <g id="Grupo_88195" data-name="Grupo 88195">
                                    <g id="Grupo_88194" data-name="Grupo 88194">
                                      <path id="Trazado_144971" data-name="Trazado 144971" d="M-3639.5-1584.707c-.26.285-1.908-.882-4.21-.828-2.3.02-3.968,1.24-4.223.963-.125-.122.132-.632.86-1.183a5.868,5.868,0,0,1,3.373-1.117,5.646,5.646,0,0,1,3.358,1.008C-3639.62-1585.334-3639.368-1584.834-3639.5-1584.707Z" transform="translate(3647.96 1586.872)" fill="#1a2e35"/>
                                    </g>
                                  </g>
                                </g>
                              </g>
                            </g>
                          </g>
                        </g>
                      </g>
                    </g>
                  </g>
                </g>
              </g>
            </g>
            <g id="Grupo_88218" data-name="Grupo 88218" transform="translate(40.272 33.014)">
              <g id="Grupo_88217" data-name="Grupo 88217">
                <g id="Grupo_88216" data-name="Grupo 88216">
                  <g id="Grupo_88215" data-name="Grupo 88215">
                    <g id="Grupo_88214" data-name="Grupo 88214">
                      <g id="Grupo_88213" data-name="Grupo 88213">
                        <g id="Grupo_88212" data-name="Grupo 88212">
                          <g id="Grupo_88211" data-name="Grupo 88211">
                            <g id="Grupo_88210" data-name="Grupo 88210">
                              <g id="Grupo_88209" data-name="Grupo 88209">
                                <g id="Grupo_88208" data-name="Grupo 88208">
                                  <g id="Grupo_88207" data-name="Grupo 88207">
                                    <path id="Trazado_144972" data-name="Trazado 144972" d="M-3606.72-1567.942a15.2,15.2,0,0,1,3.727-.753c.587-.072,1.142-.2,1.232-.6a2.992,2.992,0,0,0-.428-1.736q-.873-2.117-1.832-4.443c-2.547-6.327-4.4-11.535-4.148-11.635s2.528,4.947,5.075,11.274q.921,2.341,1.759,4.472a3.4,3.4,0,0,1,.353,2.3,1.476,1.476,0,0,1-.949.88,3.985,3.985,0,0,1-1,.159A15.077,15.077,0,0,1-3606.72-1567.942Z" transform="translate(3608.192 1587.115)" fill="#1a2e35"/>
                                  </g>
                                </g>
                              </g>
                            </g>
                          </g>
                        </g>
                      </g>
                    </g>
                  </g>
                </g>
              </g>
            </g>
            <g id="Grupo_88230" data-name="Grupo 88230" transform="translate(34.649 53.919)">
              <g id="Grupo_88229" data-name="Grupo 88229">
                <g id="Grupo_88228" data-name="Grupo 88228">
                  <g id="Grupo_88227" data-name="Grupo 88227">
                    <g id="Grupo_88226" data-name="Grupo 88226">
                      <g id="Grupo_88225" data-name="Grupo 88225">
                        <g id="Grupo_88224" data-name="Grupo 88224">
                          <g id="Grupo_88223" data-name="Grupo 88223">
                            <g id="Grupo_88222" data-name="Grupo 88222">
                              <g id="Grupo_88221" data-name="Grupo 88221">
                                <g id="Grupo_88220" data-name="Grupo 88220">
                                  <g id="Grupo_88219" data-name="Grupo 88219">
                                    <path id="Trazado_144973" data-name="Trazado 144973" d="M-3622.822-1531.432c.375-.03.43,2.471,2.608,4.2s4.832,1.4,4.859,1.75c.038.156-.583.5-1.708.552a6.227,6.227,0,0,1-4.053-1.319,5.427,5.427,0,0,1-2.026-3.526C-3623.259-1530.818-3622.992-1531.444-3622.822-1531.432Z" transform="translate(3623.171 1531.433)" fill="#1a2e35"/>
                                  </g>
                                </g>
                              </g>
                            </g>
                          </g>
                        </g>
                      </g>
                    </g>
                  </g>
                </g>
              </g>
            </g>
            <g id="Grupo_88238" data-name="Grupo 88238" transform="translate(24.347 26.548)">
              <g id="Grupo_88237" data-name="Grupo 88237">
                <g id="Grupo_88236" data-name="Grupo 88236">
                  <g id="Grupo_88235" data-name="Grupo 88235">
                    <g id="Grupo_88234" data-name="Grupo 88234">
                      <g id="Grupo_88233" data-name="Grupo 88233">
                        <g id="Grupo_88232" data-name="Grupo 88232">
                          <g id="Grupo_88231" data-name="Grupo 88231">
                            <path id="Trazado_144974" data-name="Trazado 144974" d="M-3641.258-1602.194c-.262.6-2.257.108-4.667.2-2.411.034-4.406.632-4.667.042-.114-.281.278-.835,1.113-1.362a7.2,7.2,0,0,1,3.557-1.016,6.923,6.923,0,0,1,3.554.834C-3641.533-1603.015-3641.143-1602.482-3641.258-1602.194Z" transform="translate(3650.611 1604.336)" fill="#1a2e35"/>
                          </g>
                        </g>
                      </g>
                    </g>
                  </g>
                </g>
              </g>
            </g>
            <g id="Grupo_88246" data-name="Grupo 88246" transform="translate(47.348 26.836)">
              <g id="Grupo_88245" data-name="Grupo 88245">
                <g id="Grupo_88244" data-name="Grupo 88244">
                  <g id="Grupo_88243" data-name="Grupo 88243">
                    <g id="Grupo_88242" data-name="Grupo 88242">
                      <g id="Grupo_88241" data-name="Grupo 88241">
                        <g id="Grupo_88240" data-name="Grupo 88240">
                          <g id="Grupo_88239" data-name="Grupo 88239">
                            <path id="Trazado_144975" data-name="Trazado 144975" d="M-3581.5-1601.575c-.35.562-1.984.184-3.885.355-1.907.1-3.471.711-3.9.2-.189-.247.01-.8.661-1.36a5.4,5.4,0,0,1,3.067-1.178,5.4,5.4,0,0,1,3.2.727C-3581.62-1602.361-3581.344-1601.847-3581.5-1601.575Z" transform="translate(3589.346 1603.569)" fill="#1a2e35"/>
                          </g>
                        </g>
                      </g>
                    </g>
                  </g>
                </g>
              </g>
            </g>
            <g id="Grupo_88253" data-name="Grupo 88253" transform="translate(3.52)">
              <g id="Grupo_88252" data-name="Grupo 88252">
                <g id="Grupo_88251" data-name="Grupo 88251">
                  <g id="Grupo_88250" data-name="Grupo 88250">
                    <g id="Grupo_88249" data-name="Grupo 88249">
                      <g id="Grupo_88248" data-name="Grupo 88248">
                        <g id="Grupo_88247" data-name="Grupo 88247">
                          <path id="Trazado_144976" data-name="Trazado 144976" d="M-3652.449-1654.915s-4.147-9.306-8.719-11.4c-5.535-2.539-7.77,3.525-13.022,2.172s-10.536-3.789-15.79.358c-5.75,4.539-2.95,7.583-3.174,14.241-.908,27-5.675,34.723-7.337,22.05-.182-1.388-4.067-2.416-4.761-8.283-.9-7.608-1.383-16.859.208-22.3,1.34-4.59,3.875-7.794,8.465-11.363,7.248-5.635,17.355-5.961,24.234-5.412S-3652.066-1666.682-3652.449-1654.915Z" transform="translate(3706.084 1675.048)" fill="#1a2e35"/>
                        </g>
                      </g>
                    </g>
                  </g>
                </g>
              </g>
            </g>
            <g id="Grupo_88260" data-name="Grupo 88260" transform="translate(0 43.267)">
              <g id="Grupo_88259" data-name="Grupo 88259">
                <g id="Grupo_88258" data-name="Grupo 88258">
                  <g id="Grupo_88257" data-name="Grupo 88257">
                    <g id="Grupo_88256" data-name="Grupo 88256">
                      <g id="Grupo_88255" data-name="Grupo 88255">
                        <g id="Grupo_88254" data-name="Grupo 88254">
                          <path id="Trazado_144977" data-name="Trazado 144977" d="M-3705.4-1555.948a4.069,4.069,0,0,0-4.474-3.831c-2.79.323-5.868,1.975-5.565,7.748.538,10.241,10.71,7.588,10.712,7.294C-3704.725-1544.937-3705.136-1551.664-3705.4-1555.948Z" transform="translate(3715.459 1559.805)" fill="#ffc19d"/>
                        </g>
                      </g>
                    </g>
                  </g>
                </g>
              </g>
            </g>
            <g id="Grupo_88267" data-name="Grupo 88267" transform="translate(3.52 46.596)">
              <g id="Grupo_88266" data-name="Grupo 88266">
                <g id="Grupo_88265" data-name="Grupo 88265">
                  <g id="Grupo_88264" data-name="Grupo 88264">
                    <g id="Grupo_88263" data-name="Grupo 88263">
                      <g id="Grupo_88262" data-name="Grupo 88262">
                        <g id="Grupo_88261" data-name="Grupo 88261">
                          <path id="Trazado_144978" data-name="Trazado 144978" d="M-3701.3-1542.935c-.047-.03-.172.135-.466.289a1.786,1.786,0,0,1-1.332.1c-1.1-.34-2.1-2.01-2.252-3.853a5.9,5.9,0,0,1,.366-2.58,2.061,2.061,0,0,1,1.269-1.44.909.909,0,0,1,1.079.433c.152.279.1.487.154.5.03.024.21-.184.105-.6a1.137,1.137,0,0,0-.437-.62,1.347,1.347,0,0,0-1-.209,2.512,2.512,0,0,0-1.78,1.686,6.069,6.069,0,0,0-.469,2.887c.174,2.06,1.332,3.936,2.835,4.286a1.915,1.915,0,0,0,1.617-.356C-3701.307-1542.686-3701.266-1542.918-3701.3-1542.935Z" transform="translate(3706.084 1550.938)" fill="#ff9c6a"/>
                        </g>
                      </g>
                    </g>
                  </g>
                </g>
              </g>
            </g>
          </g>
          <g id="Grupo_88274" data-name="Grupo 88274">
            <g id="Grupo_88273" data-name="Grupo 88273">
              <g id="Grupo_88272" data-name="Grupo 88272">
                <g id="Grupo_88271" data-name="Grupo 88271">
                  <g id="Grupo_88270" data-name="Grupo 88270">
                    <g id="Grupo_88269" data-name="Grupo 88269">
                      <path id="Trazado_144979" data-name="Trazado 144979" d="M-3705.92-1653.612a9.735,9.735,0,0,0,4.382,1.915c1.607.126,3.422-.833,3.66-2.428.107-.715-.085-1.539.373-2.1.546-.669,1.583-.484,2.444-.411a6.542,6.542,0,0,0,6.692-4.83c.783,1.122,2.556,1.036,3.691.271a14.689,14.689,0,0,0,2.729-3.043,4.217,4.217,0,0,1,3.482-1.832,10.133,10.133,0,0,0,2.239.445c1.344-.147,1.968-1.737,2.144-3.077s.3-2.9,1.427-3.651c1.042-.695,2.419-.334,3.662-.177s2.836-.167,3.128-1.385a2.434,2.434,0,0,0-.5-1.849,6.639,6.639,0,0,0-7.886-2.351,9.224,9.224,0,0,0-7.814-6.234,9.221,9.221,0,0,0-8.75,4.831,9.291,9.291,0,0,0-8.209-1.972,9.292,9.292,0,0,0-6.317,5.6,6.781,6.781,0,0,0-6.865,2.488,6.783,6.783,0,0,0-.4,7.292c-1.821,1.09-3.36,2.953-3.355,5.075s2.116,4.193,4.151,3.593a3.8,3.8,0,0,0,1.545,4.786,3.8,3.8,0,0,0,4.868-1.261" transform="translate(3715.958 1684.379)" fill="#1a2e35"/>
                    </g>
                  </g>
                </g>
              </g>
            </g>
          </g>
        </g>
        <g id="Grupo_88281" data-name="Grupo 88281" transform="translate(3.369 30.022)">
          <g id="Grupo_88280" data-name="Grupo 88280">
            <g id="Grupo_88279" data-name="Grupo 88279">
              <g id="Grupo_88278" data-name="Grupo 88278">
                <g id="Grupo_88277" data-name="Grupo 88277">
                  <g id="Grupo_88276" data-name="Grupo 88276">
                    <path id="Trazado_144980" data-name="Trazado 144980" d="M-3706.955-1612.648a2.456,2.456,0,0,0,.679,1.957,3.294,3.294,0,0,0,2.079,1.182,3.551,3.551,0,0,0,2.9-.909l-.435-.056a10.249,10.249,0,0,0,2.1,2.514,5.885,5.885,0,0,0,1.891,1.122,4,4,0,0,0,2.067.15,4.036,4.036,0,0,0,2.922-1.757,5.928,5.928,0,0,0,.786-2.15,2.027,2.027,0,0,0,.062-.83c-.045-.009-.125.275-.285.775a6.9,6.9,0,0,1-.906,1.969,4.18,4.18,0,0,1-6.156.271,10.3,10.3,0,0,1-2-2.355l-.187-.3-.248.242a3.116,3.116,0,0,1-2.456.838,3.024,3.024,0,0,1-1.875-.939A5,5,0,0,1-3706.955-1612.648Z" transform="translate(3706.985 1612.649)" fill="#375a64"/>
                  </g>
                </g>
              </g>
            </g>
          </g>
        </g>
        <g id="Grupo_88287" data-name="Grupo 88287" transform="translate(22.281 2.13)">
          <g id="Grupo_88286" data-name="Grupo 88286">
            <g id="Grupo_88285" data-name="Grupo 88285">
              <g id="Grupo_88284" data-name="Grupo 88284">
                <g id="Grupo_88283" data-name="Grupo 88283">
                  <g id="Grupo_88282" data-name="Grupo 88282">
                    <path id="Trazado_144981" data-name="Trazado 144981" d="M-3656.611-1682.852c0,.036.269.066.73.25a3.522,3.522,0,0,1,1.62,1.321l.127.193.137-.193a12.762,12.762,0,0,1,4.873-4.115,9.959,9.959,0,0,1,4.017-.968,8.323,8.323,0,0,1,4.365,1.15,8.45,8.45,0,0,1,2.635,2.4,6.94,6.94,0,0,1,1.191,3.066l.039.324.309-.092a5.754,5.754,0,0,1,4.271.431,5.612,5.612,0,0,1,2.381,2.449,7.668,7.668,0,0,1,.7,3.023,2.093,2.093,0,0,0,.107-.841,5.7,5.7,0,0,0-.51-2.324,5.831,5.831,0,0,0-2.462-2.708,6.156,6.156,0,0,0-4.642-.551l.348.231a7.4,7.4,0,0,0-1.256-3.337,8.914,8.914,0,0,0-2.813-2.577,8.785,8.785,0,0,0-4.676-1.211,10.285,10.285,0,0,0-4.227,1.074,12.463,12.463,0,0,0-4.914,4.4h.264a3.478,3.478,0,0,0-1.828-1.3A1.538,1.538,0,0,0-3656.611-1682.852Z" transform="translate(3656.611 1686.939)" fill="#375a64"/>
                  </g>
                </g>
              </g>
            </g>
          </g>
        </g>
      </g>
      <path id="Trazado_144982" data-name="Trazado 144982" d="M-3744.61-975.919l.362-53.889,7.583-19.659.01-5.3,85.646-1.437v6.178l9.829,24.433.524,49.677h-49.47l-4.133-22.435-.954,22.435Z" transform="translate(3784.956 1295.139)" fill="#1a2e35"/>
      <g id="Grupo_88301" data-name="Grupo 88301" transform="translate(0 86.882)">
        <path id="Trazado_144983" data-name="Trazado 144983" d="M-3702.564-1461.2l17.876,14,11.321,14.374,4.14-14.9,2.966-11.688,4.868,4.829,12.34,26.277,13.879,127.006s-24.209,7.09-36.748,7.95-32.521-2.578-32.521-2.578v-66.823l-7.116-66.179,8.584-25.359Z" transform="translate(3764.314 1461.2)" fill="#f5f5f5"/>
        <g id="Grupo_88289" data-name="Grupo 88289" transform="translate(90.726 29.003)">
          <path id="Trazado_144984" data-name="Trazado 144984" d="M-3603.273-1245.951a1.854,1.854,0,0,1-.035-.356c-.013-.263-.03-.608-.051-1.046-.035-.952-.084-2.3-.147-4.024-.119-3.527-.289-8.575-.5-14.8-.433-12.5-1.121-29.756-2.1-48.807s-2.087-36.3-2.946-48.772c-.434-6.214-.786-11.252-1.031-14.772-.115-1.72-.205-3.068-.269-4.017-.024-.438-.043-.784-.057-1.046a1.827,1.827,0,0,1,0-.358,1.862,1.862,0,0,1,.055.354l.108,1.042c.087.948.21,2.293.367,4.01.31,3.483.721,8.526,1.2,14.761.953,12.469,2.11,29.71,3.1,48.772s1.613,36.322,1.952,48.823c.171,6.25.283,11.31.333,14.807.021,1.724.037,3.074.049,4.027,0,.438,0,.785,0,1.047A1.785,1.785,0,0,1-3603.273-1245.951Z" transform="translate(3610.42 1383.95)" fill="#1a2e35"/>
        </g>
        <path id="Trazado_144985" data-name="Trazado 144985" d="M-3758.2-1451.132l-4.138,5.7-33.852,17.818,18.84,57.458,5.075,32.226-19.031,76.554s23.091,7.945,25.121,5.407c.854-1.067,3.277-6.575,5.8-12.6a135.074,135.074,0,0,0,9.694-37.6c1.413-13.033,2.71-29.646,1.761-40.9-1.776-21.061-4.567-55.824-4.821-64.959s-1.869-43.626-1.869-43.626Z" transform="translate(3817.172 1457.736)" fill="#4f37b3"/>
        <path id="Trazado_144986" data-name="Trazado 144986" d="M-3584.533-1452.624l11.2,6.542,36.269,11.919-2.9,25.653-1.665,66.38,11.419,79.677s-12.18,4.314-17,2.537-11.418-12.687-11.672-19.285-9.642-70.542-9.642-70.542l-9.135-86.02Z" transform="translate(3684.977 1455.844)" fill="#4f37b3"/>
        <g id="Grupo_88290" data-name="Grupo 88290" transform="translate(112.337 9.725)">
          <path id="Trazado_144987" data-name="Trazado 144987" d="M-3552.855-1435.3a4.042,4.042,0,0,1,.455.511l1.254,1.536,4.655,5.831.1.124-.129.1-3.945,3-.055-.326,4.629,1.465.146.046v.154c-.088,8.252-.2,18.642-.319,29.9-.2,13.747-.382,26.188-.514,35.245-.09,4.477-.164,8.115-.215,10.68-.036,1.228-.065,2.2-.085,2.9-.014.306-.026.554-.035.755a.973.973,0,0,1-.03.257.974.974,0,0,1-.024-.258c0-.2-.01-.449-.016-.756,0-.705-.007-1.676-.013-2.9.012-2.565.029-6.2.05-10.682.093-9.057.22-21.5.362-35.247.16-11.262.307-21.652.424-29.9l.144.2-4.616-1.507-.344-.112.289-.214,3.98-2.948-.03.222-4.541-5.921-1.19-1.586A4.151,4.151,0,0,1-3552.855-1435.3Z" transform="translate(3552.856 1435.297)" fill="#1a2e35"/>
        </g>
        <g id="Grupo_88291" data-name="Grupo 88291" transform="translate(51.028 5.715)">
          <path id="Trazado_144988" data-name="Trazado 144988" d="M-3699.975-1351.94a1.056,1.056,0,0,1-.1-.248l-.242-.74c-.223-.688-.532-1.639-.923-2.843-.81-2.467-2.012-6.027-3.555-10.405l-2.558-7.15a86.158,86.158,0,0,1-2.6-8.34,188.477,188.477,0,0,1-3.635-19.66c-1.256-9.147-2.069-17.772-2.563-25.192l-.007-.1.075-.072,3.989-3.847.02.315-3.782-2.878-.148-.113.109-.148,6.83-9.26,1.879-2.5.5-.643a1.068,1.068,0,0,1,.185-.208,1.1,1.1,0,0,1-.141.24l-.457.674-1.8,2.56-6.694,9.358-.039-.26,3.807,2.845.194.145-.175.171-3.963,3.874.068-.177c.537,7.4,1.373,16.019,2.627,25.149a195.948,195.948,0,0,0,3.585,19.615q1.14,4.456,2.543,8.311l2.5,7.175c1.5,4.4,2.649,7.977,3.4,10.465.376,1.244.652,2.214.83,2.875l.192.755A.974.974,0,0,1-3699.975-1351.94Z" transform="translate(3716.157 1445.978)" fill="#1a2e35"/>
        </g>
        <path id="Trazado_144989" data-name="Trazado 144989" d="M-3750.488-1090.372l19.694,7.724,1.313-4.388,6.69,6.119,1.2-10.636-6.174-11.513-21.281,6.894Z" transform="translate(3788.626 1237.523)" opacity="0.3"/>
        <g id="Grupo_88296" data-name="Grupo 88296" transform="translate(55.612 121.99)">
          <path id="Trazado_144990" data-name="Trazado 144990" d="M-3654.515-1111.264l-7.992-4.851-7.021-6.363a17.728,17.728,0,0,0,5.462,2.971,4.514,4.514,0,0,0,5.147-1.925s-2.879-1.817-3.867-2.366-10.953-7.981-13.477-8.53-19.183-3.947-19.183-3.947l-.265.862-8.235,17.552,7.318,1.965a48.756,48.756,0,0,1,3.731,6.144c1.646,3.291,9.63,6.536,12.707,8.15s6.55-1.211,6.55-1.211c3.532.809,4.4-2.987,4.4-2.987,4.06-.548,4.406-4.968,4.406-4.968s7.37,2.856,9.642,3.257a1.388,1.388,0,0,0,1.675-.88A2.337,2.337,0,0,0-3654.515-1111.264Z" transform="translate(3703.947 1136.274)" fill="#ffc19d"/>
          <g id="Grupo_88292" data-name="Grupo 88292" transform="translate(30.301 20.425)">
            <path id="Trazado_144991" data-name="Trazado 144991" d="M-3614.424-1076.791a20.167,20.167,0,0,1-4.659-2.093,14.7,14.7,0,0,1-4.152-2.981c.089-.112,1.947,1.187,4.4,2.526A33.285,33.285,0,0,1-3614.424-1076.791Z" transform="translate(3623.238 1081.872)" fill="#ff9c6a"/>
          </g>
          <g id="Grupo_88293" data-name="Grupo 88293" transform="translate(26.161 24.844)">
            <path id="Trazado_144992" data-name="Trazado 144992" d="M-3634.266-1070.091a21.126,21.126,0,0,1,4.593,2.723,42.793,42.793,0,0,1,4.322,3.116,20.251,20.251,0,0,1-4.616-2.686A39.426,39.426,0,0,1-3634.266-1070.091Z" transform="translate(3634.268 1070.101)" fill="#ff9c6a"/>
          </g>
          <g id="Grupo_88294" data-name="Grupo 88294" transform="translate(22.983 28.24)">
            <path id="Trazado_144993" data-name="Trazado 144993" d="M-3642.725-1061.05c.1-.094,1.635,1.191,3.7,2.579a20.638,20.638,0,0,1,3.614,2.728,19.168,19.168,0,0,1-3.911-2.3A11.876,11.876,0,0,1-3642.725-1061.05Z" transform="translate(3642.731 1061.055)" fill="#ff9c6a"/>
          </g>
          <g id="Grupo_88295" data-name="Grupo 88295" transform="translate(25.038 6.777)">
            <path id="Trazado_144994" data-name="Trazado 144994" d="M-3637.256-1118.2a4.487,4.487,0,0,1,1.78.384,13.607,13.607,0,0,1,3.838,2.145,17.932,17.932,0,0,1,3.084,3.123,5.233,5.233,0,0,1,.969,1.536c-.139.112-1.738-2.166-4.374-4.249A24.1,24.1,0,0,0-3637.256-1118.2Z" transform="translate(3637.257 1118.222)" fill="#ff9c6a"/>
          </g>
        </g>
        <path id="Trazado_144995" data-name="Trazado 144995" d="M-3848.522-1284.643a7.5,7.5,0,0,1-3.525-6.1,68.254,68.254,0,0,1,.6-10.4c1.407-11.719,20.59-79.765,20.59-79.765l19.29,53.029-6.624,23.087,33.756,16.163-9.4,26.522S-3838.685-1278.518-3848.522-1284.643Z" transform="translate(3852.072 1411.052)" fill="#4f37b3"/>
        <path id="Trazado_144996" data-name="Trazado 144996" d="M-3473.828-1403.454l30.98,58.9.832,1.209,33.786-17.247,11.127,22.506-45.461,27.6a11.338,11.338,0,0,1-15.228-3.426l-20.093-29.988-5.4-24.648Z" transform="translate(3621.744 1425.134)" fill="#4f37b3"/>
        <g id="Grupo_88297" data-name="Grupo 88297" transform="translate(143.324 38.482)">
          <path id="Trazado_144997" data-name="Trazado 144997" d="M-3469.585-1358.7a3.972,3.972,0,0,1,.061.742c.017.537.041,1.245.071,2.129.035,1.907.083,4.568.143,7.832.085,6.614.119,15.751.022,25.843s-.309,19.231-.521,25.842c-.122,3.262-.222,5.921-.293,7.827-.046.883-.083,1.59-.112,2.127a3.944,3.944,0,0,1-.074.74,4.028,4.028,0,0,1-.03-.744c0-.537.008-1.245.014-2.13.031-1.906.075-4.567.128-7.831.117-6.611.27-15.746.368-25.838s.12-19.223.13-25.836c.01-3.264.017-5.925.023-7.831.011-.884.021-1.592.027-2.13A4.071,4.071,0,0,1-3469.585-1358.7Z" transform="translate(3470.32 1358.701)" fill="#1a2e35"/>
        </g>
        <g id="Grupo_88298" data-name="Grupo 88298" transform="translate(28.689 44.876)">
          <path id="Trazado_144998" data-name="Trazado 144998" d="M-3775.653-1341.67a2.889,2.889,0,0,1,.215.595c.134.449.3,1.023.516,1.732l1.811,6.392c1.507,5.4,3.573,12.874,5.672,21.175s3.761,15.882,4.806,21.4c.524,2.757.919,4.993,1.157,6.545.11.732.2,1.324.268,1.787a2.875,2.875,0,0,1,.058.629,2.9,2.9,0,0,1-.162-.611c-.094-.458-.215-1.045-.364-1.769-.324-1.6-.771-3.809-1.318-6.508-1.137-5.49-2.855-13.043-4.95-21.341s-4.107-15.778-5.523-21.206l-1.651-6.435-.422-1.757A2.9,2.9,0,0,1-3775.653-1341.67Z" transform="translate(3775.656 1341.67)" fill="#1a2e35"/>
        </g>
        <g id="Grupo_88299" data-name="Grupo 88299" transform="translate(14.728 105.259)">
          <path id="Trazado_144999" data-name="Trazado 144999" d="M-3812.843-1154.238a.916.916,0,0,1,.219.063l.631.225,2.431.911,9.072,3.484,31.249,12.174-.327.149,6.294-17.8,3.1-8.729.132.319-33.364-16.108.024.01a19.76,19.76,0,0,0-7.88-.9,19.612,19.612,0,0,0-5.831,1.481,24.748,24.748,0,0,0-3.385,1.78l-.834.548a1.67,1.67,0,0,1-.294.174,1.625,1.625,0,0,1,.263-.217l.807-.593a22.272,22.272,0,0,1,3.362-1.879,19.437,19.437,0,0,1,5.884-1.585,19.9,19.9,0,0,1,8.02.84l.012,0,.012.006,33.428,15.975.209.1-.077.219-3.091,8.731-6.314,17.789-.086.244-.24-.095-31.181-12.346-9.018-3.62-2.4-.987-.616-.265A.9.9,0,0,1-3812.843-1154.238Z" transform="translate(3812.843 1180.836)" fill="#1a2e35"/>
        </g>
        <g id="Grupo_88300" data-name="Grupo 88300" transform="translate(177.462 81.187)">
          <path id="Trazado_145000" data-name="Trazado 145000" d="M-3376.891-1244.955a7.791,7.791,0,0,1,.082,2.318,36.029,36.029,0,0,1-.783,5.533c-.447,2.133-.9,4.043-1.206,5.432a11.744,11.744,0,0,1-.568,2.238,9,9,0,0,1,.207-2.306c.212-1.413.612-3.346,1.057-5.469s.772-4.05.927-5.459A14.855,14.855,0,0,1-3376.891-1244.955Z" transform="translate(3379.393 1244.955)" fill="#1a2e35"/>
        </g>
      </g>
      <g id="Grupo_88302" data-name="Grupo 88302" transform="translate(176.19 169.49)">
        <path id="Trazado_145001" data-name="Trazado 145001" d="M-3379.008-1241.167a24.277,24.277,0,0,1-1.634,5.35,40.021,40.021,0,0,1-2.121,5.168,24.237,24.237,0,0,1,1.633-5.351A39.806,39.806,0,0,1-3379.008-1241.167Z" transform="translate(3382.781 1241.167)" fill="#1a2e35"/>
      </g>
      <g id="Grupo_88303" data-name="Grupo 88303" transform="translate(61.548 97.275)">
        <path id="Trazado_145002" data-name="Trazado 145002" d="M-3659.158-1416.068a7.027,7.027,0,0,1-.95-.859l-2.517-2.5-8.5-8.682.369-.013a10.478,10.478,0,0,0-2.192,4.664,10.406,10.406,0,0,0-.21,2.727l.034.587-.452-.367c-4.3-3.485-7.781-6.9-10.387-9.236-1.292-1.178-2.339-2.114-3.068-2.75a10,10,0,0,1-1.1-1.017,8.154,8.154,0,0,1,1.224.872c.768.593,1.853,1.491,3.178,2.636,2.669,2.267,6.2,5.646,10.478,9.089l-.418.22a10.785,10.785,0,0,1,.215-2.867,10.857,10.857,0,0,1,2.322-4.892l.181-.21.188.2,8.37,8.811,2.411,2.608A7.085,7.085,0,0,1-3659.158-1416.068Z" transform="translate(3688.136 1433.518)" fill="#1a2e35"/>
      </g>
      <g id="Grupo_88304" data-name="Grupo 88304" transform="translate(91.26 95.736)">
        <path id="Trazado_145003" data-name="Trazado 145003" d="M-3598.36-1437.616a2.948,2.948,0,0,1,.042.8c0,.519-.031,1.276-.1,2.229a46.79,46.79,0,0,1-1.26,7.664l-.157.629-.3-.579a18.753,18.753,0,0,0-3.294-4.545c-.376-.382-.765-.744-1.144-1.07l.422-.141a70.956,70.956,0,0,1-3.074,10.15c-.487,1.25-.915,2.241-1.229,2.915a5.05,5.05,0,0,1-.537,1.022,5.44,5.44,0,0,1,.36-1.1l1.076-2.964a88.153,88.153,0,0,0,2.9-10.141l.093-.422.329.281c.39.334.791.705,1.178,1.1a18.532,18.532,0,0,1,3.358,4.689l-.454.05a57.081,57.081,0,0,0,1.434-7.572C-3598.494-1436.5-3598.422-1437.619-3598.36-1437.616Z" transform="translate(3608.996 1437.616)" fill="#1a2e35"/>
      </g>
      <g id="Grupo_88306" data-name="Grupo 88306" transform="translate(132.716 227.854)">
        <path id="Trazado_145004" data-name="Trazado 145004" d="M-3498.569-1083.893l3.024,9.4,17.123-1.582-5.339-8.982Z" transform="translate(3498.572 1085.302)" fill="#624ac9"/>
        <g id="Grupo_88305" data-name="Grupo 88305">
          <path id="Trazado_145005" data-name="Trazado 145005" d="M-3498.573-1084.3a7.983,7.983,0,0,1,1.02-.13l3-.3c2.591-.249,6.328-.6,10.772-.971l.145-.012.076.126,5.361,8.968.212.354-.412.038-.879.082-16.249,1.444-.164.015-.048-.155c-.92-2.936-1.636-5.33-2.121-6.963l-.55-1.872a3.968,3.968,0,0,1-.16-.628,6.294,6.294,0,0,1,.263.689l.661,1.891,2.293,6.758-.212-.14,16.238-1.558.879-.081-.2.392c-1.9-3.22-3.706-6.268-5.317-8.995l.22.114c-4.333.32-8,.55-10.619.71l-3.069.18C-3498.154-1084.3-3498.552-1084.288-3498.573-1084.3Z" transform="translate(3498.576 1085.712)" fill="#624ac9"/>
        </g>
      </g>
      <g id="Grupo_88308" data-name="Grupo 88308" transform="translate(121.804 154.433)">
        <rect id="Rectángulo_34262" data-name="Rectángulo 34262" width="18.398" height="5.936" transform="translate(0.261 0.285)" fill="#624ac9"/>
        <g id="Grupo_88307" data-name="Grupo 88307">
          <path id="Trazado_145006" data-name="Trazado 145006" d="M-3508.982-1275.054a2.646,2.646,0,0,1-.035-.435c-.011-.326-.025-.716-.042-1.185-.023-1.084-.054-2.533-.093-4.316l.169.17c-4.381.055-11,.091-18.4.091.116-.116-.261.26.259-.26v1.531q0,.76,0,1.5c0,.992,0,1.961-.006,2.9l-.253-.253c5.24.013,9.8.067,13.083.117l3.872.071a13.878,13.878,0,0,1,1.443.065,10.169,10.169,0,0,1-1.327.065l-3.814.071c-3.269.049-7.909.1-13.256.117h-.252v-.253c0-.939,0-1.908-.006-2.9q0-.744,0-1.5v-1.531c.521-.521.145-.145.262-.261,7.392,0,14.015.035,18.4.091l.173,0,0,.168c-.038,1.825-.069,3.308-.093,4.417A12.858,12.858,0,0,1-3508.982-1275.054Z" transform="translate(3527.64 1281.275)" fill="#624ac9"/>
        </g>
      </g>
      <path id="Trazado_145007" data-name="Trazado 145007" d="M-3536.077-1402.18l2.826,3.9s-.789,59.067-3.79,73.734Z" transform="translate(3655.316 1511.22)" opacity="0.3"/>
    </g>
  </g>
</svg>
