<svg xmlns="http://www.w3.org/2000/svg" xmlns:xlink="http://www.w3.org/1999/xlink" width="756.512" height="378.318" viewBox="0 0 756.512 378.318">
  <defs>
    <linearGradient id="linear-gradient" x1="-6.54" y1="-10.541" x2="-6.538" y2="-10.547" gradientUnits="objectBoundingBox">
      <stop offset="0" stop-color="#fff"/>
      <stop offset="0.87" stop-color="#f5f4f3"/>
    </linearGradient>
  </defs>
  <g id="Grupo_91853" data-name="Grupo 91853" transform="translate(-421.744 -5498)">
    <g id="Grupo_91819" data-name="Grupo 91819" transform="translate(-5568.861 4738.3)">
      <path id="Trazado_147550" data-name="Trazado 147550" d="M6747.117,1124.134h-184.2c-.052-.726-.1-1.451-.164-2.181-.007-.076-.011-.142-.018-.218-.117-1.415-.247-2.816-.394-4.225-.077-.7-.148-1.409-.236-2.11q-.425-3.711-1-7.366a.064.064,0,0,0,0-.034q-.282-1.822-.6-3.642c.006-.006,0-.012,0-.024q-.316-1.821-.677-3.636c-.154-.789-.313-1.584-.472-2.368q-.963-4.713-2.175-9.328c-.24-.961-.494-1.9-.76-2.847-.371-1.372-.771-2.74-1.178-4.1q-.91-3.084-1.945-6.116-.335-1.023-.689-2.032-1.715-4.932-3.689-9.734c-.241-.595-.489-1.185-.743-1.781-.353-.835-.713-1.667-1.072-2.5-.53-1.225-1.084-2.439-1.644-3.647q-1.361-2.934-2.816-5.822a195.619,195.619,0,0,0-13.088-22.15q-.909-1.318-1.826-2.628-1.8-2.527-3.671-5.014c-.737-.961-1.48-1.928-2.233-2.882q-1.909-2.421-3.884-4.778c-.365-.449-.731-.884-1.107-1.321L6647.1,881.384c.171.171.337.347.495.53.6.647,1.19,1.3,1.779,1.944s1.185,1.315,1.78,1.98c.171.182.336.371.507.566.872.978,1.744,1.968,2.6,2.958.931,1.061,1.844,2.127,2.757,3.194.077.087.153.176.236.271q2.732,3.225,5.4,6.5c.954,1.179,1.9,2.352,2.846,3.542.3.383.6.767.907,1.154,1.007,1.268,1.991,2.546,2.982,3.831l.129.164a379.959,379.959,0,0,1,37.5,59.734.412.412,0,0,0,.064.136q1.2,2.4,2.38,4.82c.638,1.308,1.274,2.628,1.893,3.953s1.248,2.651,1.849,3.983c.5,1.078.985,2.152,1.468,3.236.236.53.471,1.059.707,1.591.253.572.507,1.154.755,1.732q.688,1.573,1.349,3.152a.1.1,0,0,1,.024.059c.53,1.25,1.053,2.493,1.561,3.742a6.341,6.341,0,0,1,.253.631q.768,1.863,1.5,3.729c.542,1.368,1.072,2.723,1.6,4.095s1.03,2.729,1.543,4.1c.436,1.178.866,2.375,1.291,3.553A376.756,376.756,0,0,1,6747.117,1124.134Z" fill="#dad6f7"/>
      <path id="Trazado_147551" data-name="Trazado 147551" d="M6626.516,860.7l-.016.017L6496.275,990.94l-.008.009c-.55-.476-1.1-.95-1.658-1.425l-.168-.141c-1.082-.917-2.166-1.817-3.267-2.709-.55-.442-1.1-.891-1.658-1.326q-2.925-2.324-5.916-4.5c-.009-.016-.017-.016-.025-.025q-1.488-1.086-3-2.148c0-.01-.01-.01-.018-.018q-1.512-1.062-3.05-2.092c-.666-.449-1.342-.9-2.008-1.342q-4.012-2.649-8.133-5.057c-.851-.509-1.692-.992-2.55-1.476-1.234-.708-2.484-1.391-3.734-2.066q-2.824-1.539-5.7-2.949-.961-.49-1.925-.952-4.7-2.273-9.491-4.274c-.592-.25-1.184-.492-1.783-.733-.842-.342-1.684-.675-2.526-1.009-1.242-.491-2.492-.958-3.742-1.417q-3.037-1.111-6.108-2.124a195.29,195.29,0,0,0-24.916-6.408q-1.575-.289-3.15-.568-3.063-.513-6.142-.949c-1.2-.159-2.409-.316-3.617-.459-2.042-.241-4.083-.458-6.124-.634-.576-.057-1.143-.108-1.717-.149V759.773c.241,0,.483.009.725.026.883.033,1.759.075,2.633.116s1.767.093,2.659.142c.249.009.5.025.758.042,1.307.075,2.624.158,3.933.249,1.408.093,2.809.2,4.209.309l.358.025q4.211.349,8.416.775c1.509.159,3.009.317,4.517.492.483.059.966.116,1.458.175,1.608.183,3.208.391,4.817.6l.208.026a380.016,380.016,0,0,1,68.75,15.724.381.381,0,0,0,.142.05q2.55.852,5.092,1.726c1.375.475,2.759.959,4.133,1.458s2.758.991,4.125,1.509c1.117.408,2.217.824,3.325,1.25l1.625.625c.583.224,1.175.459,1.758.692,1.067.416,2.125.841,3.183,1.275a.089.089,0,0,1,.059.024c1.258.509,2.508,1.016,3.75,1.542.208.075.416.167.625.266q1.863.775,3.7,1.576c1.351.583,2.684,1.167,4.025,1.766s2.66,1.2,3.993,1.808c1.141.525,2.292,1.067,3.424,1.6A376.72,376.72,0,0,1,6626.516,860.7Z" fill="#fcecdf"/>
      <path id="Trazado_147552" data-name="Trazado 147552" d="M6354.964,759.7V943.9c-.725.053-1.45.106-2.181.164l-.218.019c-1.414.118-2.816.247-4.224.394-.7.078-1.408.148-2.11.236q-3.713.425-7.366,1a.082.082,0,0,0-.035,0q-1.821.284-3.641.6c-.006-.006-.012,0-.024,0q-1.821.318-3.636.677c-.789.154-1.585.313-2.369.472q-4.71.963-9.327,2.174c-.962.242-1.9.495-2.847.76-1.373.371-2.74.773-4.1,1.179q-3.085.909-6.116,1.944-1.026.336-2.034.69-4.93,1.715-9.734,3.689c-.6.24-1.184.488-1.779.742-.836.353-1.668.713-2.5,1.073-1.226.53-2.44,1.084-3.649,1.643q-2.933,1.362-5.821,2.818a195.1,195.1,0,0,0-22.149,13.087q-1.318.91-2.629,1.827-2.529,1.8-5.015,3.67c-.96.737-1.927,1.479-2.881,2.234q-2.421,1.908-4.778,3.883c-.449.366-.885.73-1.321,1.108L6112.215,859.72c.171-.171.347-.336.529-.495.649-.6,1.3-1.191,1.945-1.78s1.314-1.183,1.98-1.779c.183-.171.371-.336.565-.507.978-.872,1.968-1.744,2.959-2.6,1.06-.932,2.127-1.844,3.194-2.758l.27-.236q3.228-2.73,6.5-5.4c1.179-.955,2.351-1.9,3.542-2.847.382-.3.766-.6,1.154-.907,1.267-1.007,2.545-1.991,3.831-2.981.052-.042.111-.089.165-.13a379.864,379.864,0,0,1,59.733-37.494.422.422,0,0,0,.135-.065q2.4-1.2,4.82-2.381c1.308-.636,2.628-1.272,3.954-1.891s2.652-1.25,3.983-1.851c1.079-.5,2.151-.984,3.236-1.467l1.59-.707c.572-.254,1.155-.507,1.733-.754,1.048-.461,2.1-.908,3.152-1.35a.089.089,0,0,1,.059-.024c1.249-.53,2.492-1.054,3.742-1.561a6.668,6.668,0,0,1,.63-.253q1.864-.77,3.731-1.5c1.366-.543,2.722-1.073,4.093-1.6s2.73-1.031,4.1-1.544c1.179-.436,2.375-.866,3.554-1.291A376.7,376.7,0,0,1,6354.964,759.7Z" fill="#dad6f7"/>
      <path id="Trazado_147553" data-name="Trazado 147553" d="M6091.529,880.3l.018.015,130.225,130.226.008.009c-.475.549-.951,1.1-1.425,1.658l-.142.167c-.917,1.083-1.816,2.166-2.709,3.266-.44.55-.891,1.1-1.324,1.659q-2.325,2.925-4.5,5.916c-.016.008-.016.016-.025.025q-1.085,1.488-2.149,3l-.017.017q-1.063,1.512-2.091,3.05c-.451.666-.9,1.341-1.343,2.008q-2.649,4.012-5.058,8.133c-.509.851-.992,1.691-1.475,2.55-.708,1.233-1.392,2.483-2.066,3.733q-1.537,2.826-2.95,5.7c-.326.641-.642,1.284-.951,1.924q-2.274,4.7-4.274,9.491c-.251.592-.492,1.184-.734,1.785-.342.841-.675,1.683-1.008,2.524-.491,1.243-.958,2.493-1.417,3.743q-1.112,3.038-2.124,6.108a195.43,195.43,0,0,0-6.409,24.917c-.191,1.049-.383,2.1-.567,3.149q-.513,3.063-.95,6.142c-.159,1.2-.316,2.409-.458,3.616-.242,2.042-.458,4.084-.633,6.126-.059.574-.109,1.141-.15,1.716H5990.6c0-.241.008-.484.024-.725.034-.883.075-1.758.117-2.633s.092-1.766.142-2.658c.009-.25.024-.5.042-.758.075-1.308.158-2.626.25-3.934.092-1.408.2-2.808.308-4.208.009-.118.017-.234.025-.359q.349-4.211.775-8.417c.158-1.508.318-3.009.491-4.516.059-.484.118-.967.176-1.458.183-1.609.391-3.208.6-4.817.009-.067.017-.141.026-.208a379.9,379.9,0,0,1,15.725-68.75.405.405,0,0,0,.05-.142q.849-2.551,1.725-5.092c.475-1.375.958-2.758,1.458-4.133s.991-2.759,1.509-4.125c.407-1.117.824-2.217,1.25-3.325q.312-.813.625-1.625c.225-.584.458-1.175.691-1.759q.625-1.6,1.276-3.183a.09.09,0,0,1,.024-.058c.509-1.258,1.017-2.508,1.541-3.75.076-.208.168-.417.267-.625q.775-1.863,1.576-3.7c.582-1.351,1.167-2.685,1.766-4.026s1.2-2.658,1.808-3.991c.526-1.142,1.068-2.292,1.6-3.426A376.719,376.719,0,0,1,6091.529,880.3Z" fill="#fcecdf"/>
      <g id="Group_87933" data-name="Group 87933">
        <g id="Grupo_91817" data-name="Grupo 91817">
          <path id="Path_102603-2" data-name="Path 102603-2" d="M6564.121,1138.018c-.376-107.336-87.5-194.234-194.926-194.234s-194.549,86.9-194.925,194.234Z" fill="url(#linear-gradient)"/>
        </g>
      </g>
      <g id="Group_87933-2" data-name="Group 87933">
        <g id="Grupo_91818" data-name="Grupo 91818">
          <path id="Path_102603-2-2" data-name="Path 102603-2" d="M6550.188,1131.076c-.35-96.986-81.25-175.5-180.993-175.5s-180.643,78.518-180.992,175.5Z" fill="#f2f2f2"/>
        </g>
      </g>
    </g>
    <g id="Grupo_91827" data-name="Grupo 91827" transform="translate(467.663 5682.379)">
      <g id="Grupo_91826" data-name="Grupo 91826">
        <g id="Grupo_91822" data-name="Grupo 91822">
          <g id="Grupo_91820" data-name="Grupo 91820">
            <path id="Trazado_147554" data-name="Trazado 147554" d="M100.151,41.556l-8.467-.089a1.052,1.052,0,0,0-1.074.838,1,1,0,0,0,.974,1.148l8.546.09a.994.994,0,1,0,.021-1.987Z" fill="#ffdb97"/>
            <path id="Trazado_147555" data-name="Trazado 147555" d="M93.967,31.308l-6.081,3.8a1.053,1.053,0,0,0-.572,1.236.994.994,0,0,0,1.39.577l6.151-3.838a.993.993,0,0,0-.888-1.777Z" fill="#ffdb97"/>
            <path id="Trazado_147556" data-name="Trazado 147556" d="M93.73,53.659l-6-3.931a1.051,1.051,0,0,1-.546-1.248.993.993,0,0,1,1.4-.546L94.656,51.9a.993.993,0,0,1-.926,1.758Z" fill="#ffdb97"/>
          </g>
          <g id="Grupo_91821" data-name="Grupo 91821">
            <path id="Trazado_147557" data-name="Trazado 147557" d="M37.524,41.556l8.467-.089a1.052,1.052,0,0,1,1.074.838.994.994,0,0,1-.973,1.148l-8.547.09a.994.994,0,0,1-.021-1.987Z" fill="#ffdb97"/>
            <path id="Trazado_147558" data-name="Trazado 147558" d="M43.709,31.308l6.08,3.8a1.052,1.052,0,0,1,.572,1.236.994.994,0,0,1-1.389.577L42.82,33.085a.993.993,0,1,1,.889-1.777Z" fill="#ffdb97"/>
            <path id="Trazado_147559" data-name="Trazado 147559" d="M43.945,53.659l6-3.931a1.053,1.053,0,0,0,.547-1.248.994.994,0,0,0-1.4-.546L43.019,51.9a.993.993,0,0,0,.926,1.758Z" fill="#ffdb97"/>
          </g>
        </g>
        <g id="Grupo_91823" data-name="Grupo 91823">
          <path id="Trazado_147560" data-name="Trazado 147560" d="M86.317,41.1A17.48,17.48,0,1,0,62.012,57.2v6.158h13.54V57.242A17.482,17.482,0,0,0,86.317,41.1Z" fill="#ffbc3f"/>
          <path id="Trazado_147561" data-name="Trazado 147561" d="M54.688,42.1a1,1,0,0,1-1-1A15.166,15.166,0,0,1,68.838,25.952a1,1,0,1,1,0,2A13.167,13.167,0,0,0,55.686,41.1,1,1,0,0,1,54.688,42.1Z" fill="#ffdb97"/>
        </g>
        <path id="Trazado_147562" data-name="Trazado 147562" d="M74.533,38.628a1.325,1.325,0,0,0-1.884,0L68.84,42.443l-3.815-3.815a1.328,1.328,0,0,0-1.878,1.877l3.815,3.816.546.546v21.15a1.329,1.329,0,1,0,2.659,0V44.872l.551-.551,3.815-3.816A1.337,1.337,0,0,0,74.533,38.628Z" fill="#ffdb97"/>
        <g id="Grupo_91825" data-name="Grupo 91825">
          <rect id="Rectángulo_34499" data-name="Rectángulo 34499" width="19.08" height="7.582" transform="translate(59.298 101.712)" fill="#d0dbf8"/>
          <path id="Trazado_147563" data-name="Trazado 147563" d="M49.34,74.119l9.3-11.929v4.342l-3.421,6.861,8.15,8.422H74.31l8.148-8.422-3.421-6.879V62.19l9.3,11.929L78.392,88.228H59.278C59.271,88.215,49.34,74.119,49.34,74.119Z" fill="#d0dbf8"/>
          <rect id="Rectángulo_34500" data-name="Rectángulo 34500" width="19.08" height="2.84" transform="translate(59.298 88.217)" fill="#9fa6d8"/>
          <rect id="Rectángulo_34501" data-name="Rectángulo 34501" width="19.08" height="2.84" transform="translate(59.298 98.872)" fill="#9fa6d8"/>
          <rect id="Rectángulo_34502" data-name="Rectángulo 34502" width="26.948" height="7.815" transform="translate(55.363 91.057)" fill="#d0dbf8"/>
          <g id="Grupo_91824" data-name="Grupo 91824">
            <path id="Trazado_147564" data-name="Trazado 147564" d="M80.085,94.967a1.707,1.707,0,1,1-1.707-1.707A1.707,1.707,0,0,1,80.085,94.967Z" fill="#9fa6d8"/>
            <path id="Trazado_147565" data-name="Trazado 147565" d="M61.005,94.967A1.708,1.708,0,1,1,59.3,93.26,1.708,1.708,0,0,1,61.005,94.967Z" fill="#9fa6d8"/>
          </g>
        </g>
        <path id="Trazado_147566" data-name="Trazado 147566" d="M76.747,67.912v2.75a1.087,1.087,0,0,1-.01.18,2.57,2.57,0,0,1-2.57,2.39H63.507a2.57,2.57,0,0,1-2.57-2.39,1.087,1.087,0,0,1-.01-.18v-2.75Z" fill="#5a43db"/>
        <path id="Trazado_147567" data-name="Trazado 147567" d="M70.805,77.265H66.87a4.113,4.113,0,0,1-4.113-4.112H74.918A4.112,4.112,0,0,1,70.805,77.265Z" fill="#3c2da1"/>
        <rect id="Rectángulo_34503" data-name="Rectángulo 34503" width="20.399" height="6.655" transform="translate(58.638 62.189)" fill="#4e90f9"/>
      </g>
      <path id="Trazado_147568" data-name="Trazado 147568" d="M76.747,68.842v1.82a1.087,1.087,0,0,1-.01.18h-15.8a1.087,1.087,0,0,1-.01-.18v-1.82Z" fill="#3c2da1"/>
    </g>
    <g id="Grupo_91836" data-name="Grupo 91836" transform="translate(371.678 5417.077)">
      <g id="Grupo_91834" data-name="Grupo 91834">
        <g id="Grupo_91830" data-name="Grupo 91830">
          <g id="Grupo_91828" data-name="Grupo 91828">
            <rect id="Rectángulo_34504" data-name="Rectángulo 34504" width="8.445" height="3.237" transform="translate(280.92 197.178)" fill="#aebbed"/>
            <rect id="Rectángulo_34505" data-name="Rectángulo 34505" width="32.604" height="3.237" transform="translate(292.533 197.109)" fill="#aebbed"/>
          </g>
          <g id="Grupo_91829" data-name="Grupo 91829">
            <path id="Trazado_147569" data-name="Trazado 147569" d="M332.7,198.762a1.988,1.988,0,1,1-1.988-1.988A1.988,1.988,0,0,1,332.7,198.762Z" fill="#5a43db"/>
            <path id="Trazado_147570" data-name="Trazado 147570" d="M340.013,198.762a1.988,1.988,0,1,1-1.988-1.988A1.988,1.988,0,0,1,340.013,198.762Z" fill="#ffbc3f"/>
            <path id="Trazado_147571" data-name="Trazado 147571" d="M347.322,198.762a1.988,1.988,0,1,1-1.988-1.988A1.988,1.988,0,0,1,347.322,198.762Z" fill="#0bc0cf"/>
          </g>
        </g>
        <g id="Grupo_91833" data-name="Grupo 91833">
          <g id="Grupo_91831" data-name="Grupo 91831">
            <rect id="Rectángulo_34506" data-name="Rectángulo 34506" width="19.016" height="3.237" transform="translate(280.92 204.657)" fill="#e8ecfa"/>
            <rect id="Rectángulo_34507" data-name="Rectángulo 34507" width="9.237" height="3.237" transform="translate(303.245 204.589)" fill="#e8ecfa"/>
            <rect id="Rectángulo_34508" data-name="Rectángulo 34508" width="9.267" height="3.237" transform="translate(315.87 204.589)" fill="#e8ecfa"/>
          </g>
          <g id="Grupo_91832" data-name="Grupo 91832">
            <path id="Trazado_147572" data-name="Trazado 147572" d="M332.7,206.242a1.988,1.988,0,1,1-1.988-1.989A1.988,1.988,0,0,1,332.7,206.242Z" fill="#ffbc3f"/>
            <path id="Trazado_147573" data-name="Trazado 147573" d="M340.013,206.242a1.988,1.988,0,1,1-1.988-1.989A1.988,1.988,0,0,1,340.013,206.242Z" fill="#fa4a56"/>
            <path id="Trazado_147574" data-name="Trazado 147574" d="M347.322,206.242a1.988,1.988,0,1,1-1.988-1.989A1.988,1.988,0,0,1,347.322,206.242Z" fill="#5a43db"/>
          </g>
        </g>
      </g>
      <g id="Grupo_91835" data-name="Grupo 91835">
        <path id="Trazado_147575" data-name="Trazado 147575" d="M280.931,191.787h12.586l-.02-10.2H280.92Z" fill="#ff485a"/>
        <path id="Trazado_147576" data-name="Trazado 147576" d="M298.9,191.787h12.549l-.041-24.492H298.844Z" fill="#0bc0cf"/>
        <path id="Trazado_147577" data-name="Trazado 147577" d="M316.764,141.923l.074,49.864h12.549l-.071-49.864Z" fill="#5a43db"/>
        <path id="Trazado_147578" data-name="Trazado 147578" d="M334.7,153.372l.032,38.415h12.586l-.06-38.415Z" fill="#ffbc3f"/>
      </g>
    </g>
    <g id="Grupo_91845" data-name="Grupo 91845" transform="translate(607.879 5526.5)">
      <g id="Grupo_91839" data-name="Grupo 91839">
        <path id="Trazado_147579" data-name="Trazado 147579" d="M291.558,55.356h5.192l6.131-6.12a.9.9,0,1,0-1.279-1.28l-5.591,5.591h-4.453a.9.9,0,1,0,0,1.809Z" fill="#ffbc3f"/>
        <g id="Grupo_91837" data-name="Grupo 91837">
          <path id="Trazado_147580" data-name="Trazado 147580" d="M296.544,46.967a.7.7,0,0,1-.705-.7V44.647a.7.7,0,0,1,1.409,0v1.616A.7.7,0,0,1,296.544,46.967Z" fill="#5a43db"/>
          <path id="Trazado_147581" data-name="Trazado 147581" d="M296.544,64.984a.705.705,0,0,1-.705-.705V62.664a.7.7,0,1,1,1.409,0v1.615A.7.7,0,0,1,296.544,64.984Z" fill="#5a43db"/>
        </g>
        <g id="Grupo_91838" data-name="Grupo 91838">
          <path id="Trazado_147582" data-name="Trazado 147582" d="M289.048,54.463a.705.705,0,0,1-.705.7h-1.615a.7.7,0,0,1,0-1.409h1.615A.7.7,0,0,1,289.048,54.463Z" fill="#5a43db"/>
          <path id="Trazado_147583" data-name="Trazado 147583" d="M307.064,54.463a.7.7,0,0,1-.7.7h-1.616a.7.7,0,0,1,0-1.409h1.616A.7.7,0,0,1,307.064,54.463Z" fill="#5a43db"/>
        </g>
      </g>
      <g id="Grupo_91840" data-name="Grupo 91840">
        <path id="Trazado_147584" data-name="Trazado 147584" d="M313.073,51.5l3.637-1.439a20.69,20.69,0,0,0-2.448-6.185l-3.637,1.439a16.683,16.683,0,0,0-4.49-4.634l1.553-3.587a20.438,20.438,0,0,0-6.11-2.645l-1.553,3.587a16.891,16.891,0,0,0-6.452-.105L292.134,34.3a20.652,20.652,0,0,0-6.185,2.447l1.439,3.637a16.958,16.958,0,0,0-4.623,4.487l-3.6-1.549a20.373,20.373,0,0,0-2.634,6.1l3.586,1.553a16.676,16.676,0,0,0-.1,6.452l-3.637,1.439a20.653,20.653,0,0,0,2.447,6.185l3.637-1.439a16.521,16.521,0,0,0,4.486,4.623l-1.553,3.587a20.415,20.415,0,0,0,6.11,2.646l1.553-3.587a16.537,16.537,0,0,0,6.441.109l1.439,3.637a20.652,20.652,0,0,0,6.185-2.447l-1.439-3.638a16.843,16.843,0,0,0,4.638-4.479l3.587,1.553a20.415,20.415,0,0,0,2.646-6.11l-3.587-1.553A16.891,16.891,0,0,0,313.073,51.5Zm-16.529,16.46a13.5,13.5,0,1,1,13.5-13.5A13.5,13.5,0,0,1,296.544,67.963Z" fill="#d0dbf8"/>
        <path id="Trazado_147585" data-name="Trazado 147585" d="M296.544,40.963a13.5,13.5,0,1,0,13.5,13.5A13.5,13.5,0,0,0,296.544,40.963Zm4.333,24.471a11.8,11.8,0,1,1,6.638-15.309A11.8,11.8,0,0,1,300.877,65.434Z" fill="#aebbed"/>
      </g>
      <g id="Grupo_91841" data-name="Grupo 91841">
        <path id="Trazado_147586" data-name="Trazado 147586" d="M347.4,89.451l4.157.024a21.951,21.951,0,0,0,.041-7.07l-4.157-.024a17.742,17.742,0,0,0-2.59-6.351l2.955-2.921a21.72,21.72,0,0,0-4.975-5.032L339.876,71a17.936,17.936,0,0,0-6.32-2.663l.024-4.157a21.952,21.952,0,0,0-7.07-.041l-.024,4.157a18.026,18.026,0,0,0-6.339,2.59l-2.933-2.955a21.669,21.669,0,0,0-5.02,4.975l2.92,2.955a17.718,17.718,0,0,0-2.663,6.32l-4.157-.024a21.952,21.952,0,0,0-.041,7.07l4.157.024A17.577,17.577,0,0,0,315,95.587l-2.955,2.92a21.724,21.724,0,0,0,4.975,5.033l2.955-2.921a17.572,17.572,0,0,0,6.308,2.664l-.024,4.157a21.952,21.952,0,0,0,7.07.041l.024-4.157a17.948,17.948,0,0,0,6.351-2.578l2.92,2.955a21.705,21.705,0,0,0,5.033-4.975l-2.921-2.955A17.938,17.938,0,0,0,347.4,89.451Zm-22.83,9.671a14.349,14.349,0,1,1,18.668-7.956A14.351,14.351,0,0,1,324.57,99.122Z" fill="#d0dbf8"/>
        <path id="Trazado_147587" data-name="Trazado 147587" d="M335.283,72.5a14.349,14.349,0,1,0,7.955,18.668A14.35,14.35,0,0,0,335.283,72.5Zm-5.438,25.848a12.541,12.541,0,1,1,12.62-12.462A12.537,12.537,0,0,1,329.845,98.346Z" fill="#aebbed"/>
        <path id="Trazado_147588" data-name="Trazado 147588" d="M337.765,79.116l-3.928-1.709-4.683,9.236-3.547-4.763-3.52,2.313L329.8,94.209Z" fill="#0bc0cf"/>
      </g>
      <g id="Grupo_91844" data-name="Grupo 91844">
        <g id="Grupo_91842" data-name="Grupo 91842">
          <path id="Trazado_147589" data-name="Trazado 147589" d="M339.542,48.311a3.164,3.164,0,0,1-2.244.928v2.843a6.007,6.007,0,0,0,6.015-6.015H340.47A3.164,3.164,0,0,1,339.542,48.311Z" fill="#5a43db"/>
          <path id="Trazado_147590" data-name="Trazado 147590" d="M335.053,43.822a3.164,3.164,0,0,1,2.245-.928V40.051a6.009,6.009,0,0,0-6.016,6.016h2.843A3.164,3.164,0,0,1,335.053,43.822Z" fill="#fa4a56"/>
          <path id="Trazado_147591" data-name="Trazado 147591" d="M337.3,40.051v2.843a3.168,3.168,0,0,1,3.172,3.173h2.843a6.009,6.009,0,0,0-6.015-6.016Z" fill="#ffbc3f"/>
          <path id="Trazado_147592" data-name="Trazado 147592" d="M335.053,48.311a3.164,3.164,0,0,1-.928-2.244h-2.843a6.007,6.007,0,0,0,6.016,6.015V49.239A3.164,3.164,0,0,1,335.053,48.311Z" fill="#0bc0cf"/>
        </g>
        <g id="Grupo_91843" data-name="Grupo 91843">
          <path id="Trazado_147593" data-name="Trazado 147593" d="M348.1,48.319l2.571.015a13.719,13.719,0,0,0,.19-2.185,13.557,13.557,0,0,0-.165-2.187l-2.571-.015a10.952,10.952,0,0,0-1.6-3.927l1.827-1.807a13.426,13.426,0,0,0-3.077-3.112l-1.827,1.806a11.1,11.1,0,0,0-3.908-1.647l.015-2.571a13.709,13.709,0,0,0-2.186-.189,13.558,13.558,0,0,0-2.187.164l-.015,2.571a11.137,11.137,0,0,0-3.919,1.6l-1.814-1.828a13.4,13.4,0,0,0-3.105,3.077l1.806,1.827a10.955,10.955,0,0,0-1.647,3.909l-2.571-.015a13.716,13.716,0,0,0-.19,2.185,13.549,13.549,0,0,0,.165,2.187l2.571.015a10.867,10.867,0,0,0,1.6,3.92L326.24,53.92a13.426,13.426,0,0,0,3.077,3.112l1.827-1.806a10.864,10.864,0,0,0,3.9,1.647l-.015,2.571a13.55,13.55,0,0,0,4.372.025l.015-2.571a11.078,11.078,0,0,0,3.928-1.593l1.806,1.827a13.426,13.426,0,0,0,3.112-3.077l-1.806-1.827A11.1,11.1,0,0,0,348.1,48.319ZM333.985,54.3a8.874,8.874,0,1,1,11.545-4.92A8.874,8.874,0,0,1,333.985,54.3Z" fill="#d0dbf8"/>
          <path id="Trazado_147594" data-name="Trazado 147594" d="M340.61,37.835a8.874,8.874,0,1,0,4.92,11.545A8.873,8.873,0,0,0,340.61,37.835ZM337.248,53.82a7.756,7.756,0,1,1,7.8-7.706A7.754,7.754,0,0,1,337.248,53.82Z" fill="#aebbed"/>
        </g>
      </g>
    </g>
    <g id="Grupo_91852" data-name="Grupo 91852" transform="translate(754.381 5468.08)">
      <g id="Grupo_91850" data-name="Grupo 91850">
        <g id="Grupo_91847" data-name="Grupo 91847">
          <path id="Trazado_147595" data-name="Trazado 147595" d="M315.284,289.092h-2.553v-1.98a5.461,5.461,0,0,0,3.037-4.891v-4.832a5.467,5.467,0,0,0-10.933,0v4.832a5.46,5.46,0,0,0,3.036,4.891v1.98h-2.552a6.211,6.211,0,0,0-6.211,6.211,14.137,14.137,0,0,0,22.027.43l.36-.43A6.211,6.211,0,0,0,315.284,289.092Z" fill="#0bc0cf"/>
          <g id="Grupo_91846" data-name="Grupo 91846">
            <path id="Trazado_147596" data-name="Trazado 147596" d="M349.789,320.508a5.571,5.571,0,0,1-7.867.011l-13.193-13.188-3.116-3.094,7.869-7.868,16.293,16.248A5.571,5.571,0,0,1,349.789,320.508Z" fill="#5a43db"/>
            <path id="Trazado_147597" data-name="Trazado 147597" d="M333.47,296.358l3.138,3.138-7.879,7.835-3.116-3.094C325.6,304.226,333.47,296.358,333.47,296.358Z" fill="#3c2da1"/>
          </g>
        </g>
        <path id="Trazado_147598" data-name="Trazado 147598" d="M313.51,247.792h-1.468v-1.138a3.142,3.142,0,0,0,1.746-2.813v-2.778a3.143,3.143,0,1,0-6.286,0v2.778a3.142,3.142,0,0,0,1.746,2.813v1.138H307.78a3.571,3.571,0,0,0-3.571,3.571,8.128,8.128,0,0,0,12.665.247l.207-.247A3.571,3.571,0,0,0,313.51,247.792Z" fill="#ffbc3f"/>
        <g id="Grupo_91848" data-name="Grupo 91848">
          <path id="Trazado_147599" data-name="Trazado 147599" d="M286.123,259.886h-1.468v-1.138a3.14,3.14,0,0,0,1.746-2.812v-2.779a3.143,3.143,0,0,0-6.286,0v2.779a3.14,3.14,0,0,0,1.746,2.812v1.138h-1.468a3.571,3.571,0,0,0-3.571,3.571,8.128,8.128,0,0,0,12.665.247l.207-.247A3.571,3.571,0,0,0,286.123,259.886Z" fill="#ffbc3f"/>
          <path id="Trazado_147600" data-name="Trazado 147600" d="M340.9,259.886H339.43v-1.138a3.141,3.141,0,0,0,1.745-2.812v-2.779a3.143,3.143,0,1,0-6.286,0v2.779a3.14,3.14,0,0,0,1.746,2.812v1.138h-1.468a3.571,3.571,0,0,0-3.571,3.571,8.129,8.129,0,0,0,12.666.247l.206-.247A3.571,3.571,0,0,0,340.9,259.886Z" fill="#ffbc3f"/>
        </g>
        <g id="Grupo_91849" data-name="Grupo 91849">
          <path id="Trazado_147601" data-name="Trazado 147601" d="M289.3,253.559a.91.91,0,0,1-.543-1.64,32.071,32.071,0,0,1,13.567-5.814.91.91,0,1,1,.311,1.793,30.26,30.26,0,0,0-12.794,5.481A.906.906,0,0,1,289.3,253.559Z" fill="#5a43db"/>
          <path id="Trazado_147602" data-name="Trazado 147602" d="M331.99,253.559a.906.906,0,0,1-.541-.18,30.26,30.26,0,0,0-12.794-5.481.91.91,0,0,1,.311-1.793,32.071,32.071,0,0,1,13.567,5.814.91.91,0,0,1-.543,1.64Z" fill="#5a43db"/>
        </g>
      </g>
      <g id="Grupo_91851" data-name="Grupo 91851">
        <path id="Trazado_147603" data-name="Trazado 147603" d="M336.726,293.631l-2.879-2.878a24.878,24.878,0,1,0-15.584,15.584l2.985,2.986,3.506-3.538c.016.016,8.483-8.451,8.483-8.451l-.091-.09Zm-26.425,8.16a19,19,0,1,1,19-19A19,19,0,0,1,310.3,301.791Z" fill="#d0dbf8"/>
        <path id="Trazado_147604" data-name="Trazado 147604" d="M310.3,263.791a19,19,0,1,0,19,19A19,19,0,0,0,310.3,263.791Zm12,31a16.964,16.964,0,1,1,0-23.991A16.984,16.984,0,0,1,322.3,294.787Z" fill="#5a43db"/>
      </g>
    </g>
    <path id="Trazado_149102" data-name="Trazado 149102" d="M41.8,3.625l3.719,9.281,3.719-9.281h1.945V15h-1.5V10.57l.141-4.781L46.094,15H44.945L41.219,5.813l.148,4.758V15h-1.5V3.625ZM57.117,15.156a3.693,3.693,0,0,1-2.8-1.129,4.19,4.19,0,0,1-1.078-3.02v-.266a5.073,5.073,0,0,1,.48-2.246,3.748,3.748,0,0,1,1.344-1.547,3.378,3.378,0,0,1,1.871-.559A3.166,3.166,0,0,1,59.5,7.477a4.7,4.7,0,0,1,.914,3.109v.6H54.688a3,3,0,0,0,.73,2.02,2.3,2.3,0,0,0,1.777.77,2.517,2.517,0,0,0,1.3-.312,3.259,3.259,0,0,0,.93-.828l.883.688A3.55,3.55,0,0,1,57.117,15.156Zm-.18-7.578a1.928,1.928,0,0,0-1.469.637A3.1,3.1,0,0,0,54.734,10h4.234V9.891a2.753,2.753,0,0,0-.594-1.707A1.815,1.815,0,0,0,56.938,7.578Zm9.234.266a4.331,4.331,0,0,0-.711-.055A1.9,1.9,0,0,0,63.531,9v6H62.086V6.547h1.406l.023.977a2.251,2.251,0,0,1,2.016-1.133,1.477,1.477,0,0,1,.641.109Zm4.57,6.133a2.082,2.082,0,0,0,1.352-.469,1.649,1.649,0,0,0,.641-1.172H74.1a2.621,2.621,0,0,1-.5,1.383,3.293,3.293,0,0,1-1.23,1.047,3.55,3.55,0,0,1-1.629.391A3.482,3.482,0,0,1,68,14a4.59,4.59,0,0,1-1.02-3.152v-.242a5.089,5.089,0,0,1,.453-2.2,3.451,3.451,0,0,1,1.3-1.492,3.7,3.7,0,0,1,2-.531,3.39,3.39,0,0,1,2.363.852,3.043,3.043,0,0,1,1,2.211H72.734a1.992,1.992,0,0,0-.621-1.348,1.932,1.932,0,0,0-1.379-.527,2.023,2.023,0,0,0-1.707.793,3.724,3.724,0,0,0-.605,2.293v.273a3.65,3.65,0,0,0,.6,2.25A2.033,2.033,0,0,0,70.742,13.977ZM80.945,15a3.036,3.036,0,0,1-.2-.891,3.225,3.225,0,0,1-2.406,1.047,2.984,2.984,0,0,1-2.051-.707,2.288,2.288,0,0,1-.8-1.793,2.39,2.39,0,0,1,1-2.051,4.733,4.733,0,0,1,2.824-.73h1.406V9.211A1.623,1.623,0,0,0,80.266,8a1.821,1.821,0,0,0-1.336-.449,2.108,2.108,0,0,0-1.3.391,1.151,1.151,0,0,0-.523.945H75.656a2,2,0,0,1,.449-1.223,3.066,3.066,0,0,1,1.219-.934,4.1,4.1,0,0,1,1.691-.344,3.342,3.342,0,0,1,2.289.73,2.635,2.635,0,0,1,.859,2.012v3.891a4.757,4.757,0,0,0,.3,1.852V15Zm-2.4-1.1a2.54,2.54,0,0,0,1.289-.352,2.127,2.127,0,0,0,.883-.914V10.9H79.586q-2.656,0-2.656,1.555a1.316,1.316,0,0,0,.453,1.063A1.742,1.742,0,0,0,78.547,13.9Zm5.531-3.2A4.952,4.952,0,0,1,85,7.574a3.137,3.137,0,0,1,4.766-.168V3h1.445V15H89.883l-.07-.906A2.943,2.943,0,0,1,87.4,15.156,2.887,2.887,0,0,1,85,13.953a5.008,5.008,0,0,1-.926-3.141Zm1.445.164a3.749,3.749,0,0,0,.594,2.25,1.92,1.92,0,0,0,1.641.813A2.108,2.108,0,0,0,89.766,12.7V8.813a2.125,2.125,0,0,0-1.992-1.2,1.929,1.929,0,0,0-1.656.82A4.128,4.128,0,0,0,85.523,10.867ZM93.07,10.7a4.993,4.993,0,0,1,.488-2.234A3.643,3.643,0,0,1,94.918,6.93a3.7,3.7,0,0,1,1.988-.539,3.565,3.565,0,0,1,2.793,1.2,4.6,4.6,0,0,1,1.066,3.18v.1a5.036,5.036,0,0,1-.473,2.215,3.589,3.589,0,0,1-1.352,1.527,3.743,3.743,0,0,1-2.02.547,3.556,3.556,0,0,1-2.785-1.2A4.575,4.575,0,0,1,93.07,10.8Zm1.453.172a3.616,3.616,0,0,0,.652,2.258,2.211,2.211,0,0,0,3.5-.012A3.955,3.955,0,0,0,99.32,10.7a3.61,3.61,0,0,0-.66-2.254,2.1,2.1,0,0,0-1.754-.863,2.075,2.075,0,0,0-1.727.852A3.925,3.925,0,0,0,94.523,10.867ZM108.5,4.5V6.547h1.578V7.664H108.5v5.249a1.173,1.173,0,0,0,.211.763.888.888,0,0,0,.719.254,3.5,3.5,0,0,0,.688-.094V15a4.215,4.215,0,0,1-1.109.155,1.8,1.8,0,0,1-1.461-.586,2.517,2.517,0,0,1-.492-1.664V7.664h-1.539V6.547h1.539V4.5Zm2.727,6.2a4.993,4.993,0,0,1,.488-2.234,3.643,3.643,0,0,1,1.359-1.531,3.7,3.7,0,0,1,1.988-.539,3.565,3.565,0,0,1,2.793,1.2,4.6,4.6,0,0,1,1.066,3.18v.1a5.036,5.036,0,0,1-.473,2.215,3.589,3.589,0,0,1-1.352,1.527,3.743,3.743,0,0,1-2.02.547,3.556,3.556,0,0,1-2.785-1.2,4.575,4.575,0,0,1-1.066-3.164Zm1.453.172a3.616,3.616,0,0,0,.652,2.258,2.211,2.211,0,0,0,3.5-.012,3.955,3.955,0,0,0,.648-2.418,3.61,3.61,0,0,0-.66-2.254,2.1,2.1,0,0,0-1.754-.863,2.075,2.075,0,0,0-1.727.852A3.925,3.925,0,0,0,112.68,10.867ZM122.7,4.5V6.547h1.578V7.664H122.7v5.249a1.173,1.173,0,0,0,.211.763.888.888,0,0,0,.719.254,3.5,3.5,0,0,0,.688-.094V15a4.215,4.215,0,0,1-1.109.155,1.8,1.8,0,0,1-1.461-.586,2.517,2.517,0,0,1-.492-1.664V7.664h-1.539V6.547h1.539V4.5ZM131.18,15a3.036,3.036,0,0,1-.2-.891,3.225,3.225,0,0,1-2.406,1.047,2.984,2.984,0,0,1-2.051-.707,2.288,2.288,0,0,1-.8-1.793,2.39,2.39,0,0,1,1-2.051,4.733,4.733,0,0,1,2.824-.73h1.406V9.211A1.623,1.623,0,0,0,130.5,8a1.821,1.821,0,0,0-1.336-.449,2.107,2.107,0,0,0-1.3.391,1.151,1.151,0,0,0-.523.945h-1.453a2,2,0,0,1,.449-1.223,3.066,3.066,0,0,1,1.219-.934,4.1,4.1,0,0,1,1.691-.344,3.342,3.342,0,0,1,2.289.73,2.635,2.635,0,0,1,.859,2.012v3.891a4.757,4.757,0,0,0,.3,1.852V15Zm-2.4-1.1a2.54,2.54,0,0,0,1.289-.352,2.127,2.127,0,0,0,.883-.914V10.9H129.82q-2.656,0-2.656,1.555a1.316,1.316,0,0,0,.453,1.063A1.742,1.742,0,0,0,128.781,13.9Zm7.453,1.1h-1.445V3h1.445Z" transform="translate(440 5801)" fill="#12263f"/>
    <path id="Trazado_149103" data-name="Trazado 149103" d="M25.07,3.625l3.719,9.281,3.719-9.281h1.945V15h-1.5V10.57l.141-4.781L29.359,15H28.211L24.484,5.813l.148,4.758V15h-1.5V3.625ZM40.383,15.156a3.693,3.693,0,0,1-2.8-1.129,4.19,4.19,0,0,1-1.078-3.02v-.266a5.073,5.073,0,0,1,.48-2.246,3.748,3.748,0,0,1,1.344-1.547A3.378,3.378,0,0,1,40.2,6.391a3.166,3.166,0,0,1,2.563,1.086,4.7,4.7,0,0,1,.914,3.109v.6H37.953a3,3,0,0,0,.73,2.02,2.3,2.3,0,0,0,1.777.77,2.517,2.517,0,0,0,1.3-.312,3.259,3.259,0,0,0,.93-.828l.883.688A3.55,3.55,0,0,1,40.383,15.156ZM40.2,7.578a1.928,1.928,0,0,0-1.469.637A3.1,3.1,0,0,0,38,10h4.234V9.891a2.753,2.753,0,0,0-.594-1.707A1.815,1.815,0,0,0,40.2,7.578Zm9.234.266a4.331,4.331,0,0,0-.711-.055A1.9,1.9,0,0,0,46.8,9v6H45.352V6.547h1.406l.023.977A2.251,2.251,0,0,1,48.8,6.391a1.477,1.477,0,0,1,.641.109Zm4.57,6.133a2.082,2.082,0,0,0,1.352-.469A1.649,1.649,0,0,0,56,12.336h1.367a2.621,2.621,0,0,1-.5,1.383,3.293,3.293,0,0,1-1.23,1.047,3.55,3.55,0,0,1-1.629.391A3.482,3.482,0,0,1,51.262,14a4.59,4.59,0,0,1-1.02-3.152v-.242a5.089,5.089,0,0,1,.453-2.2A3.451,3.451,0,0,1,52,6.922a3.7,3.7,0,0,1,2-.531,3.39,3.39,0,0,1,2.363.852,3.043,3.043,0,0,1,1,2.211H56a1.992,1.992,0,0,0-.621-1.348A1.932,1.932,0,0,0,54,7.578a2.023,2.023,0,0,0-1.707.793,3.724,3.724,0,0,0-.605,2.293v.273a3.65,3.65,0,0,0,.6,2.25A2.033,2.033,0,0,0,54.008,13.977ZM64.211,15a3.036,3.036,0,0,1-.2-.891A3.225,3.225,0,0,1,61.6,15.156a2.984,2.984,0,0,1-2.051-.707,2.287,2.287,0,0,1-.8-1.793,2.39,2.39,0,0,1,1-2.051,4.733,4.733,0,0,1,2.824-.73h1.406V9.211A1.623,1.623,0,0,0,63.531,8,1.821,1.821,0,0,0,62.2,7.555a2.107,2.107,0,0,0-1.3.391,1.151,1.151,0,0,0-.523.945H58.922a2,2,0,0,1,.449-1.223,3.066,3.066,0,0,1,1.219-.934,4.1,4.1,0,0,1,1.691-.344,3.342,3.342,0,0,1,2.289.73,2.635,2.635,0,0,1,.859,2.012v3.891a4.757,4.757,0,0,0,.3,1.852V15Zm-2.4-1.1a2.54,2.54,0,0,0,1.289-.352,2.127,2.127,0,0,0,.883-.914V10.9H62.852q-2.656,0-2.656,1.555a1.316,1.316,0,0,0,.453,1.063A1.742,1.742,0,0,0,61.813,13.9Zm5.531-3.2a4.952,4.952,0,0,1,.922-3.129,3.137,3.137,0,0,1,4.766-.168V3h1.445V15H73.148l-.07-.906a2.943,2.943,0,0,1-2.414,1.063,2.887,2.887,0,0,1-2.395-1.2,5.008,5.008,0,0,1-.926-3.141Zm1.445.164a3.749,3.749,0,0,0,.594,2.25,1.92,1.92,0,0,0,1.641.813A2.108,2.108,0,0,0,73.031,12.7V8.813a2.125,2.125,0,0,0-1.992-1.2,1.929,1.929,0,0,0-1.656.82A4.128,4.128,0,0,0,68.789,10.867Zm7.547-.172a4.993,4.993,0,0,1,.488-2.234A3.643,3.643,0,0,1,78.184,6.93a3.7,3.7,0,0,1,1.988-.539,3.565,3.565,0,0,1,2.793,1.2,4.6,4.6,0,0,1,1.066,3.18v.1a5.036,5.036,0,0,1-.473,2.215,3.589,3.589,0,0,1-1.352,1.527,3.743,3.743,0,0,1-2.02.547,3.556,3.556,0,0,1-2.785-1.2A4.575,4.575,0,0,1,76.336,10.8Zm1.453.172a3.616,3.616,0,0,0,.652,2.258,2.211,2.211,0,0,0,3.5-.012,3.955,3.955,0,0,0,.648-2.418,3.61,3.61,0,0,0-.66-2.254,2.1,2.1,0,0,0-1.754-.863,2.075,2.075,0,0,0-1.727.852A3.925,3.925,0,0,0,77.789,10.867Zm19.156,0a5.062,5.062,0,0,1-.883,3.109,2.829,2.829,0,0,1-2.391,1.18,3.1,3.1,0,0,1-2.422-.977v4.07H89.8V6.547h1.32l.07.938a2.977,2.977,0,0,1,2.453-1.094,2.882,2.882,0,0,1,2.41,1.148,5.117,5.117,0,0,1,.887,3.2ZM95.5,10.7a3.735,3.735,0,0,0-.609-2.258,1.963,1.963,0,0,0-1.672-.828A2.125,2.125,0,0,0,91.25,8.781V12.82a2.129,2.129,0,0,0,1.984,1.156,1.954,1.954,0,0,0,1.652-.824A4.077,4.077,0,0,0,95.5,10.7Zm2.9-.008a4.993,4.993,0,0,1,.488-2.234,3.643,3.643,0,0,1,1.359-1.531,3.7,3.7,0,0,1,1.988-.539,3.565,3.565,0,0,1,2.793,1.2,4.6,4.6,0,0,1,1.066,3.18v.1a5.036,5.036,0,0,1-.473,2.215,3.589,3.589,0,0,1-1.352,1.527,3.743,3.743,0,0,1-2.02.547,3.556,3.556,0,0,1-2.785-1.2A4.575,4.575,0,0,1,98.4,10.8Zm1.453.172a3.616,3.616,0,0,0,.652,2.258,2.211,2.211,0,0,0,3.5-.012,3.955,3.955,0,0,0,.648-2.418,3.61,3.61,0,0,0-.66-2.254,2.1,2.1,0,0,0-1.754-.863,2.075,2.075,0,0,0-1.727.852A3.925,3.925,0,0,0,99.852,10.867ZM109.867,4.5V6.547h1.578V7.664h-1.578v5.249a1.173,1.173,0,0,0,.211.763.888.888,0,0,0,.719.254,3.5,3.5,0,0,0,.688-.094V15a4.215,4.215,0,0,1-1.109.155,1.8,1.8,0,0,1-1.461-.586,2.517,2.517,0,0,1-.492-1.664V7.664h-1.539V6.547h1.539V4.5Zm6.773,10.656a3.693,3.693,0,0,1-2.8-1.129,4.19,4.19,0,0,1-1.078-3.02v-.266a5.073,5.073,0,0,1,.48-2.246,3.748,3.748,0,0,1,1.344-1.547,3.378,3.378,0,0,1,1.871-.559,3.166,3.166,0,0,1,2.563,1.086,4.7,4.7,0,0,1,.914,3.109v.6h-5.727a3,3,0,0,0,.73,2.02,2.3,2.3,0,0,0,1.777.77,2.517,2.517,0,0,0,1.3-.312,3.259,3.259,0,0,0,.93-.828l.883.688A3.55,3.55,0,0,1,116.641,15.156Zm-.18-7.578a1.928,1.928,0,0,0-1.469.637A3.1,3.1,0,0,0,114.258,10h4.234V9.891a2.753,2.753,0,0,0-.594-1.707A1.815,1.815,0,0,0,116.461,7.578Zm6.516-1.031.047,1.063a3.08,3.08,0,0,1,2.531-1.219q2.68,0,2.7,3.023V15h-1.445V9.406a1.946,1.946,0,0,0-.418-1.352,1.675,1.675,0,0,0-1.277-.437,2.086,2.086,0,0,0-1.234.375,2.546,2.546,0,0,0-.828.984V15h-1.445V6.547Zm10.852,7.43a2.082,2.082,0,0,0,1.352-.469,1.649,1.649,0,0,0,.641-1.172h1.367a2.621,2.621,0,0,1-.5,1.383,3.293,3.293,0,0,1-1.23,1.047,3.55,3.55,0,0,1-1.629.391A3.482,3.482,0,0,1,131.082,14a4.59,4.59,0,0,1-1.02-3.152v-.242a5.089,5.089,0,0,1,.453-2.2,3.451,3.451,0,0,1,1.3-1.492,3.7,3.7,0,0,1,2-.531,3.39,3.39,0,0,1,2.363.852,3.043,3.043,0,0,1,1,2.211H135.82a1.992,1.992,0,0,0-.621-1.348,1.932,1.932,0,0,0-1.379-.527,2.023,2.023,0,0,0-1.707.793,3.724,3.724,0,0,0-.605,2.293v.273a3.65,3.65,0,0,0,.6,2.25A2.033,2.033,0,0,0,133.828,13.977ZM140.383,15h-1.445V6.547h1.445ZM138.82,4.3a.863.863,0,0,1,.215-.594.807.807,0,0,1,.637-.242.819.819,0,0,1,.641.242.854.854,0,0,1,.219.594.826.826,0,0,1-.219.586.834.834,0,0,1-.641.234.821.821,0,0,1-.637-.234A.834.834,0,0,1,138.82,4.3ZM147.914,15a3.036,3.036,0,0,1-.2-.891,3.225,3.225,0,0,1-2.406,1.047,2.984,2.984,0,0,1-2.051-.707,2.287,2.287,0,0,1-.8-1.793,2.39,2.39,0,0,1,1-2.051,4.733,4.733,0,0,1,2.824-.73h1.406V9.211A1.623,1.623,0,0,0,147.234,8a1.821,1.821,0,0,0-1.336-.449,2.107,2.107,0,0,0-1.3.391,1.151,1.151,0,0,0-.523.945h-1.453a2,2,0,0,1,.449-1.223,3.066,3.066,0,0,1,1.219-.934,4.1,4.1,0,0,1,1.691-.344,3.342,3.342,0,0,1,2.289.73,2.635,2.635,0,0,1,.859,2.012v3.891a4.757,4.757,0,0,0,.3,1.852V15Zm-2.4-1.1a2.54,2.54,0,0,0,1.289-.352,2.127,2.127,0,0,0,.883-.914V10.9h-1.133q-2.656,0-2.656,1.555a1.316,1.316,0,0,0,.453,1.063A1.742,1.742,0,0,0,145.516,13.9Zm7.453,1.1h-1.445V3h1.445Z" transform="translate(608 5633)" fill="#12263f"/>
    <path id="Trazado_149104" data-name="Trazado 149104" d="M39.594,3.625l3.719,9.281,3.719-9.281h1.945V15h-1.5V10.57l.141-4.781L43.883,15H42.734L39.008,5.813l.148,4.758V15h-1.5V3.625ZM54.906,15.156a3.693,3.693,0,0,1-2.8-1.129,4.19,4.19,0,0,1-1.078-3.02v-.266a5.073,5.073,0,0,1,.48-2.246,3.748,3.748,0,0,1,1.344-1.547,3.378,3.378,0,0,1,1.871-.559,3.166,3.166,0,0,1,2.563,1.086,4.7,4.7,0,0,1,.914,3.109v.6H52.477a3,3,0,0,0,.73,2.02,2.3,2.3,0,0,0,1.777.77,2.517,2.517,0,0,0,1.3-.312,3.259,3.259,0,0,0,.93-.828l.883.688A3.55,3.55,0,0,1,54.906,15.156Zm-.18-7.578a1.928,1.928,0,0,0-1.469.637A3.1,3.1,0,0,0,52.523,10h4.234V9.891a2.753,2.753,0,0,0-.594-1.707A1.815,1.815,0,0,0,54.727,7.578Zm9.234.266a4.331,4.331,0,0,0-.711-.055A1.9,1.9,0,0,0,61.32,9v6H59.875V6.547h1.406l.023.977A2.251,2.251,0,0,1,63.32,6.391a1.477,1.477,0,0,1,.641.109Zm4.57,6.133a2.082,2.082,0,0,0,1.352-.469,1.649,1.649,0,0,0,.641-1.172h1.367a2.621,2.621,0,0,1-.5,1.383,3.293,3.293,0,0,1-1.23,1.047,3.55,3.55,0,0,1-1.629.391A3.482,3.482,0,0,1,65.785,14a4.59,4.59,0,0,1-1.02-3.152v-.242a5.089,5.089,0,0,1,.453-2.2,3.451,3.451,0,0,1,1.3-1.492,3.7,3.7,0,0,1,2-.531,3.39,3.39,0,0,1,2.363.852,3.043,3.043,0,0,1,1,2.211H70.523A1.992,1.992,0,0,0,69.9,8.105a1.932,1.932,0,0,0-1.379-.527,2.023,2.023,0,0,0-1.707.793,3.724,3.724,0,0,0-.605,2.293v.273a3.65,3.65,0,0,0,.6,2.25A2.033,2.033,0,0,0,68.531,13.977ZM78.734,15a3.036,3.036,0,0,1-.2-.891,3.225,3.225,0,0,1-2.406,1.047,2.984,2.984,0,0,1-2.051-.707,2.288,2.288,0,0,1-.8-1.793,2.39,2.39,0,0,1,1-2.051,4.733,4.733,0,0,1,2.824-.73h1.406V9.211A1.623,1.623,0,0,0,78.055,8a1.821,1.821,0,0,0-1.336-.449,2.108,2.108,0,0,0-1.3.391,1.151,1.151,0,0,0-.523.945H73.445a2,2,0,0,1,.449-1.223,3.066,3.066,0,0,1,1.219-.934A4.1,4.1,0,0,1,76.8,6.391a3.342,3.342,0,0,1,2.289.73,2.635,2.635,0,0,1,.859,2.012v3.891a4.757,4.757,0,0,0,.3,1.852V15Zm-2.4-1.1a2.54,2.54,0,0,0,1.289-.352,2.127,2.127,0,0,0,.883-.914V10.9H77.375q-2.656,0-2.656,1.555a1.316,1.316,0,0,0,.453,1.063A1.742,1.742,0,0,0,76.336,13.9Zm5.531-3.2a4.952,4.952,0,0,1,.922-3.129,3.137,3.137,0,0,1,4.766-.168V3H89V15H87.672l-.07-.906a2.943,2.943,0,0,1-2.414,1.063,2.887,2.887,0,0,1-2.395-1.2,5.008,5.008,0,0,1-.926-3.141Zm1.445.164a3.749,3.749,0,0,0,.594,2.25,1.92,1.92,0,0,0,1.641.813A2.108,2.108,0,0,0,87.555,12.7V8.813a2.125,2.125,0,0,0-1.992-1.2,1.929,1.929,0,0,0-1.656.82A4.128,4.128,0,0,0,83.313,10.867Zm7.547-.172a4.993,4.993,0,0,1,.488-2.234A3.643,3.643,0,0,1,92.707,6.93,3.7,3.7,0,0,1,94.7,6.391a3.565,3.565,0,0,1,2.793,1.2,4.6,4.6,0,0,1,1.066,3.18v.1a5.036,5.036,0,0,1-.473,2.215,3.589,3.589,0,0,1-1.352,1.527,3.743,3.743,0,0,1-2.02.547,3.556,3.556,0,0,1-2.785-1.2A4.575,4.575,0,0,1,90.859,10.8Zm1.453.172a3.616,3.616,0,0,0,.652,2.258,2.211,2.211,0,0,0,3.5-.012,3.955,3.955,0,0,0,.648-2.418,3.61,3.61,0,0,0-.66-2.254A2.1,2.1,0,0,0,94.7,7.578a2.075,2.075,0,0,0-1.727.852A3.925,3.925,0,0,0,92.313,10.867Zm13.375-4.32.039.938a3.122,3.122,0,0,1,2.508-1.094,2.417,2.417,0,0,1,2.414,1.359,3.2,3.2,0,0,1,1.1-.984,3.242,3.242,0,0,1,1.6-.375q2.781,0,2.828,2.945V15h-1.445V9.422a1.941,1.941,0,0,0-.414-1.355,1.823,1.823,0,0,0-1.391-.449,1.916,1.916,0,0,0-1.336.48,1.949,1.949,0,0,0-.617,1.293V15h-1.453V9.461a1.613,1.613,0,0,0-1.8-1.844,1.934,1.934,0,0,0-1.945,1.211V15H104.32V6.547Zm16.172,8.609a3.693,3.693,0,0,1-2.8-1.129,4.19,4.19,0,0,1-1.078-3.02v-.266a5.073,5.073,0,0,1,.48-2.246,3.748,3.748,0,0,1,1.344-1.547,3.378,3.378,0,0,1,1.871-.559,3.166,3.166,0,0,1,2.563,1.086,4.7,4.7,0,0,1,.914,3.109v.6H119.43a3,3,0,0,0,.73,2.02,2.3,2.3,0,0,0,1.777.77,2.517,2.517,0,0,0,1.3-.312,3.259,3.259,0,0,0,.93-.828l.883.688A3.55,3.55,0,0,1,121.859,15.156Zm-.18-7.578a1.928,1.928,0,0,0-1.469.637A3.1,3.1,0,0,0,119.477,10h4.234V9.891a2.753,2.753,0,0,0-.594-1.707A1.815,1.815,0,0,0,121.68,7.578ZM128.789,4.5V6.547h1.578V7.664h-1.578v5.249a1.173,1.173,0,0,0,.211.763.888.888,0,0,0,.719.254,3.5,3.5,0,0,0,.688-.094V15a4.215,4.215,0,0,1-1.109.155,1.8,1.8,0,0,1-1.461-.586,2.517,2.517,0,0,1-.492-1.664V7.664H125.8V6.547h1.539V4.5ZM137.273,15a3.036,3.036,0,0,1-.2-.891,3.225,3.225,0,0,1-2.406,1.047,2.984,2.984,0,0,1-2.051-.707,2.287,2.287,0,0,1-.8-1.793,2.39,2.39,0,0,1,1-2.051,4.733,4.733,0,0,1,2.824-.73h1.406V9.211A1.623,1.623,0,0,0,136.594,8a1.821,1.821,0,0,0-1.336-.449,2.107,2.107,0,0,0-1.3.391,1.151,1.151,0,0,0-.523.945h-1.453a2,2,0,0,1,.449-1.223,3.066,3.066,0,0,1,1.219-.934,4.1,4.1,0,0,1,1.691-.344,3.342,3.342,0,0,1,2.289.73,2.635,2.635,0,0,1,.859,2.012v3.891a4.757,4.757,0,0,0,.3,1.852V15Zm-2.4-1.1a2.54,2.54,0,0,0,1.289-.352,2.127,2.127,0,0,0,.883-.914V10.9h-1.133q-2.656,0-2.656,1.555a1.316,1.316,0,0,0,.453,1.063A1.742,1.742,0,0,0,134.875,13.9Z" transform="translate(820 5634)" fill="#12263f"/>
    <path id="Trazado_149106" data-name="Trazado 149106" d="M27.58,4.2l2.856,8.9,2.848-8.9h4.061V17H34.25V14.012l.3-6.117L31.456,17H29.417l-3.1-9.114.3,6.126V17H23.528V4.2ZM43.769,17.176a4.889,4.889,0,0,1-3.542-1.305,4.507,4.507,0,0,1-1.354-3.4v-.246a5.84,5.84,0,0,1,.541-2.575,3.955,3.955,0,0,1,1.578-1.727,4.763,4.763,0,0,1,2.461-.611,4.117,4.117,0,0,1,3.164,1.244,4.887,4.887,0,0,1,1.16,3.467v1.151H41.888a2.135,2.135,0,0,0,.694,1.257,2.066,2.066,0,0,0,1.389.457,2.662,2.662,0,0,0,2.2-.984l1.354,1.6a3.784,3.784,0,0,1-1.569,1.217A5.3,5.3,0,0,1,43.769,17.176ZM43.435,9.6q-1.3,0-1.547,1.723h2.988v-.229a1.467,1.467,0,0,0-.36-1.1A1.434,1.434,0,0,0,43.435,9.6Zm11.285.571-.976-.07a1.752,1.752,0,0,0-1.793.879V17H48.99V7.49h2.777l.1,1.222a2.294,2.294,0,0,1,2.083-1.4,2.888,2.888,0,0,1,.826.105Zm4.922,4.72a1.317,1.317,0,0,0,.967-.338,1.241,1.241,0,0,0,.334-.945H63.72A3.288,3.288,0,0,1,62.6,16.174a4.168,4.168,0,0,1-2.887,1,4.22,4.22,0,0,1-3.27-1.3,5.125,5.125,0,0,1-1.2-3.6v-.123A5.792,5.792,0,0,1,55.779,9.6a3.872,3.872,0,0,1,1.534-1.7,4.573,4.573,0,0,1,2.373-.593A4.116,4.116,0,0,1,62.63,8.343a3.647,3.647,0,0,1,1.09,2.786H60.943A1.626,1.626,0,0,0,60.583,10a1.244,1.244,0,0,0-.967-.4q-1.151,0-1.345,1.468a10.357,10.357,0,0,0-.062,1.283,4.068,4.068,0,0,0,.343,1.986A1.187,1.187,0,0,0,59.642,14.891ZM70.33,17a3.344,3.344,0,0,1-.281-.853,2.754,2.754,0,0,1-2.285,1.028,3.374,3.374,0,0,1-2.285-.813,2.588,2.588,0,0,1-.94-2.043,2.66,2.66,0,0,1,1.143-2.338A5.821,5.821,0,0,1,69,11.19h.914v-.5q0-1.316-1.134-1.316a.927.927,0,0,0-1.055,1.042H64.766a2.655,2.655,0,0,1,1.173-2.239,4.931,4.931,0,0,1,2.993-.86,4.323,4.323,0,0,1,2.874.888,3.086,3.086,0,0,1,1.081,2.435v4.21a4.311,4.311,0,0,0,.4,2V17Zm-1.854-1.934a1.652,1.652,0,0,0,.918-.237,1.487,1.487,0,0,0,.523-.536V12.772h-.861q-1.547,0-1.547,1.389a.848.848,0,0,0,.272.655A.986.986,0,0,0,68.475,15.066Zm5.678-2.892a5.809,5.809,0,0,1,.976-3.56,3.211,3.211,0,0,1,2.725-1.3,2.731,2.731,0,0,1,2.145,1V3.5h2.971V17H80.305l-.149-1.02a2.8,2.8,0,0,1-2.32,1.2,3.205,3.205,0,0,1-2.689-1.3A5.993,5.993,0,0,1,74.153,12.175Zm2.962.185q0,2.531,1.477,2.531A1.458,1.458,0,0,0,80,14.064V10.443A1.419,1.419,0,0,0,78.609,9.6q-1.371,0-1.485,2.215Zm7.163-.2a5.613,5.613,0,0,1,.554-2.536,3.96,3.96,0,0,1,1.591-1.709,4.791,4.791,0,0,1,2.435-.6,4.373,4.373,0,0,1,3.366,1.323,5.076,5.076,0,0,1,1.23,3.6v.105a4.925,4.925,0,0,1-1.235,3.529,4.384,4.384,0,0,1-3.344,1.305,4.434,4.434,0,0,1-3.261-1.217,4.761,4.761,0,0,1-1.327-3.3Zm2.962.185a3.538,3.538,0,0,0,.413,1.934,1.376,1.376,0,0,0,1.222.615q1.582,0,1.617-2.435v-.3q0-2.558-1.635-2.558-1.485,0-1.608,2.206Zm20.83-.026a5.735,5.735,0,0,1-1,3.538,3.2,3.2,0,0,1-2.694,1.323,2.742,2.742,0,0,1-2.153-.958v4.438H99.263V7.49h2.769l.088.879a2.742,2.742,0,0,1,2.241-1.055,3.224,3.224,0,0,1,2.733,1.3,5.805,5.805,0,0,1,.976,3.564Zm-2.962-.185q0-2.531-1.477-2.531a1.394,1.394,0,0,0-1.406.756V14.1a1.439,1.439,0,0,0,1.424.791q1.415,0,1.459-2.443ZM114.732,17a3.344,3.344,0,0,1-.281-.853,2.754,2.754,0,0,1-2.285,1.028,3.374,3.374,0,0,1-2.285-.813,2.588,2.588,0,0,1-.94-2.043,2.66,2.66,0,0,1,1.143-2.338,5.821,5.821,0,0,1,3.322-.791h.914v-.5q0-1.316-1.134-1.316a.927.927,0,0,0-1.055,1.042h-2.962a2.655,2.655,0,0,1,1.173-2.239,4.931,4.931,0,0,1,2.993-.86,4.323,4.323,0,0,1,2.874.888,3.086,3.086,0,0,1,1.081,2.435v4.21a4.311,4.311,0,0,0,.4,2V17Zm-1.854-1.934a1.652,1.652,0,0,0,.918-.237,1.487,1.487,0,0,0,.523-.536V12.772h-.861q-1.547,0-1.547,1.389a.848.848,0,0,0,.272.655A.986.986,0,0,0,112.877,15.066Zm11.8-4.9-.976-.07a1.752,1.752,0,0,0-1.793.879V17h-2.962V7.49h2.777l.1,1.222a2.294,2.294,0,0,1,2.083-1.4,2.888,2.888,0,0,1,.826.105ZM130.842,17a3.344,3.344,0,0,1-.281-.853,2.754,2.754,0,0,1-2.285,1.028,3.374,3.374,0,0,1-2.285-.813,2.588,2.588,0,0,1-.94-2.043,2.66,2.66,0,0,1,1.143-2.338,5.821,5.821,0,0,1,3.322-.791h.914v-.5q0-1.316-1.134-1.316a.927.927,0,0,0-1.055,1.042h-2.962a2.655,2.655,0,0,1,1.173-2.239,4.931,4.931,0,0,1,2.993-.86,4.323,4.323,0,0,1,2.874.888,3.086,3.086,0,0,1,1.081,2.435v4.21a4.311,4.311,0,0,0,.4,2V17Zm-1.854-1.934a1.652,1.652,0,0,0,.918-.237,1.487,1.487,0,0,0,.523-.536V12.772h-.861q-1.547,0-1.547,1.389a.848.848,0,0,0,.272.655A.986.986,0,0,0,128.988,15.066Zm15.135,2.109a4.889,4.889,0,0,1-3.542-1.305,4.507,4.507,0,0,1-1.354-3.4v-.246a5.84,5.84,0,0,1,.541-2.575,3.955,3.955,0,0,1,1.578-1.727,4.763,4.763,0,0,1,2.461-.611,4.117,4.117,0,0,1,3.164,1.244,4.887,4.887,0,0,1,1.16,3.467v1.151h-5.889a2.135,2.135,0,0,0,.694,1.257,2.066,2.066,0,0,0,1.389.457,2.662,2.662,0,0,0,2.2-.984l1.354,1.6a3.784,3.784,0,0,1-1.569,1.217A5.3,5.3,0,0,1,144.123,17.176ZM143.789,9.6q-1.3,0-1.547,1.723h2.988v-.229a1.467,1.467,0,0,0-.36-1.1A1.434,1.434,0,0,0,143.789,9.6Zm8.657,7.4h-2.971V3.5h2.971ZM51.183,32.49l.1,1.116A3.27,3.27,0,0,1,54,32.314a2.407,2.407,0,0,1,2.435,1.433,3.165,3.165,0,0,1,2.795-1.433q2.892,0,2.971,3.5V42H59.225V36a1.813,1.813,0,0,0-.246-1.063,1.048,1.048,0,0,0-.9-.334,1.4,1.4,0,0,0-1.31.782l.009.123V42H53.811V36.015a1.906,1.906,0,0,0-.237-1.081,1.045,1.045,0,0,0-.905-.334,1.42,1.42,0,0,0-1.3.782V42H48.405V32.49Zm17.306,9.686a4.889,4.889,0,0,1-3.542-1.305,4.507,4.507,0,0,1-1.354-3.4v-.246a5.84,5.84,0,0,1,.541-2.575,3.955,3.955,0,0,1,1.578-1.727,4.763,4.763,0,0,1,2.461-.611,4.117,4.117,0,0,1,3.164,1.244,4.887,4.887,0,0,1,1.16,3.467v1.151H66.607a2.135,2.135,0,0,0,.694,1.257,2.066,2.066,0,0,0,1.389.457,2.662,2.662,0,0,0,2.2-.984l1.354,1.6a3.784,3.784,0,0,1-1.569,1.217A5.3,5.3,0,0,1,68.488,42.176ZM68.154,34.6q-1.3,0-1.547,1.723H69.6v-.229a1.467,1.467,0,0,0-.36-1.1A1.434,1.434,0,0,0,68.154,34.6Zm11.285.571-.976-.07a1.752,1.752,0,0,0-1.793.879V42H73.709V32.49h2.777l.1,1.222a2.294,2.294,0,0,1,2.083-1.4,2.888,2.888,0,0,1,.826.105Zm4.922,4.72a1.317,1.317,0,0,0,.967-.338,1.241,1.241,0,0,0,.334-.945h2.777a3.288,3.288,0,0,1-1.121,2.566,4.168,4.168,0,0,1-2.887,1,4.22,4.22,0,0,1-3.27-1.3,5.125,5.125,0,0,1-1.2-3.6v-.123A5.792,5.792,0,0,1,80.5,34.6a3.872,3.872,0,0,1,1.534-1.7,4.573,4.573,0,0,1,2.373-.593,4.116,4.116,0,0,1,2.944,1.028,3.647,3.647,0,0,1,1.09,2.786H85.662A1.626,1.626,0,0,0,85.3,35a1.244,1.244,0,0,0-.967-.4q-1.151,0-1.345,1.468a10.357,10.357,0,0,0-.062,1.283,4.068,4.068,0,0,0,.343,1.986A1.187,1.187,0,0,0,84.361,39.891ZM95.049,42a3.344,3.344,0,0,1-.281-.853,2.754,2.754,0,0,1-2.285,1.028,3.374,3.374,0,0,1-2.285-.813,2.588,2.588,0,0,1-.94-2.043A2.66,2.66,0,0,1,90.4,36.981a5.821,5.821,0,0,1,3.322-.791h.914v-.5q0-1.316-1.134-1.316a.927.927,0,0,0-1.055,1.042H89.485a2.655,2.655,0,0,1,1.173-2.239,4.931,4.931,0,0,1,2.993-.86,4.323,4.323,0,0,1,2.874.888,3.086,3.086,0,0,1,1.081,2.435v4.21a4.311,4.311,0,0,0,.4,2V42Zm-1.854-1.934a1.652,1.652,0,0,0,.918-.237,1.487,1.487,0,0,0,.523-.536V37.772h-.861q-1.547,0-1.547,1.389a.848.848,0,0,0,.272.655A.986.986,0,0,0,93.194,40.066Zm5.678-2.892a5.809,5.809,0,0,1,.976-3.56,3.211,3.211,0,0,1,2.725-1.3,2.731,2.731,0,0,1,2.145,1V28.5h2.971V42h-2.663l-.149-1.02a2.8,2.8,0,0,1-2.32,1.2,3.205,3.205,0,0,1-2.689-1.3A5.993,5.993,0,0,1,98.872,37.175Zm2.962.185q0,2.531,1.477,2.531a1.458,1.458,0,0,0,1.406-.826V35.443a1.419,1.419,0,0,0-1.389-.844q-1.371,0-1.485,2.215Zm12.138,4.816a4.889,4.889,0,0,1-3.542-1.305,4.507,4.507,0,0,1-1.354-3.4v-.246a5.84,5.84,0,0,1,.541-2.575,3.955,3.955,0,0,1,1.578-1.727,4.763,4.763,0,0,1,2.461-.611,4.117,4.117,0,0,1,3.164,1.244,4.887,4.887,0,0,1,1.16,3.467v1.151h-5.889a2.135,2.135,0,0,0,.694,1.257,2.066,2.066,0,0,0,1.389.457,2.662,2.662,0,0,0,2.2-.984l1.354,1.6a3.784,3.784,0,0,1-1.569,1.217A5.3,5.3,0,0,1,113.972,42.176Zm-.334-7.576q-1.3,0-1.547,1.723h2.988v-.229a1.467,1.467,0,0,0-.36-1.1A1.434,1.434,0,0,0,113.638,34.6Zm5.159,2.558a5.613,5.613,0,0,1,.554-2.536,3.96,3.96,0,0,1,1.591-1.709,4.791,4.791,0,0,1,2.435-.6,4.373,4.373,0,0,1,3.366,1.323,5.076,5.076,0,0,1,1.23,3.6v.105a4.925,4.925,0,0,1-1.235,3.529,4.384,4.384,0,0,1-3.344,1.305,4.434,4.434,0,0,1-3.261-1.217,4.761,4.761,0,0,1-1.327-3.3Zm2.962.185a3.538,3.538,0,0,0,.413,1.934,1.376,1.376,0,0,0,1.222.615q1.582,0,1.617-2.435v-.3q0-2.558-1.635-2.558-1.485,0-1.608,2.206Z" transform="translate(712 5778)" fill="#12263f"/>
    <path id="Trazado_149105" data-name="Trazado 149105" d="M3.258,3.625l3.719,9.281L10.7,3.625h1.945V15h-1.5V10.57l.141-4.781L7.547,15H6.4L2.672,5.813,2.82,10.57V15H1.32V3.625ZM18.57,15.156a3.693,3.693,0,0,1-2.8-1.129,4.19,4.19,0,0,1-1.078-3.02v-.266a5.073,5.073,0,0,1,.48-2.246A3.748,3.748,0,0,1,16.52,6.949a3.378,3.378,0,0,1,1.871-.559,3.166,3.166,0,0,1,2.563,1.086,4.7,4.7,0,0,1,.914,3.109v.6H16.141a3,3,0,0,0,.73,2.02,2.3,2.3,0,0,0,1.777.77,2.517,2.517,0,0,0,1.3-.312,3.259,3.259,0,0,0,.93-.828l.883.688A3.55,3.55,0,0,1,18.57,15.156Zm-.18-7.578a1.928,1.928,0,0,0-1.469.637A3.1,3.1,0,0,0,16.188,10h4.234V9.891a2.753,2.753,0,0,0-.594-1.707A1.815,1.815,0,0,0,18.391,7.578Zm9.234.266a4.331,4.331,0,0,0-.711-.055A1.9,1.9,0,0,0,24.984,9v6H23.539V6.547h1.406l.023.977a2.251,2.251,0,0,1,2.016-1.133,1.477,1.477,0,0,1,.641.109Zm4.57,6.133a2.082,2.082,0,0,0,1.352-.469,1.649,1.649,0,0,0,.641-1.172h1.367a2.621,2.621,0,0,1-.5,1.383,3.293,3.293,0,0,1-1.23,1.047,3.55,3.55,0,0,1-1.629.391A3.482,3.482,0,0,1,29.449,14a4.59,4.59,0,0,1-1.02-3.152v-.242a5.089,5.089,0,0,1,.453-2.2,3.451,3.451,0,0,1,1.3-1.492,3.7,3.7,0,0,1,2-.531,3.39,3.39,0,0,1,2.363.852,3.043,3.043,0,0,1,1,2.211H34.188a1.992,1.992,0,0,0-.621-1.348,1.932,1.932,0,0,0-1.379-.527,2.023,2.023,0,0,0-1.707.793,3.724,3.724,0,0,0-.605,2.293v.273a3.65,3.65,0,0,0,.6,2.25A2.033,2.033,0,0,0,32.2,13.977ZM42.4,15a3.036,3.036,0,0,1-.2-.891,3.225,3.225,0,0,1-2.406,1.047,2.984,2.984,0,0,1-2.051-.707,2.287,2.287,0,0,1-.8-1.793,2.39,2.39,0,0,1,1-2.051,4.733,4.733,0,0,1,2.824-.73h1.406V9.211A1.623,1.623,0,0,0,41.719,8a1.821,1.821,0,0,0-1.336-.449,2.107,2.107,0,0,0-1.3.391,1.151,1.151,0,0,0-.523.945H37.109a2,2,0,0,1,.449-1.223,3.066,3.066,0,0,1,1.219-.934,4.1,4.1,0,0,1,1.691-.344,3.342,3.342,0,0,1,2.289.73,2.635,2.635,0,0,1,.859,2.012v3.891a4.757,4.757,0,0,0,.3,1.852V15ZM40,13.9a2.54,2.54,0,0,0,1.289-.352,2.127,2.127,0,0,0,.883-.914V10.9H41.039q-2.656,0-2.656,1.555a1.316,1.316,0,0,0,.453,1.063A1.742,1.742,0,0,0,40,13.9Zm5.531-3.2a4.952,4.952,0,0,1,.922-3.129,3.137,3.137,0,0,1,4.766-.168V3h1.445V15H51.336l-.07-.906a2.943,2.943,0,0,1-2.414,1.063,2.887,2.887,0,0,1-2.395-1.2,5.008,5.008,0,0,1-.926-3.141Zm1.445.164a3.749,3.749,0,0,0,.594,2.25,1.92,1.92,0,0,0,1.641.813A2.108,2.108,0,0,0,51.219,12.7V8.813a2.125,2.125,0,0,0-1.992-1.2,1.929,1.929,0,0,0-1.656.82A4.128,4.128,0,0,0,46.977,10.867Zm7.547-.172a4.993,4.993,0,0,1,.488-2.234A3.643,3.643,0,0,1,56.371,6.93a3.7,3.7,0,0,1,1.988-.539,3.565,3.565,0,0,1,2.793,1.2,4.6,4.6,0,0,1,1.066,3.18v.1a5.036,5.036,0,0,1-.473,2.215,3.589,3.589,0,0,1-1.352,1.527,3.743,3.743,0,0,1-2.02.547,3.556,3.556,0,0,1-2.785-1.2A4.575,4.575,0,0,1,54.523,10.8Zm1.453.172a3.616,3.616,0,0,0,.652,2.258,2.211,2.211,0,0,0,3.5-.012,3.955,3.955,0,0,0,.648-2.418,3.61,3.61,0,0,0-.66-2.254,2.1,2.1,0,0,0-1.754-.863,2.075,2.075,0,0,0-1.727.852A3.925,3.925,0,0,0,55.977,10.867Zm16.1-3.023a4.331,4.331,0,0,0-.711-.055A1.9,1.9,0,0,0,69.438,9v6H67.992V6.547H69.4l.023.977a2.251,2.251,0,0,1,2.016-1.133,1.477,1.477,0,0,1,.641.109Zm4.688,7.313a3.693,3.693,0,0,1-2.8-1.129,4.19,4.19,0,0,1-1.078-3.02v-.266a5.073,5.073,0,0,1,.48-2.246,3.748,3.748,0,0,1,1.344-1.547,3.378,3.378,0,0,1,1.871-.559,3.166,3.166,0,0,1,2.563,1.086,4.7,4.7,0,0,1,.914,3.109v.6H74.336a3,3,0,0,0,.73,2.02,2.3,2.3,0,0,0,1.777.77,2.517,2.517,0,0,0,1.3-.312,3.259,3.259,0,0,0,.93-.828l.883.688A3.55,3.55,0,0,1,76.766,15.156Zm-.18-7.578a1.928,1.928,0,0,0-1.469.637A3.1,3.1,0,0,0,74.383,10h4.234V9.891a2.753,2.753,0,0,0-.594-1.707A1.815,1.815,0,0,0,76.586,7.578ZM86.953,15a3.036,3.036,0,0,1-.2-.891,3.225,3.225,0,0,1-2.406,1.047,2.984,2.984,0,0,1-2.051-.707,2.288,2.288,0,0,1-.8-1.793,2.39,2.39,0,0,1,1-2.051,4.733,4.733,0,0,1,2.824-.73h1.406V9.211A1.623,1.623,0,0,0,86.273,8a1.821,1.821,0,0,0-1.336-.449,2.108,2.108,0,0,0-1.3.391,1.151,1.151,0,0,0-.523.945H81.664a2,2,0,0,1,.449-1.223,3.066,3.066,0,0,1,1.219-.934,4.1,4.1,0,0,1,1.691-.344,3.342,3.342,0,0,1,2.289.73,2.635,2.635,0,0,1,.859,2.012v3.891a4.757,4.757,0,0,0,.3,1.852V15Zm-2.4-1.1a2.54,2.54,0,0,0,1.289-.352,2.127,2.127,0,0,0,.883-.914V10.9H85.594q-2.656,0-2.656,1.555a1.316,1.316,0,0,0,.453,1.063A1.742,1.742,0,0,0,84.555,13.9ZM92.008,15H90.563V3h1.445Z" transform="translate(1027 5801)" fill="#12263f"/>
  </g>
</svg>
