<svg xmlns="http://www.w3.org/2000/svg" width="76" height="76" viewBox="0 0 76 76">
  <g id="Grupo_92603" data-name="Grupo 92603" transform="translate(-294 -6900)">
    <circle id="Elipse_4836" data-name="Elipse 4836" cx="38" cy="38" r="38" transform="translate(294 6900)" fill="#3e2ea6"/>
    <g id="Grupo_91881" data-name="Grupo 91881" transform="translate(309.004 6914.364)">
      <g id="Grupo_91875" data-name="Grupo 91875" transform="translate(0 19.241)">
        <path id="Trazado_147625" data-name="Trazado 147625" d="M85.713,43.171a1.46,1.46,0,0,1-.735-.2,1.442,1.442,0,0,1-.7-1.232l-.111-21.158a1.412,1.412,0,0,1,.683-1.232,1.44,1.44,0,0,1,1.417-.045l20.059,10.471a1.436,1.436,0,0,1,.015,2.538L86.4,43A1.392,1.392,0,0,1,85.713,43.171Zm1.343-20.215.082,16.386,15.451-8.275Z" transform="translate(-84.169 -19.14)" fill="#fff"/>
      </g>
      <g id="Grupo_91876" data-name="Grupo 91876" transform="translate(20.059 19.029)">
        <path id="Trazado_147626" data-name="Trazado 147626" d="M108.371,43.147a1.5,1.5,0,0,1-.668-.163L87.644,32.5a1.436,1.436,0,0,1-.015-2.538L107.577,19.28a1.459,1.459,0,0,1,1.417.03,1.442,1.442,0,0,1,.7,1.232L109.8,41.7a1.412,1.412,0,0,1-.683,1.232A1.437,1.437,0,0,1,108.371,43.147ZM91.384,31.214l15.54,8.111-.089-16.386Z" transform="translate(-86.872 -19.111)" fill="#fff"/>
      </g>
      <g id="Grupo_91877" data-name="Grupo 91877" transform="translate(6.264 0)">
        <path id="Trazado_147627" data-name="Trazado 147627" d="M100.249,49.133a1.411,1.411,0,0,1-.668-.163l-13.8-7.2a1.446,1.446,0,0,1-.772-1.276V17.987a1.441,1.441,0,0,1,1.44-1.44h27.584a1.441,1.441,0,0,1,1.44,1.44V40.309a1.444,1.444,0,0,1-.757,1.269l-13.8,7.384A1.364,1.364,0,0,1,100.249,49.133ZM87.885,39.627l12.349,6.449L112.6,39.449V19.419H87.885Z" transform="translate(-85.013 -16.547)" fill="#fff"/>
      </g>
      <g id="Grupo_91878" data-name="Grupo 91878" transform="translate(0 14.972)">
        <path id="Trazado_147628" data-name="Trazado 147628" d="M85.713,46.865a1.433,1.433,0,0,1-1.432-1.432l-.111-21.158A1.405,1.405,0,0,1,84.8,23.08l6.271-4.23A1.434,1.434,0,0,1,93.3,20.045v6.627l12.349,6.449,12.371-6.627V20a1.438,1.438,0,0,1,2.226-1.2l6.152,4.059a1.437,1.437,0,0,1,.646,1.195l.111,21.158a1.406,1.406,0,0,1-.408,1.017,1.44,1.44,0,0,1-1.017.43l-40.015.208Zm1.336-21.833.1,18.954,37.135-.2-.1-18.954-3.288-2.16v4.683a1.444,1.444,0,0,1-.757,1.269l-13.8,7.384a1.413,1.413,0,0,1-1.343.007l-13.8-7.2a1.446,1.446,0,0,1-.772-1.276V22.747Z" transform="translate(-84.169 -18.564)" fill="#fff"/>
      </g>
    </g>
  </g>
</svg>
