<svg xmlns="http://www.w3.org/2000/svg" xmlns:xlink="http://www.w3.org/1999/xlink" width="188.764" height="130.084" viewBox="0 0 188.764 130.084">
  <defs>
    <linearGradient id="linear-gradient" x1="0.521" y1="0.166" x2="0.49" y2="1.392" gradientUnits="objectBoundingBox">
      <stop offset="0" stop-color="#ffbc53"/>
      <stop offset="0.08" stop-color="#f8c15d"/>
      <stop offset="0.226" stop-color="#f2c769"/>
      <stop offset="0.431" stop-color="#eecb70"/>
      <stop offset="1" stop-color="#edcc72"/>
    </linearGradient>
    <linearGradient id="linear-gradient-2" x1="-1536.632" y1="41.138" x2="-1536.574" y2="42.265" xlink:href="#linear-gradient"/>
  </defs>
  <g id="Grupo_91764" data-name="Grupo 91764" transform="translate(-11303.726 -612.131)">
    <g id="Grupo_91733" data-name="Grupo 91733" transform="translate(11466.769 683.835)">
      <path id="Trazado_147406" data-name="Trazado 147406" d="M12255.227,1033.887h-7.023V1027.5h7.023a3.162,3.162,0,0,1,3.162,3.161v.064A3.162,3.162,0,0,1,12255.227,1033.887Z" transform="translate(-12248.203 -1027.5)" fill="#b9beed"/>
      <path id="Trazado_147407" data-name="Trazado 147407" d="M12263,1067.232h-14.623a.17.17,0,0,1-.17-.171v-6.391a.171.171,0,0,1,.17-.171H12263a3.333,3.333,0,0,1,3.334,3.333v.068A3.333,3.333,0,0,1,12263,1067.232Z" transform="translate(-12248.203 -1054.803)" fill="#b9beed"/>
      <path id="Trazado_147408" data-name="Trazado 147408" d="M12270.25,1104.854H12248.2V1097h22.047a3.786,3.786,0,0,1,3.674,3.888v.078A3.787,3.787,0,0,1,12270.25,1104.854Z" transform="translate(-12248.203 -1085.003)" fill="#b9beed"/>
    </g>
    <g id="Grupo_91735" data-name="Grupo 91735" transform="translate(11421.885 677.534)">
      <rect id="Rectángulo_34426" data-name="Rectángulo 34426" width="46.609" height="61.628" rx="14.601" transform="translate(0)" fill="#f7fbfd"/>
      <rect id="Rectángulo_34427" data-name="Rectángulo 34427" width="36.252" height="50.752" transform="translate(5.179 5.524)" fill="#b9beed"/>
      <g id="Grupo_91734" data-name="Grupo 91734" transform="translate(8.02 8.797)">
        <path id="Trazado_147409" data-name="Trazado 147409" d="M12051.55,1062.032l-.028.032-.063.075-8.349,10.521-.027-.036-.006-.008-.113-.144-.048-.06-8.154-10.276-.062-.077-.028-.028.037-.032h16.8Z" transform="translate(-12034.669 -1058.541)" fill="#85dfff"/>
        <path id="Trazado_147410" data-name="Trazado 147410" d="M12086.334,1062l-3.483,10.524-.033.1-.114-.146.067-.2,3.4-10.28Z" transform="translate(-12074.41 -1058.541)" fill="#5169d1"/>
        <path id="Trazado_147411" data-name="Trazado 147411" d="M12066.156,1072.524l-.059.019-.006-.008-.113-.144-.049-.06-3.441-10.425.154,0,3.4,10.287.08.245Z" transform="translate(-12057.684 -1058.459)" fill="#5169d1"/>
        <path id="Trazado_147412" data-name="Trazado 147412" d="M12051.55,1045.5l-.028.093H12034.7l-.028-.093.037-.069,3.04-3.387.09-.084.009.007h10.528l3.138,3.487Z" transform="translate(-12034.669 -1041.961)" fill="#85dfff"/>
        <path id="Trazado_147413" data-name="Trazado 147413" d="M12066.311,1042.009l-.067.056-3.443,3.454-.034.031-.137-.012,3.546-3.537h.106Z" transform="translate(-12057.801 -1041.993)" fill="#5169d1"/>
        <path id="Trazado_147414" data-name="Trazado 147414" d="M12086.73,1045.625h-.161l-3.293-3.516-.062-.07.031-.039h.106Z" transform="translate(-12074.832 -1041.993)" fill="#5169d1"/>
        <path id="Trazado_147415" data-name="Trazado 147415" d="M12054.566,1045.529l-.159-.007,0-.009-1.714-3.463.065-.05h.062l1.741,3.536Z" transform="translate(-12049.576 -1041.993)" fill="#5169d1"/>
        <path id="Trazado_147416" data-name="Trazado 147416" d="M12102.7,1045.529l.158-.007,0-.009,1.83-3.5-.031-.014h-.066l-1.887,3.536Z" transform="translate(-12090.952 -1041.993)" fill="#5169d1"/>
        <path id="Trazado_147417" data-name="Trazado 147417" d="M12051.493,1061.808l.048.052-.049.061-16.772.012-.06-.073.054-.058Z" transform="translate(-12034.66 -1058.377)" fill="#5169d1"/>
      </g>
      <circle id="Elipse_4808" data-name="Elipse 4808" cx="1.381" cy="1.381" r="1.381" transform="translate(21.924 1.467)" fill="#f591b5"/>
      <rect id="Rectángulo_34428" data-name="Rectángulo 34428" width="11.739" height="4.316" transform="translate(26.584 8.804)" fill="#e3e9ff"/>
      <rect id="Rectángulo_34429" data-name="Rectángulo 34429" width="11.739" height="4.316" transform="translate(26.584 15.364)" fill="#e3e9ff"/>
      <rect id="Rectángulo_34430" data-name="Rectángulo 34430" width="31.073" height="4.316" transform="translate(7.941 49.371)" fill="#e3e9ff"/>
      <rect id="Rectángulo_34431" data-name="Rectángulo 34431" width="14.501" height="4.316" transform="translate(7.941 42.811)" fill="#e3e9ff"/>
      <circle id="Elipse_4809" data-name="Elipse 4809" cx="2.87" cy="2.87" r="2.87" transform="translate(7.941 34.417)" fill="#e3e9ff"/>
      <circle id="Elipse_4810" data-name="Elipse 4810" cx="2.87" cy="2.87" r="2.87" transform="translate(15.364 34.417)" fill="#e3e9ff"/>
      <path id="Trazado_147418" data-name="Trazado 147418" d="M12134.158,1182.062H12106.8a1.6,1.6,0,0,1-1.6-1.6V1159.75l6.342,2.633h22.613a1.6,1.6,0,0,1,1.6,1.6v16.48A1.6,1.6,0,0,1,12134.158,1182.062Z" transform="translate(-12085.005 -1130.619)" fill="#85dfff"/>
      <path id="Trazado_147419" data-name="Trazado 147419" d="M12237.481,1218.905h-5.86a3.418,3.418,0,0,1-3.418-3.418v-.069a3.418,3.418,0,0,1,3.418-3.418h5.86a2.486,2.486,0,0,1,2.486,2.486v1.934A2.485,2.485,0,0,1,12237.481,1218.905Z" transform="translate(-12186.772 -1173.849)" fill="#5169d1"/>
      <circle id="Elipse_4811" data-name="Elipse 4811" cx="1.791" cy="1.791" r="1.791" transform="translate(43.804 39.812)" fill="#f7fbfd"/>
      <path id="Rectángulo_34432" data-name="Rectángulo 34432" d="M1.122,0H5.61A1.122,1.122,0,0,1,6.732,1.122v0A1.122,1.122,0,0,1,5.61,2.244H1.122A1.122,1.122,0,0,1,0,1.122v0A1.122,1.122,0,0,1,1.122,0Z" transform="translate(23.305 35.043)" fill="#edcc72"/>
      <path id="Trazado_147420" data-name="Trazado 147420" d="M12126.436,1142v5.7h-19.611a1.623,1.623,0,0,1-1.621-1.623v-2.653a1.422,1.422,0,0,1,1.42-1.421Z" transform="translate(-12085.005 -1115.933)" fill="#5169d1"/>
      <path id="Trazado_147421" data-name="Trazado 147421" d="M12144.983,1155v1.208H12127.8a.6.6,0,0,1-.6-.6v-.014a.6.6,0,0,1,.6-.6Z" transform="translate(-12103.208 -1126.689)" fill="#f7fbfd"/>
    </g>
    <g id="Grupo_91738" data-name="Grupo 91738" transform="translate(11346.792 676.433)">
      <path id="Trazado_147422" data-name="Trazado 147422" d="M11573.918,1029.226v43.882a1.243,1.243,0,0,1-1.243,1.245h-18.228a1.244,1.244,0,0,1-1.244-1.245v-43.875a1.25,1.25,0,0,1,.292-.8l1.364-1.626,1.743-2.073,6.084-7.24a1.244,1.244,0,0,1,1.911.007l5.939,7.188,1.735,2.1,1.36,1.645A1.238,1.238,0,0,1,11573.918,1029.226Z" transform="translate(-11553.203 -1011.451)" fill="#f591b5"/>
      <path id="Trazado_147423" data-name="Trazado 147423" d="M11594.424,1073.573a4.952,4.952,0,1,1-9.9,0c0-.15.007-.3.021-.447a4.951,4.951,0,0,1,9.862,0C11594.416,1073.272,11594.424,1073.422,11594.424,1073.573Z" transform="translate(-11579.113 -1054.119)" fill="#e3e9ff"/>
      <path id="Trazado_147424" data-name="Trazado 147424" d="M11564.593,984.62a10.143,10.143,0,0,0-8.7,15.355l1.744-2.073a7.639,7.639,0,1,1,2.905,3.326,4.9,4.9,0,0,0-.879,2.4,10.142,10.142,0,1,0,4.931-19.006Z" transform="translate(-11554.235 -984.62)" fill="#edcc72"/>
      <g id="Grupo_91737" data-name="Grupo 91737" transform="translate(2.978 42.061)">
        <circle id="Elipse_4812" data-name="Elipse 4812" cx="7.38" cy="7.38" r="7.38" fill="#e5bd5a"/>
        <circle id="Elipse_4813" data-name="Elipse 4813" cx="5.904" cy="5.904" r="5.904" transform="translate(1.476 1.476)" fill="#edcc72"/>
        <g id="Grupo_91736" data-name="Grupo 91736" transform="translate(4.747 2.32)">
          <path id="Trazado_147425" data-name="Trazado 147425" d="M11599.138,1243.587a3.092,3.092,0,0,1,1.432-.477c0-.452.016-.9.016-1.3a2.173,2.173,0,0,1,.656-.09c0,.413-.013.878-.025,1.368a3.646,3.646,0,0,1,1.795.374,1.244,1.244,0,0,1-.414.749,3.758,3.758,0,0,0-1.395-.5c-.024.826-.038,1.742-.063,2.62,1.226.387,2.078.865,2.078,1.962a2,2,0,0,1-.71,1.575,2.742,2.742,0,0,1-1.614.62c0,.439-.012.865-.012,1.3-.207.026-.426.039-.619.052.013-.439.013-.865.013-1.329a4.9,4.9,0,0,1-2.323-.5,1.506,1.506,0,0,1,.478-.71,4.222,4.222,0,0,0,1.858.62c.025-.9.038-1.91.051-2.865-1.135-.4-2.064-.813-2.064-1.949A1.907,1.907,0,0,1,11599.138,1243.587Zm1.382,2.582c.012-.839.025-1.691.039-2.465a1.675,1.675,0,0,0-.955.336,1.1,1.1,0,0,0-.439.916C11599.164,1245.64,11599.616,1245.872,11600.52,1246.169Zm.439,1.02c-.014.9-.027,1.846-.053,2.7a1.968,1.968,0,0,0,1.008-.374,1.217,1.217,0,0,0,.438-.981C11602.353,1247.743,11601.849,1247.485,11600.959,1247.188Z" transform="translate(-11597.951 -1241.716)" fill="#2e1a14"/>
        </g>
      </g>
    </g>
    <g id="Grupo_91740" data-name="Grupo 91740" transform="translate(11386.237 626.264)">
      <path id="Trazado_147426" data-name="Trazado 147426" d="M11814.5,710.4c0-.994-.949-1.92-2.586-2.7,1.223-1.337,1.753-2.553,1.38-3.473-.386-.948-1.676-1.45-3.575-1.535.66-1.781.7-3.166-.023-3.889-.663-.663-1.88-.685-3.449-.177-.077-1.647-.527-2.779-1.381-3.166-.98-.444-2.349.159-3.875,1.549-.816-1.9-1.813-3.01-2.892-3.01-.937,0-1.812.845-2.563,2.313-1.219-1.11-2.337-1.591-3.215-1.261-1.009.38-1.547,1.777-1.643,3.838-1.917-.763-3.413-.849-4.175-.087-.7.7-.683,2.031-.077,3.739-1.81.081-3.048.563-3.435,1.479-.4.942.159,2.21,1.441,3.612-1.726.793-2.732,1.744-2.732,2.767,0,.994.949,1.92,2.584,2.7-1.222,1.337-1.753,2.553-1.379,3.473.385.948,1.677,1.45,3.573,1.535-.658,1.781-.7,3.166.024,3.889.663.663,1.882.685,3.45.177.076,1.647.527,2.779,1.381,3.166.98.444,2.349-.159,3.874-1.549.816,1.9,1.814,3.01,2.891,3.01.938,0,1.815-.845,2.565-2.313,1.22,1.11,2.338,1.591,3.214,1.261,1.008-.379,1.548-1.777,1.645-3.838,1.917.763,3.412.849,4.173.087.7-.7.684-2.031.077-3.739,1.811-.081,3.049-.563,3.436-1.479.4-.943-.158-2.21-1.44-3.612C11813.5,712.374,11814.5,711.423,11814.5,710.4Z" transform="translate(-11781.703 -694)" fill="#e5bd5a"/>
      <g id="Grupo_91739" data-name="Grupo 91739" transform="translate(7.91 8.595)">
        <path id="Trazado_147427" data-name="Trazado 147427" d="M11834.678,748.3c0,3.182-1.672,4.762-3.623,4.762-1.883,0-3.507-1.51-3.531-4.553,0-3.019,1.648-4.715,3.648-4.715C11833.284,743.792,11834.678,745.418,11834.678,748.3Zm-5.527.14c-.045,1.927.673,3.391,1.951,3.391,1.347,0,1.951-1.44,1.951-3.437,0-1.835-.535-3.368-1.951-3.368C11829.823,745.023,11829.15,746.533,11829.15,748.438Zm1.766,10.962,8.871-15.608h1.3l-8.874,15.608Zm13.586-4.854c0,3.182-1.671,4.761-3.6,4.761-1.88,0-3.507-1.51-3.529-4.529,0-3.042,1.649-4.738,3.646-4.738C11843.133,750.041,11844.5,751.666,11844.5,754.546Zm-5.527.139c-.022,1.928.722,3.391,1.975,3.391,1.347,0,1.951-1.44,1.951-3.437,0-1.835-.535-3.368-1.951-3.368C11839.673,751.271,11838.975,752.781,11838.975,754.685Z" transform="translate(-11827.523 -743.792)" fill="#2b2b72"/>
      </g>
    </g>
    <g id="Grupo_91745" data-name="Grupo 91745" transform="translate(11360.258 679.088)">
      <path id="Trazado_147428" data-name="Trazado 147428" d="M11717.063,1143.144h-53.86v-25.531a7.613,7.613,0,0,1,7.612-7.613h38.635a7.614,7.614,0,0,1,7.613,7.613Z" transform="translate(-11657.679 -1091.011)" fill="#5169d1"/>
      <rect id="Rectángulo_34433" data-name="Rectángulo 34433" width="5.869" height="16.572" transform="translate(45.573 8.631)" fill="#5169d1"/>
      <rect id="Rectángulo_34434" data-name="Rectángulo 34434" width="25.633" height="9.881" rx="4.94" transform="translate(33.75 0)" fill="#5169d1"/>
      <rect id="Rectángulo_34435" data-name="Rectángulo 34435" width="21.337" height="5.585" transform="translate(35.898 2.148)" fill="#f7fbfd"/>
      <rect id="Rectángulo_34436" data-name="Rectángulo 34436" width="17.953" height="2.417" transform="translate(12.429 21.233)" fill="#1e47b1"/>
      <path id="Trazado_147429" data-name="Trazado 147429" d="M11807.063,1123h-1.3a.558.558,0,0,0-.559.558v6.347h2.418v-6.347A.558.558,0,0,0,11807.063,1123Z" transform="translate(-11775.166 -1101.767)" fill="#1e47b1"/>
      <path id="Trazado_147430" data-name="Trazado 147430" d="M11695.062,1123h-1.3a.558.558,0,0,0-.558.558v6.347h2.417v-6.347A.558.558,0,0,0,11695.062,1123Z" transform="translate(-11682.5 -1101.767)" fill="#1e47b1"/>
      <g id="Grupo_91741" data-name="Grupo 91741" transform="translate(36.252 23.477)">
        <path id="Rectángulo_34437" data-name="Rectángulo 34437" d="M2.071,0h0A2.072,2.072,0,0,1,4.143,2.072v0A2.072,2.072,0,0,1,2.072,4.143h0A2.071,2.071,0,0,1,0,2.072v0A2.071,2.071,0,0,1,2.071,0Z" fill="#b9beed"/>
        <path id="Rectángulo_34438" data-name="Rectángulo 34438" d="M2.071,0h0A2.072,2.072,0,0,1,4.143,2.072v0A2.072,2.072,0,0,1,2.072,4.143h0A2.071,2.071,0,0,1,0,2.072v0A2.071,2.071,0,0,1,2.071,0Z" transform="translate(6.56)" fill="#b9beed"/>
        <path id="Rectángulo_34439" data-name="Rectángulo 34439" d="M2.071,0h0A2.072,2.072,0,0,1,4.143,2.072v0A2.072,2.072,0,0,1,2.072,4.143h0A2.071,2.071,0,0,1,0,2.072v0A2.071,2.071,0,0,1,2.071,0Z" transform="translate(13.12)" fill="#b9beed"/>
        <path id="Rectángulo_34440" data-name="Rectángulo 34440" d="M2.071,0h0A2.072,2.072,0,0,1,4.143,2.072v0A2.072,2.072,0,0,1,2.072,4.143h0A2.071,2.071,0,0,1,0,2.072v0A2.071,2.071,0,0,1,2.071,0Z" transform="translate(0 6.732)" fill="#b9beed"/>
        <path id="Rectángulo_34441" data-name="Rectángulo 34441" d="M2.071,0h0A2.072,2.072,0,0,1,4.143,2.072v0A2.072,2.072,0,0,1,2.072,4.143h0A2.071,2.071,0,0,1,0,2.072v0A2.071,2.071,0,0,1,2.071,0Z" transform="translate(6.56 6.732)" fill="#b9beed"/>
        <path id="Rectángulo_34442" data-name="Rectángulo 34442" d="M2.071,0h0A2.072,2.072,0,0,1,4.143,2.072v0A2.072,2.072,0,0,1,2.072,4.143h0A2.071,2.071,0,0,1,0,2.072v0A2.071,2.071,0,0,1,2.071,0Z" transform="translate(13.12 6.732)" fill="#b9beed"/>
        <path id="Rectángulo_34443" data-name="Rectángulo 34443" d="M2.071,0h0A2.072,2.072,0,0,1,4.143,2.072v0A2.072,2.072,0,0,1,2.072,4.143h0A2.071,2.071,0,0,1,0,2.072v0A2.071,2.071,0,0,1,2.071,0Z" transform="translate(0 13.465)" fill="#b9beed"/>
        <path id="Rectángulo_34444" data-name="Rectángulo 34444" d="M2.071,0h0A2.072,2.072,0,0,1,4.143,2.072v0A2.072,2.072,0,0,1,2.072,4.143h0A2.071,2.071,0,0,1,0,2.072v0A2.071,2.071,0,0,1,2.071,0Z" transform="translate(6.56 13.465)" fill="#b9beed"/>
        <path id="Rectángulo_34445" data-name="Rectángulo 34445" d="M2.071,0h0A2.072,2.072,0,0,1,4.143,2.072v0A2.072,2.072,0,0,1,2.072,4.143h0A2.071,2.071,0,0,1,0,2.072v0A2.071,2.071,0,0,1,2.071,0Z" transform="translate(13.12 13.465)" fill="#b9beed"/>
        <path id="Rectángulo_34446" data-name="Rectángulo 34446" d="M2.071,0H8.459A2.072,2.072,0,0,1,10.53,2.072v0A2.072,2.072,0,0,1,8.459,4.143H2.071A2.071,2.071,0,0,1,0,2.072v0A2.071,2.071,0,0,1,2.071,0Z" transform="translate(0 20.197)" fill="#b9beed"/>
        <path id="Rectángulo_34447" data-name="Rectángulo 34447" d="M2.071,0h0A2.072,2.072,0,0,1,4.143,2.072v0A2.072,2.072,0,0,1,2.072,4.143h0A2.071,2.071,0,0,1,0,2.072v0A2.071,2.071,0,0,1,2.071,0Z" transform="translate(13.12 20.197)" fill="#b9beed"/>
      </g>
      <rect id="Rectángulo_34448" data-name="Rectángulo 34448" width="64.735" height="11.221" rx="5.61" transform="translate(0 49.026)" fill="#1e47b1"/>
      <rect id="Rectángulo_34449" data-name="Rectángulo 34449" width="64.735" height="11.221" rx="5.61" transform="translate(0 49.026)" fill="#1e47b1"/>
      <rect id="Rectángulo_34450" data-name="Rectángulo 34450" width="56.449" height="7.423" rx="3.711" transform="translate(4.143 50.925)" fill="#b9beed"/>
      <circle id="Elipse_4814" data-name="Elipse 4814" cx="2.589" cy="2.589" r="2.589" transform="translate(29.778 52.047)" fill="#2b2b72"/>
      <g id="Grupo_91742" data-name="Grupo 91742" transform="translate(7.337 54.032)">
        <rect id="Rectángulo_34451" data-name="Rectángulo 34451" width="18.644" height="1.208" rx="0.604" fill="#f7fbfd"/>
        <rect id="Rectángulo_34452" data-name="Rectángulo 34452" width="18.644" height="1.208" rx="0.604" transform="translate(31.418)" fill="#f7fbfd"/>
      </g>
      <path id="Trazado_147431" data-name="Trazado 147431" d="M11727.7,1053.165h-14.5v-20.37l1.685.345,1.378-.345,1.47-.432,1.468,1.467,2.157-1.036,1.985.949,2.416-2.244,1.942,1.295Z" transform="translate(-11699.048 -1026.062)" fill="#f7fbfd"/>
      <rect id="Rectángulo_34453" data-name="Rectángulo 34453" width="17.953" height="2.417" transform="translate(12.429 25.721)" fill="#1e47b1"/>
      <g id="Grupo_91744" data-name="Grupo 91744" transform="translate(46.921 2.531)">
        <g id="Grupo_91743" data-name="Grupo 91743">
          <path id="Trazado_147432" data-name="Trazado 147432" d="M11903.949,1015.7h-.014l-.8.434-.123-.476,1.011-.54h.533v4.621h-.6Z" transform="translate(-11903.01 -1015.037)" fill="#2b2b72"/>
          <path id="Trazado_147433" data-name="Trazado 147433" d="M11921.721,1019.362v-.384l.491-.476c1.18-1.123,1.713-1.721,1.72-2.417a.825.825,0,0,0-.918-.9,1.578,1.578,0,0,0-.981.391l-.2-.441a2.029,2.029,0,0,1,1.309-.469,1.3,1.3,0,0,1,1.414,1.344c0,.853-.618,1.543-1.591,2.481l-.371.341v.014h2.075v.519Z" transform="translate(-11918.491 -1014.663)" fill="#2b2b72"/>
          <path id="Trazado_147434" data-name="Trazado 147434" d="M11942.9,1018.644a2.082,2.082,0,0,0,1.023.292c.8,0,1.053-.512,1.045-.9-.008-.647-.59-.924-1.2-.924h-.348v-.469h.348c.457,0,1.031-.234,1.031-.782,0-.37-.234-.7-.811-.7a1.7,1.7,0,0,0-.924.306l-.162-.455a2.193,2.193,0,0,1,1.207-.355c.91,0,1.322.54,1.322,1.1a1.146,1.146,0,0,1-.852,1.088v.015a1.2,1.2,0,0,1,1.029,1.187c0,.74-.576,1.386-1.686,1.386a2.355,2.355,0,0,1-1.2-.313Z" transform="translate(-11935.876 -1014.663)" fill="#2b2b72"/>
        </g>
      </g>
      <rect id="Rectángulo_34454" data-name="Rectángulo 34454" width="4.316" height="4.488" rx="2.158" transform="translate(10.703 43.329)" fill="#2b2b72"/>
      <rect id="Rectángulo_34455" data-name="Rectángulo 34455" width="4.316" height="4.488" rx="2.158" transform="translate(19.334 43.329)" fill="#2b2b72"/>
      <rect id="Rectángulo_34456" data-name="Rectángulo 34456" width="4.316" height="4.488" rx="2.158" transform="translate(27.966 43.329)" fill="#f48067"/>
    </g>
    <rect id="Rectángulo_34457" data-name="Rectángulo 34457" width="177.802" height="2.935" rx="1.467" transform="translate(11303.726 739.281)" fill="#b9beed"/>
    <g id="Grupo_91749" data-name="Grupo 91749" transform="translate(11329.435 695.28)">
      <path id="Trazado_147435" data-name="Trazado 147435" d="M11503.361,1135.554h-2.042a2.881,2.881,0,0,0,.289-1.554h1.548A2.958,2.958,0,0,0,11503.361,1135.554Z" transform="translate(-11492.918 -1127.06)" fill="url(#linear-gradient)"/>
      <path id="Trazado_147436" data-name="Trazado 147436" d="M11519.473,1337.327c-.188.467-.431.659-.544.957a.648.648,0,0,0,.04.594c.136.21.2.191.443.222.282.036.566.049.852.073.723.059,1.447.075,2.172.077.361,0,.725,0,1.088,0a2.155,2.155,0,0,0,.535-.039c.087-.023.126-.082.117-.249-.018-.355-.478-.407-.739-.493a14.832,14.832,0,0,1-1.741-.44c-.109-.06-.567-.546-.677-.585A8.777,8.777,0,0,0,11519.473,1337.327Z" transform="translate(-11507.444 -1295.287)" fill="#2a2f21"/>
      <path id="Trazado_147437" data-name="Trazado 147437" d="M11470.232,1337.327c.188.467.431.659.544.957a.657.657,0,0,1-.041.594c-.136.21-.2.191-.444.222-.282.036-.564.049-.85.073-.723.059-1.448.075-2.172.077-.363,0-.726,0-1.088,0a2.166,2.166,0,0,1-.536-.039c-.085-.023-.125-.082-.117-.249.018-.355.479-.407.74-.493a14.882,14.882,0,0,0,1.741-.44c.109-.06.565-.546.676-.585A8.781,8.781,0,0,1,11470.232,1337.327Z" transform="translate(-11463.306 -1295.287)" fill="#2a2f21"/>
      <path id="Trazado_147438" data-name="Trazado 147438" d="M11489.179,1215.861l.012-.044-7.5-.106v.073c0,1-1.377,15.018-.353,21.157l1.668-.059c.6-2.975,2.039-13.25,2.474-16.046.436,2.8,1.974,13.074,2.577,16.049l1.639.057C11490.771,1230.5,11489.179,1215.861,11489.179,1215.861Z" transform="translate(-11476.073 -1194.666)" fill="#1e47b1"/>
      <path id="Trazado_147439" data-name="Trazado 147439" d="M11484.738,1220.437Z" transform="translate(-11479.2 -1198.576)" fill="#fff"/>
      <path id="Trazado_147440" data-name="Trazado 147440" d="M11488.637,1142.747c-.164,4.677-.49,6.018-.875,12.162,0,.471-7.574.366-7.574-.105-.309-5.041-1.092-7.773-.926-11.966a14.668,14.668,0,0,1,2.842-.856c.246-.041.5-.072.777-.095l.031,0c.02,0,.039,0,.059,0a13.522,13.522,0,0,1,1.926-.007c.088.005.178.012.262.019l.107.01c.279.026.541.061.795.1A13.164,13.164,0,0,1,11488.637,1142.747Z" transform="translate(-11474.65 -1133.547)" fill="#1e47b1"/>
      <path id="Trazado_147441" data-name="Trazado 147441" d="M11497.159,1109.046l-.183.085a.65.65,0,0,1-.28.063h-.705a.658.658,0,0,1-.283-.064l-.175-.082a2.544,2.544,0,0,1-1.455-2.3v-3.127h4.542v3.121A2.543,2.543,0,0,1,11497.159,1109.046Z" transform="translate(-11486.927 -1101.927)" fill="#edcc72"/>
      <path id="Trazado_147442" data-name="Trazado 147442" d="M11479.333,1204.654c.449.086,1.2.043,1.64.172.338.1.471.212.474.559,0,.259.053.571-.173.724-.361.245-1.385.046-1.75-.053-.212-.057-.566-.2-.62-.44-.062-.268.205-.62.357-.8Z" transform="translate(-11474.364 -1185.517)" fill="#edcc72"/>
      <path id="Trazado_147443" data-name="Trazado 147443" d="M11459.033,1149.2c-1.3,1.454-3.107,4.346-3.6,4.685a16.3,16.3,0,0,0,2.375,3.136l-.664,1.14a25.649,25.649,0,0,1-4.3-3.8.743.743,0,0,1-.117-.84c.906-1.773,3.527-6.507,4.928-6.467Z" transform="translate(-11452.654 -1137.862)" fill="#1e47b1"/>
      <path id="Trazado_147444" data-name="Trazado 147444" d="M11523.275,1204.654c-.449.086-1.2.043-1.641.172-.338.1-.473.212-.475.559,0,.259-.053.571.174.724.361.245,1.385.046,1.752-.053.211-.057.564-.2.617-.44.063-.268-.2-.62-.357-.8Z" transform="translate(-11509.329 -1185.517)" fill="#edcc72"/>
      <path id="Trazado_147445" data-name="Trazado 147445" d="M11525.257,1148.917c1.3,1.454,3.109,4.346,3.6,4.685a16.286,16.286,0,0,1-2.375,3.136l.665,1.14a25.616,25.616,0,0,0,4.293-3.8.742.742,0,0,0,.111-.85c-.947-1.786-3.768-6.561-5.166-6.52Z" transform="translate(-11512.725 -1137.577)" fill="#1e47b1"/>
      <g id="Grupo_91747" data-name="Grupo 91747" transform="translate(6.512)">
        <g id="Grupo_91746" data-name="Grupo 91746">
          <path id="Trazado_147446" data-name="Trazado 147446" d="M11491.057,1098.9a2.86,2.86,0,0,1-.033-.529c0-.1,0-.206,0-.307.006-.084-.014-.782.01-1.055a1.384,1.384,0,0,1,.324-.818.862.862,0,0,1,.324-.247c.4-.15-.061.376.076.361a2.444,2.444,0,0,0,.824-.525c.127.014-.125.637-.1.645a3.17,3.17,0,0,0,2.408-.433c.148-.1-.02.43.172.649.164.19.438.137.451.388.037.719,0,1.22,0,1.972a3.54,3.54,0,0,0,.223-3.783c.109-.027.348-.074.455-.1-.205-.662-1.25-.951-1.941-.891a.7.7,0,0,1,.41-.286c-1.428-.558-2.707.708-2.756.69a1.877,1.877,0,0,0-.717.068,1.327,1.327,0,0,0-.615.676,3.959,3.959,0,0,0-.191,1.421,7.254,7.254,0,0,0,.244,1.43,1.463,1.463,0,0,0,.2.45Z" transform="translate(-11490.376 -1093.798)" fill="#0c110b"/>
        </g>
      </g>
      <path id="Trazado_147447" data-name="Trazado 147447" d="M11502.517,1142.294l-1.177.179-1.24-.179-.021-1.073c.1-.006.225-.039.324-.045a5.192,5.192,0,0,1,1.868.038c.073.028.246.06.246.071Z" transform="translate(-11491.892 -1132.943)" fill="#edcc72"/>
      <path id="Trazado_147448" data-name="Trazado 147448" d="M11503.309,1155.506l-1.088,1.1-1.105-1.1,1.056-5.8Z" transform="translate(-11492.75 -1140.056)" fill="#f48067"/>
      <rect id="Rectángulo_34458" data-name="Rectángulo 34458" width="0.498" height="0.498" transform="translate(9.064 9.838) rotate(-45)" fill="#f48067"/>
      <g id="Grupo_91748" data-name="Grupo 91748" transform="translate(7.194 8.261)">
        <path id="Trazado_147449" data-name="Trazado 147449" d="M11508.766,1142.252l-1.6,1.615-.51-.52-.122-.122.122-.122,1.086-1.093.107.01c.279.026.542.061.8.1Z" transform="translate(-11504.423 -1141.947)" fill="#f7fbfd"/>
        <path id="Trazado_147450" data-name="Trazado 147450" d="M11496.045,1143.57l.633-.642-1.271-1.278-1.078.192Z" transform="translate(-11494.328 -1141.65)" fill="#f7fbfd"/>
      </g>
    </g>
    <g id="Grupo_91750" data-name="Grupo 91750" transform="translate(11417.611 640.26)">
      <path id="Trazado_147451" data-name="Trazado 147451" d="M11987.97,810.537a.6.6,0,0,1-.6-.572c-.007-.113-.013-.227-.021-.339a.6.6,0,0,1,1.206-.074c.008.117.015.233.02.35a.6.6,0,0,1-.57.635Zm-.405-3.947a.605.605,0,0,1-.6-.513c-.017-.112-.035-.223-.054-.335a.6.6,0,0,1,1.193-.195q.029.173.056.347a.6.6,0,0,1-.506.688A.63.63,0,0,1,11987.564,806.59Zm-.8-3.887a.607.607,0,0,1-.585-.452c-.026-.11-.057-.22-.086-.329a.6.6,0,0,1,1.167-.313c.029.113.06.225.089.338a.6.6,0,0,1-.432.737A.629.629,0,0,1,11986.764,802.7Zm-1.188-3.786a.6.6,0,0,1-.566-.395q-.059-.159-.12-.317a.6.6,0,0,1,1.13-.43c.042.109.084.218.124.328a.6.6,0,0,1-.358.776A.6.6,0,0,1,11985.575,798.917Zm-1.563-3.644a.6.6,0,0,1-.541-.338l-.151-.3a.6.6,0,1,1,1.08-.542c.053.1.1.209.156.314a.605.605,0,0,1-.544.87Zm-1.92-3.469a.6.6,0,0,1-.515-.285c-.06-.1-.12-.192-.181-.288a.6.6,0,0,1,1.021-.647l.187.3a.605.605,0,0,1-.2.832A.6.6,0,0,1,11982.092,791.8Zm-2.262-3.26a.6.6,0,0,1-.479-.236c-.068-.09-.139-.179-.209-.268a.6.6,0,0,1,.951-.746l.216.277a.6.6,0,0,1-.479.973Zm-2.574-3.019a.6.6,0,0,1-.438-.189c-.078-.083-.158-.165-.236-.247a.6.6,0,0,1,.872-.836l.241.253a.6.6,0,0,1-.438,1.019Zm-2.862-2.748a.6.6,0,0,1-.4-.148c-.086-.074-.172-.148-.26-.222a.6.6,0,0,1,.785-.919c.089.076.179.152.266.229a.6.6,0,0,1-.395,1.06Zm-3.124-2.449a.6.6,0,0,1-.348-.11l-.279-.2a.6.6,0,1,1,.688-.993l.288.2a.6.6,0,0,1-.349,1.1Zm-3.354-2.125a.592.592,0,0,1-.295-.078l-.3-.167a.6.6,0,1,1,.587-1.057c.1.057.2.114.3.171a.6.6,0,0,1-.3,1.13Zm-3.549-1.778a.609.609,0,0,1-.243-.051l-.312-.136a.6.6,0,0,1,.477-1.11l.323.14a.6.6,0,0,1-.244,1.157Z" transform="translate(-11963.446 -775.079)" fill="#1d243a"/>
    </g>
    <g id="Grupo_91751" data-name="Grupo 91751" transform="translate(11362.479 639.863)">
      <path id="Trazado_147452" data-name="Trazado 147452" d="M11644.691,811.658a.643.643,0,0,1-.6-.635c0-.117,0-.212-.006-.329a.584.584,0,0,1,.6-.59h.007a.568.568,0,0,1,.6.554c0,.113,0,.248.006.362.007.333-.258.465-.592.638Zm.117-4.053-.049,0a.606.606,0,0,1-.556-.65c.009-.116.021-.233.029-.349a.6.6,0,1,1,1.2.1l-.026.34A.6.6,0,0,1,11644.809,807.605Zm.508-3.935a.576.576,0,0,1-.107-.01.6.6,0,0,1-.486-.7c.02-.115.042-.23.063-.345a.6.6,0,0,1,1.188.227c-.021.111-.042.223-.062.334A.6.6,0,0,1,11645.316,803.67Zm.9-3.866a.6.6,0,0,1-.579-.771c.033-.113.064-.226.1-.338a.6.6,0,0,1,1.159.344c-.033.109-.064.218-.1.327A.606.606,0,0,1,11646.218,799.8Zm1.29-3.756a.6.6,0,0,1-.561-.829c.044-.109.087-.217.131-.325a.6.6,0,0,1,1.119.459c-.043.105-.087.211-.129.316A.606.606,0,0,1,11647.508,796.048Zm1.659-3.606a.6.6,0,0,1-.278-.069.6.6,0,0,1-.256-.816c.056-.1.109-.207.163-.31a.6.6,0,0,1,1.067.569q-.081.15-.158.3A.61.61,0,0,1,11649.167,792.442Zm2.016-3.42a.6.6,0,0,1-.5-.937c.064-.1.131-.2.2-.292a.6.6,0,1,1,1,.673c-.063.094-.126.189-.188.283A.6.6,0,0,1,11651.183,789.022Zm2.347-3.2a.6.6,0,0,1-.468-.985c.072-.091.147-.181.221-.271a.6.6,0,1,1,.932.77c-.072.087-.144.175-.215.263A.6.6,0,0,1,11653.529,785.82Zm2.654-2.951a.6.6,0,0,1-.428-1.03l.247-.247a.6.6,0,1,1,.85.859l-.24.24A.6.6,0,0,1,11656.184,782.87Zm2.936-2.671a.6.6,0,0,1-.385-1.071c.09-.074.179-.148.271-.221a.6.6,0,0,1,.761.939c-.091.071-.178.143-.265.215A.6.6,0,0,1,11659.119,780.2Zm3.184-2.365a.605.605,0,0,1-.336-1.107l.292-.193a.6.6,0,0,1,.664,1.01l-.284.188A.6.6,0,0,1,11662.3,777.833Zm3.405-2.035a.6.6,0,0,1-.284-1.138l.312-.163a.6.6,0,0,1,.558,1.072l-.3.157A.6.6,0,0,1,11665.708,775.8Zm3.593-1.682a.6.6,0,0,1-.23-1.164l.326-.131a.6.6,0,1,1,.447,1.123l-.315.127A.6.6,0,0,1,11669.3,774.117Z" transform="translate(-11644.082 -772.779)" fill="#1d243a"/>
    </g>
    <g id="Grupo_91754" data-name="Grupo 91754" transform="translate(11396.959 612.131)">
      <g id="Grupo_91752" data-name="Grupo 91752" transform="translate(5.406 4.378)">
        <path id="Trazado_147453" data-name="Trazado 147453" d="M11875.129,639.321c.016-.521.164-1.3.124-1.831l1.064.26a1.663,1.663,0,0,0,.206,1.207Z" transform="translate(-11875.129 -637.49)" fill="url(#linear-gradient-2)"/>
      </g>
      <path id="Trazado_147454" data-name="Trazado 147454" d="M11870.012,653.236l.91-.1,2.175-.248c-.131.015-.233-.676-.244-.75a13.518,13.518,0,0,1-.11-1.376,14.635,14.635,0,0,0-.267-3.1c-.2-.963.133-2-1.043-1.931-.142.008-1.082.139-1.22.111a3.922,3.922,0,0,0-1.555.488c-.621.477-.333.921-.2,1.376a20.781,20.781,0,0,1,.7,2.778c.073.443.145.886.184,1.334a2.947,2.947,0,0,0,.272,1.436C11869.663,653.318,11869.823,653.257,11870.012,653.236Z" transform="translate(-11864.052 -639.929)" fill="#5169d1"/>
      <path id="Trazado_147455" data-name="Trazado 147455" d="M11929.067,712.15c.012.432.472.454.808.448.273,0,.844.027.94.385s-.471.355-.744.359c-.379.007-.747-.018-1.119-.045-.29-.021-.637.052-.85-.181s.064-.733-.012-.854Z" transform="translate(-11913.488 -694.884)" fill="#0c110b"/>
      <path id="Trazado_147456" data-name="Trazado 147456" d="M11875.279,620.136c.111.572.2,1.132.306,1.707.028.159.3.511.3.678s-.254.148-.295.329c-.113.488-.137,1.187-.6,1.061a4.6,4.6,0,0,1-1.737-.771l-.311-1.013.332-.519.529-1.054Z" transform="translate(-11867.913 -618.754)" fill="#edcc72"/>
      <path id="Trazado_147457" data-name="Trazado 147457" d="M11908.013,741.141c-.493.094-.587-.322-.665-.585a9.184,9.184,0,0,1-.234-1.1c-.049-.288-.235-.6.013-.888a.769.769,0,0,1,.963-.18S11908.738,741,11908.013,741.141Z" transform="translate(-11896.093 -716.51)" fill="#0c110b"/>
      <path id="Trazado_147458" data-name="Trazado 147458" d="M11883.1,675.275c-.583-.336-4.268,1.009-5.711,1.876a6.537,6.537,0,0,1-1.931.506,1.992,1.992,0,0,0-.014,1.324c.159.545.934.68,1.511.862a17.036,17.036,0,0,1,3.429,1.043c.288,1.709.188,3.107.454,5.682l1.122-.022c.066-1.931.332-5.937-.067-6.547a5.953,5.953,0,0,0-2.6-1.587c.226.227,2.873-1.167,3.183-1.416.315,1.51,1.657,3.552,2.065,4.856l.977-.111a22.926,22.926,0,0,0-1.462-5.041,3.735,3.735,0,0,0-.741-1.26A1.149,1.149,0,0,0,11883.1,675.275Z" transform="translate(-11869.895 -664.331)" fill="#1e47b1"/>
      <path id="Trazado_147459" data-name="Trazado 147459" d="M11845.982,697.428a7.176,7.176,0,0,0-.7-.2,4.821,4.821,0,0,0-.68,0c-.191,0-.531-.063-.684.086-.295.3.113.416.342.424.475.018.762.044,1.236.044.154,0,.676.04.756-.115.119-.227-.469-.239-.6-.306Z" transform="translate(-11843.813 -682.526)" fill="#edcc72"/>
      <path id="Trazado_147460" data-name="Trazado 147460" d="M11856.72,649.432c-.3.122-.51.624-.669.893-.229.392-.584,3.294-.771,3.708-.8,1.779-.777,2.7-1.431,3.718a6.137,6.137,0,0,0,.7.333c.426-.646,1.9-3.378,2-3.584a12.453,12.453,0,0,0,1.032-3.5Z" transform="translate(-11852.115 -642.993)" fill="#5169d1"/>
      <g id="Grupo_91753" data-name="Grupo 91753" transform="translate(4.235)">
        <path id="Trazado_147461" data-name="Trazado 147461" d="M11869.364,616.138c.25.127.661.414.419.731-.191.25-.537.079-.71-.1a3.442,3.442,0,0,1-.437-.927,2.021,2.021,0,0,1-.286-.881,1.467,1.467,0,0,1,.8-1.514c.26-.123.57-.111.826-.237.313-.153.271-.7.582-.318.358-.245-.234-.652-.234-.652-.045-.238.58-.046.826.106a1.64,1.64,0,0,1,.592,1.311c-.148.865-1.172.539-1.394.987-.277.557-.837.4-1.039.811-.171.352-.018.541.224.742.162.135.436.54.118.668Z" transform="translate(-11868.348 -612.131)" fill="#2e1a14"/>
      </g>
      <path id="Trazado_147462" data-name="Trazado 147462" d="M11912.893,673.338c.333-.027,2.561,0,1.821.755-.116.12-.28-.139-.509-.158-.2-.016-.24-.046-.412-.049s-.584.016-.741.028C11912.979,673.919,11912.893,673.338,11912.893,673.338Z" transform="translate(-11900.967 -662.766)" fill="#edcc72"/>
      <path id="Trazado_147463" data-name="Trazado 147463" d="M11890.363,647.375c.42.229.67,1.178.869,1.588.25.512.529,1.238.783,1.748,0,0,1.922.964,2.311,1.13.314.134.309.516.086.6-.65.235-2.352-.531-3.16-.8-.641-.212-.6-.508-.789-1.037Z" transform="translate(-11882.327 -641.291)" fill="#5169d1"/>
    </g>
    <g id="Grupo_91755" data-name="Grupo 91755" transform="translate(11326.543 639.27)">
      <path id="Trazado_147464" data-name="Trazado 147464" d="M11448.156,775.465c0,3.383-6.127,13.633-6.127,13.633s-6.125-10.25-6.125-13.633a6.126,6.126,0,0,1,12.252,0Z" transform="translate(-11435.904 -769.34)" fill="#b9beed"/>
      <circle id="Elipse_4815" data-name="Elipse 4815" cx="4.436" cy="4.436" r="4.436" transform="translate(1.689 1.672)" fill="#f7fbfd"/>
    </g>
    <g id="Grupo_91756" data-name="Grupo 91756" transform="translate(11357.032 620.913)">
      <path id="Trazado_147465" data-name="Trazado 147465" d="M11617.39,671.977h-4.865l4.054-8.977h4.866Z" transform="translate(-11612.524 -663)" fill="#b9beed"/>
      <path id="Trazado_147466" data-name="Trazado 147466" d="M11653.628,671.977h-4.866l4.056-8.977h4.866Z" transform="translate(-11642.506 -663)" fill="#b9beed"/>
      <path id="Trazado_147467" data-name="Trazado 147467" d="M11689.866,671.977H11685l4.055-8.977h4.865Z" transform="translate(-11672.49 -663)" fill="#b9beed"/>
      <path id="Trazado_147468" data-name="Trazado 147468" d="M11726.1,671.977h-4.865l4.056-8.977h4.866Z" transform="translate(-11702.473 -663)" fill="#b9beed"/>
    </g>
    <g id="Grupo_91758" data-name="Grupo 91758" transform="translate(11305.152 687.289)">
      <rect id="Rectángulo_34459" data-name="Rectángulo 34459" width="23.198" height="11.095" rx="5.547" transform="translate(0 0)" fill="#b9beed"/>
      <g id="Grupo_91757" data-name="Grupo 91757" transform="translate(3.53 3.404)">
        <circle id="Elipse_4816" data-name="Elipse 4816" cx="2.143" cy="2.143" r="2.143" fill="#f7fbfd"/>
        <circle id="Elipse_4817" data-name="Elipse 4817" cx="2.143" cy="2.143" r="2.143" transform="translate(5.926)" fill="#f7fbfd"/>
        <circle id="Elipse_4818" data-name="Elipse 4818" cx="2.143" cy="2.143" r="2.143" transform="translate(11.851)" fill="#f7fbfd"/>
      </g>
    </g>
    <g id="Grupo_91763" data-name="Grupo 91763" transform="translate(11454.733 657.197)">
      <g id="Grupo_91759" data-name="Grupo 91759" transform="translate(0 13.299)">
        <path id="Trazado_147469" data-name="Trazado 147469" d="M12189.329,959.141q-2.5-4.352-5.012-8.7a.435.435,0,0,0-.745,0q-2.511,4.408-5.02,8.815a.433.433,0,0,0,.746.438q2.509-4.407,5.019-8.812h-.745c1.67,2.935,3.341,5.8,5.012,8.7a.433.433,0,0,0,.745-.439Z" transform="translate(-12178.492 -950.227)" fill="#b9beed"/>
      </g>
      <g id="Grupo_91760" data-name="Grupo 91760" transform="translate(0 8.866)">
        <path id="Trazado_147470" data-name="Trazado 147470" d="M12189.329,933.461q-2.5-4.352-5.012-8.7a.435.435,0,0,0-.745,0q-2.511,4.408-5.02,8.815a.426.426,0,0,0,.746.411c1.673-2.938,3.345-5.905,5.019-8.84h-.745c1.67,2.935,3.341,5.828,5.012,8.729a.426.426,0,0,0,.745-.411Z" transform="translate(-12178.492 -924.547)" fill="#b9beed"/>
      </g>
      <g id="Grupo_91761" data-name="Grupo 91761" transform="translate(0 4.433)">
        <path id="Trazado_147471" data-name="Trazado 147471" d="M12189.329,907.782q-2.5-4.352-5.012-8.7a.435.435,0,0,0-.745,0q-2.511,4.407-5.02,8.815c-.277.485.471.953.746.47,1.673-2.939,3.345-5.847,5.019-8.781h-.745c1.67,2.762,3.341,5.769,5.012,8.671.278.482,1.024.014.745-.47Z" transform="translate(-12178.492 -898.868)" fill="#b9beed"/>
      </g>
      <g id="Grupo_91762" data-name="Grupo 91762">
        <path id="Trazado_147472" data-name="Trazado 147472" d="M12189.329,882.1q-2.5-4.352-5.012-8.7a.435.435,0,0,0-.745,0q-2.511,4.407-5.02,8.815a.434.434,0,0,0,.746.442q2.509-4.408,5.019-8.809h-.745c1.67,2.935,3.341,5.8,5.012,8.7a.433.433,0,0,0,.745-.442Z" transform="translate(-12178.492 -873.188)" fill="#b9beed"/>
      </g>
    </g>
  </g>
</svg>
