<svg xmlns="http://www.w3.org/2000/svg" width="410.37" height="437.283" viewBox="0 0 410.37 437.283">
  <g id="Grupo_88328" data-name="Grupo 88328" transform="translate(4826.124 751.548)">
    <g id="Grupo_88311" data-name="Grupo 88311" transform="translate(-4826.124 -751.548)">
      <path id="Trazado_145009" data-name="Trazado 145009" d="M-4825.672-418.357c6.754.055,13.663,1.548,20.376,2.287,2.091.23,4.2.26,6.282.594,2.294.369,4.51,1.1,6.766,1.653a45.8,45.8,0,0,0,8.317,1.214c2.3.126,4.532-.794,6.755-1.485q7.508-2.335,14.817-5.256a231.109,231.109,0,0,0,28.193-13.6c18.263-10.334,35.212-22.857,51.192-36.422q9.111-7.734,17.85-15.895c46.353-43.094,99.276-158.028,101.378-162.618.021-.046-.949-4.994-.992-4.967-2.025,1.272-47.664,26.141-58.272,31.919a2.444,2.444,0,0,1-3.352-1.036c-1.45-2.829-4.455-8.528-4.892-10.587-.088-.416.495.082.631-.32a2.428,2.428,0,0,1,.7-.928,83.633,83.633,0,0,1,15.459-11.043q6.576-3.872,13.374-7.353a22.542,22.542,0,0,0,5.592-3.737q2.839-2.609,5.687-5.206c7.572-6.909,15.187-13.773,22.772-20.667,13.977-12.7,27.854-25.523,41.227-38.864,2.44-2.434,5.188-5.043,9.682-2.823a10.58,10.58,0,0,1,5.047,5.681c0,1.19,1.21,3.068,1.651,4.187q.91,2.31,1.822,4.621,7.792,19.754,15.583,39.508,4.02,10.195,8.042,20.39l3.782,9.59a57.109,57.109,0,0,0,4.01,9.164,4.667,4.667,0,0,1,.537,1.074,4.515,4.515,0,0,1,.14,1.158,74.633,74.633,0,0,1-.141,7.471,7.985,7.985,0,0,1-.547,2.774,2.9,2.9,0,0,1-2.087,1.753c-2.194.321-4.531-1.448-6.108-2.744l-4.786-3.934-10.6-8.713-17.3-14.218c-.034-.028-.086-.016-.086.028-.061,3.6-2.035,106.117-28.219,168.7a360.315,360.315,0,0,1-17.539,36.153c-21.554,38.73-50.495,73.531-85.391,100.939a269.686,269.686,0,0,1-42.515,27.635c-6.112,3.161-12.448,5.652-18.691,8.5-2.713,1.238-6.471,3.512-8.15-.346a73.4,73.4,0,0,1-4.388-14.286c-.086-.436.333-.567.453-1a2.912,2.912,0,0,1,.651-1.046c1.265-1.5,2.643-2.932,3.76-4.539a19.517,19.517,0,0,0,3.054-6.276c.666-2.556.5-5.507.619-8.144q.4-8.756.375-17.523-.033-10.242-.655-20.468c-.336-5.594.049-7.211-5.432-6.286a159.739,159.739,0,0,1-57.642-.338c-10.627-2.079-21.484-6.293-31.314-10.721a47.655,47.655,0,0,1-9.75-5.409C-4819.689-401.5-4825.247-414.9-4825.672-418.357Z" transform="translate(4825.919 739.254)" fill="#bf5404"/>
      <path id="Trazado_145010" data-name="Trazado 145010" d="M-4481.074-639.083l-41.187-33.855c-.033-.032-.082-.016-.082.016-.065,3.61-2.042,106.122-28.221,168.72a359.5,359.5,0,0,1-17.54,36.142c-21.558,38.722-50.48,73.541-85.381,100.945a271.769,271.769,0,0,1-42.527,27.633c-6.109,3.168-12.461,5.651-18.7,8.509-2.564,1.16-6.042,3.691-7.464.457-1.078-2.433,1.307-9.946,1.633-12.738q1.2-10.657,1.748-21.362.513-9.75.473-19.516-.049-10.265-.653-20.48c-.049-.768-.082-1.47-.115-2.09-.229-3.887-.588-5-5.324-4.2-.033,0-.082.017-.114.017-53.225,8.95-103-13.473-101.565-21a1.952,1.952,0,0,1,.327-.816c1.323-2.107,11.465-1.568,14.143-1.96,5.177-.751,10.354-1.731,15.466-2.907,48.781-11.252,89.807-41.384,125.85-74.913,46.365-43.1,99.279-158.023,101.386-162.629.017-.016-.016-.065-.064-.032-2.3,1.437-33.17,20.757-58.206,32.14a3.256,3.256,0,0,1-3.642-5.275l99.851-99.606c2.14-2.139,4.507-4.409,8.084-3.429a8.382,8.382,0,0,1,1.584.6,10.525,10.525,0,0,1,5.063,5.7c11.351,28.776,31.307,79.371,40.306,102.2A3.274,3.274,0,0,1-4481.074-639.083Z" transform="translate(4826.123 751.547)" fill="#ef6c00"/>
    </g>
    <g id="Grupo_88312" data-name="Grupo 88312" transform="translate(-4686.448 -731.205)">
      <rect id="Rectángulo_34266" data-name="Rectángulo 34266" width="57.373" height="46.748" rx="6.285" transform="translate(0)" fill="#05dbf2"/>
      <path id="Trazado_145011" data-name="Trazado 145011" d="M-4510.992-633.077l6.308,9.54a1.183,1.183,0,0,0,2.044-.119,65.176,65.176,0,0,0,3.879-10" transform="translate(4544.082 677.947)" fill="#05dbf2"/>
    </g>
    <path id="Trazado_145012" data-name="Trazado 145012" d="M-4505.241-412.836c-3.462,9.179,2.025,19.189,2.074,28.988.049,9.489-5.178,20.594-10.681,28.123-20.178,27.644-51.308,49.384-83.551,60.475-3.636,1.251-7.37,2.339-10.683,4.293-9.179,5.415-13.4,16.246-16.98,26.283l-7.67,21.48c-.373,1.045-.774,1.773-1.845,1.648a90.435,90.435,0,0,1-.026-9.07q-.048-10.265-.653-20.48c-.048-.768-.081-1.47-.114-2.09-.228-3.887-.587-5-5.323-4.2-.033,0-.082.016-.114.016a273.612,273.612,0,0,1,55.527-81.428l2.956-2.613q14.232-26.286,28.433-52.555c4.8-8.885,9.62-17.8,15.744-25.837,6.4-8.427,13.457-15.629,24.529-16.168,5.438-.262,11.465.849,14.894,5.062a15.506,15.506,0,0,1,2.548,4.851,26.944,26.944,0,0,1,1.421,8.215,26.992,26.992,0,0,1-3.625,13.964C-4500.587-420.136-4503.706-416.886-4505.241-412.836Z" transform="translate(-83.719 -133.517)" fill="#494949" opacity="0.283" style="mix-blend-mode: multiply;isolation: isolate"/>
    <g id="Grupo_88313" data-name="Grupo 88313" transform="translate(-4673.608 -710.761)">
      <path id="Trazado_145013" data-name="Trazado 145013" d="M-4539.521-672.948a4.2,4.2,0,0,1-4.2,4.2,4.2,4.2,0,0,1-4.2-4.2,4.2,4.2,0,0,1,4.2-4.2A4.2,4.2,0,0,1-4539.521-672.948Z" transform="translate(4547.93 677.152)" fill="#fefefe"/>
      <circle id="Elipse_4712" data-name="Elipse 4712" cx="4.204" cy="4.204" r="4.204" transform="translate(11.643 0)" fill="#fefefe"/>
      <path id="Trazado_145014" data-name="Trazado 145014" d="M-4497.048-672.948a4.2,4.2,0,0,1-4.2,4.2,4.2,4.2,0,0,1-4.2-4.2,4.2,4.2,0,0,1,4.2-4.2A4.2,4.2,0,0,1-4497.048-672.948Z" transform="translate(4528.742 677.152)" fill="#fefefe"/>
    </g>
    <g id="Grupo_88314" data-name="Grupo 88314" transform="translate(-4558.644 -586.281)">
      <ellipse id="Elipse_4713" data-name="Elipse 4713" cx="47.984" cy="45.875" rx="47.984" ry="45.875" transform="translate(0)" fill="#dad6f7"/>
      <ellipse id="Elipse_4714" data-name="Elipse 4714" cx="37.117" cy="35.486" rx="37.117" ry="35.486" transform="translate(10.867 10.389)" fill="#fefefe"/>
      <ellipse id="Elipse_4715" data-name="Elipse 4715" cx="26.092" cy="24.946" rx="26.092" ry="24.946" transform="translate(21.892 20.93)" fill="#dad6f7"/>
      <ellipse id="Elipse_4716" data-name="Elipse 4716" cx="15.097" cy="14.434" rx="15.097" ry="14.434" transform="translate(32.886 31.442)" fill="#fefefe"/>
      <ellipse id="Elipse_4717" data-name="Elipse 4717" cx="7.582" cy="7.249" rx="7.582" ry="7.249" transform="translate(40.401 38.626)" fill="#dad6f7"/>
    </g>
    <path id="Trazado_145015" data-name="Trazado 145015" d="M-4096.959-416.841c-2.065-1.932-5.467-1.764-8.216.191-1.062-3.2-3.706-5.349-6.514-5.012-3.327.4-5.614,4.128-5.109,8.327a20.756,20.756,0,0,0,6.39,12.2c1.013-.066,7.564-1.38,11.724-5.117a9.765,9.765,0,0,0,.923-.857C-4094.872-410.193-4094.513-414.553-4096.959-416.841Z" transform="translate(-320.418 -149.015)" fill="#f24b57"/>
    <path id="Trazado_145016" data-name="Trazado 145016" d="M-4240.13-214.877c-.486-2.189-2.786-3.6-5.461-3.556.741-2.57-.027-5.159-2.016-6.2-2.354-1.229-5.521.186-7.071,3.158a16.454,16.454,0,0,0-1.286,10.846c.692.411,5.566,2.485,9.96,1.9a7.632,7.632,0,0,0,.988-.147C-4241.743-209.593-4239.556-212.284-4240.13-214.877Z" transform="translate(-257.404 -237.845)" fill="#f24b57"/>
    <path id="Trazado_145017" data-name="Trazado 145017" d="M-4653.178-651.215c-2.825-.131-5.305,2.2-6.129,5.475-2.885-1.749-6.291-1.667-8.209.412-2.271,2.462-1.594,6.783,1.515,9.651a20.75,20.75,0,0,0,12.78,5.143c.728-.708,4.86-5.957,5.6-11.5a9.471,9.471,0,0,0,.146-1.251C-4647.277-647.509-4649.832-651.06-4653.178-651.215Z" transform="translate(-71.047 -45.324)" fill="#f24b57"/>
    <path id="Trazado_145018" data-name="Trazado 145018" d="M-4732.054-461.312c-2.629,1.043-3.929,4.191-3.334,7.511-3.35-.407-6.419,1.068-7.313,3.752-1.058,3.179,1.336,6.839,5.35,8.175a20.754,20.754,0,0,0,13.764-.569c.373-.945,1.981-7.43.378-12.786a9.719,9.719,0,0,0-.381-1.2C-4725.15-460.362-4728.939-462.548-4732.054-461.312Z" transform="translate(-37.575 -130.963)" fill="#f24b57"/>
    <path id="Trazado_145019" data-name="Trazado 145019" d="M-4691.8-401.222c-2.024.117-3.618,1.965-3.96,4.358-2.187-1.032-4.607-.72-5.819.9-1.436,1.924-.631,4.953,1.8,6.766a14.868,14.868,0,0,0,9.491,2.713,17.68,17.68,0,0,0,3.136-8.612,6.939,6.939,0,0,0,.012-.9C-4687.317-399.02-4689.4-401.361-4691.8-401.222Z" transform="translate(-55.944 -158.263)" fill="#f24b57"/>
    <g id="Grupo_88317" data-name="Grupo 88317" transform="translate(-4784.63 -619.012)">
      <path id="Trazado_145020" data-name="Trazado 145020" d="M-4530.826-451.352a13.424,13.424,0,0,0,1.317-1.273c1.063-1.184,2.482-1.939,3.555-3.168,1.256-1.439,2.8-2.577,3.534-4.408a8.712,8.712,0,0,0,.071-5.568,8.176,8.176,0,0,0-2.078-3.766,4.519,4.519,0,0,0-3.982-1.271,4.678,4.678,0,0,0-1.756.85,8.767,8.767,0,0,0-3.086,5.308c-.4,1.92.117,4.032-.293,5.876-.327,1.467-1.7,3.048-2.463,4.372" transform="translate(4653.565 492.222)" fill="#f4be90"/>
      <path id="Trazado_145021" data-name="Trazado 145021" d="M-4603.612-285.118l2.28,2.33c-8.81,8.311-26.578,7.987-37.518,4.635-.424-.124-1.4-.486-2.779-1.022-9.133-3.476-35.972-14.366-35.972-15.737.1,19.874-5.52,39.274-11.078,58.351-1.271,4.373-3,16.21-9.046,13.008a8.209,8.209,0,0,1-1.619-1.134c-2.5-2.18-2.879-5.881-3.066-9.2q-1.961-36.577-.673-73.227c.125-3.639.375-7.539,2.592-10.429,4.4-5.694,13.22-4.112,20.173-2.243,18.366,4.909,37.056,6.218,55.622,9.619,5.744,1.047,11.7.971,17.333,2.5s11.239,5.221,12.746,10.865S-4597.856-284.109-4603.612-285.118Z" transform="translate(4729.275 424.732)" fill="#43496d"/>
      <path id="Trazado_145022" data-name="Trazado 145022" d="M-4627.339-272.983q-3.272,2.527-6.76,4.754a3.344,3.344,0,0,1-3.006.289c-7.475-2.894-22.223-8.876-29.745-12.434a3.353,3.353,0,0,0-4.771,2.917c-.841,17.918-5.924,35.46-10.958,52.736-.265.911-.549,2.146-.889,3.5-1.057,4.217-7.384,2.8-6.549-1.469.157-.8.316-1.6.473-2.394q6.653-33.375,10.56-67.231a3.322,3.322,0,0,1,3.835-2.93,49.02,49.02,0,0,1,10.351,3.612,369.7,369.7,0,0,0,36.4,12.769A3.363,3.363,0,0,1-4627.339-272.983Z" transform="translate(4723.175 412.892)" fill="#15233a" opacity="0.356" style="mix-blend-mode: multiply;isolation: isolate"/>
      <g id="Grupo_88315" data-name="Grupo 88315" transform="translate(40.056 111.711)">
        <path id="Trazado_145023" data-name="Trazado 145023" d="M-4568.623-268.621a59.636,59.636,0,0,1-15.366,12.478,187.738,187.738,0,0,1-36.445,16.4c-10.925,3.543-15.074,11.247-19.087,21.383-5.682,14.353-12.339,28.4-18.493,42.557-3.829,8.809-9.757,19.063-19.361,18.951,3.3-18.792,7.435-37.425,11.819-55.991,3.7-15.687,5.141-37.354,15.9-50.075,7.043-8.326,16.925-13.78,26.393-18.874,9.515-5.119,18.555-10.943,27.8-16.284,6.706-3.873,13.8-7.857,21.543-7.953,13.7-.169,15.777,13.155,12.734,23.885A36.148,36.148,0,0,1-4568.623-268.621Z" transform="translate(4677.375 306.032)" fill="#43496d"/>
      </g>
      <path id="Trazado_145024" data-name="Trazado 145024" d="M-4493.752-389.078c-.229,1.078-.474,2.172-.751,3.282a261.289,261.289,0,0,1-13.441,38.82,42.163,42.163,0,0,1-3.772,6.974,2.792,2.792,0,0,1-1.143,1.078c-.637.262-1.339-.082-2.025-.147q-6.051-.612-11.236-1.323c-3.9-.539-7.447-1.11-10.7-1.714-1.322-.245-2.58-.49-3.8-.752-17.687-3.691-25.1-8.215-28.155-10.974-.1-.1-.2-.18-.294-.278a6.884,6.884,0,0,1-1.731-2.254s3.626-6.157,5.374-9.031c4.768-7.774,8.835-15.842,12.967-23.991,2.6-5.1,4.965-10.305,7.562-15.384,2.466-4.834,7.431-9.26,11.3-13.049a18.236,18.236,0,0,1,3.854-3.054,18.671,18.671,0,0,1,7.333-1.617,26.349,26.349,0,0,1,7.937.147,22.13,22.13,0,0,1,2.646.784,44.738,44.738,0,0,1,9.44,4.05,23.692,23.692,0,0,1,9.407,11.122C-4491.563-402.895-4492.151-396.477-4493.752-389.078Z" transform="translate(4669.285 470.459)" fill="#540cc7"/>
      <path id="Trazado_145025" data-name="Trazado 145025" d="M-4456.931-361.356c-.228,1.078-.474,2.172-.751,3.282a261.4,261.4,0,0,1-13.441,38.82,42.2,42.2,0,0,1-3.772,6.973,2.791,2.791,0,0,1-1.143,1.078c-.638.262-1.34-.082-2.026-.147q-6.051-.612-11.236-1.323C-4465.423-335.765-4470.421-346.641-4456.931-361.356Z" transform="translate(4632.464 442.737)" fill="#0090c6" opacity="0.277" style="mix-blend-mode: multiply;isolation: isolate"/>
      <path id="Trazado_145026" data-name="Trazado 145026" d="M-4529.061-416.918a2.533,2.533,0,0,0,.933-1.042,2.537,2.537,0,0,0-.206-1.714c-1.213-3.3,6.082-14.353,2.58-14.09-12.827.965-24.61,8.7-34.012,16.879,4.251-4.885,6.975-10.852,9.121-16.906.988-2.786,1.662-5.663,3.144-8.182,1.455-2.473-.624-3.487-2.63-4.826a4.183,4.183,0,0,0-1.221-.625c-2.414-.64-6.441,3.315-8.181,4.731a52.046,52.046,0,0,0-6.987,6.887,51.475,51.475,0,0,0-9.422,16.763c-1.758,5.276-4.4,14.015,2.016,16.982a15.154,15.154,0,0,0,6.351,1.127,36.329,36.329,0,0,0,7.841-.839c1.93-.422,3.821-1,5.709-1.579l4.61-1.412a44.46,44.46,0,0,0,5.9-2.116,39.708,39.708,0,0,0,7.517-4.967C-4533.767-413.6-4531.337-415.181-4529.061-416.918Z" transform="translate(4672.538 481.651)" fill="#540cc7"/>
      <path id="Trazado_145027" data-name="Trazado 145027" d="M-4454.58-407.613a66.9,66.9,0,0,1-1.452,6.85c-1.033,2.723-2.476,5.357-3.7,8a20.459,20.459,0,0,0-1.885,9.131c.1,1.957,1.236,4.162,1.806,6.034q.983,3.236,1.894,6.494a34.076,34.076,0,0,1-1.392,18.991A178.557,178.557,0,0,1-4472-325.893a14.6,14.6,0,0,0-1.9,4.2c-1,4.7,3.041,4.51,6,2.581a78.313,78.313,0,0,0,14.071-12.445,73.434,73.434,0,0,0,13.821-20.41,36.38,36.38,0,0,0,3.2-10.53C-4433.578-393.84-4451.824-404.987-4454.58-407.613Z" transform="translate(4625.58 463.634)" fill="#540cc7"/>
      <g id="Grupo_88316" data-name="Grupo 88316" transform="translate(153.633 30.767)">
        <path id="Trazado_145028" data-name="Trazado 145028" d="M-4452.845-445.77a158.9,158.9,0,0,0-5.079,15.155c-2.172,7.725-14.192,4.426-12.02-3.315.311-1.127.638-2.221.98-3.348a4.73,4.73,0,0,1,.13-.457c.654-2.074,1.323-4.116,2.058-6.157.049-.147.114-.31.164-.457.555-1.584,1.144-3.168,1.764-4.736,1.225-3.152,4.132-5.324,7.66-4.36C-4454.184-452.613-4451.62-448.906-4452.845-445.77Z" transform="translate(4470.206 453.677)" fill="#f4be90"/>
      </g>
      <path id="Trazado_145029" data-name="Trazado 145029" d="M-4455.676-436.458a12.7,12.7,0,0,1-7.448,6.091,18.3,18.3,0,0,1-4.817.849c.032-.147.082-.31.13-.457.653-2.074,1.323-4.116,2.058-6.157a16.893,16.893,0,0,0,6.467.016A12.89,12.89,0,0,1-4455.676-436.458Z" transform="translate(4622.815 476.683)" fill="#f4be90" style="mix-blend-mode: multiply;isolation: isolate"/>
      <path id="Trazado_145030" data-name="Trazado 145030" d="M-4712.641-148.061a3,3,0,0,0,.479-.459c.984-1.178.947-2.87.918-4.405a60.1,60.1,0,0,1,.294-7.164c.124-1.221,1.336-4.435-.7-4.426l-11.006.048a.742.742,0,0,0-.347.058c-.208.11-.261.379-.294.612a8.834,8.834,0,0,1-.839,3.329c-.71,1.014-2.529,1.474-3.661,1.7a26.214,26.214,0,0,1-4.619.323c-3.889.068-7.771.327-11.652.586a9.091,9.091,0,0,0-4.71,1.193c-2.1,1.473-2.239,3.725-.276,5.213,2.861,2.168,7.229,2.532,10.669,2.876,3.9.389,7.819.58,11.727.823q3.886.242,7.777.449C-4717.029-147.212-4714.258-146.823-4712.641-148.061Z" transform="translate(4750.438 353.811)" fill="#252935"/>
      <path id="Trazado_145031" data-name="Trazado 145031" d="M-4684.083-46a3.012,3.012,0,0,0,.479-.458c1.49-1.786,1.333-4.873,1.634-7.04q.58-4.178,1.439-8.313c-4.605.681-9.293-1.311-13.9-.651a8.748,8.748,0,0,1-1.593,4.155c-.837,1.146-1.839,1.327-3.209,1.6a26.257,26.257,0,0,1-4.619.323c-3.888.068-7.771.327-11.651.586a9.091,9.091,0,0,0-4.71,1.194c-2.1,1.473-2.239,3.725-.277,5.213,2.862,2.168,7.229,2.532,10.67,2.876,3.9.389,7.82.58,11.727.823q3.887.242,7.776.449C-4688.471-45.147-4685.7-44.758-4684.083-46Z" transform="translate(4737.536 307.766)" fill="#252935"/>
      <path id="Trazado_145032" data-name="Trazado 145032" d="M-4475.849-254.1a3.529,3.529,0,0,0-2.324-1.283c-2.3-.2-4.983,2.175-6.524,3.663a16.047,16.047,0,0,0-4.214,6.481c-.709,2.2-1.516,6.639.616,8.333,2.615,2.077,7.169-.838,9.113-2.672,3.333-3.145,5.945-8.437,4.216-13.031A4.968,4.968,0,0,0-4475.849-254.1Z" transform="translate(4632.631 394.87)" fill="#f4be90"/>
      <path id="Trazado_145033" data-name="Trazado 145033" d="M-4469.976-486.715c.913,1.246.555,2.808.417,4.214a33.391,33.391,0,0,1-.44,4.283,15.219,15.219,0,0,1-4.391,7.683c-1.116,1.042-2.75,1.947-4.1,1.238-1.219-.638-1.517-2.234-1.545-3.609a22.231,22.231,0,0,1,3.183-11.876c.956-1.581,2.362-3.176,4.208-3.235A3.242,3.242,0,0,1-4469.976-486.715Z" transform="translate(4628.283 499.958)" fill="#563624"/>
      <path id="Trazado_145034" data-name="Trazado 145034" d="M-4466.125-483.444c-5.085-.339-9.462,3.766-11.714,8.411a18.765,18.765,0,0,0-1.972,10.214,12.718,12.718,0,0,0,5.035,8.965c3.137,2.184,7.222,2.433,10.87,1.585a17.012,17.012,0,0,0,6.079-2.721q1.029-.741,2.086-1.441c.472-.312.88-.926,1.4-1.1a4.692,4.692,0,0,1,1.026-.161,5.64,5.64,0,0,0,2.494-.912,3.5,3.5,0,0,0,1.327-1.493,4.543,4.543,0,0,0,.276-1.293,35.456,35.456,0,0,1,.446-4.432c.416-1.809.66-3.908-.474-5.388-.889-1.159-2.314-1.568-3.417-2.441-1.215-.96-1.417-2.582-2.348-3.839-2.084-2.816-5.974-4.463-9.053-3.012" transform="translate(4628.223 497.901)" fill="#f4be90"/>
      <path id="Trazado_145035" data-name="Trazado 145035" d="M-4454.04-501.768a8.994,8.994,0,0,0-3.922-6.716,8.3,8.3,0,0,0-8.83-.084c-5.645,3.651-3.513,11.822,1.323,15.132,4.407,3.016,13.573.879,15.84,6.988,1.2,3.237-1.539,6.667-1.34,10.112.971-.082,1.605-1.012,2.191-1.791s1.521-1.562,2.431-1.214a2.237,2.237,0,0,1,1.132,1.88,5.451,5.451,0,0,1-.277,2.994,3.059,3.059,0,0,1-2.251,1.857c-.518.075-1.044-.018-1.567.007a4.8,4.8,0,0,0-3.693,2.5c-.812,1.358-2.071,4.06.324,2.84a22.18,22.18,0,0,0,3.65-2.5,23.714,23.714,0,0,0,7.519-10.06,14.557,14.557,0,0,0,.333-9.214,5.653,5.653,0,0,0-1.324-2.477,2.633,2.633,0,0,0-2.594-.737,19.74,19.74,0,0,0-.513-4.707,6.634,6.634,0,0,0-2.585-3.857,5.06,5.06,0,0,0-5.831.334A8.588,8.588,0,0,0-4454.04-501.768Z" transform="translate(4623.82 509.798)" fill="#563624"/>
    </g>
    <g id="Grupo_88318" data-name="Grupo 88318" transform="translate(-4700.457 -646.301)">
      <path id="Trazado_145036" data-name="Trazado 145036" d="M-4522.03-475.438a2.41,2.41,0,0,0-.547.92,90.228,90.228,0,0,0-4.229,13.343c-.279,1.2-.478,2.619.368,3.511a2.553,2.553,0,0,0,2.857.372,6.382,6.382,0,0,0,2.27-2.03c3.488-4.479,5.563-9.91,6.923-15.421" transform="translate(4565.344 521.564)" fill="#f24b57"/>
      <path id="Trazado_145037" data-name="Trazado 145037" d="M-4524.759-509.766c-.8,3.169-2.776,6.092-5.977,6.614a9.412,9.412,0,0,1-4.05-.376c-2.76-.784-5.6-2.335-7.954-3.038a45.719,45.719,0,0,0-5.7-1.355,54.414,54.414,0,0,0-5.928-.686c-7.872-.49-15.743.376-23.615.474l18.03-42.445a108.406,108.406,0,0,0,13.375,19.4,50.068,50.068,0,0,0,4.638,4.475c1.029.882,2.106,1.731,3.185,2.564a47.714,47.714,0,0,0,8.492,5.765c.523.245,1.062.49,1.584.752a8.662,8.662,0,0,1,2.71,1.911A6.564,6.564,0,0,1-4524.759-509.766Z" transform="translate(4588.356 555.51)" fill="#f54b56"/>
      <path id="Trazado_145038" data-name="Trazado 145038" d="M-4566.337-538.856a38.638,38.638,0,0,1-1.726,7.42,38.571,38.571,0,0,1-5.636,10.955c-4.625,6.212-10.515,9.47-15.482,7.821-7.4-2.474-9.923-14.864-5.626-27.712,4.275-12.828,13.741-21.23,21.118-18.776C-4567.757-557.152-4564.97-548.757-4566.337-538.856Z" transform="translate(4596.903 559.574)" fill="#505982"/>
      <path id="Trazado_145039" data-name="Trazado 145039" d="M-4566.7-535.624c-.049.343-.1.7-.164,1.045a4.71,4.71,0,0,1-.082.474,32.259,32.259,0,0,1-1.225,4.834,34.557,34.557,0,0,1-2.613,5.944c-.2.343-.392.686-.588,1.013a25.8,25.8,0,0,1-1.616,2.417c-3.969,5.324-9,8.117-13.262,6.7-6.319-2.107-8.475-12.722-4.8-23.73,3.658-10.975,11.758-18.161,18.063-16.07C-4567.906-551.286-4565.521-544.1-4566.7-535.624Z" transform="translate(4595.068 556.768)" fill="#0f0140"/>
      <path id="Trazado_145040" data-name="Trazado 145040" d="M-4564.017-521.318a13.2,13.2,0,0,1-.589,2.533,13.2,13.2,0,0,1-1.923,3.741c-1.577,2.121-3.587,3.234-5.283,2.67-2.524-.845-3.385-5.076-1.92-9.462s4.689-7.249,7.206-6.411C-4564.5-527.565-4563.55-524.7-4564.017-521.318Z" transform="translate(4586.758 545.487)" fill="#ffb200"/>
      <path id="Trazado_145041" data-name="Trazado 145041" d="M-4489.163-482.617c-.8,3.168-2.776,6.091-5.977,6.614a9.4,9.4,0,0,1-4.051-.376c3.233-2.695,5.928-7.921,6.108-14.094a8.669,8.669,0,0,1,2.711,1.911A6.566,6.566,0,0,1-4489.163-482.617Z" transform="translate(4552.76 528.356)" fill="#252935"/>
    </g>
    <path id="Trazado_145042" data-name="Trazado 145042" d="M-4511.909-371c-3.3,17.115-15.058,31.21-27.045,43.948-17.687-3.691-25.1-8.215-28.156-10.975l.017-.049c8.395-10.583,16.805-21.2,24.056-32.6,3.429-5.389,6.778-11.138,12.151-14.584s13.506-3.593,17.327,1.519C-4510.913-380.211-4511.06-375.328-4511.909-371Z" transform="translate(-117.014 -164.362)" fill="#ffb200" opacity="0.134" style="mix-blend-mode: screen;isolation: isolate"/>
    <g id="Grupo_88319" data-name="Grupo 88319" transform="translate(-4570.184 -539.96)">
      <path id="Trazado_145043" data-name="Trazado 145043" d="M-4351.065-314.382l54.375-51.221" transform="translate(4355.568 365.603)" fill="none" stroke="#2c2c2d" stroke-miterlimit="10" stroke-width="2"/>
      <path id="Trazado_145044" data-name="Trazado 145044" d="M-4359.279-271.2q2.267-.554,4.556-1-.259,2.254-.518,4.508" transform="translate(4359.279 323.406)" fill="none" stroke="#2c2c2d" stroke-miterlimit="10" stroke-width="2"/>
    </g>
    <path id="Trazado_145045" data-name="Trazado 145045" d="M-4526.087-459.568a6.659,6.659,0,0,0,3.893-4.22c.738-2.039.671-4.118-1.289-5.339a4.171,4.171,0,0,0-2.153-.76c-1.357,0-2.461,1.072-3.285,2.151a12.672,12.672,0,0,0-1.736,2.98c-.34.857-.868,2.281-.479,3.193C-4530.374-459.769-4527.807-459.005-4526.087-459.568Z" transform="translate(-133.203 -127.245)" fill="#f4be90"/>
    <g id="Grupo_88320" data-name="Grupo 88320" transform="translate(-4707.216 -680.158)">
      <path id="Trazado_145046" data-name="Trazado 145046" d="M-4608.126-618.933a.817.817,0,0,1-.763-.527l-.29-.765a.815.815,0,0,1,.477-1.052.816.816,0,0,1,1.051.476l.288.762a.815.815,0,0,1-.474,1.053A.8.8,0,0,1-4608.126-618.933Z" transform="translate(4609.232 621.331)" fill="#0f0140"/>
      <path id="Trazado_145047" data-name="Trazado 145047" d="M-4592.52-582.473a.816.816,0,0,1-.732-.453l-.782-1.585a.816.816,0,0,1,.374-1.092.812.812,0,0,1,1.093.373l.777,1.578a.816.816,0,0,1-.367,1.095A.806.806,0,0,1-4592.52-582.473Zm-4.551-9.549a.815.815,0,0,1-.743-.478l-.73-1.61a.817.817,0,0,1,.41-1.079.816.816,0,0,1,1.08.409l.726,1.6a.816.816,0,0,1-.4,1.082A.8.8,0,0,1-4597.07-592.022Zm-4.235-9.694a.818.818,0,0,1-.754-.5l-.676-1.634a.817.817,0,0,1,.445-1.066.814.814,0,0,1,1.065.445l.673,1.624a.817.817,0,0,1-.438,1.068A.812.812,0,0,1-4601.306-601.716Z" transform="translate(4606.324 613.944)" fill="#0f0140"/>
      <path id="Trazado_145048" data-name="Trazado 145048" d="M-4576.985-550.238a.815.815,0,0,1-.721-.431l-.385-.723a.815.815,0,0,1,.337-1.1.815.815,0,0,1,1.1.337l.383.719a.817.817,0,0,1-.335,1.105A.814.814,0,0,1-4576.985-550.238Z" transform="translate(4595.207 590.277)" fill="#0f0140"/>
    </g>
    <g id="Grupo_88321" data-name="Grupo 88321" transform="translate(-4764.397 -666.882)">
      <path id="Trazado_145049" data-name="Trazado 145049" d="M-4712.11-594.933a.811.811,0,0,1-.548-.212l-.607-.549a.817.817,0,0,1-.054-1.153.818.818,0,0,1,1.153-.055l.6.548a.817.817,0,0,1,.058,1.154A.818.818,0,0,1-4712.11-594.933Z" transform="translate(4713.531 597.114)" fill="#0f0140"/>
      <path id="Trazado_145050" data-name="Trazado 145050" d="M-4652.749-553.439a.8.8,0,0,1-.362-.086l-1.4-.7a.817.817,0,0,1-.36-1.1.815.815,0,0,1,1.1-.359l1.388.7a.816.816,0,0,1,.369,1.094A.817.817,0,0,1-4652.749-553.439Zm-8.3-4.34a.818.818,0,0,1-.393-.1l-1.371-.757a.816.816,0,0,1-.316-1.11.816.816,0,0,1,1.11-.317l1.363.752a.817.817,0,0,1,.323,1.109A.815.815,0,0,1-4661.048-557.779Zm-8.126-4.658a.814.814,0,0,1-.419-.116l-1.34-.81a.815.815,0,0,1-.273-1.122.815.815,0,0,1,1.122-.274l1.333.8a.818.818,0,0,1,.28,1.12A.817.817,0,0,1-4669.174-562.437Zm-7.939-4.971a.808.808,0,0,1-.445-.133l-1.308-.86a.817.817,0,0,1-.231-1.132.815.815,0,0,1,1.132-.231l1.3.856a.817.817,0,0,1,.237,1.13A.817.817,0,0,1-4677.114-567.409Zm-7.74-5.272a.813.813,0,0,1-.473-.151l-1.274-.912a.816.816,0,0,1-.186-1.139.818.818,0,0,1,1.139-.186l1.267.9a.818.818,0,0,1,.193,1.139A.818.818,0,0,1-4684.854-572.681Zm-7.529-5.571a.814.814,0,0,1-.5-.169l-1.239-.961a.816.816,0,0,1-.14-1.146.815.815,0,0,1,1.146-.141l1.229.953a.817.817,0,0,1,.149,1.145A.816.816,0,0,1-4692.383-578.252Zm-7.31-5.858a.814.814,0,0,1-.523-.19l-1.2-1.007a.816.816,0,0,1-.1-1.151.815.815,0,0,1,1.15-.1l1.192,1a.816.816,0,0,1,.1,1.15A.814.814,0,0,1-4699.692-584.111Z" transform="translate(4708.188 592.432)" fill="#0f0140"/>
      <path id="Trazado_145051" data-name="Trazado 145051" d="M-4599.484-520.853a.812.812,0,0,1-.337-.073l-.746-.34a.817.817,0,0,1-.4-1.082.816.816,0,0,1,1.083-.4l.741.337a.818.818,0,0,1,.406,1.082A.816.816,0,0,1-4599.484-520.853Z" transform="translate(4662.713 563.553)" fill="#0f0140"/>
    </g>
    <g id="Grupo_88322" data-name="Grupo 88322" transform="translate(-4789.843 -641.916)">
      <path id="Trazado_145052" data-name="Trazado 145052" d="M-4758.4-549.593a.809.809,0,0,1-.349-.078l-.74-.353a.817.817,0,0,1-.379-1.091.818.818,0,0,1,1.09-.379l.727.347a.815.815,0,0,1,.389,1.087A.815.815,0,0,1-4758.4-549.593Z" transform="translate(4759.947 551.576)" fill="#0f0140"/>
      <path id="Trazado_145053" data-name="Trazado 145053" d="M-4672.424-525.256a.794.794,0,0,1-.135-.011l-1.686-.28a.816.816,0,0,1-.67-.94.816.816,0,0,1,.941-.671l1.682.28a.817.817,0,0,1,.672.939A.817.817,0,0,1-4672.424-525.256Zm-10.089-1.771a.894.894,0,0,1-.151-.014l-1.68-.317a.816.816,0,0,1-.649-.954.817.817,0,0,1,.955-.65l1.674.315a.818.818,0,0,1,.653.953A.818.818,0,0,1-4682.514-527.026Zm-10.048-1.98a.818.818,0,0,1-.166-.017l-1.675-.35a.817.817,0,0,1-.63-.968.813.813,0,0,1,.968-.63l1.667.349a.816.816,0,0,1,.635.965A.816.816,0,0,1-4692.562-529.007Zm-10.006-2.185a.817.817,0,0,1-.184-.02l-1.67-.387a.817.817,0,0,1-.609-.981.818.818,0,0,1,.981-.609l1.664.385a.816.816,0,0,1,.612.979A.815.815,0,0,1-4702.568-531.192Zm-9.962-2.406a.8.8,0,0,1-.2-.026l-1.654-.424a.816.816,0,0,1-.586-.995.812.812,0,0,1,1-.586l1.648.423a.817.817,0,0,1,.59.993A.817.817,0,0,1-4712.53-533.6Zm-9.886-2.654a.834.834,0,0,1-.221-.03l-1.647-.471a.818.818,0,0,1-.557-1.012.817.817,0,0,1,1.012-.558l1.635.468a.818.818,0,0,1,.565,1.008A.818.818,0,0,1-4722.416-536.252Zm-9.8-2.961a.84.84,0,0,1-.251-.039l-1.627-.532a.816.816,0,0,1-.519-1.032.815.815,0,0,1,1.031-.518l1.617.527a.816.816,0,0,1,.526,1.028A.816.816,0,0,1-4732.221-539.214Zm-9.671-3.368a.818.818,0,0,1-.288-.053q-.809-.305-1.6-.615a.817.817,0,0,1-.465-1.057.815.815,0,0,1,1.058-.464q.784.306,1.585.609a.817.817,0,0,1,.475,1.053A.815.815,0,0,1-4741.892-542.582Z" transform="translate(4752.879 548.527)" fill="#0f0140"/>
      <path id="Trazado_145054" data-name="Trazado 145054" d="M-4597.708-508.006a.812.812,0,0,1-.115-.008l-.8-.113a.816.816,0,0,1-.694-.923.817.817,0,0,1,.923-.694l.8.113a.817.817,0,0,1,.7.923A.817.817,0,0,1-4597.708-508.006Z" transform="translate(4687.385 532.681)" fill="#0f0140"/>
    </g>
    <g id="Grupo_88323" data-name="Grupo 88323" transform="translate(-4752.909 -611.234)">
      <path id="Trazado_145055" data-name="Trazado 145055" d="M-4690.942-492.6h-.044l-.816-.044a.818.818,0,0,1-.772-.859.818.818,0,0,1,.858-.772l.816.044a.817.817,0,0,1,.772.859A.817.817,0,0,1-4690.942-492.6Z" transform="translate(4692.576 495.009)" fill="#0f0140"/>
      <path id="Trazado_145056" data-name="Trazado 145056" d="M-4656.5-491.558a.817.817,0,0,1-.816-.8.817.817,0,0,1,.8-.83l1.592-.033a.836.836,0,0,1,.837.8.817.817,0,0,1-.8.838l-1.606.033Zm-8-.01h-.015l-1.6-.033a.817.817,0,0,1-.8-.836.828.828,0,0,1,.835-.8l1.6.033a.816.816,0,0,1,.8.831A.817.817,0,0,1-4664.5-491.568Zm-9.595-.31h-.038l-1.6-.072a.817.817,0,0,1-.778-.854.831.831,0,0,1,.854-.779l1.6.073a.816.816,0,0,1,.779.852A.817.817,0,0,1-4674.1-491.878Zm27.184-.1a.815.815,0,0,1-.813-.757.814.814,0,0,1,.754-.874q.792-.059,1.585-.126a.8.8,0,0,1,.883.744.817.817,0,0,1-.744.883q-.8.069-1.6.128Z" transform="translate(4685.32 494.765)" fill="#0f0140"/>
      <path id="Trazado_145057" data-name="Trazado 145057" d="M-4605.781-493.872a.817.817,0,0,1-.807-.7.817.817,0,0,1,.688-.928l.746-.113.306,1.605-.812.124A.9.9,0,0,1-4605.781-493.872Z" transform="translate(4653.733 495.61)" fill="#0f0140"/>
    </g>
    <g id="Grupo_88327" data-name="Grupo 88327" transform="translate(-4732.637 -584.142)">
      <g id="Grupo_88324" data-name="Grupo 88324" transform="translate(0 0)">
        <path id="Trazado_145058" data-name="Trazado 145058" d="M-4640.851-417.63c-8.365-5.726-10.561-15.472-5.774-24.348,1.966-3.645-4.012-6.038-5.96-2.425a24.235,24.235,0,0,0,7.876,31.925c3.406,2.332,7.289-2.8,3.858-5.151Z" transform="translate(4655.599 446.193)" fill="#ff931e"/>
      </g>
      <g id="Grupo_88325" data-name="Grupo 88325" transform="translate(11.555 4.355)">
        <path id="Trazado_145059" data-name="Trazado 145059" d="M-4624.111-422.464c-2.9-1.92-5.444-7.206-3.482-10.516,2.088-3.523-3.036-7.427-5.151-3.858-3.723,6.28-1.345,15.479,4.776,19.525,3.438,2.272,7.326-2.859,3.858-5.152Z" transform="translate(4634.522 438.25)" fill="#ff931e"/>
      </g>
      <g id="Grupo_88326" data-name="Grupo 88326" transform="translate(22.278 9.57)">
        <path id="Trazado_145060" data-name="Trazado 145060" d="M-4610.562-422.533c3.815-1.608,1.322-7.541-2.5-5.93s-1.322,7.541,2.5,5.93Z" transform="translate(4614.964 428.737)" fill="#ff931e"/>
      </g>
    </g>
  </g>
</svg>
