<svg xmlns="http://www.w3.org/2000/svg" width="411.029" height="394.836" viewBox="0 0 411.029 394.836">
  <g id="Grupo_92269" data-name="Grupo 92269" transform="translate(-326.178 -1431.631)">
    <g id="Filter-rafiki" transform="translate(337.89 1410.227)">
      <g id="freepik--Filter--inject-14">
        <circle id="Elipse_4861" data-name="Elipse 4861" cx="33.6" cy="33.6" r="33.6" transform="matrix(0.149, -0.989, 0.989, 0.149, 199.823, 156.341)" fill="#7e57c2"/>
        <path id="Trazado_147861" data-name="Trazado 147861" d="M264.2,137.4a27.732,27.732,0,1,1-16.86-35.41A27.732,27.732,0,0,1,264.2,137.4Z" fill="#fff"/>
        <path id="Trazado_147862" data-name="Trazado 147862" d="M256.62,148.73a27.73,27.73,0,0,1-46-16.31A43.9,43.9,0,0,1,256.62,148.73Z" fill="#7e57c2" opacity="0.4"/>
        <path id="Trazado_147863" data-name="Trazado 147863" d="M252.88,123.32a12.34,12.34,0,1,1-.48-9.448A12.35,12.35,0,0,1,252.88,123.32Z" fill="#7e57c2" opacity="0.4"/>
        <circle id="Elipse_4862" data-name="Elipse 4862" cx="28.35" cy="28.35" r="28.35" transform="translate(85.798 107.245) rotate(-0.17)" fill="#7e57c2"/>
        <circle id="Elipse_4863" data-name="Elipse 4863" cx="28.35" cy="28.35" r="28.35" transform="translate(85.798 107.245) rotate(-0.17)" fill="#fafafa" opacity="0.6"/>
        <path id="Trazado_147864" data-name="Trazado 147864" d="M136.16,127.37a23.395,23.395,0,1,1-30.07-13.8,23.395,23.395,0,0,1,30.07,13.8Z" fill="#fff"/>
        <path id="Trazado_147865" data-name="Trazado 147865" d="M137.39,138.8a23.4,23.4,0,0,1-38.57,14.31,37.06,37.06,0,0,1,38.57-14.31Z" fill="#263238"/>
        <path id="Trazado_147866" data-name="Trazado 147866" d="M121.22,124.38a10.41,10.41,0,1,1-5.424-5.856,10.42,10.42,0,0,1,5.424,5.856Z" fill="#263238"/>
        <circle id="Elipse_4864" data-name="Elipse 4864" cx="32.35" cy="32.35" r="32.35" transform="translate(121.504 91.055) rotate(-45)" fill="#263238"/>
        <path id="Trazado_147867" data-name="Trazado 147867" d="M193.7,87.46a26.52,26.52,0,1,1-10.228-17.693A26.7,26.7,0,0,1,193.7,87.46Z" fill="#fff"/>
        <path id="Trazado_147868" data-name="Trazado 147868" d="M192.21,100.5a26.69,26.69,0,0,1-46.51,6.31,42.29,42.29,0,0,1,46.51-6.31Z" fill="#7e57c2"/>
        <circle id="Elipse_4865" data-name="Elipse 4865" cx="11.89" cy="11.89" r="11.89" transform="translate(149.349 84.261) rotate(-52.73)" fill="#7e57c2"/>
        <rect id="Rectángulo_34533" data-name="Rectángulo 34533" width="50.96" height="8.84" transform="translate(157.12 407.4)" fill="#7e57c2"/>
        <rect id="Rectángulo_34534" data-name="Rectángulo 34534" width="2.04" height="8.84" transform="translate(159.64 407.4)" opacity="0.2"/>
        <rect id="Rectángulo_34535" data-name="Rectángulo 34535" width="2.04" height="8.84" transform="translate(165.12 407.4)" opacity="0.2"/>
        <rect id="Rectángulo_34536" data-name="Rectángulo 34536" width="2.04" height="8.84" transform="translate(170.61 407.4)" opacity="0.2"/>
        <rect id="Rectángulo_34537" data-name="Rectángulo 34537" width="2.04" height="8.84" transform="translate(176.1 407.4)" opacity="0.2"/>
        <rect id="Rectángulo_34538" data-name="Rectángulo 34538" width="2.04" height="8.84" transform="translate(181.58 407.4)" opacity="0.2"/>
        <rect id="Rectángulo_34539" data-name="Rectángulo 34539" width="2.04" height="8.84" transform="translate(187.07 407.4)" opacity="0.2"/>
        <rect id="Rectángulo_34540" data-name="Rectángulo 34540" width="2.04" height="8.84" transform="translate(192.55 407.4)" opacity="0.2"/>
        <rect id="Rectángulo_34541" data-name="Rectángulo 34541" width="2.04" height="8.84" transform="translate(198.04 407.4)" opacity="0.2"/>
        <rect id="Rectángulo_34542" data-name="Rectángulo 34542" width="2.04" height="8.84" transform="translate(203.53 407.4)" opacity="0.2"/>
        <rect id="Rectángulo_34543" data-name="Rectángulo 34543" width="50.96" height="8.84" transform="translate(155.32 398.56)" fill="#7e57c2"/>
        <rect id="Rectángulo_34544" data-name="Rectángulo 34544" width="2.04" height="8.84" transform="translate(157.84 398.56)" opacity="0.2"/>
        <rect id="Rectángulo_34545" data-name="Rectángulo 34545" width="2.04" height="8.84" transform="translate(163.32 398.56)" opacity="0.2"/>
        <rect id="Rectángulo_34546" data-name="Rectángulo 34546" width="2.04" height="8.84" transform="translate(168.81 398.56)" opacity="0.2"/>
        <rect id="Rectángulo_34547" data-name="Rectángulo 34547" width="2.04" height="8.84" transform="translate(174.3 398.56)" opacity="0.2"/>
        <rect id="Rectángulo_34548" data-name="Rectángulo 34548" width="2.04" height="8.84" transform="translate(179.78 398.56)" opacity="0.2"/>
        <rect id="Rectángulo_34549" data-name="Rectángulo 34549" width="2.04" height="8.84" transform="translate(185.27 398.56)" opacity="0.2"/>
        <rect id="Rectángulo_34550" data-name="Rectángulo 34550" width="2.04" height="8.84" transform="translate(190.76 398.56)" opacity="0.2"/>
        <rect id="Rectángulo_34551" data-name="Rectángulo 34551" width="2.04" height="8.84" transform="translate(196.24 398.56)" opacity="0.2"/>
        <rect id="Rectángulo_34552" data-name="Rectángulo 34552" width="2.04" height="8.84" transform="translate(201.73 398.56)" opacity="0.2"/>
        <rect id="Rectángulo_34553" data-name="Rectángulo 34553" width="50.96" height="8.84" transform="translate(156.75 389.72)" fill="#7e57c2"/>
        <rect id="Rectángulo_34554" data-name="Rectángulo 34554" width="2.04" height="8.84" transform="translate(159.27 389.72)" opacity="0.2"/>
        <rect id="Rectángulo_34555" data-name="Rectángulo 34555" width="2.04" height="8.84" transform="translate(164.76 389.72)" opacity="0.2"/>
        <rect id="Rectángulo_34556" data-name="Rectángulo 34556" width="2.04" height="8.84" transform="translate(170.24 389.72)" opacity="0.2"/>
        <rect id="Rectángulo_34557" data-name="Rectángulo 34557" width="2.04" height="8.84" transform="translate(175.73 389.72)" opacity="0.2"/>
        <rect id="Rectángulo_34558" data-name="Rectángulo 34558" width="2.04" height="8.84" transform="translate(181.22 389.72)" opacity="0.2"/>
        <rect id="Rectángulo_34559" data-name="Rectángulo 34559" width="2.04" height="8.84" transform="translate(186.7 389.72)" opacity="0.2"/>
        <rect id="Rectángulo_34560" data-name="Rectángulo 34560" width="2.04" height="8.84" transform="translate(192.19 389.72)" opacity="0.2"/>
        <rect id="Rectángulo_34561" data-name="Rectángulo 34561" width="2.04" height="8.84" transform="translate(197.67 389.72)" opacity="0.2"/>
        <rect id="Rectángulo_34562" data-name="Rectángulo 34562" width="2.04" height="8.84" transform="translate(203.16 389.72)" opacity="0.2"/>
        <circle id="Elipse_4866" data-name="Elipse 4866" cx="25.69" cy="25.69" r="25.69" transform="translate(148.959 340.603) rotate(-12.99)" fill="#7e57c2"/>
        <path id="Trazado_147869" data-name="Trazado 147869" d="M198.08,371.29a21.57,21.57,0,1,1-6.86-29.73,21.57,21.57,0,0,1,6.86,29.73Z" opacity="0.2"/>
        <circle id="Elipse_4867" data-name="Elipse 4867" cx="21.2" cy="21.2" r="21.2" transform="translate(154.7 344.835) rotate(-12.99)" fill="#7e57c2"/>
        <path id="Trazado_147870" data-name="Trazado 147870" d="M187.21,364.48l-3.18,5.1a1.64,1.64,0,0,1-1.1.75,1.72,1.72,0,0,1-1.33-.22l-4.48-2.8-2.24,3.59a1.74,1.74,0,0,1-2.39.55,1.72,1.72,0,0,1-.8-1.1,1.6,1.6,0,0,1,.21-1.31l2.26-3.63-4.44-2.78a1.69,1.69,0,0,1-.77-1.07,1.739,1.739,0,0,1,1.3-2.09,1.69,1.69,0,0,1,1.31.22l10.4,6.5,1.32-2.12-10.36-6.48a1.66,1.66,0,0,1-.78-1.07,1.64,1.64,0,0,1,.22-1.32l3.18-5.07a1.66,1.66,0,0,1,1.08-.78,1.73,1.73,0,0,1,1.31.22l4.41,2.76,2.24-3.59a1.74,1.74,0,0,1,2.45-.52,1.66,1.66,0,0,1,.75,1.07,1.63,1.63,0,0,1-.22,1.31l-2.24,3.59,4.51,2.83a1.72,1.72,0,0,1,.79,1.1,1.63,1.63,0,0,1-.2,1.31,1.67,1.67,0,0,1-1.11.78A1.7,1.7,0,0,1,188,360l-10.4-6.5-1.31,2.1,10.37,6.48a1.73,1.73,0,0,1,.78,1.1A1.61,1.61,0,0,1,187.21,364.48Z" fill="#fafafa"/>
        <path id="Trazado_147871" data-name="Trazado 147871" d="M193.4,338.07a25.71,25.71,0,0,0-39.19,19.26h51.14A25.64,25.64,0,0,0,193.4,338.07Z" opacity="0.4"/>
        <path id="Trazado_147872" data-name="Trazado 147872" d="M273.4,133.67H86.92a8.51,8.51,0,0,0-7,13.35l20.82,30.07a8.53,8.53,0,0,0,7,3.66H252.58a8.51,8.51,0,0,0,7-3.66L280.4,147a8.51,8.51,0,0,0-7-13.33Z" fill="#7e57c2" opacity="0.2"/>
        <path id="Trazado_147873" data-name="Trazado 147873" d="M274.45,170.62H85.88l61.32,132.1h65.92Z" fill="#7e57c2"/>
        <rect id="Rectángulo_34563" data-name="Rectángulo 34563" width="1" height="14.83" transform="translate(106.137 222.596) rotate(-24.9)" fill="#7e57c2"/>
        <rect id="Rectángulo_34564" data-name="Rectángulo 34564" width="1" height="6.94" transform="translate(114.228 240.043) rotate(-24.9)" fill="#7e57c2"/>
        <path id="Trazado_147874" data-name="Trazado 147874" d="M274.45,170.62H85.88l61.32,132.1h65.92Z" opacity="0.3"/>
        <path id="Trazado_147875" data-name="Trazado 147875" d="M140.92,170.62H105.24l54.04,132.1h11.54Z" opacity="0.2"/>
        <rect id="Rectángulo_34565" data-name="Rectángulo 34565" width="209.81" height="25.41" rx="4.77" transform="translate(75.26 145.21)" fill="#7e57c2"/>
        <path id="Trazado_147876" data-name="Trazado 147876" d="M203.44,350.63H156.89a6.62,6.62,0,0,1-6.6-6.13l-3.09-41.78h65.92L210,344.5A6.61,6.61,0,0,1,203.44,350.63Z" fill="#7e57c2"/>
        <path id="Trazado_147877" data-name="Trazado 147877" d="M203.44,350.63H156.89a6.62,6.62,0,0,1-6.6-6.13l-3.09-41.78h65.92L210,344.5A6.61,6.61,0,0,1,203.44,350.63Z" opacity="0.2"/>
      </g>
      <g id="freepik--Character--inject-14">
        <path id="Trazado_147878" data-name="Trazado 147878" d="M330.96,407.88h-8.19l-.54-18.96h8.19Z" fill="#ffb573"/>
        <path id="Trazado_147879" data-name="Trazado 147879" d="M322.23,388.92l.28,9.78h8.19l-.28-9.78Z" opacity="0.2"/>
        <path id="Trazado_147880" data-name="Trazado 147880" d="M394.26,378.12l-7.17,3.95-11.44-15.35,7.17-3.94Z" fill="#ffb573"/>
        <path id="Trazado_147881" data-name="Trazado 147881" d="M382.83,362.78l-7.18,3.95,5.9,7.9,7.18-3.94Z" opacity="0.2"/>
        <path id="Trazado_147882" data-name="Trazado 147882" d="M363.1,175.72c-7.32-5-10.63-10.15-11.27-16.36,1.23,6.58,5.16,11.8,13.94,16.21a.46.46,0,0,0,.23.06.5.5,0,0,0,.22-.95c-12.35-6.2-14.74-13.79-13.61-25.09.32-1.49.72-3,1.2-4.64,4-13.66-18.28-16.4-25.25-13.56-17.13,7-11.87,26.45-7,33.78s-11.42,12.25-2.32,33.22,39.37,20.45,48,9.55S375.36,184.17,363.1,175.72Z" fill="#263238"/>
        <path id="Trazado_147883" data-name="Trazado 147883" d="M318.4,184.17c-.1,1.37-.21,2.56-.38,3.81s-.35,2.46-.55,3.68c-.4,2.45-1,4.87-1.53,7.28a79.381,79.381,0,0,1-4.87,14.17l-.39.86c-.15.3-.21.48-.52,1.07a7.37,7.37,0,0,1-2.47,2.63,7.69,7.69,0,0,1-3.13,1.11,10.73,10.73,0,0,1-2.66,0,23.371,23.371,0,0,1-7.84-2.73,65,65,0,0,1-12.17-8.6l2.47-3.33c2,1.13,4.07,2.28,6.13,3.32a59.816,59.816,0,0,0,6.22,2.8,19.11,19.11,0,0,0,5.79,1.46c.78,0,1.25-.22,1.11-.22s-.11.07-.1,0l.51-1.35a92.873,92.873,0,0,0,3.85-13.08c.5-2.24.9-4.51,1.28-6.77s.68-4.6.9-6.71Z" fill="#ffb573"/>
        <path id="Trazado_147884" data-name="Trazado 147884" d="M312.71,174.16C309.33,175,307,188.9,307,188.9l9.3,6.32s8.92-14,6.32-17.71C319.89,173.64,317.63,172.9,312.71,174.16Z" fill="#7e57c2"/>
        <path id="Trazado_147885" data-name="Trazado 147885" d="M312.71,174.16C309.33,175,307,188.9,307,188.9l9.3,6.32s8.92-14,6.32-17.71C319.89,173.64,317.63,172.9,312.71,174.16Z" opacity="0.2"/>
        <path id="Trazado_147886" data-name="Trazado 147886" d="M313.01,177.26l-2.59,13.99,5.22,3.55Z" opacity="0.2"/>
        <path id="Trazado_147887" data-name="Trazado 147887" d="M285.74,204.68l-5-7.84-2.82,7.83s3.47,4,6.78,3.17Z" fill="#ffb573"/>
        <path id="Trazado_147888" data-name="Trazado 147888" d="M275.4,193.9l-3.33,6.13,5.84,4.64,2.82-7.83Z" fill="#ffb573"/>
        <path id="Trazado_147889" data-name="Trazado 147889" d="M385.54,381.1l7.32-5.57a.64.64,0,0,1,.85.05l5.25,5.15a1.32,1.32,0,0,1-.16,1.95c-2.59,1.9-3.93,2.69-7.15,5.14-2,1.51-4.71,3.92-7.45,6s-4.93-.51-4-1.62c4.26-5,3.92-7.11,4.54-9.87a2.15,2.15,0,0,1,.8-1.23Z" fill="#263238"/>
        <path id="Trazado_147890" data-name="Trazado 147890" d="M322.49,406.93h9.2a.65.65,0,0,1,.66.56l1,7.28a1.31,1.31,0,0,1-1.31,1.45c-3.21-.05-4.75-.24-8.8-.24-2.48,0-9.63.26-13.07.26s-3.62-3.4-2.19-3.71c6.42-1.38,10.94-3.28,13.11-5.1a2.17,2.17,0,0,1,1.4-.5Z" fill="#263238"/>
        <path id="Trazado_147891" data-name="Trazado 147891" d="M312.71,174.16s-3.9,1.37,3.91,49.41h33.25c-.56-13.53-.57-21.88,5.89-49.65a97.21,97.21,0,0,0-14.12-1.86,105.442,105.442,0,0,0-15.09,0C320.06,172.65,312.71,174.16,312.71,174.16Z" fill="#7e57c2"/>
        <path id="Trazado_147892" data-name="Trazado 147892" d="M312.71,174.16s-3.9,1.37,3.91,49.41h33.25c-.56-13.53-.57-21.88,5.89-49.65a97.21,97.21,0,0,0-14.12-1.86,105.442,105.442,0,0,0-15.09,0C320.06,172.65,312.71,174.16,312.71,174.16Z" opacity="0.2"/>
        <path id="Trazado_147893" data-name="Trazado 147893" d="M341.64,172.06a105.439,105.439,0,0,0-15.09,0c-1.82.16-3.7.4-5.46.65h0c-.78,2.92-.62,7,2.35,12.34l1.72,3.07,3.27-1.31c2.42-1,14.67-6.15,18.6-12.53l1-1.65C346.07,172.38,343.88,172.17,341.64,172.06Z" fill="#fff"/>
        <path id="Trazado_147894" data-name="Trazado 147894" d="M341.64,172.06h0c-3.39-3.24-2.44-12.15-1.49-17L330.88,163c.94,3.78,1.08,7.79-4.33,9.09h0l-1,.1c-1.21,2.28-1.51,5.8,1.38,11,0,0,13.24-5.34,16.69-10.92A12.637,12.637,0,0,0,341.64,172.06Z" fill="#ffb573"/>
        <path id="Trazado_147895" data-name="Trazado 147895" d="M336.37,158.29,330.88,163a14.924,14.924,0,0,1,.47,2.68c2.07-.3,4.91-2.57,5.13-4.74a7.17,7.17,0,0,0-.11-2.65Z" opacity="0.2"/>
        <path id="Trazado_147896" data-name="Trazado 147896" d="M346.27,147.3c-2.43,7.76-3.29,11.09-8.26,14.15-7.48,4.61-16.48-.07-16.42-8.39.05-7.49,4-18.92,12.49-20.15a11.09,11.09,0,0,1,12.19,14.39Z" fill="#ffb573"/>
        <path id="Trazado_147897" data-name="Trazado 147897" d="M347.82,136a15.17,15.17,0,0,0-9.72-4,3.37,3.37,0,0,0-1.79-.82c-3.77-.77-8,.25-9.93,2.64-1.73,2.18,4.16,3.46,8.39,1.73.61,6.68,6.25,20.42,11.63,19.18C353.43,153.13,353.49,141.25,347.82,136Z" fill="#263238"/>
        <path id="Trazado_147898" data-name="Trazado 147898" d="M316.62,223.57s-6.46,63.07-5.92,88c.56,26,10.07,85.19,10.07,85.19h11.07s-1.75-57.71-.77-83.21c1.07-27.81,9.9-90,9.9-90Z" fill="#263238"/>
        <path id="Trazado_147899" data-name="Trazado 147899" d="M332.8,397.2H319.81l-.95-4.14,14.55-.51Z" fill="#7e57c2"/>
        <path id="Trazado_147900" data-name="Trazado 147900" d="M331,239.26c-8.17,16.43-1.64,46.4,1.25,57.55,1.48-16.74,4-37.22,5.92-52.25C336.9,236.06,334.73,231.69,331,239.26Z" opacity="0.2"/>
        <path id="Trazado_147901" data-name="Trazado 147901" d="M325.4,223.57s7.53,65.57,13.22,86.62c6.75,25,40.29,63.74,40.29,63.74l9.78-5.38s-23.26-43.5-28.43-56.67c-11-28.1-1.58-70-10.39-88.31Z" fill="#263238"/>
        <path id="Trazado_147902" data-name="Trazado 147902" d="M390.1,368.44l-12.14,6.67-3.39-3.1,13.92-8.49Z" fill="#7e57c2"/>
        <path id="Trazado_147903" data-name="Trazado 147903" d="M333.19,146.3c-.15.64-.62,1.07-1,1s-.63-.71-.47-1.35.62-1.08,1-1S333.35,145.65,333.19,146.3Z" fill="#263238"/>
        <path id="Trazado_147904" data-name="Trazado 147904" d="M326,144.51c-.16.64-.63,1.08-1.05,1s-.63-.7-.47-1.34.62-1.08,1-1S326.1,143.87,326,144.51Z" fill="#263238"/>
        <path id="Trazado_147905" data-name="Trazado 147905" d="M325.65,143.24l-1.43-.82S324.71,143.82,325.65,143.24Z" fill="#263238"/>
        <path id="Trazado_147906" data-name="Trazado 147906" d="M327.9,146.22a17.471,17.471,0,0,1-3.3,3.52,2.85,2.85,0,0,0,2.18,1Z" fill="#ed893e"/>
        <path id="Trazado_147907" data-name="Trazado 147907" d="M329.66,154.11a6.861,6.861,0,0,1-1-.16.2.2,0,0,1,.09-.38,5.23,5.23,0,0,0,4.63-1,.18.18,0,0,1,.27,0,.19.19,0,0,1,0,.27,5.44,5.44,0,0,1-3.99,1.27Z" fill="#263238"/>
        <path id="Trazado_147908" data-name="Trazado 147908" d="M346.62,155.05a5.94,5.94,0,0,1-3.8,2.48c-2.05.36-2.88-1.52-2.14-3.35.66-1.65,2.52-3.82,4.5-3.36a2.67,2.67,0,0,1,1.44,4.23Z" fill="#ffb573"/>
        <path id="Trazado_147909" data-name="Trazado 147909" d="M336.47,145.54a.39.39,0,0,1-.35-.3c-.4-1.75-2.53-2.64-2.55-2.65a.39.39,0,0,1-.22-.51.4.4,0,0,1,.51-.21,5.127,5.127,0,0,1,3,3.19.39.39,0,0,1-.29.47Z" fill="#263238"/>
        <path id="Trazado_147910" data-name="Trazado 147910" d="M324.59,140.63a.42.42,0,0,1-.31-.22.39.39,0,0,1,.18-.52,3.84,3.84,0,0,1,3.54,0,.39.39,0,0,1,.13.53.38.38,0,0,1-.53.13h0a3.08,3.08,0,0,0-2.8,0,.52.52,0,0,1-.21.08Z" fill="#263238"/>
        <path id="Trazado_147911" data-name="Trazado 147911" d="M359.59,183.45c1,5,1.74,9.85,2.31,14.83.3,2.48.52,5,.69,7.5.09,1.25.14,2.52.19,3.79l.05,1.91v1.49a5.27,5.27,0,0,1-1.38,3,5.67,5.67,0,0,1-2.12,1.39,7.27,7.27,0,0,1-1.62.43,12.469,12.469,0,0,1-2.52.12,30.331,30.331,0,0,1-4.16-.51,69.17,69.17,0,0,1-7.47-1.94c-2.4-.77-4.76-1.6-7.1-2.47s-4.63-1.84-6.92-2.9l1.39-3.9c2.34.57,4.72,1.17,7.09,1.7s4.73,1.09,7.08,1.54,4.7.87,7,1.1a22.239,22.239,0,0,0,3.18.15,5,5,0,0,0,1.15-.14c.14,0,.18-.07.15-.06a1.33,1.33,0,0,0-.58.39,2.42,2.42,0,0,0-.63,1.34.76.76,0,0,0,0,.26s0-.12,0-.17v-.44l-.16-1.77-.39-3.56q-.435-3.57-1-7.16c-.38-2.39-.74-4.78-1.14-7.17s-.81-4.79-1.21-7.13Z" fill="#ffb573"/>
        <path id="Trazado_147912" data-name="Trazado 147912" d="M355.76,173.92c3.34,1,7.34,12.48,7.34,12.48l-12.93,9.24s-4.71-9.57-3.31-13.88C348.32,177.28,352,172.76,355.76,173.92Z" fill="#7e57c2"/>
        <path id="Trazado_147913" data-name="Trazado 147913" d="M355.76,173.92c3.34,1,7.34,12.48,7.34,12.48l-12.93,9.24s-4.71-9.57-3.31-13.88C348.32,177.28,352,172.76,355.76,173.92Z" opacity="0.2"/>
        <path id="Trazado_147914" data-name="Trazado 147914" d="M382.78,384.55h-.1a1.12,1.12,0,0,1-.88-.63.7.7,0,0,1,0-.67c.5-.92,3.45-1.15,3.79-1.17a.17.17,0,0,1,.18.1.2.2,0,0,1,0,.22C385.05,383.21,383.8,384.55,382.78,384.55Zm2.33-2c-1.17.12-2.73.44-3,.93a.26.26,0,0,0,0,.29.71.71,0,0,0,.57.43c.59.01,1.47-.6,2.43-1.69Z" fill="#7e57c2"/>
        <path id="Trazado_147915" data-name="Trazado 147915" d="M385.29,382.48c-1,0-2.88-.48-3.25-1.24a.68.68,0,0,1,.19-.83,1,1,0,0,1,.81-.29c1.19.09,2.62,2,2.68,2a.21.21,0,0,1,0,.2.19.19,0,0,1-.15.11A1.508,1.508,0,0,1,385.29,382.48Zm-2.34-2a.65.65,0,0,0-.45.19c-.18.17-.15.29-.11.38.25.51,1.79,1,2.79,1-.51-.6-1.46-1.54-2.17-1.59Z" fill="#7e57c2"/>
        <path id="Trazado_147916" data-name="Trazado 147916" d="M319.42,408.36a3.05,3.05,0,0,1-2-.5,1.06,1.06,0,0,1-.35-.95.61.61,0,0,1,.32-.51c1-.55,4.27,1.11,4.64,1.31a.194.194,0,0,1-.05.36,13.911,13.911,0,0,1-2.56.29ZM318,406.67a.74.74,0,0,0-.36.07.24.24,0,0,0-.13.21.72.72,0,0,0,.22.62c.5.45,1.85.52,3.66.22a10.431,10.431,0,0,0-3.39-1.12Z" fill="#7e57c2"/>
        <path id="Trazado_147917" data-name="Trazado 147917" d="M322,408.07h-.08c-1-.45-2.91-2.21-2.75-3.14,0-.22.19-.49.72-.55a1.44,1.44,0,0,1,1.08.34c1,.86,1.22,3.06,1.22,3.15a.18.18,0,0,1-.08.18A.2.2,0,0,1,322,408.07Zm-2-3.32h-.12c-.35,0-.37.18-.38.22-.09.56,1.22,1.95,2.21,2.55a4.47,4.47,0,0,0-1-2.52A1,1,0,0,0,320,404.75Z" fill="#7e57c2"/>
        <path id="Trazado_147918" data-name="Trazado 147918" d="M332.9,145l-1.43-.82S332,145.6,332.9,145Z" fill="#263238"/>
        <path id="Trazado_147919" data-name="Trazado 147919" d="M350.37,221.62l.85,3c.11.24-.16.47-.54.47H316.45c-.3,0-.54-.15-.56-.33l-.3-3c0-.21.24-.38.56-.38h33.68a.61.61,0,0,1,.54.24Z" fill="#7e57c2"/>
        <path id="Trazado_147920" data-name="Trazado 147920" d="M345.85,225.38h.9c.18,0,.31-.09.3-.2l-.42-3.87c0-.11-.17-.21-.35-.21h-.9c-.18,0-.32.1-.31.21l.43,3.87C345.51,225.29,345.67,225.38,345.85,225.38Z" fill="#263238"/>
        <path id="Trazado_147921" data-name="Trazado 147921" d="M319,225.38h.9c.18,0,.32-.09.3-.2l-.42-3.87c0-.11-.17-.21-.35-.21h-.9c-.18,0-.32.1-.3.21l.42,3.87C318.65,225.29,318.81,225.38,319,225.38Z" fill="#263238"/>
        <path id="Trazado_147922" data-name="Trazado 147922" d="M332.42,225.38h.9c.18,0,.32-.09.3-.2l-.42-3.87c0-.11-.17-.21-.35-.21H332c-.18,0-.32.1-.3.21l.42,3.87C332.08,225.29,332.24,225.38,332.42,225.38Z" fill="#263238"/>
        <circle id="Elipse_4868" data-name="Elipse 4868" cx="26.93" cy="26.93" r="26.93" transform="translate(273.93 181.01)" fill="#7e57c2"/>
        <circle id="Elipse_4869" data-name="Elipse 4869" cx="26.93" cy="26.93" r="26.93" transform="translate(273.93 181.01)" opacity="0.4"/>
        <path id="Trazado_147923" data-name="Trazado 147923" d="M278.84,205a21.94,21.94,0,0,0,1.24,10.85A22.22,22.22,0,1,0,278.84,205Z" fill="#7e57c2"/>
        <path id="Trazado_147924" data-name="Trazado 147924" d="M280.08,215.8a22.22,22.22,0,0,0,38.72,5.26A35.18,35.18,0,0,0,280.08,215.8Z" fill="#fff"/>
        <circle id="Elipse_4870" data-name="Elipse 4870" cx="9.9" cy="9.9" r="9.9" transform="matrix(0.332, -0.943, 0.943, 0.332, 289.259, 206.456)" fill="#fff"/>
        <path id="Trazado_147925" data-name="Trazado 147925" d="M331.86,206.36l-6.19-6.31-.79,8.29s4.35,3,7.37,1.38Z" fill="#ffb573"/>
        <path id="Trazado_147926" data-name="Trazado 147926" d="M318.84,199.15l-.28,6.98,6.32,2.21.79-8.29Z" fill="#ffb573"/>
      </g>
    </g>
    <path id="Trazado_149155" data-name="Trazado 149155" d="M4.132,10.381,6.773,2.758H8.106L4.678,12H3.6L.178,2.758H1.5ZM8.557,8.5a4.057,4.057,0,0,1,.4-1.815,2.96,2.96,0,0,1,1.1-1.244A3.007,3.007,0,0,1,11.673,5a2.9,2.9,0,0,1,2.269.971,3.736,3.736,0,0,1,.866,2.583v.083a4.092,4.092,0,0,1-.384,1.8,2.916,2.916,0,0,1-1.1,1.241,3.041,3.041,0,0,1-1.641.444,2.889,2.889,0,0,1-2.263-.971,3.718,3.718,0,0,1-.866-2.571Zm1.181.14a2.938,2.938,0,0,0,.53,1.834,1.8,1.8,0,0,0,2.841-.01A3.213,3.213,0,0,0,13.635,8.5,2.933,2.933,0,0,0,13.1,6.671a1.705,1.705,0,0,0-1.425-.7,1.686,1.686,0,0,0-1.4.692A3.189,3.189,0,0,0,9.737,8.642ZM17.558,12H16.383V2.25h1.174Zm6.119-.679a2.494,2.494,0,0,1-2.012.806,2.135,2.135,0,0,1-1.673-.638A2.761,2.761,0,0,1,19.411,9.6V5.132h1.174V9.569q0,1.562,1.27,1.562a1.758,1.758,0,0,0,1.79-1v-5h1.174V12H23.7Zm4.031-6.189.032.762A2.536,2.536,0,0,1,29.777,5a1.964,1.964,0,0,1,1.961,1.1,2.6,2.6,0,0,1,.892-.8,2.634,2.634,0,0,1,1.3-.3q2.26,0,2.3,2.393V12H35.052V7.468a1.577,1.577,0,0,0-.336-1.1A1.482,1.482,0,0,0,33.585,6a1.557,1.557,0,0,0-1.085.39A1.584,1.584,0,0,0,32,7.442V12H30.818V7.5A1.31,1.31,0,0,0,29.352,6a1.571,1.571,0,0,0-1.581.984V12H26.6V5.132Zm13.14,7a3,3,0,0,1-2.272-.917A3.4,3.4,0,0,1,37.7,8.756V8.541a4.121,4.121,0,0,1,.39-1.825,3.045,3.045,0,0,1,1.092-1.257A2.745,2.745,0,0,1,40.7,5a2.572,2.572,0,0,1,2.082.882,3.82,3.82,0,0,1,.743,2.526V8.9H38.873a2.441,2.441,0,0,0,.594,1.641,1.866,1.866,0,0,0,1.444.625,2.045,2.045,0,0,0,1.054-.254,2.648,2.648,0,0,0,.755-.673l.717.559A2.884,2.884,0,0,1,40.847,12.127ZM40.7,5.97a1.566,1.566,0,0,0-1.193.517,2.515,2.515,0,0,0-.6,1.45h3.44V7.849a2.237,2.237,0,0,0-.482-1.387A1.475,1.475,0,0,0,40.7,5.97ZM46,5.132,46.033,6A2.5,2.5,0,0,1,48.09,5q2.177,0,2.2,2.457V12H49.112V7.455a1.581,1.581,0,0,0-.34-1.1A1.361,1.361,0,0,0,47.734,6a1.7,1.7,0,0,0-1,.3,2.069,2.069,0,0,0-.673.8V12H44.884V5.132ZM57.522,10.28l1.6-5.148h1.257L57.618,13.06q-.641,1.714-2.038,1.714l-.222-.019-.438-.083V13.72l.317.025a1.563,1.563,0,0,0,.93-.241,1.746,1.746,0,0,0,.549-.882l.26-.7-2.45-6.792h1.282Zm8.715-6.811V5.132H67.52V6.04H66.238V10.3a.953.953,0,0,0,.171.62.721.721,0,0,0,.584.207,2.843,2.843,0,0,0,.559-.076V12a3.424,3.424,0,0,1-.9.126,1.462,1.462,0,0,1-1.187-.476,2.045,2.045,0,0,1-.4-1.352V6.04h-1.25V5.132h1.25V3.469ZM70.167,12H68.993V5.132h1.174ZM68.9,3.31a.7.7,0,0,1,.175-.482.655.655,0,0,1,.517-.2.666.666,0,0,1,.521.2.694.694,0,0,1,.178.482.671.671,0,0,1-.178.476.678.678,0,0,1-.521.19.667.667,0,0,1-.517-.19A.678.678,0,0,1,68.9,3.31Zm8.95,5.332a4.113,4.113,0,0,1-.717,2.526,2.3,2.3,0,0,1-1.942.958,2.519,2.519,0,0,1-1.968-.793v3.307H72.046V5.132h1.073l.057.762A2.419,2.419,0,0,1,75.169,5a2.342,2.342,0,0,1,1.958.933,4.157,4.157,0,0,1,.72,2.6Zm-1.174-.133a3.035,3.035,0,0,0-.5-1.834A1.6,1.6,0,0,0,74.82,6a1.726,1.726,0,0,0-1.6.946v3.282a1.73,1.73,0,0,0,1.612.939,1.587,1.587,0,0,0,1.343-.67A3.313,3.313,0,0,0,76.673,8.509ZM79.028,8.5a4.057,4.057,0,0,1,.4-1.815,2.96,2.96,0,0,1,1.1-1.244A3.007,3.007,0,0,1,82.145,5a2.9,2.9,0,0,1,2.269.971,3.736,3.736,0,0,1,.866,2.583v.083a4.092,4.092,0,0,1-.384,1.8,2.916,2.916,0,0,1-1.1,1.241,3.041,3.041,0,0,1-1.641.444,2.889,2.889,0,0,1-2.263-.971,3.718,3.718,0,0,1-.866-2.571Zm1.181.14a2.938,2.938,0,0,0,.53,1.834,1.8,1.8,0,0,0,2.841-.01A3.213,3.213,0,0,0,84.106,8.5a2.933,2.933,0,0,0-.536-1.831,1.705,1.705,0,0,0-1.425-.7,1.686,1.686,0,0,0-1.4.692A3.189,3.189,0,0,0,80.209,8.642ZM.6,26.509a4.023,4.023,0,0,1,.749-2.542A2.369,2.369,0,0,1,3.313,23a2.382,2.382,0,0,1,1.911.825V20.25H6.4V30H5.319l-.057-.736a2.391,2.391,0,0,1-1.961.863,2.346,2.346,0,0,1-1.946-.978A4.069,4.069,0,0,1,.6,26.6Zm1.174.133A3.046,3.046,0,0,0,2.26,28.47a1.56,1.56,0,0,0,1.333.66,1.713,1.713,0,0,0,1.631-1V24.973A1.726,1.726,0,0,0,3.605,24a1.567,1.567,0,0,0-1.346.667A3.354,3.354,0,0,0,1.777,26.642Zm9.293,3.485A3,3,0,0,1,8.8,29.21a3.4,3.4,0,0,1-.876-2.453v-.216a4.121,4.121,0,0,1,.39-1.825A3.045,3.045,0,0,1,9.4,23.459,2.745,2.745,0,0,1,10.924,23a2.572,2.572,0,0,1,2.082.882,3.82,3.82,0,0,1,.743,2.526V26.9H9.1a2.441,2.441,0,0,0,.594,1.641,1.866,1.866,0,0,0,1.444.625,2.045,2.045,0,0,0,1.054-.254,2.648,2.648,0,0,0,.755-.673l.717.559A2.884,2.884,0,0,1,11.07,30.127Zm-.146-6.157a1.566,1.566,0,0,0-1.193.517,2.515,2.515,0,0,0-.6,1.45h3.44v-.089a2.237,2.237,0,0,0-.482-1.387A1.475,1.475,0,0,0,10.924,23.97Zm10.156,5.2a1.692,1.692,0,0,0,1.1-.381,1.34,1.34,0,0,0,.521-.952H23.81a2.13,2.13,0,0,1-.406,1.124,2.676,2.676,0,0,1-1,.851,2.885,2.885,0,0,1-1.323.317,2.829,2.829,0,0,1-2.231-.936,3.729,3.729,0,0,1-.828-2.561v-.2a4.135,4.135,0,0,1,.368-1.784,2.8,2.8,0,0,1,1.057-1.212A3,3,0,0,1,21.074,23a2.755,2.755,0,0,1,1.92.692,2.473,2.473,0,0,1,.816,1.8H22.7a1.618,1.618,0,0,0-.5-1.095,1.57,1.57,0,0,0-1.12-.428,1.644,1.644,0,0,0-1.387.644,3.026,3.026,0,0,0-.492,1.863V26.7a2.965,2.965,0,0,0,.489,1.828A1.651,1.651,0,0,0,21.081,29.168ZM24.819,26.5a4.057,4.057,0,0,1,.4-1.815,2.96,2.96,0,0,1,1.1-1.244A3.007,3.007,0,0,1,27.936,23a2.9,2.9,0,0,1,2.269.971,3.736,3.736,0,0,1,.866,2.583v.083a4.092,4.092,0,0,1-.384,1.8,2.916,2.916,0,0,1-1.1,1.241,3.041,3.041,0,0,1-1.641.444,2.889,2.889,0,0,1-2.263-.971,3.718,3.718,0,0,1-.866-2.571Zm1.181.14a2.938,2.938,0,0,0,.53,1.834,1.8,1.8,0,0,0,2.841-.01A3.213,3.213,0,0,0,29.9,26.5a2.933,2.933,0,0,0-.536-1.831,1.705,1.705,0,0,0-1.425-.7,1.686,1.686,0,0,0-1.4.692A3.189,3.189,0,0,0,26,26.642Zm7.649-3.51.032.762A2.536,2.536,0,0,1,35.718,23a1.964,1.964,0,0,1,1.961,1.1,2.6,2.6,0,0,1,.892-.8,2.634,2.634,0,0,1,1.3-.3q2.26,0,2.3,2.393V30H40.993V25.468a1.577,1.577,0,0,0-.336-1.1A1.482,1.482,0,0,0,39.527,24a1.557,1.557,0,0,0-1.085.39,1.584,1.584,0,0,0-.5,1.051V30H36.759V25.5A1.31,1.31,0,0,0,35.293,24a1.571,1.571,0,0,0-1.581.984V30H32.538V23.132Zm16.091,3.51a4.113,4.113,0,0,1-.717,2.526,2.3,2.3,0,0,1-1.942.958,2.519,2.519,0,0,1-1.968-.793v3.307H43.938V23.132h1.073l.057.762A2.419,2.419,0,0,1,47.062,23a2.342,2.342,0,0,1,1.958.933,4.157,4.157,0,0,1,.72,2.6Zm-1.174-.133a3.035,3.035,0,0,0-.5-1.834A1.6,1.6,0,0,0,46.712,24a1.726,1.726,0,0,0-1.6.946v3.282a1.73,1.73,0,0,0,1.612.939,1.587,1.587,0,0,0,1.343-.67A3.312,3.312,0,0,0,48.566,26.509Zm5.986-2.323a3.519,3.519,0,0,0-.578-.044,1.547,1.547,0,0,0-1.568.984V30H51.232V23.132h1.143l.019.793A1.829,1.829,0,0,1,54.031,23a1.2,1.2,0,0,1,.521.089ZM59.617,30a2.467,2.467,0,0,1-.165-.724,2.62,2.62,0,0,1-1.955.851,2.424,2.424,0,0,1-1.666-.574A1.859,1.859,0,0,1,55.18,28.1,1.942,1.942,0,0,1,56,26.429a3.846,3.846,0,0,1,2.295-.594h1.143V25.3a1.319,1.319,0,0,0-.368-.981,1.48,1.48,0,0,0-1.085-.365,1.712,1.712,0,0,0-1.054.317.935.935,0,0,0-.425.768H55.32a1.621,1.621,0,0,1,.365-.993,2.491,2.491,0,0,1,.99-.759A3.331,3.331,0,0,1,58.049,23a2.715,2.715,0,0,1,1.86.594,2.141,2.141,0,0,1,.7,1.635v3.161a3.865,3.865,0,0,0,.241,1.5V30Zm-1.949-.9a2.064,2.064,0,0,0,1.047-.286,1.728,1.728,0,0,0,.717-.743V26.667h-.92q-2.158,0-2.158,1.263a1.069,1.069,0,0,0,.368.863A1.415,1.415,0,0,0,57.668,29.1Z" transform="translate(326 1507)" fill="#12263f"/>
    <path id="Trazado_149153" data-name="Trazado 149153" d="M7.871,9.067A3.4,3.4,0,0,1,6.789,11.33a3.547,3.547,0,0,1-2.422.8,3.257,3.257,0,0,1-2.625-1.174A4.724,4.724,0,0,1,.755,7.811V6.922a5.266,5.266,0,0,1,.46-2.266,3.438,3.438,0,0,1,1.3-1.5,3.632,3.632,0,0,1,1.955-.524,3.34,3.34,0,0,1,2.361.822A3.441,3.441,0,0,1,7.871,5.729H6.646a2.655,2.655,0,0,0-.689-1.6,2.084,2.084,0,0,0-1.482-.5,2.181,2.181,0,0,0-1.831.864A3.966,3.966,0,0,0,1.98,6.95v.9a4.077,4.077,0,0,0,.628,2.4,2.031,2.031,0,0,0,1.758.889,2.345,2.345,0,0,0,1.558-.46,2.554,2.554,0,0,0,.72-1.6ZM9.039,8.5a4.057,4.057,0,0,1,.4-1.815,2.96,2.96,0,0,1,1.1-1.244A3.007,3.007,0,0,1,12.156,5a2.9,2.9,0,0,1,2.269.971,3.736,3.736,0,0,1,.866,2.583v.083a4.092,4.092,0,0,1-.384,1.8,2.916,2.916,0,0,1-1.1,1.241,3.041,3.041,0,0,1-1.641.444,2.889,2.889,0,0,1-2.263-.971,3.718,3.718,0,0,1-.866-2.571Zm1.181.14a2.938,2.938,0,0,0,.53,1.834,1.8,1.8,0,0,0,2.841-.01A3.213,3.213,0,0,0,14.117,8.5a2.933,2.933,0,0,0-.536-1.831,1.705,1.705,0,0,0-1.425-.7,1.686,1.686,0,0,0-1.4.692A3.189,3.189,0,0,0,10.22,8.642Zm7.649-3.51.032.762A2.536,2.536,0,0,1,19.938,5a1.964,1.964,0,0,1,1.961,1.1,2.6,2.6,0,0,1,.892-.8,2.634,2.634,0,0,1,1.3-.3q2.26,0,2.3,2.393V12H25.213V7.468a1.577,1.577,0,0,0-.336-1.1A1.482,1.482,0,0,0,23.747,6a1.557,1.557,0,0,0-1.085.39,1.584,1.584,0,0,0-.5,1.051V12H20.979V7.5A1.31,1.31,0,0,0,19.513,6a1.571,1.571,0,0,0-1.581.984V12H16.758V5.132ZM33.96,8.642a4.113,4.113,0,0,1-.717,2.526,2.3,2.3,0,0,1-1.942.958,2.519,2.519,0,0,1-1.968-.793v3.307H28.158V5.132h1.073l.057.762A2.419,2.419,0,0,1,31.281,5a2.342,2.342,0,0,1,1.958.933,4.157,4.157,0,0,1,.72,2.6Zm-1.174-.133a3.035,3.035,0,0,0-.5-1.834A1.6,1.6,0,0,0,30.932,6a1.726,1.726,0,0,0-1.6.946v3.282a1.73,1.73,0,0,0,1.612.939,1.587,1.587,0,0,0,1.343-.67A3.312,3.312,0,0,0,32.786,8.509ZM35.141,8.5a4.057,4.057,0,0,1,.4-1.815,2.96,2.96,0,0,1,1.1-1.244A3.007,3.007,0,0,1,38.257,5a2.9,2.9,0,0,1,2.269.971,3.736,3.736,0,0,1,.866,2.583v.083a4.092,4.092,0,0,1-.384,1.8,2.916,2.916,0,0,1-1.1,1.241,3.041,3.041,0,0,1-1.641.444,2.889,2.889,0,0,1-2.263-.971,3.718,3.718,0,0,1-.866-2.571Zm1.181.14a2.938,2.938,0,0,0,.53,1.834,1.8,1.8,0,0,0,2.841-.01A3.213,3.213,0,0,0,40.219,8.5a2.933,2.933,0,0,0-.536-1.831,1.705,1.705,0,0,0-1.425-.7,1.686,1.686,0,0,0-1.4.692A3.189,3.189,0,0,0,36.321,8.642Zm9.864-2.457a3.519,3.519,0,0,0-.578-.044,1.547,1.547,0,0,0-1.568.984V12H42.866V5.132h1.143l.019.793A1.829,1.829,0,0,1,45.665,5a1.2,1.2,0,0,1,.521.089Zm2.99-2.717V5.132h1.282V6.04H49.175V10.3a.953.953,0,0,0,.171.62.721.721,0,0,0,.584.207,2.843,2.843,0,0,0,.559-.076V12a3.424,3.424,0,0,1-.9.126,1.462,1.462,0,0,1-1.187-.476A2.045,2.045,0,0,1,48,10.3V6.04H46.75V5.132H48V3.469ZM56.069,12a2.467,2.467,0,0,1-.165-.724,2.62,2.62,0,0,1-1.955.851,2.424,2.424,0,0,1-1.666-.574,1.859,1.859,0,0,1-.651-1.457,1.942,1.942,0,0,1,.816-1.666,3.846,3.846,0,0,1,2.295-.594h1.143V7.3a1.319,1.319,0,0,0-.368-.981,1.48,1.48,0,0,0-1.085-.365,1.712,1.712,0,0,0-1.054.317.935.935,0,0,0-.425.768H51.771a1.621,1.621,0,0,1,.365-.993,2.491,2.491,0,0,1,.99-.759A3.331,3.331,0,0,1,54.5,5a2.715,2.715,0,0,1,1.86.594,2.141,2.141,0,0,1,.7,1.635v3.161a3.865,3.865,0,0,0,.241,1.5V12Zm-1.949-.9a2.064,2.064,0,0,0,1.047-.286,1.728,1.728,0,0,0,.717-.743V8.667h-.92q-2.158,0-2.158,1.263a1.069,1.069,0,0,0,.368.863A1.415,1.415,0,0,0,54.12,11.1ZM60,5.132l.032.762A2.536,2.536,0,0,1,62.074,5a1.964,1.964,0,0,1,1.961,1.1,2.6,2.6,0,0,1,.892-.8,2.634,2.634,0,0,1,1.3-.3q2.26,0,2.3,2.393V12H67.349V7.468a1.577,1.577,0,0,0-.336-1.1A1.482,1.482,0,0,0,65.882,6a1.557,1.557,0,0,0-1.085.39,1.584,1.584,0,0,0-.5,1.051V12H63.115V7.5A1.31,1.31,0,0,0,61.648,6a1.571,1.571,0,0,0-1.581.984V12H58.894V5.132ZM71.57,12H70.4V5.132H71.57ZM70.3,3.31a.7.7,0,0,1,.175-.482.655.655,0,0,1,.517-.2.666.666,0,0,1,.521.2.694.694,0,0,1,.178.482.671.671,0,0,1-.178.476.678.678,0,0,1-.521.19.667.667,0,0,1-.517-.19A.678.678,0,0,1,70.3,3.31Zm6,8.817a3,3,0,0,1-2.272-.917,3.4,3.4,0,0,1-.876-2.453V8.541a4.121,4.121,0,0,1,.39-1.825,3.045,3.045,0,0,1,1.092-1.257A2.745,2.745,0,0,1,76.153,5a2.572,2.572,0,0,1,2.082.882,3.82,3.82,0,0,1,.743,2.526V8.9H74.325a2.441,2.441,0,0,0,.594,1.641,1.866,1.866,0,0,0,1.444.625,2.045,2.045,0,0,0,1.054-.254,2.648,2.648,0,0,0,.755-.673l.717.559A2.884,2.884,0,0,1,76.3,12.127ZM76.153,5.97a1.566,1.566,0,0,0-1.193.517,2.515,2.515,0,0,0-.6,1.45H77.8V7.849a2.237,2.237,0,0,0-.482-1.387A1.475,1.475,0,0,0,76.153,5.97Zm5.294-.838L81.485,6A2.5,2.5,0,0,1,83.542,5q2.177,0,2.2,2.457V12H84.563V7.455a1.581,1.581,0,0,0-.34-1.1A1.361,1.361,0,0,0,83.186,6a1.7,1.7,0,0,0-1,.3,2.069,2.069,0,0,0-.673.8V12H80.336V5.132ZM89.1,3.469V5.132h1.282V6.04H89.1V10.3a.953.953,0,0,0,.171.62.721.721,0,0,0,.584.207,2.843,2.843,0,0,0,.559-.076V12a3.424,3.424,0,0,1-.9.126,1.462,1.462,0,0,1-1.187-.476,2.045,2.045,0,0,1-.4-1.352V6.04h-1.25V5.132h1.25V3.469ZM91.317,8.5a4.057,4.057,0,0,1,.4-1.815,2.96,2.96,0,0,1,1.1-1.244A3.007,3.007,0,0,1,94.434,5a2.9,2.9,0,0,1,2.269.971A3.736,3.736,0,0,1,97.57,8.56v.083a4.092,4.092,0,0,1-.384,1.8,2.916,2.916,0,0,1-1.1,1.241,3.041,3.041,0,0,1-1.641.444,2.889,2.889,0,0,1-2.263-.971,3.718,3.718,0,0,1-.866-2.571Zm1.181.14a2.938,2.938,0,0,0,.53,1.834,1.8,1.8,0,0,0,2.841-.01A3.213,3.213,0,0,0,96.4,8.5a2.933,2.933,0,0,0-.536-1.831,1.705,1.705,0,0,0-1.425-.7,1.686,1.686,0,0,0-1.4.692A3.189,3.189,0,0,0,92.5,8.642ZM3.136,28.28l1.6-5.148H5.992L3.231,31.06q-.641,1.714-2.038,1.714l-.222-.019-.438-.083V31.72l.317.025a1.563,1.563,0,0,0,.93-.241,1.746,1.746,0,0,0,.549-.882l.26-.7L.14,23.132H1.422ZM16.06,26.642a4.113,4.113,0,0,1-.717,2.526,2.3,2.3,0,0,1-1.942.958,2.519,2.519,0,0,1-1.968-.793v3.307H10.258V23.132h1.073l.057.762A2.419,2.419,0,0,1,13.381,23a2.342,2.342,0,0,1,1.958.933,4.157,4.157,0,0,1,.72,2.6Zm-1.174-.133a3.035,3.035,0,0,0-.5-1.834A1.6,1.6,0,0,0,13.032,24a1.726,1.726,0,0,0-1.6.946v3.282a1.73,1.73,0,0,0,1.612.939,1.587,1.587,0,0,0,1.343-.67A3.312,3.312,0,0,0,14.885,26.509ZM20.4,30.127a3,3,0,0,1-2.272-.917,3.4,3.4,0,0,1-.876-2.453v-.216a4.121,4.121,0,0,1,.39-1.825,3.045,3.045,0,0,1,1.092-1.257A2.745,2.745,0,0,1,20.255,23a2.572,2.572,0,0,1,2.082.882,3.82,3.82,0,0,1,.743,2.526V26.9H18.427a2.441,2.441,0,0,0,.594,1.641,1.866,1.866,0,0,0,1.444.625,2.045,2.045,0,0,0,1.054-.254,2.648,2.648,0,0,0,.755-.673l.717.559A2.884,2.884,0,0,1,20.4,30.127Zm-.146-6.157a1.566,1.566,0,0,0-1.193.517,2.515,2.515,0,0,0-.6,1.45h3.44v-.089a2.237,2.237,0,0,0-.482-1.387A1.475,1.475,0,0,0,20.255,23.97Zm7.5.216a3.519,3.519,0,0,0-.578-.044,1.547,1.547,0,0,0-1.568.984V30H24.438V23.132h1.143l.019.793A1.829,1.829,0,0,1,27.238,23a1.2,1.2,0,0,1,.521.089Zm5.078,3.993a.865.865,0,0,0-.359-.74,3.452,3.452,0,0,0-1.25-.454,5.912,5.912,0,0,1-1.416-.457,2.014,2.014,0,0,1-.774-.635,1.518,1.518,0,0,1-.251-.876,1.782,1.782,0,0,1,.714-1.428A2.789,2.789,0,0,1,31.326,23a2.87,2.87,0,0,1,1.895.6,1.915,1.915,0,0,1,.727,1.542H32.767a1.06,1.06,0,0,0-.409-.832,1.534,1.534,0,0,0-1.031-.349,1.606,1.606,0,0,0-1,.279.879.879,0,0,0-.362.73.712.712,0,0,0,.336.641,4.139,4.139,0,0,0,1.216.413,6.334,6.334,0,0,1,1.425.47,2.079,2.079,0,0,1,.809.657,1.615,1.615,0,0,1,.263.936,1.758,1.758,0,0,1-.736,1.476,3.089,3.089,0,0,1-1.911.555,3.459,3.459,0,0,1-1.46-.292,2.375,2.375,0,0,1-.993-.816,1.966,1.966,0,0,1-.359-1.133h1.174a1.216,1.216,0,0,0,.473.936,1.835,1.835,0,0,0,1.165.346,1.894,1.894,0,0,0,1.07-.27A.829.829,0,0,0,32.836,28.178ZM35.229,26.5a4.057,4.057,0,0,1,.4-1.815,2.96,2.96,0,0,1,1.1-1.244A3.007,3.007,0,0,1,38.346,23a2.9,2.9,0,0,1,2.269.971,3.736,3.736,0,0,1,.866,2.583v.083a4.092,4.092,0,0,1-.384,1.8A2.916,2.916,0,0,1,40,29.683a3.041,3.041,0,0,1-1.641.444,2.889,2.889,0,0,1-2.263-.971,3.718,3.718,0,0,1-.866-2.571Zm1.181.14a2.938,2.938,0,0,0,.53,1.834,1.8,1.8,0,0,0,2.841-.01,3.213,3.213,0,0,0,.527-1.965,2.933,2.933,0,0,0-.536-1.831,1.705,1.705,0,0,0-1.425-.7,1.686,1.686,0,0,0-1.4.692A3.189,3.189,0,0,0,36.41,26.642Zm7.655-3.51L44.1,24A2.5,2.5,0,0,1,46.16,23q2.177,0,2.2,2.457V30H47.182V25.455a1.581,1.581,0,0,0-.34-1.1A1.361,1.361,0,0,0,45.8,24a1.7,1.7,0,0,0-1,.3,2.069,2.069,0,0,0-.673.8V30H42.955V23.132ZM54.368,30a2.467,2.467,0,0,1-.165-.724,2.62,2.62,0,0,1-1.955.851,2.424,2.424,0,0,1-1.666-.574,1.859,1.859,0,0,1-.651-1.457,1.942,1.942,0,0,1,.816-1.666,3.846,3.846,0,0,1,2.295-.594h1.143V25.3a1.319,1.319,0,0,0-.368-.981,1.48,1.48,0,0,0-1.085-.365,1.712,1.712,0,0,0-1.054.317.935.935,0,0,0-.425.768H50.07a1.621,1.621,0,0,1,.365-.993,2.491,2.491,0,0,1,.99-.759A3.331,3.331,0,0,1,52.8,23a2.715,2.715,0,0,1,1.86.594,2.141,2.141,0,0,1,.7,1.635v3.161a3.865,3.865,0,0,0,.241,1.5V30Zm-1.949-.9a2.064,2.064,0,0,0,1.047-.286,1.728,1.728,0,0,0,.717-.743V26.667h-.92q-2.158,0-2.158,1.263a1.069,1.069,0,0,0,.368.863A1.415,1.415,0,0,0,52.419,29.1Zm6.056.9H57.3V20.25h1.174Zm3.155,0H60.455V23.132h1.174Zm-1.27-8.69a.7.7,0,0,1,.175-.482.655.655,0,0,1,.517-.2.666.666,0,0,1,.521.2.694.694,0,0,1,.178.482.671.671,0,0,1-.178.476.678.678,0,0,1-.521.19.667.667,0,0,1-.517-.19A.678.678,0,0,1,60.36,21.31Zm2.863,5.2a4.023,4.023,0,0,1,.749-2.542,2.548,2.548,0,0,1,3.872-.136V20.25h1.174V30H67.939l-.057-.736a2.391,2.391,0,0,1-1.961.863,2.346,2.346,0,0,1-1.946-.978,4.069,4.069,0,0,1-.752-2.552Zm1.174.133a3.046,3.046,0,0,0,.482,1.828,1.56,1.56,0,0,0,1.333.66,1.713,1.713,0,0,0,1.631-1V24.973A1.726,1.726,0,0,0,66.225,24a1.567,1.567,0,0,0-1.346.667A3.354,3.354,0,0,0,64.4,26.642ZM75.08,30a2.467,2.467,0,0,1-.165-.724,2.62,2.62,0,0,1-1.955.851,2.424,2.424,0,0,1-1.666-.574,1.859,1.859,0,0,1-.651-1.457,1.942,1.942,0,0,1,.816-1.666,3.846,3.846,0,0,1,2.295-.594H74.9V25.3a1.319,1.319,0,0,0-.368-.981,1.48,1.48,0,0,0-1.085-.365,1.712,1.712,0,0,0-1.054.317.935.935,0,0,0-.425.768H70.783a1.621,1.621,0,0,1,.365-.993,2.491,2.491,0,0,1,.99-.759A3.331,3.331,0,0,1,73.512,23a2.715,2.715,0,0,1,1.86.594,2.141,2.141,0,0,1,.7,1.635v3.161a3.865,3.865,0,0,0,.241,1.5V30Zm-1.949-.9a2.064,2.064,0,0,0,1.047-.286,1.728,1.728,0,0,0,.717-.743V26.667h-.92q-2.158,0-2.158,1.263a1.069,1.069,0,0,0,.368.863A1.415,1.415,0,0,0,73.131,29.1Zm4.494-2.6a4.023,4.023,0,0,1,.749-2.542,2.548,2.548,0,0,1,3.872-.136V20.25h1.174V30H82.342l-.057-.736a2.391,2.391,0,0,1-1.961.863,2.346,2.346,0,0,1-1.946-.978,4.069,4.069,0,0,1-.752-2.552Zm1.174.133a3.046,3.046,0,0,0,.482,1.828,1.56,1.56,0,0,0,1.333.66,1.713,1.713,0,0,0,1.631-1V24.973A1.726,1.726,0,0,0,80.628,24a1.567,1.567,0,0,0-1.346.667A3.354,3.354,0,0,0,78.8,26.642Z" transform="translate(456 1429)" fill="#12263f"/>
    <path id="Trazado_149156" data-name="Trazado 149156" d="M56.389,9.067a3.4,3.4,0,0,1-1.082,2.263,3.547,3.547,0,0,1-2.422.8,3.257,3.257,0,0,1-2.625-1.174,4.724,4.724,0,0,1-.987-3.142V6.922a5.266,5.266,0,0,1,.46-2.266,3.438,3.438,0,0,1,1.3-1.5,3.632,3.632,0,0,1,1.955-.524,3.34,3.34,0,0,1,2.361.822,3.441,3.441,0,0,1,1.035,2.276H55.164a2.655,2.655,0,0,0-.689-1.6,2.084,2.084,0,0,0-1.482-.5,2.181,2.181,0,0,0-1.831.864A3.966,3.966,0,0,0,50.5,6.95v.9a4.077,4.077,0,0,0,.628,2.4,2.031,2.031,0,0,0,1.758.889,2.345,2.345,0,0,0,1.558-.46,2.554,2.554,0,0,0,.72-1.6ZM59.144,12H57.969V2.25h1.174ZM62.3,12H61.124V5.132H62.3Zm-1.27-8.69a.7.7,0,0,1,.175-.482.655.655,0,0,1,.517-.2.666.666,0,0,1,.521.2.694.694,0,0,1,.178.482.671.671,0,0,1-.178.476.678.678,0,0,1-.521.19.667.667,0,0,1-.517-.19A.678.678,0,0,1,61.029,3.31Zm6,8.817a3,3,0,0,1-2.272-.917,3.4,3.4,0,0,1-.876-2.453V8.541a4.121,4.121,0,0,1,.39-1.825,3.045,3.045,0,0,1,1.092-1.257A2.745,2.745,0,0,1,66.881,5a2.572,2.572,0,0,1,2.082.882,3.82,3.82,0,0,1,.743,2.526V8.9H65.053a2.441,2.441,0,0,0,.594,1.641,1.866,1.866,0,0,0,1.444.625,2.045,2.045,0,0,0,1.054-.254,2.648,2.648,0,0,0,.755-.673l.717.559A2.884,2.884,0,0,1,67.027,12.127ZM66.881,5.97a1.566,1.566,0,0,0-1.193.517,2.515,2.515,0,0,0-.6,1.45h3.44V7.849a2.237,2.237,0,0,0-.482-1.387A1.475,1.475,0,0,0,66.881,5.97Zm5.294-.838L72.213,6A2.5,2.5,0,0,1,74.27,5q2.177,0,2.2,2.457V12H75.292V7.455a1.581,1.581,0,0,0-.34-1.1A1.361,1.361,0,0,0,73.915,6a1.7,1.7,0,0,0-1,.3,2.069,2.069,0,0,0-.673.8V12H71.064V5.132Zm7.655-1.663V5.132h1.282V6.04H79.831V10.3a.953.953,0,0,0,.171.62.721.721,0,0,0,.584.207,2.843,2.843,0,0,0,.559-.076V12a3.424,3.424,0,0,1-.9.126,1.462,1.462,0,0,1-1.187-.476,2.045,2.045,0,0,1-.4-1.352V6.04h-1.25V5.132h1.25V3.469Zm5.5,8.658a3,3,0,0,1-2.272-.917,3.4,3.4,0,0,1-.876-2.453V8.541a4.121,4.121,0,0,1,.39-1.825,3.045,3.045,0,0,1,1.092-1.257A2.745,2.745,0,0,1,85.188,5a2.572,2.572,0,0,1,2.082.882,3.82,3.82,0,0,1,.743,2.526V8.9H83.36a2.441,2.441,0,0,0,.594,1.641,1.866,1.866,0,0,0,1.444.625,2.045,2.045,0,0,0,1.054-.254,2.648,2.648,0,0,0,.755-.673l.717.559A2.884,2.884,0,0,1,85.334,12.127ZM85.188,5.97a1.566,1.566,0,0,0-1.193.517,2.515,2.515,0,0,0-.6,1.45h3.44V7.849a2.237,2.237,0,0,0-.482-1.387A1.475,1.475,0,0,0,85.188,5.97Z" transform="translate(387 1767)" fill="#12263f"/>
    <path id="Trazado_149154" data-name="Trazado 149154" d="M6.17,7.918H2.292V12H1.073V2.758H6.8v1H2.292V6.922H6.17Zm5.059-1.733a3.519,3.519,0,0,0-.578-.044,1.547,1.547,0,0,0-1.568.984V12H7.909V5.132H9.052l.019.793A1.829,1.829,0,0,1,10.708,5a1.2,1.2,0,0,1,.521.089Zm3.809,5.941a3,3,0,0,1-2.272-.917,3.4,3.4,0,0,1-.876-2.453V8.541a4.121,4.121,0,0,1,.39-1.825,3.045,3.045,0,0,1,1.092-1.257A2.745,2.745,0,0,1,14.892,5a2.572,2.572,0,0,1,2.082.882,3.82,3.82,0,0,1,.743,2.526V8.9H13.063a2.441,2.441,0,0,0,.594,1.641,1.866,1.866,0,0,0,1.444.625,2.045,2.045,0,0,0,1.054-.254,2.648,2.648,0,0,0,.755-.673l.717.559A2.884,2.884,0,0,1,15.038,12.127ZM14.892,5.97a1.566,1.566,0,0,0-1.193.517,2.515,2.515,0,0,0-.6,1.45h3.44V7.849a2.237,2.237,0,0,0-.482-1.387A1.475,1.475,0,0,0,14.892,5.97Zm6.938,5.2a1.692,1.692,0,0,0,1.1-.381,1.34,1.34,0,0,0,.521-.952h1.111a2.13,2.13,0,0,1-.406,1.124,2.676,2.676,0,0,1-1,.851,2.885,2.885,0,0,1-1.323.317,2.829,2.829,0,0,1-2.231-.936,3.729,3.729,0,0,1-.828-2.561v-.2a4.135,4.135,0,0,1,.368-1.784A2.8,2.8,0,0,1,20.2,5.437,3,3,0,0,1,21.823,5a2.755,2.755,0,0,1,1.92.692,2.473,2.473,0,0,1,.816,1.8H23.448a1.618,1.618,0,0,0-.5-1.095,1.57,1.57,0,0,0-1.12-.428,1.644,1.644,0,0,0-1.387.644,3.026,3.026,0,0,0-.492,1.863V8.7a2.966,2.966,0,0,0,.489,1.828A1.651,1.651,0,0,0,21.83,11.168Zm8.29.152a2.494,2.494,0,0,1-2.012.806,2.135,2.135,0,0,1-1.673-.638A2.761,2.761,0,0,1,25.854,9.6V5.132h1.174V9.569q0,1.562,1.27,1.562a1.758,1.758,0,0,0,1.79-1v-5h1.174V12H30.145Zm5.776.806a3,3,0,0,1-2.272-.917,3.4,3.4,0,0,1-.876-2.453V8.541a4.121,4.121,0,0,1,.39-1.825A3.045,3.045,0,0,1,34.23,5.459,2.745,2.745,0,0,1,35.75,5a2.572,2.572,0,0,1,2.082.882,3.82,3.82,0,0,1,.743,2.526V8.9H33.922a2.441,2.441,0,0,0,.594,1.641,1.866,1.866,0,0,0,1.444.625,2.045,2.045,0,0,0,1.054-.254,2.648,2.648,0,0,0,.755-.673l.717.559A2.884,2.884,0,0,1,35.9,12.127ZM35.75,5.97a1.566,1.566,0,0,0-1.193.517,2.515,2.515,0,0,0-.6,1.45H37.4V7.849a2.237,2.237,0,0,0-.482-1.387A1.475,1.475,0,0,0,35.75,5.97Zm5.294-.838L41.082,6A2.5,2.5,0,0,1,43.139,5q2.177,0,2.2,2.457V12H44.161V7.455a1.581,1.581,0,0,0-.34-1.1A1.361,1.361,0,0,0,42.783,6a1.7,1.7,0,0,0-1,.3,2.069,2.069,0,0,0-.673.8V12H39.933V5.132Zm8.817,6.037a1.692,1.692,0,0,0,1.1-.381,1.34,1.34,0,0,0,.521-.952H52.59a2.13,2.13,0,0,1-.406,1.124,2.676,2.676,0,0,1-1,.851,2.885,2.885,0,0,1-1.323.317,2.829,2.829,0,0,1-2.231-.936A3.729,3.729,0,0,1,46.8,8.629v-.2a4.135,4.135,0,0,1,.368-1.784,2.8,2.8,0,0,1,1.057-1.212A3,3,0,0,1,49.854,5a2.755,2.755,0,0,1,1.92.692,2.473,2.473,0,0,1,.816,1.8H51.479a1.618,1.618,0,0,0-.5-1.095,1.57,1.57,0,0,0-1.12-.428,1.644,1.644,0,0,0-1.387.644,3.026,3.026,0,0,0-.492,1.863V8.7a2.965,2.965,0,0,0,.489,1.828A1.651,1.651,0,0,0,49.861,11.168ZM55.187,12H54.012V5.132h1.174Zm-1.27-8.69a.7.7,0,0,1,.175-.482.655.655,0,0,1,.517-.2.666.666,0,0,1,.521.2.694.694,0,0,1,.178.482.671.671,0,0,1-.178.476.678.678,0,0,1-.521.19.667.667,0,0,1-.517-.19A.678.678,0,0,1,53.917,3.31ZM61.306,12a2.467,2.467,0,0,1-.165-.724,2.62,2.62,0,0,1-1.955.851,2.424,2.424,0,0,1-1.666-.574,1.859,1.859,0,0,1-.651-1.457,1.942,1.942,0,0,1,.816-1.666,3.846,3.846,0,0,1,2.295-.594h1.143V7.3a1.319,1.319,0,0,0-.368-.981,1.48,1.48,0,0,0-1.085-.365,1.712,1.712,0,0,0-1.054.317.935.935,0,0,0-.425.768H57.008a1.621,1.621,0,0,1,.365-.993,2.491,2.491,0,0,1,.99-.759A3.331,3.331,0,0,1,59.738,5,2.715,2.715,0,0,1,61.6,5.6a2.141,2.141,0,0,1,.7,1.635v3.161a3.865,3.865,0,0,0,.241,1.5V12Zm-1.949-.9a2.064,2.064,0,0,0,1.047-.286,1.728,1.728,0,0,0,.717-.743V8.667H60.2q-2.158,0-2.158,1.263a1.069,1.069,0,0,0,.368.863A1.415,1.415,0,0,0,59.357,11.1ZM64.1,13.841l-.667-.457a3.063,3.063,0,0,0,.622-1.714V10.61H65.2v.92a2.891,2.891,0,0,1-.314,1.282A3,3,0,0,1,64.1,13.841Zm8.658-1.714a3,3,0,0,1-2.272-.917,3.4,3.4,0,0,1-.876-2.453V8.541A4.121,4.121,0,0,1,70,6.716a3.045,3.045,0,0,1,1.092-1.257A2.745,2.745,0,0,1,72.611,5a2.572,2.572,0,0,1,2.082.882,3.82,3.82,0,0,1,.743,2.526V8.9H70.783a2.441,2.441,0,0,0,.594,1.641,1.866,1.866,0,0,0,1.444.625,2.045,2.045,0,0,0,1.054-.254,2.648,2.648,0,0,0,.755-.673l.717.559A2.884,2.884,0,0,1,72.757,12.127ZM72.611,5.97a1.566,1.566,0,0,0-1.193.517,2.515,2.515,0,0,0-.6,1.45h3.44V7.849a2.237,2.237,0,0,0-.482-1.387A1.475,1.475,0,0,0,72.611,5.97ZM77.9,5.132,77.943,6A2.5,2.5,0,0,1,80,5q2.177,0,2.2,2.457V12H81.021V7.455a1.581,1.581,0,0,0-.34-1.1A1.361,1.361,0,0,0,79.644,6a1.7,1.7,0,0,0-1,.3,2.069,2.069,0,0,0-.673.8V12H76.794V5.132ZM85.56,3.469V5.132h1.282V6.04H85.56V10.3a.953.953,0,0,0,.171.62.721.721,0,0,0,.584.207,2.843,2.843,0,0,0,.559-.076V12a3.424,3.424,0,0,1-.9.126,1.462,1.462,0,0,1-1.187-.476,2.045,2.045,0,0,1-.4-1.352V6.04h-1.25V5.132h1.25V3.469Zm5.973,2.717a3.519,3.519,0,0,0-.578-.044,1.547,1.547,0,0,0-1.568.984V12H88.213V5.132h1.143l.019.793A1.829,1.829,0,0,1,91.013,5a1.2,1.2,0,0,1,.521.089Zm3.809,5.941a3,3,0,0,1-2.272-.917,3.4,3.4,0,0,1-.876-2.453V8.541a4.121,4.121,0,0,1,.39-1.825,3.045,3.045,0,0,1,1.092-1.257A2.745,2.745,0,0,1,95.2,5a2.572,2.572,0,0,1,2.082.882,3.82,3.82,0,0,1,.743,2.526V8.9H93.368a2.441,2.441,0,0,0,.594,1.641,1.866,1.866,0,0,0,1.444.625,2.045,2.045,0,0,0,1.054-.254,2.648,2.648,0,0,0,.755-.673l.717.559A2.884,2.884,0,0,1,95.342,12.127ZM95.2,5.97A1.566,1.566,0,0,0,94,6.487a2.515,2.515,0,0,0-.6,1.45h3.44V7.849a2.237,2.237,0,0,0-.482-1.387A1.475,1.475,0,0,0,95.2,5.97ZM.578,26.5a4.057,4.057,0,0,1,.4-1.815,2.96,2.96,0,0,1,1.1-1.244A3.007,3.007,0,0,1,3.694,23a2.9,2.9,0,0,1,2.269.971A3.736,3.736,0,0,1,6.83,26.56v.083a4.092,4.092,0,0,1-.384,1.8,2.916,2.916,0,0,1-1.1,1.241,3.041,3.041,0,0,1-1.641.444,2.889,2.889,0,0,1-2.263-.971,3.718,3.718,0,0,1-.866-2.571Zm1.181.14a2.938,2.938,0,0,0,.53,1.834,1.7,1.7,0,0,0,1.419.692,1.686,1.686,0,0,0,1.422-.7A3.213,3.213,0,0,0,5.656,26.5a2.933,2.933,0,0,0-.536-1.831,1.705,1.705,0,0,0-1.425-.7,1.686,1.686,0,0,0-1.4.692A3.189,3.189,0,0,0,1.758,26.642ZM9.9,21.469v1.663h1.282v.908H9.9V28.3a.953.953,0,0,0,.171.62.721.721,0,0,0,.584.207,2.843,2.843,0,0,0,.559-.076V30a3.424,3.424,0,0,1-.9.126,1.462,1.462,0,0,1-1.187-.476,2.045,2.045,0,0,1-.4-1.352V24.04H7.471v-.908h1.25V21.469Zm5.973,2.717a3.519,3.519,0,0,0-.578-.044,1.547,1.547,0,0,0-1.568.984V30H12.549V23.132h1.143l.019.793A1.829,1.829,0,0,1,15.349,23a1.2,1.2,0,0,1,.521.089ZM20.935,30a2.467,2.467,0,0,1-.165-.724,2.62,2.62,0,0,1-1.955.851,2.424,2.424,0,0,1-1.666-.574A1.859,1.859,0,0,1,16.5,28.1a1.942,1.942,0,0,1,.816-1.666,3.846,3.846,0,0,1,2.295-.594H20.75V25.3a1.319,1.319,0,0,0-.368-.981,1.48,1.48,0,0,0-1.085-.365,1.712,1.712,0,0,0-1.054.317.935.935,0,0,0-.425.768H16.637A1.621,1.621,0,0,1,17,24.043a2.491,2.491,0,0,1,.99-.759A3.331,3.331,0,0,1,19.367,23a2.715,2.715,0,0,1,1.86.594,2.141,2.141,0,0,1,.7,1.635v3.161a3.865,3.865,0,0,0,.241,1.5V30Zm-1.949-.9a2.064,2.064,0,0,0,1.047-.286,1.728,1.728,0,0,0,.717-.743V26.667h-.92q-2.158,0-2.158,1.263a1.069,1.069,0,0,0,.368.863A1.415,1.415,0,0,0,18.986,29.1Zm8.779-.927a.864.864,0,0,0-.359-.74,3.452,3.452,0,0,0-1.25-.454,5.912,5.912,0,0,1-1.416-.457,2.014,2.014,0,0,1-.774-.635,1.518,1.518,0,0,1-.251-.876,1.782,1.782,0,0,1,.714-1.428A2.789,2.789,0,0,1,26.254,23a2.87,2.87,0,0,1,1.895.6,1.915,1.915,0,0,1,.727,1.542H27.695a1.06,1.06,0,0,0-.409-.832,1.534,1.534,0,0,0-1.031-.349,1.606,1.606,0,0,0-1,.279.879.879,0,0,0-.362.73.712.712,0,0,0,.336.641,4.139,4.139,0,0,0,1.216.413,6.334,6.334,0,0,1,1.425.47,2.079,2.079,0,0,1,.809.657,1.615,1.615,0,0,1,.263.936,1.758,1.758,0,0,1-.736,1.476,3.089,3.089,0,0,1-1.911.555,3.459,3.459,0,0,1-1.46-.292,2.375,2.375,0,0,1-.993-.816,1.966,1.966,0,0,1-.359-1.133h1.174a1.216,1.216,0,0,0,.473.936,1.835,1.835,0,0,0,1.165.346,1.894,1.894,0,0,0,1.07-.27A.829.829,0,0,0,27.765,28.178Zm2.729,1.206a.735.735,0,0,1,.181-.508.689.689,0,0,1,.543-.2.71.71,0,0,1,.549.2.721.721,0,0,1,.187.508.681.681,0,0,1-.187.489.723.723,0,0,1-.549.2.653.653,0,0,1-.724-.686Z" transform="translate(616 1489)" fill="#12263f"/>
  </g>
</svg>
