<svg xmlns="http://www.w3.org/2000/svg" xmlns:xlink="http://www.w3.org/1999/xlink" width="157" height="157" viewBox="0 0 157 157">
  <defs>
    <filter id="Elipse_4709" x="0" y="0" width="157" height="157" filterUnits="userSpaceOnUse">
      <feOffset dy="3" input="SourceAlpha"/>
      <feGaussianBlur stdDeviation="3" result="blur"/>
      <feFlood flood-opacity="0.161"/>
      <feComposite operator="in" in2="blur"/>
      <feComposite in="SourceGraphic"/>
    </filter>
  </defs>
  <g id="Grupo_92621" data-name="Grupo 92621" transform="translate(-319 -1351)">
    <g transform="matrix(1, 0, 0, 1, 319, 1351)" filter="url(#Elipse_4709)">
      <g id="Elipse_4709-2" data-name="Elipse 4709" transform="translate(9 6)" fill="#3e2ea6" stroke="#fff" stroke-width="5">
        <circle cx="69.5" cy="69.5" r="69.5" stroke="none"/>
        <circle cx="69.5" cy="69.5" r="67" fill="none"/>
      </g>
    </g>
    <g id="Grupo_92405" data-name="Grupo 92405" transform="translate(-37.338 1243.747)">
      <g id="Grupo_92403" data-name="Grupo 92403" transform="translate(-8.767 -4)">
        <g id="Grupo_92395" data-name="Grupo 92395" transform="translate(404.506 161.864)">
          <g id="Grupo_92394" data-name="Grupo 92394" transform="translate(14.201)">
            <path id="Trazado_148732" data-name="Trazado 148732" d="M463.638,211.272V175.6h13.837s.021,36.232,0,36.384a6.908,6.908,0,0,1-6.169,6.169c-.016,0-.62,0-1.679,0A6.952,6.952,0,0,1,463.638,211.272Z" transform="translate(-413.133 -158.437)" fill="#e9edfb"/>
            <path id="Trazado_148733" data-name="Trazado 148733" d="M426.655,219.705a9.171,9.171,0,0,1-9.171-9.171V160.918l43.954-1a6.55,6.55,0,0,1,6.55,6.55V212.75a7.009,7.009,0,0,0,6.955,6.955Z" transform="translate(-417.484 -159.916)" fill="#d0dbf8"/>
          </g>
          <path id="Trazado_148734" data-name="Trazado 148734" d="M460.915,160.024a5.394,5.394,0,0,0-5.406,5.395V204.21h-51V167.137a7.122,7.122,0,0,1,7.124-7.113Z" transform="translate(-404.506 -159.906)" fill="#e9edfb"/>
        </g>
        <g id="Grupo_92400" data-name="Grupo 92400" transform="translate(409.307 171.491)">
          <g id="Grupo_92396" data-name="Grupo 92396" transform="translate(0 20.796)">
            <rect id="Rectángulo_34623" data-name="Rectángulo 34623" width="9.153" height="2.74" transform="translate(32.284)" fill="#aebbed"/>
            <rect id="Rectángulo_34624" data-name="Rectángulo 34624" width="29.602" height="2.74" transform="translate(0 0.058)" fill="#aebbed"/>
          </g>
          <g id="Grupo_92397" data-name="Grupo 92397" transform="translate(0 8.177)">
            <path id="Trazado_148735" data-name="Trazado 148735" d="M425.823,178.969l22.911-.043v-2.74l-22.911.043Z" transform="translate(-407.297 -176.187)" fill="#aebbed"/>
            <path id="Trazado_148736" data-name="Trazado 148736" d="M408.893,178.98l15.844.043v-2.74l-15.844-.043Z" transform="translate(-408.893 -176.181)" fill="#aebbed"/>
          </g>
          <g id="Grupo_92398" data-name="Grupo 92398" transform="translate(0 14.465)">
            <rect id="Rectángulo_34625" data-name="Rectángulo 34625" width="18.101" height="2.74" transform="translate(23.336)" fill="#aebbed"/>
            <rect id="Rectángulo_34626" data-name="Rectángulo 34626" width="7.818" height="2.74" transform="translate(12.717 0.058)" fill="#aebbed"/>
            <rect id="Rectángulo_34627" data-name="Rectángulo 34627" width="9.849" height="2.74" transform="translate(0 0.058)" fill="#fa4a56"/>
          </g>
          <g id="Grupo_92399" data-name="Grupo 92399">
            <path id="Trazado_148737" data-name="Trazado 148737" d="M449.235,168.714l-28.72.058v2.74l28.72-.058Z" transform="translate(-407.798 -168.714)" fill="#aebbed"/>
            <rect id="Rectángulo_34628" data-name="Rectángulo 34628" width="9.849" height="2.74" transform="translate(0 0.058)" fill="#aebbed"/>
          </g>
        </g>
        <g id="Grupo_92402" data-name="Grupo 92402" transform="translate(413.315 139.253)">
          <g id="Grupo_92401" data-name="Grupo 92401">
            <path id="Trazado_148738" data-name="Trazado 148738" d="M412.556,182.393l2.5-5.34,3.126,2.117-3.322,3.223Z" transform="translate(-412.556 -135.69)" fill="#fa4a56"/>
            <path id="Trazado_148739" data-name="Trazado 148739" d="M447.154,146.872l-1.164,1.771-19.766,30.3-1.844-1.227q-.962.771-1.8,1.544a33,33,0,0,0-4.089,4.558l-5.051-3.146a37.274,37.274,0,0,0,2.672-5.644c.268-.733.514-1.517.727-2.327,0-.049-1.9-1.27-1.9-1.27l19.843-30.405,1.164-1.772Z" transform="translate(-412.472 -139.253)" fill="#5a43db"/>
            <path id="Trazado_148740" data-name="Trazado 148740" d="M422.351,176.379q.837-.771,1.8-1.544l-7.541-5.016c-.212.811-.459,1.594-.727,2.327Z" transform="translate(-412.242 -136.372)" fill="#3c2da1"/>
          </g>
          <path id="Trazado_148741" data-name="Trazado 148741" d="M434.106,139.253l11.21,7.619-1.164,1.771-11.21-7.619Z" transform="translate(-410.634 -139.253)" fill="#3c2da1"/>
        </g>
      </g>
    </g>
  </g>
</svg>
