<svg xmlns="http://www.w3.org/2000/svg" width="63.086" height="57.471" viewBox="0 0 63.086 57.471">
  <g id="Grupo_92595" data-name="Grupo 92595" transform="translate(-1112.497 -419.475)">
    <path id="Trazado_149097" data-name="Trazado 149097" d="M1114.108,433.659l3.6,26.014a5.428,5.428,0,0,0,5.382,4.717h35.9a5.428,5.428,0,0,0,5.381-4.717l3.6-26.014Zm30.249,5.644h5.427a1.206,1.206,0,0,1,1.206,1.206v5.428a1.206,1.206,0,0,1-1.206,1.206h-5.427a1.206,1.206,0,0,1-1.207-1.206v-5.428A1.206,1.206,0,0,1,1144.357,439.3Zm-12.062,0h5.427a1.206,1.206,0,0,1,1.206,1.206v5.428a1.206,1.206,0,0,1-1.206,1.206H1132.3a1.206,1.206,0,0,1-1.207-1.206v-5.428A1.206,1.206,0,0,1,1132.3,439.3Zm-13.268,6.634v-5.428a1.206,1.206,0,0,1,1.206-1.206h5.427a1.206,1.206,0,0,1,1.207,1.206v5.428a1.206,1.206,0,0,1-1.207,1.206h-5.427A1.206,1.206,0,0,1,1119.027,445.937Zm12.665,14.034h-5.428a1.206,1.206,0,0,1-1.206-1.206v-5.427a1.206,1.206,0,0,1,1.206-1.206h5.428a1.206,1.206,0,0,1,1.207,1.206v5.427A1.206,1.206,0,0,1,1131.691,459.971Zm12.062,0h-5.427a1.206,1.206,0,0,1-1.207-1.206v-5.427a1.206,1.206,0,0,1,1.207-1.206h5.427a1.206,1.206,0,0,1,1.206,1.206v5.427A1.206,1.206,0,0,1,1143.753,459.971Zm12.062,0h-5.427a1.206,1.206,0,0,1-1.206-1.206v-5.427a1.206,1.206,0,0,1,1.206-1.206h5.427a1.206,1.206,0,0,1,1.206,1.206v5.427A1.206,1.206,0,0,1,1155.815,459.971Zm6.031-12.828h-5.427a1.206,1.206,0,0,1-1.206-1.206v-5.428a1.206,1.206,0,0,1,1.206-1.206h5.427a1.206,1.206,0,0,1,1.207,1.206v5.428A1.206,1.206,0,0,1,1161.846,447.143Zm10.736-21.393v3.667a3.015,3.015,0,0,1-3.016,3.015h-57.054a3.015,3.015,0,0,1-3.016-3.015v-3.667a3.016,3.016,0,0,1,3.016-3.016h10.916l4.92,5.508a4.933,4.933,0,0,0,8.1-5.508h9.182a4.933,4.933,0,0,0,4.381,7.2h0a4.932,4.932,0,0,0,3.719-1.691l4.92-5.508h10.916A3.016,3.016,0,0,1,1172.583,425.751Zm-38.077,2.059h0a3.719,3.719,0,0,1-5.247-.369l-12.831-14.363a3.718,3.718,0,0,1,.368-5.247h0a3.718,3.718,0,0,1,5.247.368l12.831,14.363A3.718,3.718,0,0,1,1134.505,427.809Zm12.7-5.247,12.831-14.363a3.72,3.72,0,0,1,5.247-.369h0a3.719,3.719,0,0,1,.368,5.248l-12.831,14.363a3.718,3.718,0,0,1-5.247.368h0A3.717,3.717,0,0,1,1147.206,422.563Z" transform="translate(3 12.556)" fill="#ef6c00"/>
  </g>
</svg>
