<svg xmlns="http://www.w3.org/2000/svg" width="46.522" height="65.821" viewBox="0 0 46.522 65.821">
  <g id="Grupo_92597" data-name="Grupo 92597" transform="translate(-1020.805 -403.84)">
    <path id="Trazado_149099" data-name="Trazado 149099" d="M1067.326,461.078l-2.111-42.366a1.244,1.244,0,0,0-1.286-1.131h-8.848v-5.786c0-4.385-3.892-7.954-8.678-7.954a8.623,8.623,0,0,0-8.322,5.706c-3.177.974-5.423,3.329-5.423,6.074v1.961h-2.664a1.333,1.333,0,0,0-1,.441,1.111,1.111,0,0,0-.265.932,1.094,1.094,0,0,0,.019.48l.59,2.159-5.684,3.455c-.024.01-.042.025-.064.035-.043.021-.084.044-.124.068s-.061.044-.09.066-.064.052-.094.08-.053.055-.078.084-.05.061-.075.093-.039.061-.057.092a1.123,1.123,0,0,0-.055.108,1,1,0,0,0-.039.1c-.01.037-.022.074-.03.112s-.014.077-.019.117c0,.02-.008.04-.009.061l-2.112,42.366a1.126,1.126,0,0,0,.358.866,1.346,1.346,0,0,0,.929.363h35.922a1.438,1.438,0,0,0,.232-.021l.057-.011a1.486,1.486,0,0,0,.2-.058l.015-.006a1.32,1.32,0,0,0,.2-.1l.046-.029a1.272,1.272,0,0,0,.161-.126l.015-.011,0,0a1.2,1.2,0,0,0,.144-.167c.011-.016.021-.032.031-.049s.031-.045.045-.069l2.742-5.025,4.625-1.767A1.177,1.177,0,0,0,1067.326,461.078ZM1046.4,406.2a5.871,5.871,0,0,1,6.1,5.593v5.786h-2.493v-1.961c0-3.613-3.893-6.554-8.678-6.554-.087,0-.173,0-.26,0A6.213,6.213,0,0,1,1046.4,406.2Zm-6.1,5.593c0-.1,0-.206.01-.307a8.824,8.824,0,0,1,1.026-.061c3.364,0,6.1,1.882,6.1,4.194v1.961H1040.3Zm-5.067,3.826a3.99,3.99,0,0,1,2.492-3.377v5.338h-2.492Zm-11.8,51.682,2-40.006h7.2v3.188a2.131,2.131,0,1,0,2.456,0v-3.188h12.059v3.188a2.131,2.131,0,1,0,2.456,0v-3.188h5.065l2,40.006Zm37.043-5.328a1.251,1.251,0,0,0-.656.561l-.724,1.328-1.906-37.8a.268.268,0,0,0,0-.028,1.034,1.034,0,0,0-.03-.187l0-.018a1.017,1.017,0,0,0-.071-.186c-.008-.018-.017-.036-.026-.052s-.017-.036-.027-.054l-1.386-2.285,7.087-2.437,1.984,39.535Z" transform="translate(0 0)" fill="#ef6c00"/>
  </g>
</svg>
