<svg xmlns="http://www.w3.org/2000/svg" width="1050" height="286" viewBox="0 0 1050 286">
  <g id="Grupo_92598" data-name="Grupo 92598" transform="translate(-265 -2645)">
    <rect id="Rectángulo_34269" data-name="Rectángulo 34269" width="412" height="286" transform="translate(594 2645)" fill="#f9f8ff"/>
    <rect id="Rectángulo_34270" data-name="Rectángulo 34270" width="329" height="286" transform="translate(265 2645)" fill="#8a7cbf"/>
    <rect id="Rectángulo_34294" data-name="Rectángulo 34294" width="309" height="286" transform="translate(1006 2645)" fill="#8a7cbf"/>
    <path id="Polígono_4" data-name="Polígono 4" d="M67.5,0,135,67H0Z" transform="translate(971 2851) rotate(-90)" fill="#8a7cbf"/>
    <path id="Polígono_5" data-name="Polígono 5" d="M67.5,0,135,67H0Z" transform="translate(628 2721) rotate(90)" fill="#8a7cbf"/>
    <g id="Grupo_88333" data-name="Grupo 88333" transform="translate(633.605 2675.811)">
      <g id="freepik--Puzzle--inject-5" transform="translate(0 44.779)">
        <path id="Trazado_145061" data-name="Trazado 145061" d="M-5571.949-608.559a17.624,17.624,0,0,1,8.9,1.953,9.927,9.927,0,0,0,4.048.991l3.614-.077.047-40.188a6.891,6.891,0,0,0-6.909-6.873h-.005l-38.205.143v-.8a10.683,10.683,0,0,1,1.121-4.647,21.146,21.146,0,0,0,1.817-12.9,21.481,21.481,0,0,0-24.938-17.346,21.48,21.48,0,0,0-17.684,21.02,21.016,21.016,0,0,0,1.84,8.535,10.61,10.61,0,0,1,.956,4.3l.226,1.81h-46.04a6.891,6.891,0,0,0-6.915,6.867h0v39.3h-3.282a10.009,10.009,0,0,1-4.392-1.062,20.777,20.777,0,0,0-12.464-1.715,20.328,20.328,0,0,0-16.376,23.628,20.326,20.326,0,0,0,19.854,16.7,19.958,19.958,0,0,0,8.126-1.727,10.1,10.1,0,0,1,4.072-.9h4.214l.083,48.076a5.614,5.614,0,0,0,5.631,5.6h123.247c3.109,0,5.55-3.905,5.55-7v-43.66h-4.986a8.978,8.978,0,0,0-3.366.659,18.654,18.654,0,0,1-24.268-10.345,18.653,18.653,0,0,1-1.336-7.621C-5589.393-595.187-5581.32-607.906-5571.949-608.559Z" transform="translate(5727.018 688.757)" fill="#e0e0e0"/>
        <path id="Trazado_145062" data-name="Trazado 145062" d="M-5572.018-608.636l-.326.042a9.309,9.309,0,0,0-.968.148,13.286,13.286,0,0,0-3.614,1.282c-3.009,1.537-6.95,5.039-9.924,10.891a25.974,25.974,0,0,0-2.92,10.452,19.23,19.23,0,0,0,.849,6.179,18.339,18.339,0,0,0,3.163,5.965,18.516,18.516,0,0,0,12.98,6.915,18.153,18.153,0,0,0,8.155-1.122,9.762,9.762,0,0,1,4.273-.807h4.564v43.345a8.5,8.5,0,0,1-.106,1.6,8.36,8.36,0,0,1-.439,1.549,8.144,8.144,0,0,1-1.715,2.748,5.057,5.057,0,0,1-2.855,1.6c-.594.059-1.1.036-1.656.042h-118.474c-1.395,0-2.771.03-4.2-.03a5.791,5.791,0,0,1-5.2-5.935v-12.82q0-17.212-.065-35.048l.154.154h-2.628a25.758,25.758,0,0,0-2.624.059,9.956,9.956,0,0,0-2.535.647,26.336,26.336,0,0,1-2.5.967,20.178,20.178,0,0,1-20.375-4.95,20.513,20.513,0,0,1-3.413-4.434,19.783,19.783,0,0,1-1.187-2.546c-.166-.439-.362-.866-.494-1.318l-.373-1.365a20.458,20.458,0,0,1,10.505-23.148,20.494,20.494,0,0,1,6.38-1.988,21.116,21.116,0,0,1,6.695.154,21.459,21.459,0,0,1,3.223.872c.528.19,1.044.4,1.549.635a15.227,15.227,0,0,0,1.507.647c2.048.807,4.286.516,6.47.593l-.154.154v-37.481a19.084,19.084,0,0,1,.125-3.074,6.815,6.815,0,0,1,1.217-2.831,7.027,7.027,0,0,1,5.229-2.89h46.533l-.137.154c-.077-.594-.154-1.187-.226-1.781h0a10.278,10.278,0,0,0-.552-3.247c-.172-.522-.4-1.015-.594-1.537s-.4-1.039-.594-1.567a21.376,21.376,0,0,1-1.027-6.529l.089-1.638a3.769,3.769,0,0,1,.06-.819l.13-.813c.1-.534.148-1.08.291-1.6l.439-1.573a4.428,4.428,0,0,1,.261-.766l.3-.754a10.318,10.318,0,0,1,.659-1.478l.748-1.43.884-1.436a20.871,20.871,0,0,1,4.356-4.606l.594-.5.659-.433c.445-.285.872-.593,1.323-.849a23.5,23.5,0,0,1,2.82-1.335,21.519,21.519,0,0,1,5.988-1.43,20.2,20.2,0,0,1,3.051-.047c.5.03,1.009.041,1.513.095l1.49.225a21.8,21.8,0,0,1,10.481,5.241,21.321,21.321,0,0,1,6.529,20.465,22.5,22.5,0,0,1-1.781,5.033,10.8,10.8,0,0,0-.777,2.475,12.726,12.726,0,0,0-.16,2.57l-.112-.113,29.082-.1h8.221c.534,0,1.063,0,1.6.03a7.1,7.1,0,0,1,2.967,1.009,6.919,6.919,0,0,1,3.259,4.956,27.435,27.435,0,0,1,.071,2.938v2.849c-.03,15.022-.054,26.964-.071,35.368v.042h-.047c-1.455,0-2.807.089-4.078.059a10.138,10.138,0,0,1-3.383-.884,22.215,22.215,0,0,0-4.992-1.781,15.147,15.147,0,0,0-3.1-.332h-1.027a9.409,9.409,0,0,1,1.027-.042,14.867,14.867,0,0,1,3.117.309,22.319,22.319,0,0,1,5.009,1.781,10.335,10.335,0,0,0,3.359.867c1.259,0,2.618-.047,4.072-.071l-.042.048v-38.229a26.873,26.873,0,0,0-.071-2.914,6.764,6.764,0,0,0-3.182-4.831,6.856,6.856,0,0,0-2.909-.973c-.522-.042-1.05-.036-1.584-.03h-8.245l-29.083.119h-.106v-.107a12.476,12.476,0,0,1,.16-2.612,11.59,11.59,0,0,1,.79-2.528,21.779,21.779,0,0,0,1.781-4.986,21.11,21.11,0,0,0-6.458-20.233,21.541,21.541,0,0,0-10.369-5.176l-1.472-.22c-.5-.053-1-.065-1.5-.095a19.659,19.659,0,0,0-3.009.047,21.151,21.151,0,0,0-5.936,1.419,22.657,22.657,0,0,0-2.79,1.318c-.445.267-.866.594-1.306.843l-.647.427-.593.493a20.778,20.778,0,0,0-4.3,4.552l-.873,1.318-.742,1.413a10.762,10.762,0,0,0-.647,1.46l-.291.742a4.455,4.455,0,0,0-.261.76l-.427,1.549c-.143.516-.19,1.056-.291,1.585l-.131.8c-.035.267-.035.54-.053.807l-.088,1.62a20.959,20.959,0,0,0,1.015,6.446,15.3,15.3,0,0,0,.593,1.555,15.77,15.77,0,0,1,.629,1.549,10.4,10.4,0,0,1,.594,3.336h0c.077.593.148,1.187.231,1.81v.154h-.16l-46.515.036a6.73,6.73,0,0,0-5.009,2.772,6.537,6.537,0,0,0-1.187,2.707,19.465,19.465,0,0,0-.113,3.068v37.647h-3.443a9.865,9.865,0,0,1-3.288-.593c-.522-.178-1.039-.433-1.531-.659a12.813,12.813,0,0,0-1.52-.594,20.168,20.168,0,0,0-3.182-.861,20.831,20.831,0,0,0-6.594-.154,20.121,20.121,0,0,0-17.03,22.8c.095.655.223,1.305.381,1.947l.362,1.341c.131.445.327.867.487,1.3a19.225,19.225,0,0,0,1.188,2.5,20.26,20.26,0,0,0,12.8,9.633,19.849,19.849,0,0,0,10.624-.386,25.731,25.731,0,0,0,2.487-.962,10.59,10.59,0,0,1,2.61-.671c.9-.1,1.781-.047,2.66-.059h2.783v.178q0,17.806.06,35.048v12.82a5.484,5.484,0,0,0,4.932,5.615c1.371.053,2.79,0,4.155.03h118.492a14.5,14.5,0,0,0,1.621-.036,4.794,4.794,0,0,0,2.717-1.519,7.931,7.931,0,0,0,1.668-2.671,8.46,8.46,0,0,0,.434-1.508,8.563,8.563,0,0,0,.1-1.561v-43.262l.095.1h-4.469a9.506,9.506,0,0,0-4.214.789,18.5,18.5,0,0,1-8.232,1.122,18.645,18.645,0,0,1-13.057-6.992,18.4,18.4,0,0,1-3.182-6.018,19.185,19.185,0,0,1-.807-6.2,26.107,26.107,0,0,1,2.968-10.476c2.968-5.858,6.962-9.366,9.989-10.885a13.174,13.174,0,0,1,3.632-1.27,8.681,8.681,0,0,1,.968-.131Z" transform="translate(5727.087 688.834)" fill="#263238"/>
        <path id="Trazado_145063" data-name="Trazado 145063" d="M-5320.626-582.038a20.566,20.566,0,0,0-8.393,1.781,10.8,10.8,0,0,1-2.807.825v-42.241a5.621,5.621,0,0,0-5.615-5.627h-43.969v4.986a9.074,9.074,0,0,0,.659,3.359,18.427,18.427,0,0,1,1.36,6.956,18.667,18.667,0,0,1-18.65,18.684,18.667,18.667,0,0,1-18.684-18.65,18.675,18.675,0,0,1,1.751-7.91,9.188,9.188,0,0,0,.914-3.929v-3.5l-44.515-.142a6.915,6.915,0,0,0-6.915,6.915l-.042,39.173h-3.039a10.121,10.121,0,0,1-1.039-.036,22.744,22.744,0,0,0-31.774,5,22.744,22.744,0,0,0,5,31.774,22.742,22.742,0,0,0,24.67,1.363,8.732,8.732,0,0,1,1.84-.2h3.9v43.725a6.915,6.915,0,0,0,6.915,6.915h121.608a5.627,5.627,0,0,0,5.627-5.627v-44.52a11.091,11.091,0,0,1,2.183.8,20.61,20.61,0,0,0,12.607,1.781,20.987,20.987,0,0,0,16.938-24.372,20.988,20.988,0,0,0-20.5-17.27Z" transform="translate(5637.116 663.88)" fill="#f5f5f5"/>
        <path id="Trazado_145064" data-name="Trazado 145064" d="M-5320.739-582.147l1.323.059a10.9,10.9,0,0,1,1.626.154l1.039.172a7.386,7.386,0,0,1,1.187.267l1.317.362c.457.154.926.356,1.425.546.243.1.5.19.76.3l.761.4a13.991,13.991,0,0,1,1.591.89,20.986,20.986,0,0,1,9.8,16.423c0,.51.071,1.021.071,1.543s-.054,1.039-.083,1.573a3.581,3.581,0,0,1-.06.8c-.06.261-.077.534-.118.8l-.125.813c-.065.261-.125.534-.19.8a21.273,21.273,0,0,1-7.638,11.823,21.267,21.267,0,0,1-7.069,3.561c-.653.2-1.336.3-2.012.463a12.2,12.2,0,0,1-2.084.249,20.3,20.3,0,0,1-4.279-.124,20.52,20.52,0,0,1-4.279-1.045,42.845,42.845,0,0,0-4.191-1.643l.119-.095v44.265a7.464,7.464,0,0,1-.028.8,6.231,6.231,0,0,1-.131.8,5.769,5.769,0,0,1-4.416,4.291,7.923,7.923,0,0,1-1.632.125h-120.48a9.831,9.831,0,0,1-2.083-.142,7.563,7.563,0,0,1-1.977-.724,7.169,7.169,0,0,1-2.9-3.009,6.825,6.825,0,0,1-.658-2.012,12.559,12.559,0,0,1-.106-2.107v-42.781l.154.148h-4.268a9.136,9.136,0,0,0-1.442.19h.042a22.854,22.854,0,0,1-9.254,2.926,22.874,22.874,0,0,1-23.741-15.36,23.554,23.554,0,0,1-1.252-7.247,24.507,24.507,0,0,1,1.1-7.241,22.783,22.783,0,0,1,3.295-6.481,24.753,24.753,0,0,1,2.374-2.766l1.347-1.223c.451-.4.961-.736,1.438-1.1a23.755,23.755,0,0,1,6.427-3.235,25.207,25.207,0,0,1,7.08-1.057,22.8,22.8,0,0,1,13.3,4.392l-.077-.03c1.341.065,2.713,0,4.066.036l-.155.148q0-12.553.029-24.774v-13.633c0-.5,0-1,.041-1.513a7.077,7.077,0,0,1,5.823-6.2,19.382,19.382,0,0,1,2.968-.107h8.79l11.538.042,22.43.071h.137v3.276a9.386,9.386,0,0,1-.439,3.116,12.522,12.522,0,0,1-.593,1.454c-.214.463-.4.938-.594,1.419a18.518,18.518,0,0,0,4.539,19.355,19.185,19.185,0,0,0,4.7,3.371,18.257,18.257,0,0,0,11.027,1.781,18.536,18.536,0,0,0,9.781-4.671,18.159,18.159,0,0,0,3.377-4.155,17.561,17.561,0,0,0,2.029-4.849,18.228,18.228,0,0,0-.219-10.143c-.227-.807-.595-1.561-.837-2.374a9.2,9.2,0,0,1-.339-2.5v-5.039h43a16.734,16.734,0,0,1,1.717.041,6.038,6.038,0,0,1,1.649.445,5.741,5.741,0,0,1,3.413,5.271v6.19c0,16.025,0,28.234-.036,36.015l-.047-.042c1.982-.255,3.471-1.217,4.878-1.6a20.751,20.751,0,0,1,3.52-.8q1.052-.135,2.112-.166h0a21,21,0,0,0-5.614,1c-1.395.386-2.884,1.359-4.884,1.626h-.043v-.042c0-7.781,0-19.978-.041-36.015v-6.19a5.561,5.561,0,0,0-3.312-5.11,5.722,5.722,0,0,0-1.6-.433c-.551-.053-1.127-.036-1.7-.036h-42.9l.113-.107v4.926a8.882,8.882,0,0,0,.332,2.445c.221.789.594,1.555.837,2.374a18.465,18.465,0,0,1,.232,10.274,17.82,17.82,0,0,1-2.055,4.908,18.216,18.216,0,0,1-3.418,4.2,18.752,18.752,0,0,1-9.912,4.748,18.5,18.5,0,0,1-11.183-1.81,19.424,19.424,0,0,1-4.747-3.419,18.892,18.892,0,0,1-3.532-4.784,18.533,18.533,0,0,1-1.026-14.838c.178-.487.368-.973.593-1.442a11.932,11.932,0,0,0,.594-1.424,9.176,9.176,0,0,0,.428-3.033V-627.5l.137.137-22.43-.065-11.539-.036h-8.831a19.181,19.181,0,0,0-2.925.095,6.785,6.785,0,0,0-5.574,5.935c-.042.481-.047.979-.042,1.484v1.5q0,6.018,0,12.132,0,12.215,0,24.78v.148h-.154c-1.358,0-2.7.036-4.089-.036h-.042l-.041-.03a22.552,22.552,0,0,0-13.116-4.333,25.2,25.2,0,0,0-6.986,1.045,23.36,23.36,0,0,0-6.38,3.276c-.47.368-.968.694-1.42,1.092l-1.323,1.187a24.381,24.381,0,0,0-2.326,2.73,22.579,22.579,0,0,0-3.288,6.386,24.4,24.4,0,0,0-1.086,7.122,22.71,22.71,0,0,0,6.528,15.717,22.773,22.773,0,0,0,18.12,6.588,22.559,22.559,0,0,0,9.13-2.849h0a9.094,9.094,0,0,1,1.488-.2h4.44v42.942a11.259,11.259,0,0,0,.1,2.06,6.335,6.335,0,0,0,.629,1.929,6.868,6.868,0,0,0,2.838,2.855,7.434,7.434,0,0,0,1.894.694,9.907,9.907,0,0,0,2.023.142h120.51a7.757,7.757,0,0,0,1.585-.113,5.519,5.519,0,0,0,4.231-4.119,6.26,6.26,0,0,0,.16-1.531V-543.17h.119a43.652,43.652,0,0,1,4.2,1.656,20.628,20.628,0,0,0,4.243,1.045,20.336,20.336,0,0,0,4.245.125c.693-.042,1.382-.137,2.064-.243a14.766,14.766,0,0,0,1.994-.457,20.908,20.908,0,0,0,14.618-15.23c.065-.267.131-.534.19-.8l.125-.8.124-.8c.042-.267.036-.534.054-.8q.04-.795.089-1.567c0-.51-.048-1.021-.065-1.531a20.955,20.955,0,0,0-9.722-16.364,13.332,13.332,0,0,0-1.585-.89l-.753-.4c-.256-.113-.511-.208-.761-.309-.493-.19-.961-.392-1.412-.546l-1.317-.368a7.358,7.358,0,0,0-1.187-.279l-1.039-.172a10.39,10.39,0,0,0-1.625-.166Z" transform="translate(5637.229 663.989)" fill="#263238"/>
      </g>
      <g id="freepik--Characters--inject-5" transform="translate(60.972 6.806)">
        <path id="Trazado_145065" data-name="Trazado 145065" d="M-5443.61-538.311a6.561,6.561,0,0,1,3.763-.641c1.763.386,8.161,4.558,8.161,4.558l5.158-.961,3.063,14.577-20.145,8.345Z" transform="translate(5550.889 665.919)" fill="#ae7461"/>
        <path id="Trazado_145066" data-name="Trazado 145066" d="M-5469.938-533.192s4.611-.594,6.279-1.418,5.649-4.368,6.481-4.3,3.858.641,3.858.641l-1.222,3.662s6.036,3.662,7.834,5.009,7.449,7.383,7.716,8.861a4.525,4.525,0,0,1-.9,3.787c-.707.576-3.277-.594-3.277-.594a3.2,3.2,0,0,1-.593,2.629c-.962,1.288-3.205.837-3.205.837s-.2,2.119-1.223,2.5-3.341-.772-3.341-.772-.694,1.781-1.531,1.988-3.217-1.187-3.217-1.187-10.273-7.383-12.583-8.475a11.806,11.806,0,0,0-3.021-1.157Z" transform="translate(5562.38 665.868)" fill="#ffbe9d"/>
        <path id="Trazado_145067" data-name="Trazado 145067" d="M-5438.63-496.115c-.042,0-.071-.178-.178-.451a7.7,7.7,0,0,0-.522-1.027,6.222,6.222,0,0,1-.79-1.46,3.668,3.668,0,0,1,1.062,1.306,4.028,4.028,0,0,1,.458,1.122C-5438.547-496.311-5438.595-496.109-5438.63-496.115Z" transform="translate(5549.471 649.666)" fill="#eb996e"/>
        <path id="Trazado_145068" data-name="Trazado 145068" d="M-5432.271-498.8a16.566,16.566,0,0,1-1.3-1.941c-.7-1.068-1.455-1.781-1.4-1.852a4.552,4.552,0,0,1,1.663,1.68A6.345,6.345,0,0,1-5432.271-498.8Z" transform="translate(5547.379 651.105)" fill="#eb996e"/>
        <path id="Trazado_145069" data-name="Trazado 145069" d="M-5425.227-505.432c-.089,0-.374-1.086-1.086-2.285s-1.525-2-1.46-2.065a6.311,6.311,0,0,1,2.546,4.351Z" transform="translate(5544.453 654.027)" fill="#eb996e"/>
        <path id="Trazado_145070" data-name="Trazado 145070" d="M-5428.572-515.953a5.768,5.768,0,0,1,.154,3.466,7.5,7.5,0,0,1-.119-1.733A7.881,7.881,0,0,1-5428.572-515.953Z" transform="translate(5544.79 656.535)" fill="#eb996e"/>
        <path id="Trazado_145071" data-name="Trazado 145071" d="M-5453.73-531.058s1.6-5.134,2.179-5.781,5.935-2.054,5.935-2.054l1.668,4.3-1.187,1.258-2.57-.166A4.385,4.385,0,0,1-5453.73-531.058Z" transform="translate(5555.003 665.86)" fill="#ae7461"/>
        <path id="Trazado_145072" data-name="Trazado 145072" d="M-5470.554-508.573s-.736.564,0,1.911,2.724.386,3.365,0c0,0-.961,2.249.255,2.968a4.788,4.788,0,0,0,2.7.51,2.627,2.627,0,0,0,1.668,2.249c1.733.9,2.185,0,2.185,0s.189,2.244,2.178,2.439,2.695-.493,2.695-.493l-.9-1.329s1.158-2.374.262-3.377a3.1,3.1,0,0,0-2.375-.9s.4-2.083-.749-2.665a2.108,2.108,0,0,0-2.9.675,2.223,2.223,0,0,0-.136.257s-.131-2.285-1.781-2.232a3.714,3.714,0,0,0-2.569,1.074Z" transform="translate(5561.975 653.535)" fill="#ae7461"/>
        <path id="Trazado_145073" data-name="Trazado 145073" d="M-5457.733-504.813a4.877,4.877,0,0,1-.766,1.715,4.959,4.959,0,0,1-1.122,1.5,6.746,6.746,0,0,1,.854-1.656A6.887,6.887,0,0,1-5457.733-504.813Z" transform="translate(5557.397 652.007)" fill="#6f4439"/>
        <path id="Trazado_145074" data-name="Trazado 145074" d="M-5451.507-501.4a4.506,4.506,0,0,1-.872,1.781,4.6,4.6,0,0,1-1.343,1.46q1.066-1.645,2.215-3.235Z" transform="translate(5554.999 650.621)" fill="#6f4439"/>
        <path id="Trazado_145075" data-name="Trazado 145075" d="M-5525.378-460.583h-9.739l-2.493,35.422h9.769c1.662-5.4,5.816-33.5,5.816-33.5Z" transform="translate(5589.098 634.029)" fill="#263238"/>
        <path id="Trazado_145076" data-name="Trazado 145076" d="M-5613.806-460.583s-6.237,14.619-5.614,20.536,4.125,14.886,4.125,14.886h48.242a111.324,111.324,0,0,0,2.374-12.25c1.045-7.312,3.847-23.148,3.847-23.148Z" transform="translate(5622.368 634.029)" fill="#263238"/>
        <path id="Trazado_145077" data-name="Trazado 145077" d="M-5544.833-716.027c-1.632-2.06-3.644-4.036-4.06-6.63-.385-2.374.659-4.986-.409-7.122-1.318-2.665-5.092-3.181-6.73-5.656-.789-1.187-.979-2.718-1.781-3.923-1.329-2.054-4.071-2.712-6.529-2.576s-4.794.9-7.246.979c-3.36.071-6.761-1.187-10.019-.386-3.6.884-5.935,3.917-8.375,6.843l-3.181,3.377a13.02,13.02,0,0,1-2.083,1.531,23.613,23.613,0,0,0-3.917,2.238,5.9,5.9,0,0,0,0,8.553,6.343,6.343,0,0,0-4.569,6.006,19.167,19.167,0,0,0,.938,4.356,6.394,6.394,0,0,1-.089,4.374c-.683,1.335-2.451,2.184-3.716,1.395a6.694,6.694,0,0,0,3.419,4.618,3.983,3.983,0,0,1-2.737,1.056c2.41,6.529,9.633,10.215,16.56,10.583s13.687-1.947,20.239-4.226l18.892-3.959c1.657-.3,2.435-2.255,2.487-3.941s-.285-3.448.393-4.992c.918-2.113,3.477-3.134,4.439-5.235C-5541.84-711.172-5543.205-713.956-5544.833-716.027Z" transform="translate(5617.14 748.398)" fill="#263238"/>
        <path id="Trazado_145078" data-name="Trazado 145078" d="M-5580.2-694.127a76.874,76.874,0,0,1-2.684-13,27.378,27.378,0,0,1,1.721-13.058c.267-.593,2.481-4.748,3.146-4.635.474.071-.956,3.947-.736,4.374a22.761,22.761,0,0,1,1.875,13.408,59.97,59.97,0,0,1-3.324,12.9" transform="translate(5607.559 741.437)" fill="#263238"/>
        <path id="Trazado_145079" data-name="Trazado 145079" d="M-5578.918-715.123c.208-11.117,6.855-20.257,17.96-19.735l1.021.107a19.872,19.872,0,0,1,17.805,20.245c-.237,9.633-.593,20.275-1.222,25.391-1.252,10.594-12.037,11.129-12.037,11.129l-.291,17.5-25.249-17.491Z" transform="translate(5606.707 745.523)" fill="#ffbe9d"/>
        <path id="Trazado_145080" data-name="Trazado 145080" d="M-5547.093-642.815a25.787,25.787,0,0,1-13.378-5.538s2.487,8.962,13.17,9.122Z" transform="translate(5598.39 710.352)" fill="#eb996e"/>
        <path id="Trazado_145081" data-name="Trazado 145081" d="M-5523.864-687.748a1.525,1.525,0,0,1-1.626,1.371,1.448,1.448,0,0,1-1.415-1.481v-.05a1.527,1.527,0,0,1,1.621-1.377,1.466,1.466,0,0,1,1.419,1.511Z" transform="translate(5584.747 726.991)" fill="#263238"/>
        <path id="Trazado_145082" data-name="Trazado 145082" d="M-5524.285-694.855c-.208.178-1.265-.8-2.9-.962s-2.914.522-3.069.3c-.078-.095.155-.433.712-.76a4.239,4.239,0,0,1,2.481-.487,3.983,3.983,0,0,1,2.279,1.015C-5524.315-695.294-5524.184-694.932-5524.285-694.855Z" transform="translate(5586.112 730.039)" fill="#263238"/>
        <path id="Trazado_145083" data-name="Trazado 145083" d="M-5548.692-687.748a1.52,1.52,0,0,1-1.621,1.371,1.454,1.454,0,0,1-1.42-1.487c0-.015,0-.03,0-.045a1.527,1.527,0,0,1,1.62-1.377,1.466,1.466,0,0,1,1.42,1.511Z" transform="translate(5594.839 726.991)" fill="#263238"/>
        <path id="Trazado_145084" data-name="Trazado 145084" d="M-5551.306-696.592c-.209.178-1.271-.789-2.9-.956s-2.908.522-3.063.3c-.077-.1.148-.433.712-.76a4.2,4.2,0,0,1,2.482-.487,4.019,4.019,0,0,1,2.278,1.009C-5551.341-697.037-5551.205-696.663-5551.306-696.592Z" transform="translate(5597.096 730.743)" fill="#263238"/>
        <path id="Trazado_145085" data-name="Trazado 145085" d="M-5539.61-682.47a10.877,10.877,0,0,1,2.7-.2c.421,0,.825-.036.926-.315a2.16,2.16,0,0,0-.148-1.264q-.429-1.579-.9-3.3c-1.235-4.695-2.083-8.535-1.894-8.582s1.346,3.716,2.575,8.41q.446,1.734.844,3.312a2.37,2.37,0,0,1,.047,1.656,1.047,1.047,0,0,1-.748.54,2.7,2.7,0,0,1-.718,0A10.111,10.111,0,0,1-5539.61-682.47Z" transform="translate(5589.911 729.774)" fill="#263238"/>
        <path id="Trazado_145086" data-name="Trazado 145086" d="M-5548.127-672.064c.269,0,.084,1.781,1.467,3.193s3.289,1.424,3.276,1.674c0,.113-.457.3-1.258.237a4.452,4.452,0,0,1-2.742-1.294,3.882,3.882,0,0,1-1.116-2.671C-5548.488-671.672-5548.245-672.087-5548.127-672.064Z" transform="translate(5593.524 719.99)" fill="#263238"/>
        <path id="Trazado_145087" data-name="Trazado 145087" d="M-5551.338-707.51c-.208.427-1.81.047-3.751.077s-3.562.386-3.751-.041c-.089-.2.22-.594.891-.95a6.529,6.529,0,0,1,5.715-.03C-5551.588-708.1-5551.244-707.712-5551.338-707.51Z" transform="translate(5597.733 735.044)" fill="#263238"/>
        <path id="Trazado_145088" data-name="Trazado 145088" d="M-5524.143-704.161c-.327.338-1.413-.166-2.76-.326s-2.516,0-2.742-.427c-.1-.2.124-.552.659-.849a4.036,4.036,0,0,1,4.433.594C-5524.113-704.725-5524-704.327-5524.143-704.161Z" transform="translate(5585.868 733.854)" fill="#263238"/>
        <path id="Trazado_145089" data-name="Trazado 145089" d="M-5582.7-688.628c-.173-.095-7.063-2.926-7.6,4.351s6.884,6.291,6.927,6.107S-5582.7-688.628-5582.7-688.628Z" transform="translate(5610.525 726.975)" fill="#ffbe9d"/>
        <path id="Trazado_145090" data-name="Trazado 145090" d="M-5584.14-679.516c0-.03-.13.077-.351.16a1.28,1.28,0,0,1-.95-.053,3.138,3.138,0,0,1-1.246-2.92,4.179,4.179,0,0,1,.487-1.781,1.472,1.472,0,0,1,1.027-.9.642.642,0,0,1,.718.4c.083.208.029.35.065.368s.166-.113.13-.415a.82.82,0,0,0-.255-.481.978.978,0,0,0-.688-.237,1.782,1.782,0,0,0-1.407,1.033,4.411,4.411,0,0,0-.594,1.994c-.059,1.472.594,2.9,1.621,3.282a1.362,1.362,0,0,0,1.187-.107C-5584.164-679.344-5584.117-679.5-5584.14-679.516Z" transform="translate(5609.258 725.401)" fill="#eb996e"/>
        <path id="Trazado_145091" data-name="Trazado 145091" d="M-5546.795-727.817c1.222-.594-2.072-4.618-4.879-6.119-4.25-2.267-10.856-3.917-14.963-3.033-4.95,1.062-9.14,3.223-11.871,7.484a28.638,28.638,0,0,0-4.155,14.417,8.726,8.726,0,0,0,.736,4.517c.914,1.674,2.8,2.813,2.57,5.027a3.067,3.067,0,0,0,.594,2.273c1.24,1.5,2.967.273,3.792-1.009,1.781-2.754,2.179-6.143,2.529-9.4a21.7,21.7,0,0,0,0-6.956c-.279-1.234-.778-2.422-.985-3.668a4.391,4.391,0,0,1,.748-3.6,4.54,4.54,0,0,1,.629-.593,7.617,7.617,0,0,1,7.627-.95c4.006,1.715,10.868,4.333,12.791,3.063a11.246,11.246,0,0,0,3.472-3.1Z" transform="translate(5607.417 746.471)" fill="#263238"/>
        <path id="Trazado_145092" data-name="Trazado 145092" d="M-5562.251-738.836a16.038,16.038,0,0,1,12.263,1.466,8.443,8.443,0,0,1,4.078,5.122c.468,2.2-.624,4.784-2.754,5.5l-.148.083c-3.176.843-5.165.3-8.191-.973-2.553-1.068-4.748-2.825-7.318-3.888a14.843,14.843,0,0,0-8.648-.807A24.216,24.216,0,0,1-5562.251-738.836Z" transform="translate(5603.471 747.37)" fill="#263238"/>
        <path id="Trazado_145093" data-name="Trazado 145093" d="M-5551.8-740.563a3.184,3.184,0,0,1,.742.077,11.38,11.38,0,0,1,1.958.528,12.6,12.6,0,0,1,2.683,1.383,10.625,10.625,0,0,1,2.671,2.558,9.9,9.9,0,0,1,1.465,3.4,17.318,17.318,0,0,1,.452,2.968c.059.855.059,1.549.053,2.024a3.465,3.465,0,0,1-.053.742,3.346,3.346,0,0,1-.064-.742c-.03-.475-.066-1.187-.156-2.006a19.741,19.741,0,0,0-.5-2.926,10.06,10.06,0,0,0-1.448-3.288,10.463,10.463,0,0,0-2.582-2.5,13,13,0,0,0-2.6-1.413A26.791,26.791,0,0,0-5551.8-740.563Z" transform="translate(5594.865 747.833)" fill="#455a64"/>
        <path id="Trazado_145094" data-name="Trazado 145094" d="M-5540.51-741.273a2.854,2.854,0,0,1,.628.172,5.568,5.568,0,0,1,.719.273l.908.457a9.411,9.411,0,0,1,3.774,4.44,10.983,10.983,0,0,1,.535,1.6,10.6,10.6,0,0,1,.237,1.555,10.423,10.423,0,0,1,.029,1.419,9.709,9.709,0,0,1-.166,1.229,6.538,6.538,0,0,1-.273.985,4.4,4.4,0,0,1-.291.706,2.719,2.719,0,0,1-.338.594,12.9,12.9,0,0,0,.688-2.3,11.117,11.117,0,0,0,.125-1.187,12.46,12.46,0,0,0-.053-1.383,12.032,12.032,0,0,0-.25-1.508,12.34,12.34,0,0,0-.528-1.549,9.646,9.646,0,0,0-3.6-4.374l-.873-.493a6.416,6.416,0,0,0-.688-.315A2.317,2.317,0,0,1-5540.51-741.273Z" transform="translate(5590.276 748.122)" fill="#455a64"/>
        <path id="Trazado_145095" data-name="Trazado 145095" d="M-5569.844-626.169c0,1,5,22.987,6.92,28.388s7.983,59.554,7.182,63.412-2.873,3.7-2.873,3.7-49.013-3.086-54.284-2.623-7.5.309-8.778-5.71.036-37.291-1.08-44.853-1.127-11.224-1.561-22.453c-.374-9.74,1.84-17.545,6.47-23.183s14.88-11.33,14.88-11.33l3.638-5.306,25.723,13.61.594-3.1,1.561,4.819Z" transform="translate(5624.358 709.446)" fill="#455a64"/>
        <g id="Grupo_88329" data-name="Grupo 88329" transform="translate(5.786 103.362)" opacity="0.3">
          <path id="Trazado_145096" data-name="Trazado 145096" d="M-5554.824-531.733c-.433-1.092-1.822-1.371-2.968-1.5-10.9-1.187-22.245-3.935-30.21-11.473a58.024,58.024,0,0,1-7.936-10.09c-5.175-7.823-10.036-15.847-14.9-23.872l-3.775,1.419a153.077,153.077,0,0,0,8.369,28.8c3.769,9.283,6.7,18.292,16.257,21.331,6.178,1.965,17.913.457,24.376-.047a38.186,38.186,0,0,0,7.976-1.246,5.338,5.338,0,0,0,2.172-1.1A2.143,2.143,0,0,0-5554.824-531.733Z" transform="translate(5614.61 578.663)"/>
        </g>
        <path id="Trazado_145097" data-name="Trazado 145097" d="M-5617.275-597.763c.279.5,22.091,47.1,31.83,49.013s40.01,2.374,45.915,1.24,11.686-2.154,11.686-2.154,4.28-10.161.375-18.815l-8.132.255s-22.607-1.223-25.8-2.1-5.935-3.864-8.826-3.7l-17.212-40.021s-11.176-10.381-19.159-7.188S-5619.62-601.917-5617.275-597.763Z" transform="translate(5621.714 699.576)" fill="#455a64"/>
        <path id="Trazado_145098" data-name="Trazado 145098" d="M-5478.779-511.118a3.527,3.527,0,0,1,.16-.783c.13-.5.291-1.223.457-2.119s.326-1.977.433-3.181a33.814,33.814,0,0,0,.083-3.929,32.164,32.164,0,0,0-1.1-7.039c-.243-.884-.463-1.591-.635-2.077a4.546,4.546,0,0,1-.226-.766,3.951,3.951,0,0,1,.338.724,21.42,21.42,0,0,1,.73,2.054,28.726,28.726,0,0,1,1.187,7.093,31.881,31.881,0,0,1-.106,3.965,27.744,27.744,0,0,1-.5,3.2,20.071,20.071,0,0,1-.558,2.107A4.653,4.653,0,0,1-5478.779-511.118Z" transform="translate(5565.522 662.657)" fill="#263238"/>
        <path id="Trazado_145099" data-name="Trazado 145099" d="M-5587.023-608.683s.112.237.326.706l.915,2.089,3.508,8.013c3,6.95,7.317,16.951,12.588,29.16l-.119-.071a7.437,7.437,0,0,1,3.816,1.187c1.187.653,2.333,1.413,3.591,1.988a12,12,0,0,0,4.1.95c1.43.172,2.89.3,4.374.427,5.935.487,12.22.878,18.768,1.24h0l8.131-.261h.1l.041.089a20.934,20.934,0,0,1,1.592,9.33,30.576,30.576,0,0,1-1.995,9.609v.077h-.083l-5.17.956-5.662,1.045a38.1,38.1,0,0,1-5.663.594c-3.762.166-7.465.184-11.11.166s-7.217-.107-10.719-.237-6.921-.3-10.262-.558c-1.667-.119-3.311-.279-4.938-.457a34.677,34.677,0,0,1-4.749-.8,8.411,8.411,0,0,1-2.071-1.187,18.254,18.254,0,0,1-1.78-1.543,37.558,37.558,0,0,1-3.021-3.407,125.42,125.42,0,0,1-9.164-13.782c-5.11-8.737-8.8-16.055-11.337-21.112-1.258-2.534-2.214-4.511-2.854-5.858s-.956-2.06-.956-2.06.1.172.261.516.427.855.753,1.519l2.9,5.828c2.57,5.039,6.286,12.339,11.42,21.052a125.2,125.2,0,0,0,9.128,13.716,36.924,36.924,0,0,0,3,3.377,17.521,17.521,0,0,0,1.733,1.519,8,8,0,0,0,2.006,1.151,34.809,34.809,0,0,0,4.718.772c1.614.178,3.258.332,4.926.451,3.33.249,6.754.427,10.25.552s7.075.208,10.684.226,7.341,0,11.093-.172a38.264,38.264,0,0,0,5.62-.594l5.657-1.045,5.176-.956-.119.095a30.292,30.292,0,0,0,1.976-9.5,20.689,20.689,0,0,0-1.6-9.194l.142.089-8.131.255h0c-6.529-.374-12.832-.766-18.773-1.264-1.483-.131-2.968-.261-4.38-.433-.724-.083-1.437-.172-2.143-.309a7.9,7.9,0,0,1-2.029-.671c-1.283-.594-2.434-1.359-3.609-2.006a7.187,7.187,0,0,0-3.68-1.146h-.083l-.035-.077c-5.229-12.233-9.5-22.245-12.464-29.2l-3.412-8.03-.885-2.1C-5586.911-608.44-5587.023-608.683-5587.023-608.683Z" transform="translate(5621.298 694.227)" fill="#263238"/>
        <path id="Trazado_145100" data-name="Trazado 145100" d="M-5587.626-617.62l-.849-.783a16.093,16.093,0,0,0-2.492-1.881,16.333,16.333,0,0,0-4.238-1.834,15.172,15.172,0,0,0-11,1.1A16.018,16.018,0,0,0-5610-618.38a15.741,15.741,0,0,0-2.072,2.368,10.781,10.781,0,0,1-.677.932,1.18,1.18,0,0,1,.137-.267c.1-.166.226-.427.439-.736a14.468,14.468,0,0,1,2.023-2.427,15.539,15.539,0,0,1,19.3-1.929,14,14,0,0,1,2.463,1.982q.312.3.593.629A1.179,1.179,0,0,1-5587.626-617.62Z" transform="translate(5619.641 700.019)" fill="#263238"/>
        <path id="Trazado_145101" data-name="Trazado 145101" d="M-5539.424-541.2a19.961,19.961,0,0,1-1.1,3.383,21.046,21.046,0,0,1-1.389,3.27,19.7,19.7,0,0,1,1.1-3.377A21.056,21.056,0,0,1-5539.424-541.2Z" transform="translate(5590.846 666.799)" fill="#263238"/>
        <path id="Trazado_145102" data-name="Trazado 145102" d="M-5471.936-528.321a.328.328,0,0,1,.226,0,.854.854,0,0,1,.434.427.93.93,0,0,1,0,.926,1.051,1.051,0,0,1-1.027.475.989.989,0,0,1-.778-.831.941.941,0,0,1,.3-.872.772.772,0,0,1,.593-.19c.142,0,.213.047.208.065a1.141,1.141,0,0,0-.641.279.763.763,0,0,0-.167.665.741.741,0,0,0,.546.594.814.814,0,0,0,.748-.332.732.732,0,0,0,.054-.677C-5471.621-528.22-5471.947-528.279-5471.936-528.321Z" transform="translate(5562.875 661.591)" fill="#263238"/>
        <path id="Trazado_145103" data-name="Trazado 145103" d="M-5557.245-626.847a3.8,3.8,0,0,1-.593-.3l-1.625-.932.118-.047c-.32,1.62-.635,4.006-1.187,6.867l-.042.19-.16-.1c-2.375-1.508-5.259-3.229-8.31-5.075-2.279-1.365-4.41-2.742-6.369-3.929s-3.781-2.208-5.294-3.057l-3.6-2.006-.979-.546a3.5,3.5,0,0,1-.333-.208,1.54,1.54,0,0,1,.362.154l1,.5c.872.439,2.119,1.086,3.656,1.917s3.348,1.828,5.342,2.968l6.386,3.917c3.057,1.846,5.936,3.561,8.309,5.11l-.2.083c.564-2.837.914-5.229,1.282-6.843v-.107l.095.053,1.585.991A4.23,4.23,0,0,1-5557.245-626.847Z" transform="translate(5608.613 705.328)" fill="#263238"/>
        <g id="Grupo_88330" data-name="Grupo 88330" transform="translate(26.625 71.252)" opacity="0.3">
          <path id="Trazado_145104" data-name="Trazado 145104" d="M-5579.5-632.763l13.425,10.007c2.968,2.2,5.977,4.44,9.5,5.561l-.208-9.342-1.371,6.529Z" transform="translate(5579.5 632.763)"/>
        </g>
        <path id="Trazado_145105" data-name="Trazado 145105" d="M-5350.347-728.288a4.814,4.814,0,0,1-5.415-4.127,4.814,4.814,0,0,1,3.194-5.192,5.009,5.009,0,0,1-.036-7.084,5.012,5.012,0,0,1,4.238-1.439,5.987,5.987,0,0,1,6.117-5.856,5.991,5.991,0,0,1,2.821.776,6.742,6.742,0,0,1,8.309-.326,4.79,4.79,0,0,1,5.654,3.729,4.79,4.79,0,0,1-1.275,4.319" transform="translate(5515.199 752.812)" fill="#263238"/>
        <path id="Trazado_145106" data-name="Trazado 145106" d="M-5348.412-723.474a20.424,20.424,0,0,1,19.967-19.189h1.057c11.414.433,17.419,10.369,16.672,21.759l.677,40.657h0l-27.73,9.936-.243-14.642s-10.992-1.478-11.348-12.464C-5349.521-702.665-5349-713.6-5348.412-723.474Z" transform="translate(5512.591 748.687)" fill="#ae7461"/>
        <path id="Trazado_145107" data-name="Trazado 145107" d="M-5330.371-648.53a26.56,26.56,0,0,0,14.245-4.493s-3.216,7.953-14.167,7.188Z" transform="translate(5504.86 712.25)" fill="#6f4439"/>
        <path id="Trazado_145108" data-name="Trazado 145108" d="M-5342.55-694.636a1.566,1.566,0,0,0,1.537,1.549,1.5,1.5,0,0,0,1.583-1.4c0-.015,0-.03,0-.045a1.568,1.568,0,0,0-1.538-1.549,1.5,1.5,0,0,0-1.583,1.416Z" transform="translate(5509.811 729.755)" fill="#263238"/>
        <path id="Trazado_145109" data-name="Trazado 145109" d="M-5343.624-702.542c.2.2,1.364-.7,3.045-.73s2.938.783,3.115.594c.084-.095-.119-.457-.664-.837a4.317,4.317,0,0,0-2.5-.718,4.156,4.156,0,0,0-2.422.837C-5343.541-703.005-5343.708-702.631-5343.624-702.542Z" transform="translate(5510.256 733.067)" fill="#263238"/>
        <path id="Trazado_145110" data-name="Trazado 145110" d="M-5316.71-694.636a1.56,1.56,0,0,0,1.543,1.543,1.5,1.5,0,0,0,1.583-1.4.351.351,0,0,0,0-.039,1.573,1.573,0,0,0-1.544-1.549,1.508,1.508,0,0,0-1.583,1.428Z" transform="translate(5499.307 729.755)" fill="#263238"/>
        <path id="Trazado_145111" data-name="Trazado 145111" d="M-5315.71-702.582c.2.2,1.365-.7,3.044-.73s2.967.783,3.116.594c.09-.095-.119-.457-.665-.837a4.3,4.3,0,0,0-2.48-.718,4.154,4.154,0,0,0-2.421.837C-5315.663-703.045-5315.811-702.671-5315.71-702.582Z" transform="translate(5498.913 733.083)" fill="#263238"/>
        <path id="Trazado_145112" data-name="Trazado 145112" d="M-5328.512-689.8a11.174,11.174,0,0,0-2.742-.433c-.433-.036-.843-.113-.919-.4a2.219,2.219,0,0,1,.261-1.282q.579-1.576,1.188-3.3c1.673-4.695,2.873-8.553,2.682-8.618s-1.7,3.686-3.371,8.381q-.594,1.733-1.151,3.318a2.487,2.487,0,0,0-.184,1.692,1.073,1.073,0,0,0,.718.593,2.824,2.824,0,0,0,.73.083A10.223,10.223,0,0,0-5328.512-689.8Z" transform="translate(5505.856 732.904)" fill="#263238"/>
        <path id="Trazado_145113" data-name="Trazado 145113" d="M-5316.766-712.348c.232.421,1.662-.071,3.436-.16s3.276.166,3.431-.279c.065-.214-.254-.594-.9-.92a5.385,5.385,0,0,0-2.677-.5,5.154,5.154,0,0,0-2.558.843C-5316.617-712.965-5316.866-712.55-5316.766-712.348Z" transform="translate(5499.339 737.127)" fill="#263238"/>
        <path id="Trazado_145114" data-name="Trazado 145114" d="M-5344.168-712.667c.362.38,1.738-.048,3.412-.1s3.093.2,3.407-.214c.142-.2-.089-.594-.719-.92a5.745,5.745,0,0,0-5.5.249C-5344.145-713.243-5344.329-712.845-5344.168-712.667Z" transform="translate(5510.491 737.232)" fill="#263238"/>
        <path id="Trazado_145115" data-name="Trazado 145115" d="M-5346.15-729.429s2.748-6.921,6.024-8.588c3.964-2.018,5.775,2.339,9.573,1.187s7.579-3.08,11.538-.208c4.339,3.14,2.375,5.448,2.742,10.3,1.471,19.687,5.188,25.183,6.019,15.883.095-1.021,2.9-1.887,3.229-6.19.433-5.585.5-12.351-.819-16.28-1.116-3.312-3.063-5.579-6.529-8.048-5.46-3.894-12.85-3.828-17.854-3.223S-5346.786-738-5346.15-729.429Z" transform="translate(5511.287 749.596)" fill="#263238"/>
        <path id="Trazado_145116" data-name="Trazado 145116" d="M-5286.941-690.015a2.968,2.968,0,0,1,3-2.937c.051,0,.1,0,.154.005,2.048.154,4.344,1.264,4.3,5.49-.09,7.5-7.6,5.864-7.609,5.65S-5287.006-686.881-5286.941-690.015Z" transform="translate(5487.272 728.481)" fill="#ae7461"/>
        <path id="Trazado_145117" data-name="Trazado 145117" d="M-5284.3-682.965a2.978,2.978,0,0,0,.35.2,1.3,1.3,0,0,0,.973,0,3.214,3.214,0,0,0,1.525-2.879,4.25,4.25,0,0,0-.343-1.875,1.5,1.5,0,0,0-.969-1.015.671.671,0,0,0-.777.35c-.1.208-.053.362-.095.374s-.16-.131-.095-.439a.828.828,0,0,1,.3-.463.951.951,0,0,1,.724-.184,1.83,1.83,0,0,1,1.347,1.187,4.46,4.46,0,0,1,.427,2.1c-.065,1.508-.855,2.914-1.941,3.217a1.412,1.412,0,0,1-1.187-.214C-5284.284-682.787-5284.326-682.954-5284.3-682.965Z" transform="translate(5486.135 726.839)" fill="#6f4439"/>
        <path id="Trazado_145118" data-name="Trazado 145118" d="M-5308.064-727.348a7.057,7.057,0,0,1-3.139,1.525,2.436,2.436,0,0,1-2.749-1.662c-.095-.522,0-1.128-.332-1.525s-1.187-.3-1.781-.226a4.777,4.777,0,0,1-5.033-3.324,2,2,0,0,1-2.683.309,10.653,10.653,0,0,1-2.083-2.143,3.081,3.081,0,0,0-2.6-1.234,7.242,7.242,0,0,1-1.62.392c-.986-.065-1.491-1.187-1.656-2.178s-.309-2.113-1.151-2.623-1.781-.172-2.683,0-2.078-.036-2.327-.914a1.778,1.778,0,0,1,.309-1.365,4.838,4.838,0,0,1,5.686-1.953,6.576,6.576,0,0,1,8.078-4.608,6.578,6.578,0,0,1,3.976,3.083,6.683,6.683,0,0,1,9.447.284,6.676,6.676,0,0,1,1.272,1.936,4.838,4.838,0,0,1,5.977,3.328,4.837,4.837,0,0,1-.379,3.592,4.6,4.6,0,0,1,2.6,3.609c.06,1.549-1.418,3.122-2.926,2.748a2.678,2.678,0,0,1-1.088,3.627,2.676,2.676,0,0,1-3.488-.861" transform="translate(5507.933 751.308)" fill="#263238"/>
        <path id="Trazado_145119" data-name="Trazado 145119" d="M-5328.616-737.273a.357.357,0,0,0,0,.137,1.248,1.248,0,0,0,.054.4,4.656,4.656,0,0,0,.594,1.43,5.356,5.356,0,0,0,1.7,1.739,4.981,4.981,0,0,0,3.087.813l-.131-.166a2.714,2.714,0,0,0,.19,2.065,7.6,7.6,0,0,0,1.324,1.816,5.449,5.449,0,0,0,.854.843,2.57,2.57,0,0,0,1.188.415,2.725,2.725,0,0,0,2.375-.908l-.279-.077a5.624,5.624,0,0,0,2.462,3.84,4.086,4.086,0,0,0,2.475.754,7.279,7.279,0,0,0,2.41-.594l-.2-.083a5.885,5.885,0,0,0,1.822,2.273,3.138,3.138,0,0,0,2.636.677,4.118,4.118,0,0,0,3.109-3.294l-.166.083a3.85,3.85,0,0,0,2.582.326,4.146,4.146,0,0,0,1.78-.837,3.618,3.618,0,0,0,.82-.932,1.833,1.833,0,0,0,.184-.392,4.532,4.532,0,0,1-1.08,1.223,4.035,4.035,0,0,1-1.733.76,3.7,3.7,0,0,1-2.439-.35l-.143-.077v.16a3.89,3.89,0,0,1-2.967,3.051,2.854,2.854,0,0,1-2.374-.623,5.577,5.577,0,0,1-1.71-2.16l-.059-.136-.142.053a7,7,0,0,1-2.31.552,3.751,3.751,0,0,1-2.285-.7,5.336,5.336,0,0,1-2.326-3.615l-.054-.356-.233.279a2.435,2.435,0,0,1-2.112.807,2.315,2.315,0,0,1-1.057-.362,5.315,5.315,0,0,1-.806-.789,7.4,7.4,0,0,1-1.289-1.739,2.41,2.41,0,0,1-.2-1.864l.06-.184h-.19a4.835,4.835,0,0,1-2.967-.73,5.369,5.369,0,0,1-1.686-1.644A5.818,5.818,0,0,1-5328.616-737.273Z" transform="translate(5504.149 746.496)" fill="#455a64"/>
        <path id="Trazado_145120" data-name="Trazado 145120" d="M-5318.81-679.2c-.268.03.042,1.781-1.246,3.318s-3.205,1.662-3.176,1.911c0,.113.481.267,1.276.148a4.469,4.469,0,0,0,2.67-1.5,3.907,3.907,0,0,0,.933-2.736C-5318.418-678.831-5318.708-679.247-5318.81-679.2Z" transform="translate(5501.959 722.894)" fill="#263238"/>
        <path id="Trazado_145121" data-name="Trazado 145121" d="M-5418.9-545.82c.951-.38,32.318-4.155,32.318-4.155l12.725-10.778-1.187,31.2L-5415.1-525.7Z" transform="translate(5540.846 674.745)" fill="#3e2ea6"/>
        <path id="Trazado_145122" data-name="Trazado 145122" d="M-5354.9-552.713c-.38.19-3.526,2.968-3.526,2.968l.961,24.02Z" transform="translate(5516.266 671.477)" opacity="0.3" style="isolation: isolate"/>
        <path id="Trazado_145123" data-name="Trazado 145123" d="M-5298.733-457.543h-52.977s2.8,14.951,3.84,21.836a88.22,88.22,0,0,0,2.557,11.781h47.987s3.561-8.683,4.208-14.245S-5298.733-457.543-5298.733-457.543Z" transform="translate(5513.534 632.793)" fill="#263238"/>
        <path id="Trazado_145124" data-name="Trazado 145124" d="M-5358.812-454.5s-1.484,17.04,0,31.813h18.352V-436.3Z" transform="translate(5516.689 631.557)" fill="#263238"/>
        <path id="Trazado_145125" data-name="Trazado 145125" d="M-5341.181-618.991l5.709-12.464.707-7.716s10.951-6.885,16.145-9.5a113.175,113.175,0,0,1,12.2-4.956v7.289Z" transform="translate(5509.254 712.494)" fill="#ebebeb"/>
        <path id="Trazado_145126" data-name="Trazado 145126" d="M-5301.971-553.325s3.1-41.677,3.312-44.776c0,0,1.834-22.269-2.119-30.745s-12.8-15.936-12.8-15.936l-.82-4.451-17.277,10.9-7.989,6.944a80.033,80.033,0,0,0-7.538,9.378,33.532,33.532,0,0,0-5.936,12.25c-.409,1.858-5.163,24.044-5.306,39.505,0,0-.729,13.5-1.513,21.135-.962,9.461-2.434,31.024-2.114,43.8l56.048-1.709c13.84-2.113,11.406-3.49,11.406-3.49Z" transform="translate(5517.764 710.71)" fill="#3e2ea6"/>
        <path id="Trazado_145127" data-name="Trazado 145127" d="M-5312.661-641.343l-.386.178-1.146.475c-.487.237-1.08.546-1.781.908a19.34,19.34,0,0,0-2.29,1.43,63.73,63.73,0,0,0-12.3,11.372l-.029.042h-.047l-5.377.991.119-.137c-.083,2.5-.172,5.116-.268,7.829v.059l-.047.048a74.141,74.141,0,0,0-7.9,8.665,34.181,34.181,0,0,0-2.706,4.089l-.3.528-.22.552a10.321,10.321,0,0,0-.409,1.116c-.238.76-.475,1.513-.671,2.273-.826,3.027-1.514,5.983-2.155,8.8-1.27,5.633-2.333,10.725-3.217,15-1.781,8.559-2.749,13.871-2.749,13.871.026-.326.067-.651.125-.973.1-.635.255-1.573.469-2.778.439-2.4,1.092-5.876,1.94-10.161s1.893-9.378,3.158-15.016c.629-2.819,1.312-5.775,2.137-8.814.2-.766.433-1.525.677-2.291a10.444,10.444,0,0,1,.409-1.14l.231-.594.3-.54a33.5,33.5,0,0,1,2.736-4.155,74.325,74.325,0,0,1,7.959-8.648l-.048.107c.1-2.712.19-5.342.279-7.829v-.113h.113l5.377-.973-.077.048a62.066,62.066,0,0,1,12.423-11.33c.831-.594,1.644-1,2.32-1.407a18.543,18.543,0,0,1,1.781-.878l1.157-.445Z" transform="translate(5515.498 707.503)" fill="#263238"/>
        <path id="Trazado_145128" data-name="Trazado 145128" d="M-5319.647-596.117l.677,55.608-8.47,54.165h22.322s10.149-41.125,12.512-49.767c2.291-8.392,5.734-50.634,6.037-52.705.119-.813,2.541-15.432-4.588-22.287" transform="translate(5503.669 695.211)" fill="#3e2ea6"/>
        <path id="Trazado_145129" data-name="Trazado 145129" d="M-5291.281-611.1s.167.154.469.463a13.169,13.169,0,0,1,1.222,1.5,18.675,18.675,0,0,1,2.785,6.837,38.185,38.185,0,0,1,.427,11.734c-.339,2.273-.5,4.713-.749,7.306s-.486,5.342-.748,8.208c-.534,5.757-1.133,12.066-1.858,18.833-.374,3.377-.76,6.879-1.24,10.476a85.688,85.688,0,0,1-1.965,11.022c-3.733,14.838-7.834,31.208-12.149,48.4v.119h-22.654v-.172c3.133-19.978,6.03-38.419,8.5-54.159h0c-.179-16.838-.327-30.739-.434-40.437-.042-4.843-.077-8.63-.1-11.224v-3.971s0,.338.035,1,.029,1.662.053,2.968c.036,2.588.1,6.38.172,11.224.125,9.7.314,23.6.54,40.437h0c-2.457,15.746-5.341,34.187-8.445,54.171l-.149-.178h22.323l-.149.113,12.179-48.39a85.591,85.591,0,0,0,1.971-10.986c.481-3.591.873-7.093,1.252-10.47.736-6.76,1.348-13.058,1.9-18.821q.4-4.321.766-8.209c.255-2.582.434-5.051.772-7.312a38.423,38.423,0,0,0-.368-11.687,18.825,18.825,0,0,0-2.725-6.843,13.192,13.192,0,0,0-1.187-1.513A5.5,5.5,0,0,1-5291.281-611.1Z" transform="translate(5503.791 695.211)" fill="#263238"/>
        <path id="Trazado_145130" data-name="Trazado 145130" d="M-5302.06-486.337a8.986,8.986,0,0,1-1.727-.5c-1.051-.356-2.481-.9-4.03-1.591s-2.915-1.383-3.882-1.923a8.867,8.867,0,0,1-1.531-.944,11.98,11.98,0,0,1,1.632.754c.991.487,2.374,1.146,3.905,1.834s2.968,1.258,3.982,1.668A12.712,12.712,0,0,1-5302.06-486.337Z" transform="translate(5497.893 646.512)" fill="#263238"/>
        <path id="Trazado_145131" data-name="Trazado 145131" d="M-5358.814-515.051a.535.535,0,0,1,0-.142v-.427c0-.4.047-.944.089-1.638.089-1.442.22-3.49.38-6.012.344-5.075.83-12.084,1.52-19.812s1.472-14.725,2.119-19.77c.321-2.523.594-4.564.8-5.971.1-.683.184-1.223.244-1.62.03-.166.054-.3.071-.415a.455.455,0,0,1,.036-.142v.142a1.766,1.766,0,0,1-.042.427c-.042.4-.106.938-.184,1.626-.173,1.436-.409,3.478-.707,5.983-.593,5.051-1.342,12.037-2.03,19.764s-1.187,14.737-1.6,19.806c-.2,2.517-.369,4.558-.481,6.006-.059.688-.113,1.235-.148,1.632a3.3,3.3,0,0,1-.042.421A.393.393,0,0,1-5358.814-515.051Z" transform="translate(5516.423 678.911)" fill="#263238"/>
        <path id="Trazado_145132" data-name="Trazado 145132" d="M-5286.159-628.569a28.335,28.335,0,0,0-2.1-4.428,29.21,29.21,0,0,0-3.081-3.816,4.909,4.909,0,0,1,1.133.914,14.94,14.94,0,0,1,2.208,2.736,14.654,14.654,0,0,1,1.508,3.175A5.053,5.053,0,0,1-5286.159-628.569Z" transform="translate(5488.996 705.662)" fill="#263238"/>
        <path id="Trazado_145133" data-name="Trazado 145133" d="M-5351.2-507.7a.668.668,0,0,1,.053.4,1.63,1.63,0,0,1-.487,1.009,1.54,1.54,0,0,1-1.608.368,1.784,1.784,0,0,1-.831-.594,1.657,1.657,0,0,1-.332-1.045,2.174,2.174,0,0,1,.427-1.294,1.348,1.348,0,0,1,.523-.41c.213-.077.367-.119.546-.172h.042a1.828,1.828,0,0,1,1.074.309,1.374,1.374,0,0,1,.5.706,1.491,1.491,0,0,1,.1.724c-.042,0-.071-.261-.243-.665a1.3,1.3,0,0,0-.475-.593,1.69,1.69,0,0,0-.95-.226h.042c-.16.059-.368.119-.516.178a1.093,1.093,0,0,0-.4.332,1.942,1.942,0,0,0-.356,1.11,1.418,1.418,0,0,0,.95,1.365,1.322,1.322,0,0,0,1.365-.255,1.623,1.623,0,0,0,.517-.867C-5351.208-507.558-5351.226-507.695-5351.2-507.7Z" transform="translate(5514.628 653.886)" fill="#263238"/>
        <path id="Trazado_145134" data-name="Trazado 145134" d="M-5352.6-474.57a.665.665,0,0,1,.053.4,1.6,1.6,0,0,1-.487,1.009,1.536,1.536,0,0,1-1.608.368,1.83,1.83,0,0,1-.83-.594,1.657,1.657,0,0,1-.332-1.045,2.179,2.179,0,0,1,.427-1.294,1.348,1.348,0,0,1,.522-.41c.213-.077.368-.119.547-.172h.041a1.829,1.829,0,0,1,1.075.309,1.376,1.376,0,0,1,.5.706,1.485,1.485,0,0,1,.1.724c-.036,0-.072-.261-.244-.665a1.256,1.256,0,0,0-.474-.594,1.694,1.694,0,0,0-.951-.226h.042c-.16.059-.368.119-.51.178a1.071,1.071,0,0,0-.4.332,1.945,1.945,0,0,0-.356,1.11,1.418,1.418,0,0,0,.95,1.365,1.324,1.324,0,0,0,1.366-.255,1.628,1.628,0,0,0,.516-.867C-5352.607-474.422-5352.625-474.565-5352.6-474.57Z" transform="translate(5515.197 640.419)" fill="#263238"/>
        <path id="Trazado_145135" data-name="Trazado 145135" d="M-5280.645-618.128c-.03.053-.766-.421-2.072-.92a14.346,14.346,0,0,0-2.374-.671,15.613,15.613,0,0,0-2.968-.261,15.782,15.782,0,0,0-2.968.344,14.4,14.4,0,0,0-2.327.736c-1.288.534-2.012,1.027-2.047.973a2.361,2.361,0,0,1,.493-.368,4.733,4.733,0,0,1,.593-.374,9.392,9.392,0,0,1,.848-.433,13.265,13.265,0,0,1,2.375-.813,13.736,13.736,0,0,1,6.06-.083,13.644,13.644,0,0,1,2.375.748,8.605,8.605,0,0,1,.861.41,4.607,4.607,0,0,1,.629.356A2.414,2.414,0,0,1-5280.645-618.128Z" transform="translate(5490.646 698.948)" fill="#263238"/>
        <g id="Grupo_88331" data-name="Grupo 88331" transform="translate(161.099 76.078)" opacity="0.3">
          <path id="Trazado_145136" data-name="Trazado 145136" d="M-5352.931-567.874c2.416-3.52,3.307-6.837,4.6-10.909,1.917-6.048,2.452-12.88,5.466-18.465,1.781-3.288,3.858-6.659,6.945-8.772s3.454-4.671,3.4-11.74a8.4,8.4,0,0,0,4.694-1.929,11.982,11.982,0,0,0,2.641-4.944c-1.507,1.644-4.024,4.362-4.024,4.362s-5.455,1.015-5.377.979c-.13,2.718-.137,5.11-.272,7.829,0,0-10.464,11.1-11.277,13.337S-5352.931-567.874-5352.931-567.874Z" transform="translate(5352.931 624.633)"/>
        </g>
        <g id="Grupo_88332" data-name="Grupo 88332" transform="translate(199.952 112.609)" opacity="0.3">
          <path id="Trazado_145137" data-name="Trazado 145137" d="M-5287.47-473.538c13.265-25.1,17.384-58.106,16.619-89.545,0,0-3.8,38.217-5.092,44.776S-5287.47-473.538-5287.47-473.538Z" transform="translate(5287.47 563.083)"/>
        </g>
        <path id="Trazado_145138" data-name="Trazado 145138" d="M-5302.945-648.153a1.443,1.443,0,0,1-.3.232l-.883.594-3.3,2.161-10.867,7.033-4.7,2.968h0l-1.5,1.187a12.134,12.134,0,0,0-1.342,1.146c-.826.8-1.554,1.567-2.214,2.267l-.119.125-.065-.154-1.708-3.977c-.184-.445-.333-.807-.452-1.086a1.7,1.7,0,0,1-.136-.386,1.8,1.8,0,0,1,.2.362c.13.267.3.594.5,1.057l1.78,3.917-.184-.03c.648-.712,1.372-1.5,2.2-2.3a11.974,11.974,0,0,1,1.354-1.187l1.489-1.187h0l4.688-3.009,10.939-6.938,3.336-2.077.913-.546A2.047,2.047,0,0,1-5302.945-648.153Z" transform="translate(5504.921 710.271)" fill="#263238"/>
      </g>
      <g id="freepik--speech-bubble--inject-5" transform="translate(141.198 0)">
        <path id="Trazado_145139" data-name="Trazado 145139" d="M-5409.34-722.654l-7.414-.867a23.848,23.848,0,0,1-33.726.271,23.849,23.849,0,0,1-.27-33.725,23.847,23.847,0,0,1,33.725-.271,23.848,23.848,0,0,1,5.073,26.668h0Z" transform="translate(5476.349 764.205)" fill="#fff"/>
        <path id="Trazado_145140" data-name="Trazado 145140" d="M-5409.374-722.729s-.065-.178-.184-.522l-.516-1.519-1.97-5.87h.13a.072.072,0,0,1-.1,0h0a.076.076,0,0,1,0-.089,23.854,23.854,0,0,0,1.929-11.568,23.662,23.662,0,0,0-.594-3.62,26.61,26.61,0,0,0-1.265-3.715,23.639,23.639,0,0,0-31.037-12.424,23.641,23.641,0,0,0-14.13,18.633,24.1,24.1,0,0,0,1.092,10.826,23.257,23.257,0,0,0,5.383,8.713,23.7,23.7,0,0,0,16.269,7.176h1.015a6.152,6.152,0,0,0,1-.03l1.94-.172a33.129,33.129,0,0,0,3.609-.789,23.688,23.688,0,0,0,10-6,.063.063,0,0,1,.06,0l5.49.683,1.424.184.493.065-.463-.042-1.413-.148-5.549-.594h.059a23.648,23.648,0,0,1-10.071,6.09,32.315,32.315,0,0,1-3.638.813l-1.959.184a6.3,6.3,0,0,1-1.009.036h-1.027a23.961,23.961,0,0,1-21.96-16.025,24.335,24.335,0,0,1-1.116-10.968,23.834,23.834,0,0,1,4.214-10.749,9.872,9.872,0,0,1,.879-1.152l.919-1.116,1.015-1.021a10.966,10.966,0,0,1,1.051-.967l1.1-.908c.356-.309.777-.54,1.157-.813a13.213,13.213,0,0,1,1.187-.772l1.235-.665a23.674,23.674,0,0,1,10.482-2.689,24.036,24.036,0,0,1,17.771,7.372,23.835,23.835,0,0,1,4.748,7.194,26.1,26.1,0,0,1,1.264,3.757,23.524,23.524,0,0,1,.594,3.662,23.817,23.817,0,0,1-2.065,11.639l-.125-.077h0a.084.084,0,0,1,.107,0,.145.145,0,0,1,0,.036c.825,2.594,1.466,4.588,1.9,5.935.208.659.368,1.187.475,1.513A3.619,3.619,0,0,0-5409.374-722.729Z" transform="translate(5476.384 764.28)" fill="#263238"/>
        <path id="Trazado_145141" data-name="Trazado 145141" d="M-5435.8-728.906l2.849-3.152,6.042,4.855,8.974-10.309,2.938,2.861-12.048,13.253Z" transform="translate(5467.489 753.4)" fill="#05dbf2"/>
        <path id="Trazado_145142" data-name="Trazado 145142" d="M-5487.444-714.882l4.706-.593a.067.067,0,0,1,.048,0,20.357,20.357,0,0,0,8.576,5.146,29.14,29.14,0,0,0,3.092.677l1.667.148a5,5,0,0,0,.855,0h.872a20.22,20.22,0,0,0,7.218-1.567c.593-.261,1.234-.552,1.834-.878l-.552-.22a23.648,23.648,0,0,1-7.8-5.282,23.074,23.074,0,0,1-5.342-8.648,23.928,23.928,0,0,1-1.1-10.719,23.33,23.33,0,0,1,4.155-10.535,10.7,10.7,0,0,1,.866-1.128l.9-1.092.386-.392h-.665a20.4,20.4,0,0,0-15.058,6.214,20.156,20.156,0,0,0-4.071,6.066,22.45,22.45,0,0,0-1.086,3.187,20.264,20.264,0,0,0,1.146,13.022.078.078,0,0,1,0,.077l-1.68,4.992c-.19.594-.338,1-.445,1.306s-.154.445-.154.445l.421-.059Z" transform="translate(5489.142 758.463)" fill="#f5f5f5"/>
        <path id="Trazado_145143" data-name="Trazado 145143" d="M-5487.493-715s-.137.03-.41.071l-1.229.178h-.06v-.059c.463-1.389,1.223-3.692,2.238-6.76v-.036h0l-.042-.1-.083-.2-.161-.4c-.113-.267-.208-.546-.314-.831q-.294-.89-.534-1.781a19.984,19.984,0,0,1-.594-4.1,20.189,20.189,0,0,1,.333-4.63,20.532,20.532,0,0,1,.629-2.422,17.373,17.373,0,0,1,.955-2.427,20.3,20.3,0,0,1,7.419-8.511,20.5,20.5,0,0,1,12.173-3.235h.338l-.237.237-.385.392h0a24.032,24.032,0,0,0-5.633,11.23,23.284,23.284,0,0,0,14.512,26.216l.29.107-.272.131a24.25,24.25,0,0,1-3.211,1.395,20.969,20.969,0,0,1-3.229.8,21.575,21.575,0,0,1-6.077.083h0c-.689-.143-1.359-.255-2.013-.4a17.158,17.158,0,0,1-1.875-.552,20.557,20.557,0,0,1-3.253-1.466,20.028,20.028,0,0,1-4.522-3.448c0-.053-.137,0-.226,0l-.279.03-.528.065-.962.113-1.507.172-.919.1h-.321l.315-.053.92-.131,1.5-.2.962-.125.528-.071.279-.035h.143a.185.185,0,0,1,.089,0,.083.083,0,0,1,.059,0h.03a20.26,20.26,0,0,0,4.523,3.383,20.59,20.59,0,0,0,7.122,2.374h0a25.942,25.942,0,0,0,2.926.16,19.919,19.919,0,0,0,3.1-.267,20.66,20.66,0,0,0,3.188-.8,24.777,24.777,0,0,0,3.164-1.389v.237a23.52,23.52,0,0,1-14.719-26.453,24.229,24.229,0,0,1,5.7-11.366h0l.392-.392.1.261a20.181,20.181,0,0,0-19.349,11.5,17.107,17.107,0,0,0-.95,2.374,19.483,19.483,0,0,0-.635,2.374,20.086,20.086,0,0,0,.213,8.642c.154.594.326,1.223.516,1.781.1.279.2.558.3.825l.16.4.083.19.035.095a.147.147,0,0,1-.03.19v-.036c-1.05,3.069-1.827,5.377-2.32,6.731l-.036-.042,1.235-.148Z" transform="translate(5489.191 758.582)" fill="#263238"/>
      </g>
    </g>
    <path id="Trazado_149102" data-name="Trazado 149102" d="M8.9,11.568H4.052v3.059h5.73V17H.967V4.2H9.8V6.585H4.052v2.7H8.9ZM14.027,17H11.057V3.5h2.971Zm5.933-4.825a5.809,5.809,0,0,1,.976-3.56,3.211,3.211,0,0,1,2.725-1.3,2.731,2.731,0,0,1,2.145,1V3.5h2.971V17H26.112l-.149-1.02a2.8,2.8,0,0,1-2.32,1.2,3.205,3.205,0,0,1-2.689-1.3A5.993,5.993,0,0,1,19.96,12.175Zm2.962.185q0,2.531,1.477,2.531a1.458,1.458,0,0,0,1.406-.826V10.443A1.419,1.419,0,0,0,24.416,9.6q-1.371,0-1.485,2.215ZM35.06,17.176a4.889,4.889,0,0,1-3.542-1.305,4.507,4.507,0,0,1-1.354-3.4v-.246A5.84,5.84,0,0,1,30.7,9.652a3.955,3.955,0,0,1,1.578-1.727,4.763,4.763,0,0,1,2.461-.611,4.117,4.117,0,0,1,3.164,1.244,4.887,4.887,0,0,1,1.16,3.467v1.151H33.179a2.135,2.135,0,0,0,.694,1.257,2.066,2.066,0,0,0,1.389.457,2.662,2.662,0,0,0,2.2-.984l1.354,1.6a3.784,3.784,0,0,1-1.569,1.217A5.3,5.3,0,0,1,35.06,17.176ZM34.726,9.6q-1.3,0-1.547,1.723h2.988v-.229a1.467,1.467,0,0,0-.36-1.1A1.434,1.434,0,0,0,34.726,9.6ZM43.058,7.49l.1,1.116A3.27,3.27,0,0,1,45.87,7.314,2.407,2.407,0,0,1,48.3,8.747,3.165,3.165,0,0,1,51.1,7.314q2.892,0,2.971,3.5V17H51.1V11a1.813,1.813,0,0,0-.246-1.063,1.048,1.048,0,0,0-.9-.334,1.4,1.4,0,0,0-1.31.782l.009.123V17H45.686V11.015a1.906,1.906,0,0,0-.237-1.081,1.045,1.045,0,0,0-.905-.334,1.42,1.42,0,0,0-1.3.782V17H40.28V7.49ZM61.119,17a3.344,3.344,0,0,1-.281-.853,2.754,2.754,0,0,1-2.285,1.028,3.374,3.374,0,0,1-2.285-.813,2.588,2.588,0,0,1-.94-2.043,2.66,2.66,0,0,1,1.143-2.338,5.821,5.821,0,0,1,3.322-.791h.914v-.5q0-1.316-1.134-1.316a.927.927,0,0,0-1.055,1.042H55.556a2.655,2.655,0,0,1,1.173-2.239,4.931,4.931,0,0,1,2.993-.86A4.323,4.323,0,0,1,62.6,8.2a3.086,3.086,0,0,1,1.081,2.435v4.21a4.311,4.311,0,0,0,.4,2V17Zm-1.854-1.934a1.652,1.652,0,0,0,.918-.237,1.487,1.487,0,0,0,.523-.536V12.772h-.861q-1.547,0-1.547,1.389a.848.848,0,0,0,.272.655A.986.986,0,0,0,59.265,15.066ZM68.036,7.49l.1,1.116a3.225,3.225,0,0,1,2.716-1.292,2.713,2.713,0,0,1,2.219.888,4.226,4.226,0,0,1,.76,2.672V17H70.857V11a1.6,1.6,0,0,0-.29-1.059A1.342,1.342,0,0,0,69.513,9.6a1.413,1.413,0,0,0-1.292.686V17H65.259V7.49Zm7.058,4.685a5.809,5.809,0,0,1,.976-3.56,3.211,3.211,0,0,1,2.725-1.3,2.731,2.731,0,0,1,2.145,1V3.5h2.971V17H81.246L81.1,15.98a2.8,2.8,0,0,1-2.32,1.2,3.205,3.205,0,0,1-2.689-1.3A5.993,5.993,0,0,1,75.094,12.175Zm2.962.185q0,2.531,1.477,2.531a1.458,1.458,0,0,0,1.406-.826V10.443A1.419,1.419,0,0,0,79.55,9.6q-1.371,0-1.485,2.215ZM90.949,17a3.344,3.344,0,0,1-.281-.853,2.754,2.754,0,0,1-2.285,1.028,3.374,3.374,0,0,1-2.285-.813,2.588,2.588,0,0,1-.94-2.043A2.66,2.66,0,0,1,86.3,11.981a5.821,5.821,0,0,1,3.322-.791h.914v-.5q0-1.316-1.134-1.316a.927.927,0,0,0-1.055,1.042H85.386a2.655,2.655,0,0,1,1.173-2.239,4.931,4.931,0,0,1,2.993-.86,4.323,4.323,0,0,1,2.874.888,3.086,3.086,0,0,1,1.081,2.435v4.21a4.311,4.311,0,0,0,.4,2V17Zm-1.854-1.934a1.652,1.652,0,0,0,.918-.237,1.487,1.487,0,0,0,.523-.536V12.772h-.861q-1.547,0-1.547,1.389a.848.848,0,0,0,.272.655A.986.986,0,0,0,89.095,15.066ZM97.866,7.49l.1,1.116a3.225,3.225,0,0,1,2.716-1.292A2.713,2.713,0,0,1,102.9,8.2a4.226,4.226,0,0,1,.76,2.672V17h-2.971V11a1.6,1.6,0,0,0-.29-1.059A1.342,1.342,0,0,0,99.343,9.6a1.413,1.413,0,0,0-1.292.686V17H95.089V7.49Zm10.881-2.364V7.49h1.564V9.547h-1.564V13.9a1.111,1.111,0,0,0,.193.747,1.037,1.037,0,0,0,.765.211,4.345,4.345,0,0,0,.738-.053v2.118a5.466,5.466,0,0,1-1.67.255,3.1,3.1,0,0,1-2.259-.721,2.954,2.954,0,0,1-.729-2.188V9.547h-1.213V7.49h1.213V5.126Zm7.33,12.05a4.889,4.889,0,0,1-3.542-1.305,4.507,4.507,0,0,1-1.354-3.4v-.246a5.84,5.84,0,0,1,.541-2.575A3.955,3.955,0,0,1,113.3,7.925a4.763,4.763,0,0,1,2.461-.611,4.117,4.117,0,0,1,3.164,1.244,4.887,4.887,0,0,1,1.16,3.467v1.151H114.2a2.135,2.135,0,0,0,.694,1.257,2.066,2.066,0,0,0,1.389.457,2.662,2.662,0,0,0,2.2-.984l1.354,1.6a3.784,3.784,0,0,1-1.569,1.217A5.3,5.3,0,0,1,116.077,17.176ZM115.743,9.6q-1.3,0-1.547,1.723h2.988v-.229a1.467,1.467,0,0,0-.36-1.1A1.434,1.434,0,0,0,115.743,9.6ZM1.055,36.8a13.431,13.431,0,0,1,.571-3.99A9.629,9.629,0,0,1,3.2,29.678,5.6,5.6,0,0,1,5.44,27.885L6,29.344a5.73,5.73,0,0,0-1.9,2.826,13.782,13.782,0,0,0-.681,4.5v.387a14.051,14.051,0,0,0,.672,4.588A5.706,5.706,0,0,0,6,44.5L5.44,45.955a5.547,5.547,0,0,1-2.237-1.8,9.484,9.484,0,0,1-1.578-3.116,13.5,13.5,0,0,1-.571-3.85Zm10.151,3.094a1.317,1.317,0,0,0,.967-.338,1.241,1.241,0,0,0,.334-.945h2.777a3.288,3.288,0,0,1-1.121,2.566,4.168,4.168,0,0,1-2.887,1,4.22,4.22,0,0,1-3.27-1.3,5.125,5.125,0,0,1-1.2-3.6v-.123A5.792,5.792,0,0,1,7.343,34.6a3.872,3.872,0,0,1,1.534-1.7,4.573,4.573,0,0,1,2.373-.593,4.116,4.116,0,0,1,2.944,1.028,3.647,3.647,0,0,1,1.09,2.786H12.507A1.626,1.626,0,0,0,12.146,35a1.244,1.244,0,0,0-.967-.4q-1.151,0-1.345,1.468a10.357,10.357,0,0,0-.062,1.283,4.068,4.068,0,0,0,.343,1.986A1.187,1.187,0,0,0,11.206,39.891Zm4.957-2.733a5.613,5.613,0,0,1,.554-2.536,3.96,3.96,0,0,1,1.591-1.709,4.791,4.791,0,0,1,2.435-.6,4.373,4.373,0,0,1,3.366,1.323,5.076,5.076,0,0,1,1.23,3.6v.105A4.925,4.925,0,0,1,24.1,40.871a4.384,4.384,0,0,1-3.344,1.305A4.434,4.434,0,0,1,17.5,40.958a4.761,4.761,0,0,1-1.327-3.3Zm2.962.185a3.538,3.538,0,0,0,.413,1.934,1.376,1.376,0,0,0,1.222.615q1.582,0,1.617-2.435v-.3q0-2.558-1.635-2.558-1.485,0-1.608,2.206ZM29.364,32.49l.1,1.116a3.225,3.225,0,0,1,2.716-1.292A2.713,2.713,0,0,1,34.4,33.2a4.226,4.226,0,0,1,.76,2.672V42H32.186V36a1.6,1.6,0,0,0-.29-1.059,1.342,1.342,0,0,0-1.055-.338,1.413,1.413,0,0,0-1.292.686V42H26.587V32.49Zm12.41,6.838a.684.684,0,0,0-.4-.606,6.016,6.016,0,0,0-1.5-.475,6.853,6.853,0,0,1-1.828-.646,3.062,3.062,0,0,1-1.1-.971,2.319,2.319,0,0,1-.378-1.31,2.628,2.628,0,0,1,1.081-2.158,4.453,4.453,0,0,1,2.83-.848,4.934,4.934,0,0,1,3.023.853,2.666,2.666,0,0,1,1.143,2.241H41.678q0-1.143-1.2-1.143a1.194,1.194,0,0,0-.782.259.8.8,0,0,0-.316.646.737.737,0,0,0,.387.642,3.654,3.654,0,0,0,1.235.4,10.671,10.671,0,0,1,1.49.378,2.706,2.706,0,0,1,2.145,2.646,2.491,2.491,0,0,1-1.156,2.118,5.068,5.068,0,0,1-2.993.817,5.172,5.172,0,0,1-2.18-.439,3.645,3.645,0,0,1-1.494-1.2,2.707,2.707,0,0,1-.536-1.591h2.769a1.145,1.145,0,0,0,.439.962,1.808,1.808,0,0,0,1.081.3,1.422,1.422,0,0,0,.91-.246A.787.787,0,0,0,41.774,39.328Zm9.905,1.644a3.054,3.054,0,0,1-2.54,1.2,3,3,0,0,1-2.369-.91,3.826,3.826,0,0,1-.8-2.615V32.49h2.962v6.179a1.065,1.065,0,0,0,1.187,1.222,1.548,1.548,0,0,0,1.45-.729V32.49h2.979V42H51.768Zm7.286-8.481.1,1.116a3.27,3.27,0,0,1,2.716-1.292,2.407,2.407,0,0,1,2.435,1.433,3.165,3.165,0,0,1,2.795-1.433q2.892,0,2.971,3.5V42H67.008V36a1.813,1.813,0,0,0-.246-1.063,1.048,1.048,0,0,0-.9-.334,1.4,1.4,0,0,0-1.31.782l.009.123V42H61.594V36.015a1.906,1.906,0,0,0-.237-1.081,1.045,1.045,0,0,0-.905-.334,1.42,1.42,0,0,0-1.3.782V42H56.188V32.49ZM74.795,42H71.824V32.49h2.971ZM71.648,30.029a1.334,1.334,0,0,1,.457-1.043,1.934,1.934,0,0,1,2.373,0,1.42,1.42,0,0,1,0,2.087,1.934,1.934,0,0,1-2.373,0A1.334,1.334,0,0,1,71.648,30.029Zm4.6,7.146a5.809,5.809,0,0,1,.976-3.56,3.211,3.211,0,0,1,2.725-1.3,2.731,2.731,0,0,1,2.145,1V28.5h2.971V42H82.4l-.149-1.02a2.8,2.8,0,0,1-2.32,1.2,3.205,3.205,0,0,1-2.689-1.3A5.993,5.993,0,0,1,76.245,37.175Zm2.962.185q0,2.531,1.477,2.531a1.458,1.458,0,0,0,1.406-.826V35.443A1.419,1.419,0,0,0,80.7,34.6q-1.371,0-1.485,2.215Zm7.163-.2a5.613,5.613,0,0,1,.554-2.536,3.96,3.96,0,0,1,1.591-1.709,4.791,4.791,0,0,1,2.435-.6,4.373,4.373,0,0,1,3.366,1.323,5.076,5.076,0,0,1,1.23,3.6v.105a4.925,4.925,0,0,1-1.235,3.529,4.384,4.384,0,0,1-3.344,1.305,4.434,4.434,0,0,1-3.261-1.217,4.761,4.761,0,0,1-1.327-3.3Zm2.962.185a3.538,3.538,0,0,0,.413,1.934,1.376,1.376,0,0,0,1.222.615q1.582,0,1.617-2.435v-.3q0-2.558-1.635-2.558-1.485,0-1.608,2.206ZM102.6,35.171l-.976-.07a1.752,1.752,0,0,0-1.793.879V42H96.873V32.49H99.65l.1,1.222a2.294,2.294,0,0,1,2.083-1.4,2.888,2.888,0,0,1,.826.105Zm5.5,7a4.889,4.889,0,0,1-3.542-1.305,4.507,4.507,0,0,1-1.354-3.4v-.246a5.84,5.84,0,0,1,.541-2.575,3.955,3.955,0,0,1,1.578-1.727,4.763,4.763,0,0,1,2.461-.611,4.117,4.117,0,0,1,3.164,1.244,4.887,4.887,0,0,1,1.16,3.467v1.151h-5.889a2.135,2.135,0,0,0,.694,1.257,2.066,2.066,0,0,0,1.389.457,2.662,2.662,0,0,0,2.2-.984l1.354,1.6a3.784,3.784,0,0,1-1.569,1.217A5.3,5.3,0,0,1,108.105,42.176Zm-.334-7.576q-1.3,0-1.547,1.723h2.988v-.229a1.467,1.467,0,0,0-.36-1.1A1.434,1.434,0,0,0,107.771,34.6Zm10.512,4.729a.684.684,0,0,0-.4-.606,6.016,6.016,0,0,0-1.5-.475,6.853,6.853,0,0,1-1.828-.646,3.062,3.062,0,0,1-1.1-.971,2.319,2.319,0,0,1-.378-1.31,2.628,2.628,0,0,1,1.081-2.158,4.453,4.453,0,0,1,2.83-.848,4.934,4.934,0,0,1,3.023.853,2.666,2.666,0,0,1,1.143,2.241h-2.971q0-1.143-1.2-1.143a1.194,1.194,0,0,0-.782.259.8.8,0,0,0-.316.646.737.737,0,0,0,.387.642,3.654,3.654,0,0,0,1.235.4,10.671,10.671,0,0,1,1.49.378,2.706,2.706,0,0,1,2.145,2.646,2.491,2.491,0,0,1-1.156,2.118,5.068,5.068,0,0,1-2.993.817,5.172,5.172,0,0,1-2.18-.439,3.645,3.645,0,0,1-1.494-1.2,2.707,2.707,0,0,1-.536-1.591h2.769a1.145,1.145,0,0,0,.439.962,1.808,1.808,0,0,0,1.081.3,1.422,1.422,0,0,0,.91-.246A.787.787,0,0,0,118.283,39.328Zm8.912-2.285a12.532,12.532,0,0,1-.606,3.92,10.008,10.008,0,0,1-1.674,3.186,5.574,5.574,0,0,1-2.307,1.806l-.562-1.459a5.787,5.787,0,0,0,1.89-2.812,13.577,13.577,0,0,0,.694-4.368v-.536a14.051,14.051,0,0,0-.672-4.588,5.706,5.706,0,0,0-1.912-2.848l.563-1.459a5.676,5.676,0,0,1,2.29,1.789,9.885,9.885,0,0,1,1.67,3.138,12.426,12.426,0,0,1,.628,3.845Zm3.507,2.083a1.686,1.686,0,0,1,1.169.417,1.457,1.457,0,0,1,0,2.136,1.844,1.844,0,0,1-2.342,0,1.456,1.456,0,0,1,0-2.127A1.672,1.672,0,0,1,130.7,39.126Zm0-7.014a1.686,1.686,0,0,1,1.169.417,1.457,1.457,0,0,1,0,2.136,1.844,1.844,0,0,1-2.342,0,1.456,1.456,0,0,1,0-2.127A1.672,1.672,0,0,1,130.7,32.112Zm8.051,5.054a5.582,5.582,0,0,1,1.028-3.546,3.629,3.629,0,0,1,5.423-.171l.07-.958h1.494V45.656h-1.626V41.121a3.412,3.412,0,0,1-2.619,1.055,3.28,3.28,0,0,1-2.747-1.34,5.706,5.706,0,0,1-1.024-3.555Zm1.626.185a4.231,4.231,0,0,0,.69,2.566,2.195,2.195,0,0,0,1.859.932,2.435,2.435,0,0,0,2.215-1.283V34.907a2.442,2.442,0,0,0-2.2-1.257,2.211,2.211,0,0,0-1.872.936A4.606,4.606,0,0,0,140.379,37.351ZM155.25,41.06a3.454,3.454,0,0,1-2.786,1.116,2.956,2.956,0,0,1-2.316-.883,3.823,3.823,0,0,1-.8-2.615V32.49h1.626v6.144q0,2.162,1.758,2.162a2.434,2.434,0,0,0,2.479-1.389V32.49h1.626V42h-1.547Zm5.818.94h-1.626V32.49h1.626Zm-1.758-12.032a.971.971,0,0,1,.242-.668.907.907,0,0,1,.716-.272.922.922,0,0,1,.721.272.96.96,0,0,1,.246.668.929.929,0,0,1-.246.659.938.938,0,0,1-.721.264.924.924,0,0,1-.716-.264A.938.938,0,0,1,159.311,29.968Zm8.306,12.208a4.155,4.155,0,0,1-3.146-1.27,4.714,4.714,0,0,1-1.213-3.4v-.3a5.707,5.707,0,0,1,.541-2.527,4.217,4.217,0,0,1,1.512-1.74,3.8,3.8,0,0,1,2.1-.628,3.562,3.562,0,0,1,2.883,1.222,5.289,5.289,0,0,1,1.028,3.5v.677h-6.442a3.38,3.38,0,0,0,.822,2.272,2.583,2.583,0,0,0,2,.866,2.832,2.832,0,0,0,1.459-.352,3.666,3.666,0,0,0,1.046-.932l.993.773A3.993,3.993,0,0,1,167.616,42.176Zm-.2-8.525a2.169,2.169,0,0,0-1.652.716,3.482,3.482,0,0,0-.826,2.008H169.7v-.123a3.1,3.1,0,0,0-.668-1.92A2.042,2.042,0,0,0,167.414,33.65Zm7.33-1.16.053,1.2a3.465,3.465,0,0,1,2.848-1.371q3.015,0,3.041,3.4V42H179.06V35.707a2.189,2.189,0,0,0-.47-1.521,1.884,1.884,0,0,0-1.437-.492,2.347,2.347,0,0,0-1.389.422,2.865,2.865,0,0,0-.932,1.107V42h-1.626V32.49Zm12.34,9.686a4.155,4.155,0,0,1-3.146-1.27,4.714,4.714,0,0,1-1.213-3.4v-.3a5.707,5.707,0,0,1,.541-2.527,4.217,4.217,0,0,1,1.512-1.74,3.8,3.8,0,0,1,2.1-.628,3.562,3.562,0,0,1,2.883,1.222,5.289,5.289,0,0,1,1.028,3.5v.677h-6.442a3.38,3.38,0,0,0,.822,2.272,2.583,2.583,0,0,0,2,.866,2.832,2.832,0,0,0,1.459-.352,3.666,3.666,0,0,0,1.046-.932l.993.773A3.993,3.993,0,0,1,187.084,42.176Zm-.2-8.525a2.169,2.169,0,0,0-1.652.716,3.482,3.482,0,0,0-.826,2.008h4.764v-.123a3.1,3.1,0,0,0-.668-1.92A2.042,2.042,0,0,0,186.882,33.65Zm11.329,5.827a1.2,1.2,0,0,0-.5-1.024,4.78,4.78,0,0,0-1.731-.628,8.186,8.186,0,0,1-1.96-.633,2.788,2.788,0,0,1-1.072-.879A2.1,2.1,0,0,1,192.6,35.1a2.467,2.467,0,0,1,.989-1.978,3.861,3.861,0,0,1,2.527-.809,3.974,3.974,0,0,1,2.624.835,2.652,2.652,0,0,1,1.006,2.136h-1.635a1.468,1.468,0,0,0-.567-1.151,2.124,2.124,0,0,0-1.428-.483,2.223,2.223,0,0,0-1.389.387,1.217,1.217,0,0,0-.5,1.011.986.986,0,0,0,.466.888,5.731,5.731,0,0,0,1.683.571,8.77,8.77,0,0,1,1.973.65,2.878,2.878,0,0,1,1.121.91,2.237,2.237,0,0,1,.365,1.3,2.434,2.434,0,0,1-1.02,2.043,4.277,4.277,0,0,1-2.646.769,4.789,4.789,0,0,1-2.021-.4,3.288,3.288,0,0,1-1.375-1.129,2.722,2.722,0,0,1-.5-1.569H193.9a1.683,1.683,0,0,0,.655,1.3,2.54,2.54,0,0,0,1.613.479,2.622,2.622,0,0,0,1.481-.374A1.148,1.148,0,0,0,198.211,39.478ZM5.177,67.176a4.155,4.155,0,0,1-3.146-1.27,4.714,4.714,0,0,1-1.213-3.4v-.3a5.707,5.707,0,0,1,.541-2.527,4.217,4.217,0,0,1,1.512-1.74,3.8,3.8,0,0,1,2.1-.628,3.562,3.562,0,0,1,2.883,1.222,5.289,5.289,0,0,1,1.028,3.5v.677H2.443a3.38,3.38,0,0,0,.822,2.272,2.583,2.583,0,0,0,2,.866A2.832,2.832,0,0,0,6.724,65.5a3.666,3.666,0,0,0,1.046-.932l.993.773A3.993,3.993,0,0,1,5.177,67.176Zm-.2-8.525a2.169,2.169,0,0,0-1.652.716A3.482,3.482,0,0,0,2.5,61.375H7.26v-.123a3.1,3.1,0,0,0-.668-1.92A2.042,2.042,0,0,0,4.975,58.65ZM16.3,64.478a1.2,1.2,0,0,0-.5-1.024,4.78,4.78,0,0,0-1.731-.628,8.186,8.186,0,0,1-1.96-.633,2.788,2.788,0,0,1-1.072-.879A2.1,2.1,0,0,1,10.7,60.1a2.467,2.467,0,0,1,.989-1.978,3.861,3.861,0,0,1,2.527-.809,3.974,3.974,0,0,1,2.624.835,2.652,2.652,0,0,1,1.006,2.136H16.207a1.468,1.468,0,0,0-.567-1.151,2.124,2.124,0,0,0-1.428-.483,2.223,2.223,0,0,0-1.389.387,1.217,1.217,0,0,0-.5,1.011.986.986,0,0,0,.466.888,5.731,5.731,0,0,0,1.683.571,8.77,8.77,0,0,1,1.973.65,2.878,2.878,0,0,1,1.121.91,2.237,2.237,0,0,1,.365,1.3,2.434,2.434,0,0,1-1.02,2.043,4.277,4.277,0,0,1-2.646.769,4.789,4.789,0,0,1-2.021-.4,3.288,3.288,0,0,1-1.375-1.129,2.722,2.722,0,0,1-.5-1.569H12a1.683,1.683,0,0,0,.655,1.3,2.54,2.54,0,0,0,1.613.479,2.622,2.622,0,0,0,1.481-.374A1.148,1.148,0,0,0,16.3,64.478Zm5.95-9.29v2.3h1.775v1.257H22.254v5.9a1.32,1.32,0,0,0,.237.858,1,1,0,0,0,.809.286,3.937,3.937,0,0,0,.773-.105V67a4.742,4.742,0,0,1-1.248.175,2.025,2.025,0,0,1-1.644-.659,2.832,2.832,0,0,1-.554-1.872v-5.9H18.9V57.49h1.731v-2.3ZM31.8,67a3.416,3.416,0,0,1-.229-1,3.628,3.628,0,0,1-2.707,1.178,3.357,3.357,0,0,1-2.307-.8,2.573,2.573,0,0,1-.9-2.017,2.688,2.688,0,0,1,1.129-2.307,5.325,5.325,0,0,1,3.177-.822h1.582v-.747a1.826,1.826,0,0,0-.51-1.358,2.049,2.049,0,0,0-1.5-.505,2.371,2.371,0,0,0-1.459.439,1.3,1.3,0,0,0-.589,1.063H25.849a2.244,2.244,0,0,1,.505-1.375,3.449,3.449,0,0,1,1.371-1.05,4.613,4.613,0,0,1,1.9-.387,3.759,3.759,0,0,1,2.575.822A2.964,2.964,0,0,1,33.17,60.4v4.377a5.351,5.351,0,0,0,.334,2.083V67Zm-2.7-1.239a2.858,2.858,0,0,0,1.45-.4,2.392,2.392,0,0,0,.993-1.028V62.386H30.27q-2.988,0-2.988,1.749a1.48,1.48,0,0,0,.51,1.2A1.959,1.959,0,0,0,29.1,65.761Zm14.669-3.41a5.654,5.654,0,0,1-1,3.5,3.2,3.2,0,0,1-2.689,1.323A3.315,3.315,0,0,1,37.292,65.9L37.213,67H35.719V53.5h1.626v5.036a3.3,3.3,0,0,1,2.716-1.222,3.221,3.221,0,0,1,2.72,1.31,5.824,5.824,0,0,1,.989,3.586Zm-1.626-.185A4.394,4.394,0,0,0,41.5,59.6a2.124,2.124,0,0,0-1.846-.905,2.387,2.387,0,0,0-2.312,1.494V64.3A2.454,2.454,0,0,0,39.674,65.8a2.112,2.112,0,0,0,1.819-.905A4.672,4.672,0,0,0,42.144,62.166ZM47.584,67H45.958V53.5h1.626Zm6.548.176a4.155,4.155,0,0,1-3.146-1.27,4.714,4.714,0,0,1-1.213-3.4v-.3a5.707,5.707,0,0,1,.541-2.527,4.217,4.217,0,0,1,1.512-1.74,3.8,3.8,0,0,1,2.1-.628,3.562,3.562,0,0,1,2.883,1.222,5.289,5.289,0,0,1,1.028,3.5v.677H51.4a3.38,3.38,0,0,0,.822,2.272,2.583,2.583,0,0,0,2,.866,2.832,2.832,0,0,0,1.459-.352,3.666,3.666,0,0,0,1.046-.932l.993.773A3.993,3.993,0,0,1,54.132,67.176Zm-.2-8.525a2.169,2.169,0,0,0-1.652.716,3.482,3.482,0,0,0-.826,2.008h4.764v-.123a3.1,3.1,0,0,0-.668-1.92A2.042,2.042,0,0,0,53.93,58.65Zm9.606,7.2a2.342,2.342,0,0,0,1.521-.527A1.855,1.855,0,0,0,65.777,64h1.538a2.949,2.949,0,0,1-.562,1.556,3.7,3.7,0,0,1-1.384,1.178,3.994,3.994,0,0,1-1.833.439,3.918,3.918,0,0,1-3.089-1.3A5.163,5.163,0,0,1,59.3,62.333v-.272a5.725,5.725,0,0,1,.51-2.47,3.883,3.883,0,0,1,1.463-1.679,4.157,4.157,0,0,1,2.254-.6,3.814,3.814,0,0,1,2.659.958,3.424,3.424,0,0,1,1.129,2.487H65.777a2.241,2.241,0,0,0-.7-1.516,2.174,2.174,0,0,0-1.551-.593,2.276,2.276,0,0,0-1.92.892,4.19,4.19,0,0,0-.681,2.58v.308a4.106,4.106,0,0,0,.677,2.531A2.287,2.287,0,0,0,63.536,65.849Zm9.554,1.327a4.155,4.155,0,0,1-3.146-1.27,4.714,4.714,0,0,1-1.213-3.4v-.3a5.707,5.707,0,0,1,.541-2.527,4.217,4.217,0,0,1,1.512-1.74,3.8,3.8,0,0,1,2.1-.628,3.562,3.562,0,0,1,2.883,1.222,5.289,5.289,0,0,1,1.028,3.5v.677H70.356a3.38,3.38,0,0,0,.822,2.272,2.583,2.583,0,0,0,2,.866,2.832,2.832,0,0,0,1.459-.352,3.666,3.666,0,0,0,1.046-.932l.993.773A3.993,3.993,0,0,1,73.09,67.176Zm-.2-8.525a2.169,2.169,0,0,0-1.652.716,3.482,3.482,0,0,0-.826,2.008h4.764v-.123a3.1,3.1,0,0,0-.668-1.92A2.042,2.042,0,0,0,72.888,58.65Zm7.33-1.16.053,1.2a3.465,3.465,0,0,1,2.848-1.371q3.015,0,3.041,3.4V67H84.533V60.707a2.189,2.189,0,0,0-.47-1.521,1.884,1.884,0,0,0-1.437-.492,2.347,2.347,0,0,0-1.389.422,2.865,2.865,0,0,0-.932,1.107V67H78.68V57.49ZM94.834,67H93.208V53.5h1.626Zm8.473,0a3.416,3.416,0,0,1-.229-1,3.628,3.628,0,0,1-2.707,1.178,3.357,3.357,0,0,1-2.307-.8,2.573,2.573,0,0,1-.9-2.017,2.688,2.688,0,0,1,1.129-2.307,5.325,5.325,0,0,1,3.177-.822h1.582v-.747a1.826,1.826,0,0,0-.51-1.358,2.049,2.049,0,0,0-1.5-.505,2.371,2.371,0,0,0-1.459.439,1.3,1.3,0,0,0-.589,1.063H97.356a2.244,2.244,0,0,1,.505-1.375,3.449,3.449,0,0,1,1.371-1.05,4.613,4.613,0,0,1,1.9-.387,3.759,3.759,0,0,1,2.575.822,2.964,2.964,0,0,1,.967,2.263v4.377a5.351,5.351,0,0,0,.334,2.083V67Zm-2.7-1.239a2.858,2.858,0,0,0,1.45-.4,2.392,2.392,0,0,0,.993-1.028V62.386h-1.274q-2.988,0-2.988,1.749a1.48,1.48,0,0,0,.51,1.2A1.959,1.959,0,0,0,100.608,65.761Zm10.679-3.595a5.571,5.571,0,0,1,1.037-3.52,3.529,3.529,0,0,1,5.361-.189V53.5h1.626V67h-1.494l-.079-1.02a3.311,3.311,0,0,1-2.716,1.2,3.248,3.248,0,0,1-2.694-1.354,5.634,5.634,0,0,1-1.042-3.533Zm1.626.185a4.218,4.218,0,0,0,.668,2.531,2.159,2.159,0,0,0,1.846.914,2.372,2.372,0,0,0,2.259-1.389V60.039a2.39,2.39,0,0,0-2.241-1.345,2.17,2.17,0,0,0-1.863.923A4.644,4.644,0,0,0,112.913,62.351Zm12.867,4.825a4.155,4.155,0,0,1-3.146-1.27,4.714,4.714,0,0,1-1.213-3.4v-.3a5.707,5.707,0,0,1,.541-2.527,4.217,4.217,0,0,1,1.512-1.74,3.8,3.8,0,0,1,2.1-.628,3.562,3.562,0,0,1,2.883,1.222,5.289,5.289,0,0,1,1.028,3.5v.677h-6.442a3.38,3.38,0,0,0,.822,2.272,2.583,2.583,0,0,0,2,.866,2.832,2.832,0,0,0,1.459-.352,3.666,3.666,0,0,0,1.046-.932l.993.773A3.993,3.993,0,0,1,125.78,67.176Zm-.2-8.525a2.169,2.169,0,0,0-1.652.716,3.482,3.482,0,0,0-.826,2.008h4.764v-.123a3.1,3.1,0,0,0-.668-1.92A2.042,2.042,0,0,0,125.578,58.65Zm7.321-1.16.044,1.055a3.512,3.512,0,0,1,2.821-1.23,2.719,2.719,0,0,1,2.716,1.529,3.6,3.6,0,0,1,1.235-1.107,3.647,3.647,0,0,1,1.8-.422q3.129,0,3.182,3.313V67h-1.626V60.725A2.184,2.184,0,0,0,142.6,59.2a2.051,2.051,0,0,0-1.564-.505,2.156,2.156,0,0,0-1.5.541,2.193,2.193,0,0,0-.694,1.455V67h-1.635V60.769a1.814,1.814,0,0,0-2.03-2.074,2.175,2.175,0,0,0-2.188,1.362V67h-1.626V57.49ZM153.018,67a3.416,3.416,0,0,1-.229-1,3.628,3.628,0,0,1-2.707,1.178,3.357,3.357,0,0,1-2.307-.8,2.573,2.573,0,0,1-.9-2.017A2.688,2.688,0,0,1,148,62.056a5.325,5.325,0,0,1,3.177-.822h1.582v-.747a1.826,1.826,0,0,0-.51-1.358,2.049,2.049,0,0,0-1.5-.505,2.371,2.371,0,0,0-1.459.439,1.3,1.3,0,0,0-.589,1.063h-1.635a2.244,2.244,0,0,1,.505-1.375,3.449,3.449,0,0,1,1.371-1.05,4.613,4.613,0,0,1,1.9-.387,3.759,3.759,0,0,1,2.575.822,2.964,2.964,0,0,1,.967,2.263v4.377a5.351,5.351,0,0,0,.334,2.083V67Zm-2.7-1.239a2.858,2.858,0,0,0,1.45-.4,2.392,2.392,0,0,0,.993-1.028V62.386h-1.274q-2.988,0-2.988,1.749a1.48,1.48,0,0,0,.51,1.2A1.959,1.959,0,0,0,150.319,65.761Zm8.156-8.271.053,1.2a3.465,3.465,0,0,1,2.848-1.371q3.015,0,3.041,3.4V67h-1.626V60.707a2.189,2.189,0,0,0-.47-1.521,1.884,1.884,0,0,0-1.437-.492,2.347,2.347,0,0,0-1.389.422,2.865,2.865,0,0,0-.932,1.107V67h-1.626V57.49Zm8,4.676a5.571,5.571,0,0,1,1.037-3.52,3.529,3.529,0,0,1,5.361-.189V53.5H174.5V67H173l-.079-1.02a3.311,3.311,0,0,1-2.716,1.2,3.248,3.248,0,0,1-2.694-1.354,5.634,5.634,0,0,1-1.042-3.533Zm1.626.185a4.218,4.218,0,0,0,.668,2.531,2.159,2.159,0,0,0,1.846.914,2.372,2.372,0,0,0,2.259-1.389V60.039a2.39,2.39,0,0,0-2.241-1.345,2.17,2.17,0,0,0-1.863.923A4.644,4.644,0,0,0,168.1,62.351ZM182.892,67a3.416,3.416,0,0,1-.229-1,3.628,3.628,0,0,1-2.707,1.178,3.357,3.357,0,0,1-2.307-.8,2.573,2.573,0,0,1-.9-2.017,2.688,2.688,0,0,1,1.129-2.307,5.325,5.325,0,0,1,3.177-.822h1.582v-.747a1.826,1.826,0,0,0-.51-1.358,2.049,2.049,0,0,0-1.5-.505,2.371,2.371,0,0,0-1.459.439,1.3,1.3,0,0,0-.589,1.063h-1.635a2.244,2.244,0,0,1,.505-1.375,3.449,3.449,0,0,1,1.371-1.05,4.613,4.613,0,0,1,1.9-.387,3.759,3.759,0,0,1,2.575.822,2.964,2.964,0,0,1,.967,2.263v4.377a5.351,5.351,0,0,0,.334,2.083V67Zm-2.7-1.239a2.858,2.858,0,0,0,1.45-.4,2.392,2.392,0,0,0,.993-1.028V62.386h-1.274q-2.988,0-2.988,1.749a1.48,1.48,0,0,0,.51,1.2A1.959,1.959,0,0,0,180.193,65.761Zm6.653.387a1.018,1.018,0,0,1,.25-.7.954.954,0,0,1,.751-.281.983.983,0,0,1,.76.281,1,1,0,0,1,.259.7.944.944,0,0,1-.259.677,1,1,0,0,1-.76.272.9.9,0,0,1-1-.949Z" transform="translate(1055 2752)" fill="#fff"/>
    <path id="Trazado_149103" data-name="Trazado 149103" d="M8.9,11.568H4.052v3.059h5.73V17H.967V4.2H9.8V6.585H4.052v2.7H8.9ZM14.027,17H11.057V3.5h2.971Zm5.933-4.843a5.613,5.613,0,0,1,.554-2.536A3.96,3.96,0,0,1,22.1,7.912a4.791,4.791,0,0,1,2.435-.6,4.373,4.373,0,0,1,3.366,1.323,5.076,5.076,0,0,1,1.23,3.6v.105A4.925,4.925,0,0,1,27.9,15.871a4.384,4.384,0,0,1-3.344,1.305A4.434,4.434,0,0,1,21.3,15.958a4.761,4.761,0,0,1-1.327-3.3Zm2.962.185a3.538,3.538,0,0,0,.413,1.934,1.376,1.376,0,0,0,1.222.615q1.582,0,1.617-2.435v-.3q0-2.558-1.635-2.558-1.485,0-1.608,2.206ZM31.1,17V9.547h-1.38V7.49H31.1V6.734a3.286,3.286,0,0,1,.958-2.522,3.785,3.785,0,0,1,2.689-.9,5.89,5.89,0,0,1,1.389.185l.009,2.18a2.706,2.706,0,0,0-.729-.079q-1.345,0-1.345,1.16V7.49h1.854V9.547H34.066V17Zm10.257.176a4.889,4.889,0,0,1-3.542-1.305,4.507,4.507,0,0,1-1.354-3.4v-.246A5.84,5.84,0,0,1,37,9.652a3.955,3.955,0,0,1,1.578-1.727,4.763,4.763,0,0,1,2.461-.611A4.117,4.117,0,0,1,44.2,8.558a4.887,4.887,0,0,1,1.16,3.467v1.151H39.472a2.135,2.135,0,0,0,.694,1.257,2.066,2.066,0,0,0,1.389.457,2.662,2.662,0,0,0,2.2-.984l1.354,1.6a3.784,3.784,0,0,1-1.569,1.217A5.3,5.3,0,0,1,41.353,17.176ZM41.019,9.6q-1.3,0-1.547,1.723H42.46v-.229a1.467,1.467,0,0,0-.36-1.1A1.434,1.434,0,0,0,41.019,9.6Zm11.285.571-.976-.07a1.752,1.752,0,0,0-1.793.879V17H46.573V7.49h2.777l.1,1.222a2.294,2.294,0,0,1,2.083-1.4,2.888,2.888,0,0,1,.826.105Zm5.5,7a4.889,4.889,0,0,1-3.542-1.305,4.507,4.507,0,0,1-1.354-3.4v-.246a5.84,5.84,0,0,1,.541-2.575,3.955,3.955,0,0,1,1.578-1.727,4.763,4.763,0,0,1,2.461-.611,4.117,4.117,0,0,1,3.164,1.244,4.887,4.887,0,0,1,1.16,3.467v1.151H55.925a2.135,2.135,0,0,0,.694,1.257,2.066,2.066,0,0,0,1.389.457,2.662,2.662,0,0,0,2.2-.984l1.354,1.6a3.784,3.784,0,0,1-1.569,1.217A5.3,5.3,0,0,1,57.806,17.176ZM57.472,9.6q-1.3,0-1.547,1.723h2.988v-.229a1.467,1.467,0,0,0-.36-1.1A1.434,1.434,0,0,0,57.472,9.6ZM65.725,7.49l.1,1.116a3.225,3.225,0,0,1,2.716-1.292,2.713,2.713,0,0,1,2.219.888,4.226,4.226,0,0,1,.76,2.672V17H68.546V11a1.6,1.6,0,0,0-.29-1.059A1.342,1.342,0,0,0,67.2,9.6a1.413,1.413,0,0,0-1.292.686V17H62.947V7.49ZM76.605,5.126V7.49H78.17V9.547H76.605V13.9a1.111,1.111,0,0,0,.193.747,1.037,1.037,0,0,0,.765.211A4.345,4.345,0,0,0,78.3,14.8v2.118a5.466,5.466,0,0,1-1.67.255,3.1,3.1,0,0,1-2.259-.721,2.954,2.954,0,0,1-.729-2.188V9.547H72.431V7.49h1.213V5.126Zm7.33,12.05a4.889,4.889,0,0,1-3.542-1.305,4.507,4.507,0,0,1-1.354-3.4v-.246a5.84,5.84,0,0,1,.541-2.575,3.955,3.955,0,0,1,1.578-1.727,4.763,4.763,0,0,1,2.461-.611,4.117,4.117,0,0,1,3.164,1.244,4.887,4.887,0,0,1,1.16,3.467v1.151H82.055a2.135,2.135,0,0,0,.694,1.257,2.066,2.066,0,0,0,1.389.457,2.662,2.662,0,0,0,2.2-.984l1.354,1.6a3.784,3.784,0,0,1-1.569,1.217A5.3,5.3,0,0,1,83.936,17.176ZM83.6,9.6q-1.3,0-1.547,1.723h2.988v-.229a1.467,1.467,0,0,0-.36-1.1A1.434,1.434,0,0,0,83.6,9.6Zm10.239,2.2a13.431,13.431,0,0,1,.571-3.99A9.629,9.629,0,0,1,95.99,4.678a5.6,5.6,0,0,1,2.237-1.793l.563,1.459a5.73,5.73,0,0,0-1.9,2.826,13.782,13.782,0,0,0-.681,4.5v.387a14.051,14.051,0,0,0,.672,4.588A5.706,5.706,0,0,0,98.789,19.5l-.562,1.459a5.547,5.547,0,0,1-2.237-1.8,9.484,9.484,0,0,1-1.578-3.116,13.5,13.5,0,0,1-.571-3.85Zm10.731,5.379a4.889,4.889,0,0,1-3.542-1.305,4.507,4.507,0,0,1-1.354-3.4v-.246a5.84,5.84,0,0,1,.541-2.575,3.955,3.955,0,0,1,1.578-1.727,4.763,4.763,0,0,1,2.461-.611,4.117,4.117,0,0,1,3.164,1.244,4.887,4.887,0,0,1,1.16,3.467v1.151h-5.889a2.135,2.135,0,0,0,.694,1.257,2.066,2.066,0,0,0,1.389.457,2.662,2.662,0,0,0,2.2-.984l1.354,1.6a3.784,3.784,0,0,1-1.569,1.217A5.3,5.3,0,0,1,104.572,17.176ZM104.238,9.6q-1.3,0-1.547,1.723h2.988v-.229a1.467,1.467,0,0,0-.36-1.1A1.434,1.434,0,0,0,104.238,9.6ZM112.57,7.49l.1,1.116a3.27,3.27,0,0,1,2.716-1.292,2.407,2.407,0,0,1,2.435,1.433,3.165,3.165,0,0,1,2.795-1.433q2.892,0,2.971,3.5V17h-2.971V11a1.813,1.813,0,0,0-.246-1.063,1.048,1.048,0,0,0-.9-.334,1.4,1.4,0,0,0-1.31.782l.009.123V17H115.2V11.015a1.906,1.906,0,0,0-.237-1.081,1.045,1.045,0,0,0-.905-.334,1.42,1.42,0,0,0-1.3.782V17h-2.962V7.49ZM134.1,12.315a5.735,5.735,0,0,1-1,3.538,3.2,3.2,0,0,1-2.694,1.323,2.742,2.742,0,0,1-2.153-.958v4.438H125.3V7.49h2.769l.088.879a2.742,2.742,0,0,1,2.241-1.055,3.224,3.224,0,0,1,2.733,1.3,5.805,5.805,0,0,1,.976,3.564Zm-2.962-.185q0-2.531-1.477-2.531a1.394,1.394,0,0,0-1.406.756V14.1a1.439,1.439,0,0,0,1.424.791q1.415,0,1.459-2.443Zm10.02-1.96-.976-.07a1.752,1.752,0,0,0-1.793.879V17h-2.962V7.49h2.777l.1,1.222a2.294,2.294,0,0,1,2.083-1.4,2.888,2.888,0,0,1,.826.105Zm5.5,7a4.889,4.889,0,0,1-3.542-1.305,4.507,4.507,0,0,1-1.354-3.4v-.246a5.84,5.84,0,0,1,.541-2.575,3.955,3.955,0,0,1,1.578-1.727,4.763,4.763,0,0,1,2.461-.611,4.117,4.117,0,0,1,3.164,1.244,4.887,4.887,0,0,1,1.16,3.467v1.151h-5.889a2.135,2.135,0,0,0,.694,1.257,2.066,2.066,0,0,0,1.389.457,2.662,2.662,0,0,0,2.2-.984l1.354,1.6a3.784,3.784,0,0,1-1.569,1.217A5.3,5.3,0,0,1,146.663,17.176ZM146.329,9.6q-1.3,0-1.547,1.723h2.988v-.229a1.467,1.467,0,0,0-.36-1.1A1.434,1.434,0,0,0,146.329,9.6Zm10.512,4.729a.684.684,0,0,0-.4-.606,6.016,6.016,0,0,0-1.5-.475,6.853,6.853,0,0,1-1.828-.646,3.062,3.062,0,0,1-1.1-.971,2.319,2.319,0,0,1-.378-1.31,2.628,2.628,0,0,1,1.081-2.158,4.453,4.453,0,0,1,2.83-.848,4.934,4.934,0,0,1,3.023.853,2.666,2.666,0,0,1,1.143,2.241h-2.971q0-1.143-1.2-1.143a1.194,1.194,0,0,0-.782.259.8.8,0,0,0-.316.646.737.737,0,0,0,.387.642,3.654,3.654,0,0,0,1.235.4,10.671,10.671,0,0,1,1.49.378A2.706,2.706,0,0,1,159.7,14.24a2.491,2.491,0,0,1-1.156,2.118,5.068,5.068,0,0,1-2.993.817,5.172,5.172,0,0,1-2.18-.439,3.645,3.645,0,0,1-1.494-1.2,2.707,2.707,0,0,1-.536-1.591h2.769a1.145,1.145,0,0,0,.439.962,1.808,1.808,0,0,0,1.081.3,1.422,1.422,0,0,0,.91-.246A.787.787,0,0,0,156.841,14.328Zm9.6,2.672a3.344,3.344,0,0,1-.281-.853,2.754,2.754,0,0,1-2.285,1.028,3.374,3.374,0,0,1-2.285-.813,2.588,2.588,0,0,1-.94-2.043,2.66,2.66,0,0,1,1.143-2.338,5.821,5.821,0,0,1,3.322-.791h.914v-.5q0-1.316-1.134-1.316a.927.927,0,0,0-1.055,1.042h-2.962a2.655,2.655,0,0,1,1.173-2.239,4.931,4.931,0,0,1,2.993-.86,4.323,4.323,0,0,1,2.874.888A3.086,3.086,0,0,1,169,10.637v4.21a4.311,4.311,0,0,0,.4,2V17Zm-1.854-1.934a1.652,1.652,0,0,0,.918-.237,1.487,1.487,0,0,0,.523-.536V12.772h-.861q-1.547,0-1.547,1.389a.848.848,0,0,0,.272.655A.986.986,0,0,0,164.584,15.066Zm11.8-4.9-.976-.07a1.752,1.752,0,0,0-1.793.879V17h-2.962V7.49h2.777l.1,1.222a2.294,2.294,0,0,1,2.083-1.4,2.888,2.888,0,0,1,.826.105ZM180.58,17h-2.971V7.49h2.971ZM177.434,5.029a1.334,1.334,0,0,1,.457-1.043,1.934,1.934,0,0,1,2.373,0,1.334,1.334,0,0,1,.457,1.043,1.334,1.334,0,0,1-.457,1.043,1.934,1.934,0,0,1-2.373,0A1.334,1.334,0,0,1,177.434,5.029Zm4.6,7.128a5.613,5.613,0,0,1,.554-2.536,3.96,3.96,0,0,1,1.591-1.709,4.791,4.791,0,0,1,2.435-.6,4.373,4.373,0,0,1,3.366,1.323,5.076,5.076,0,0,1,1.23,3.6v.105a4.925,4.925,0,0,1-1.235,3.529,4.384,4.384,0,0,1-3.344,1.305,4.434,4.434,0,0,1-3.261-1.217,4.761,4.761,0,0,1-1.327-3.3Zm2.962.185a3.538,3.538,0,0,0,.413,1.934,1.376,1.376,0,0,0,1.222.615q1.582,0,1.617-2.435v-.3q0-2.558-1.635-2.558-1.485,0-1.608,2.206Zm12.19-.3a12.532,12.532,0,0,1-.606,3.92,10.008,10.008,0,0,1-1.674,3.186,5.574,5.574,0,0,1-2.307,1.806l-.562-1.459a5.787,5.787,0,0,0,1.89-2.812,13.577,13.577,0,0,0,.694-4.368v-.536a14.051,14.051,0,0,0-.672-4.588,5.706,5.706,0,0,0-1.912-2.848l.563-1.459a5.676,5.676,0,0,1,2.29,1.789,9.885,9.885,0,0,1,1.67,3.138,12.426,12.426,0,0,1,.628,3.845Zm3.507,2.083a1.686,1.686,0,0,1,1.169.417,1.457,1.457,0,0,1,0,2.136,1.844,1.844,0,0,1-2.342,0,1.456,1.456,0,0,1,0-2.127A1.672,1.672,0,0,1,200.689,14.126Zm0-7.014a1.686,1.686,0,0,1,1.169.417,1.457,1.457,0,0,1,0,2.136,1.844,1.844,0,0,1-2.342,0,1.456,1.456,0,0,1,0-2.127A1.672,1.672,0,0,1,200.689,7.112ZM.835,37.166A5.582,5.582,0,0,1,1.863,33.62a3.332,3.332,0,0,1,2.76-1.305,3.33,3.33,0,0,1,2.663,1.134l.07-.958H8.851V45.656H7.225V41.121a3.412,3.412,0,0,1-2.619,1.055,3.28,3.28,0,0,1-2.747-1.34A5.706,5.706,0,0,1,.835,37.28Zm1.626.185a4.231,4.231,0,0,0,.69,2.566,2.195,2.195,0,0,0,1.859.932,2.435,2.435,0,0,0,2.215-1.283V34.907a2.442,2.442,0,0,0-2.2-1.257,2.211,2.211,0,0,0-1.872.936A4.606,4.606,0,0,0,2.461,37.351ZM17.332,41.06a3.454,3.454,0,0,1-2.786,1.116,2.956,2.956,0,0,1-2.316-.883,3.823,3.823,0,0,1-.8-2.615V32.49h1.626v6.144q0,2.162,1.758,2.162a2.434,2.434,0,0,0,2.479-1.389V32.49h1.626V42H17.367ZM23.15,42H21.524V32.49H23.15ZM21.393,29.968a.971.971,0,0,1,.242-.668.907.907,0,0,1,.716-.272.922.922,0,0,1,.721.272.96.96,0,0,1,.246.668.929.929,0,0,1-.246.659.938.938,0,0,1-.721.264.924.924,0,0,1-.716-.264A.938.938,0,0,1,21.393,29.968ZM29.7,42.176a4.155,4.155,0,0,1-3.146-1.27,4.714,4.714,0,0,1-1.213-3.4v-.3a5.707,5.707,0,0,1,.541-2.527,4.217,4.217,0,0,1,1.512-1.74,3.8,3.8,0,0,1,2.1-.628,3.562,3.562,0,0,1,2.883,1.222,5.289,5.289,0,0,1,1.028,3.5v.677H26.965a3.38,3.38,0,0,0,.822,2.272,2.583,2.583,0,0,0,2,.866,2.832,2.832,0,0,0,1.459-.352,3.666,3.666,0,0,0,1.046-.932l.993.773A3.993,3.993,0,0,1,29.7,42.176Zm-.2-8.525a2.169,2.169,0,0,0-1.652.716,3.482,3.482,0,0,0-.826,2.008h4.764v-.123a3.1,3.1,0,0,0-.668-1.92A2.042,2.042,0,0,0,29.5,33.65Zm7.33-1.16.053,1.2a3.465,3.465,0,0,1,2.848-1.371q3.015,0,3.041,3.4V42H41.142V35.707a2.189,2.189,0,0,0-.47-1.521,1.884,1.884,0,0,0-1.437-.492,2.347,2.347,0,0,0-1.389.422,2.865,2.865,0,0,0-.932,1.107V42H35.288V32.49ZM49.28,37.166a5.571,5.571,0,0,1,1.037-3.52,3.529,3.529,0,0,1,5.361-.189V28.5H57.3V42H55.811l-.079-1.02a3.311,3.311,0,0,1-2.716,1.2,3.248,3.248,0,0,1-2.694-1.354,5.634,5.634,0,0,1-1.042-3.533Zm1.626.185a4.218,4.218,0,0,0,.668,2.531,2.159,2.159,0,0,0,1.846.914,2.372,2.372,0,0,0,2.259-1.389V35.039a2.39,2.39,0,0,0-2.241-1.345,2.17,2.17,0,0,0-1.863.923A4.644,4.644,0,0,0,50.906,37.351Zm12.867,4.825a4.155,4.155,0,0,1-3.146-1.27,4.714,4.714,0,0,1-1.213-3.4v-.3a5.707,5.707,0,0,1,.541-2.527,4.217,4.217,0,0,1,1.512-1.74,3.8,3.8,0,0,1,2.1-.628,3.562,3.562,0,0,1,2.883,1.222,5.289,5.289,0,0,1,1.028,3.5v.677H61.04a3.38,3.38,0,0,0,.822,2.272,2.583,2.583,0,0,0,2,.866A2.832,2.832,0,0,0,65.32,40.5a3.666,3.666,0,0,0,1.046-.932l.993.773A3.993,3.993,0,0,1,63.773,42.176Zm-.2-8.525a2.169,2.169,0,0,0-1.652.716,3.482,3.482,0,0,0-.826,2.008h4.764v-.123a3.1,3.1,0,0,0-.668-1.92A2.042,2.042,0,0,0,63.571,33.65Zm8-3.463v2.3h1.775v1.257H71.569v5.9a1.32,1.32,0,0,0,.237.858,1,1,0,0,0,.809.286,3.937,3.937,0,0,0,.773-.105V42a4.742,4.742,0,0,1-1.248.175,2.025,2.025,0,0,1-1.644-.659,2.832,2.832,0,0,1-.554-1.872v-5.9H68.212V32.49h1.731v-2.3Zm7.62,11.988a4.155,4.155,0,0,1-3.146-1.27,4.714,4.714,0,0,1-1.213-3.4v-.3a5.707,5.707,0,0,1,.541-2.527,4.217,4.217,0,0,1,1.512-1.74,3.8,3.8,0,0,1,2.1-.628,3.562,3.562,0,0,1,2.883,1.222,5.289,5.289,0,0,1,1.028,3.5v.677H76.456a3.38,3.38,0,0,0,.822,2.272,2.583,2.583,0,0,0,2,.866,2.832,2.832,0,0,0,1.459-.352,3.666,3.666,0,0,0,1.046-.932l.993.773A3.993,3.993,0,0,1,79.189,42.176Zm-.2-8.525a2.169,2.169,0,0,0-1.652.716,3.482,3.482,0,0,0-.826,2.008h4.764v-.123a3.1,3.1,0,0,0-.668-1.92A2.042,2.042,0,0,0,78.987,33.65Zm10.389.3a4.873,4.873,0,0,0-.8-.062,2.143,2.143,0,0,0-2.171,1.362V42H84.779V32.49h1.582l.026,1.1a2.532,2.532,0,0,1,2.268-1.274,1.661,1.661,0,0,1,.721.123ZM92.4,32.49l.044,1.055a3.512,3.512,0,0,1,2.821-1.23,2.719,2.719,0,0,1,2.716,1.529,3.6,3.6,0,0,1,1.235-1.107,3.647,3.647,0,0,1,1.8-.422q3.129,0,3.182,3.313V42h-1.626V35.725A2.184,2.184,0,0,0,102.1,34.2a2.051,2.051,0,0,0-1.564-.505,2.156,2.156,0,0,0-1.5.541,2.193,2.193,0,0,0-.694,1.455V42H96.706V35.769a1.814,1.814,0,0,0-2.03-2.074,2.175,2.175,0,0,0-2.188,1.362V42H90.861V32.49ZM108.413,42h-1.626V32.49h1.626Zm-1.758-12.032a.971.971,0,0,1,.242-.668.907.907,0,0,1,.716-.272.922.922,0,0,1,.721.272.96.96,0,0,1,.246.668.929.929,0,0,1-.246.659.938.938,0,0,1-.721.264.924.924,0,0,1-.716-.264A.938.938,0,0,1,106.655,29.968Zm5.9,2.522.053,1.2a3.465,3.465,0,0,1,2.848-1.371q3.015,0,3.041,3.4V42h-1.626V35.707a2.189,2.189,0,0,0-.47-1.521,1.884,1.884,0,0,0-1.437-.492,2.347,2.347,0,0,0-1.389.422,2.865,2.865,0,0,0-.932,1.107V42h-1.626V32.49ZM126.817,42a3.416,3.416,0,0,1-.229-1,3.628,3.628,0,0,1-2.707,1.178,3.357,3.357,0,0,1-2.307-.8,2.573,2.573,0,0,1-.9-2.017,2.688,2.688,0,0,1,1.129-2.307,5.325,5.325,0,0,1,3.177-.822h1.582v-.747a1.826,1.826,0,0,0-.51-1.358,2.049,2.049,0,0,0-1.5-.505,2.371,2.371,0,0,0-1.459.439,1.3,1.3,0,0,0-.589,1.063h-1.635a2.244,2.244,0,0,1,.505-1.375,3.449,3.449,0,0,1,1.371-1.05,4.613,4.613,0,0,1,1.9-.387,3.759,3.759,0,0,1,2.575.822,2.964,2.964,0,0,1,.967,2.263v4.377a5.351,5.351,0,0,0,.334,2.083V42Zm-2.7-1.239a2.858,2.858,0,0,0,1.45-.4,2.392,2.392,0,0,0,.993-1.028V37.386h-1.274q-2.988,0-2.988,1.749a1.48,1.48,0,0,0,.51,1.2A1.959,1.959,0,0,0,124.119,40.761ZM136.96,42h-1.626V28.5h1.626Zm8.473,0a3.416,3.416,0,0,1-.229-1,3.628,3.628,0,0,1-2.707,1.178,3.357,3.357,0,0,1-2.307-.8,2.573,2.573,0,0,1-.9-2.017,2.688,2.688,0,0,1,1.129-2.307,5.325,5.325,0,0,1,3.177-.822h1.582v-.747a1.826,1.826,0,0,0-.51-1.358,2.049,2.049,0,0,0-1.5-.505,2.371,2.371,0,0,0-1.459.439,1.3,1.3,0,0,0-.589,1.063h-1.635a2.244,2.244,0,0,1,.505-1.375,3.449,3.449,0,0,1,1.371-1.05,4.613,4.613,0,0,1,1.9-.387,3.759,3.759,0,0,1,2.575.822A2.964,2.964,0,0,1,146.8,35.4v4.377a5.351,5.351,0,0,0,.334,2.083V42Zm-2.7-1.239a2.858,2.858,0,0,0,1.45-.4,2.392,2.392,0,0,0,.993-1.028V37.386H143.9q-2.988,0-2.988,1.749a1.48,1.48,0,0,0,.51,1.2A1.959,1.959,0,0,0,142.734,40.761Zm10.644-3.6a5.617,5.617,0,0,1,.549-2.514,4.1,4.1,0,0,1,1.529-1.723,4.163,4.163,0,0,1,2.237-.606,4.01,4.01,0,0,1,3.142,1.345,5.174,5.174,0,0,1,1.2,3.577v.114a5.666,5.666,0,0,1-.532,2.492,4.038,4.038,0,0,1-1.521,1.718,4.211,4.211,0,0,1-2.272.615,4,4,0,0,1-3.133-1.345,5.147,5.147,0,0,1-1.2-3.56Zm1.635.193a4.068,4.068,0,0,0,.734,2.54,2.487,2.487,0,0,0,3.933-.013,4.449,4.449,0,0,0,.729-2.72,4.061,4.061,0,0,0-.743-2.536,2.361,2.361,0,0,0-1.973-.971,2.335,2.335,0,0,0-1.942.958A4.416,4.416,0,0,0,155.013,37.351ZM164.874,42V33.747h-1.5V32.49h1.5v-.976a3.238,3.238,0,0,1,.817-2.364A3.088,3.088,0,0,1,168,28.315a4.293,4.293,0,0,1,1.116.148l-.088,1.311a4.67,4.67,0,0,0-.879-.079,1.586,1.586,0,0,0-1.222.463,1.877,1.877,0,0,0-.431,1.327V32.49h2.03v1.257H166.5V42Zm9.185.176a4.155,4.155,0,0,1-3.146-1.27,4.714,4.714,0,0,1-1.213-3.4v-.3a5.707,5.707,0,0,1,.541-2.527,4.217,4.217,0,0,1,1.512-1.74,3.8,3.8,0,0,1,2.1-.628,3.562,3.562,0,0,1,2.883,1.222,5.289,5.289,0,0,1,1.028,3.5v.677h-6.442a3.38,3.38,0,0,0,.822,2.272,2.583,2.583,0,0,0,2,.866,2.832,2.832,0,0,0,1.459-.352,3.666,3.666,0,0,0,1.046-.932l.993.773A3.993,3.993,0,0,1,174.059,42.176Zm-.2-8.525a2.169,2.169,0,0,0-1.652.716,3.482,3.482,0,0,0-.826,2.008h4.764v-.123a3.1,3.1,0,0,0-.668-1.92A2.042,2.042,0,0,0,173.856,33.65Zm10.389.3a4.873,4.873,0,0,0-.8-.062,2.143,2.143,0,0,0-2.171,1.362V42h-1.626V32.49h1.582l.026,1.1a2.532,2.532,0,0,1,2.268-1.274,1.661,1.661,0,0,1,.721.123Zm4.14-3.762v2.3h1.775v1.257h-1.775v5.9a1.32,1.32,0,0,0,.237.858,1,1,0,0,0,.809.286,3.937,3.937,0,0,0,.773-.105V42a4.742,4.742,0,0,1-1.248.175,2.025,2.025,0,0,1-1.644-.659,2.832,2.832,0,0,1-.554-1.872v-5.9h-1.731V32.49h1.731v-2.3ZM197.93,42a3.416,3.416,0,0,1-.229-1,3.628,3.628,0,0,1-2.707,1.178,3.357,3.357,0,0,1-2.307-.8,2.573,2.573,0,0,1-.9-2.017,2.688,2.688,0,0,1,1.129-2.307,5.325,5.325,0,0,1,3.177-.822h1.582v-.747a1.826,1.826,0,0,0-.51-1.358,2.049,2.049,0,0,0-1.5-.505,2.371,2.371,0,0,0-1.459.439,1.3,1.3,0,0,0-.589,1.063h-1.635a2.244,2.244,0,0,1,.505-1.375,3.449,3.449,0,0,1,1.371-1.05,4.613,4.613,0,0,1,1.9-.387,3.759,3.759,0,0,1,2.575.822A2.964,2.964,0,0,1,199.3,35.4v4.377a5.351,5.351,0,0,0,.334,2.083V42Zm-2.7-1.239a2.858,2.858,0,0,0,1.45-.4,2.392,2.392,0,0,0,.993-1.028V37.386H196.4q-2.988,0-2.988,1.749a1.48,1.48,0,0,0,.51,1.2A1.959,1.959,0,0,0,195.231,40.761Zm6.653.387a1.018,1.018,0,0,1,.25-.7.954.954,0,0,1,.751-.281.983.983,0,0,1,.76.281,1,1,0,0,1,.259.7.944.944,0,0,1-.259.677,1,1,0,0,1-.76.272.9.9,0,0,1-1-.949Z" transform="translate(316 2762)" fill="#fff"/>
  </g>
</svg>
