<svg xmlns="http://www.w3.org/2000/svg" xmlns:xlink="http://www.w3.org/1999/xlink" width="630" height="501.438" viewBox="0 0 630 501.438">
  <defs>
    <filter id="Elipse_4720" x="53.648" y="138.428" width="185.946" height="185.946" filterUnits="userSpaceOnUse">
      <feOffset dy="3" input="SourceAlpha"/>
      <feGaussianBlur stdDeviation="3" result="blur"/>
      <feFlood flood-opacity="0.161"/>
      <feComposite operator="in" in2="blur"/>
      <feComposite in="SourceGraphic"/>
    </filter>
    <filter id="Elipse_4722" x="395.939" y="138.176" width="186.451" height="186.451" filterUnits="userSpaceOnUse">
      <feOffset dy="3" input="SourceAlpha"/>
      <feGaussianBlur stdDeviation="3" result="blur-2"/>
      <feFlood flood-opacity="0.161"/>
      <feComposite operator="in" in2="blur-2"/>
      <feComposite in="SourceGraphic"/>
    </filter>
    <filter id="Elipse_4724" x="225.487" y="179.211" width="184.813" height="184.813" filterUnits="userSpaceOnUse">
      <feOffset dy="3" input="SourceAlpha"/>
      <feGaussianBlur stdDeviation="3" result="blur-3"/>
      <feFlood flood-opacity="0.161"/>
      <feComposite operator="in" in2="blur-3"/>
      <feComposite in="SourceGraphic"/>
    </filter>
    <filter id="Elipse_4726" x="95.322" y="0" width="102.598" height="102.598" filterUnits="userSpaceOnUse">
      <feOffset dy="3" input="SourceAlpha"/>
      <feGaussianBlur stdDeviation="3" result="blur-4"/>
      <feFlood flood-opacity="0.161"/>
      <feComposite operator="in" in2="blur-4"/>
      <feComposite in="SourceGraphic"/>
    </filter>
    <filter id="Elipse_4727" x="441.449" y="1.774" width="99.05" height="99.05" filterUnits="userSpaceOnUse">
      <feOffset dy="3" input="SourceAlpha"/>
      <feGaussianBlur stdDeviation="3" result="blur-5"/>
      <feFlood flood-opacity="0.161"/>
      <feComposite operator="in" in2="blur-5"/>
      <feComposite in="SourceGraphic"/>
    </filter>
    <filter id="Elipse_4728" x="267.948" y="401.951" width="99.486" height="99.486" filterUnits="userSpaceOnUse">
      <feOffset dy="3" input="SourceAlpha"/>
      <feGaussianBlur stdDeviation="3" result="blur-6"/>
      <feFlood flood-opacity="0.161"/>
      <feComposite operator="in" in2="blur-6"/>
      <feComposite in="SourceGraphic"/>
    </filter>
  </defs>
  <g id="Grupo_88426" data-name="Grupo 88426" transform="translate(-648.799 -3504.356)">
    <g id="Grupo_88425" data-name="Grupo 88425" transform="translate(648.799 3510.356)">
      <g id="Grupo_88404" data-name="Grupo 88404" transform="translate(0 214.219)">
        <line id="Línea_115" data-name="Línea 115" x2="54.207" y2="0.413" transform="translate(6.215 6.265)" fill="none" stroke="#1c36a2" stroke-linecap="round" stroke-linejoin="round" stroke-width="1.61"/>
        <path id="Trazado_145241" data-name="Trazado 145241" d="M-5573.19-1046.3a6.215,6.215,0,0,1-6.289,6.14,6.214,6.214,0,0,1-6.14-6.288,6.215,6.215,0,0,1,6.288-6.141A6.217,6.217,0,0,1-5573.19-1046.3Z" transform="translate(5585.62 1052.592)" fill="#1c36a2"/>
      </g>
      <path id="Trazado_145242" data-name="Trazado 145242" d="M-4961.908-1026.44a6.193,6.193,0,0,0-5.862,4.47l-46.459.353a87.4,87.4,0,0,0-83.391-86.187v.2c-.077,0-.151-.006-.228-.006a87.408,87.408,0,0,0-87.31,87.309v43.25a83.727,83.727,0,0,1-83.631,83.631,83.726,83.726,0,0,1-83.631-83.631v-43.25a87.409,87.409,0,0,0-87.31-87.309,87.392,87.392,0,0,0-87.27,85.824l-46.471-.353a6.2,6.2,0,0,0-5.863-4.472,6.215,6.215,0,0,0-6.288,6.141,6.214,6.214,0,0,0,6.14,6.288,6.192,6.192,0,0,0,5.951-4.281l48.316.366h.013a1.837,1.837,0,0,0,1.838-1.824,1.806,1.806,0,0,0-.038-.194,1.624,1.624,0,0,0,.038-.187,83.728,83.728,0,0,1,83.632-83.633A83.728,83.728,0,0,1-5356.1-1020.3v43.25a87.406,87.406,0,0,0,87.308,87.307,87.406,87.406,0,0,0,87.308-87.307v-43.25a83.728,83.728,0,0,1,83.633-83.633c.366,0,.727.024,1.091.028v-.16a83.722,83.722,0,0,1,78.877,83.474,1.784,1.784,0,0,0,.083.413,1.743,1.743,0,0,0-.083.428,1.837,1.837,0,0,0,1.838,1.824h.016l48.315-.366a6.2,6.2,0,0,0,5.951,4.282,6.214,6.214,0,0,0,6.139-6.29A6.213,6.213,0,0,0-4961.908-1026.44Z" transform="translate(5585.62 1240.83)" fill="#4f37b3"/>
      <g id="Grupo_88406" data-name="Grupo 88406" transform="translate(58.304 134.084)">
        <g id="Grupo_88405" data-name="Grupo 88405" transform="translate(0 0)">
          <g transform="matrix(1, 0, 0, 1, -58.3, -140.08)" filter="url(#Elipse_4720)">
            <circle id="Elipse_4720-2" data-name="Elipse 4720" cx="69.803" cy="69.803" r="69.803" transform="translate(62.65 280.3) rotate(-76.72)" fill="#fff"/>
          </g>
          <circle id="Elipse_4721" data-name="Elipse 4721" cx="62.45" cy="62.45" r="62.45" transform="translate(0 88.317) rotate(-45)" fill="#c8ddf5"/>
        </g>
      </g>
      <g id="Grupo_88408" data-name="Grupo 88408" transform="translate(404.939 138.176)">
        <g id="Grupo_88407" data-name="Grupo 88407" transform="translate(0 0)">
          <g transform="matrix(1, 0, 0, 1, -404.94, -144.18)" filter="url(#Elipse_4722)">
            <circle id="Elipse_4722-2" data-name="Elipse 4722" cx="69.803" cy="69.803" r="69.803" transform="translate(404.94 279.89) rotate(-76.44)" fill="#fff"/>
          </g>
          <circle id="Elipse_4723" data-name="Elipse 4723" cx="62.45" cy="62.45" r="62.45" transform="translate(21.776 21.775)" fill="#c7d8f2"/>
        </g>
      </g>
      <g id="Grupo_88410" data-name="Grupo 88410" transform="translate(234.486 179.211)">
        <g id="Grupo_88409" data-name="Grupo 88409" transform="translate(0 0)">
          <g transform="matrix(1, 0, 0, 1, -234.49, -185.21)" filter="url(#Elipse_4724)">
            <circle id="Elipse_4724-2" data-name="Elipse 4724" cx="69.803" cy="69.803" r="69.803" transform="translate(234.49 321.42) rotate(-77.34)" fill="#fff"/>
          </g>
          <circle id="Elipse_4725" data-name="Elipse 4725" cx="62.45" cy="62.45" r="62.45" transform="translate(20.957 20.956)" fill="#c8ddf5"/>
        </g>
      </g>
      <g transform="matrix(1, 0, 0, 1, 0, -6)" filter="url(#Elipse_4726)">
        <circle id="Elipse_4726-2" data-name="Elipse 4726" cx="33.638" cy="33.638" r="33.638" transform="translate(104.32 70.07) rotate(-72.23)" fill="#fff"/>
      </g>
      <path id="Trazado_149107" data-name="Trazado 149107" d="M17.671-10.613q0,5.554-1.9,8.254T9.844.342a6.8,6.8,0,0,1-5.9-2.64q-1.914-2.64-1.982-7.887v-4.221q0-5.486,1.9-8.152T9.81-25.225q4.016,0,5.913,2.572t1.948,7.938Zm-3.162-4.324q0-4.016-1.128-5.853A3.882,3.882,0,0,0,9.81-22.627,3.831,3.831,0,0,0,6.272-20.8a11.311,11.311,0,0,0-1.145,5.623v5.059A11.771,11.771,0,0,0,6.3-4.161,3.875,3.875,0,0,0,9.844-2.239,3.822,3.822,0,0,0,13.322-4.05a11.345,11.345,0,0,0,1.188-5.708ZM32.112,0H28.933V-21.072L22.559-18.73V-21.6L31.616-25h.5Z" transform="translate(126.833 56.981)" fill="#05dbf2"/>
      <line id="Línea_116" data-name="Línea 116" y2="85.04" transform="translate(147.12 72.945)" fill="none" stroke="#fff" stroke-linecap="round" stroke-miterlimit="10" stroke-width="1.5"/>
      <path id="Trazado_145243" data-name="Trazado 145243" d="M-5491.34-1090.488s7.388-1.309,7.388-11.588h.658v13.846Z" transform="translate(5629.989 1243.526)" fill="#fff"/>
      <path id="Trazado_145244" data-name="Trazado 145244" d="M-5477.138-1090.341s-7.483-1.456-7.483-11.735h-.656v13.846Z" transform="translate(5632.842 1243.526)" fill="#fff"/>
      <path id="Trazado_145245" data-name="Trazado 145245" d="M-5491.34-1090.488s7.388-1.309,7.388-11.588h.658v13.846Z" transform="translate(5629.989 1243.526)" fill="#fff"/>
      <path id="Trazado_145246" data-name="Trazado 145246" d="M-5477.138-1090.341s-7.483-1.456-7.483-11.735h-.656v13.846Z" transform="translate(5632.842 1243.526)" fill="#fff"/>
      <g id="Grupo_88411" data-name="Grupo 88411" transform="translate(138.648 141.449)">
        <path id="Trazado_145247" data-name="Trazado 145247" d="M-5491.34-1090.488s7.388-1.309,7.388-11.588h.658v13.846Z" transform="translate(5491.34 1102.076)" fill="#fff"/>
        <path id="Trazado_145248" data-name="Trazado 145248" d="M-5477.138-1090.341s-7.483-1.456-7.483-11.735h-.656v13.846Z" transform="translate(5494.194 1102.076)" fill="#fff"/>
      </g>
      <g id="Grupo_88412" data-name="Grupo 88412" transform="translate(138.648 72.739)">
        <path id="Trazado_145249" data-name="Trazado 145249" d="M-5491.34-1146.58s7.264,1.287,7.264,11.391h.645v-13.61Z" transform="translate(5491.34 1148.799)" fill="#fff"/>
        <path id="Trazado_145250" data-name="Trazado 145250" d="M-5477.377-1146.724s-7.356,1.431-7.356,11.535h-.646v-13.61Z" transform="translate(5494.146 1148.799)" fill="#fff"/>
      </g>
      <g transform="matrix(1, 0, 0, 1, 0, -6)" filter="url(#Elipse_4727)">
        <circle id="Elipse_4727-2" data-name="Elipse 4727" cx="33.638" cy="33.638" r="33.638" transform="translate(450.45 73.21) rotate(-76.58)" fill="#fff"/>
      </g>
      <path id="Trazado_149108" data-name="Trazado 149108" d="M17.671-10.613q0,5.554-1.9,8.254T9.844.342a6.8,6.8,0,0,1-5.9-2.64q-1.914-2.64-1.982-7.887v-4.221q0-5.486,1.9-8.152T9.81-25.225q4.016,0,5.913,2.572t1.948,7.938Zm-3.162-4.324q0-4.016-1.128-5.853A3.882,3.882,0,0,0,9.81-22.627,3.831,3.831,0,0,0,6.272-20.8a11.311,11.311,0,0,0-1.145,5.623v5.059A11.771,11.771,0,0,0,6.3-4.161,3.875,3.875,0,0,0,9.844-2.239,3.822,3.822,0,0,0,13.322-4.05a11.345,11.345,0,0,0,1.188-5.708Zm11.809.957h2.375a5.221,5.221,0,0,0,3.521-1.179A3.94,3.94,0,0,0,33.5-18.252q0-4.375-4.358-4.375a4.533,4.533,0,0,0-3.273,1.171,4.1,4.1,0,0,0-1.222,3.1H21.482a6.347,6.347,0,0,1,2.162-4.913,7.875,7.875,0,0,1,5.494-1.957,7.782,7.782,0,0,1,5.52,1.863,6.729,6.729,0,0,1,2,5.178,5.462,5.462,0,0,1-1.051,3.145,6.346,6.346,0,0,1-2.863,2.273,6.115,6.115,0,0,1,3.17,2.153,5.98,5.98,0,0,1,1.119,3.674,6.788,6.788,0,0,1-2.187,5.315A8.192,8.192,0,0,1,29.155.342a8.408,8.408,0,0,1-5.7-1.9,6.293,6.293,0,0,1-2.2-5.007h3.179A4.067,4.067,0,0,0,25.72-3.418a4.875,4.875,0,0,0,3.435,1.179,4.784,4.784,0,0,0,3.5-1.2A4.61,4.61,0,0,0,33.872-6.87,4.183,4.183,0,0,0,32.539-10.2a5.808,5.808,0,0,0-3.845-1.2H26.318Z" transform="translate(467.769 56.981)" fill="#05dbf2"/>
      <line id="Línea_117" data-name="Línea 117" y2="85.04" transform="translate(491.473 72.945)" fill="none" stroke="#fff" stroke-linecap="round" stroke-miterlimit="10" stroke-width="1.5"/>
      <path id="Trazado_145251" data-name="Trazado 145251" d="M-5257.181-1090.488s7.389-1.309,7.389-11.588h.657v13.846Z" transform="translate(5740.182 1243.526)" fill="#fff"/>
      <path id="Trazado_145252" data-name="Trazado 145252" d="M-5242.977-1090.341s-7.483-1.456-7.483-11.735h-.658v13.846Z" transform="translate(5743.034 1243.526)" fill="#fff"/>
      <path id="Trazado_145253" data-name="Trazado 145253" d="M-5257.181-1090.488s7.389-1.309,7.389-11.588h.657v13.846Z" transform="translate(5740.182 1243.526)" fill="#fff"/>
      <path id="Trazado_145254" data-name="Trazado 145254" d="M-5242.977-1090.341s-7.483-1.456-7.483-11.735h-.658v13.846Z" transform="translate(5743.034 1243.526)" fill="#fff"/>
      <g id="Grupo_88413" data-name="Grupo 88413" transform="translate(483.001 141.449)">
        <path id="Trazado_145255" data-name="Trazado 145255" d="M-5257.181-1090.488s7.389-1.309,7.389-11.588h.657v13.846Z" transform="translate(5257.181 1102.076)" fill="#fff"/>
        <path id="Trazado_145256" data-name="Trazado 145256" d="M-5242.977-1090.341s-7.483-1.456-7.483-11.735h-.658v13.846Z" transform="translate(5260.033 1102.076)" fill="#fff"/>
      </g>
      <g id="Grupo_88414" data-name="Grupo 88414" transform="translate(483.001 72.739)">
        <path id="Trazado_145257" data-name="Trazado 145257" d="M-5257.181-1146.58s7.264,1.287,7.264,11.391h.646v-13.61Z" transform="translate(5257.181 1148.799)" fill="#fff"/>
        <path id="Trazado_145258" data-name="Trazado 145258" d="M-5243.219-1146.724s-7.354,1.431-7.354,11.535h-.646v-13.61Z" transform="translate(5259.986 1148.799)" fill="#fff"/>
      </g>
      <g transform="matrix(1, 0, 0, 1, 0, -6)" filter="url(#Elipse_4728)">
        <circle id="Elipse_4728-2" data-name="Elipse 4728" cx="33.638" cy="33.638" r="33.638" transform="translate(276.95 424.14) rotate(-13.92)" fill="#fff"/>
      </g>
      <path id="Trazado_149109" data-name="Trazado 149109" d="M17.671-10.613q0,5.554-1.9,8.254T9.844.342a6.8,6.8,0,0,1-5.9-2.64q-1.914-2.64-1.982-7.887v-4.221q0-5.486,1.9-8.152T9.81-25.225q4.016,0,5.913,2.572t1.948,7.938Zm-3.162-4.324q0-4.016-1.128-5.853A3.882,3.882,0,0,0,9.81-22.627,3.831,3.831,0,0,0,6.272-20.8a11.311,11.311,0,0,0-1.145,5.623v5.059A11.771,11.771,0,0,0,6.3-4.161,3.875,3.875,0,0,0,9.844-2.239,3.822,3.822,0,0,0,13.322-4.05a11.345,11.345,0,0,0,1.188-5.708ZM38.025,0h-16.3V-2.273l8.613-9.57a20.463,20.463,0,0,0,2.64-3.529,5.89,5.89,0,0,0,.726-2.811,4.465,4.465,0,0,0-1.179-3.2,4.123,4.123,0,0,0-3.145-1.248,4.883,4.883,0,0,0-3.666,1.342A5.124,5.124,0,0,0,24.4-17.551H21.243a7.339,7.339,0,0,1,2.213-5.554,8.2,8.2,0,0,1,5.922-2.119,7.884,7.884,0,0,1,5.486,1.82A6.208,6.208,0,0,1,36.88-18.56q0,3.674-4.683,8.75L25.532-2.581H38.025Z" transform="translate(296.868 455.64)" fill="#05dbf2"/>
      <line id="Línea_118" data-name="Línea 118" y1="85.04" transform="translate(318.19 327.009)" fill="none" stroke="#fff" stroke-linecap="round" stroke-miterlimit="10" stroke-width="1.5"/>
      <path id="Trazado_145259" data-name="Trazado 145259" d="M-5375.014-971.81s7.391,1.31,7.391,11.588h.655v-13.846Z" transform="translate(5684.731 1303.765)" fill="#fff"/>
      <path id="Trazado_145260" data-name="Trazado 145260" d="M-5360.81-971.955s-7.482,1.456-7.482,11.734h-.658v-13.846Z" transform="translate(5687.584 1303.765)" fill="#fff"/>
      <path id="Trazado_145261" data-name="Trazado 145261" d="M-5375.014-971.81s7.391,1.31,7.391,11.588h.655v-13.846Z" transform="translate(5684.731 1303.765)" fill="#fff"/>
      <path id="Trazado_145262" data-name="Trazado 145262" d="M-5360.81-971.955s-7.482,1.456-7.482,11.734h-.658v-13.846Z" transform="translate(5687.584 1303.765)" fill="#fff"/>
      <g id="Grupo_88415" data-name="Grupo 88415" transform="translate(309.717 329.698)">
        <path id="Trazado_145263" data-name="Trazado 145263" d="M-5375.014-971.81s7.391,1.31,7.391,11.588h.655v-13.846Z" transform="translate(5375.014 974.067)" fill="#fff"/>
        <path id="Trazado_145264" data-name="Trazado 145264" d="M-5360.81-971.955s-7.482,1.456-7.482,11.734h-.658v-13.846Z" transform="translate(5377.867 974.067)" fill="#fff"/>
      </g>
      <g id="Grupo_88416" data-name="Grupo 88416" transform="translate(309.717 398.644)">
        <path id="Trazado_145265" data-name="Trazado 145265" d="M-5375.014-915.791s7.264-1.288,7.264-11.393h.647v13.61Z" transform="translate(5375.014 927.184)" fill="#fff"/>
        <path id="Trazado_145266" data-name="Trazado 145266" d="M-5361.05-915.649s-7.354-1.431-7.354-11.535h-.647v13.61Z" transform="translate(5377.818 927.184)" fill="#fff"/>
      </g>
      <g id="Grupo_88417" data-name="Grupo 88417" transform="translate(126.833 184.97)">
        <path id="Trazado_145267" data-name="Trazado 145267" d="M-5473.593-1023.014a6.97,6.97,0,0,0-1.486-4.722,13.891,13.891,0,0,0-5.216-3.237q-3.735-1.522-6.895-3.084a23.93,23.93,0,0,1-5.445-3.618,14.217,14.217,0,0,1-3.5-4.76,15.873,15.873,0,0,1-1.219-6.55,14.074,14.074,0,0,1,4.341-10.607q4.34-4.169,11.578-4.854v-8.036h6.054v8.187a17.005,17.005,0,0,1,10.948,5.731,17.845,17.845,0,0,1,3.981,11.94h-12.872a10.391,10.391,0,0,0-1.523-6.093,5.019,5.019,0,0,0-4.342-2.134,4.928,4.928,0,0,0-3.9,1.581,6.38,6.38,0,0,0-1.39,4.36,6.167,6.167,0,0,0,1.6,4.475,15.717,15.717,0,0,0,5.141,3.16q3.541,1.5,6.682,3.124a25.536,25.536,0,0,1,5.428,3.675,15.047,15.047,0,0,1,3.58,4.8,15.327,15.327,0,0,1,1.294,6.588,14.339,14.339,0,0,1-4.131,10.625q-4.132,4.112-11.254,4.8v7.654h-6.054v-7.693q-8.3-.876-12.738-5.694t-4.437-12.7h12.834q0,4.341,1.922,6.607a6.775,6.775,0,0,0,5.465,2.266,5.391,5.391,0,0,0,4.075-1.543A5.863,5.863,0,0,0-5473.593-1023.014Z" transform="translate(5499.375 1072.482)" fill="#0f0140"/>
      </g>
      <g id="Grupo_88423" data-name="Grupo 88423" transform="translate(277.386 237.102)">
        <g id="Grupo_88418" data-name="Grupo 88418" transform="translate(8.225)">
          <path id="Trazado_145268" data-name="Trazado 145268" d="M-5333.942-1000.35v-32.172h-52.942v32.172Zm3.528-35.722a3.231,3.231,0,0,1,.982,2.359v37.882H-5391.4v-37.882a3.231,3.231,0,0,1,.97-2.359,3.208,3.208,0,0,1,2.347-.96h55.337A3.177,3.177,0,0,1-5330.414-1036.072Z" transform="translate(5391.404 1037.032)" fill="#0f0140" fill-rule="evenodd"/>
        </g>
        <g id="Grupo_88419" data-name="Grupo 88419" transform="translate(0 44.223)">
          <path id="Trazado_145269" data-name="Trazado 145269" d="M-5350.394-1004.116a2.552,2.552,0,0,0,1.873-.782,2.547,2.547,0,0,0,.783-1.875v-.187h29.164v1.015a5.379,5.379,0,0,1-1.654,3.957,5.374,5.374,0,0,1-3.958,1.654h-67.2a5.413,5.413,0,0,1-3.969-1.654,5.4,5.4,0,0,1-1.643-3.957v-1.015h29.173v.187a2.545,2.545,0,0,0,.771,1.875,2.559,2.559,0,0,0,1.875.782Z" transform="translate(5396.998 1006.96)" fill="#0f0140" fill-rule="evenodd"/>
        </g>
        <g id="Grupo_88420" data-name="Grupo 88420" transform="translate(19.481 7.134)">
          <path id="Trazado_145270" data-name="Trazado 145270" d="M-5373.884-1032.159l1.048,2.228a1.591,1.591,0,0,0,1.422.914l.076.022h1.556l.086-.022a1.593,1.593,0,0,0,1.424-.914l1.057-2.25a14.047,14.047,0,0,1,2.371.894,13.837,13.837,0,0,1,2.194,1.3l-1.124,2.272a1.613,1.613,0,0,0,.164,1.7.943.943,0,0,0,.067.068l.949,1.2c.025.025.049.051.076.076a1.573,1.573,0,0,0,1.588.541l2.458-.6c.13.307.252.624.363.947a13.418,13.418,0,0,1,.76,3.979l-2.491.552a1.6,1.6,0,0,0-1.213,1.181c-.012.029-.022.057-.033.087l-.353,1.5c0,.032-.008.065-.012.1a1.59,1.59,0,0,0,.6,1.578l1.974,1.522a12.962,12.962,0,0,1-3.142,3.969l-1.973-1.612a1.613,1.613,0,0,0-1.687-.207c-.031.01-.061.021-.088.032l-1.38.672-.077.045a1.579,1.579,0,0,0-.881,1.432l.034,2.5a12.431,12.431,0,0,1-2.68.253,12.093,12.093,0,0,1-2.36-.253l.024-2.535a1.6,1.6,0,0,0-.895-1.434c-.022-.019-.044-.038-.066-.055l-1.391-.662c-.029-.012-.058-.023-.088-.034a1.559,1.559,0,0,0-1.653.22l-1.94,1.576a12.453,12.453,0,0,1-3.131-3.959l1.974-1.543a1.575,1.575,0,0,0,.573-1.577l-.012-.078-.341-1.51c-.011-.026-.022-.051-.033-.076a1.575,1.575,0,0,0-1.19-1.179l-2.471-.529a12.887,12.887,0,0,1,1.159-4.9l2.437.6a1.6,1.6,0,0,0,1.6-.541l.067-.077.947-1.191a.463.463,0,0,0,.044-.066,1.6,1.6,0,0,0,.154-1.687l-1.135-2.271a13.448,13.448,0,0,1,3.562-1.875C-5374.574-1031.953-5374.227-1032.063-5373.884-1032.159Zm-.54,16.6a5.316,5.316,0,0,0,3.9,1.61,5.312,5.312,0,0,0,3.9-1.61,5.313,5.313,0,0,0,1.61-3.9,5.313,5.313,0,0,0-1.61-3.9,5.312,5.312,0,0,0-3.9-1.61,5.315,5.315,0,0,0-3.9,1.61,5.314,5.314,0,0,0-1.61,3.9A5.314,5.314,0,0,0-5374.424-1015.555Z" transform="translate(5383.751 1032.181)" fill="#0f0140" fill-rule="evenodd"/>
        </g>
        <g id="Grupo_88421" data-name="Grupo 88421" transform="translate(44.553 18.866)">
          <path id="Trazado_145271" data-name="Trazado 145271" d="M-5359.492-1024.2a7.951,7.951,0,0,1,1.478.131l-.034.894a1.584,1.584,0,0,0,.751,1.388l1.168.684a1.541,1.541,0,0,0,1.554-.065l.76-.454a7.227,7.227,0,0,1,1.511,2.559l-.805.431a1.56,1.56,0,0,0-.826,1.332v1.357a1.562,1.562,0,0,0,.826,1.334l.805.441a7.193,7.193,0,0,1-1.5,2.546l-.772-.474a1.541,1.541,0,0,0-1.554-.066l-1.168.7a1.561,1.561,0,0,0-.751,1.378l.034.915a8.077,8.077,0,0,1-1.478.132,8.219,8.219,0,0,1-1.489-.132l.022-.915a1.591,1.591,0,0,0-.638-1.335c-.033-.013-.066-.029-.1-.043l-1.169-.684a1.558,1.558,0,0,0-1.567.054l-.771.474-.056-.065a7.3,7.3,0,0,1-1.444-2.5l.794-.419a1.885,1.885,0,0,0,.617-.6,1.421,1.421,0,0,0,.231-.738v-1.357a1.584,1.584,0,0,0-.849-1.332l-.794-.431a7.3,7.3,0,0,1,1.5-2.559l.771.454a1.563,1.563,0,0,0,1.567.075l1.169-.682a1.587,1.587,0,0,0,.738-1.4l-.022-.894A8.091,8.091,0,0,1-5359.492-1024.2Zm-2.138,5.446a2.911,2.911,0,0,0-.883,2.14,2.913,2.913,0,0,0,.883,2.138,2.912,2.912,0,0,0,2.138.882,2.913,2.913,0,0,0,2.139-.882,2.909,2.909,0,0,0,.882-2.138,2.907,2.907,0,0,0-.882-2.14,2.913,2.913,0,0,0-2.139-.882A2.911,2.911,0,0,0-5361.63-1018.757Z" transform="translate(5366.703 1024.203)" fill="#0f0140" fill-rule="evenodd"/>
        </g>
        <g id="Grupo_88422" data-name="Grupo 88422" transform="translate(48.72 8.568)">
          <path id="Trazado_145272" data-name="Trazado 145272" d="M-5358.708-1026.047a2.908,2.908,0,0,1-2.14.882,2.909,2.909,0,0,1-2.139-.882,2.91,2.91,0,0,1-.883-2.138,2.911,2.911,0,0,1,.883-2.138,2.914,2.914,0,0,1,2.139-.883,2.913,2.913,0,0,1,2.14.883,2.906,2.906,0,0,1,.881,2.138A2.9,2.9,0,0,1-5358.708-1026.047Z" transform="translate(5363.869 1031.206)" fill="#0f0140" fill-rule="evenodd"/>
        </g>
      </g>
      <g id="Grupo_88424" data-name="Grupo 88424" transform="translate(448.032 195.764)">
        <path id="Trazado_145273" data-name="Trazado 145273" d="M-5243.826-1053.133v20.759a10.5,10.5,0,0,0,8.1-10.379A10.5,10.5,0,0,0-5243.826-1053.133Z" transform="translate(5298.433 1070.793)" fill="#0f0140"/>
        <path id="Trazado_145274" data-name="Trazado 145274" d="M-5236.145-1065.142a4.318,4.318,0,0,0-4.307,4.306v2.523c-8.772,7.647-16.924,10.58-29.237,10.58h-6.515a4.756,4.756,0,0,0-4.756,4.757v11.741a4.755,4.755,0,0,0,4.756,4.757h4.049l3.452,18.194a4.26,4.26,0,0,0,4.184,3.465h3.169a4.242,4.242,0,0,0,3.28-1.543,4.243,4.243,0,0,0,.9-3.509l-3.011-15.869c7.437,1.285,13.42,4.347,19.726,9.841v2.524a4.319,4.319,0,0,0,4.307,4.307,4.319,4.319,0,0,0,4.306-4.307v-47.462A4.318,4.318,0,0,0-5236.145-1065.142Z" transform="translate(5280.959 1065.142)" fill="#0f0140"/>
        <path id="Trazado_145275" data-name="Trazado 145275" d="M-5217.923-1047.944h-13.562a2.746,2.746,0,0,0-2.746,2.746,2.746,2.746,0,0,0,2.746,2.746h13.562a2.746,2.746,0,0,0,2.746-2.746A2.746,2.746,0,0,0-5217.923-1047.944Z" transform="translate(5302.95 1073.235)" fill="#0f0140"/>
        <path id="Trazado_145276" data-name="Trazado 145276" d="M-5220.04-1032.879l-12.292-5.731a2.744,2.744,0,0,0-3.648,1.328,2.746,2.746,0,0,0,1.328,3.65l12.291,5.731a2.737,2.737,0,0,0,1.158.257,2.747,2.747,0,0,0,2.491-1.585A2.749,2.749,0,0,0-5220.04-1032.879Z" transform="translate(5302.004 1077.507)" fill="#0f0140"/>
        <path id="Trazado_145277" data-name="Trazado 145277" d="M-5233.5-1049.692a2.74,2.74,0,0,0,1.159-.259l12.29-5.731a2.747,2.747,0,0,0,1.328-3.649,2.747,2.747,0,0,0-3.65-1.328l-12.289,5.731a2.744,2.744,0,0,0-1.328,3.649A2.743,2.743,0,0,0-5233.5-1049.692Z" transform="translate(5302 1067.13)" fill="#0f0140"/>
      </g>
    </g>
    <path id="Trazado_149105" data-name="Trazado 149105" d="M3.779,14.882h5.6V17H1.143V4.2H3.779Zm6.548-2.725a5.64,5.64,0,0,1,.545-2.522,3.989,3.989,0,0,1,1.569-1.714,4.577,4.577,0,0,1,2.377-.606A4.33,4.33,0,0,1,17.96,8.492a4.727,4.727,0,0,1,1.358,3.2l.018.65a4.97,4.97,0,0,1-1.222,3.511,4.247,4.247,0,0,1-3.278,1.323,4.268,4.268,0,0,1-3.283-1.318,5.058,5.058,0,0,1-1.226-3.586Zm2.54.18a3.555,3.555,0,0,0,.51,2.073,1.831,1.831,0,0,0,2.9.009,3.89,3.89,0,0,0,.519-2.267,3.519,3.519,0,0,0-.519-2.06,1.686,1.686,0,0,0-1.459-.731,1.658,1.658,0,0,0-1.441.726A3.955,3.955,0,0,0,12.867,12.338Zm13.184,2.035a.818.818,0,0,0-.461-.734,5.241,5.241,0,0,0-1.481-.479q-3.393-.712-3.393-2.883a2.613,2.613,0,0,1,1.05-2.114,4.237,4.237,0,0,1,2.747-.848,4.56,4.56,0,0,1,2.9.853,2.687,2.687,0,0,1,1.085,2.215h-2.54a1.229,1.229,0,0,0-.352-.9,1.488,1.488,0,0,0-1.1-.356,1.52,1.52,0,0,0-.993.29.916.916,0,0,0-.352.738.783.783,0,0,0,.4.681,4.114,4.114,0,0,0,1.349.448,11.019,11.019,0,0,1,1.6.426,2.628,2.628,0,0,1,2.013,2.558,2.481,2.481,0,0,1-1.116,2.1,4.815,4.815,0,0,1-2.883.8A5.029,5.029,0,0,1,22.4,16.75a3.561,3.561,0,0,1-1.455-1.169,2.716,2.716,0,0,1-.527-1.6h2.408a1.326,1.326,0,0,0,.5,1.037,1.987,1.987,0,0,0,1.248.36,1.839,1.839,0,0,0,1.1-.277A.861.861,0,0,0,26.051,14.372Zm12.542.756a1.666,1.666,0,0,0,1.143-.387,1.355,1.355,0,0,0,.457-1.028h2.382a3.258,3.258,0,0,1-.527,1.771,3.48,3.48,0,0,1-1.419,1.248,4.442,4.442,0,0,1-1.991.444,4.129,4.129,0,0,1-3.217-1.3A5.13,5.13,0,0,1,34.242,12.3v-.167a5.071,5.071,0,0,1,1.169-3.507,4.08,4.08,0,0,1,3.208-1.31A4,4,0,0,1,41.48,8.33a3.594,3.594,0,0,1,1.094,2.7H40.192a1.745,1.745,0,0,0-.457-1.206,1.7,1.7,0,0,0-2.5.183,3.749,3.749,0,0,0-.453,2.1v.264a3.8,3.8,0,0,0,.448,2.113A1.549,1.549,0,0,0,38.593,15.128Zm5.036-2.971a5.64,5.64,0,0,1,.545-2.522,3.989,3.989,0,0,1,1.569-1.714,4.577,4.577,0,0,1,2.377-.606,4.33,4.33,0,0,1,3.142,1.178,4.727,4.727,0,0,1,1.358,3.2l.018.65a4.97,4.97,0,0,1-1.222,3.511,4.735,4.735,0,0,1-6.561,0,5.058,5.058,0,0,1-1.226-3.586Zm2.54.18a3.555,3.555,0,0,0,.51,2.073,1.831,1.831,0,0,0,2.9.009,3.89,3.89,0,0,0,.519-2.267,3.519,3.519,0,0,0-.519-2.06,1.686,1.686,0,0,0-1.459-.731,1.658,1.658,0,0,0-1.441.726A3.955,3.955,0,0,0,46.169,12.338Zm13.184,2.035a.818.818,0,0,0-.461-.734,5.241,5.241,0,0,0-1.481-.479q-3.393-.712-3.393-2.883a2.613,2.613,0,0,1,1.05-2.114,4.237,4.237,0,0,1,2.747-.848,4.56,4.56,0,0,1,2.9.853A2.687,2.687,0,0,1,61.8,10.382h-2.54a1.229,1.229,0,0,0-.352-.9,1.488,1.488,0,0,0-1.1-.356,1.52,1.52,0,0,0-.993.29.916.916,0,0,0-.352.738.783.783,0,0,0,.4.681,4.114,4.114,0,0,0,1.349.448,11.019,11.019,0,0,1,1.6.426,2.628,2.628,0,0,1,2.013,2.558,2.481,2.481,0,0,1-1.116,2.1,4.815,4.815,0,0,1-2.883.8A5.029,5.029,0,0,1,55.7,16.75a3.561,3.561,0,0,1-1.455-1.169,2.716,2.716,0,0,1-.527-1.6h2.408a1.326,1.326,0,0,0,.5,1.037,1.987,1.987,0,0,0,1.248.36,1.839,1.839,0,0,0,1.1-.277A.861.861,0,0,0,59.353,14.372ZM66.5,5.152V7.49h1.626V9.354H66.5V14.1a1.133,1.133,0,0,0,.2.756,1.015,1.015,0,0,0,.773.229,4.051,4.051,0,0,0,.747-.062v1.925a5.229,5.229,0,0,1-1.538.229,2.425,2.425,0,0,1-2.725-2.7V9.354H62.569V7.49h1.389V5.152Zm2.382,7a5.64,5.64,0,0,1,.545-2.522,3.989,3.989,0,0,1,1.569-1.714,4.577,4.577,0,0,1,2.377-.606,4.33,4.33,0,0,1,3.142,1.178,4.727,4.727,0,0,1,1.358,3.2l.018.65a4.97,4.97,0,0,1-1.222,3.511,4.735,4.735,0,0,1-6.561,0,5.058,5.058,0,0,1-1.226-3.586Zm2.54.18a3.555,3.555,0,0,0,.51,2.073,1.831,1.831,0,0,0,2.9.009,3.89,3.89,0,0,0,.519-2.267,3.519,3.519,0,0,0-.519-2.06,1.686,1.686,0,0,0-1.459-.731,1.658,1.658,0,0,0-1.441.726A3.955,3.955,0,0,0,71.42,12.338ZM84.6,14.372a.818.818,0,0,0-.461-.734,5.241,5.241,0,0,0-1.481-.479q-3.393-.712-3.393-2.883a2.613,2.613,0,0,1,1.05-2.114,4.237,4.237,0,0,1,2.747-.848,4.56,4.56,0,0,1,2.9.853,2.687,2.687,0,0,1,1.085,2.215h-2.54a1.229,1.229,0,0,0-.352-.9,1.488,1.488,0,0,0-1.1-.356,1.52,1.52,0,0,0-.993.29.916.916,0,0,0-.352.738.783.783,0,0,0,.4.681,4.114,4.114,0,0,0,1.349.448,11.019,11.019,0,0,1,1.6.426,2.628,2.628,0,0,1,2.013,2.558,2.481,2.481,0,0,1-1.116,2.1,4.815,4.815,0,0,1-2.883.8,5.029,5.029,0,0,1-2.123-.426A3.561,3.561,0,0,1,79.5,15.581a2.716,2.716,0,0,1-.527-1.6h2.408a1.326,1.326,0,0,0,.5,1.037,1.987,1.987,0,0,0,1.248.36,1.839,1.839,0,0,0,1.1-.277A.861.861,0,0,0,84.6,14.372Zm8.191-2.2a5.731,5.731,0,0,1,1-3.542,3.237,3.237,0,0,1,2.729-1.318,2.913,2.913,0,0,1,2.294,1.037V3.5h2.549V17H99.07l-.123-1.011A2.989,2.989,0,0,1,96.5,17.176a3.228,3.228,0,0,1-2.694-1.323A5.916,5.916,0,0,1,92.795,12.175Zm2.54.181a3.775,3.775,0,0,0,.466,2.057,1.516,1.516,0,0,0,1.354.715,1.7,1.7,0,0,0,1.661-1V10.36a1.675,1.675,0,0,0-1.644-1Q95.335,9.362,95.335,12.356Zm12.375,4.82a4.668,4.668,0,0,1-3.406-1.283,4.561,4.561,0,0,1-1.314-3.419v-.246a5.745,5.745,0,0,1,.554-2.562,4.064,4.064,0,0,1,1.569-1.74,4.4,4.4,0,0,1,2.316-.611,3.947,3.947,0,0,1,3.072,1.23,5,5,0,0,1,1.121,3.489v1.037h-6.056a2.36,2.36,0,0,0,.743,1.494,2.245,2.245,0,0,0,1.569.563,2.742,2.742,0,0,0,2.294-1.063l1.248,1.4a3.813,3.813,0,0,1-1.547,1.261A5.075,5.075,0,0,1,107.71,17.176Zm-.29-7.813a1.587,1.587,0,0,0-1.226.512,2.651,2.651,0,0,0-.6,1.466h3.533v-.2a1.891,1.891,0,0,0-.457-1.311A1.638,1.638,0,0,0,107.42,9.362ZM9.536,37.333a5.7,5.7,0,0,1-1,3.52,3.2,3.2,0,0,1-2.694,1.323,2.963,2.963,0,0,1-2.329-1v4.482H.976V32.49H3.331l.088.932a2.985,2.985,0,0,1,2.408-1.107,3.22,3.22,0,0,1,2.733,1.3A5.858,5.858,0,0,1,9.536,37.2ZM7,37.139a3.763,3.763,0,0,0-.47-2.054,1.53,1.53,0,0,0-1.367-.723,1.662,1.662,0,0,0-1.644.917v3.906a1.691,1.691,0,0,0,1.661.943Q7,40.128,7,37.139Zm9.457-2.267a6.9,6.9,0,0,0-.914-.07,1.86,1.86,0,0,0-1.89.976V42h-2.54V32.49h2.4l.07,1.134a2.354,2.354,0,0,1,2.118-1.31,2.662,2.662,0,0,1,.791.114Zm.51,2.285a5.64,5.64,0,0,1,.545-2.522,3.989,3.989,0,0,1,1.569-1.714,4.577,4.577,0,0,1,2.377-.606A4.33,4.33,0,0,1,24.6,33.492a4.727,4.727,0,0,1,1.358,3.2l.018.65a4.97,4.97,0,0,1-1.222,3.511,4.247,4.247,0,0,1-3.278,1.323,4.268,4.268,0,0,1-3.283-1.318,5.058,5.058,0,0,1-1.226-3.586Zm2.54.18a3.555,3.555,0,0,0,.51,2.073,1.831,1.831,0,0,0,2.9.009,3.89,3.89,0,0,0,.519-2.267,3.519,3.519,0,0,0-.519-2.06,1.686,1.686,0,0,0-1.459-.731,1.658,1.658,0,0,0-1.441.726A3.955,3.955,0,0,0,19.5,37.338Zm7.638-.163a5.731,5.731,0,0,1,1-3.542,3.237,3.237,0,0,1,2.729-1.318,2.913,2.913,0,0,1,2.294,1.037V28.5H35.71V42H33.416l-.123-1.011a2.989,2.989,0,0,1-2.443,1.187,3.228,3.228,0,0,1-2.694-1.323A5.916,5.916,0,0,1,27.141,37.175Zm2.54.181a3.775,3.775,0,0,0,.466,2.057,1.516,1.516,0,0,0,1.354.715,1.7,1.7,0,0,0,1.661-1V35.36a1.675,1.675,0,0,0-1.644-1Q29.681,34.362,29.681,37.356Zm13.693,3.678a3.185,3.185,0,0,1-2.6,1.143,3,3,0,0,1-2.333-.879,3.752,3.752,0,0,1-.822-2.575V32.49h2.54v6.151q0,1.487,1.354,1.487a1.834,1.834,0,0,0,1.775-.9V32.49h2.549V42H43.444Zm8.332-.905a1.666,1.666,0,0,0,1.143-.387,1.355,1.355,0,0,0,.457-1.028h2.382a3.258,3.258,0,0,1-.527,1.771,3.48,3.48,0,0,1-1.419,1.248,4.442,4.442,0,0,1-1.991.444,4.129,4.129,0,0,1-3.217-1.3A5.13,5.13,0,0,1,47.355,37.3v-.167a5.071,5.071,0,0,1,1.169-3.507,4.08,4.08,0,0,1,3.208-1.31,4,4,0,0,1,2.861,1.015,3.594,3.594,0,0,1,1.094,2.7H53.306a1.745,1.745,0,0,0-.457-1.206,1.7,1.7,0,0,0-2.5.183,3.749,3.749,0,0,0-.453,2.1v.264a3.8,3.8,0,0,0,.448,2.113A1.549,1.549,0,0,0,51.706,40.128Zm9.387,0a1.666,1.666,0,0,0,1.143-.387,1.355,1.355,0,0,0,.457-1.028h2.382a3.258,3.258,0,0,1-.527,1.771,3.48,3.48,0,0,1-1.419,1.248,4.442,4.442,0,0,1-1.991.444,4.129,4.129,0,0,1-3.217-1.3A5.13,5.13,0,0,1,56.742,37.3v-.167a5.071,5.071,0,0,1,1.169-3.507,4.08,4.08,0,0,1,3.208-1.31A4,4,0,0,1,63.98,33.33a3.594,3.594,0,0,1,1.094,2.7H62.692a1.745,1.745,0,0,0-.457-1.206,1.7,1.7,0,0,0-2.5.183,3.749,3.749,0,0,0-.453,2.1v.264a3.8,3.8,0,0,0,.448,2.113A1.549,1.549,0,0,0,61.093,40.128ZM69.205,42H66.656V32.49h2.549Zm-2.7-11.971a1.251,1.251,0,0,1,.382-.94,1.648,1.648,0,0,1,2.079,0,1.342,1.342,0,0,1,0,1.89,1.629,1.629,0,0,1-2.065,0A1.247,1.247,0,0,1,66.507,30.029ZM70.9,37.157a5.64,5.64,0,0,1,.545-2.522,3.989,3.989,0,0,1,1.569-1.714,4.577,4.577,0,0,1,2.377-.606,4.33,4.33,0,0,1,3.142,1.178,4.727,4.727,0,0,1,1.358,3.2l.018.65a4.97,4.97,0,0,1-1.222,3.511,4.735,4.735,0,0,1-6.561,0A5.058,5.058,0,0,1,70.9,37.271Zm2.54.18a3.555,3.555,0,0,0,.51,2.073,1.831,1.831,0,0,0,2.9.009,3.89,3.89,0,0,0,.519-2.267,3.519,3.519,0,0,0-.519-2.06,1.686,1.686,0,0,0-1.459-.731,1.658,1.658,0,0,0-1.441.726A3.955,3.955,0,0,0,73.441,37.338ZM75.894,28.5h2.769l-2.435,2.725H74.162Zm7.919,3.99.079,1.1a3.32,3.32,0,0,1,2.733-1.274,2.759,2.759,0,0,1,2.25.888,4.142,4.142,0,0,1,.756,2.654V42h-2.54V35.9a1.654,1.654,0,0,0-.352-1.176,1.572,1.572,0,0,0-1.169-.366,1.747,1.747,0,0,0-1.608.916V42h-2.54V32.49Z" transform="translate(735.201 3837.229)" fill="#12263f"/>
    <path id="Trazado_149104" data-name="Trazado 149104" d="M3.779,14.882h5.6V17H1.143V4.2H3.779ZM16.233,17a2.821,2.821,0,0,1-.255-.853,3.073,3.073,0,0,1-2.4,1.028,3.376,3.376,0,0,1-2.316-.809,2.6,2.6,0,0,1-.918-2.039,2.687,2.687,0,0,1,1.121-2.32A5.529,5.529,0,0,1,14.7,11.19h1.169v-.545a1.567,1.567,0,0,0-.338-1.055,1.331,1.331,0,0,0-1.068-.4A1.513,1.513,0,0,0,13.46,9.5a1.045,1.045,0,0,0-.365.844h-2.54a2.551,2.551,0,0,1,.51-1.529,3.37,3.37,0,0,1,1.441-1.1,5.253,5.253,0,0,1,2.092-.4,4.15,4.15,0,0,1,2.791.883,3.09,3.09,0,0,1,1.033,2.483V14.8a4.546,4.546,0,0,0,.378,2.048V17Zm-2.1-1.767a2.188,2.188,0,0,0,1.037-.25,1.645,1.645,0,0,0,.7-.672V12.676h-.949q-1.907,0-2.03,1.318l-.009.149a1.017,1.017,0,0,0,.334.782A1.3,1.3,0,0,0,14.133,15.233ZM27.9,5.152V7.49h1.626V9.354H27.9V14.1a1.133,1.133,0,0,0,.2.756,1.015,1.015,0,0,0,.773.229,4.051,4.051,0,0,0,.747-.062v1.925a5.229,5.229,0,0,1-1.538.229,2.425,2.425,0,0,1-2.725-2.7V9.354H23.968V7.49h1.389V5.152Zm7.418,12.023a4.668,4.668,0,0,1-3.406-1.283,4.561,4.561,0,0,1-1.314-3.419v-.246a5.745,5.745,0,0,1,.554-2.562,4.064,4.064,0,0,1,1.569-1.74,4.4,4.4,0,0,1,2.316-.611A3.947,3.947,0,0,1,38.1,8.545a5,5,0,0,1,1.121,3.489v1.037H33.17a2.36,2.36,0,0,0,.743,1.494,2.245,2.245,0,0,0,1.569.563,2.742,2.742,0,0,0,2.294-1.063l1.248,1.4a3.813,3.813,0,0,1-1.547,1.261A5.075,5.075,0,0,1,35.314,17.176Zm-.29-7.813a1.587,1.587,0,0,0-1.226.512,2.651,2.651,0,0,0-.6,1.466h3.533v-.2a1.891,1.891,0,0,0-.457-1.311A1.638,1.638,0,0,0,35.024,9.362Zm9.6,5.766a1.666,1.666,0,0,0,1.143-.387,1.355,1.355,0,0,0,.457-1.028H48.6a3.258,3.258,0,0,1-.527,1.771,3.48,3.48,0,0,1-1.419,1.248,4.442,4.442,0,0,1-1.991.444,4.129,4.129,0,0,1-3.217-1.3A5.13,5.13,0,0,1,40.271,12.3v-.167A5.071,5.071,0,0,1,41.44,8.624a4.08,4.08,0,0,1,3.208-1.31A4,4,0,0,1,47.509,8.33a3.594,3.594,0,0,1,1.094,2.7H46.222a1.745,1.745,0,0,0-.457-1.206,1.7,1.7,0,0,0-2.5.183,3.749,3.749,0,0,0-.453,2.1v.264a3.8,3.8,0,0,0,.448,2.113A1.549,1.549,0,0,0,44.622,15.128Zm7.77-7.638.079,1.1A3.32,3.32,0,0,1,55.2,7.314a2.759,2.759,0,0,1,2.25.888,4.142,4.142,0,0,1,.756,2.654V17H55.67V10.9a1.654,1.654,0,0,0-.352-1.176,1.572,1.572,0,0,0-1.169-.366,1.747,1.747,0,0,0-1.608.916V17H50V7.49Zm7.348,4.667a5.64,5.64,0,0,1,.545-2.522,3.989,3.989,0,0,1,1.569-1.714,4.577,4.577,0,0,1,2.377-.606,4.33,4.33,0,0,1,3.142,1.178,4.727,4.727,0,0,1,1.358,3.2l.018.65a4.97,4.97,0,0,1-1.222,3.511,4.735,4.735,0,0,1-6.561,0,5.058,5.058,0,0,1-1.226-3.586Zm2.54.18a3.555,3.555,0,0,0,.51,2.073,1.831,1.831,0,0,0,2.9.009,3.89,3.89,0,0,0,.519-2.267,3.519,3.519,0,0,0-.519-2.06,1.686,1.686,0,0,0-1.459-.731,1.658,1.658,0,0,0-1.441.726A3.955,3.955,0,0,0,62.279,12.338ZM72.993,17H70.444V3.5h2.549Zm1.7-4.843a5.64,5.64,0,0,1,.545-2.522A3.989,3.989,0,0,1,76.8,7.921a4.577,4.577,0,0,1,2.377-.606,4.33,4.33,0,0,1,3.142,1.178,4.727,4.727,0,0,1,1.358,3.2l.018.65a4.97,4.97,0,0,1-1.222,3.511,4.735,4.735,0,0,1-6.561,0,5.058,5.058,0,0,1-1.226-3.586Zm2.54.18a3.555,3.555,0,0,0,.51,2.073,1.831,1.831,0,0,0,2.9.009,3.89,3.89,0,0,0,.519-2.267,3.519,3.519,0,0,0-.519-2.06,1.686,1.686,0,0,0-1.459-.731,1.658,1.658,0,0,0-1.441.726A3.955,3.955,0,0,0,77.229,12.338Zm7.664-.163A5.573,5.573,0,0,1,85.935,8.65a3.375,3.375,0,0,1,2.808-1.336,2.96,2.96,0,0,1,2.435,1.072l.105-.9h2.3v9.193a4.064,4.064,0,0,1-.567,2.171,3.641,3.641,0,0,1-1.6,1.406,5.608,5.608,0,0,1-2.408.483,5.215,5.215,0,0,1-2.039-.417,3.619,3.619,0,0,1-1.5-1.077L86.6,17.7a2.975,2.975,0,0,0,2.3,1.063,2.178,2.178,0,0,0,1.573-.541,2.027,2.027,0,0,0,.563-1.534v-.51a2.938,2.938,0,0,1-2.312.993,3.366,3.366,0,0,1-2.773-1.34,5.572,5.572,0,0,1-1.059-3.555Zm2.54.181a3.489,3.489,0,0,0,.519,2.035,1.648,1.648,0,0,0,1.424.737,1.762,1.762,0,0,0,1.661-.874V10.236a1.758,1.758,0,0,0-1.644-.874,1.659,1.659,0,0,0-1.437.751A3.933,3.933,0,0,0,87.434,12.356ZM98.279,17h-2.54V7.49h2.54ZM97.532,3.632H100.3L97.866,6.356H95.8ZM105.979,17a2.821,2.821,0,0,1-.255-.853,3.073,3.073,0,0,1-2.4,1.028,3.376,3.376,0,0,1-2.316-.809,2.6,2.6,0,0,1-.918-2.039,2.687,2.687,0,0,1,1.121-2.32,5.529,5.529,0,0,1,3.239-.817h1.169v-.545a1.567,1.567,0,0,0-.338-1.055,1.331,1.331,0,0,0-1.068-.4,1.513,1.513,0,0,0-1.006.308,1.045,1.045,0,0,0-.365.844H100.3a2.551,2.551,0,0,1,.51-1.529,3.37,3.37,0,0,1,1.441-1.1,5.253,5.253,0,0,1,2.092-.4,4.15,4.15,0,0,1,2.791.883,3.09,3.09,0,0,1,1.033,2.483V14.8a4.546,4.546,0,0,0,.378,2.048V17Zm-2.1-1.767a2.188,2.188,0,0,0,1.037-.25,1.645,1.645,0,0,0,.7-.672V12.676h-.949q-1.907,0-2.03,1.318l-.009.149a1.017,1.017,0,0,0,.334.782A1.3,1.3,0,0,0,103.878,15.233Z" transform="translate(907.665 3637.712)" fill="#12263f"/>
    <path id="Trazado_149106" data-name="Trazado 149106" d="M3.779,14.882h5.6V17H1.143V4.2H3.779Zm6.548-2.725a5.64,5.64,0,0,1,.545-2.522,3.989,3.989,0,0,1,1.569-1.714,4.577,4.577,0,0,1,2.377-.606A4.33,4.33,0,0,1,17.96,8.492a4.727,4.727,0,0,1,1.358,3.2l.018.65a4.97,4.97,0,0,1-1.222,3.511,4.247,4.247,0,0,1-3.278,1.323,4.268,4.268,0,0,1-3.283-1.318,5.058,5.058,0,0,1-1.226-3.586Zm2.54.18a3.555,3.555,0,0,0,.51,2.073,1.831,1.831,0,0,0,2.9.009,3.89,3.89,0,0,0,.519-2.267,3.519,3.519,0,0,0-.519-2.06,1.686,1.686,0,0,0-1.459-.731,1.658,1.658,0,0,0-1.441.726A3.955,3.955,0,0,0,12.867,12.338Zm13.184,2.035a.818.818,0,0,0-.461-.734,5.241,5.241,0,0,0-1.481-.479q-3.393-.712-3.393-2.883a2.613,2.613,0,0,1,1.05-2.114,4.237,4.237,0,0,1,2.747-.848,4.56,4.56,0,0,1,2.9.853,2.687,2.687,0,0,1,1.085,2.215h-2.54a1.229,1.229,0,0,0-.352-.9,1.488,1.488,0,0,0-1.1-.356,1.52,1.52,0,0,0-.993.29.916.916,0,0,0-.352.738.783.783,0,0,0,.4.681,4.114,4.114,0,0,0,1.349.448,11.019,11.019,0,0,1,1.6.426,2.628,2.628,0,0,1,2.013,2.558,2.481,2.481,0,0,1-1.116,2.1,4.815,4.815,0,0,1-2.883.8A5.029,5.029,0,0,1,22.4,16.75a3.561,3.561,0,0,1-1.455-1.169,2.716,2.716,0,0,1-.527-1.6h2.408a1.326,1.326,0,0,0,.5,1.037,1.987,1.987,0,0,0,1.248.36,1.839,1.839,0,0,0,1.1-.277A.861.861,0,0,0,26.051,14.372Zm8.191-2.215a5.64,5.64,0,0,1,.545-2.522,3.989,3.989,0,0,1,1.569-1.714,4.577,4.577,0,0,1,2.377-.606,4.33,4.33,0,0,1,3.142,1.178,4.727,4.727,0,0,1,1.358,3.2l.018.65a4.97,4.97,0,0,1-1.222,3.511,4.247,4.247,0,0,1-3.278,1.323,4.268,4.268,0,0,1-3.283-1.318,5.058,5.058,0,0,1-1.226-3.586Zm2.54.18a3.555,3.555,0,0,0,.51,2.073,1.831,1.831,0,0,0,2.9.009,3.89,3.89,0,0,0,.519-2.267,3.519,3.519,0,0,0-.519-2.06,1.686,1.686,0,0,0-1.459-.731,1.658,1.658,0,0,0-1.441.726A3.955,3.955,0,0,0,36.782,12.338Zm16.6,0a5.758,5.758,0,0,1-.976,3.564,3.231,3.231,0,0,1-2.725,1.279,2.969,2.969,0,0,1-2.47-1.187L47.1,17H44.815V3.5h2.54V8.343a2.893,2.893,0,0,1,2.312-1.028A3.258,3.258,0,0,1,52.4,8.593a5.767,5.767,0,0,1,.989,3.6Zm-2.54-.194a3.8,3.8,0,0,0-.457-2.111,1.544,1.544,0,0,0-1.362-.666,1.675,1.675,0,0,0-1.67,1v3.764a1.7,1.7,0,0,0,1.688,1,1.569,1.569,0,0,0,1.617-1.217A6.294,6.294,0,0,0,50.845,12.139ZM57.639,7.49V17.519a3.4,3.4,0,0,1-.835,2.448,3.174,3.174,0,0,1-2.408.875,5.165,5.165,0,0,1-1.257-.149V18.679a4.768,4.768,0,0,0,.8.079q1.151,0,1.151-1.222V7.49ZM54.888,5.029a1.251,1.251,0,0,1,.382-.94,1.654,1.654,0,0,1,2.083,0,1.251,1.251,0,0,1,.382.94,1.247,1.247,0,0,1-.391.949,1.629,1.629,0,0,1-2.065,0A1.247,1.247,0,0,1,54.888,5.029ZM64,17.176A4.668,4.668,0,0,1,60.6,15.893a4.561,4.561,0,0,1-1.314-3.419v-.246a5.745,5.745,0,0,1,.554-2.562A4.064,4.064,0,0,1,61.4,7.925a4.4,4.4,0,0,1,2.316-.611,3.947,3.947,0,0,1,3.072,1.23,5,5,0,0,1,1.121,3.489v1.037H61.857a2.36,2.36,0,0,0,.743,1.494,2.245,2.245,0,0,0,1.569.563,2.742,2.742,0,0,0,2.294-1.063l1.248,1.4a3.813,3.813,0,0,1-1.547,1.261A5.075,5.075,0,0,1,64,17.176Zm-.29-7.813a1.587,1.587,0,0,0-1.226.512,2.651,2.651,0,0,0-.6,1.466h3.533v-.2a1.891,1.891,0,0,0-.457-1.311A1.638,1.638,0,0,0,63.712,9.362ZM72.4,5.152V7.49h1.626V9.354H72.4V14.1a1.133,1.133,0,0,0,.2.756,1.015,1.015,0,0,0,.773.229,4.051,4.051,0,0,0,.747-.062v1.925a5.229,5.229,0,0,1-1.538.229,2.425,2.425,0,0,1-2.725-2.7V9.354H68.467V7.49h1.389V5.152ZM78.117,17H75.568V7.49h2.549Zm-2.7-11.971a1.251,1.251,0,0,1,.382-.94,1.648,1.648,0,0,1,2.079,0,1.244,1.244,0,0,1,.387.94,1.247,1.247,0,0,1-.391.949,1.629,1.629,0,0,1-2.065,0A1.247,1.247,0,0,1,75.419,5.029Zm8.35,8.868L85.535,7.49h2.654L84.981,17H82.556L79.348,7.49H82Zm5.01-1.74a5.64,5.64,0,0,1,.545-2.522,3.989,3.989,0,0,1,1.569-1.714,4.577,4.577,0,0,1,2.377-.606,4.33,4.33,0,0,1,3.142,1.178,4.727,4.727,0,0,1,1.358,3.2l.018.65a4.97,4.97,0,0,1-1.222,3.511,4.735,4.735,0,0,1-6.561,0,5.058,5.058,0,0,1-1.226-3.586Zm2.54.18a3.555,3.555,0,0,0,.51,2.073,1.831,1.831,0,0,0,2.9.009,3.89,3.89,0,0,0,.519-2.267,3.519,3.519,0,0,0-.519-2.06,1.686,1.686,0,0,0-1.459-.731,1.658,1.658,0,0,0-1.441.726A3.955,3.955,0,0,0,91.318,12.338ZM104.5,14.372a.818.818,0,0,0-.461-.734,5.241,5.241,0,0,0-1.481-.479q-3.393-.712-3.393-2.883a2.613,2.613,0,0,1,1.05-2.114,4.237,4.237,0,0,1,2.747-.848,4.56,4.56,0,0,1,2.9.853,2.687,2.687,0,0,1,1.085,2.215h-2.54a1.229,1.229,0,0,0-.352-.9,1.488,1.488,0,0,0-1.1-.356,1.52,1.52,0,0,0-.993.29.916.916,0,0,0-.352.738.783.783,0,0,0,.4.681,4.114,4.114,0,0,0,1.349.448,11.019,11.019,0,0,1,1.6.426,2.628,2.628,0,0,1,2.013,2.558,2.481,2.481,0,0,1-1.116,2.1,4.815,4.815,0,0,1-2.883.8,5.029,5.029,0,0,1-2.123-.426A3.561,3.561,0,0,1,99.4,15.581a2.716,2.716,0,0,1-.527-1.6h2.408a1.326,1.326,0,0,0,.5,1.037,1.987,1.987,0,0,0,1.248.36,1.839,1.839,0,0,0,1.1-.277A.861.861,0,0,0,104.5,14.372ZM4.931,40.128a1.666,1.666,0,0,0,1.143-.387,1.355,1.355,0,0,0,.457-1.028H8.912a3.258,3.258,0,0,1-.527,1.771,3.48,3.48,0,0,1-1.419,1.248,4.442,4.442,0,0,1-1.991.444,4.129,4.129,0,0,1-3.217-1.3A5.13,5.13,0,0,1,.58,37.3v-.167a5.071,5.071,0,0,1,1.169-3.507,4.08,4.08,0,0,1,3.208-1.31A4,4,0,0,1,7.818,33.33a3.594,3.594,0,0,1,1.094,2.7H6.53a1.745,1.745,0,0,0-.457-1.206,1.524,1.524,0,0,0-1.16-.464,1.53,1.53,0,0,0-1.34.647,3.749,3.749,0,0,0-.453,2.1v.264a3.8,3.8,0,0,0,.448,2.113A1.549,1.549,0,0,0,4.931,40.128Zm5.036-2.971a5.64,5.64,0,0,1,.545-2.522,3.989,3.989,0,0,1,1.569-1.714,4.577,4.577,0,0,1,2.377-.606A4.33,4.33,0,0,1,17.6,33.492a4.727,4.727,0,0,1,1.358,3.2l.018.65a4.97,4.97,0,0,1-1.222,3.511,4.247,4.247,0,0,1-3.278,1.323,4.268,4.268,0,0,1-3.283-1.318,5.058,5.058,0,0,1-1.226-3.586Zm2.54.18a3.555,3.555,0,0,0,.51,2.073,1.682,1.682,0,0,0,1.459.717,1.686,1.686,0,0,0,1.441-.709,3.89,3.89,0,0,0,.519-2.267,3.519,3.519,0,0,0-.519-2.06,1.686,1.686,0,0,0-1.459-.731,1.658,1.658,0,0,0-1.441.726A3.955,3.955,0,0,0,12.507,37.338Zm13.377-2.465a6.9,6.9,0,0,0-.914-.07,1.86,1.86,0,0,0-1.89.976V42H20.54V32.49h2.4l.07,1.134a2.354,2.354,0,0,1,2.118-1.31,2.662,2.662,0,0,1,.791.114Zm9.782,2.461a5.7,5.7,0,0,1-1,3.52,3.2,3.2,0,0,1-2.694,1.323,2.963,2.963,0,0,1-2.329-1v4.482h-2.54V32.49h2.355l.088.932a2.985,2.985,0,0,1,2.408-1.107,3.22,3.22,0,0,1,2.733,1.3,5.858,5.858,0,0,1,.976,3.586Zm-2.54-.194a3.763,3.763,0,0,0-.47-2.054,1.53,1.53,0,0,0-1.367-.723,1.662,1.662,0,0,0-1.644.917v3.906a1.691,1.691,0,0,0,1.661.943Q33.126,40.128,33.126,37.139Zm3.718.018a5.64,5.64,0,0,1,.545-2.522,3.989,3.989,0,0,1,1.569-1.714,4.577,4.577,0,0,1,2.377-.606,4.33,4.33,0,0,1,3.142,1.178,4.727,4.727,0,0,1,1.358,3.2l.018.65a4.97,4.97,0,0,1-1.222,3.511,4.735,4.735,0,0,1-6.561,0,5.058,5.058,0,0,1-1.226-3.586Zm2.54.18a3.555,3.555,0,0,0,.51,2.073,1.831,1.831,0,0,0,2.9.009,3.89,3.89,0,0,0,.519-2.267,3.519,3.519,0,0,0-.519-2.06,1.686,1.686,0,0,0-1.459-.731,1.658,1.658,0,0,0-1.441.726A3.955,3.955,0,0,0,39.384,37.338Zm13.377-2.465a6.9,6.9,0,0,0-.914-.07,1.86,1.86,0,0,0-1.89.976V42h-2.54V32.49h2.4l.07,1.134A2.354,2.354,0,0,1,52,32.314a2.662,2.662,0,0,1,.791.114ZM59.229,42a2.821,2.821,0,0,1-.255-.853,3.073,3.073,0,0,1-2.4,1.028,3.376,3.376,0,0,1-2.316-.809,2.6,2.6,0,0,1-.918-2.039,2.687,2.687,0,0,1,1.121-2.32A5.529,5.529,0,0,1,57.7,36.19h1.169v-.545a1.567,1.567,0,0,0-.338-1.055,1.331,1.331,0,0,0-1.068-.4,1.513,1.513,0,0,0-1.006.308,1.045,1.045,0,0,0-.365.844h-2.54a2.551,2.551,0,0,1,.51-1.529,3.37,3.37,0,0,1,1.441-1.1,5.253,5.253,0,0,1,2.092-.4,4.15,4.15,0,0,1,2.791.883,3.09,3.09,0,0,1,1.033,2.483V39.8a4.546,4.546,0,0,0,.378,2.048V42Zm-2.1-1.767a2.188,2.188,0,0,0,1.037-.25,1.645,1.645,0,0,0,.7-.672V37.676H57.92q-1.907,0-2.03,1.318l-.009.149a1.017,1.017,0,0,0,.334.782A1.3,1.3,0,0,0,57.129,40.233ZM66.41,30.152V32.49h1.626v1.863H66.41V39.1a1.133,1.133,0,0,0,.2.756,1.015,1.015,0,0,0,.773.229,4.051,4.051,0,0,0,.747-.062v1.925a5.229,5.229,0,0,1-1.538.229,2.425,2.425,0,0,1-2.725-2.7V34.354H62.481V32.49H63.87V30.152ZM72.132,42H69.583V32.49h2.549Zm-2.7-11.971a1.251,1.251,0,0,1,.382-.94,1.648,1.648,0,0,1,2.079,0,1.342,1.342,0,0,1,0,1.89,1.629,1.629,0,0,1-2.065,0A1.247,1.247,0,0,1,69.434,30.029Zm8.35,8.868L79.55,32.49H82.2L79,42H76.57l-3.208-9.51h2.654Zm5.01-1.74a5.64,5.64,0,0,1,.545-2.522,3.989,3.989,0,0,1,1.569-1.714,4.577,4.577,0,0,1,2.377-.606,4.33,4.33,0,0,1,3.142,1.178,4.727,4.727,0,0,1,1.358,3.2l.018.65a4.97,4.97,0,0,1-1.222,3.511,4.735,4.735,0,0,1-6.561,0,5.058,5.058,0,0,1-1.226-3.586Zm2.54.18a3.555,3.555,0,0,0,.51,2.073,1.831,1.831,0,0,0,2.9.009,3.89,3.89,0,0,0,.519-2.267,3.519,3.519,0,0,0-.519-2.06,1.686,1.686,0,0,0-1.459-.731,1.658,1.658,0,0,0-1.441.726A3.955,3.955,0,0,0,85.333,37.338Zm13.184,2.035a.818.818,0,0,0-.461-.734,5.241,5.241,0,0,0-1.481-.479q-3.393-.712-3.393-2.883a2.613,2.613,0,0,1,1.05-2.114,4.237,4.237,0,0,1,2.747-.848,4.56,4.56,0,0,1,2.9.853,2.687,2.687,0,0,1,1.085,2.215H98.42a1.229,1.229,0,0,0-.352-.9,1.488,1.488,0,0,0-1.1-.356,1.52,1.52,0,0,0-.993.29.916.916,0,0,0-.352.738.783.783,0,0,0,.4.681,4.114,4.114,0,0,0,1.349.448,11.019,11.019,0,0,1,1.6.426,2.628,2.628,0,0,1,2.013,2.558,2.481,2.481,0,0,1-1.116,2.1,4.815,4.815,0,0,1-2.883.8,5.029,5.029,0,0,1-2.123-.426,3.561,3.561,0,0,1-1.455-1.169,2.716,2.716,0,0,1-.527-1.6h2.408a1.326,1.326,0,0,0,.5,1.037,1.987,1.987,0,0,0,1.248.36,1.839,1.839,0,0,0,1.1-.277A.861.861,0,0,0,98.517,39.372Z" transform="translate(1104.646 3837.229)" fill="#12263f"/>
  </g>
</svg>
